<?xml version="1.0" encoding="utf-8"?>
<!-- Generator: Adobe Illustrator 27.5.0, SVG Export Plug-In . SVG Version: 6.00 Build 0)  -->
<svg version="1.1" xmlns="http://www.w3.org/2000/svg" xmlns:xlink="http://www.w3.org/1999/xlink" x="0px" y="0px"
	 viewBox="0 0 500 500" style="enable-background:new 0 0 500 500;" xml:space="preserve">
<g id="BACKGROUND">
	<rect style="fill:#EDEDED;" width="500" height="500"/>
</g>
<g id="OBJECTS">
	<g>
		<g>
			<path style="fill:#FFFFFF;" d="M358.94,217.486c0.682-12.189,21.402-5.883,19.942-52.549
				c-1.268-40.508-55.428-36.144-121.113-48.172c-111.847-20.481-121.132,21.568-121.114,48.172
				c0.027,39.93,15.526,30.955,19.479,69.641c2.56,25.054-63.84-0.483-60.079,80.523c2.986,64.305,81.492,64.349,168.675,64.349
				s156.383-12.78,157.859-62.944C425.961,201.956,356.843,254.995,358.94,217.486z"/>
			<g>
				<path style="fill:#EDEDED;" d="M361.373,159.499c-2.021-1.55-3.49-1.32-5.04,6.29c-0.101,0.48-0.2,0.93-0.311,1.37
					c-1.64,6.58-4.56,9.13-7.689,9.57c-2.521,0.35-2.15-4.84-0.601-11.23c0.511-2.05,1.13-4.23,1.82-6.39
					c2.82-8.84,0.34-17.61-6.65-12.57c0,0-4.359,9.87-5.47,18.75c-0.189,1.43-0.28,2.84-0.26,4.18c-1.57,1.9-3.73,3.65-6.61,4.31
					c-2.79,0.64-3.279-2.89-2.81-7.56c0.79-7.78,4.25-18.73,4.13-18.82c-5.43-4.47-10.64-1.87-13.46,10.38
					c-1.64,1.2-3.74,2.35-6.34,3.05c0.05-6.87-2.12-12.82-6.44-14.83c-0.47-0.22-0.93-0.39-1.38-0.54l0.021-0.08
					c0,0-0.601-0.19-1.551-0.31c-1.37-0.23-2.569-0.14-3.56,0.1c-2.24,0.4-4.83,1.58-6.95,4.5c-2.8,3.83-2.87,7.65-0.78,10.51
					c-0.14,0.06-0.229,0.1-0.229,0.1s-3.61,1.5-5.14,7.25c-0.04,0.16-0.08,0.32-0.12,0.49c-2.37,2.05-5.79,4.23-10.66,6.05
					c0.33-2.31,0.6-4.6,0.79-6.82c0.06-0.52,0.1-1.04,0.14-1.55c1.5-19.63-5-17.13-6.38-13.63c0,0-1.1,6.38-2.45,14.48
					c-0.25,0.34-0.51,0.68-0.79,1.01c-1.29,1.53-2.92,2.76-4.88,3.01c-2.061,0.27-3.21-1.14-3.85-3.3
					c-1.211-4.01-0.66-10.61-0.91-13.94c-0.37-5.13-5.62-6.38-8.74-4.63c0,0-1.73,10.21,0.35,17.74c0.42,1.52,0.99,2.93,1.77,4.13
					c3.14,4.84,10.38,4.95,16.19,1.19c-0.311,1.84-0.61,3.7-0.921,5.56c-13.46,4.51-28.85,10.87-26.26,26l-0.01,0.01
					c0,0,0.04,0.28,0.13,0.75c0,0.01,0,0.02,0.01,0.02c0.53,2.62,2.85,10.96,11.03,10.96c1.229,0,2.58-0.19,4.08-0.61
					c10.82-3.03,17.3-20.22,20.18-37.07c4.66-2.34,8.08-3.81,10.66-5.17c-0.04,0.95-0.04,1.95,0.04,3.04
					c0.85,12.27,18.08,11.34,23.36,0c0.76-1.62,1.38-3.309,1.859-5.03c0.61-2.09,1.011-4.22,1.221-6.31
					c2.189-0.59,4.12-1.39,5.77-2.25c-0.38,2.58-0.439,4.76-0.229,6.6c0.77,6.61,5.17,8.65,11.64,7.85
					c3.559-0.44,6.34-1.87,8.4-3.41c0.75,3.61,2.83,6.2,7.189,6.44c8.49,0.46,13.26-4.78,15.54-9.97
					C362.192,164.679,362.313,160.219,361.373,159.499z M262.843,195.329c-1.62,12-4.12,14.74-9.12,16.37s-6.63-4-6.76-7
					c0-0.11-0.03-0.21-0.06-0.31c-0.1-3.2,1.3-11.76,16.69-20.89c0.39-0.22,0.76-0.44,1.13-0.66
					C263.953,187.719,263.272,192.179,262.843,195.329z M303.482,148.759c1.351,0.52,3.301,2.25,3.301,7.99
					c0,1.35-0.11,2.93-0.36,4.77C295.013,161.359,296.823,147.569,303.482,148.759z M295.323,180.379
					c-2.62,0.51-2.19-5.79-1.1-11.42c0.39-2.06,0.88-4.04,1.34-5.56c2.63,1.2,6.11,1.79,10.29,1.5c-0.43,2.18-0.96,4.08-1.559,5.72
					C301.862,177.309,298.283,179.809,295.323,180.379z"/>
				<g>
					<g>
						<path style="fill:#EDEDED;" d="M197.913,245.52c-7.42-14.82-23.37-37.69-16.38-42.35c6.99-4.66,9.68,16.19,9.68,16.19
							s6.73,0.01,5.17-9.66c-0.98-6.02-8.51-19.71-20.89-8.16c-8.59,8.03,1.76,29.73,8.47,40.53c1.24,2.01,2.46,4.12,3.57,6.26
							c4.84,9.38,7.45,19.26,0.34,22.71c-8.73,4.23-11.06-12.92-10.85-17.58c0.21-4.66-9.65-1.38-7.01,9.21
							c2.65,10.59,10.24,13.021,18.87,12.391c11.81-0.86,15.78-12.5,10.65-25.851C199.073,247.989,198.533,246.76,197.913,245.52z"
							/>
						<path style="fill:#EDEDED;" d="M211.093,199.516c0,0,0.02,0.107,0.059,0.294c-1.85,0.611-3.329,2.311-3.129,5.91
							c0,0-0.57,24.63,1.43,43.951c1.29,12.47,3.64,22.73,7.91,22.73c6.02,0,5.89-2.21,3.33-21.45c-0.05-0.359-0.09-0.721-0.14-1.09
							c-0.46-3.68-0.84-7.73-1.17-11.9c0-0.002,0-0.003-0.001-0.005c11.741,1.691,18.684-13.666,12.953-29.154
							C226.321,192.547,211.093,199.516,211.093,199.516z M225.936,222.876c-0.622,7.899-4.626,8.779-7.023,8.578
							c0-0.002-0.001-0.003-0.001-0.005c-0.77-11.1-1.32-21.99-2.29-27.64c0-0.002,0-0.003-0.001-0.005
							C219.847,195.74,226.832,211.487,225.936,222.876z"/>
						<path style="fill:#EDEDED;" d="M256.263,230.809c8.06,0.38,10.88-3.97,10.62-7.17c-0.25-3.2-2.24-4.48-8.99-3.96
							c-6.75,0.51-12.89-0.39-14.94,5.12c0,0-2.62,12.05-3.63,24.249c-1,12.051-0.42,24.25,5.81,25.141
							c12.54,1.79,20.47-0.13,20.21-4.351c-0.25-4.22-2.43-4.1-8.181-3.84c-5.76,0.26-9.089,0.51-8.579-7.17
							c0.35-5.22,0.16-8.79,1.91-10.38c0.82-0.74,2.06-1.04,3.98-0.88c6.01,0.51,11.01-0.38,10.88-5.12
							c-0.13-4.73-7.04-2.81-10.63-3.58C251.143,238.099,248.203,230.429,256.263,230.809z"/>
						<path style="fill:#EDEDED;" d="M294.263,208.159c0,0-1.02-5.25-6.01-3.97c-4.99,1.28-7.3,11.65-11.01,28.03
							c-1.061,4.68-2.471,10.22-3.75,15.73c-3.17,13.75-5.511,27.3,0.43,26.91c8.31-0.54,6.14-19.23,10.87-21.79
							c4.74-2.56,4.1,13.95,10.62,12.55c2.66-0.57,3.449-8.65,3.25-18.66C298.383,232.409,296.013,213.769,294.263,208.159z
							 M289.783,242.969c-1.53,1.66-6.78,2.03-5.761-7.01c0,0,1.67-20.66,4.74-20.9
							C291.833,214.819,291.323,241.299,289.783,242.969z"/>
						<path style="fill:#EDEDED;" d="M344.423,198.049c-3.71,1.15-19.45,28.92-22.65,32.12c-3.199,3.2-3.58,0.37-2.939-3.32
							c0,0,6.14-32.64,0-32.64c-6.141,0-7.04,14.5-8.7,25.36c-0.77,4.96-2.51,16.29-3.5,27.149c-1.18,12.91-1.29,25.16,2.6,25.301
							c5.03,0.18,6.091-17.21,7.551-25.4c0.63-3.49,1.319-5.31,2.43-3.4c0.49,0.84,1.02,2.009,1.6,3.41
							c3.86,9.29,9.721,28.65,16.06,26.54c5.3-1.76-2.021-16.43-7.36-26.43c-2.01-3.77-3.74-6.88-4.41-8.38
							c-2.43-5.5,15.101-19.96,20.601-28.53C351.203,201.249,348.133,196.899,344.423,198.049z"/>
					</g>
				</g>
				<g>
					<g>
						<path style="fill:#EDEDED;" d="M134.163,295.029c0.39,11.13,11.9,8.57,14.72,11.51c2.82,2.95,0.51,5.641-7.04,7.68
							c-3.38,0.921-5.48,4.82-6.54,9.35c-1.32,5.58-1.07,12.11,0.27,15.22c2.43,5.63,10.88,2.95,14.59,5.5
							c3.71,2.561-3.46,10.37-17.4,8.83c-11.57-1.27-11.34-14.6-10.57-32.04c0.16-3.59,0.35-7.35,0.46-11.21
							c0.64-22.65,0.25-38.39,8.83-41.97c8.57-3.58,22.78,0,22.78,0c2.94,1.66-0.9,5.76-9.86,8.45
							C135.443,279.029,133.783,283.899,134.163,295.029z"/>
						<path style="fill:#EDEDED;" d="M191.613,327.909c-0.36,11.77-1.97,22.03-5.22,22.66c-4.82,0.93-10.19-12.74-14.06-23.12
							c-2.47-6.64-4.32-11.93-5.02-11.18c-0.62,0.66-0.88,5.199-1.28,10.81c-0.75,10.601-2.03,25.01-7.3,24.25
							c-4.03-0.57-4.41-12.95-3.79-25.18c0.62-12.24,2.26-24.34,2.26-24.34c0.49-3.98,0.89-8.061,7.29-9.08
							c6.4-1.03,11.01,18.93,14.59,18.55c3.58-0.38,1.15-17.66,7.31-19.45C190.033,290.77,192.133,310.919,191.613,327.909z"/>
						<path style="fill:#EDEDED;" d="M217.852,348.259c-9.309,2.431-19.03-4.43-21.15-20.399c-0.57-4.21-0.6-9.061,0.04-14.53
							c3.07-26.229,26.36-20.729,26.36-20.729c4.48,1.92,6.01,5.119,5.5,8.31c-0.51,3.2-3.97,0.77-12.16,1.41
							c-8.16,0.64-8.57,9.05-8.31,25.22v0.12c0.25,16.25,10.75,12.41,11.51,5.25c0.46-4.31-1.76-4.97-3.78-5.78
							c-1.34-0.529-2.59-1.14-2.92-2.92c-0.81-4.48,12.08-5.63,15.28-1.67c0.59,0.74,1.01,1.98,1.23,3.53
							C230.413,332.899,227.453,345.759,217.852,348.259z"/>
						<path style="fill:#EDEDED;" d="M244.602,349.799c-8.45-1.319-10.96-12.56-11.22-24.119c-0.31-13.131,2.26-26.681,2.26-26.681
							c0.82-5.189,3.71-8.83,7.17-6.88c2.46,1.39,2.06,19.16,2.33,32.18c0.1,5.261,0.32,9.74,0.87,12.061
							c1.91,8.06,15.99,1.67,18.68,4.609C267.383,343.909,262.643,352.609,244.602,349.799z"/>
						<path style="fill:#EDEDED;" d="M277.232,348.739c-6.33-0.69-8.12-14.5-8.38-27.59c-0.229-12.09,0.83-23.561,0.83-23.561
							c0.28-3.71,2.3-5.63,4.22-6.01c1.921-0.37,3.71,7.93,5.891,20.98c0.359,2.14,0.85,4.59,1.38,7.18
							C283.873,332.94,287.393,349.839,277.232,348.739z"/>
						<path style="fill:#EDEDED;" d="M313.272,316.979c3.801,7.939,5.761,16.98-0.979,24.75c-11.65,13.439-26.62-1.92-24.441-8.44
							c2.17-6.53,7.931-0.9,12.67,2.94c4.73,3.84,6.78-4.94,2.04-15.261c-0.45-0.989-0.979-2.029-1.54-3.119
							c-5.319-10.24-14.33-24.2-3.449-31.141c12.029-7.68,22.4,7.681,19.069,15.61c-3.33,7.939-8.45-8.7-11.64-8.061
							c-3.2,0.641-1.24,6.301-0.26,8.061C306.793,306.009,310.522,311.209,313.272,316.979z"/>
						<path style="fill:#EDEDED;" d="M354.013,346.209c-7.55-0.13-4.1-11.77-6.02-22.14c-1.92-10.36-11.641-2.811-13.561,4.229
							c-1.92,7.04,1.79,19.45-5.51,19.45c-4.18,0-5.83-16.85-6.48-31.24c-0.5-10.72-0.43-20.079-0.43-20.079
							c-0.01-4.471,1.16-10.49,4.23-10.75c3.069-0.25-0.511,30.97,14.029,25.21c7.19-2.841,5.42-32.5,9.771-32.24
							c4.35,0.25,2.559,12.79,5.25,30.84c0.359,2.42,0.74,4.86,1.1,7.27C358.732,332.239,360.553,346.319,354.013,346.209z"/>
						<g>
							<path style="fill:#EDEDED;" d="M379.979,272.633c0,0,3.455-10.364,10.365-8.573c6.91,1.791,3.968,11.389-2.175,25.209
								c-6.143,13.82-17.403,55.151-4.991,53.104c12.412-2.047,5.886-15.867,14.587-34.038c8.701-18.171,17.277-42.611,1.921-51.058
								c-14.382-7.91-27.684,1.77-31.992,19.835C365.904,284.619,375.118,289.651,379.979,272.633z"/>
						</g>
						<g>
							
								<ellipse transform="matrix(0.9246 -0.3809 0.3809 0.9246 -105.8345 173.5804)" style="fill:#EDEDED;" cx="385.675" cy="354.206" rx="7.87" ry="7.87"/>
						</g>
					</g>
				</g>
				<g>
					<g>
						<g>
							<g>
								<path style="fill:#EDEDED;" d="M181.523,149.139c-0.08,0.89-0.16,1.75-0.22,2.59c-1.88-1.94-4.49-3.37-8.08-3.33
									c-9.25,0.1-16.56,10.19-16.34,22.09c0.03,2.25,0.35,4.58,0.96,6.91c3.14,11.83,17.24,9.91,24.96-1.12
									c1.8,5.37,4.37,6.45,5.39,6.45c1.94,0,8.18-1.73,4.52-11.63c-0.6-1.62-0.95-3.67-1.11-5.97
									c-0.86-11.7,3.05-29.76,3.05-29.76C196.463,125.109,184.323,119.439,181.523,149.139z M173.723,177.519
									c-3.45,2.16-5.75-1.85-6.5-7.11c-0.84-5.98,0.33-13.57,4.12-15.49c7.12-3.61,9.38,9.73,9.38,9.73
									c0.16,0.68,0.26,1.67,0.13,2.85C180.543,170.339,178.923,174.259,173.723,177.519z"/>
							</g>
						</g>
						<g>
							<g>
								<path style="fill:#EDEDED;" d="M228.093,160.519c-0.56-5.46-3.75-17.25-16.37-14.62c-7.64,1.59-11.21,9.81-11.62,17.69
									c-0.26,5.15,0.82,10.15,2.99,13.06c5.12,6.86,24.6,8.95,25.19-11.23C228.333,163.919,228.273,162.289,228.093,160.519z
									 M213.943,175.519c-3.91,0.07-4.73-6.57-3.98-13.01c0.69-5.96,2.73-11.74,4.89-11.86c3.86-0.21,4.78,9.38,4.961,12.12
									c0.03,0.46,0.039,0.73,0.039,0.73C220.093,166.379,221.473,175.399,213.943,175.519z"/>
							</g>
						</g>
					</g>
				</g>
			</g>
			<path style="fill:#C84A4B;" d="M358.373,155.499c-2.021-1.55-3.49-1.32-5.04,6.29c-0.101,0.48-0.2,0.93-0.311,1.37
				c-1.64,6.58-4.56,9.13-7.689,9.57c-2.521,0.35-2.15-4.84-0.601-11.23c0.511-2.05,1.13-4.23,1.82-6.39
				c2.82-8.84,0.34-17.61-6.65-12.57c0,0-4.359,9.87-5.47,18.75c-0.189,1.43-0.28,2.84-0.26,4.18c-1.57,1.9-3.73,3.65-6.61,4.31
				c-2.79,0.64-3.279-2.89-2.81-7.56c0.79-7.78,4.25-18.73,4.13-18.82c-5.43-4.47-10.64-1.87-13.46,10.38
				c-1.64,1.2-3.74,2.35-6.34,3.05c0.05-6.87-2.12-12.82-6.44-14.83c-0.47-0.22-0.93-0.39-1.38-0.54l0.021-0.08
				c0,0-0.601-0.19-1.551-0.31c-1.37-0.23-2.569-0.14-3.56,0.1c-2.24,0.4-4.83,1.58-6.95,4.5c-2.8,3.83-2.87,7.65-0.78,10.51
				c-0.14,0.06-0.229,0.1-0.229,0.1s-3.61,1.5-5.14,7.25c-0.04,0.16-0.08,0.32-0.12,0.49c-2.37,2.05-5.79,4.23-10.66,6.05
				c0.33-2.31,0.6-4.6,0.79-6.82c0.06-0.52,0.1-1.04,0.14-1.55c1.5-19.63-5-17.13-6.38-13.63c0,0-1.1,6.38-2.45,14.48
				c-0.25,0.34-0.51,0.68-0.79,1.01c-1.29,1.53-2.92,2.76-4.88,3.01c-2.061,0.27-3.21-1.14-3.85-3.3
				c-1.211-4.01-0.66-10.61-0.91-13.94c-0.37-5.13-5.62-6.38-8.74-4.63c0,0-1.73,10.21,0.35,17.74c0.42,1.52,0.99,2.93,1.77,4.13
				c3.14,4.84,10.38,4.95,16.19,1.19c-0.311,1.84-0.61,3.7-0.921,5.56c-13.46,4.51-28.85,10.87-26.26,26l-0.01,0.01
				c0,0,0.04,0.28,0.13,0.75c0,0.01,0,0.02,0.01,0.02c0.53,2.62,2.85,10.96,11.03,10.96c1.23,0,2.58-0.19,4.08-0.61
				c10.82-3.03,17.3-20.22,20.18-37.07c4.66-2.34,8.08-3.81,10.66-5.17c-0.04,0.95-0.04,1.95,0.04,3.04
				c0.85,12.27,18.08,11.34,23.36,0c0.76-1.62,1.38-3.309,1.859-5.03c0.61-2.09,1.011-4.22,1.221-6.31
				c2.189-0.59,4.12-1.39,5.77-2.25c-0.38,2.58-0.439,4.76-0.229,6.6c0.77,6.61,5.17,8.65,11.64,7.85c3.559-0.44,6.34-1.87,8.4-3.41
				c0.75,3.61,2.83,6.2,7.189,6.44c8.49,0.46,13.26-4.78,15.54-9.97C359.192,160.679,359.313,156.219,358.373,155.499z
				 M259.843,191.329c-1.62,12-4.12,14.74-9.12,16.37s-6.63-4-6.76-7c0-0.11-0.03-0.21-0.06-0.31c-0.1-3.2,1.3-11.76,16.69-20.89
				c0.39-0.22,0.76-0.44,1.13-0.66C260.953,183.719,260.273,188.179,259.843,191.329z M300.482,144.759
				c1.351,0.52,3.301,2.25,3.301,7.99c0,1.35-0.11,2.93-0.36,4.77C292.013,157.359,293.823,143.569,300.482,144.759z
				 M292.323,176.379c-2.62,0.51-2.19-5.79-1.1-11.42c0.39-2.06,0.88-4.04,1.34-5.56c2.63,1.2,6.11,1.79,10.29,1.5
				c-0.43,2.18-0.96,4.08-1.559,5.72C298.862,173.309,295.283,175.809,292.323,176.379z"/>
			<g>
				<path style="fill:#0D63B0;" d="M194.913,241.519c-7.42-14.82-23.37-37.69-16.38-42.35c6.99-4.66,9.68,16.19,9.68,16.19
					s6.73,0.01,5.17-9.66c-0.98-6.02-8.51-19.71-20.89-8.16c-8.59,8.03,1.76,29.73,8.47,40.53c1.24,2.01,2.46,4.12,3.57,6.26
					c4.84,9.38,7.45,19.26,0.34,22.71c-8.73,4.23-11.06-12.92-10.85-17.58c0.21-4.66-9.65-1.38-7.01,9.21
					c2.65,10.59,10.24,13.021,18.87,12.391c11.81-0.86,15.78-12.5,10.65-25.851C196.073,243.989,195.533,242.759,194.913,241.519z"
					/>
				<path style="fill:#0D63B0;" d="M208.093,195.516c0,0,0.02,0.107,0.059,0.294c-1.85,0.611-3.329,2.311-3.129,5.91
					c0,0-0.57,24.63,1.43,43.95c1.29,12.47,3.64,22.73,7.91,22.73c6.02,0,5.89-2.21,3.33-21.45c-0.05-0.36-0.09-0.72-0.14-1.09
					c-0.46-3.68-0.84-7.73-1.17-11.9c0-0.002,0-0.003-0.001-0.005c11.741,1.691,18.684-13.666,12.953-29.154
					C223.321,188.547,208.093,195.516,208.093,195.516z M222.936,218.876c-0.622,7.899-4.626,8.779-7.023,8.578
					c0-0.002-0.001-0.003-0.001-0.005c-0.77-11.1-1.32-21.99-2.29-27.64c0-0.002,0-0.003-0.001-0.005
					C216.847,191.74,223.832,207.487,222.936,218.876z"/>
				<path style="fill:#0D63B0;" d="M253.263,226.809c8.06,0.38,10.88-3.97,10.62-7.17c-0.25-3.2-2.24-4.48-8.99-3.96
					c-6.75,0.51-12.89-0.39-14.94,5.12c0,0-2.62,12.05-3.63,24.25c-1,12.05-0.42,24.249,5.81,25.14
					c12.54,1.79,20.47-0.13,20.21-4.351c-0.25-4.22-2.431-4.1-8.181-3.84c-5.759,0.26-9.089,0.51-8.579-7.17
					c0.35-5.22,0.16-8.79,1.91-10.38c0.82-0.74,2.06-1.04,3.98-0.88c6.01,0.51,11.01-0.38,10.88-5.12
					c-0.13-4.73-7.04-2.81-10.63-3.58C248.143,234.099,245.203,226.429,253.263,226.809z"/>
				<path style="fill:#0D63B0;" d="M291.263,204.159c0,0-1.02-5.25-6.01-3.97c-4.99,1.28-7.3,11.65-11.01,28.03
					c-1.061,4.68-2.471,10.22-3.75,15.73c-3.17,13.75-5.511,27.3,0.43,26.91c8.31-0.54,6.14-19.23,10.87-21.79
					c4.74-2.56,4.1,13.95,10.62,12.55c2.66-0.57,3.449-8.65,3.25-18.66C295.383,228.409,293.013,209.769,291.263,204.159z
					 M286.783,238.969c-1.53,1.66-6.78,2.03-5.761-7.01c0,0,1.67-20.66,4.74-20.9C288.833,210.819,288.323,237.299,286.783,238.969z
					"/>
				<path style="fill:#0D63B0;" d="M341.423,194.049c-3.71,1.15-19.45,28.92-22.65,32.12c-3.199,3.2-3.58,0.37-2.939-3.32
					c0,0,6.14-32.64,0-32.64c-6.141,0-7.04,14.5-8.7,25.36c-0.77,4.96-2.51,16.29-3.5,27.15c-1.18,12.91-1.29,25.16,2.6,25.3
					c5.03,0.18,6.091-17.21,7.551-25.4c0.63-3.49,1.319-5.31,2.43-3.4c0.49,0.84,1.02,2.01,1.6,3.41
					c3.86,9.29,9.721,28.65,16.06,26.54c5.3-1.76-2.021-16.43-7.36-26.43c-2.01-3.77-3.74-6.88-4.41-8.38
					c-2.43-5.5,15.101-19.96,20.601-28.53C348.203,197.249,345.133,192.899,341.423,194.049z"/>
			</g>
			<path style="fill:#C84A4D;" d="M131.163,291.029c0.39,11.13,11.9,8.57,14.72,11.51c2.82,2.95,0.51,5.641-7.04,7.68
				c-3.38,0.921-5.48,4.82-6.54,9.35c-1.32,5.58-1.07,12.11,0.27,15.22c2.43,5.63,10.88,2.95,14.59,5.5
				c3.71,2.561-3.46,10.37-17.4,8.83c-11.57-1.27-11.34-14.6-10.57-32.04c0.16-3.59,0.35-7.35,0.46-11.21
				c0.64-22.65,0.25-38.39,8.83-41.97c8.57-3.58,22.78,0,22.78,0c2.94,1.66-0.9,5.76-9.86,8.45
				C132.443,275.029,130.783,279.899,131.163,291.029z"/>
			<path style="fill:#C84A4D;" d="M188.613,323.909c-0.36,11.77-1.97,22.03-5.22,22.66c-4.82,0.93-10.19-12.74-14.06-23.12
				c-2.47-6.64-4.32-11.93-5.02-11.18c-0.62,0.66-0.88,5.199-1.28,10.81c-0.75,10.601-2.03,25.01-7.3,24.25
				c-4.03-0.57-4.41-12.95-3.79-25.18c0.62-12.24,2.26-24.34,2.26-24.34c0.49-3.98,0.89-8.061,7.29-9.08
				c6.4-1.03,11.01,18.93,14.59,18.55c3.58-0.38,1.15-17.66,7.31-19.45C187.033,286.77,189.133,306.919,188.613,323.909z"/>
			<path style="fill:#C84A4D;" d="M214.852,344.259c-9.309,2.431-19.03-4.43-21.15-20.399c-0.57-4.21-0.6-9.061,0.04-14.53
				c3.07-26.229,26.36-20.729,26.36-20.729c4.48,1.92,6.01,5.119,5.5,8.31c-0.51,3.2-3.97,0.77-12.16,1.41
				c-8.16,0.64-8.57,9.05-8.31,25.22v0.12c0.25,16.25,10.75,12.41,11.51,5.25c0.46-4.31-1.76-4.97-3.78-5.78
				c-1.34-0.529-2.59-1.14-2.92-2.92c-0.81-4.48,12.08-5.63,15.28-1.67c0.59,0.74,1.01,1.98,1.23,3.53
				C227.413,328.899,224.453,341.759,214.852,344.259z"/>
			<path style="fill:#C84A4D;" d="M241.602,345.799c-8.45-1.319-10.96-12.56-11.22-24.119c-0.31-13.131,2.26-26.681,2.26-26.681
				c0.82-5.189,3.71-8.83,7.17-6.88c2.46,1.39,2.06,19.16,2.33,32.18c0.1,5.261,0.32,9.74,0.87,12.061
				c1.91,8.06,15.99,1.67,18.68,4.609C264.383,339.909,259.643,348.609,241.602,345.799z"/>
			<path style="fill:#C84A4D;" d="M274.232,344.739c-6.33-0.69-8.12-14.5-8.38-27.59c-0.229-12.09,0.83-23.561,0.83-23.561
				c0.28-3.71,2.3-5.63,4.22-6.01c1.921-0.37,3.71,7.93,5.891,20.98c0.359,2.14,0.85,4.59,1.38,7.18
				C280.873,328.94,284.393,345.839,274.232,344.739z"/>
			<path style="fill:#C84A4D;" d="M310.272,312.979c3.801,7.939,5.761,16.98-0.979,24.75c-11.65,13.439-26.62-1.92-24.441-8.44
				c2.17-6.53,7.931-0.9,12.67,2.94c4.73,3.84,6.78-4.94,2.04-15.261c-0.45-0.989-0.979-2.029-1.54-3.119
				c-5.319-10.24-14.33-24.2-3.449-31.141c12.029-7.68,22.4,7.681,19.069,15.61c-3.33,7.939-8.45-8.7-11.64-8.061
				c-3.2,0.641-1.24,6.301-0.26,8.061C303.793,302.009,307.522,307.209,310.272,312.979z"/>
			<path style="fill:#C84A4D;" d="M351.013,342.209c-7.55-0.13-4.1-11.77-6.02-22.14c-1.92-10.36-11.641-2.811-13.561,4.229
				c-1.92,7.04,1.79,19.45-5.51,19.45c-4.18,0-5.83-16.85-6.48-31.24c-0.5-10.72-0.43-20.079-0.43-20.079
				c-0.01-4.471,1.16-10.49,4.23-10.75c3.069-0.25-0.511,30.97,14.029,25.21c7.19-2.841,5.42-32.5,9.771-32.24
				c4.35,0.25,2.559,12.79,5.25,30.84c0.359,2.42,0.74,4.86,1.1,7.27C355.732,328.239,357.553,342.319,351.013,342.209z"/>
			<g>
				<path style="fill:#DB6167;" d="M394.763,304.339c-1.65,3.44-2.75,6.721-3.53,9.79c-3.38,13.19-0.989,22.59-11.05,24.24
					c-6.51,1.07-6.51-9.76-4.16-22.31c2.141-11.391,6.221-24.21,9.15-30.79c6.14-13.82,9.08-23.42,2.17-25.21
					c-6.91-1.79-10.36,8.569-10.36,8.569c-4.859,17.021-14.08,11.99-12.29,4.48c4.311-18.061,17.61-27.74,31.99-19.83
					C412.043,261.719,403.463,286.159,394.763,304.339z"/>
				<circle style="fill:#DB6167;" cx="382.673" cy="350.209" r="7.87"/>
			</g>
			<g>
				<path style="fill:#DB6167;" d="M178.523,145.139c-0.08,0.89-0.16,1.75-0.22,2.59c-1.88-1.94-4.49-3.37-8.08-3.33
					c-9.25,0.1-16.56,10.19-16.34,22.09c0.03,2.25,0.35,4.58,0.96,6.91c3.14,11.83,17.24,9.91,24.96-1.12
					c1.8,5.37,4.37,6.45,5.39,6.45c1.94,0,8.18-1.73,4.52-11.63c-0.6-1.62-0.95-3.67-1.11-5.97c-0.86-11.7,3.05-29.76,3.05-29.76
					C193.463,121.109,181.323,115.439,178.523,145.139z M170.723,173.519c-3.45,2.16-5.75-1.85-6.5-7.11
					c-0.84-5.98,0.33-13.57,4.12-15.49c7.12-3.61,9.38,9.73,9.38,9.73c0.16,0.68,0.26,1.67,0.13,2.85
					C177.543,166.339,175.923,170.259,170.723,173.519z"/>
				<path style="fill:#DB6167;" d="M225.093,156.519c-0.56-5.46-3.75-17.25-16.37-14.62c-7.64,1.59-11.21,9.81-11.62,17.69
					c-0.26,5.15,0.82,10.15,2.99,13.06c5.12,6.86,24.6,8.95,25.19-11.23C225.333,159.919,225.273,158.289,225.093,156.519z
					 M210.943,171.519c-3.91,0.07-4.73-6.57-3.98-13.01c0.69-5.96,2.73-11.74,4.89-11.86c3.86-0.21,4.78,9.38,4.961,12.12
					c0.03,0.46,0.039,0.73,0.039,0.73C217.093,162.379,218.473,171.399,210.943,171.519z"/>
			</g>
			<path style="fill:#B73D49;" d="M185.193,178.729c-1.02,0-3.59-1.08-5.39-6.45c-7.72,11.03-21.82,12.95-24.96,1.12
				c-0.61-2.33-0.93-4.66-0.96-6.91c2.19,0.47,5.47,0.63,10.34-0.08c0.75,5.26,3.05,9.27,6.5,7.11c5.2-3.26,6.82-7.18,7.13-10.02
				c3.39-0.79,7.03-1.61,10.75-2.37c0.16,2.3,0.51,4.35,1.11,5.97C193.373,176.999,187.133,178.729,185.193,178.729z"/>
			<path style="fill:#B73D49;" d="M225.283,161.419c-0.59,20.18-20.07,18.09-25.19,11.23c-2.17-2.91-3.25-7.91-2.99-13.06
				c3.35-0.51,6.67-0.9,9.86-1.08c-0.75,6.44,0.07,13.08,3.98,13.01c7.53-0.12,6.15-9.14,5.91-12.02c0,0-0.01-0.27-0.039-0.73
				C220.043,159.199,222.923,160.039,225.283,161.419z"/>
			<path style="fill:#912D33;" d="M301.293,166.619c-2.431,6.69-6.01,9.19-8.97,9.76c-2.62,0.51-2.19-5.79-1.1-11.42
				c-2.57-0.54-5.27-1.07-8.15-1.43c-0.04,0.16-0.08,0.32-0.12,0.49c-2.37,2.05-5.79,4.23-10.66,6.05c0.33-2.31,0.6-4.6,0.79-6.82
				c-3.181,0.24-6.391,0.33-9.48,0.31c-1.29,1.53-2.92,2.76-4.88,3.01c-2.061,0.27-3.21-1.14-3.85-3.3
				c-3.68-0.23-6.9-0.55-9.3-0.829c0.42,1.52,0.99,2.93,1.77,4.13c3.14,4.84,10.38,4.95,16.19,1.19c-0.311,1.84-0.61,3.7-0.921,5.56
				c-13.46,4.51-28.85,10.87-26.26,26l-0.01,0.01c0,0,0.04,0.28,0.13,0.75c0,0.01,0,0.02,0.01,0.02
				c0.53,2.62,2.85,10.96,11.03,10.96c1.23,0,2.58-0.19,4.08-0.61c10.82-3.03,17.3-20.22,20.18-37.07
				c4.66-2.34,8.08-3.81,10.66-5.17c-0.04,0.95-0.04,1.95,0.04,3.04c0.85,12.27,18.08,11.34,23.36,0
				c0.76-1.62,1.38-3.309,1.859-5.03C305.563,166.679,303.453,166.769,301.293,166.619z M259.843,191.329
				c-1.62,12-4.12,14.74-9.12,16.37s-6.63-4-6.76-7c0-0.11-0.03-0.21-0.06-0.31c-0.1-3.2,1.3-11.76,16.69-20.89
				c0.39-0.22,0.76-0.44,1.13-0.66C260.953,183.719,260.273,188.179,259.843,191.329z"/>
			<path style="fill:#912D33;" d="M357.223,165.169c-2.28,5.19-7.05,10.43-15.54,9.97c-4.359-0.24-6.439-2.83-7.189-6.44
				c-2.061,1.54-4.841,2.97-8.4,3.41c-6.47,0.8-10.87-1.24-11.64-7.85c3.05-0.79,6.569-1.5,10.3-2.04c-0.47,4.67,0.02,8.2,2.81,7.56
				c2.88-0.66,5.04-2.41,6.61-4.31c-0.021-1.34,0.07-2.75,0.26-4.18c3.521-0.17,7.021-0.12,10.3,0.21
				c-1.55,6.39-1.92,11.58,0.601,11.23c3.13-0.44,6.05-2.99,7.689-9.57c0.96,0.32,1.87,0.69,2.721,1.1
				C356.272,164.519,356.772,164.829,357.223,165.169z"/>
			<path style="fill:#09548C;" d="M196.533,245.209c5.13,13.351,1.16,24.99-10.65,25.851c-8.63,0.63-16.22-1.801-18.87-12.391
				c-2.64-10.59,7.22-13.87,7.01-9.21c-0.21,4.66,2.12,21.811,10.85,17.58c7.11-3.45,4.5-13.33-0.34-22.71
				C188.243,244.649,192.303,244.949,196.533,245.209z"/>
			<path style="fill:#09548C;" d="M217.693,246.949c2.56,19.24,2.69,21.45-3.33,21.45c-4.27,0-6.62-10.26-7.91-22.73
				c3.7,0.13,7.44,0.2,11.1,0.19C217.602,246.229,217.643,246.589,217.693,246.949z"/>
			<path style="fill:#09548C;" d="M262.343,265.839c0.26,4.221-7.67,6.141-20.21,4.351c-6.23-0.891-6.81-13.09-5.81-25.14
				c4.05-0.27,7.74-0.46,11.17-0.6c-1.75,1.59-1.56,5.16-1.91,10.38c-0.51,7.68,2.82,7.43,8.579,7.17
				C259.912,261.739,262.093,261.619,262.343,265.839z"/>
			<path style="fill:#09548C;" d="M295.663,242.959c0.199,10.01-0.59,18.09-3.25,18.66c-6.521,1.4-5.88-15.11-10.62-12.55
				c-4.73,2.56-2.561,21.25-10.87,21.79c-5.94,0.39-3.6-13.16-0.43-26.91c6.14-0.1,12.52-0.27,20.239-0.74
				C292.343,243.109,293.982,243.029,295.663,242.959z"/>
			<path style="fill:#09548C;" d="M303.633,242.719c3.41-0.07,6.83-0.1,10.15-0.1c-1.46,8.191-2.521,25.58-7.551,25.4
				C302.343,267.879,302.453,255.629,303.633,242.719z"/>
			<path style="fill:#09548C;" d="M333.873,269.169c-6.34,2.11-12.2-17.25-16.06-26.54c3.06,0.02,5.99,0.06,8.7,0.11
				C331.852,252.739,339.173,267.409,333.873,269.169z"/>
			<path style="fill:#912D33;" d="M129.763,349.119c-11.57-1.27-11.34-14.6-10.57-32.04c3.83,0.84,8.21,1.68,13.11,2.49
				c-1.32,5.58-1.07,12.11,0.27,15.22c2.43,5.63,10.88,2.95,14.59,5.5C150.873,342.85,143.703,350.659,129.763,349.119z"/>
			<path style="fill:#912D33;" d="M151.943,322.149c3.53,0.35,7.23,0.67,11.09,0.93c-0.75,10.601-2.03,25.01-7.3,24.25
				C151.703,346.759,151.323,334.379,151.943,322.149z"/>
			<path style="fill:#912D33;" d="M169.333,323.449c6.07,0.31,12.5,0.47,19.28,0.46c-0.36,11.77-1.97,22.03-5.22,22.66
				C178.573,347.499,173.203,333.829,169.333,323.449z"/>
			<path style="fill:#912D33;" d="M214.852,344.259c-9.309,2.431-19.03-4.43-21.15-20.399c3.71-0.04,7.52-0.15,11.43-0.32v0.12
				c0.25,16.25,10.75,12.41,11.51,5.25c0.46-4.31-1.76-4.97-3.78-5.78c4.42-0.27,8.95-0.62,13.59-1.06
				C227.413,328.899,224.453,341.759,214.852,344.259z"/>
			<path style="fill:#912D33;" d="M261.692,336.969c2.69,2.94-2.05,11.641-20.09,8.83c-8.45-1.319-10.96-12.56-11.22-24.119
				c3.85-0.4,7.77-0.86,11.76-1.381c0.1,5.261,0.32,9.74,0.87,12.061C244.923,340.419,259.003,334.029,261.692,336.969z"/>
			<path style="fill:#912D33;" d="M278.173,315.739c2.7,13.2,6.22,30.1-3.94,29c-6.33-0.69-8.12-14.5-8.38-27.59
				C270.123,316.629,274.232,316.159,278.173,315.739z"/>
			<path style="fill:#912D33;" d="M310.272,312.979c3.801,7.939,5.761,16.98-0.979,24.75c-11.65,13.439-26.62-1.92-24.441-8.44
				c2.17-6.53,7.931-0.9,12.67,2.94c4.73,3.84,6.78-4.94,2.04-15.261c-0.45-0.989-0.979-2.029-1.54-3.119
				C302.352,313.499,306.433,313.209,310.272,312.979z"/>
			<path style="fill:#912D33;" d="M351.013,342.209c-7.55-0.13-4.1-11.77-6.02-22.14c-1.92-10.36-11.641-2.811-13.561,4.229
				c-1.92,7.04,1.79,19.45-5.51,19.45c-4.18,0-5.83-16.85-6.48-31.24c15.87-0.67,26.83-0.31,33.95,0.25
				C355.732,328.239,357.553,342.319,351.013,342.209z"/>
			<path style="fill:#C84A4D;" d="M376.022,316.06c4.721-0.08,10.271-0.551,15.21-1.931c-3.38,13.19-0.989,22.59-11.05,24.24
				C373.673,339.44,373.673,328.609,376.022,316.06z"/>
		</g>
		<g>
			<path style="fill:#C84A4B;" d="M432.386,186.222c0,0-23.867-11.41-31.39-3.811c-7.522,7.6,12.417,16.045,24.706,19.637
				c12.289,3.592,29.68,1.021,30.908-3.487c1.861-6.829-15.336-11.062-18.648-12.339
				C434.649,184.944,432.386,186.222,432.386,186.222z"/>
			<path style="fill:#C84A4B;" d="M457.459,155.176c0.03,0.47-0.02,0.97-0.14,1.521c-0.81,3.859-7.71,20.609-10.18,31.399
				c-0.58,2.511-0.92,4.7-0.881,6.33c0,0-5.72,2.431-19.18-0.78c-13.45-3.199-14.5-8.89-14.34-9.39c0,0,0.66-1.97,1.58-5.021
				c1.16-3.859,2.74-9.43,3.89-14.859c1.84-8.62,2.53-14.9,3.221-17.221c0.09-0.289,0.17-0.52,0.25-0.68
				c0.01-0.01,0.01-0.01,0.01-0.01c0.79-1.471,7.03-3.99,19.859,0C452.899,149.995,457.299,151.565,457.459,155.176z"/>
			<path style="fill:#912D33;" d="M447.14,188.096c-0.58,2.511-0.92,4.7-0.881,6.33c0,0-5.72,2.431-19.18-0.78
				c-13.45-3.199-14.5-8.89-14.34-9.39c0,0,0.66-1.97,1.58-5.021C418.52,181.616,429.989,187.145,447.14,188.096z"/>
			<path style="fill:#912D33;" d="M457.459,155.176c-1.14,2.22-5.44,3.399-19.48,0.16c-15.16-3.5-16.69-6.8-16.55-8.181
				c0.04-0.379,0.199-0.619,0.25-0.68c0.01-0.01,0.01-0.01,0.01-0.01c0.79-1.471,7.03-3.99,19.859,0
				C452.899,149.995,457.299,151.565,457.459,155.176z"/>
			<path style="fill:#DB6167;" d="M426.348,210.868c0,0,2.031-3.967,6.87-0.958c4.839,3.009,2.795,15.634,9.413,15.778
				c6.618,0.144,7.997-2.561,7.997-2.561s-3.658,8.402-11.759,7.099C430.769,228.923,424.837,223.967,426.348,210.868z"/>
			<path style="fill:#DB6167;" d="M421.895,208.794c0.492,0.412-1.914-4.199-7.568-2.33c-5.654,1.87-5.188,8.113-11.589,8.896
				c-6.401,0.783-8.579-5.949-8.579-5.949s0.716,12.397,12.034,12.936C417.511,222.886,421.895,208.794,421.895,208.794z"/>
		</g>
		<g>
			<path style="fill:#0D63B0;" d="M451.436,283.262c0,0,2.218-6.605,9.614-5.021c7.397,1.586,7.089,9.615,7.089,9.615
				s4.107-4.727,10.607-2.469c6.5,2.258,1.323,12.765,1.323,12.765s4.276-1.851,5.783,5.338c1.507,7.188-10.96,6.606-13.496,0.558
				c0,0-0.114,2.938-3.649,3.961c-3.535,1.023-4.976-2.523-4.976-2.523s-3.15,4.618-9.238,4.584
				c-6.088-0.035-8.987-5.205-8.987-5.205s-0.319,4.383-6.329,4.502c-6.01,0.117-7.398-5.318-7.398-5.318s-5.711,1.006-7.188-6.061
				c-1.477-7.066,8.045-8.662,8.045-8.662s0.62-7.889,6.311-10.199C446.847,275.917,451.436,283.262,451.436,283.262z"/>
			<path style="fill:#0D63B0;" d="M443.28,313.123c0,0-3.789,10.743-0.513,11.545C446.044,325.47,443.28,313.123,443.28,313.123z"/>
			<path style="fill:#0D63B0;" d="M453.863,321.243c0,0-4.332,10.777,0,11.411S453.863,321.243,453.863,321.243z"/>
			<path style="fill:#0D63B0;" d="M466.542,312.58c0,0-4.12,10.459,0,10.776C470.662,323.674,466.542,312.58,466.542,312.58z"/>
		</g>
		<g>
			<path style="fill:#C93D44;" d="M399.81,387.299l-14.663,60.105l26.569,7.059l15.438-60.49
				C427.153,393.973,403.033,387.182,399.81,387.299z"/>
			<path style="fill:#912D33;" d="M400.813,377.347l30.259,7.911c0,0-0.099-4.724-13.729-8.53
				C403.711,372.92,400.813,377.347,400.813,377.347z"/>
			<polygon style="fill:#C93D44;" points="400.898,384.079 402.188,377.706 429.128,384.75 427.862,390.628 			"/>
			<path style="fill:#912D33;" d="M398.605,383.43l30.709,7.564c0,0,0.123,1.089-0.165,2.092c-0.288,1.003-0.81,1.27-3.059,0.625
				c-2.249-0.645-26.281-6.412-26.281-6.412S396.784,386.534,398.605,383.43z"/>
			<path style="fill:#912D33;" d="M384.1,446.881l29.376,7.971c0,0,0.828,0.366,0.404,2.306c-0.423,1.939-1.217,2.094-3.466,1.938
				c-2.249-0.156-27.745-7.79-27.745-7.79s-1.45-0.894-0.598-3.003C382.7,446.746,384.1,446.881,384.1,446.881z"/>
			<polygon style="fill:#FFFFFF;" points="422.465,394.647 421.258,399.199 421.048,400.014 419.564,405.596 419.354,406.41 
				417.745,412.496 417.527,413.31 416.052,418.893 415.834,419.706 414.064,426.412 413.847,427.217 412.371,432.801 
				412.153,433.614 410.77,438.862 410.552,439.675 409.102,445.158 405.228,444.185 404.407,443.984 396.552,442.015 
				395.738,441.805 391.211,440.673 392.461,435.4 392.653,434.586 393.902,429.355 394.096,428.533 395.436,422.875 
				395.63,422.061 397.222,415.355 397.415,414.55 398.756,408.874 398.949,408.061 400.392,401.983 400.593,401.17 
				401.934,395.502 402.127,394.682 403.183,390.238 407.659,391.261 408.473,391.445 417.93,393.608 418.742,393.801 			"/>
			<polygon style="fill:#FFFFFF;" points="405.395,380.467 404.456,383.623 424.531,388.394 425.042,385.07 			"/>
			<path style="fill:#C93D44;" d="M421.048,400.014l0.21-0.815l-3.73-0.88l1.215-4.518l-0.813-0.192l-1.216,4.519l-9.297-2.196
				l1.056-4.485l-0.814-0.185l-1.056,4.477l-4.476-1.056l-0.193,0.82l4.477,1.058l-1.333,5.658l-4.484-1.048l-0.201,0.814
				l4.493,1.048l-1.442,6.086l-4.493-1.056l-0.193,0.813l4.494,1.066l-1.333,5.659l-4.502-1.049l-0.193,0.806l4.502,1.056
				l-1.575,6.715l-4.518-1.065l-0.193,0.814l4.519,1.065l-1.333,5.65l-4.526-1.057l-0.193,0.822l4.527,1.057l-1.241,5.247
				l-4.535-1.073l-0.192,0.814l4.535,1.072l-1.258,5.332l0.814,0.21l1.266-5.349l8.049,1.902l-1.459,5.416l0.821,0.201l1.45-5.424
				l3.873,0.913l0.218-0.813l-3.873-0.914l1.409-5.231l3.848,0.897l0.218-0.813l-3.848-0.897l1.491-5.593l3.832,0.905l0.218-0.805
				l-3.831-0.905l1.794-6.689l3.807,0.889l0.218-0.813l-3.807-0.889l1.501-5.591l3.781,0.897l0.218-0.814l-3.78-0.889l1.634-6.077
				l3.756,0.88l0.21-0.814l-3.756-0.871l1.5-5.592L421.048,400.014z M406.084,437.755l-8.073-1.902l1.232-5.257l8.241,1.928
				L406.084,437.755z M407.701,431.711l-8.266-1.928l1.333-5.651l8.434,1.987L407.701,431.711z M409.42,425.315l-8.459-1.995
				l1.585-6.715l8.669,2.02L409.42,425.315z M411.433,417.819l-8.694-2.037l1.333-5.65l8.861,2.088L411.433,417.819z
				 M413.15,411.415l-8.886-2.105l1.434-6.086l9.079,2.12L413.15,411.415z M414.995,404.532l-9.104-2.13l1.333-5.65l9.272,2.188
				L414.995,404.532z"/>
		</g>
		<g>
			<path style="fill:#C93D44;" d="M310.593,426.427l0.033-0.288c0,0-0.32-27.181-0.989-30.804c-0.669-3.623-4.56-9.913-16.936-10.01
				c-12.377-0.097-59.635,0.612-59.635,0.612s-11.779-0.255-13.807,14.482c-2.027,14.737,0.75,40.633,0.75,40.633h19.859
				c0.679-5.033,4.977-8.92,10.196-8.928c5.231-0.007,9.547,3.882,10.227,8.928h26.72c0.649-5.066,4.963-8.987,10.206-8.994
				c5.254-0.008,9.587,3.916,10.237,8.994h9.871C317.326,441.053,319.47,426.094,310.593,426.427z"/>
			<path style="fill:#912D33;" d="M312.894,413.077c0,0.889-0.721,1.609-1.609,1.609h-93.53c-0.889,0-1.609-0.721-1.609-1.609l0,0
				c0-0.889,0.721-1.608,1.609-1.608h93.53C312.173,411.469,312.894,412.189,312.894,413.077L312.894,413.077z"/>
			<g>
				<g>
					<path style="fill:#912D33;" d="M319.193,439.444h-7.909h-4.164c0.273,0.925,0.428,1.902,0.429,2.916
						c0,0.102-0.012,0.2-0.015,0.302h3.75h7.909c0.889,0,1.609-0.721,1.609-1.609C320.803,440.164,320.082,439.444,319.193,439.444z
						"/>
					<path style="fill:#912D33;" d="M260.384,442.662h26.547c-0.002-0.092-0.014-0.181-0.014-0.273
						c-0.001-1.024,0.151-2.011,0.428-2.945h-27.396c0.286,0.944,0.445,1.944,0.446,2.982
						C260.396,442.506,260.386,442.583,260.384,442.662z"/>
					<path style="fill:#912D33;" d="M239.764,442.456c-0.001-1.048,0.156-2.059,0.445-3.012h-14.546h-7.909
						c-0.889,0-1.609,0.72-1.609,1.608c0,0.889,0.721,1.609,1.609,1.609h7.909h14.111
						C239.772,442.593,239.764,442.525,239.764,442.456z"/>
				</g>
			</g>
			<path style="fill:#023E63;" d="M258.405,442.199c0,4.644-3.766,8.408-8.41,8.408c-4.643,0-8.406-3.765-8.406-8.408
				c0-4.645,3.764-8.409,8.406-8.409C254.64,433.79,258.405,437.555,258.405,442.199z"/>
			<path style="fill:#0D63B0;" d="M253.261,442.198c0,1.803-1.461,3.265-3.264,3.265c-1.803,0-3.266-1.462-3.266-3.265
				c0-1.803,1.463-3.265,3.266-3.265C251.8,438.934,253.261,440.396,253.261,442.198z"/>
			<path style="fill:#023E63;" d="M305.56,442.199c0,4.644-3.766,8.408-8.41,8.408c-4.643,0-8.406-3.765-8.406-8.408
				c0-4.645,3.764-8.409,8.406-8.409C301.794,433.79,305.56,437.555,305.56,442.199z"/>
			<path style="fill:#0D63B0;" d="M300.415,442.198c0,1.803-1.461,3.265-3.264,3.265c-1.803,0-3.266-1.462-3.266-3.265
				c0-1.803,1.463-3.265,3.266-3.265C298.954,438.934,300.415,440.396,300.415,442.198z"/>
			<g>
				<g>
					<path style="fill:#FFFFFF;" d="M224.443,402.335c0,0,14.015-0.063,14.516-0.24c0.501-0.177,0.255-2.102,0.336-5.518
						c0.081-3.417,0.334-5.305-1.169-5.445c-1.503-0.141-6.758-0.513-8.677-0.285c-1.919,0.228-4.849,1.567-5.72,5.819
						C222.858,400.917,223.358,402.341,224.443,402.335z"/>
					<path style="fill:#FFFFFF;" d="M307.211,402.335c0,0-14.015-0.063-14.516-0.24c-0.501-0.177-0.255-2.102-0.336-5.518
						c-0.081-3.417-0.334-5.305,1.169-5.445c1.503-0.141,6.758-0.513,8.677-0.285c1.919,0.228,4.849,1.567,5.72,5.819
						C308.796,400.917,308.296,402.341,307.211,402.335z"/>
					<path style="fill:#FFFFFF;" d="M241.647,393.092v7.025c0,0-0.16,2.061,2.321,2.061c2.481,0,10.023,0,10.023,0
						s2.537-0.063,2.537-2.189c0-2.127,0-6.091,0-6.091s0.021-2.759-2.918-2.759c-2.938,0-9.256,0-9.256,0
						S241.647,391.19,241.647,393.092z"/>
					<path style="fill:#FFFFFF;" d="M258.609,393.092v7.025c0,0-0.16,2.061,2.321,2.061c2.481,0,10.023,0,10.023,0
						s2.537-0.063,2.537-2.189c0-2.127,0-6.091,0-6.091s0.021-2.759-2.918-2.759c-2.938,0-9.256,0-9.256,0
						S258.609,391.19,258.609,393.092z"/>
					<path style="fill:#FFFFFF;" d="M275.11,393.092v7.025c0,0-0.16,2.061,2.321,2.061c2.482,0,10.023,0,10.023,0
						s2.537-0.063,2.537-2.189c0-2.127,0-6.091,0-6.091s0.021-2.759-2.918-2.759s-9.256,0-9.256,0S275.11,391.19,275.11,393.092z"/>
				</g>
				<path style="fill:#FFFFFF;" d="M241.647,418.547v7.025c0,0-0.16,2.061,2.321,2.061c2.481,0,10.023,0,10.023,0
					s2.537-0.063,2.537-2.189c0-2.127,0-6.091,0-6.091s0.021-2.759-2.918-2.759c-2.938,0-9.256,0-9.256,0
					S241.647,416.646,241.647,418.547z"/>
				<path style="fill:#FFFFFF;" d="M258.609,418.547v7.025c0,0-0.16,2.061,2.321,2.061c2.481,0,10.023,0,10.023,0
					s2.537-0.063,2.537-2.189c0-2.127,0-6.091,0-6.091s0.021-2.759-2.918-2.759c-2.938,0-9.256,0-9.256,0
					S258.609,416.646,258.609,418.547z"/>
				<path style="fill:#FFFFFF;" d="M275.11,418.547v7.025c0,0-0.16,2.061,2.321,2.061c2.482,0,10.023,0,10.023,0
					s2.537-0.063,2.537-2.189c0-2.127,0-6.091,0-6.091s0.021-2.759-2.918-2.759s-9.256,0-9.256,0S275.11,416.646,275.11,418.547z"/>
				<path style="fill:#FFFFFF;" d="M305.353,416.894c-1.034,0-2.642,0-4.027,0c-0.714,0-1.702,0-2.702,0c-1.991,0-4.027,0-4.027,0
					s-1.97,0.038-1.97,1.42v5.108c0,0-0.116,1.498,1.688,1.498c0.848,0,2.506,0,4.027,0c1.717,0,3.26,0,3.26,0
					c1.996,0,4.027,0,4.027,0s1.845-0.046,1.845-1.592c0-1.547,0-4.429,0-4.429S307.489,416.894,305.353,416.894z"/>
			</g>
		</g>
		<g>
			<path style="fill:#023E63;" d="M120.457,394.409l18.588,56.293c0,0,1.121,3.344-2.007,5.238
				c-3.128,1.895-4.959-1.492-5.951-4.686c0,0-2.533-1.666-2.681,1.517c-0.147,3.183,3.756,7.72,9.743,5.727
				c5.987-1.993,4.705-6.603,3.198-11.029c-1.507-4.427-17.815-54.245-17.815-54.245s-1.261-3.023-3.076-2.254
				C119.391,391.421,120.457,394.409,120.457,394.409z"/>
			<path style="fill:#0D63B0;" d="M162.77,415.993c0,0-3.66-3.131-6.91-1.71c-3.25,1.43-3.45,5.199-3.45,5.199
				s-0.02-0.02-0.069-0.069c-0.521-0.45-4.1-3.4-7.66-2.46c-3.86,1.02-4.641,7.06-4.641,7.06s0,0-0.01-0.01
				c-0.23-0.26-4.37-4.82-8.43-3.63c-4.181,1.22-4.521,6.51-4.521,6.51s-0.01-0.021-0.04-0.06c-0.37-0.521-3.279-4.391-7.13-3.391
				c-4.12,1.07-5.14,6.01-5.14,6.01s0,0-0.01-0.01c-9.271-7.13-12.61,2.21-12.61,2.21c-4.84-24.14,16.06-32.609,20.87-34.22
				c0.07-0.021,0.13-0.04,0.19-0.061c0.5-0.17,0.78-0.239,0.78-0.239c10.33-2.471,19.87,0.09,27.101,4.84
				C158.319,406.713,162.77,415.993,162.77,415.993z"/>
			<path style="fill:#023E63;" d="M127.039,426.823c-0.37-0.521-3.279-4.391-7.13-3.391c-4.12,1.07-5.14,6.01-5.14,6.01
				s0,0-0.01-0.01c-0.19-0.51-6.66-17.81,8.26-32.01c0.06-0.05,0.12-0.11,0.18-0.17c0,0,0,0.04,0.01,0.109
				C123.359,398.873,125.129,415.982,127.039,426.823z"/>
			<path style="fill:#BE1E2D;" d="M123.329,397.423"/>
			<path style="fill:#023E63;" d="M152.34,419.413c-0.521-0.45-4.1-3.4-7.66-2.46c-3.86,1.02-4.641,7.06-4.641,7.06s0,0-0.01-0.01
				c-0.17-0.58-6.37-21.17-16.7-26.58C126.229,397.473,148.289,398.513,152.34,419.413z"/>
		</g>
		<g>
			
				<ellipse transform="matrix(0.7071 -0.7071 0.7071 0.7071 -112.2365 102.8173)" style="fill:#FFFFFF;" cx="67.993" cy="186.89" rx="39.281" ry="39.281"/>
			<path style="fill:#0D63B0;" d="M99.917,186.894c0,2-0.18,3.961-0.54,5.86c-0.149,0.851-0.34,1.681-0.57,2.5
				c-1.329,4.931-3.819,9.39-7.149,13.069c-0.561,0.621-1.14,1.211-1.75,1.791c-0.51,0.479-1.05,0.949-1.601,1.4
				c-0.649,0.539-1.319,1.049-2.01,1.529c-3.74,2.63-8.069,4.471-12.74,5.279c-0.819,0.15-1.659,0.261-2.5,0.351
				c-1,0.091-2.029,0.14-3.06,0.14c-1.68,0-3.34-0.129-4.95-0.379c-0.84-0.131-1.68-0.301-2.5-0.5
				c-4.14-0.99-7.97-2.781-11.319-5.221c-0.681-0.5-1.351-1.02-1.99-1.57c-0.54-0.459-1.061-0.939-1.561-1.43
				c-0.6-0.59-1.17-1.189-1.72-1.82c-3.14-3.6-5.49-7.899-6.77-12.64c-0.23-0.819-0.42-1.649-0.57-2.5
				c-0.36-1.899-0.54-3.86-0.54-5.86c0-0.72,0.02-1.439,0.07-2.149c0.06-0.851,0.149-1.681,0.27-2.5
				c0.74-5.091,2.68-9.79,5.53-13.809c0.49-0.681,1-1.351,1.55-1.99c0.45-0.551,0.93-1.08,1.42-1.601c0.57-0.6,1.17-1.18,1.79-1.739
				c3.88-3.471,8.61-6.011,13.84-7.25c0.82-0.201,1.66-0.371,2.5-0.5c1.61-0.25,3.27-0.381,4.95-0.381c1.03,0,2.06,0.051,3.06,0.141
				c0.841,0.09,1.681,0.199,2.5,0.35c5.91,1.03,11.261,3.7,15.58,7.52c0.62,0.551,1.221,1.121,1.811,1.721
				c0.49,0.51,0.97,1.04,1.43,1.59c0.54,0.641,1.061,1.3,1.55,1.98c2.91,4.049,4.9,8.81,5.65,13.97c0.12,0.819,0.21,1.649,0.27,2.5
				C99.897,185.455,99.917,186.174,99.917,186.894z"/>
			<path style="fill:#FFFFFF;" d="M76.197,192.754c-1.09-1.101-2.231-2.239-3.42-3.44c1.47-1.459,3-2.979,4.59-4.569
				c0.82-0.82,1.66-1.65,2.52-2.5c4.23-4.22,8.9-8.86,14.04-13.97c-0.489-0.681-1.01-1.34-1.55-1.98
				c-0.46-0.55-0.939-1.08-1.43-1.59c-0.59-0.6-1.191-1.17-1.811-1.721c-4.85,4.83-10.189,10.141-15.58,15.5
				c-0.829,0.83-1.67,1.66-2.5,2.49c-1.1,1.09-2.199,2.19-3.3,3.28c-1.5-1.51-3.069-3.09-4.71-4.729
				c-0.819-0.82-1.649-1.66-2.5-2.521c-4.18-4.19-8.77-8.81-13.84-13.899c-0.62,0.56-1.22,1.14-1.79,1.739
				c-0.49,0.521-0.97,1.05-1.42,1.601c-0.55,0.64-1.06,1.31-1.55,1.99c4.32,4.33,9,9.039,13.75,13.809
				c0.83,0.829,1.649,1.659,2.479,2.5c1.511,1.51,3.021,3.03,4.521,4.54c-1.21,1.21-2.37,2.359-3.49,3.47
				c-0.87,0.86-1.71,1.7-2.52,2.5c-5.381,5.351-9.53,9.47-12.73,12.64c0.55,0.631,1.12,1.23,1.72,1.82
				c0.5,0.49,1.021,0.971,1.561,1.43c0.64,0.551,1.31,1.07,1.99,1.57c2.939-2.91,6.64-6.59,11.319-11.24
				c0.8-0.789,1.641-1.619,2.5-2.48c1.471-1.46,3.03-3.011,4.681-4.65c1.149,1.16,2.26,2.28,3.329,3.351
				c0.86,0.869,1.7,1.709,2.5,2.52c5.391,5.43,9.551,9.609,12.74,12.83c0.69-0.48,1.36-0.99,2.01-1.529
				c0.551-0.451,1.091-0.921,1.601-1.4c0.61-0.58,1.189-1.17,1.75-1.791c-3.23-3.26-7.45-7.51-12.97-13.069
				C77.887,194.455,77.057,193.624,76.197,192.754z"/>
			<path style="fill:#BE1E2D;" d="M75.157,195.254c6.439,6.47,11.21,11.28,14.75,14.86c-0.51,0.479-1.05,0.949-1.601,1.4
				c-4.119-4.16-9.22-9.301-14.75-14.851c-0.819-0.83-1.649-1.67-2.5-2.521c-1.09-1.1-2.199-2.22-3.319-3.34
				c-1.65,1.641-3.21,3.19-4.69,4.66c-0.859,0.859-1.69,1.689-2.5,2.49c-5.66,5.619-9.99,9.92-13.31,13.189
				c-0.54-0.459-1.061-0.939-1.561-1.43c4.101-4.07,9.13-9.061,14.551-14.46c0.84-0.819,1.68-1.66,2.529-2.5
				c1.15-1.14,2.311-2.3,3.48-3.46c-1.5-1.51-3.01-3.029-4.53-4.55c-0.83-0.83-1.66-1.671-2.49-2.5
				c-5.42-5.45-10.8-10.87-15.72-15.8c0.45-0.551,0.93-1.08,1.42-1.601c5.8,5.83,10.99,11.05,15.63,15.72
				c0.851,0.851,1.681,1.69,2.5,2.51c1.641,1.65,3.2,3.221,4.7,4.721c1.1-1.09,2.2-2.189,3.31-3.29c0.83-0.83,1.66-1.66,2.5-2.489
				c6-5.971,11.99-11.941,17.391-17.311c0.49,0.51,0.97,1.04,1.43,1.59c-5.96,5.92-11.28,11.221-16.03,15.95
				c-0.859,0.85-1.699,1.691-2.52,2.5c-1.59,1.59-3.12,3.11-4.58,4.56c1.19,1.2,2.33,2.35,3.43,3.45
				C73.537,193.615,74.367,194.455,75.157,195.254z"/>
			<path style="fill:#FFFFFF;" d="M99.847,184.745c-0.06-0.851-0.149-1.681-0.27-2.5H73.557v-26.78c-0.819-0.15-1.659-0.26-2.5-0.35
				c-1-0.09-2.029-0.141-3.06-0.141c-1.68,0-3.34,0.131-4.95,0.381c-0.84,0.129-1.68,0.299-2.5,0.5v26.39h-24.13
				c-0.12,0.819-0.21,1.649-0.27,2.5c-0.051,0.71-0.07,1.43-0.07,2.149c0,2,0.18,3.961,0.54,5.86c0.15,0.851,0.34,1.681,0.57,2.5
				h23.359v22.681c0.82,0.199,1.66,0.369,2.5,0.5c1.61,0.25,3.27,0.379,4.95,0.379c1.03,0,2.06-0.049,3.06-0.14
				c0.841-0.09,1.681-0.2,2.5-0.351v-23.069h25.25c0.23-0.819,0.421-1.649,0.57-2.5c0.36-1.899,0.54-3.86,0.54-5.86
				C99.917,186.174,99.897,185.455,99.847,184.745z"/>
			<path style="fill:#C84A4D;" d="M99.917,186.894c0,2-0.18,3.961-0.54,5.86h-28.32v25.92c-1,0.091-2.029,0.14-3.06,0.14
				c-1.68,0-3.34-0.129-4.95-0.379v-25.681h-26.43c-0.36-1.899-0.54-3.86-0.54-5.86c0-0.72,0.02-1.439,0.07-2.149h26.899v-29.39
				c1.61-0.25,3.27-0.381,4.95-0.381c1.03,0,2.06,0.051,3.06,0.141v29.63h28.79C99.897,185.455,99.917,186.174,99.917,186.894z"/>
		</g>
		<g>
			<path style="fill:#DB6167;" d="M139.359,104.619c-13.03,0.13-19.681-6.9-24-14.79c-1.66-3.03-2.98-6.181-4.19-9.101
				c-2.1-5.109-3.87-9.519-6.51-11.35c-8.1-5.59-14.27-3.38-14.27-3.38s-3.329,1.479-4.77-1.24c-1.61-3.05,0.51-5.28,0.51-5.28
				s10.9-7.95,23.851-3.14c5.939,2.2,11.439,7.99,15.63,13.601c2.04,2.72,3.779,5.41,5.12,7.619c1.77,2.94,2.84,5.061,2.98,5.33
				c-0.09-0.64-1.72-11-3.57-18.54h29.061C159.199,64.349,166.109,104.349,139.359,104.619z"/>
			<path style="fill:#912D33;" d="M159.197,64.372c0,3.659-6.548,6.625-14.626,6.625c-8.077,0-14.626-2.967-14.626-6.625
				s6.549-6.625,14.626-6.625C152.649,57.747,159.197,60.713,159.197,64.372z"/>
			<path style="fill:#C84A4B;" d="M151.945,63.855c0,1.322-3.197,2.394-7.141,2.394c-3.943,0-7.14-1.072-7.14-2.394
				c0-1.323,3.196-2.395,7.14-2.395C148.748,61.46,151.945,62.532,151.945,63.855z"/>
			<path style="fill:#912D33;" d="M130.729,77.558c-0.641,2.26-2.11,5.451-5.431,8.33c-3.58,3.101-7.439,3.84-9.939,3.94
				c-1.66-3.03-2.98-6.181-4.19-9.101c11.09-1.189,13.8-7.35,14.44-10.789C127.649,72.659,129.389,75.349,130.729,77.558z"/>
		</g>
		<g>
			<path style="fill:#C84A4B;" d="M286.372,37.519c0,0-4.196-3.136-5.038-2.691c-0.842,0.445-1.904,5.242-0.927,5.497
				c0.978,0.255,6.175-0.204,6.175-0.204s5.009,3.221,5.621,2.567s1.885-4.838,0.93-5.042c-0.955-0.204-5.516,0.127-5.516,0.127
				L286.372,37.519z"/>
			<path style="fill:#C84A4B;" d="M275.361,46.664l3.899-0.033l10.749,1.894l3.941,0.929c0,0-3.576,3.753-9.777,3.41
				C277.973,52.522,275.731,48.086,275.361,46.664z"/>
			<path style="fill:#FFFFFF;" d="M300.06,93.913l0.3,0.7l-7.59-1.579l-35.851-7.49l-4.1-0.86c0,0-17.21-28.28,1.67-38.46
				c14.33-7.72,23.63,8.01,23.63,8.01l6.45,1.41c0,0,14.18-7.56,23.1-1.41C316.59,60.374,315.53,77.204,300.06,93.913z"/>
			<path style="fill:#C84A4B;" d="M299.99,85.153c-0.82,0.881-1.56,1.689-2.22,2.41c-2.601,2.811-4.13,4.49-5,5.471l-35.851-7.49
				c-0.529-1.471-1.62-4.57-2.689-8.291c-2.17-7.58-4.27-17.77-1.48-22.089c4.7-7.28,13.76-6.32,18.46-1.9
				c4.7,4.42,6.811,9.35,6.811,9.35l4.6,1.15c0,0,9.49-9.36,19.95-6.48C313.03,60.164,307.101,77.464,299.99,85.153z"/>
			<polygon style="fill:#FFFFFF;" points="278.229,54.669 274.261,78.302 281.227,79.247 284.684,56.076 			"/>
			<path style="fill:#912D33;" d="M297.77,87.563c-2.601,2.811-4.13,4.49-5,5.471l-35.851-7.49c-0.529-1.471-1.62-4.57-2.689-8.291
				c3.66,1.051,13.729,3.891,22.689,5.98C284.101,84.903,292.601,86.583,297.77,87.563z"/>
			<path style="fill:#FBB040;" d="M268.44,88.599c0,0,1.105-13.721,10.008-13.249c8.902,0.472,4.86,14.868,4.502,18.408
				C282.592,97.298,268.692,92.245,268.44,88.599z"/>
			<path style="fill:#0D63B0;" d="M277.265,79.043l3.257,0.108c0,0,1.739,5.139,1.373,5.998c-0.366,0.859-3.017,3.846-3.183,3.757
				c-0.165-0.089-2.825-0.694-2.957-0.851c-0.132-0.155-2.79-4.602-2.579-5.359C273.387,81.938,276.097,79.004,277.265,79.043z"/>
			<g>
				<g>
					<path style="fill:#912D33;" d="M282.6,60.102c0,0.939-0.762,1.701-1.701,1.701c-0.939,0-1.701-0.762-1.701-1.701
						c0-0.939,0.762-1.701,1.701-1.701C281.838,58.401,282.6,59.163,282.6,60.102z"/>
					<path style="fill:#912D33;" d="M281.522,66.157c0,0.94-0.762,1.702-1.701,1.702c-0.939,0-1.701-0.762-1.701-1.702
						c0-0.939,0.762-1.701,1.701-1.701C280.761,64.456,281.522,65.217,281.522,66.157z"/>
					<path style="fill:#912D33;" d="M280.386,71.427c0,0.939-0.762,1.701-1.701,1.701c-0.94,0-1.701-0.762-1.701-1.701
						c0-0.94,0.762-1.701,1.701-1.701C279.624,69.726,280.386,70.487,280.386,71.427z"/>
				</g>
			</g>
			<path style="fill:#FBB040;" d="M275.361,46.664c0,0,1.652,3.665,7.264,4.762c5.611,1.097,11.326-1.971,11.326-1.971l-0.351,2.99
				c0,0-2.521,4.547-10.65,3.631c-8.13-0.916-8.69-6.568-8.69-6.568L275.361,46.664z"/>
			<path style="fill:#FBB040;" d="M279.261,46.631c0,0,5.067,3.244,10.749,1.894c0,0,0.147-4.385-3.712-5.498
				C282.291,41.874,279.261,46.631,279.261,46.631z"/>
			<path style="fill:#C84A4B;" d="M285.269,39.33c0,0-2.812,6.05-1.932,6.521c0.88,0.471,3.793,1.502,4.174,0.208
				c0.381-1.294,0.304-6.014,0.304-6.014l0.434-2.322c0,0,2.961-4.057,2.297-4.924c-0.664-0.868-4.49-1.531-4.643-0.562
				c-0.153,0.97-0.215,5.231-0.215,5.231L285.269,39.33z"/>
			<circle style="fill:#912D33;" cx="286.582" cy="38.82" r="2.308"/>
			<path style="fill:#FFFFFF;" d="M251.715,84.281l49.191,10.333c0,0,3.842,0.624,3.612,4.179c-0.229,3.555-4.128,3.44-14.906,1.319
				c-10.778-2.122-31.923-7.303-36.578-8.143c-4.655-0.839-6.767-2.002-6.651-4.813C246.498,84.345,249.65,83.644,251.715,84.281z"
				/>
		</g>
		<g>
			<path style="fill:#0D63B0;" d="M390.943,93.946l-0.101,0.167C390.843,94.113,390.883,94.051,390.943,93.946z"/>
			<path style="fill:#0D63B0;" d="M412.259,80.785c-0.974-0.169-3.373-0.77-3.701-2.623c-0.21-1.189,0.068-2.405,0.415-3.35
				c2.655-5.583,5.478-10.971,5.478-10.971l-7.796-2.243l-7.797-2.244c0,0-0.473,6.064-1.19,12.205
				c-0.21,0.984-0.619,2.163-1.431,3.058c-1.263,1.395-3.614,0.628-4.528,0.254c-5.739-2.534-11.396-5.26-11.396-5.26l-4.487,15.593
				c0,0,6.559,0.512,12.94,1.278c1.112,0.247,3.032,0.903,3.323,2.547c0.375,2.114-0.793,4.313-1.146,4.917l0.284-0.47
				c-2.554,5.325-5.145,10.272-5.145,10.272l7.797,2.243l7.796,2.244c0,0,0.435-5.568,1.103-11.436l-0.01,0.549
				c0.021-0.699,0.2-3.183,1.642-4.774c1.121-1.238,3.099-0.773,4.17-0.391c5.814,2.744,11.64,5.795,11.64,5.795l4.487-15.593
				C424.707,82.386,418.469,81.689,412.259,80.785z M399.502,86.453c-1.469-0.422-2.316-1.954-1.894-3.422
				c0.423-1.468,1.954-2.315,3.423-1.893c1.468,0.422,2.315,1.955,1.894,3.422C402.502,86.028,400.97,86.875,399.502,86.453z"/>
			<path style="fill:#0D63B0;" d="M402.769,97.349c-0.004,0.121-0.005,0.195-0.005,0.195L402.769,97.349z"/>
		</g>
		<g>
			<path style="fill:#C84A4D;" d="M63.784,328.634l-0.013,0.236C63.771,328.87,63.78,328.781,63.784,328.634z"/>
			<path style="fill:#C84A4D;" d="M79.157,302.326c-1.142,0.375-4.062,1.1-5.472-0.7c-0.905-1.16-1.3-2.623-1.468-3.836
				c-0.337-7.513-0.384-14.911-0.384-14.911l-9.652,2.045l-9.655,2.043c0,0,2.956,6.782,5.692,13.787
				c0.337,1.176,0.571,2.675,0.21,4.1c-0.559,2.221-3.522,2.739-4.718,2.859c-7.61,0.558-15.242,0.86-15.242,0.86l4.088,19.309
				c0,0,7.335-3.197,14.626-6.02c1.336-0.371,3.773-0.762,5.024,0.837c1.61,2.057,1.612,5.085,1.579,5.935l0.037-0.666
				c0.299,7.176,0.342,13.969,0.342,13.969l9.654-2.044l9.652-2.043c0,0-2.713-6.228-5.346-12.911l0.303,0.595
				c-0.376-0.764-1.603-3.531-0.963-6.064c0.496-1.97,2.885-2.6,4.254-2.802c7.811-0.374,15.809-0.424,15.809-0.424l-4.087-19.308
				C93.439,296.936,86.343,299.75,79.157,302.326z M68.694,315.698c-1.818,0.387-3.602-0.775-3.987-2.593
				c-0.384-1.818,0.777-3.603,2.595-3.987c1.817-0.386,3.603,0.775,3.987,2.593C71.674,313.528,70.512,315.315,68.694,315.698z"/>
			<path style="fill:#C84A4D;" d="M78.427,325.533c0.064,0.134,0.106,0.213,0.106,0.213L78.427,325.533z"/>
		</g>
	</g>
</g>
<g id="DESIGNED_BY_FREEPIK">
	<g>
		<defs>
			<rect id="SVGID_1_" width="500" height="500"/>
		</defs>
		<clipPath id="SVGID_00000058589056628179472980000011990664146653580942_">
			<use xlink:href="#SVGID_1_"  style="overflow:visible;"/>
		</clipPath>
		<path style="clip-path:url(#SVGID_00000058589056628179472980000011990664146653580942_);fill:#6D6E71;" d="M186.809,475.894
			v-0.16c-0.219,0.249-0.434,0.452-0.645,0.608c-0.212,0.157-0.441,0.275-0.689,0.355c-0.246,0.083-0.517,0.122-0.81,0.122
			c-0.388,0-0.747-0.081-1.078-0.246c-0.329-0.164-0.616-0.398-0.857-0.702c-0.242-0.306-0.425-0.663-0.55-1.075
			c-0.124-0.412-0.187-0.857-0.187-1.335c0-1.014,0.248-1.805,0.743-2.37c0.494-0.565,1.145-0.849,1.953-0.849
			c0.466,0,0.859,0.081,1.181,0.24c0.321,0.161,0.633,0.408,0.938,0.739v-2.392c0-0.333,0.065-0.583,0.199-0.755
			c0.131-0.17,0.32-0.255,0.566-0.255c0.245,0,0.434,0.078,0.566,0.235c0.133,0.157,0.199,0.386,0.199,0.691v7.146
			c0,0.31-0.072,0.541-0.214,0.695c-0.144,0.153-0.327,0.23-0.552,0.23c-0.223,0-0.405-0.08-0.551-0.239
			C186.881,476.419,186.809,476.19,186.809,475.894 M183.62,473.514c0,0.439,0.067,0.813,0.205,1.122
			c0.137,0.309,0.323,0.541,0.561,0.697c0.236,0.156,0.496,0.234,0.776,0.234c0.285,0,0.545-0.073,0.781-0.223
			c0.235-0.148,0.424-0.376,0.564-0.682c0.141-0.308,0.211-0.691,0.211-1.149c0-0.432-0.07-0.803-0.211-1.114
			c-0.14-0.31-0.33-0.547-0.57-0.712c-0.238-0.164-0.502-0.246-0.785-0.246c-0.297,0-0.563,0.085-0.797,0.252
			c-0.232,0.168-0.414,0.409-0.543,0.725C183.684,472.732,183.62,473.098,183.62,473.514"/>
		<path style="clip-path:url(#SVGID_00000058589056628179472980000011990664146653580942_);fill:#6D6E71;" d="M193.953,473.924
			h-3.168c0.004,0.367,0.077,0.692,0.223,0.973c0.144,0.282,0.336,0.493,0.574,0.636c0.24,0.144,0.504,0.213,0.793,0.213
			c0.194,0,0.371-0.021,0.531-0.066c0.161-0.047,0.316-0.117,0.467-0.216c0.15-0.096,0.289-0.199,0.416-0.311
			c0.125-0.111,0.289-0.261,0.491-0.451c0.083-0.071,0.202-0.106,0.356-0.106c0.166,0,0.301,0.046,0.404,0.137
			c0.103,0.092,0.154,0.219,0.154,0.386c0,0.147-0.059,0.317-0.172,0.513c-0.116,0.196-0.289,0.385-0.52,0.564
			c-0.232,0.18-0.522,0.329-0.873,0.448c-0.351,0.119-0.752,0.179-1.209,0.179c-1.039,0-1.85-0.298-2.428-0.891
			c-0.576-0.594-0.865-1.399-0.865-2.416c0-0.479,0.07-0.923,0.213-1.332c0.143-0.41,0.351-0.762,0.623-1.055
			c0.273-0.293,0.609-0.517,1.01-0.674c0.4-0.156,0.843-0.233,1.33-0.233c0.633,0,1.176,0.133,1.628,0.4
			c0.454,0.267,0.794,0.612,1.019,1.035c0.225,0.423,0.34,0.855,0.34,1.294c0,0.408-0.117,0.672-0.351,0.793
			C194.707,473.862,194.377,473.924,193.953,473.924 M190.785,473.003h2.938c-0.04-0.554-0.19-0.969-0.449-1.243
			c-0.259-0.275-0.601-0.412-1.024-0.412c-0.402,0-0.734,0.139-0.994,0.418C190.998,472.043,190.84,472.457,190.785,473.003"/>
		<path style="clip-path:url(#SVGID_00000058589056628179472980000011990664146653580942_);fill:#6D6E71;" d="M201.338,474.7
			c0,0.447-0.107,0.831-0.326,1.149c-0.217,0.318-0.539,0.561-0.965,0.725c-0.424,0.164-0.942,0.246-1.552,0.246
			c-0.581,0-1.081-0.089-1.495-0.269c-0.416-0.177-0.724-0.4-0.92-0.667c-0.199-0.268-0.298-0.534-0.298-0.805
			c0-0.178,0.063-0.33,0.191-0.456c0.125-0.127,0.287-0.189,0.48-0.189c0.17,0,0.301,0.041,0.391,0.124
			c0.093,0.083,0.18,0.2,0.262,0.35c0.167,0.29,0.365,0.504,0.597,0.648c0.233,0.142,0.548,0.213,0.947,0.213
			c0.325,0,0.591-0.072,0.799-0.217c0.207-0.146,0.312-0.31,0.312-0.496c0-0.285-0.107-0.492-0.323-0.622
			c-0.216-0.132-0.571-0.257-1.066-0.375c-0.558-0.139-1.012-0.284-1.362-0.437c-0.351-0.152-0.631-0.352-0.84-0.601
			c-0.209-0.25-0.314-0.558-0.314-0.921c0-0.324,0.097-0.632,0.291-0.921c0.193-0.287,0.48-0.519,0.857-0.69
			c0.379-0.173,0.834-0.259,1.368-0.259c0.419,0,0.798,0.044,1.132,0.132c0.334,0.086,0.613,0.203,0.836,0.35
			c0.225,0.146,0.395,0.309,0.51,0.486c0.117,0.178,0.176,0.352,0.176,0.522c0,0.186-0.063,0.339-0.186,0.457
			c-0.125,0.118-0.303,0.179-0.533,0.179c-0.166,0-0.307-0.047-0.424-0.144c-0.117-0.095-0.25-0.236-0.4-0.427
			c-0.123-0.158-0.266-0.285-0.434-0.38c-0.166-0.095-0.392-0.142-0.677-0.142c-0.293,0-0.536,0.061-0.73,0.187
			c-0.194,0.124-0.291,0.279-0.291,0.465c0,0.171,0.07,0.311,0.213,0.419c0.143,0.109,0.335,0.199,0.576,0.271
			c0.242,0.07,0.574,0.157,0.998,0.261c0.502,0.123,0.912,0.27,1.232,0.438c0.318,0.171,0.559,0.371,0.724,0.604
			C201.256,474.141,201.338,474.403,201.338,474.7"/>
		<path style="clip-path:url(#SVGID_00000058589056628179472980000011990664146653580942_);fill:#6D6E71;" d="M202.994,469.477
			c-0.225,0-0.418-0.068-0.578-0.208c-0.161-0.138-0.241-0.334-0.241-0.587c0-0.23,0.082-0.419,0.245-0.566
			c0.166-0.149,0.357-0.224,0.574-0.224c0.209,0,0.395,0.067,0.558,0.202c0.163,0.135,0.243,0.33,0.243,0.588
			c0,0.249-0.079,0.444-0.237,0.584C203.399,469.407,203.211,469.477,202.994,469.477 M203.795,471.151v4.683
			c0,0.325-0.076,0.571-0.231,0.737c-0.153,0.166-0.35,0.249-0.587,0.249c-0.238,0-0.432-0.085-0.579-0.255
			c-0.149-0.172-0.223-0.414-0.223-0.731v-4.636c0-0.32,0.073-0.562,0.223-0.725c0.147-0.162,0.341-0.242,0.579-0.242
			c0.237,0,0.434,0.08,0.587,0.242C203.719,470.637,203.795,470.862,203.795,471.151"/>
		<path style="clip-path:url(#SVGID_00000058589056628179472980000011990664146653580942_);fill:#6D6E71;" d="M210.895,471.418
			v4.707c0,0.539-0.058,1.002-0.172,1.391c-0.115,0.387-0.299,0.708-0.553,0.961c-0.253,0.253-0.585,0.441-0.994,0.563
			c-0.41,0.123-0.918,0.185-1.529,0.185c-0.557,0-1.055-0.078-1.495-0.234c-0.439-0.157-0.777-0.359-1.015-0.606
			c-0.238-0.247-0.356-0.502-0.356-0.763c0-0.198,0.067-0.359,0.202-0.483c0.134-0.125,0.297-0.188,0.486-0.188
			c0.237,0,0.445,0.104,0.623,0.315c0.088,0.107,0.178,0.215,0.27,0.323c0.093,0.109,0.196,0.202,0.308,0.279
			c0.113,0.077,0.249,0.134,0.407,0.172c0.158,0.037,0.341,0.056,0.546,0.056c0.42,0,0.745-0.058,0.977-0.175
			c0.232-0.117,0.395-0.279,0.487-0.489c0.093-0.21,0.147-0.435,0.163-0.674c0.016-0.239,0.028-0.625,0.036-1.155
			c-0.25,0.349-0.537,0.614-0.864,0.797c-0.326,0.182-0.716,0.271-1.166,0.271c-0.543,0-1.016-0.138-1.423-0.415
			c-0.405-0.276-0.717-0.665-0.935-1.164c-0.217-0.499-0.325-1.073-0.325-1.727c0-0.486,0.066-0.926,0.198-1.318
			c0.133-0.392,0.322-0.722,0.566-0.99c0.245-0.271,0.528-0.473,0.85-0.609c0.32-0.136,0.672-0.204,1.057-0.204
			c0.458,0,0.855,0.088,1.193,0.263c0.336,0.178,0.648,0.453,0.938,0.829v-0.22c0-0.281,0.069-0.498,0.207-0.653
			c0.139-0.153,0.316-0.231,0.535-0.231c0.313,0,0.52,0.103,0.623,0.306C210.844,470.74,210.895,471.034,210.895,471.418
			 M206.199,473.472c0,0.657,0.143,1.154,0.43,1.49c0.287,0.337,0.658,0.505,1.113,0.505c0.27,0,0.523-0.072,0.764-0.217
			c0.239-0.145,0.434-0.363,0.584-0.653c0.15-0.29,0.227-0.644,0.227-1.06c0-0.66-0.146-1.175-0.438-1.543
			c-0.291-0.368-0.674-0.552-1.148-0.552c-0.463,0-0.834,0.176-1.113,0.528C206.338,472.322,206.199,472.823,206.199,473.472"/>
		<path style="clip-path:url(#SVGID_00000058589056628179472980000011990664146653580942_);fill:#6D6E71;" d="M213.471,471.127
			v0.196c0.283-0.376,0.596-0.652,0.935-0.828c0.338-0.176,0.728-0.265,1.166-0.265c0.428,0,0.81,0.094,1.146,0.279
			c0.336,0.186,0.588,0.449,0.754,0.789c0.107,0.198,0.177,0.412,0.207,0.642c0.033,0.229,0.049,0.522,0.049,0.879v3.015
			c0,0.325-0.074,0.571-0.223,0.737c-0.148,0.166-0.342,0.249-0.578,0.249c-0.242,0-0.438-0.085-0.588-0.255
			c-0.152-0.171-0.226-0.414-0.226-0.731v-2.701c0-0.533-0.075-0.942-0.224-1.225c-0.148-0.283-0.443-0.425-0.887-0.425
			c-0.289,0-0.553,0.086-0.789,0.258c-0.238,0.173-0.412,0.41-0.523,0.71c-0.079,0.242-0.118,0.692-0.118,1.353v2.03
			c0,0.328-0.077,0.576-0.229,0.74c-0.151,0.164-0.349,0.246-0.59,0.246c-0.234,0-0.425-0.085-0.576-0.255
			c-0.149-0.171-0.226-0.414-0.226-0.731v-4.683c0-0.31,0.067-0.54,0.202-0.692c0.135-0.151,0.318-0.229,0.552-0.229
			c0.144,0,0.27,0.034,0.386,0.102c0.114,0.068,0.207,0.168,0.276,0.302C213.436,470.77,213.471,470.935,213.471,471.127"/>
		<path style="clip-path:url(#SVGID_00000058589056628179472980000011990664146653580942_);fill:#6D6E71;" d="M223.329,473.924
			h-3.169c0.004,0.367,0.078,0.692,0.223,0.973c0.145,0.282,0.336,0.493,0.576,0.636c0.238,0.144,0.503,0.213,0.791,0.213
			c0.195,0,0.371-0.021,0.533-0.066c0.159-0.047,0.314-0.117,0.466-0.216c0.148-0.096,0.287-0.199,0.414-0.311
			c0.127-0.111,0.291-0.261,0.492-0.451c0.084-0.071,0.203-0.106,0.357-0.106c0.166,0,0.301,0.046,0.402,0.137
			c0.104,0.092,0.154,0.219,0.154,0.386c0,0.147-0.057,0.317-0.172,0.513c-0.115,0.196-0.287,0.385-0.519,0.564
			c-0.231,0.18-0.522,0.329-0.873,0.448c-0.351,0.119-0.753,0.179-1.208,0.179c-1.04,0-1.851-0.298-2.429-0.891
			c-0.576-0.594-0.865-1.399-0.865-2.416c0-0.479,0.07-0.923,0.213-1.332c0.143-0.41,0.352-0.762,0.624-1.055
			c0.273-0.293,0.608-0.517,1.009-0.674c0.398-0.156,0.844-0.233,1.33-0.233c0.633,0,1.175,0.133,1.629,0.4
			c0.453,0.267,0.792,0.612,1.018,1.035c0.225,0.423,0.338,0.855,0.338,1.294c0,0.408-0.116,0.672-0.35,0.793
			C224.081,473.862,223.754,473.924,223.329,473.924 M220.16,473.003h2.937c-0.039-0.554-0.188-0.969-0.448-1.243
			c-0.259-0.275-0.6-0.412-1.024-0.412c-0.403,0-0.734,0.139-0.993,0.418C220.371,472.043,220.216,472.457,220.16,473.003"/>
		<path style="clip-path:url(#SVGID_00000058589056628179472980000011990664146653580942_);fill:#6D6E71;" d="M229.935,475.894
			v-0.16c-0.217,0.249-0.432,0.452-0.644,0.608c-0.211,0.157-0.44,0.275-0.689,0.355c-0.246,0.083-0.517,0.122-0.809,0.122
			c-0.389,0-0.747-0.081-1.077-0.246c-0.33-0.164-0.617-0.398-0.859-0.702c-0.24-0.306-0.424-0.663-0.549-1.075
			c-0.123-0.412-0.187-0.857-0.187-1.335c0-1.014,0.248-1.805,0.742-2.37c0.495-0.565,1.145-0.849,1.952-0.849
			c0.468,0,0.861,0.081,1.183,0.24c0.32,0.161,0.634,0.408,0.937,0.739v-2.392c0-0.333,0.067-0.583,0.201-0.755
			c0.131-0.17,0.32-0.255,0.566-0.255c0.245,0,0.434,0.078,0.567,0.235c0.133,0.157,0.199,0.386,0.199,0.691v7.146
			c0,0.31-0.072,0.541-0.213,0.695c-0.144,0.153-0.328,0.23-0.553,0.23c-0.223,0-0.404-0.08-0.55-0.239
			C230.009,476.419,229.935,476.19,229.935,475.894 M226.748,473.514c0,0.439,0.067,0.813,0.204,1.122
			c0.137,0.309,0.324,0.541,0.563,0.697c0.236,0.156,0.496,0.234,0.776,0.234c0.285,0,0.546-0.073,0.781-0.223
			c0.235-0.148,0.423-0.376,0.563-0.682c0.141-0.308,0.211-0.691,0.211-1.149c0-0.432-0.07-0.803-0.211-1.114
			c-0.141-0.31-0.33-0.547-0.57-0.712c-0.239-0.164-0.502-0.246-0.786-0.246c-0.296,0-0.562,0.085-0.795,0.252
			c-0.233,0.168-0.415,0.409-0.544,0.725C226.811,472.732,226.748,473.098,226.748,473.514"/>
		<path style="clip-path:url(#SVGID_00000058589056628179472980000011990664146653580942_);fill:#6D6E71;" d="M236.56,468.747v2.476
			c0.304-0.317,0.615-0.561,0.932-0.728c0.316-0.168,0.708-0.252,1.176-0.252c0.539,0,1.01,0.127,1.416,0.382
			c0.404,0.256,0.719,0.626,0.943,1.11c0.223,0.484,0.336,1.059,0.336,1.725c0,0.491-0.063,0.94-0.188,1.35
			c-0.125,0.41-0.305,0.765-0.543,1.065c-0.237,0.301-0.525,0.535-0.863,0.699c-0.34,0.164-0.712,0.246-1.119,0.246
			c-0.25,0-0.484-0.03-0.704-0.089c-0.22-0.061-0.407-0.137-0.562-0.235c-0.153-0.096-0.285-0.196-0.395-0.3
			c-0.107-0.102-0.252-0.257-0.43-0.463v0.161c0,0.304-0.073,0.535-0.221,0.691c-0.146,0.156-0.332,0.234-0.558,0.234
			c-0.23,0-0.411-0.078-0.549-0.234c-0.136-0.156-0.205-0.388-0.205-0.691v-7.077c0-0.328,0.067-0.576,0.199-0.744
			c0.133-0.168,0.317-0.252,0.555-0.252c0.25,0,0.442,0.08,0.576,0.24C236.491,468.223,236.56,468.449,236.56,468.747
			 M236.636,473.561c0,0.645,0.147,1.14,0.443,1.485c0.295,0.348,0.682,0.521,1.16,0.521c0.407,0,0.76-0.177,1.053-0.532
			c0.295-0.354,0.443-0.862,0.443-1.522c0-0.428-0.061-0.797-0.184-1.104c-0.123-0.309-0.297-0.547-0.522-0.715
			c-0.226-0.168-0.489-0.252-0.79-0.252c-0.309,0-0.584,0.084-0.824,0.252c-0.242,0.168-0.433,0.411-0.57,0.729
			C236.706,472.742,236.636,473.122,236.636,473.561"/>
		<path style="clip-path:url(#SVGID_00000058589056628179472980000011990664146653580942_);fill:#6D6E71;" d="M243.463,477.022
			l0.148-0.362l-1.994-5.023c-0.122-0.288-0.184-0.498-0.184-0.629c0-0.138,0.035-0.267,0.107-0.385
			c0.07-0.119,0.169-0.214,0.293-0.285c0.125-0.072,0.255-0.106,0.389-0.106c0.233,0,0.409,0.073,0.529,0.222
			c0.119,0.148,0.223,0.36,0.314,0.638l1.371,3.989l1.3-3.71c0.103-0.3,0.195-0.536,0.279-0.706c0.082-0.17,0.17-0.285,0.264-0.344
			c0.093-0.061,0.225-0.089,0.395-0.089c0.124,0,0.241,0.031,0.354,0.098c0.113,0.064,0.199,0.153,0.262,0.264
			c0.061,0.111,0.092,0.228,0.092,0.351c-0.016,0.074-0.041,0.182-0.077,0.32c-0.036,0.139-0.079,0.279-0.131,0.421l-2.113,5.533
			c-0.182,0.486-0.359,0.868-0.535,1.146c-0.174,0.276-0.403,0.49-0.69,0.638c-0.287,0.149-0.674,0.223-1.161,0.223
			c-0.475,0-0.831-0.051-1.068-0.153c-0.238-0.104-0.355-0.291-0.355-0.564c0-0.186,0.057-0.33,0.169-0.431
			c0.112-0.101,0.28-0.152,0.501-0.152c0.087,0,0.173,0.013,0.256,0.037c0.104,0.023,0.191,0.035,0.268,0.035
			c0.185,0,0.332-0.027,0.438-0.083c0.106-0.055,0.203-0.151,0.288-0.288C243.254,477.488,243.352,477.287,243.463,477.022"/>
		<path style="clip-path:url(#SVGID_00000058589056628179472980000011990664146653580942_);fill:#6D6E71;" d="M266.939,470.371
			h0.387v-0.487c0-0.508,0.063-0.91,0.191-1.21c0.129-0.3,0.348-0.517,0.654-0.654c0.307-0.135,0.727-0.202,1.262-0.202
			c0.947,0,1.42,0.228,1.42,0.695c0,0.149-0.049,0.278-0.15,0.386c-0.098,0.104-0.215,0.158-0.35,0.158
			c-0.063,0-0.174-0.011-0.328-0.037c-0.15-0.021-0.283-0.033-0.391-0.033c-0.293,0-0.479,0.087-0.565,0.259
			c-0.08,0.172-0.123,0.418-0.123,0.74v0.386h0.395c0.619,0,0.928,0.186,0.928,0.56c0,0.263-0.08,0.432-0.246,0.503
			c-0.164,0.071-0.391,0.106-0.682,0.106h-0.395v4.295c0,0.319-0.076,0.563-0.23,0.73c-0.15,0.17-0.346,0.254-0.59,0.254
			c-0.229,0-0.42-0.084-0.572-0.254c-0.154-0.167-0.228-0.411-0.228-0.73v-4.295h-0.447c-0.242,0-0.426-0.052-0.557-0.163
			c-0.131-0.108-0.197-0.25-0.197-0.424C266.125,470.563,266.396,470.371,266.939,470.371"/>
		<path style="clip-path:url(#SVGID_00000058589056628179472980000011990664146653580942_);fill:#6D6E71;" d="M272.246,474.479
			v1.355c0,0.327-0.084,0.574-0.234,0.737c-0.154,0.166-0.35,0.247-0.586,0.247c-0.238,0-0.43-0.082-0.58-0.25
			c-0.147-0.165-0.225-0.411-0.225-0.734v-4.514c0-0.729,0.262-1.094,0.789-1.094c0.27,0,0.463,0.084,0.582,0.255
			c0.119,0.172,0.186,0.422,0.199,0.756c0.191-0.334,0.391-0.584,0.592-0.756c0.209-0.171,0.477-0.255,0.818-0.255
			c0.344,0,0.672,0.084,0.99,0.255c0.324,0.172,0.484,0.398,0.484,0.679c0,0.195-0.07,0.361-0.205,0.487
			c-0.137,0.132-0.283,0.195-0.441,0.195c-0.063,0-0.207-0.039-0.432-0.112c-0.23-0.07-0.432-0.107-0.602-0.107
			c-0.238,0-0.434,0.064-0.582,0.186c-0.152,0.128-0.271,0.31-0.354,0.555c-0.082,0.245-0.137,0.541-0.17,0.878
			C272.26,473.58,272.246,473.994,272.246,474.479"/>
		<path style="clip-path:url(#SVGID_00000058589056628179472980000011990664146653580942_);fill:#6D6E71;" d="M279.695,473.922
			h-3.17c0.004,0.367,0.076,0.694,0.221,0.975c0.148,0.279,0.338,0.491,0.578,0.635c0.24,0.142,0.502,0.212,0.793,0.212
			c0.193,0,0.371-0.02,0.531-0.068c0.158-0.043,0.314-0.116,0.465-0.214c0.152-0.095,0.289-0.198,0.416-0.313
			c0.125-0.109,0.291-0.26,0.494-0.449c0.084-0.071,0.203-0.107,0.354-0.107c0.168,0,0.303,0.046,0.406,0.138
			c0.105,0.092,0.152,0.219,0.152,0.386c0,0.147-0.057,0.317-0.166,0.512c-0.117,0.198-0.291,0.386-0.523,0.566
			c-0.232,0.179-0.523,0.33-0.873,0.446c-0.35,0.12-0.754,0.179-1.207,0.179c-1.045,0-1.853-0.295-2.43-0.888
			c-0.578-0.596-0.869-1.402-0.869-2.418c0-0.479,0.072-0.925,0.217-1.334c0.141-0.412,0.348-0.761,0.623-1.056
			c0.273-0.294,0.607-0.517,1.008-0.674c0.4-0.155,0.844-0.232,1.33-0.232c0.633,0,1.178,0.133,1.629,0.402
			c0.453,0.265,0.797,0.61,1.02,1.034c0.225,0.425,0.338,0.855,0.338,1.296c0,0.406-0.117,0.669-0.35,0.791
			C280.447,473.861,280.119,473.922,279.695,473.922 M276.525,473h2.938c-0.039-0.553-0.186-0.969-0.445-1.24
			c-0.262-0.277-0.6-0.413-1.025-0.413c-0.404,0-0.736,0.137-0.996,0.418C276.738,472.043,276.578,472.454,276.525,473"/>
		<path style="clip-path:url(#SVGID_00000058589056628179472980000011990664146653580942_);fill:#6D6E71;" d="M286.438,473.922
			h-3.17c0.004,0.367,0.078,0.694,0.223,0.975c0.143,0.279,0.336,0.491,0.574,0.635c0.238,0.142,0.504,0.212,0.795,0.212
			c0.191,0,0.369-0.02,0.527-0.068c0.162-0.043,0.316-0.116,0.469-0.214c0.152-0.095,0.287-0.198,0.416-0.313
			c0.123-0.109,0.289-0.26,0.492-0.449c0.084-0.071,0.203-0.107,0.355-0.107c0.168,0,0.301,0.046,0.406,0.138
			c0.104,0.092,0.15,0.219,0.15,0.386c0,0.147-0.055,0.317-0.172,0.512c-0.109,0.198-0.283,0.386-0.52,0.566
			c-0.23,0.179-0.523,0.33-0.871,0.446c-0.348,0.12-0.756,0.179-1.209,0.179c-1.043,0-1.85-0.295-2.43-0.888
			c-0.578-0.596-0.867-1.402-0.867-2.418c0-0.479,0.072-0.925,0.217-1.334c0.143-0.412,0.35-0.761,0.623-1.056
			c0.271-0.294,0.607-0.517,1.01-0.674c0.396-0.155,0.844-0.232,1.33-0.232c0.631,0,1.174,0.133,1.633,0.402
			c0.449,0.265,0.791,0.61,1.014,1.034c0.225,0.425,0.34,0.855,0.34,1.296c0,0.406-0.119,0.669-0.352,0.791
			C287.188,473.861,286.859,473.922,286.438,473.922 M283.268,473h2.938c-0.039-0.553-0.189-0.969-0.447-1.24
			c-0.262-0.277-0.6-0.413-1.025-0.413c-0.404,0-0.734,0.137-0.996,0.418C283.478,472.043,283.318,472.454,283.268,473"/>
		<path style="clip-path:url(#SVGID_00000058589056628179472980000011990664146653580942_);fill:#6D6E71;" d="M289.988,471.139
			v0.194c0.303-0.375,0.621-0.651,0.951-0.827c0.324-0.178,0.699-0.267,1.115-0.267c0.496,0,0.959,0.13,1.379,0.386
			c0.42,0.259,0.748,0.635,0.994,1.129c0.242,0.497,0.365,1.081,0.365,1.758c0,0.498-0.07,0.957-0.209,1.376
			c-0.141,0.418-0.336,0.768-0.582,1.051c-0.246,0.28-0.533,0.501-0.867,0.653c-0.34,0.15-0.695,0.228-1.08,0.228
			c-0.461,0-0.853-0.094-1.166-0.28c-0.315-0.182-0.615-0.458-0.9-0.816v2.434c0,0.71-0.262,1.068-0.777,1.068
			c-0.307,0-0.506-0.092-0.607-0.274c-0.096-0.188-0.146-0.452-0.146-0.808v-6.995c0-0.31,0.066-0.537,0.201-0.692
			c0.133-0.149,0.318-0.228,0.553-0.228c0.23,0,0.416,0.078,0.559,0.233C289.918,470.62,289.988,470.843,289.988,471.139
			 M293.166,473.494c0-0.428-0.068-0.796-0.197-1.103c-0.131-0.307-0.311-0.542-0.541-0.704c-0.229-0.164-0.49-0.247-0.77-0.247
			c-0.447,0-0.824,0.177-1.131,0.526c-0.309,0.354-0.463,0.872-0.463,1.559c0,0.642,0.152,1.146,0.459,1.504
			c0.307,0.357,0.68,0.537,1.135,0.537c0.268,0,0.518-0.079,0.748-0.233c0.23-0.158,0.416-0.392,0.551-0.704
			C293.096,474.315,293.166,473.938,293.166,473.494"/>
		<path style="clip-path:url(#SVGID_00000058589056628179472980000011990664146653580942_);fill:#6D6E71;" d="M296.426,469.474
			c-0.227,0-0.418-0.072-0.576-0.209c-0.164-0.141-0.244-0.333-0.244-0.586c0-0.23,0.082-0.42,0.248-0.569
			c0.164-0.147,0.354-0.222,0.572-0.222c0.213,0,0.397,0.066,0.559,0.199c0.162,0.137,0.244,0.334,0.244,0.592
			c0,0.25-0.08,0.443-0.236,0.585C296.832,469.401,296.645,469.474,296.426,469.474 M297.228,471.147v4.688
			c0,0.322-0.078,0.567-0.232,0.732c-0.156,0.169-0.35,0.25-0.588,0.25c-0.238,0-0.428-0.083-0.58-0.253
			c-0.145-0.173-0.223-0.416-0.223-0.729v-4.643c0-0.318,0.078-0.56,0.223-0.721c0.152-0.165,0.342-0.245,0.58-0.245
			c0.238,0,0.432,0.08,0.588,0.245C297.15,470.634,297.228,470.861,297.228,471.147"/>
		<path style="clip-path:url(#SVGID_00000058589056628179472980000011990664146653580942_);fill:#6D6E71;" d="M302.453,476.079
			l-1.428-2.354l-0.881,0.831v1.29c0,0.313-0.084,0.553-0.248,0.72c-0.16,0.17-0.353,0.254-0.566,0.254
			c-0.248,0-0.447-0.082-0.588-0.25c-0.141-0.165-0.215-0.411-0.215-0.734v-6.915c0-0.358,0.072-0.632,0.207-0.821
			c0.139-0.189,0.342-0.281,0.596-0.281c0.25,0,0.447,0.085,0.594,0.257c0.146,0.169,0.221,0.421,0.221,0.751v3.933l1.822-1.914
			c0.227-0.234,0.396-0.4,0.518-0.485c0.117-0.088,0.262-0.131,0.432-0.131c0.203,0,0.371,0.064,0.508,0.192
			c0.133,0.129,0.201,0.292,0.201,0.484c0,0.236-0.221,0.555-0.66,0.95l-0.859,0.789l1.662,2.614
			c0.119,0.196,0.211,0.34,0.266,0.441c0.051,0.1,0.08,0.2,0.08,0.289c0,0.258-0.072,0.459-0.213,0.609
			c-0.141,0.148-0.326,0.222-0.555,0.222c-0.197,0-0.352-0.052-0.457-0.16C302.783,476.551,302.633,476.357,302.453,476.079"/>
		<path style="clip-path:url(#SVGID_00000058589056628179472980000011990664146653580942_);fill:#6D6E71;" d="M305.975,476.818
			c-0.244,0-0.455-0.078-0.633-0.237c-0.178-0.156-0.27-0.379-0.27-0.665c0-0.241,0.088-0.45,0.258-0.622
			c0.17-0.175,0.379-0.262,0.629-0.262c0.248,0,0.459,0.087,0.641,0.257c0.174,0.173,0.262,0.383,0.262,0.627
			c0,0.282-0.088,0.504-0.262,0.662C306.418,476.74,306.211,476.818,305.975,476.818"/>
		<path style="clip-path:url(#SVGID_00000058589056628179472980000011990664146653580942_);fill:#6D6E71;" d="M314.037,474.813
			c0,0.2-0.06,0.417-0.184,0.646c-0.119,0.232-0.305,0.449-0.553,0.657c-0.246,0.207-0.557,0.376-0.934,0.502
			c-0.375,0.126-0.801,0.191-1.27,0.191c-1.004,0-1.787-0.293-2.348-0.875c-0.561-0.585-0.842-1.369-0.842-2.351
			c0-0.667,0.127-1.254,0.387-1.765c0.254-0.509,0.627-0.905,1.113-1.184c0.486-0.28,1.072-0.419,1.746-0.419
			c0.422,0,0.805,0.061,1.158,0.185c0.35,0.122,0.645,0.282,0.891,0.474c0.24,0.197,0.428,0.402,0.555,0.62
			c0.131,0.221,0.193,0.427,0.193,0.617c0,0.192-0.07,0.358-0.215,0.492c-0.147,0.134-0.322,0.203-0.523,0.203
			c-0.137,0-0.248-0.036-0.338-0.105c-0.09-0.069-0.191-0.181-0.299-0.339c-0.199-0.299-0.404-0.525-0.623-0.674
			c-0.215-0.152-0.488-0.227-0.822-0.227c-0.475,0-0.865,0.187-1.158,0.561c-0.291,0.373-0.439,0.888-0.439,1.534
			c0,0.305,0.039,0.587,0.115,0.842c0.072,0.255,0.182,0.473,0.324,0.653c0.145,0.179,0.316,0.314,0.518,0.409
			c0.201,0.096,0.426,0.141,0.664,0.141c0.326,0,0.603-0.075,0.836-0.225c0.234-0.151,0.438-0.381,0.615-0.689
			c0.1-0.182,0.205-0.324,0.318-0.428c0.115-0.103,0.256-0.155,0.422-0.155c0.199,0,0.363,0.077,0.492,0.226
			C313.971,474.481,314.037,474.644,314.037,474.813"/>
		<path style="clip-path:url(#SVGID_00000058589056628179472980000011990664146653580942_);fill:#6D6E71;" d="M321.029,473.524
			c0,0.481-0.074,0.929-0.221,1.337c-0.154,0.407-0.371,0.759-0.656,1.05c-0.285,0.293-0.627,0.517-1.02,0.675
			c-0.4,0.153-0.844,0.233-1.338,0.233c-0.49,0-0.934-0.08-1.324-0.238c-0.391-0.156-0.732-0.385-1.018-0.677
			c-0.287-0.298-0.506-0.646-0.656-1.048c-0.145-0.401-0.221-0.847-0.221-1.332c0-0.491,0.078-0.94,0.225-1.349
			c0.15-0.409,0.369-0.757,0.648-1.045c0.283-0.289,0.621-0.511,1.022-0.669c0.402-0.156,0.842-0.234,1.324-0.234
			c0.49,0,0.938,0.078,1.338,0.238c0.398,0.157,0.738,0.384,1.025,0.675c0.287,0.297,0.502,0.643,0.65,1.045
			C320.955,472.593,321.029,473.036,321.029,473.524 M319.402,473.524c0-0.662-0.145-1.176-0.435-1.543
			c-0.289-0.372-0.682-0.555-1.172-0.555c-0.316,0-0.598,0.083-0.838,0.246c-0.242,0.164-0.426,0.406-0.557,0.727
			c-0.131,0.321-0.197,0.696-0.197,1.124c0,0.424,0.064,0.792,0.193,1.108c0.129,0.32,0.314,0.561,0.553,0.728
			c0.242,0.167,0.523,0.253,0.846,0.253c0.49,0,0.883-0.185,1.172-0.557C319.258,474.688,319.402,474.176,319.402,473.524"/>
		<path style="clip-path:url(#SVGID_00000058589056628179472980000011990664146653580942_);fill:#6D6E71;" d="M327.213,473.644
			v2.154c0,0.342-0.076,0.594-0.23,0.767c-0.156,0.17-0.357,0.255-0.611,0.255c-0.246,0-0.447-0.085-0.594-0.255
			c-0.156-0.173-0.234-0.425-0.234-0.767v-2.582c0-0.408-0.012-0.727-0.039-0.953c-0.027-0.221-0.104-0.409-0.227-0.551
			c-0.121-0.148-0.318-0.221-0.582-0.221c-0.531,0-0.879,0.182-1.047,0.551c-0.168,0.36-0.254,0.884-0.254,1.566v2.19
			c0,0.336-0.076,0.591-0.227,0.765c-0.156,0.171-0.354,0.257-0.602,0.257c-0.248,0-0.449-0.086-0.605-0.257
			c-0.158-0.174-0.234-0.429-0.234-0.765v-4.637c0-0.307,0.068-0.538,0.209-0.695c0.143-0.16,0.328-0.238,0.557-0.238
			c0.223,0,0.406,0.077,0.557,0.222c0.148,0.149,0.223,0.355,0.223,0.615v0.153c0.281-0.334,0.584-0.582,0.9-0.737
			c0.324-0.163,0.678-0.242,1.072-0.242c0.406,0,0.756,0.082,1.049,0.244c0.293,0.163,0.533,0.409,0.725,0.735
			c0.273-0.33,0.568-0.576,0.881-0.737c0.313-0.161,0.658-0.242,1.039-0.242c0.441,0,0.826,0.091,1.147,0.263
			c0.318,0.174,0.559,0.425,0.717,0.747c0.139,0.296,0.207,0.757,0.207,1.386v3.164c0,0.342-0.078,0.594-0.23,0.767
			c-0.154,0.17-0.359,0.255-0.611,0.255c-0.248,0-0.447-0.086-0.603-0.257c-0.156-0.174-0.234-0.429-0.234-0.765v-2.727
			c0-0.349-0.016-0.627-0.043-0.836c-0.031-0.211-0.111-0.388-0.24-0.528c-0.133-0.143-0.332-0.216-0.596-0.216
			c-0.213,0-0.416,0.066-0.609,0.192c-0.191,0.124-0.342,0.298-0.449,0.508C327.275,472.466,327.213,472.949,327.213,473.644"/>
		<path style="clip-path:url(#SVGID_00000058589056628179472980000011990664146653580942_);fill:#6D6E71;" d="M251.772,473.132
			c-0.001-0.003-0.001-0.006-0.001-0.011C251.771,473.126,251.771,473.129,251.772,473.132"/>
		<path style="clip-path:url(#SVGID_00000058589056628179472980000011990664146653580942_);fill:#6D6E71;" d="M251.854,473.65h0.002
			c-0.03-0.148-0.055-0.294-0.073-0.439C251.801,473.357,251.825,473.504,251.854,473.65"/>
		<path style="clip-path:url(#SVGID_00000058589056628179472980000011990664146653580942_);fill:#6D6E71;" d="M252.391,475.154
			c-0.004-0.006-0.008-0.013-0.012-0.021C252.383,475.142,252.387,475.148,252.391,475.154"/>
		<path style="clip-path:url(#SVGID_00000058589056628179472980000011990664146653580942_);fill:#6D6E71;" d="M252.34,475.054
			c-0.015-0.026-0.027-0.056-0.041-0.084C252.313,475,252.325,475.027,252.34,475.054"/>
		<path style="clip-path:url(#SVGID_00000058589056628179472980000011990664146653580942_);fill:#6D6E71;" d="M252.005,474.229
			c0.079,0.25,0.175,0.493,0.286,0.724c-0.113-0.235-0.207-0.478-0.284-0.724H252.005z"/>
		<path style="clip-path:url(#SVGID_00000058589056628179472980000011990664146653580942_);fill:#6D6E71;" d="M258.045,466.922
			c0.315,0,0.545,0.025,0.811,0.07l0.074-0.478c0,0-0.73-0.225-1.693-0.146l-0.076-0.26c0.299-0.063,0.523-0.328,0.523-0.646
			c0-0.364-0.295-0.659-0.66-0.659c-0.365,0-0.66,0.295-0.66,0.659c0,0.317,0.225,0.583,0.522,0.646l0.084,0.289
			c-1.021,0.142-1.834,0.539-1.834,0.539l0.145,0.441c0.619-0.206,1.153-0.331,1.641-0.383
			C257.396,466.944,257.754,466.922,258.045,466.922"/>
		<path style="clip-path:url(#SVGID_00000058589056628179472980000011990664146653580942_);fill:#6D6E71;" d="M252.379,469.333
			l0.004-0.005c0.023-0.031,0.047-0.06,0.069-0.089l-0.194-0.141l-0.306-0.224c-0.017,0.024-0.497,0.466-0.876,1.28
			c-0.016-0.026-0.035-0.051-0.056-0.074c-0.114-0.124-0.272-0.188-0.474-0.184h-0.01c-0.125,0-0.211-0.042-0.267-0.092
			c0.056-0.071,0.09-0.16,0.09-0.259c0-0.229-0.189-0.418-0.419-0.418s-0.418,0.189-0.418,0.418c0,0.231,0.188,0.419,0.418,0.419
			c0.037,0,0.07-0.007,0.105-0.014c0.102,0.114,0.265,0.214,0.504,0.209c0.123-0.002,0.213,0.03,0.273,0.098
			c0.069,0.074,0.092,0.185,0.1,0.267c0,0,0,0.003-0.002,0.003c-0.272,0.743-0.194,1.669-0.194,1.669l0.661,0.026
			c0.013-0.337,0.062-0.927,0.231-1.395C251.949,469.924,252.361,469.357,252.379,469.333"/>
		<path style="clip-path:url(#SVGID_00000058589056628179472980000011990664146653580942_);fill:#6D6E71;" d="M263.795,467.475
			c-0.23,0-0.418,0.186-0.418,0.418c0,0.036,0.006,0.069,0.016,0.102c-0.115,0.105-0.215,0.269-0.211,0.507
			c0.002,0.123-0.031,0.212-0.096,0.273c-0.055,0.047-0.121,0.072-0.186,0.088c-0.492-0.69-1.098-1.11-1.098-1.11l-0.475,0.509
			c0.357,0.325,0.725,0.734,1.08,1.243c0.246,0.352,0.5,0.808,0.711,1.26l0.639-0.305c0,0-0.291-0.722-0.703-1.369
			c0.072-0.024,0.145-0.063,0.207-0.119c0.125-0.113,0.186-0.273,0.184-0.475c-0.002-0.13,0.041-0.218,0.092-0.275
			c0.072,0.054,0.16,0.089,0.258,0.089c0.232,0,0.42-0.188,0.42-0.418C264.215,467.661,264.027,467.475,263.795,467.475"/>
		<path style="clip-path:url(#SVGID_00000058589056628179472980000011990664146653580942_);fill:#6D6E71;" d="M262.135,473.226
			c-0.881,0.429-2.33,0.996-4.238,1.262c-0.75,0.104-1.475,0.143-2.143,0.143c-0.869,0-1.637-0.065-2.227-0.14
			c-0.673-0.085-1.199-0.188-1.521-0.261c0.078,0.245,0.172,0.488,0.285,0.724c0.002,0.007,0.004,0.014,0.008,0.018
			c0.013,0.028,0.027,0.056,0.041,0.084c0.013,0.027,0.027,0.054,0.039,0.079c0.004,0.007,0.008,0.015,0.012,0.021
			c0.189,0.356,0.417,0.685,0.675,0.969c0.899,0.983,1.817,1.14,1.826,1.141l0.015,0.002l0.014,0.005
			c0.008,0.003,0.82,0.265,2.057,0.265c1.217,0,2.408-0.244,3.547-0.729c0.842-0.431,1.639-1.085,2.033-1.669
			c0.305-0.451,0.525-0.934,0.656-1.434c0.068-0.267,0.123-0.692,0.092-1.141C263.057,472.729,262.664,472.968,262.135,473.226"/>
		<path style="clip-path:url(#SVGID_00000058589056628179472980000011990664146653580942_);fill:#6D6E71;" d="M252.662,469.542
			c-0.026,0.037-0.408,0.578-0.711,1.408c-0.226,0.622-0.215,1.526-0.215,1.538v0.002c0,0.212,0.012,0.423,0.034,0.631
			c0,0.005,0,0.008,0.002,0.011c0.002,0.027,0.007,0.053,0.009,0.08c0.02,0.144,0.043,0.291,0.074,0.438
			c0.438,0.112,3.049,0.722,5.969,0.314c1.828-0.254,3.217-0.795,4.061-1.204c0.701-0.34,1.152-0.647,1.326-0.773
			c-0.174-0.643-0.65-1.65-1.09-2.279c-1.254-1.791-2.603-2.25-3.299-2.365c-0.264-0.043-0.477-0.068-0.777-0.068
			c-0.277,0-0.625,0.023-1.088,0.071c-0.465,0.049-0.983,0.171-1.584,0.373c-0.842,0.282-1.604,0.724-2.203,1.28l-0.021,0.019
			C253.06,469.098,252.875,469.271,252.662,469.542 M260.33,469.125c0.6,0,1.088,0.489,1.088,1.09c0,0.601-0.488,1.09-1.088,1.09
			c-0.602,0-1.09-0.489-1.09-1.09C259.24,469.614,259.728,469.125,260.33,469.125 M255.179,469.082c0.974,0,1.761,0.789,1.761,1.761
			s-0.787,1.759-1.761,1.759c-0.972,0-1.761-0.787-1.761-1.759S254.207,469.082,255.179,469.082"/>
	</g>
</g>
</svg>
