<?xml version="1.0" encoding="utf-8"?>
<!-- Generator: Adobe Illustrator 27.5.0, SVG Export Plug-In . SVG Version: 6.00 Build 0)  -->
<svg version="1.1" xmlns="http://www.w3.org/2000/svg" xmlns:xlink="http://www.w3.org/1999/xlink" x="0px" y="0px"
	 viewBox="0 0 750 500" style="enable-background:new 0 0 750 500;" xml:space="preserve">
<g id="BACKGROUND">
	<rect style="fill:#FFF6EE;" width="750" height="500"/>
</g>
<g id="OBJECTS">
	<g>
		<defs>
			<rect id="SVGID_1_" width="750" height="500"/>
		</defs>
		<clipPath id="SVGID_00000101084886060945234660000005433958392103550653_">
			<use xlink:href="#SVGID_1_"  style="overflow:visible;"/>
		</clipPath>
		<path style="clip-path:url(#SVGID_00000101084886060945234660000005433958392103550653_);fill:#CACEEB;" d="M494.23,14.65
			c-1.34,21.58-14.13,43.41-34.59,51.9c-26.06,10.8-53.7-3.87-80.06-5.3c-12.71-0.68-24.65,2.29-35.43,9.05
			c-26.793,16.626-43.335,49.956-76.18,56.25c-27.15,4.78-52.86-13.04-79.91-8.08c-54.813,13.462-57.384,121.17-181.332,88.559
			c-59.38-21.038-85.34-91.854-76.149-150.419C-60.07,10.07-22.23-29.25,23.41-41.64c58.72-15.94,115.5,19.07,174.15,17.44
			c88.173-2.255,181.921-82.549,265.601-22.79C481.87-32.4,495.73-9.71,494.23,14.65z"/>
		<g style="clip-path:url(#SVGID_00000101084886060945234660000005433958392103550653_);">
			<defs>
				<path id="SVGID_00000124874618575057874440000013427328436737075359_" d="M494.23,14.65c-1.34,21.58-14.13,43.41-34.59,51.9
					c-26.06,10.8-53.7-3.87-80.06-5.3c-12.71-0.68-24.65,2.29-35.43,9.05c-26.793,16.626-43.335,49.956-76.18,56.25
					c-27.15,4.78-52.86-13.04-79.91-8.08c-54.813,13.462-57.384,121.17-181.332,88.559c-59.38-21.038-85.34-91.854-76.149-150.419
					C-60.07,10.07-22.23-29.25,23.41-41.64c58.72-15.94,115.5,19.07,174.15,17.44c88.173-2.255,181.921-82.549,265.601-22.79
					C481.87-32.4,495.73-9.71,494.23,14.65z"/>
			</defs>
			<clipPath id="SVGID_00000038409855477761341480000003874756323446447035_">
				<use xlink:href="#SVGID_00000124874618575057874440000013427328436737075359_"  style="overflow:visible;"/>
			</clipPath>
			<g style="clip-path:url(#SVGID_00000038409855477761341480000003874756323446447035_);">
				<path style="fill:#FFF6EE;" d="M359.44,101.805l0.36,0.35l-1.19,1.22l-0.36-0.35c-9.25-9.01-23.75-9.01-33.01,0
					c-4.96,4.83-11.33,7.24-17.69,7.24c-6.37,0-12.73-2.41-17.69-7.24c-9.26-9.01-23.76-9.01-33.02,0
					c-4.79,4.67-11.08,7.24-17.69,7.24c-6.61,0-12.89-2.57-17.69-7.24c-9.26-9.02-23.76-9.02-33.01,0c-9.92,9.66-25.47,9.66-35.39,0
					c-9.25-9.01-23.76-9.01-33.01,0c-9.92,9.66-25.47,9.66-35.39,0c-9.25-9.01-23.75-9.01-33.01,0c-9.92,9.66-25.46,9.66-35.38,0
					c-9.26-9.01-23.76-9.01-33.02,0l-0.35,0.35l-1.19-1.22l0.36-0.35c9.92-9.66,25.46-9.66,35.38,0c9.26,9.01,23.76,9.01,33.02,0
					c9.92-9.66,25.46-9.66,35.38,0c9.26,9.01,23.76,9.01,33.01,0c9.92-9.66,25.47-9.66,35.39,0c9.25,9.01,23.76,9.01,33.01,0
					c9.92-9.66,25.47-9.66,35.39,0c9.25,9.01,23.75,9.01,33.01,0c9.92-9.66,25.46-9.66,35.38,0c9.26,9.01,23.76,9.01,33.02,0
					C333.97,92.145,349.52,92.145,359.44,101.805z"/>
				<path style="fill:#FFF6EE;" d="M359.44,81.635l0.36,0.35l-1.19,1.22l-0.36-0.35c-9.25-9.01-23.75-9.01-33.01,0
					c-9.92,9.66-25.46,9.66-35.38,0c-9.26-9.01-23.76-9.01-33.02,0c-4.79,4.67-11.08,7.25-17.69,7.25c-6.61,0-12.89-2.58-17.69-7.25
					c-9.26-9.01-23.76-9.01-33.01,0c-4.96,4.83-11.33,7.25-17.7,7.25c-6.36,0-12.73-2.42-17.69-7.25c-9.25-9.01-23.75-9.01-33.01,0
					c-9.92,9.66-25.47,9.66-35.39,0c-9.25-9.01-23.75-9.01-33.01,0c-9.92,9.66-25.46,9.66-35.38,0c-9.26-9.01-23.76-9.01-33.02,0
					l-0.35,0.35l-1.19-1.22l0.36-0.35c9.92-9.66,25.46-9.66,35.38,0c9.26,9.02,23.76,9.02,33.02,0c9.92-9.65,25.46-9.65,35.38,0
					c9.26,9.02,23.76,9.01,33.01,0c9.92-9.66,25.47-9.66,35.39,0c9.25,9.02,23.76,9.02,33.01,0c9.92-9.66,25.47-9.66,35.39,0
					c9.25,9.02,23.75,9.02,33.01,0c9.92-9.66,25.46-9.66,35.38,0c9.26,9.02,23.76,9.02,33.02,0
					C333.97,71.975,349.52,71.975,359.44,81.635z"/>
				<path style="fill:#FFF6EE;" d="M359.44,61.475l0.36,0.35l-1.19,1.22l-0.36-0.35c-9.25-9.01-23.75-9.01-33.01,0
					c-4.96,4.83-11.32,7.24-17.69,7.24s-12.73-2.41-17.69-7.24c-9.26-9.01-23.76-9.01-33.02,0c-4.79,4.67-11.08,7.24-17.69,7.24
					c-6.61,0-12.89-2.57-17.69-7.24c-9.26-9.01-23.76-9.01-33.01,0c-9.93,9.66-25.47,9.66-35.39,0c-9.25-9.01-23.75-9.01-33.01,0
					c-9.92,9.66-25.46,9.66-35.39,0c-9.25-9.01-23.75-9.01-33.01,0c-9.92,9.66-25.46,9.66-35.38,0c-9.26-9.01-23.76-9.01-33.02,0
					l-0.35,0.35l-1.19-1.22l0.36-0.35c9.92-9.66,25.46-9.66,35.38,0c9.26,9.01,23.76,9.01,33.02,0c9.92-9.66,25.46-9.66,35.38,0
					c9.26,9.01,23.76,9.01,33.01,0c9.92-9.66,25.47-9.66,35.39,0c9.25,9.01,23.76,9.01,33.01,0c9.92-9.66,25.47-9.66,35.39,0
					c9.25,9.01,23.75,9.01,33.01,0c9.92-9.66,25.46-9.66,35.38,0c9.26,9.01,23.76,9.01,33.02,0
					C333.97,51.815,349.52,51.815,359.44,61.475z"/>
				<path style="fill:#FFF6EE;" d="M-17.1,2.545l-1.19-1.22l0.36-0.35c9.92-9.65,25.46-9.66,35.38,0c9.26,9.02,23.76,9.02,33.02,0
					c9.92-9.65,25.46-9.65,35.38,0c9.26,9.02,23.76,9.02,33.01,0c9.92-9.65,25.47-9.65,35.39,0c9.25,9.02,23.76,9.02,33.01,0
					c9.92-9.66,25.47-9.66,35.39,0c9.25,9.02,23.75,9.02,33.01,0c9.92-9.66,25.46-9.66,35.38,0c9.26,9.02,23.76,9.02,33.02,0
					c9.91-9.66,25.46-9.66,35.38,0l0.36,0.35l-1.19,1.22l-0.36-0.35c-9.25-9.01-23.75-9.01-33.01,0c-9.92,9.66-25.46,9.66-35.38,0
					c-9.26-9.01-23.76-9.01-33.02,0c-4.79,4.68-11.08,7.25-17.69,7.25c-6.61,0-12.89-2.57-17.69-7.25c-9.26-9.01-23.76-9.01-33.01,0
					c-4.96,4.83-11.33,7.25-17.7,7.25c-6.36,0-12.73-2.42-17.69-7.25c-9.25-9.01-23.75-9.01-33.01,0c-9.92,9.66-25.46,9.66-35.39,0
					c-9.25-9.01-23.75-9.01-33.01,0c-9.92,9.66-25.46,9.66-35.38,0c-9.26-9.01-23.76-9.01-33.02,0L-17.1,2.545z"/>
				<path style="fill:#FFF6EE;" d="M359.44,21.145l0.36,0.35l-1.19,1.22l-0.36-0.35c-9.25-9.01-23.75-9.01-33.01,0
					c-9.92,9.66-25.46,9.66-35.38,0c-9.26-9.01-23.76-9.01-33.02,0c-4.79,4.67-11.08,7.24-17.69,7.24c-6.61,0-12.89-2.57-17.69-7.24
					c-9.26-9.01-23.76-9.01-33.01,0c-4.96,4.83-11.33,7.24-17.7,7.24c-6.36,0-12.73-2.41-17.69-7.24c-9.25-9.01-23.75-9.01-33.01,0
					c-9.92,9.66-25.47,9.66-35.39,0c-9.25-9.01-23.75-9.01-33.01,0c-9.92,9.66-25.46,9.66-35.38,0c-9.26-9.01-23.76-9.01-33.02,0
					l-0.35,0.35l-1.19-1.22l0.36-0.35c9.92-9.66,25.46-9.66,35.38,0c9.26,9.01,23.76,9.01,33.02,0c9.92-9.66,25.46-9.66,35.38,0
					c9.26,9.01,23.76,9.01,33.01,0c9.92-9.66,25.47-9.66,35.39,0c9.25,9.01,23.76,9.01,33.01,0c9.92-9.66,25.47-9.66,35.39,0
					c9.25,9.01,23.75,9.01,33.01,0c9.92-9.66,25.46-9.66,35.38,0c9.26,9.01,23.76,9.01,33.02,0
					C333.97,11.485,349.52,11.485,359.44,21.145z"/>
				<path style="fill:#FFF6EE;" d="M359.44,41.315l0.36,0.34l-1.19,1.22l-0.36-0.35c-9.25-9.01-23.75-9.01-33.01,0
					c-4.96,4.83-11.32,7.25-17.69,7.25s-12.73-2.42-17.69-7.25c-9.26-9.01-23.76-9.01-33.02,0c-4.79,4.67-11.08,7.25-17.69,7.25
					c-6.61,0-12.89-2.57-17.69-7.25c-9.26-9.01-23.76-9.01-33.01,0c-9.92,9.66-25.47,9.66-35.39,0c-9.25-9.01-23.76-9.01-33.01,0
					c-9.92,9.66-25.46,9.66-35.39,0c-9.25-9.01-23.75-9.01-33.01,0c-9.92,9.66-25.46,9.66-35.38,0c-9.26-9.01-23.76-9.01-33.02,0
					l-0.35,0.35l-1.19-1.22l0.36-0.34c9.92-9.67,25.46-9.67,35.38,0c9.26,9.01,23.76,9.01,33.02,0c9.92-9.66,25.46-9.66,35.38,0
					c9.26,9.01,23.76,9.01,33.01,0c9.92-9.67,25.47-9.67,35.39,0c9.25,9.01,23.76,9.01,33.01,0c9.92-9.67,25.46-9.66,35.39,0
					c9.25,9.01,23.75,9.01,33.01,0c9.92-9.67,25.46-9.66,35.38,0c9.26,9.01,23.76,9.01,33.02,0
					C333.98,31.645,349.52,31.645,359.44,41.315z"/>
				<path style="fill:#FFF6EE;" d="M359.44,224.637l0.36,0.35l-1.19,1.22l-0.36-0.35c-9.25-9.01-23.75-9.01-33.01,0
					c-4.96,4.83-11.33,7.24-17.69,7.24c-6.37,0-12.73-2.41-17.69-7.24c-9.26-9.01-23.76-9.01-33.02,0
					c-4.79,4.67-11.08,7.24-17.69,7.24c-6.61,0-12.89-2.57-17.69-7.24c-9.26-9.02-23.76-9.02-33.01,0c-9.92,9.66-25.47,9.66-35.39,0
					c-9.25-9.01-23.76-9.01-33.01,0c-9.92,9.66-25.47,9.66-35.39,0c-9.25-9.01-23.75-9.01-33.01,0c-9.92,9.66-25.46,9.66-35.38,0
					c-9.26-9.01-23.76-9.01-33.02,0l-0.35,0.35l-1.19-1.22l0.36-0.35c9.92-9.66,25.46-9.66,35.38,0c9.26,9.01,23.76,9.01,33.02,0
					c9.92-9.66,25.46-9.66,35.38,0c9.26,9.01,23.76,9.01,33.01,0c9.92-9.66,25.47-9.66,35.39,0c9.25,9.01,23.76,9.01,33.01,0
					c9.92-9.66,25.47-9.66,35.39,0c9.25,9.01,23.75,9.01,33.01,0c9.92-9.66,25.46-9.66,35.38,0c9.26,9.01,23.76,9.01,33.02,0
					C333.97,214.977,349.52,214.977,359.44,224.637z"/>
				<path style="fill:#FFF6EE;" d="M359.44,204.467l0.36,0.35l-1.19,1.22l-0.36-0.35c-9.25-9.01-23.75-9.01-33.01,0
					c-9.92,9.66-25.46,9.66-35.38,0c-9.26-9.01-23.76-9.01-33.02,0c-4.79,4.67-11.08,7.25-17.69,7.25c-6.61,0-12.89-2.58-17.69-7.25
					c-9.26-9.01-23.76-9.01-33.01,0c-4.96,4.83-11.33,7.25-17.7,7.25c-6.36,0-12.73-2.42-17.69-7.25c-9.25-9.01-23.75-9.01-33.01,0
					c-9.92,9.66-25.47,9.66-35.39,0c-9.25-9.01-23.75-9.01-33.01,0c-9.92,9.66-25.46,9.66-35.38,0c-9.26-9.01-23.76-9.01-33.02,0
					l-0.35,0.35l-1.19-1.22l0.36-0.35c9.92-9.66,25.46-9.66,35.38,0c9.26,9.02,23.76,9.02,33.02,0c9.92-9.65,25.46-9.65,35.38,0
					c9.26,9.02,23.76,9.01,33.01,0c9.92-9.66,25.47-9.66,35.39,0c9.25,9.02,23.76,9.02,33.01,0c9.92-9.66,25.47-9.66,35.39,0
					c9.25,9.02,23.75,9.02,33.01,0c9.92-9.66,25.46-9.66,35.38,0c9.26,9.02,23.76,9.02,33.02,0
					C333.97,194.807,349.52,194.807,359.44,204.467z"/>
				<path style="fill:#FFF6EE;" d="M359.44,184.307l0.36,0.35l-1.19,1.22l-0.36-0.35c-9.25-9.01-23.75-9.01-33.01,0
					c-4.96,4.83-11.32,7.24-17.69,7.24s-12.73-2.41-17.69-7.24c-9.26-9.01-23.76-9.01-33.02,0c-4.79,4.67-11.08,7.24-17.69,7.24
					c-6.61,0-12.89-2.57-17.69-7.24c-9.26-9.01-23.76-9.01-33.01,0c-9.93,9.66-25.47,9.66-35.39,0c-9.25-9.01-23.75-9.01-33.01,0
					c-9.92,9.66-25.46,9.66-35.39,0c-9.25-9.01-23.75-9.01-33.01,0c-9.92,9.66-25.46,9.66-35.38,0c-9.26-9.01-23.76-9.01-33.02,0
					l-0.35,0.35l-1.19-1.22l0.36-0.35c9.92-9.66,25.46-9.66,35.38,0c9.26,9.01,23.76,9.01,33.02,0c9.92-9.66,25.46-9.66,35.38,0
					c9.26,9.01,23.76,9.01,33.01,0c9.92-9.66,25.47-9.66,35.39,0c9.25,9.01,23.76,9.01,33.01,0c9.92-9.66,25.47-9.66,35.39,0
					c9.25,9.01,23.75,9.01,33.01,0c9.92-9.66,25.46-9.66,35.38,0c9.26,9.01,23.76,9.01,33.02,0
					C333.97,174.647,349.52,174.647,359.44,184.307z"/>
				<path style="fill:#FFF6EE;" d="M-17.1,125.377l-1.19-1.22l0.36-0.35c9.92-9.65,25.46-9.66,35.38,0c9.26,9.02,23.76,9.02,33.02,0
					c9.92-9.65,25.46-9.65,35.38,0c9.26,9.02,23.76,9.02,33.01,0c9.92-9.65,25.47-9.65,35.39,0c9.25,9.02,23.76,9.02,33.01,0
					c9.92-9.66,25.47-9.66,35.39,0c9.25,9.02,23.75,9.02,33.01,0c9.92-9.66,25.46-9.66,35.38,0c9.26,9.02,23.76,9.02,33.02,0
					c9.91-9.66,25.46-9.66,35.38,0l0.36,0.35l-1.19,1.22l-0.36-0.35c-9.25-9.01-23.75-9.01-33.01,0c-9.92,9.66-25.46,9.66-35.38,0
					c-9.26-9.01-23.76-9.01-33.02,0c-4.79,4.68-11.08,7.25-17.69,7.25c-6.61,0-12.89-2.57-17.69-7.25c-9.26-9.01-23.76-9.01-33.01,0
					c-4.96,4.83-11.33,7.25-17.7,7.25c-6.36,0-12.73-2.42-17.69-7.25c-9.25-9.01-23.75-9.01-33.01,0c-9.92,9.66-25.46,9.66-35.39,0
					c-9.25-9.01-23.75-9.01-33.01,0c-9.92,9.66-25.46,9.66-35.38,0c-9.26-9.01-23.76-9.01-33.02,0L-17.1,125.377z"/>
				<path style="fill:#FFF6EE;" d="M359.44,143.977l0.36,0.35l-1.19,1.22l-0.36-0.35c-9.25-9.01-23.75-9.01-33.01,0
					c-9.92,9.66-25.46,9.66-35.38,0c-9.26-9.01-23.76-9.01-33.02,0c-4.79,4.67-11.08,7.24-17.69,7.24c-6.61,0-12.89-2.57-17.69-7.24
					c-9.26-9.01-23.76-9.01-33.01,0c-4.96,4.83-11.33,7.24-17.7,7.24c-6.36,0-12.73-2.41-17.69-7.24c-9.25-9.01-23.75-9.01-33.01,0
					c-9.92,9.66-25.47,9.66-35.39,0c-9.25-9.01-23.75-9.01-33.01,0c-9.92,9.66-25.46,9.66-35.38,0c-9.26-9.01-23.76-9.01-33.02,0
					l-0.35,0.35l-1.19-1.22l0.36-0.35c9.92-9.66,25.46-9.66,35.38,0c9.26,9.01,23.76,9.01,33.02,0c9.92-9.66,25.46-9.66,35.38,0
					c9.26,9.01,23.76,9.01,33.01,0c9.92-9.66,25.47-9.66,35.39,0c9.25,9.01,23.76,9.01,33.01,0c9.92-9.66,25.47-9.66,35.39,0
					c9.25,9.01,23.75,9.01,33.01,0c9.92-9.66,25.46-9.66,35.38,0c9.26,9.01,23.76,9.01,33.02,0
					C333.97,134.317,349.52,134.317,359.44,143.977z"/>
				<path style="fill:#FFF6EE;" d="M359.44,164.147l0.36,0.34l-1.19,1.22l-0.36-0.35c-9.25-9.01-23.75-9.01-33.01,0
					c-4.96,4.83-11.32,7.25-17.69,7.25s-12.73-2.42-17.69-7.25c-9.26-9.01-23.76-9.01-33.02,0c-4.79,4.67-11.08,7.25-17.69,7.25
					c-6.61,0-12.89-2.57-17.69-7.25c-9.26-9.01-23.76-9.01-33.01,0c-9.92,9.66-25.47,9.66-35.39,0c-9.25-9.01-23.76-9.01-33.01,0
					c-9.92,9.66-25.46,9.66-35.39,0c-9.25-9.01-23.75-9.01-33.01,0c-9.92,9.66-25.46,9.66-35.38,0c-9.26-9.01-23.76-9.01-33.02,0
					l-0.35,0.35l-1.19-1.22l0.36-0.34c9.92-9.67,25.46-9.67,35.38,0c9.26,9.01,23.76,9.01,33.02,0c9.92-9.66,25.46-9.66,35.38,0
					c9.26,9.01,23.76,9.01,33.01,0c9.92-9.67,25.47-9.67,35.39,0c9.25,9.01,23.76,9.01,33.01,0c9.92-9.67,25.46-9.66,35.39,0
					c9.25,9.01,23.75,9.01,33.01,0c9.92-9.67,25.46-9.66,35.38,0c9.26,9.01,23.76,9.01,33.02,0
					C333.98,154.477,349.52,154.477,359.44,164.147z"/>
			</g>
		</g>
		<path style="clip-path:url(#SVGID_00000101084886060945234660000005433958392103550653_);fill:#B7DBE5;" d="M311.59,418.4
			c0.66,2.42,0.66,4.97-0.03,7.39c-0.7,2.51-2.04,4.79-3.54,6.89c-1.65,2.31-3.47,4.5-5.24,6.72c-1.95,2.45-3.91,4.9-5.86,7.35
			c-3.87,4.86-7.71,9.73-11.64,14.53c-1.87,2.29-3.76,4.58-5.72,6.8c-0.97,1.08-1.96,2.14-3,3.15c-0.03,0.02-0.04,0.06-0.06,0.09
			c-2.7,3.53-6.82,5.97-11.21,6.64c-4.83,0.74-9.78-0.59-13.88-3.16c-8.98-5.66-12.81-16.5-12.86-26.72
			c-0.06-9.86,3.3-19.7,9.23-27.55c6.05-8.01,14.72-13.67,24.43-16.17c4.86-1.25,9.94-1.72,14.94-1.33
			c5.08,0.39,10.25,1.59,14.76,4.01C306.42,409.46,310.21,413.37,311.59,418.4z"/>
		<path style="clip-path:url(#SVGID_00000101084886060945234660000005433958392103550653_);fill:#CACEEB;" d="M466.94,536.96
			c0.285,0.744,1.062,4.626-0.44,2.72c-13.317,51.319-80.401,49.136-121.999,39.651c-77.843-19.179-81.567-127.196-3.979-149.961
			c37.928-10.547,77.929,11.146,99.388,42.22C455.322,489.518,469.562,512.399,466.94,536.96z"/>
		<path style="clip-path:url(#SVGID_00000101084886060945234660000005433958392103550653_);fill:#FADEDA;" d="M71.66,157
			c0.603,48.85-54.215,86.197-36.588,136.92c17.491,54.391-8.287,106.569-69.134,107.45
			c-80.284-3.096-112.848-95.416-101.165-164.32c7.128-53.071,20.35-114.222,68.677-144.94c29.738-20.174,69.31-16.304,97.7,4.432
			C51.643,110.218,70.817,131.14,71.66,157z"/>
		<path style="clip-path:url(#SVGID_00000101084886060945234660000005433958392103550653_);fill:#FADEDA;" d="M828.27,442.37
			c-31.761,103.494-136.525,173.172-243.271,173.038c-74.857,2.127-187.011-29.57-182.131-121.919
			c2.383-23.914,17.345-46.48,40.062-55.399c50.807-21.111,113.589,14.851,159.08-23.25c37.474-32.637,36.441-88.478,65.909-126.21
			c32.115-39.759,95.83-36.954,130.571-2.088C840.521,325.838,845.477,390.07,828.27,442.37z"/>
		
			<circle style="clip-path:url(#SVGID_00000101084886060945234660000005433958392103550653_);fill:#FFE8D7;" cx="600.772" cy="415.472" r="112.587"/>
		
			<circle style="clip-path:url(#SVGID_00000101084886060945234660000005433958392103550653_);fill:#B7DBE5;" cx="332.336" cy="404.525" r="10.946"/>
		
			<circle style="clip-path:url(#SVGID_00000101084886060945234660000005433958392103550653_);fill:#B7DBE5;" cx="560.99" cy="141.821" r="37.807"/>
		<g style="clip-path:url(#SVGID_00000101084886060945234660000005433958392103550653_);">
			<g>
				<path style="fill:#F4BDC2;" d="M83.534,300.625c-19.537,0-35.431-15.893-35.431-35.43s15.894-35.431,35.431-35.431
					s35.431,15.894,35.431,35.431S103.071,300.625,83.534,300.625z M83.534,240.944c-13.372,0-24.251,10.878-24.251,24.251
					c0,13.371,10.879,24.251,24.251,24.251s24.251-10.88,24.251-24.251C107.785,251.823,96.906,240.944,83.534,240.944z"/>
			</g>
			<g>
				<path style="fill:#F4BDC2;" d="M708.332,35.431c-19.537,0-35.43-15.894-35.43-35.431s15.893-35.431,35.43-35.431
					S743.762-19.537,743.762,0S727.868,35.431,708.332,35.431z M708.332-24.251c-13.371,0-24.251,10.879-24.251,24.251
					s10.88,24.251,24.251,24.251c13.371,0,24.251-10.879,24.251-24.251S721.703-24.251,708.332-24.251z"/>
			</g>
			<g>
				<path style="fill:#FFF6EE;" d="M356.234,535.43c-19.537,0-35.431-15.893-35.431-35.43c0-19.537,15.894-35.43,35.431-35.43
					s35.43,15.893,35.43,35.43C391.665,519.537,375.771,535.43,356.234,535.43z M356.234,475.749
					c-13.372,0-24.251,10.88-24.251,24.251c0,13.371,10.879,24.251,24.251,24.251s24.251-10.88,24.251-24.251
					C380.485,486.629,369.606,475.749,356.234,475.749z"/>
			</g>
			<g>
				<path style="fill:#B7DBE5;" d="M750,343.995c-15.039,0-27.273-12.235-27.273-27.274s12.234-27.274,27.273-27.274
					s27.273,12.235,27.273,27.274S765.039,343.995,750,343.995z M750,298.052c-10.293,0-18.668,8.375-18.668,18.668
					s8.375,18.668,18.668,18.668s18.668-8.375,18.668-18.668S760.293,298.052,750,298.052z"/>
			</g>
		</g>
		<g style="clip-path:url(#SVGID_00000101084886060945234660000005433958392103550653_);">
			<defs>
				<circle id="SVGID_00000114769647114695917120000006490374952434575243_" cx="600.772" cy="415.472" r="112.587"/>
			</defs>
			<clipPath id="SVGID_00000150093822653682303880000011047536617453834641_">
				<use xlink:href="#SVGID_00000114769647114695917120000006490374952434575243_"  style="overflow:visible;"/>
			</clipPath>
			<g style="clip-path:url(#SVGID_00000150093822653682303880000011047536617453834641_);">
				<g>
					<g>
						<path style="fill:#FFF6EE;" d="M796.51,459.45l0.36,0.35l-1.19,1.22l-0.36-0.35c-9.25-9.01-23.75-9.01-33.01,0
							c-4.96,4.83-11.33,7.24-17.69,7.24c-6.37,0-12.73-2.41-17.69-7.24c-9.26-9.01-23.76-9.01-33.02,0
							c-4.79,4.67-11.08,7.24-17.69,7.24c-6.61,0-12.89-2.57-17.69-7.24c-9.26-9.02-23.76-9.02-33.01,0
							c-9.92,9.66-25.47,9.66-35.39,0c-9.25-9.01-23.76-9.01-33.01,0c-9.92,9.66-25.47,9.66-35.39,0c-9.25-9.01-23.75-9.01-33.01,0
							c-9.92,9.66-25.46,9.66-35.38,0c-9.26-9.01-23.76-9.01-33.02,0l-0.35,0.35l-1.19-1.22l0.36-0.35c9.92-9.66,25.46-9.66,35.38,0
							c9.26,9.01,23.76,9.01,33.02,0c9.92-9.66,25.46-9.66,35.38,0c9.26,9.01,23.76,9.01,33.01,0c9.92-9.66,25.47-9.66,35.39,0
							c9.25,9.01,23.76,9.01,33.01,0c9.92-9.66,25.47-9.66,35.39,0c9.25,9.01,23.75,9.01,33.01,0c9.92-9.66,25.46-9.66,35.38,0
							c9.26,9.01,23.76,9.01,33.02,0C771.04,449.79,786.59,449.79,796.51,459.45z"/>
						<path style="fill:#FFF6EE;" d="M796.51,439.28l0.36,0.35l-1.19,1.22l-0.36-0.35c-9.25-9.01-23.75-9.01-33.01,0
							c-9.92,9.66-25.46,9.66-35.38,0c-9.26-9.01-23.76-9.01-33.02,0c-4.79,4.67-11.08,7.25-17.69,7.25
							c-6.61,0-12.89-2.58-17.69-7.25c-9.26-9.01-23.76-9.01-33.01,0c-4.96,4.83-11.33,7.25-17.7,7.25
							c-6.36,0-12.73-2.42-17.69-7.25c-9.25-9.01-23.75-9.01-33.01,0c-9.92,9.66-25.47,9.66-35.39,0c-9.25-9.01-23.75-9.01-33.01,0
							c-9.92,9.66-25.46,9.66-35.38,0c-9.26-9.01-23.76-9.01-33.02,0l-0.35,0.35l-1.19-1.22l0.36-0.35c9.92-9.66,25.46-9.66,35.38,0
							c9.26,9.02,23.76,9.02,33.02,0c9.92-9.65,25.46-9.65,35.38,0c9.26,9.02,23.76,9.01,33.01,0c9.92-9.66,25.47-9.66,35.39,0
							c9.25,9.02,23.76,9.02,33.01,0c9.92-9.66,25.47-9.66,35.39,0c9.25,9.02,23.75,9.02,33.01,0c9.92-9.66,25.46-9.66,35.38,0
							c9.26,9.02,23.76,9.02,33.02,0C771.04,429.62,786.59,429.62,796.51,439.28z"/>
						<path style="fill:#FFF6EE;" d="M796.51,419.12l0.36,0.35l-1.19,1.22l-0.36-0.35c-9.25-9.01-23.75-9.01-33.01,0
							c-4.96,4.83-11.32,7.24-17.69,7.24s-12.73-2.41-17.69-7.24c-9.26-9.01-23.76-9.01-33.02,0c-4.79,4.67-11.08,7.24-17.69,7.24
							c-6.61,0-12.89-2.57-17.69-7.24c-9.26-9.01-23.76-9.01-33.01,0c-9.93,9.66-25.47,9.66-35.39,0c-9.25-9.01-23.75-9.01-33.01,0
							c-9.92,9.66-25.46,9.66-35.39,0c-9.25-9.01-23.75-9.01-33.01,0c-9.92,9.66-25.46,9.66-35.38,0c-9.26-9.01-23.76-9.01-33.02,0
							l-0.35,0.35l-1.19-1.22l0.36-0.35c9.92-9.66,25.46-9.66,35.38,0c9.26,9.01,23.76,9.01,33.02,0c9.92-9.66,25.46-9.66,35.38,0
							c9.26,9.01,23.76,9.01,33.01,0c9.92-9.66,25.47-9.66,35.39,0c9.25,9.01,23.76,9.01,33.01,0c9.92-9.66,25.47-9.66,35.39,0
							c9.25,9.01,23.75,9.01,33.01,0c9.92-9.66,25.46-9.66,35.38,0c9.26,9.01,23.76,9.01,33.02,0
							C771.04,409.46,786.59,409.46,796.51,419.12z"/>
						<path style="fill:#FFF6EE;" d="M419.97,360.19l-1.19-1.22l0.36-0.35c9.92-9.65,25.46-9.66,35.38,0
							c9.26,9.02,23.76,9.02,33.02,0c9.92-9.65,25.46-9.65,35.38,0c9.26,9.02,23.76,9.02,33.01,0c9.92-9.65,25.47-9.65,35.39,0
							c9.25,9.02,23.76,9.02,33.01,0c9.92-9.66,25.47-9.66,35.39,0c9.25,9.02,23.75,9.02,33.01,0c9.92-9.66,25.46-9.66,35.38,0
							c9.26,9.02,23.76,9.02,33.02,0c9.91-9.66,25.46-9.66,35.38,0l0.36,0.35l-1.19,1.22l-0.36-0.35c-9.25-9.01-23.75-9.01-33.01,0
							c-9.92,9.66-25.46,9.66-35.38,0c-9.26-9.01-23.76-9.01-33.02,0c-4.79,4.68-11.08,7.25-17.69,7.25
							c-6.61,0-12.89-2.57-17.69-7.25c-9.26-9.01-23.76-9.01-33.01,0c-4.96,4.83-11.33,7.25-17.7,7.25
							c-6.36,0-12.73-2.42-17.69-7.25c-9.25-9.01-23.75-9.01-33.01,0c-9.92,9.66-25.46,9.66-35.39,0c-9.25-9.01-23.75-9.01-33.01,0
							c-9.92,9.66-25.46,9.66-35.38,0c-9.26-9.01-23.76-9.01-33.02,0L419.97,360.19z"/>
						<path style="fill:#FFF6EE;" d="M796.51,378.79l0.36,0.35l-1.19,1.22l-0.36-0.35c-9.25-9.01-23.75-9.01-33.01,0
							c-9.92,9.66-25.46,9.66-35.38,0c-9.26-9.01-23.76-9.01-33.02,0c-4.79,4.67-11.08,7.24-17.69,7.24
							c-6.61,0-12.89-2.57-17.69-7.24c-9.26-9.01-23.76-9.01-33.01,0c-4.96,4.83-11.33,7.24-17.7,7.24
							c-6.36,0-12.73-2.41-17.69-7.24c-9.25-9.01-23.75-9.01-33.01,0c-9.92,9.66-25.47,9.66-35.39,0c-9.25-9.01-23.75-9.01-33.01,0
							c-9.92,9.66-25.46,9.66-35.38,0c-9.26-9.01-23.76-9.01-33.02,0l-0.35,0.35l-1.19-1.22l0.36-0.35c9.92-9.66,25.46-9.66,35.38,0
							c9.26,9.01,23.76,9.01,33.02,0c9.92-9.66,25.46-9.66,35.38,0c9.26,9.01,23.76,9.01,33.01,0c9.92-9.66,25.47-9.66,35.39,0
							c9.25,9.01,23.76,9.01,33.01,0c9.92-9.66,25.47-9.66,35.39,0c9.25,9.01,23.75,9.01,33.01,0c9.92-9.66,25.46-9.66,35.38,0
							c9.26,9.01,23.76,9.01,33.02,0C771.04,369.13,786.59,369.13,796.51,378.79z"/>
						<path style="fill:#FFF6EE;" d="M796.51,398.96l0.36,0.34l-1.19,1.22l-0.36-0.35c-9.25-9.01-23.75-9.01-33.01,0
							c-4.96,4.83-11.32,7.25-17.69,7.25s-12.73-2.42-17.69-7.25c-9.26-9.01-23.76-9.01-33.02,0c-4.79,4.67-11.08,7.25-17.69,7.25
							c-6.61,0-12.89-2.57-17.69-7.25c-9.26-9.01-23.76-9.01-33.01,0c-9.92,9.66-25.47,9.66-35.39,0c-9.25-9.01-23.76-9.01-33.01,0
							c-9.92,9.66-25.46,9.66-35.39,0c-9.25-9.01-23.75-9.01-33.01,0c-9.92,9.66-25.46,9.66-35.38,0c-9.26-9.01-23.76-9.01-33.02,0
							l-0.35,0.35l-1.19-1.22l0.36-0.34c9.92-9.67,25.46-9.67,35.38,0c9.26,9.01,23.76,9.01,33.02,0c9.92-9.66,25.46-9.66,35.38,0
							c9.26,9.01,23.76,9.01,33.01,0c9.92-9.67,25.47-9.67,35.39,0c9.25,9.01,23.76,9.01,33.01,0c9.92-9.67,25.46-9.66,35.39,0
							c9.25,9.01,23.75,9.01,33.01,0c9.92-9.67,25.46-9.66,35.38,0c9.26,9.01,23.76,9.01,33.02,0
							C771.05,389.29,786.59,389.29,796.51,398.96z"/>
					</g>
				</g>
			</g>
		</g>
		<path style="clip-path:url(#SVGID_00000101084886060945234660000005433958392103550653_);fill:#B7DBE5;" d="M656.056,33.764
			c-3.42,16.88-12.93,31.97-26.43,42.62c-6.37,5.02-13.52,9.03-21.16,11.78c-8.71,3.13-17.78,4.22-27,4.42
			c-10.6,0.22-21.3-0.48-31.82,1.24c-9.71,1.59-18.64,5.64-27.02,10.68c-16.47,9.92-31.31,23.36-50.3,28.37
			c-8.96,2.36-18.31,2.36-27.09-0.74c-8.35-2.95-15.71-8.16-22.3-14c-14.09-12.5-25.03-28.84-41.86-38.04
			c-15.71-8.59-34.8-10.65-47.57-24.22c-8.79-9.35-13.35-21.83-14.6-34.49c-0.22-1.07-0.42-2.15-0.59-3.24
			c-2.96-19.21,1.67-39,9.74-56.43c7.49-16.18,18.71-31.16,34-40.67c15.15-9.44,34.03-13.25,51.3-7.87
			c15.77,4.91,28.56,15.96,41.84,25.3c6.83,4.8,13.94,9.34,21.73,12.43c8.49,3.37,17.58,4.7,26.69,4.56
			c18.99-0.29,37.33-6.15,55.91-9.39c9.07-1.58,18.3-2.6,27.52-2.05c8.42,0.51,16.68,2.44,24.45,5.71
			c15.15,6.38,28.29,17.67,36.45,31.98C656.856-2.676,659.606,16.194,656.056,33.764z"/>
		
			<circle style="clip-path:url(#SVGID_00000101084886060945234660000005433958392103550653_);fill:#FADEDA;" cx="322.169" cy="-0.152" r="41.978"/>
	</g>
	<g>
		<path style="fill:#B7DBE5;" d="M25.548,480.02c0,1.058-0.884,1.916-1.974,1.916s-1.974-0.858-1.974-1.916
			c0-1.058,0.884-1.916,1.974-1.916S25.548,478.962,25.548,480.02z"/>
		<path style="fill:#B7DBE5;" d="M41.339,480.02c0,1.058-0.884,1.916-1.974,1.916c-1.09,0-1.974-0.858-1.974-1.916
			c0-1.058,0.884-1.916,1.974-1.916C40.455,478.104,41.339,478.962,41.339,480.02z"/>
		<path style="fill:#B7DBE5;" d="M57.13,480.02c0,1.058-0.884,1.916-1.974,1.916c-1.09,0-1.974-0.858-1.974-1.916
			c0-1.058,0.884-1.916,1.974-1.916C56.246,478.104,57.13,478.962,57.13,480.02z"/>
		<path style="fill:#B7DBE5;" d="M72.921,480.02c0,1.058-0.884,1.916-1.974,1.916c-1.09,0-1.974-0.858-1.974-1.916
			c0-1.058,0.884-1.916,1.974-1.916C72.037,478.104,72.921,478.962,72.921,480.02z"/>
		<path style="fill:#B7DBE5;" d="M88.711,480.02c0,1.058-0.884,1.916-1.974,1.916c-1.09,0-1.974-0.858-1.974-1.916
			c0-1.058,0.884-1.916,1.974-1.916C87.828,478.104,88.711,478.962,88.711,480.02z"/>
		<path style="fill:#B7DBE5;" d="M104.502,480.02c0,1.058-0.884,1.916-1.974,1.916s-1.974-0.858-1.974-1.916
			c0-1.058,0.884-1.916,1.974-1.916S104.502,478.962,104.502,480.02z"/>
		<path style="fill:#B7DBE5;" d="M25.548,466.765c0,1.058-0.884,1.916-1.974,1.916s-1.974-0.858-1.974-1.916
			c0-1.058,0.884-1.916,1.974-1.916S25.548,465.706,25.548,466.765z"/>
		<path style="fill:#B7DBE5;" d="M41.339,466.765c0,1.058-0.884,1.916-1.974,1.916c-1.09,0-1.974-0.858-1.974-1.916
			c0-1.058,0.884-1.916,1.974-1.916C40.455,464.849,41.339,465.706,41.339,466.765z"/>
		<path style="fill:#B7DBE5;" d="M57.13,466.765c0,1.058-0.884,1.916-1.974,1.916c-1.09,0-1.974-0.858-1.974-1.916
			c0-1.058,0.884-1.916,1.974-1.916C56.246,464.849,57.13,465.706,57.13,466.765z"/>
		<path style="fill:#B7DBE5;" d="M72.921,466.765c0,1.058-0.884,1.916-1.974,1.916c-1.09,0-1.974-0.858-1.974-1.916
			c0-1.058,0.884-1.916,1.974-1.916C72.037,464.849,72.921,465.706,72.921,466.765z"/>
		<path style="fill:#B7DBE5;" d="M88.711,466.765c0,1.058-0.884,1.916-1.974,1.916c-1.09,0-1.974-0.858-1.974-1.916
			c0-1.058,0.884-1.916,1.974-1.916C87.828,464.849,88.711,465.706,88.711,466.765z"/>
		<path style="fill:#B7DBE5;" d="M104.502,466.765c0,1.058-0.884,1.916-1.974,1.916s-1.974-0.858-1.974-1.916
			c0-1.058,0.884-1.916,1.974-1.916S104.502,465.706,104.502,466.765z"/>
		<path style="fill:#B7DBE5;" d="M25.548,453.525c0,1.058-0.884,1.916-1.974,1.916s-1.974-0.858-1.974-1.916
			c0-1.058,0.884-1.916,1.974-1.916S25.548,452.467,25.548,453.525z"/>
		<path style="fill:#B7DBE5;" d="M41.339,453.525c0,1.058-0.884,1.916-1.974,1.916c-1.09,0-1.974-0.858-1.974-1.916
			c0-1.058,0.884-1.916,1.974-1.916C40.455,451.609,41.339,452.467,41.339,453.525z"/>
		<path style="fill:#B7DBE5;" d="M57.13,453.525c0,1.058-0.884,1.916-1.974,1.916c-1.09,0-1.974-0.858-1.974-1.916
			c0-1.058,0.884-1.916,1.974-1.916C56.246,451.609,57.13,452.467,57.13,453.525z"/>
		<path style="fill:#B7DBE5;" d="M72.921,453.525c0,1.058-0.884,1.916-1.974,1.916c-1.09,0-1.974-0.858-1.974-1.916
			c0-1.058,0.884-1.916,1.974-1.916C72.037,451.609,72.921,452.467,72.921,453.525z"/>
		<path style="fill:#B7DBE5;" d="M88.711,453.525c0,1.058-0.884,1.916-1.974,1.916c-1.09,0-1.974-0.858-1.974-1.916
			c0-1.058,0.884-1.916,1.974-1.916C87.828,451.609,88.711,452.467,88.711,453.525z"/>
		<path style="fill:#B7DBE5;" d="M104.502,453.525c0,1.058-0.884,1.916-1.974,1.916s-1.974-0.858-1.974-1.916
			c0-1.058,0.884-1.916,1.974-1.916S104.502,452.467,104.502,453.525z"/>
		<path style="fill:#B7DBE5;" d="M25.548,440.27c0,1.058-0.884,1.916-1.974,1.916s-1.974-0.858-1.974-1.916
			c0-1.058,0.884-1.916,1.974-1.916S25.548,439.212,25.548,440.27z"/>
		<path style="fill:#B7DBE5;" d="M41.339,440.27c0,1.058-0.884,1.916-1.974,1.916c-1.09,0-1.974-0.858-1.974-1.916
			c0-1.058,0.884-1.916,1.974-1.916C40.455,438.354,41.339,439.212,41.339,440.27z"/>
		<path style="fill:#B7DBE5;" d="M57.13,440.27c0,1.058-0.884,1.916-1.974,1.916c-1.09,0-1.974-0.858-1.974-1.916
			c0-1.058,0.884-1.916,1.974-1.916C56.246,438.354,57.13,439.212,57.13,440.27z"/>
		<path style="fill:#B7DBE5;" d="M72.921,440.27c0,1.058-0.884,1.916-1.974,1.916c-1.09,0-1.974-0.858-1.974-1.916
			c0-1.058,0.884-1.916,1.974-1.916C72.037,438.354,72.921,439.212,72.921,440.27z"/>
		<path style="fill:#B7DBE5;" d="M88.711,440.27c0,1.058-0.884,1.916-1.974,1.916c-1.09,0-1.974-0.858-1.974-1.916
			c0-1.058,0.884-1.916,1.974-1.916C87.828,438.354,88.711,439.212,88.711,440.27z"/>
		<path style="fill:#B7DBE5;" d="M104.502,440.27c0,1.058-0.884,1.916-1.974,1.916s-1.974-0.858-1.974-1.916
			c0-1.058,0.884-1.916,1.974-1.916S104.502,439.212,104.502,440.27z"/>
		<path style="fill:#B7DBE5;" d="M120.484,480.667c0,1.058-0.884,1.916-1.974,1.916s-1.974-0.858-1.974-1.916
			c0-1.058,0.884-1.916,1.974-1.916S120.484,479.609,120.484,480.667z"/>
		<path style="fill:#B7DBE5;" d="M136.275,480.667c0,1.058-0.884,1.916-1.974,1.916c-1.09,0-1.974-0.858-1.974-1.916
			c0-1.058,0.884-1.916,1.974-1.916C135.391,478.751,136.275,479.609,136.275,480.667z"/>
		<path style="fill:#B7DBE5;" d="M152.066,480.667c0,1.058-0.884,1.916-1.974,1.916c-1.09,0-1.974-0.858-1.974-1.916
			c0-1.058,0.884-1.916,1.974-1.916C151.182,478.751,152.066,479.609,152.066,480.667z"/>
		<path style="fill:#B7DBE5;" d="M167.857,480.667c0,1.058-0.884,1.916-1.974,1.916s-1.974-0.858-1.974-1.916
			c0-1.058,0.884-1.916,1.974-1.916S167.857,479.609,167.857,480.667z"/>
		<path style="fill:#B7DBE5;" d="M183.647,480.667c0,1.058-0.884,1.916-1.974,1.916c-1.09,0-1.974-0.858-1.974-1.916
			c0-1.058,0.884-1.916,1.974-1.916C182.764,478.751,183.647,479.609,183.647,480.667z"/>
		<path style="fill:#B7DBE5;" d="M199.438,480.667c0,1.058-0.884,1.916-1.974,1.916c-1.09,0-1.974-0.858-1.974-1.916
			c0-1.058,0.884-1.916,1.974-1.916C198.555,478.751,199.438,479.609,199.438,480.667z"/>
		<path style="fill:#B7DBE5;" d="M120.484,467.412c0,1.058-0.884,1.916-1.974,1.916s-1.974-0.858-1.974-1.916
			c0-1.058,0.884-1.916,1.974-1.916S120.484,466.354,120.484,467.412z"/>
		<path style="fill:#B7DBE5;" d="M136.275,467.412c0,1.058-0.884,1.916-1.974,1.916c-1.09,0-1.974-0.858-1.974-1.916
			c0-1.058,0.884-1.916,1.974-1.916C135.391,465.496,136.275,466.354,136.275,467.412z"/>
		<path style="fill:#B7DBE5;" d="M152.066,467.412c0,1.058-0.884,1.916-1.974,1.916c-1.09,0-1.974-0.858-1.974-1.916
			c0-1.058,0.884-1.916,1.974-1.916C151.182,465.496,152.066,466.354,152.066,467.412z"/>
		<path style="fill:#B7DBE5;" d="M167.857,467.412c0,1.058-0.884,1.916-1.974,1.916s-1.974-0.858-1.974-1.916
			c0-1.058,0.884-1.916,1.974-1.916S167.857,466.354,167.857,467.412z"/>
		<path style="fill:#B7DBE5;" d="M183.647,467.412c0,1.058-0.884,1.916-1.974,1.916c-1.09,0-1.974-0.858-1.974-1.916
			c0-1.058,0.884-1.916,1.974-1.916C182.764,465.496,183.647,466.354,183.647,467.412z"/>
		<path style="fill:#B7DBE5;" d="M199.438,467.412c0,1.058-0.884,1.916-1.974,1.916c-1.09,0-1.974-0.858-1.974-1.916
			c0-1.058,0.884-1.916,1.974-1.916C198.555,465.496,199.438,466.354,199.438,467.412z"/>
		<path style="fill:#B7DBE5;" d="M120.484,454.172c0,1.058-0.884,1.916-1.974,1.916s-1.974-0.858-1.974-1.916
			c0-1.058,0.884-1.916,1.974-1.916S120.484,453.114,120.484,454.172z"/>
		<path style="fill:#B7DBE5;" d="M136.275,454.172c0,1.058-0.884,1.916-1.974,1.916c-1.09,0-1.974-0.858-1.974-1.916
			c0-1.058,0.884-1.916,1.974-1.916C135.391,452.256,136.275,453.114,136.275,454.172z"/>
		<path style="fill:#B7DBE5;" d="M152.066,454.172c0,1.058-0.884,1.916-1.974,1.916c-1.09,0-1.974-0.858-1.974-1.916
			c0-1.058,0.884-1.916,1.974-1.916C151.182,452.256,152.066,453.114,152.066,454.172z"/>
		<path style="fill:#B7DBE5;" d="M167.857,454.172c0,1.058-0.884,1.916-1.974,1.916s-1.974-0.858-1.974-1.916
			c0-1.058,0.884-1.916,1.974-1.916S167.857,453.114,167.857,454.172z"/>
		<path style="fill:#B7DBE5;" d="M183.647,454.172c0,1.058-0.884,1.916-1.974,1.916c-1.09,0-1.974-0.858-1.974-1.916
			c0-1.058,0.884-1.916,1.974-1.916C182.764,452.256,183.647,453.114,183.647,454.172z"/>
		<path style="fill:#B7DBE5;" d="M199.438,454.172c0,1.058-0.884,1.916-1.974,1.916c-1.09,0-1.974-0.858-1.974-1.916
			c0-1.058,0.884-1.916,1.974-1.916C198.555,452.256,199.438,453.114,199.438,454.172z"/>
		<path style="fill:#B7DBE5;" d="M120.484,440.917c0,1.058-0.884,1.916-1.974,1.916s-1.974-0.858-1.974-1.916
			c0-1.058,0.884-1.916,1.974-1.916S120.484,439.859,120.484,440.917z"/>
		<path style="fill:#B7DBE5;" d="M136.275,440.917c0,1.058-0.884,1.916-1.974,1.916c-1.09,0-1.974-0.858-1.974-1.916
			c0-1.058,0.884-1.916,1.974-1.916C135.391,439.001,136.275,439.859,136.275,440.917z"/>
		<path style="fill:#B7DBE5;" d="M152.066,440.917c0,1.058-0.884,1.916-1.974,1.916c-1.09,0-1.974-0.858-1.974-1.916
			c0-1.058,0.884-1.916,1.974-1.916C151.182,439.001,152.066,439.859,152.066,440.917z"/>
		<path style="fill:#B7DBE5;" d="M167.857,440.917c0,1.058-0.884,1.916-1.974,1.916s-1.974-0.858-1.974-1.916
			c0-1.058,0.884-1.916,1.974-1.916S167.857,439.859,167.857,440.917z"/>
		<path style="fill:#B7DBE5;" d="M183.647,440.917c0,1.058-0.884,1.916-1.974,1.916c-1.09,0-1.974-0.858-1.974-1.916
			c0-1.058,0.884-1.916,1.974-1.916C182.764,439.001,183.647,439.859,183.647,440.917z"/>
		<path style="fill:#B7DBE5;" d="M199.438,440.917c0,1.058-0.884,1.916-1.974,1.916c-1.09,0-1.974-0.858-1.974-1.916
			c0-1.058,0.884-1.916,1.974-1.916C198.555,439.001,199.438,439.859,199.438,440.917z"/>
		<g>
			<path style="fill:#F4BDC2;" d="M693.808,66.815c-1.058,0-1.916-0.884-1.916-1.974s0.858-1.974,1.916-1.974
				s1.916,0.884,1.916,1.974S694.866,66.815,693.808,66.815z"/>
			<path style="fill:#F4BDC2;" d="M693.808,82.606c-1.058,0-1.916-0.884-1.916-1.974s0.858-1.974,1.916-1.974
				s1.916,0.884,1.916,1.974S694.866,82.606,693.808,82.606z"/>
			<path style="fill:#F4BDC2;" d="M693.808,98.397c-1.058,0-1.916-0.884-1.916-1.974c0-1.09,0.858-1.974,1.916-1.974
				s1.916,0.884,1.916,1.974C695.724,97.513,694.866,98.397,693.808,98.397z"/>
			<path style="fill:#F4BDC2;" d="M693.808,114.187c-1.058,0-1.916-0.884-1.916-1.974c0-1.09,0.858-1.974,1.916-1.974
				s1.916,0.884,1.916,1.974C695.724,113.304,694.866,114.187,693.808,114.187z"/>
			<path style="fill:#F4BDC2;" d="M693.808,129.978c-1.058,0-1.916-0.884-1.916-1.974c0-1.09,0.858-1.974,1.916-1.974
				s1.916,0.884,1.916,1.974C695.724,129.095,694.866,129.978,693.808,129.978z"/>
			<path style="fill:#F4BDC2;" d="M693.808,145.769c-1.058,0-1.916-0.884-1.916-1.974c0-1.09,0.858-1.974,1.916-1.974
				s1.916,0.884,1.916,1.974C695.724,144.885,694.866,145.769,693.808,145.769z"/>
			<path style="fill:#F4BDC2;" d="M707.063,66.815c-1.058,0-1.916-0.884-1.916-1.974s0.858-1.974,1.916-1.974
				s1.916,0.884,1.916,1.974S708.121,66.815,707.063,66.815z"/>
			<path style="fill:#F4BDC2;" d="M707.063,82.606c-1.058,0-1.916-0.884-1.916-1.974s0.858-1.974,1.916-1.974
				s1.916,0.884,1.916,1.974S708.121,82.606,707.063,82.606z"/>
			<path style="fill:#F4BDC2;" d="M707.063,98.397c-1.058,0-1.916-0.884-1.916-1.974c0-1.09,0.858-1.974,1.916-1.974
				s1.916,0.884,1.916,1.974C708.979,97.513,708.121,98.397,707.063,98.397z"/>
			<path style="fill:#F4BDC2;" d="M707.063,114.187c-1.058,0-1.916-0.884-1.916-1.974c0-1.09,0.858-1.974,1.916-1.974
				s1.916,0.884,1.916,1.974C708.979,113.304,708.121,114.187,707.063,114.187z"/>
			<path style="fill:#F4BDC2;" d="M707.063,129.978c-1.058,0-1.916-0.884-1.916-1.974c0-1.09,0.858-1.974,1.916-1.974
				s1.916,0.884,1.916,1.974C708.979,129.095,708.121,129.978,707.063,129.978z"/>
			<path style="fill:#F4BDC2;" d="M707.063,145.769c-1.058,0-1.916-0.884-1.916-1.974c0-1.09,0.858-1.974,1.916-1.974
				s1.916,0.884,1.916,1.974C708.979,144.885,708.121,145.769,707.063,145.769z"/>
			<path style="fill:#F4BDC2;" d="M720.302,66.815c-1.058,0-1.916-0.884-1.916-1.974s0.858-1.974,1.916-1.974
				c1.058,0,1.916,0.884,1.916,1.974S721.361,66.815,720.302,66.815z"/>
			<path style="fill:#F4BDC2;" d="M720.302,82.606c-1.058,0-1.916-0.884-1.916-1.974s0.858-1.974,1.916-1.974
				c1.058,0,1.916,0.884,1.916,1.974S721.361,82.606,720.302,82.606z"/>
			<path style="fill:#F4BDC2;" d="M720.302,98.397c-1.058,0-1.916-0.884-1.916-1.974c0-1.09,0.858-1.974,1.916-1.974
				c1.058,0,1.916,0.884,1.916,1.974C722.219,97.513,721.361,98.397,720.302,98.397z"/>
			<path style="fill:#F4BDC2;" d="M720.302,114.187c-1.058,0-1.916-0.884-1.916-1.974c0-1.09,0.858-1.974,1.916-1.974
				c1.058,0,1.916,0.884,1.916,1.974C722.219,113.304,721.361,114.187,720.302,114.187z"/>
			<path style="fill:#F4BDC2;" d="M720.302,129.978c-1.058,0-1.916-0.884-1.916-1.974c0-1.09,0.858-1.974,1.916-1.974
				c1.058,0,1.916,0.884,1.916,1.974C722.219,129.095,721.361,129.978,720.302,129.978z"/>
			<path style="fill:#F4BDC2;" d="M720.302,145.769c-1.058,0-1.916-0.884-1.916-1.974c0-1.09,0.858-1.974,1.916-1.974
				c1.058,0,1.916,0.884,1.916,1.974C722.219,144.885,721.361,145.769,720.302,145.769z"/>
			<path style="fill:#F4BDC2;" d="M733.558,66.815c-1.058,0-1.916-0.884-1.916-1.974s0.858-1.974,1.916-1.974
				c1.058,0,1.916,0.884,1.916,1.974S734.616,66.815,733.558,66.815z"/>
			<path style="fill:#F4BDC2;" d="M733.558,82.606c-1.058,0-1.916-0.884-1.916-1.974s0.858-1.974,1.916-1.974
				c1.058,0,1.916,0.884,1.916,1.974S734.616,82.606,733.558,82.606z"/>
			<path style="fill:#F4BDC2;" d="M733.558,98.397c-1.058,0-1.916-0.884-1.916-1.974c0-1.09,0.858-1.974,1.916-1.974
				c1.058,0,1.916,0.884,1.916,1.974C735.474,97.513,734.616,98.397,733.558,98.397z"/>
			<path style="fill:#F4BDC2;" d="M733.558,114.187c-1.058,0-1.916-0.884-1.916-1.974c0-1.09,0.858-1.974,1.916-1.974
				c1.058,0,1.916,0.884,1.916,1.974C735.474,113.304,734.616,114.187,733.558,114.187z"/>
			<path style="fill:#F4BDC2;" d="M733.558,129.978c-1.058,0-1.916-0.884-1.916-1.974c0-1.09,0.858-1.974,1.916-1.974
				c1.058,0,1.916,0.884,1.916,1.974C735.474,129.095,734.616,129.978,733.558,129.978z"/>
			<path style="fill:#F4BDC2;" d="M733.558,145.769c-1.058,0-1.916-0.884-1.916-1.974c0-1.09,0.858-1.974,1.916-1.974
				c1.058,0,1.916,0.884,1.916,1.974C735.474,144.885,734.616,145.769,733.558,145.769z"/>
			<path style="fill:#F4BDC2;" d="M693.161,161.751c-1.058,0-1.916-0.884-1.916-1.974c0-1.09,0.858-1.974,1.916-1.974
				c1.058,0,1.916,0.884,1.916,1.974C695.077,160.867,694.219,161.751,693.161,161.751z"/>
			<path style="fill:#F4BDC2;" d="M693.161,177.542c-1.058,0-1.916-0.884-1.916-1.974c0-1.09,0.858-1.974,1.916-1.974
				c1.058,0,1.916,0.884,1.916,1.974C695.077,176.658,694.219,177.542,693.161,177.542z"/>
			<path style="fill:#F4BDC2;" d="M693.161,193.333c-1.058,0-1.916-0.884-1.916-1.974s0.858-1.974,1.916-1.974
				c1.058,0,1.916,0.884,1.916,1.974S694.219,193.333,693.161,193.333z"/>
			<path style="fill:#F4BDC2;" d="M693.161,209.123c-1.058,0-1.916-0.884-1.916-1.974c0-1.09,0.858-1.974,1.916-1.974
				c1.058,0,1.916,0.884,1.916,1.974C695.077,208.24,694.219,209.123,693.161,209.123z"/>
			<path style="fill:#F4BDC2;" d="M693.161,224.914c-1.058,0-1.916-0.884-1.916-1.974c0-1.09,0.858-1.974,1.916-1.974
				c1.058,0,1.916,0.884,1.916,1.974C695.077,224.031,694.219,224.914,693.161,224.914z"/>
			<path style="fill:#F4BDC2;" d="M693.161,240.705c-1.058,0-1.916-0.884-1.916-1.974c0-1.09,0.858-1.974,1.916-1.974
				c1.058,0,1.916,0.884,1.916,1.974C695.077,239.821,694.219,240.705,693.161,240.705z"/>
			<path style="fill:#F4BDC2;" d="M706.416,161.751c-1.058,0-1.916-0.884-1.916-1.974c0-1.09,0.858-1.974,1.916-1.974
				c1.058,0,1.916,0.884,1.916,1.974C708.332,160.867,707.474,161.751,706.416,161.751z"/>
			<path style="fill:#F4BDC2;" d="M706.416,177.542c-1.058,0-1.916-0.884-1.916-1.974c0-1.09,0.858-1.974,1.916-1.974
				c1.058,0,1.916,0.884,1.916,1.974C708.332,176.658,707.474,177.542,706.416,177.542z"/>
			<path style="fill:#F4BDC2;" d="M706.416,193.333c-1.058,0-1.916-0.884-1.916-1.974s0.858-1.974,1.916-1.974
				c1.058,0,1.916,0.884,1.916,1.974S707.474,193.333,706.416,193.333z"/>
			<path style="fill:#F4BDC2;" d="M706.416,209.123c-1.058,0-1.916-0.884-1.916-1.974c0-1.09,0.858-1.974,1.916-1.974
				c1.058,0,1.916,0.884,1.916,1.974C708.332,208.24,707.474,209.123,706.416,209.123z"/>
			<path style="fill:#F4BDC2;" d="M706.416,224.914c-1.058,0-1.916-0.884-1.916-1.974c0-1.09,0.858-1.974,1.916-1.974
				c1.058,0,1.916,0.884,1.916,1.974C708.332,224.031,707.474,224.914,706.416,224.914z"/>
			<path style="fill:#F4BDC2;" d="M706.416,240.705c-1.058,0-1.916-0.884-1.916-1.974c0-1.09,0.858-1.974,1.916-1.974
				c1.058,0,1.916,0.884,1.916,1.974C708.332,239.821,707.474,240.705,706.416,240.705z"/>
			<path style="fill:#F4BDC2;" d="M719.655,161.751c-1.058,0-1.916-0.884-1.916-1.974c0-1.09,0.858-1.974,1.916-1.974
				s1.916,0.884,1.916,1.974C721.571,160.867,720.714,161.751,719.655,161.751z"/>
			<path style="fill:#F4BDC2;" d="M719.655,177.542c-1.058,0-1.916-0.884-1.916-1.974c0-1.09,0.858-1.974,1.916-1.974
				s1.916,0.884,1.916,1.974C721.571,176.658,720.714,177.542,719.655,177.542z"/>
			<path style="fill:#F4BDC2;" d="M719.655,193.333c-1.058,0-1.916-0.884-1.916-1.974s0.858-1.974,1.916-1.974
				s1.916,0.884,1.916,1.974S720.714,193.333,719.655,193.333z"/>
			<path style="fill:#F4BDC2;" d="M719.655,209.123c-1.058,0-1.916-0.884-1.916-1.974c0-1.09,0.858-1.974,1.916-1.974
				s1.916,0.884,1.916,1.974C721.571,208.24,720.714,209.123,719.655,209.123z"/>
			<path style="fill:#F4BDC2;" d="M719.655,224.914c-1.058,0-1.916-0.884-1.916-1.974c0-1.09,0.858-1.974,1.916-1.974
				s1.916,0.884,1.916,1.974C721.571,224.031,720.714,224.914,719.655,224.914z"/>
			<path style="fill:#F4BDC2;" d="M719.655,240.705c-1.058,0-1.916-0.884-1.916-1.974c0-1.09,0.858-1.974,1.916-1.974
				s1.916,0.884,1.916,1.974C721.571,239.821,720.714,240.705,719.655,240.705z"/>
			<path style="fill:#F4BDC2;" d="M732.911,161.751c-1.058,0-1.916-0.884-1.916-1.974c0-1.09,0.858-1.974,1.916-1.974
				s1.916,0.884,1.916,1.974C734.827,160.867,733.969,161.751,732.911,161.751z"/>
			<path style="fill:#F4BDC2;" d="M732.911,177.542c-1.058,0-1.916-0.884-1.916-1.974c0-1.09,0.858-1.974,1.916-1.974
				s1.916,0.884,1.916,1.974C734.827,176.658,733.969,177.542,732.911,177.542z"/>
			<path style="fill:#F4BDC2;" d="M732.911,193.333c-1.058,0-1.916-0.884-1.916-1.974s0.858-1.974,1.916-1.974
				s1.916,0.884,1.916,1.974S733.969,193.333,732.911,193.333z"/>
			<path style="fill:#F4BDC2;" d="M732.911,209.123c-1.058,0-1.916-0.884-1.916-1.974c0-1.09,0.858-1.974,1.916-1.974
				s1.916,0.884,1.916,1.974C734.827,208.24,733.969,209.123,732.911,209.123z"/>
			<path style="fill:#F4BDC2;" d="M732.911,224.914c-1.058,0-1.916-0.884-1.916-1.974c0-1.09,0.858-1.974,1.916-1.974
				s1.916,0.884,1.916,1.974C734.827,224.031,733.969,224.914,732.911,224.914z"/>
			<path style="fill:#F4BDC2;" d="M732.911,240.705c-1.058,0-1.916-0.884-1.916-1.974c0-1.09,0.858-1.974,1.916-1.974
				s1.916,0.884,1.916,1.974C734.827,239.821,733.969,240.705,732.911,240.705z"/>
		</g>
	</g>
	<g>
		<g>
			<polygon style="fill:#FFF6EE;" points="523.5,21.08 516.21,21.08 516.21,28.38 510.31,28.38 510.31,21.08 503.02,21.08 
				503.02,15.19 510.31,15.19 510.31,7.9 516.21,7.9 516.21,15.19 523.5,15.19 			"/>
			<polygon style="fill:#FFF6EE;" points="539.3,21.08 532,21.08 532,15.19 539.3,15.19 539.3,7.9 545.2,7.9 545.2,15.19 
				552.49,15.19 552.49,21.08 545.2,21.08 545.2,28.38 539.3,28.38 			"/>
			<polygon style="fill:#FFF6EE;" points="559.69,38.8 566.98,38.8 566.98,44.7 559.69,44.7 559.69,52 553.79,52 553.79,44.7 
				546.5,44.7 546.5,38.8 553.79,38.8 553.79,31.51 559.69,31.51 			"/>
			<polygon style="fill:#FFF6EE;" points="581.48,15.19 581.48,21.08 574.18,21.08 574.18,28.38 568.28,28.38 568.28,21.08 
				560.99,21.08 560.99,15.19 568.28,15.19 568.28,7.9 574.18,7.9 574.18,15.19 			"/>
			<polygon style="fill:#FFF6EE;" points="538,44.7 530.7,44.7 530.7,52 524.8,52 524.8,44.7 517.51,44.7 517.51,38.8 524.8,38.8 
				524.8,31.51 530.7,31.51 530.7,38.8 538,38.8 			"/>
			<polygon style="fill:#FFF6EE;" points="545.2,60.35 552.49,60.35 552.49,66.25 545.2,66.25 545.2,73.55 539.3,73.55 539.3,66.25 
				532,66.25 532,60.35 539.3,60.35 539.3,53.06 545.2,53.06 			"/>
		</g>
		<g>
			<g>
				<polygon style="fill:#F4BDC2;" points="71.932,410.196 79.222,410.196 79.222,402.896 85.122,402.896 85.122,410.196 
					92.412,410.196 92.412,416.086 85.122,416.086 85.122,423.376 79.222,423.376 79.222,416.086 71.932,416.086 				"/>
				<polygon style="fill:#F4BDC2;" points="56.132,410.196 63.432,410.196 63.432,416.086 56.132,416.086 56.132,423.376 
					50.232,423.376 50.232,416.086 42.942,416.086 42.942,410.196 50.232,410.196 50.232,402.896 56.132,402.896 				"/>
				<polygon style="fill:#F4BDC2;" points="35.742,392.476 28.452,392.476 28.452,386.576 35.742,386.576 35.742,379.276 
					41.642,379.276 41.642,386.576 48.932,386.576 48.932,392.476 41.642,392.476 41.642,399.766 35.742,399.766 				"/>
				<polygon style="fill:#F4BDC2;" points="13.952,416.086 13.952,410.196 21.252,410.196 21.252,402.896 27.152,402.896 
					27.152,410.196 34.442,410.196 34.442,416.086 27.152,416.086 27.152,423.376 21.252,423.376 21.252,416.086 				"/>
				<polygon style="fill:#F4BDC2;" points="57.432,386.576 64.732,386.576 64.732,379.276 70.632,379.276 70.632,386.576 
					77.922,386.576 77.922,392.476 70.632,392.476 70.632,399.766 64.732,399.766 64.732,392.476 57.432,392.476 				"/>
				<polygon style="fill:#F4BDC2;" points="50.232,370.926 42.942,370.926 42.942,365.026 50.232,365.026 50.232,357.726 
					56.132,357.726 56.132,365.026 63.432,365.026 63.432,370.926 56.132,370.926 56.132,378.216 50.232,378.216 				"/>
			</g>
		</g>
	</g>
</g>
</svg>
