<?xml version="1.0" encoding="utf-8"?>
<!-- Generator: Adobe Illustrator 27.5.0, SVG Export Plug-In . SVG Version: 6.00 Build 0)  -->
<svg version="1.1" xmlns="http://www.w3.org/2000/svg" xmlns:xlink="http://www.w3.org/1999/xlink" x="0px" y="0px"
	 viewBox="0 0 750 500" style="enable-background:new 0 0 750 500;" xml:space="preserve">
<g id="BACKGROUND">
	<rect style="fill:#F5F8FC;" width="750" height="500"/>
</g>
<g id="OBJECTS">
	<g>
		<g>
			<path style="fill:#3F568E;" d="M606.604,359.832h-16.313l28.845,69.963c0.029-0.017,0.061-0.026,0.09-0.041
				c-19.124,10.962-56.01,21.057-119.408,0.749c-35.948-11.504-60.624-13.581-76.733-12.502
				c-13.514,0.914-39.336,7.082-48.632,16.981c-9.305-9.9-33.715-16.067-47.229-16.981c-16.123-1.079-40.799,0.998-76.747,12.502
				c-63.483,20.339-100.352,10.184-119.454-0.796l28.953-69.874h-16.274l-25.075,60.819l-4.755,11.518
				c0,0,32.696,48.395,136.605,15.112c35.948-11.504,60.624-13.581,76.747-12.502c12.233,0.827,23.73,5.959,32.667,14.268
				c1.889,1.756,4.347,2.77,6.927,2.77h16.67c2.581,0,5.04-1.016,6.93-2.774c8.929-8.306,20.436-13.437,32.667-14.264
				c16.109-1.079,40.785,0.997,76.733,12.502c103.923,33.284,136.605-15.112,136.605-15.112l-4.755-11.518L606.604,359.832z"/>
			<g>
				<path style="fill:#E1E5EA;" d="M375.137,339.97v94.331c-0.232,0.232-0.465,0.451-0.683,0.683
					c-9.305-9.906-33.721-16.068-47.234-16.984c-16.123-1.079-40.798,0.997-76.747,12.502
					c-63.302,20.29-100.165,10.234-119.307-0.71l4.14-10.043l30.428-73.809c20.591,2.815,48.286,1.202,84.739-10.48
					c35.948-11.518,60.624-13.581,76.747-12.502C340.747,323.861,365.846,330.05,375.137,339.97z"/>
				<path style="fill:#C7D0D8;" d="M619.135,429.792c-19.142,10.944-56.006,20.987-119.321,0.71
					c-35.948-11.504-60.624-13.581-76.733-12.502c-13.199,0.888-38.12,6.791-47.944,16.3V339.97c0,0,0,0,0.014-0.014
					c9.277-9.906,34.404-16.095,47.931-16.997c16.109-1.079,40.785,0.984,76.733,12.502c36.467,11.668,64.163,13.294,84.753,10.48
					l30.428,73.809L619.135,429.792z"/>
			</g>
			<g>
				<g>
					<path style="fill:#FFFFFF;" d="M375.137,339.97v82.089c-0.232,0.232-0.465,0.451-0.683,0.683
						c-9.305-9.906-33.721-16.068-47.234-16.983c-16.123-1.079-40.798,0.997-76.747,12.502
						c-59.011,18.91-95.041,11.464-115.168,1.489l30.428-73.809c20.591,2.815,48.286,1.202,84.739-10.48
						c35.948-11.518,60.624-13.581,76.747-12.502C340.747,323.861,365.846,330.05,375.137,339.97z"/>
					<path style="fill:#3F568E;" d="M189.628,430.862c-0.543,0-0.993-0.43-1.012-0.977c-0.02-0.559,0.417-1.028,0.976-1.047
						c18.32-0.65,38.699-4.532,60.572-11.541c20.462-6.549,39.144-10.634,55.527-12.141c0.568-0.054,1.051,0.36,1.101,0.916
						c0.051,0.557-0.359,1.05-0.915,1.102c-16.237,1.494-34.773,5.549-55.096,12.052c-22.049,7.065-42.612,10.98-61.117,11.636
						C189.652,430.862,189.64,430.862,189.628,430.862z"/>
					<path style="fill:#E1E5EA;" d="M614.995,419.75c-20.126,9.974-56.156,17.421-115.181-1.489
						c-35.948-11.504-60.624-13.581-76.733-12.502c-13.199,0.902-38.12,6.804-47.944,16.3V339.97c0,0,0,0,0.014-0.014
						c9.277-9.906,34.404-16.095,47.931-16.997c16.109-1.079,40.785,0.984,76.733,12.502c36.467,11.668,64.163,13.294,84.753,10.48
						L614.995,419.75z"/>
				</g>
				<g>
					<path style="fill:#FFFFFF;" d="M580.053,380.693c-46.629,50.345-157.49-20.107-204.916,39.927v-82.089c0,0,0,0,0.014-0.014
						c54.605-56.087,123.391-7.691,174.475-44.58L580.053,380.693z"/>
					<path style="fill:#243A66;" d="M408.562,317.199c-0.408,0-0.792-0.248-0.947-0.652c-0.199-0.522,0.063-1.108,0.586-1.308
						c21.137-8.065,43.343-7.539,64.822-7.028c1.688,0.04,3.375,0.08,5.057,0.116c0.559,0.012,1.003,0.475,0.991,1.035
						c-0.012,0.552-0.463,0.991-1.013,0.991c-0.007,0-0.014,0-0.022,0c-1.684-0.037-3.372-0.076-5.062-0.117
						c-21.283-0.505-43.286-1.03-64.052,6.896C408.804,317.178,408.683,317.199,408.562,317.199z"/>
				</g>
				<path style="fill:#3F568E;" d="M375.137,421.634c-0.559,0-1.013-0.453-1.013-1.013v-82.089c0-0.56,0.454-1.013,1.013-1.013
					s1.013,0.453,1.013,1.013v82.089C376.15,421.181,375.696,421.634,375.137,421.634z"/>
			</g>
		</g>
		<g>
			<g>
				<g>
					<polygon style="fill:#F2681C;" points="522.354,154.29 449.477,180.501 423.049,69.299 499.927,59.92 					"/>
					<polygon style="fill:#E1E5EA;" points="518.228,147.831 455.192,170.503 432.333,74.318 498.829,66.206 					"/>
				</g>
				<g>
					<polygon style="fill:#F7B24D;" points="543.808,149.507 469.993,176.055 443.225,63.423 521.092,53.924 					"/>
				</g>
				<g>
					<path style="fill:#243A66;" d="M460.887,138.757c-0.458,0-0.873-0.314-0.984-0.779l-14.016-58.978
						c-0.13-0.544,0.207-1.091,0.751-1.22c0.546-0.126,1.09,0.207,1.22,0.751l14.016,58.978c0.13,0.544-0.207,1.091-0.751,1.22
						C461.043,138.749,460.965,138.757,460.887,138.757z"/>
				</g>
			</g>
			<g>
				<path style="fill:#3F568E;" d="M472.514,118.779c-0.524-2.06-1.238-5.838-2.144-11.338c-1.007-5.859-1.62-9.339-1.843-10.438
					c0.081-0.4,0.353-0.652,0.816-0.754c0.342-0.075,0.765,1.121,1.268,3.587c0.524,2.482,1.037,5.309,1.541,8.481l0.815,5.168
					c0.323-2.489,0.575-4.356,0.756-5.605c0.382-2.863,0.665-5.226,0.846-7.088c0.182-1.862,0.272-3.609,0.272-5.24
					c0.302-0.47,0.665-0.751,1.087-0.844l0.635,0.193l-0.453,4.178c-0.102,1.272-0.354,3.592-0.756,6.963l-0.272,2.054
					c-0.222,1.821-0.443,3.541-0.665,5.16c-0.302,2.342-0.584,3.985-0.846,4.929c-0.121,0.489-0.241,0.747-0.362,0.774
					C472.927,119.021,472.695,118.96,472.514,118.779z"/>
				<path style="fill:#3F568E;" d="M482.422,116.491c-0.444-0.234-0.806-0.603-1.088-1.104c-0.583-1.099-0.946-2.358-1.087-3.777
					c-0.181-1.33-0.272-2.629-0.272-3.898c0-0.241,0.011-0.445,0.031-0.611v-0.543c0-0.101-0.011-0.149-0.031-0.144v-0.544
					l0.031-2.122c0.019-0.648,0.099-1.693,0.241-3.134c0.101-0.989,0.332-1.977,0.694-2.962c0.141-0.433,0.323-0.781,0.544-1.041
					c0.221-0.26,0.473-0.422,0.756-0.484c0.805-0.177,1.529-0.19,2.175-0.041c0.644,0.15,1.188,0.438,1.631,0.864
					c0.402,0.415,0.744,0.959,1.026,1.632c0.283,0.673,0.484,1.409,0.605,2.208c0.121,0.819,0.181,1.702,0.181,2.649v0.241
					c0,0.624,0.009,1.187,0.031,1.685l0.03,1.715c0,5.799-1.349,8.997-4.047,9.591C483.348,116.785,482.864,116.726,482.422,116.491
					z M484.747,114.771c0.303-0.359,0.533-0.808,0.694-1.347c0.383-1.111,0.614-2.269,0.696-3.476c0.099-1.049,0.15-1.945,0.15-2.69
					c0-0.906-0.071-2.079-0.212-3.518c-0.121-1.524-0.181-2.669-0.181-3.434v-0.544c-0.041-0.755-0.297-1.363-0.77-1.823
					c-0.474-0.46-1.054-0.614-1.738-0.463c-0.685,0.151-1.138,0.644-1.359,1.478c-0.202,0.669-0.302,1.496-0.302,2.483
					c0,0.383,0.009,0.703,0.03,0.96v0.816l-0.06,1.403c-0.041,0.431-0.06,0.899-0.06,1.402c0,1.088,0.03,2.159,0.091,3.212
					c0.08,1.493,0.281,2.919,0.603,4.278c0.323,1.419,0.796,2.06,1.42,1.923C484.113,115.349,484.445,115.13,484.747,114.771z"/>
				<path style="fill:#3F568E;" d="M493.855,114.123c-0.494-0.023-0.872-0.085-1.133-0.189c-1.35-0.568-2.024-2.785-2.024-6.652
					v-0.816v-0.937v-0.725c0-0.804,0.01-1.527,0.031-2.166c0.019-0.639,0.06-1.337,0.121-2.096c0.06-0.799,0.15-1.458,0.272-1.978
					c0.121-0.52,0.321-1.123,0.603-1.81c0.242-0.637,0.539-1.156,0.892-1.556c0.351-0.399,0.81-0.771,1.374-1.118
					c0.503-0.332,1.127-0.581,1.872-0.745c0.302-0.066,0.533-0.047,0.695,0.059c0.161,0.105,0.241,0.269,0.241,0.49
					c0,0.202-0.066,0.397-0.197,0.587c-0.131,0.191-0.287,0.315-0.468,0.375l-1.419,0.313c-0.403,0.089-0.756,0.419-1.057,0.987
					c-0.302,0.571-0.513,1.272-0.634,2.105c-0.261,1.547-0.394,2.784-0.394,3.71v0.151l-0.059,2.913
					c-0.041,0.875-0.061,1.856-0.061,2.943c0,0.765,0.031,1.383,0.091,1.853c0.101,0.703,0.272,1.269,0.514,1.7
					c0.241,0.489,0.654,0.791,1.237,0.905c0.303,0.054,0.635,0.041,0.997-0.039c0.221-0.049,0.444-0.178,0.665-0.388
					c0.262-0.057,0.478-0.05,0.649,0.023c0.171,0.073,0.257,0.22,0.257,0.442c0,0.785-0.553,1.3-1.661,1.544
					C494.816,114.108,494.348,114.146,493.855,114.123z"/>
				<path style="fill:#3F568E;" d="M504.562,111.598c-0.222-0.092-0.331-0.329-0.331-0.712c0-0.604-0.102-1.609-0.303-3.014
					l-0.122-0.607l-2.99,0.206c-0.121,0.49-0.291,1.463-0.512,2.922c-0.122,1.013-0.313,1.71-0.575,2.09
					c-0.141,0.212-0.343,0.347-0.604,0.405c-0.241,0.053-0.464,0.026-0.665-0.08c-0.201-0.107-0.302-0.271-0.302-0.492l0.06-0.165
					l0.03-0.128c1.329-5.468,2.336-10.795,3.022-15.98c0-0.08,0.01-0.219,0.03-0.415c0.02-0.195,0.04-0.477,0.06-0.844
					c0.06-0.757,0.126-1.367,0.196-1.825c0.071-0.459,0.186-0.817,0.347-1.074l1.028-0.226c0.283-0.063,0.523-0.05,0.725,0.036
					c0.201,0.087,0.303,0.251,0.303,0.492c0,1.53,0.211,3.759,0.633,6.687c0.403,3.013,0.605,5.143,0.605,6.392
					c0,0.121,0.05,0.422,0.15,0.902c0.1,0.441,0.151,0.733,0.151,0.873c0,0.142,0.101,0.724,0.302,1.746
					c0.182,0.926,0.272,1.531,0.272,1.813v0.031c0,0.442-0.161,0.76-0.483,0.952C505.125,111.685,504.783,111.69,504.562,111.598z
					 M503.504,105.125c0-1.812-0.161-4.092-0.483-6.841l-0.303-3.075c-0.866,4.924-1.46,8.629-1.782,11.117
					c0.302,0.134,1.189,0.1,2.659-0.103C503.534,105.934,503.504,105.568,503.504,105.125z"/>
				<path style="fill:#3F568E;" d="M508.731,110.347c-0.081-0.223-0.122-0.557-0.122-1c0-0.866,0.04-1.942,0.122-3.228
					c0.1-1.231,0.15-2.318,0.15-3.265c0-1.067,0.031-2.675,0.091-4.823l0.06-4.786c0-0.181-0.03-0.446-0.09-0.795l-0.091-0.736
					v-0.151c0-0.463,0.07-0.82,0.212-1.073c0.141-0.253,0.402-0.421,0.784-0.505c0.524-0.115,1.098-0.09,1.722,0.074
					c0.624,0.165,1.077,0.448,1.36,0.849c0.583,0.838,0.876,1.982,0.876,3.431c0,1.088-0.091,2.019-0.272,2.793
					c-0.182,0.776-0.494,1.524-0.937,2.246c0.544,0.404,0.91,0.992,1.102,1.765c0.192,0.774,0.288,1.775,0.288,3.003
					c0,1.229-0.213,2.342-0.635,3.341c-0.483,1.134-1.188,1.995-2.114,2.58c-0.564,0.326-1.129,0.55-1.693,0.675
					C509.102,110.839,508.83,110.707,508.731,110.347z M511.842,107.547c0.363-0.703,0.544-1.458,0.544-2.264
					c0-0.846-0.051-1.58-0.151-2.202c-0.08-0.485-0.186-0.88-0.318-1.183c-0.131-0.304-0.307-0.572-0.528-0.805
					c-0.241-0.249-0.524-0.367-0.846-0.357c-0.081,1.165-0.121,2.695-0.121,4.587c0,0.121-0.02,0.508-0.06,1.162l-0.06,1.04
					c0,0.04,0.009,0.069,0.03,0.085v0.06v1.359C510.976,108.746,511.478,108.251,511.842,107.547z M512.084,94.959
					c0-2.598-0.414-3.866-1.238-3.805c-0.222,0.512-0.333,1.624-0.333,3.335v4.471C511.56,98.709,512.084,97.375,512.084,94.959z"/>
			</g>
		</g>
		<g>
			<g>
				<g>
					<path style="fill:#D14A67;" d="M386.936,167.633c-10.422-3.743-14.787-5.151-16.38-5.637
						c-1.593,0.486-5.958,1.893-16.386,5.637c-1.091,0.393-2.226,0.611-3.399,0.666c-4.081,0.191-8.578-1.632-12.883-5.162
						c-1.015-0.829-2.013-1.751-3.001-2.766c-3.072-3.165-5.969-7.208-8.447-12.015c-5.746-11.104-9.281-26.268-7.705-43.996
						c1.632-18.356,11.055-26.813,20.538-30.469c8.092-3.132,16.228-2.766,19.6-2.079c1.555,0.322,3.023,0.584,4.354,0.797
						c3.563,0.578,7.17,0.731,10.76,0.458c1.304-0.098,2.603-0.251,3.896-0.458c1.331-0.213,2.794-0.475,4.354-0.797
						c0.055-0.006,0.104-0.022,0.164-0.033c7.585-1.457,36.968-1.195,39.974,32.581C426.048,145.665,401.957,173.04,386.936,167.633
						z"/>
				</g>
				<path style="fill:#AA2B4C;" d="M422.375,104.359c-1.287-14.464-7.416-22.77-14.594-27.439
					c2.877,6.983,4.473,14.628,4.473,22.649c0,32.869-26.646,59.515-59.515,59.515c-7.969,0-15.566-1.578-22.512-4.419
					c1.482,2.131,3.045,4.042,4.659,5.704c0.988,1.015,1.986,1.937,3.001,2.766c4.305,3.53,8.801,5.353,12.883,5.162
					c1.173-0.055,2.308-0.273,3.399-0.666c10.427-3.743,14.793-5.151,16.386-5.637c1.593,0.486,5.958,1.893,16.38,5.637
					C401.957,173.04,426.048,145.665,422.375,104.359z"/>
			</g>
			<g>
				<path style="fill:#243A66;" d="M318.736,105.372c-0.03,0-0.06-0.001-0.091-0.004c-0.557-0.049-0.969-0.541-0.919-1.099
					c1.762-19.82,12.492-27.974,21.183-31.324c0.523-0.202,1.108,0.057,1.31,0.581c0.201,0.521-0.059,1.108-0.581,1.309
					c-14.773,5.695-18.973,19.248-19.894,29.615C319.697,104.976,319.255,105.372,318.736,105.372z"/>
			</g>
			<g>
				<path style="fill:#F7B24D;" d="M412.594,53.981c0,0-6.174,9.7-16.49,12.866c-10.316,3.166-20.868-1.402-20.868-1.402
					s6.174-9.7,16.49-12.866C402.042,49.413,412.594,53.981,412.594,53.981z"/>
				<ellipse style="fill:#AA2B4C;" cx="370.48" cy="77.454" rx="9.829" ry="2.637"/>
				<path style="fill:#D14A67;" d="M369.581,76.734c0,0,3.034-24.46,12.305-34.258c1.77-1.87,4.722-1.936,6.543-0.116l0,0
					c1.664,1.664,1.779,4.321,0.271,6.128c-5.503,6.595-17.492,21.781-17.261,28.666L369.581,76.734z"/>
			</g>
		</g>
		<g>
			<path style="fill:#D14A67;" d="M159.933,187.198l-3.811-13.218c-0.336-1.166-0.251-2.406,0.204-3.531
				c1.434-3.544,2.208-7.427,2.164-11.496c-0.167-15.63-12.652-28.655-28.263-29.44c-17.667-0.888-32.179,13.616-31.305,31.28
				c0.767,15.497,13.602,27.95,29.115,28.283c4.603,0.099,8.973-0.85,12.894-2.62c1.176-0.531,2.496-0.652,3.736-0.294l12.656,3.649
				C158.917,190.269,160.393,188.793,159.933,187.198z"/>
			<path style="fill:#243A66;" d="M158.491,159.965c-0.554,0-1.007-0.446-1.013-1.002c-0.057-5.363-1.631-10.601-4.55-15.148
				c-0.302-0.471-0.166-1.097,0.305-1.4c0.472-0.303,1.097-0.166,1.4,0.306c3.126,4.867,4.81,10.476,4.871,16.22
				c0.006,0.56-0.443,1.018-1.002,1.024C158.498,159.965,158.494,159.965,158.491,159.965z"/>
			<g>
				<path style="fill:#FFFFFF;" d="M119.797,159.684c0,1.636-1.326,2.962-2.963,2.962c-1.636,0-2.962-1.326-2.962-2.962
					c0-1.636,1.326-2.963,2.962-2.963C118.471,156.722,119.797,158.048,119.797,159.684z"/>
				<path style="fill:#FFFFFF;" d="M145.031,159.684c0,1.636-1.326,2.962-2.963,2.962c-1.636,0-2.962-1.326-2.962-2.962
					c0-1.636,1.326-2.963,2.962-2.963C143.705,156.722,145.031,158.048,145.031,159.684z"/>
				<path style="fill:#FFFFFF;" d="M132.021,159.684c0,1.636-1.326,2.962-2.962,2.962c-1.636,0-2.963-1.326-2.963-2.962
					c0-1.636,1.326-2.963,2.963-2.963C130.695,156.722,132.021,158.048,132.021,159.684z"/>
			</g>
		</g>
		<g>
			<path style="fill:#3F568E;" d="M632.405,290.704l-19.323-33.319l13.64-7.911c4.736-2.747,10.802-1.134,13.548,3.602l9.377,16.169
				c2.747,4.736,1.134,10.802-3.602,13.548L632.405,290.704z"/>
			
				<rect x="545.435" y="240.604" transform="matrix(0.5017 0.8651 -0.8651 0.5017 547.5823 -335.1516)" style="fill:#D14A67;" width="38.517" height="134.212"/>
			
				<rect x="602.319" y="273.373" transform="matrix(0.5017 0.8651 -0.8651 0.5017 547.391 -400.7991)" style="fill:#AA2B4C;" width="38.517" height="2.695"/>
			
				<rect x="566.874" y="252.954" transform="matrix(0.5017 0.8651 -0.8651 0.5017 561.8349 -335.1931)" style="fill:#AA2B4C;" width="9.963" height="134.212"/>
			<path style="fill:#3F568E;" d="M462.443,367.009L462.443,367.009c-0.543-0.936-0.43-2.113,0.28-2.929l34.258-39.364
				l19.323,33.319l-51.18,10.186C464.063,368.432,462.986,367.945,462.443,367.009z"/>
			<polygon style="fill:#F7B24D;" points="489.953,363.28 516.305,358.035 496.981,324.716 479.343,344.984 			"/>
			<path style="fill:#243A66;" d="M502.205,322.7c-0.349,0-0.689-0.181-0.877-0.504c-0.281-0.484-0.116-1.104,0.368-1.385
				l32.616-18.916c0.486-0.281,1.105-0.115,1.385,0.368c0.281,0.484,0.116,1.104-0.368,1.385l-32.616,18.916
				C502.552,322.657,502.377,322.7,502.205,322.7z"/>
			<path style="fill:#243A66;" d="M584.47,319.517c-0.349,0-0.689-0.181-0.877-0.504c-0.281-0.485-0.116-1.104,0.368-1.385
				L620,296.727c0.487-0.28,1.105-0.115,1.385,0.368c0.281,0.485,0.116,1.104-0.368,1.385l-36.04,20.901
				C584.817,319.474,584.642,319.517,584.47,319.517z"/>
			<line style="fill:#D14A67;" x1="568.28" y1="327.893" x2="621.585" y2="296.979"/>
		</g>
		<g>
			<path style="fill:#F7B24D;" d="M248.348,67.328l10.189,14.207c0.967,1.348,2.95,1.408,3.997,0.121l11.031-13.564
				c1.499-1.843,4.483-0.773,4.468,1.603l-0.107,17.483c-0.01,1.659,1.559,2.873,3.162,2.447l16.897-4.49
				c2.296-0.61,4.081,2.009,2.673,3.923l-10.363,14.081c-0.983,1.336-0.427,3.241,1.12,3.838l16.309,6.299
				c2.216,0.856,2.12,4.024-0.144,4.745l-16.66,5.301c-1.581,0.503-2.251,2.371-1.35,3.764l9.492,14.682
				c1.29,1.995-0.65,4.502-2.905,3.754l-16.594-5.504c-1.574-0.522-3.214,0.595-3.304,2.251l-0.951,17.457
				c-0.129,2.372-3.172,3.26-4.557,1.329l-10.189-14.207c-0.967-1.348-2.95-1.408-3.997-0.121l-11.031,13.564
				c-1.499,1.843-4.483,0.773-4.468-1.603l0.107-17.483c0.01-1.659-1.559-2.873-3.162-2.447l-16.897,4.49
				c-2.296,0.61-4.081-2.009-2.673-3.923l10.363-14.081c0.983-1.336,0.427-3.241-1.12-3.838l-16.309-6.299
				c-2.216-0.856-2.12-4.024,0.144-4.745l16.66-5.301c1.581-0.503,2.251-2.371,1.35-3.763l-9.492-14.682
				c-1.29-1.995,0.65-4.502,2.905-3.754l16.594,5.504c1.574,0.522,3.214-0.595,3.304-2.251l0.951-17.457
				C243.92,66.285,246.963,65.397,248.348,67.328z"/>
			<path style="fill:#243A66;" d="M297.414,140.232c-0.332,0-0.658-0.163-0.852-0.463l-7.845-12.134
				c-0.602-0.932-0.732-2.065-0.358-3.109c0.375-1.044,1.195-1.834,2.252-2.17l12.325-3.922c0.534-0.171,1.102,0.125,1.272,0.659
				c0.17,0.532-0.125,1.102-0.658,1.272l-12.325,3.922c-0.45,0.142-0.8,0.48-0.959,0.924c-0.16,0.445-0.104,0.928,0.152,1.324
				l7.845,12.134c0.304,0.47,0.169,1.097-0.301,1.401C297.793,140.18,297.603,140.232,297.414,140.232z"/>
			<path style="fill:#243A66;" d="M228.802,126.257c-0.208,0-0.418-0.064-0.599-0.197c-0.451-0.331-0.547-0.965-0.216-1.416
				c0.28-0.381,0.365-0.858,0.232-1.313c-0.132-0.453-0.461-0.811-0.902-0.981l-16.308-6.3c-1.416-0.546-2.302-1.88-2.256-3.398
				c0.046-1.518,1.011-2.796,2.458-3.256l16.66-5.301c0.45-0.143,0.8-0.481,0.959-0.926c0.159-0.444,0.104-0.926-0.152-1.322
				c-0.304-0.47-0.169-1.097,0.301-1.401c0.47-0.304,1.097-0.169,1.401,0.301c0.601,0.931,0.732,2.063,0.358,3.107
				c-0.374,1.044-1.195,1.835-2.252,2.172l-16.661,5.301c-0.748,0.237-1.031,0.872-1.046,1.387c-0.016,0.514,0.229,1.164,0.96,1.447
				l16.309,6.3c1.034,0.399,1.806,1.238,2.116,2.303c0.311,1.064,0.112,2.188-0.545,3.081
				C229.42,126.115,229.113,126.257,228.802,126.257z"/>
			<g>
				<path style="fill:#3F568E;" d="M244.604,128.418c-1.024-1.788-2.672-5.085-4.944-9.892c-2.46-5.119-3.936-8.157-4.428-9.116
					c-0.028-0.359,0.163-0.598,0.573-0.718c0.303-0.088,1.01,0.943,2.12,3.092c1.133,2.162,2.346,4.63,3.638,7.403l2.101,4.518
					c-0.339-2.221-0.583-3.888-0.735-5.004c-0.379-2.557-0.723-4.664-1.033-6.323c-0.31-1.658-0.675-3.209-1.096-4.652
					c0.163-0.434,0.432-0.705,0.806-0.814l0.647,0.13l0.652,3.724c0.233,1.131,0.595,3.199,1.086,6.205l0.274,1.834
					c0.261,1.624,0.497,3.16,0.706,4.606c0.32,2.091,0.478,3.561,0.475,4.413c0.013,0.441-0.034,0.677-0.141,0.708
					C245.055,128.605,244.821,128.567,244.604,128.418z"/>
				<path style="fill:#3F568E;" d="M252.099,126.086c-0.329,0-0.553-0.205-0.672-0.615l-4.529-15.522
					c-0.088-0.303-0.274-0.741-0.558-1.316c-0.286-0.515-0.48-0.951-0.584-1.308l-0.023-0.08c0.157-0.587,0.286-0.972,0.387-1.157
					c0.249-0.073,0.568-0.204,0.957-0.395c0.353-0.18,0.672-0.312,0.957-0.395c0.285-0.083,0.586-0.079,0.902,0.012
					c0.317,0.092,0.508,0.253,0.576,0.484c0.156,0.534-0.176,0.921-0.995,1.16l-0.374,0.109c-0.112,0.014-0.239,0.041-0.382,0.083
					c-0.16,0.047-0.256,0.084-0.286,0.112c0.177,0.606,0.425,1.325,0.746,2.159l0.271,0.733l0.482,1.454
					c0.099,0.338,0.223,0.863,0.372,1.573l0.383,1.512l0.351-0.189c0.325-0.211,0.603-0.35,0.835-0.417
					c0.196-0.057,0.396-0.034,0.601,0.071c0.204,0.105,0.335,0.255,0.392,0.45c0.062,0.214,0.052,0.425-0.032,0.633
					c-0.084,0.209-0.224,0.341-0.421,0.398l-0.328,0.067l-0.347,0.101c-0.267,0.078-0.436,0.195-0.506,0.35l2.408,8.255l1.473-0.517
					c1.015-0.296,1.59-0.212,1.725,0.25l0.031,0.107c-0.044,0.245-0.19,0.476-0.436,0.692c-0.246,0.217-0.497,0.382-0.754,0.496
					l-0.874,0.284l-0.828,0.242C252.681,126.061,252.374,126.102,252.099,126.086z"/>
				<path style="fill:#3F568E;" d="M262.698,122.472l-0.023-0.08c-0.329-0.928-0.796-1.932-1.401-3.012
					c-0.605-1.08-1.404-2.364-2.399-3.851c-0.75-1.115-1.402-2.123-1.955-3.024l3.071,10.525c0.083,0.285,0.095,0.509,0.037,0.671
					c-0.059,0.162-0.232,0.285-0.516,0.368c-0.214,0.062-0.402,0.045-0.566-0.053c-0.164-0.097-0.277-0.252-0.339-0.466
					l-0.062-0.214l-2.238-7.87c-0.64-2.325-1.383-4.94-2.23-7.843l-0.959-3.286c-0.062-0.214-0.061-0.374,0.005-0.48
					c0.066-0.106,0.241-0.201,0.526-0.284c0.445-0.13,0.88-0.165,1.303-0.105c0.424,0.06,0.813,0.202,1.169,0.427
					c0.734,0.463,1.308,1.107,1.724,1.932c0.175,0.336,0.33,0.735,0.465,1.198c0.078,0.267,0.141,0.568,0.19,0.901
					c0.049,0.334,0.077,0.548,0.086,0.642c0.016,0.189,0.014,0.479-0.007,0.871c-0.021,0.393-0.033,0.648-0.038,0.765l-0.102,0.842
					l-0.065,0.773c0.205,0.636,0.552,1.414,1.043,2.333c0.49,0.92,0.982,1.762,1.476,2.526c0.35,0.536,0.956,1.422,1.82,2.658
					l1.46,2.125l0.016,0.054c0.088,0.303,0.137,0.569,0.146,0.798c0.03,0.3-0.116,0.497-0.436,0.591
					C263.558,123.004,263.159,122.859,262.698,122.472z M257.119,110.011l-0.269-2.415c-0.009-0.093-0.036-0.221-0.082-0.381
					c-0.151-0.517-0.423-1.084-0.816-1.704c-0.2-0.29-0.417-0.52-0.652-0.694c-0.234-0.173-0.443-0.243-0.626-0.209l0.726,2.688
					c0.295,1.209,0.538,2.143,0.73,2.802c0.182,0.623,0.31,1.03,0.385,1.221C256.692,110.996,256.893,110.56,257.119,110.011z"/>
				<path style="fill:#3F568E;" d="M266.491,121.365l-0.905-3.301l-0.905-3.301c-0.348-1.193-0.902-2.993-1.663-5.4
					c-0.755-2.389-1.309-4.189-1.662-5.4l-0.047-0.16c-0.135-0.463-0.215-0.903-0.24-1.322c-0.034-0.512,0.181-0.835,0.645-0.971
					c1.246-0.364,2.352-0.251,3.316,0.337c0.964,0.588,1.638,1.542,2.023,2.859c0.234,0.801,0.265,1.701,0.092,2.698
					c-0.173,0.997-0.491,1.795-0.954,2.394c1.235,0.393,2.258,1.066,3.068,2.018c0.809,0.953,1.406,2.088,1.791,3.406
					c0.182,0.624,0.195,1.461,0.037,2.511c-0.194,1.255-0.667,2.253-1.417,2.994c-0.456,0.423-1.005,0.728-1.646,0.915l-0.107,0.031
					C267.095,121.914,266.621,121.811,266.491,121.365z M265.577,108.297c0.122-0.576,0.195-1.255,0.218-2.035
					c-0.004-0.212,0.013-0.487,0.049-0.826l-0.273-0.935c-0.156-0.534-0.503-0.993-1.04-1.378c-0.537-0.384-1.055-0.504-1.554-0.358
					c-0.25,0.073-0.293,0.385-0.132,0.938c0.343,1.175,0.667,2.221,0.973,3.137l0.918,2.95
					C265.168,109.547,265.449,109.05,265.577,108.297z M269.616,118.366c0.319-0.827,0.341-1.713,0.066-2.657
					c-0.239-0.819-0.525-1.552-0.859-2.199c-0.334-0.646-0.659-1.117-0.977-1.411c-0.295-0.281-0.574-0.509-0.837-0.684
					c-0.264-0.174-0.477-0.276-0.64-0.306l-0.237-0.018l-0.962,0.281c0.687,2.023,1.591,4.957,2.714,8.804
					C268.719,119.798,269.297,119.194,269.616,118.366z"/>
				<path style="fill:#3F568E;" d="M274.922,119.659c-0.332-0.077-0.529-0.222-0.591-0.436c-0.062-0.214-0.059-0.403,0.008-0.568
					c0.068-0.165,0.2-0.275,0.396-0.333c0.178-0.052,0.457-0.056,0.837-0.013c0.416,0.034,0.668,0.037,0.757,0.011
					c0.338-0.099,0.603-0.335,0.793-0.71c0.19-0.374,0.295-0.825,0.316-1.353c0.061-0.984-0.013-1.832-0.22-2.544
					c-0.224-0.766-0.579-1.536-1.066-2.313c-0.487-0.775-1.052-1.505-1.696-2.186l-0.677-0.73c-0.705-0.761-1.253-1.364-1.644-1.811
					c-0.391-0.446-0.764-0.946-1.119-1.5c-0.517-0.777-0.892-1.566-1.126-2.368c-0.187-0.641-0.253-1.279-0.196-1.914
					c0.056-0.635,0.25-1.213,0.581-1.735c0.32-0.558,0.81-0.932,1.469-1.124c0.32-0.093,0.659-0.091,1.017,0.007
					c0.357,0.099,0.64,0.273,0.847,0.521l-0.29,0.694c-0.463,0.135-0.837,0.147-1.12,0.036c-0.31,0.129-0.545,0.367-0.705,0.713
					c-0.16,0.346-0.25,0.716-0.271,1.108c-0.008,0.37,0.037,0.724,0.136,1.062c0.198,0.677,0.492,1.34,0.885,1.989
					c0.392,0.649,0.831,1.241,1.315,1.776l2.961,3.194c0.49,0.553,0.941,1.204,1.353,1.953c0.411,0.75,0.734,1.525,0.969,2.326
					c0.343,1.175,0.38,2.363,0.112,3.562c-0.147,0.623-0.415,1.16-0.805,1.612c-0.39,0.451-0.879,0.764-1.467,0.935
					C276.038,119.711,275.453,119.756,274.922,119.659z"/>
			</g>
		</g>
		<g>
			<g>
				<path style="fill:#3F568E;" d="M500.327,153.691H248.844c-13.881,0-25.133,11.253-25.133,25.133l24.362,98.705
					c3.676,14.431,11.253,25.133,25.133,25.133h64.949c6.517,0,12.767,2.589,17.375,7.197l7.162,7.162
					c6.569,6.569,17.22,6.569,23.789,0l7.162-7.162c4.608-4.608,10.858-7.197,17.375-7.197h68.165
					c13.881,0,21.717-10.612,25.133-25.133l21.146-98.705C525.46,164.943,514.208,153.691,500.327,153.691z"/>
				<g>
					
						<text transform="matrix(1 0 0 1 272.1982 221.2251)" style="fill:#FFFFFF; font-family:'ShadowsIntoLight'; font-size:62.1965px;">ENGLISH</text>
					<g>
						
							<text transform="matrix(1 0 0 1 328.0488 278.8291)" style="fill:#FFFFFF; font-family:'ShadowsIntoLight'; font-size:62.1965px;">Book</text>
					</g>
				</g>
			</g>
			<g>
				<polygon style="fill:#F7B24D;" points="292.845,275.313 292.845,265.004 285.555,272.294 282.951,269.689 290.242,262.4 
					279.931,262.4 279.931,258.716 290.242,258.716 282.951,251.426 285.555,248.822 292.845,256.112 292.845,245.803 
					296.528,245.803 296.528,256.112 303.819,248.822 306.423,251.426 299.133,258.716 309.443,258.716 309.443,262.4 
					299.132,262.4 306.423,269.689 303.819,272.294 296.528,265.004 296.528,275.313 				"/>
				<polygon style="fill:#F7B24D;" points="456.791,275.313 456.791,265.004 449.501,272.294 446.896,269.689 454.187,262.4 
					443.877,262.4 443.877,258.716 454.187,258.716 446.896,251.426 449.501,248.822 456.791,256.112 456.791,245.803 
					460.474,245.803 460.474,256.112 467.764,248.822 470.368,251.426 463.078,258.716 473.388,258.716 473.388,262.4 
					463.078,262.4 470.368,269.689 467.764,272.294 460.474,265.004 460.474,275.313 				"/>
			</g>
		</g>
		<g>
			<path style="fill:#F7B24D;" d="M642.062,204.154l-1.066,8.197c-0.111,0.853,0.312,1.687,1.066,2.101l7.245,3.979
				c1.72,0.945,1.307,3.525-0.622,3.885l-8.125,1.519c-0.846,0.158-1.508,0.818-1.669,1.663l-1.545,8.12
				c-0.367,1.928-2.948,2.332-3.887,0.609l-3.956-7.258c-0.412-0.755-1.244-1.181-2.098-1.073l-8.2,1.04
				c-1.947,0.247-3.129-2.083-1.781-3.509l5.68-6.005c0.591-0.625,0.739-1.548,0.372-2.326l-3.523-7.478
				c-0.836-1.775,1.014-3.62,2.787-2.778l7.466,3.547c0.777,0.369,1.701,0.224,2.328-0.365l6.023-5.661
				C639.988,201.018,642.315,202.208,642.062,204.154z"/>
			<path style="fill:#F7B24D;" d="M663.115,361.47l-5.573,9.214c-0.58,0.959-0.513,2.175,0.169,3.064l6.551,8.546
				c1.555,2.029-0.291,4.888-2.78,4.306l-10.485-2.453c-1.091-0.255-2.227,0.184-2.862,1.107l-6.103,8.871
				c-1.449,2.106-4.739,1.234-4.955-1.313l-0.907-10.729c-0.094-1.117-0.864-2.061-1.938-2.38l-10.323-3.063
				c-2.451-0.727-2.638-4.126-0.282-5.118l9.924-4.178c1.033-0.435,1.693-1.458,1.665-2.578l-0.276-10.764
				c-0.066-2.555,3.109-3.784,4.78-1.85l7.041,8.147c0.733,0.848,1.91,1.16,2.967,0.786l10.152-3.589
				C662.288,356.643,664.437,359.283,663.115,361.47z"/>
			<path style="fill:#F7B24D;" d="M95.049,355.548l7.133,9.266c0.525,0.682,1.414,0.972,2.239,0.732l11.228-3.268
				c1.884-0.548,3.417,1.568,2.308,3.187l-6.608,9.647c-0.486,0.71-0.488,1.645-0.004,2.356l6.577,9.668
				c1.104,1.622-0.435,3.734-2.318,3.18l-11.217-3.303c-0.825-0.243-1.715,0.044-2.242,0.725l-7.162,9.243
				c-1.202,1.551-3.686,0.74-3.74-1.222l-0.325-11.689c-0.024-0.86-0.572-1.617-1.382-1.908l-11.004-3.956
				c-1.847-0.664-1.842-3.277,0.006-3.935l11.016-3.921c0.81-0.288,1.361-1.044,1.388-1.904l0.362-11.688
				C91.365,354.797,93.852,353.993,95.049,355.548z"/>
			<path style="fill:#F7B24D;" d="M179.297,122.331l4.86,6.313c0.525,0.682,1.414,0.972,2.24,0.732l7.649-2.226
				c1.884-0.548,3.417,1.568,2.308,3.187l-4.502,6.572c-0.486,0.71-0.488,1.645-0.004,2.356l4.481,6.587
				c1.104,1.622-0.436,3.734-2.318,3.18l-7.642-2.251c-0.825-0.243-1.715,0.045-2.242,0.725l-4.88,6.297
				c-1.202,1.551-3.686,0.74-3.74-1.222l-0.221-7.963c-0.024-0.86-0.572-1.617-1.382-1.908l-7.497-2.695
				c-1.847-0.664-1.842-3.277,0.006-3.935l7.505-2.671c0.81-0.288,1.361-1.044,1.388-1.904l0.246-7.962
				C175.613,121.579,178.1,120.776,179.297,122.331z"/>
			<circle style="fill:#3F568E;" cx="309.958" cy="65.669" r="6.713"/>
			<path style="fill:#3F568E;" d="M89.479,284.166c0,2.799-2.269,5.068-5.067,5.068c-2.799,0-5.068-2.269-5.068-5.068
				c0-2.799,2.269-5.068,5.068-5.068C87.21,279.099,89.479,281.367,89.479,284.166z"/>
			<circle style="fill:#3F568E;" cx="657.298" cy="184.138" r="5.631"/>
			<circle style="fill:#3F568E;" cx="79.622" cy="162.556" r="7.511"/>
			<path style="fill:#3F568E;" d="M572.902,65.678c0,2.759-2.237,4.996-4.996,4.996c-2.759,0-4.996-2.237-4.996-4.996
				c0-2.759,2.237-4.996,4.996-4.996C570.665,60.682,572.902,62.918,572.902,65.678z"/>
			<path style="fill:#3F568E;" d="M614.884,334.023c0,3.465-2.809,6.275-6.274,6.275c-3.465,0-6.274-2.809-6.274-6.275
				c0-3.465,2.809-6.274,6.274-6.274C612.075,327.749,614.884,330.558,614.884,334.023z"/>
			<g>
				<path style="fill:#243A66;" d="M82.078,344.275c-0.559,0-1.013-0.453-1.013-1.013v-30.918c0-0.56,0.453-1.013,1.013-1.013
					c0.559,0,1.013,0.453,1.013,1.013v30.918C83.091,343.822,82.637,344.275,82.078,344.275z"/>
				<path style="fill:#243A66;" d="M97.537,328.816H66.619c-0.559,0-1.013-0.453-1.013-1.013c0-0.56,0.453-1.013,1.013-1.013h30.917
					c0.559,0,1.013,0.453,1.013,1.013C98.55,328.363,98.096,328.816,97.537,328.816z"/>
				<path style="fill:#243A66;" d="M93.009,339.747c-0.259,0-0.518-0.099-0.716-0.297l-21.862-21.861
					c-0.396-0.396-0.396-1.036,0-1.432c0.396-0.396,1.037-0.396,1.432,0l21.862,21.861c0.396,0.396,0.396,1.037,0,1.432
					C93.527,339.648,93.268,339.747,93.009,339.747z"/>
				<path style="fill:#243A66;" d="M71.147,339.747c-0.259,0-0.518-0.099-0.716-0.297c-0.396-0.396-0.396-1.036,0-1.432
					l21.862-21.861c0.396-0.396,1.037-0.396,1.432,0c0.396,0.396,0.396,1.037,0,1.432L71.863,339.45
					C71.665,339.648,71.406,339.747,71.147,339.747z"/>
			</g>
			<g>
				<path style="fill:#243A66;" d="M188.944,100.968c-0.559,0-1.013-0.453-1.013-1.013V79.568c0-0.56,0.454-1.013,1.013-1.013
					s1.013,0.453,1.013,1.013v20.388C189.957,100.516,189.504,100.968,188.944,100.968z"/>
				<path style="fill:#243A66;" d="M199.138,90.775h-20.387c-0.559,0-1.013-0.453-1.013-1.013c0-0.56,0.454-1.013,1.013-1.013
					h20.387c0.559,0,1.013,0.453,1.013,1.013C200.151,90.322,199.698,90.775,199.138,90.775z"/>
				<path style="fill:#243A66;" d="M196.153,97.982c-0.259,0-0.518-0.099-0.716-0.297L181.02,83.269
					c-0.396-0.396-0.396-1.036,0-1.432c0.396-0.396,1.037-0.396,1.432,0l14.416,14.416c0.396,0.396,0.396,1.037,0,1.432
					C196.671,97.883,196.412,97.982,196.153,97.982z"/>
				<path style="fill:#243A66;" d="M181.736,97.982c-0.259,0-0.518-0.099-0.716-0.297c-0.396-0.396-0.396-1.037,0-1.432
					l14.416-14.416c0.396-0.396,1.037-0.396,1.432,0c0.396,0.396,0.396,1.037,0,1.432l-14.416,14.416
					C182.255,97.883,181.995,97.982,181.736,97.982z"/>
			</g>
			<g>
				<path style="fill:#243A66;" d="M661.591,260.187c-0.56,0-1.013-0.453-1.013-1.013v-25.467c0-0.56,0.453-1.013,1.013-1.013
					c0.56,0,1.013,0.453,1.013,1.013v25.467C662.604,259.734,662.151,260.187,661.591,260.187z"/>
				<path style="fill:#243A66;" d="M674.325,247.453h-25.468c-0.56,0-1.013-0.453-1.013-1.013c0-0.56,0.453-1.013,1.013-1.013
					h25.468c0.56,0,1.013,0.453,1.013,1.013C675.338,247,674.885,247.453,674.325,247.453z"/>
				<path style="fill:#243A66;" d="M670.595,256.457c-0.259,0-0.518-0.099-0.716-0.297l-18.008-18.008
					c-0.396-0.396-0.396-1.037,0-1.432c0.396-0.396,1.037-0.396,1.432,0l18.008,18.008c0.396,0.396,0.396,1.037,0,1.432
					C671.113,256.358,670.854,256.457,670.595,256.457z"/>
				<path style="fill:#243A66;" d="M652.587,256.457c-0.259,0-0.518-0.099-0.716-0.297c-0.396-0.396-0.396-1.036,0-1.432
					l18.008-18.008c0.396-0.396,1.036-0.396,1.432,0c0.396,0.396,0.396,1.036,0,1.432l-18.008,18.008
					C653.106,256.358,652.846,256.457,652.587,256.457z"/>
			</g>
			<g>
				<path style="fill:#243A66;" d="M611.351,96.302c-0.56,0-1.013-0.453-1.013-1.013V70.831c0-0.56,0.453-1.013,1.013-1.013
					c0.56,0,1.013,0.453,1.013,1.013v24.459C612.363,95.849,611.91,96.302,611.351,96.302z"/>
				<path style="fill:#243A66;" d="M623.58,84.073h-24.46c-0.56,0-1.013-0.453-1.013-1.013c0-0.56,0.453-1.013,1.013-1.013h24.46
					c0.56,0,1.013,0.453,1.013,1.013C624.593,83.62,624.14,84.073,623.58,84.073z"/>
				<path style="fill:#243A66;" d="M619.998,92.721c-0.259,0-0.518-0.099-0.716-0.297l-17.295-17.295
					c-0.396-0.396-0.396-1.037,0-1.432c0.396-0.396,1.037-0.396,1.432,0l17.295,17.296c0.396,0.396,0.396,1.037,0,1.432
					C620.517,92.622,620.258,92.721,619.998,92.721z"/>
				<path style="fill:#243A66;" d="M602.703,92.721c-0.259,0-0.518-0.099-0.716-0.297c-0.396-0.396-0.396-1.036,0-1.432
					l17.295-17.296c0.396-0.396,1.037-0.396,1.432,0c0.396,0.396,0.396,1.037,0,1.432l-17.295,17.295
					C603.221,92.622,602.962,92.721,602.703,92.721z"/>
			</g>
			<g>
				<path style="fill:#243A66;" d="M664.215,330.552H637.33c-0.56,0-1.013-0.453-1.013-1.013v-26.885
					c0-0.56,0.453-1.013,1.013-1.013h26.885c0.56,0,1.013,0.453,1.013,1.013v26.885
					C665.227,330.099,664.774,330.552,664.215,330.552z M638.343,328.526h24.859v-24.859h-24.859V328.526z"/>
				<polygon style="fill:#D14A67;" points="659.687,310.387 656.401,307.096 651.071,312.426 645.743,307.096 642.452,310.381 
					647.784,315.713 642.452,321.045 645.737,324.33 651.07,318.999 656.401,324.33 659.687,321.045 654.357,315.714 				"/>
			</g>
			<g>
				<path style="fill:#243A66;" d="M152.656,107.736h-26.884c-0.559,0-1.013-0.453-1.013-1.013V79.838
					c0-0.56,0.454-1.013,1.013-1.013h26.884c0.559,0,1.013,0.453,1.013,1.013v26.885
					C153.668,107.283,153.215,107.736,152.656,107.736z M126.784,105.71h24.859V80.851h-24.859V105.71z"/>
				<polygon style="fill:#3F568E;" points="149.178,89.43 137.609,100.998 130.973,94.362 134.265,91.08 137.609,94.425 
					145.896,86.138 				"/>
			</g>
		</g>
		<g>
			<g>
				<g>
					<g>
						
							<rect x="114.937" y="229.382" transform="matrix(0.6572 -0.7537 0.7537 0.6572 -140.5831 172.0637)" style="fill:#F48B19;" width="7.867" height="22.407"/>
						
							<rect x="108.309" y="232.396" transform="matrix(0.6572 -0.7537 0.7537 0.6572 -138.4994 165.0882)" style="fill:#F2681C;" width="7.867" height="4.819"/>
						<path style="fill:#F48B19;" d="M95.746,250.055c-5.082,5.829-14.613,4.536-17.724-2.544
							c-5.339-12.15-3.581-26.815,5.719-37.481s23.589-14.403,36.353-10.769c7.438,2.118,10.016,11.384,4.934,17.212L95.746,250.055
							z"/>
						<path style="fill:#243A66;" d="M78.023,248.524c-0.39,0-0.761-0.226-0.928-0.605c-4.157-9.461-4.1-20.272,0.156-29.66
							c0.23-0.51,0.829-0.735,1.341-0.504c0.509,0.231,0.735,0.832,0.504,1.341c-4.019,8.865-4.072,19.074-0.146,28.008
							c0.225,0.512-0.008,1.11-0.52,1.334C78.297,248.497,78.159,248.524,78.023,248.524z"/>
						<path style="fill:#F2681C;" d="M120.094,199.262c-12.764-3.635-27.053,0.103-36.353,10.769
							c-1.451,1.664-2.696,3.434-3.782,5.268c9.029-7.167,20.876-9.372,31.649-6.304c7.438,2.118,10.016,11.384,4.934,17.212
							l8.487-9.733C130.11,210.646,127.532,201.38,120.094,199.262z"/>
						<path style="fill:#F7B24D;" d="M87.992,205.907c-1.512,1.229-2.933,2.606-4.256,4.124c-1.323,1.518-2.487,3.105-3.499,4.77
							l-1.239-1.659c-0.842-1.134-0.789-2.712,0.139-3.776l3.315-3.802c0.934-1.072,2.49-1.34,3.728-0.66L87.992,205.907z"/>
					</g>
					<g>
						
							<rect x="197.553" y="204.28" transform="matrix(0.1438 -0.9896 0.9896 0.1438 -27.3071 384.8658)" style="fill:#F48B19;" width="22.407" height="7.867"/>
						
							<rect x="207.61" y="195.578" transform="matrix(0.1438 -0.9896 0.9896 0.1438 -17.613 378.6654)" style="fill:#F2681C;" width="4.819" height="7.867"/>
						<path style="fill:#F48B19;" d="M188.263,193.914c-7.653-1.112-11.732-9.822-7.468-16.273
							c7.317-11.072,20.594-17.544,34.597-15.509c14.003,2.034,24.89,12.017,28.754,24.713c2.252,7.398-4.137,14.587-11.79,13.476
							L188.263,193.914z"/>
						<path style="fill:#F2681C;" d="M244.145,186.844c-3.864-12.696-14.75-22.679-28.754-24.713
							c-2.185-0.317-4.348-0.405-6.477-0.323c10.917,3.703,19.191,12.464,22.452,23.179c2.252,7.398-4.138,14.587-11.79,13.476
							l12.779,1.857C240.008,201.431,246.397,194.242,244.145,186.844z"/>
						<path style="fill:#F7B24D;" d="M221.161,163.468c-1.852-0.605-3.78-1.052-5.772-1.342c-1.992-0.29-3.957-0.407-5.905-0.355
							l0.722-1.94c0.496-1.323,1.852-2.133,3.248-1.93l4.992,0.725c1.407,0.204,2.476,1.366,2.575,2.776L221.161,163.468z"/>
					</g>
				</g>
				<g>
					<path style="fill:#F48B19;" d="M172.567,409.373L172.567,409.373c-4.506,0.425-8.503-2.883-8.928-7.388l-4.44-47.059
						l31.84-3.004L179.8,402.977C179.035,406.454,176.112,409.039,172.567,409.373z"/>
					<path style="fill:#F48B19;" d="M276.159,372.103L276.159,372.103c3.732-2.56,4.682-7.661,2.122-11.393l-26.737-38.979
						l-26.374,18.091l41.337,32.003C269.322,374.004,273.223,374.116,276.159,372.103z"/>
				</g>
				
					<ellipse transform="matrix(0.7071 -0.7071 0.7071 0.7071 -151.0467 218.3049)" style="fill:#F7B24D;" cx="187.994" cy="291.482" rx="83.103" ry="83.103"/>
				
					<ellipse transform="matrix(0.7071 -0.7071 0.7071 0.7071 -151.0467 218.3049)" style="fill:#F7B24D;" cx="187.994" cy="291.482" rx="83.103" ry="83.103"/>
				<path style="fill:#243A66;" d="M187.97,375.587c-9.231,0-18.457-1.51-27.259-4.535c-0.529-0.181-0.811-0.758-0.629-1.287
					c0.182-0.528,0.759-0.81,1.287-0.628c17.637,6.059,37.024,5.89,54.593-0.477c0.527-0.186,1.107,0.082,1.297,0.607
					c0.191,0.526-0.081,1.107-0.607,1.298C207.418,373.911,197.691,375.587,187.97,375.587z"/>
				<path style="fill:#243A66;" d="M227.571,219.421c-0.163,0-0.328-0.04-0.481-0.122c-20.607-11.151-45.051-12.972-67.063-4.996
					c-0.525,0.189-1.107-0.082-1.297-0.607c-0.191-0.526,0.081-1.107,0.607-1.298c22.555-8.174,47.602-6.308,68.718,5.119
					c0.492,0.267,0.675,0.881,0.408,1.373C228.279,219.229,227.931,219.421,227.571,219.421z"/>
				<g>
					<defs>
						
							<ellipse id="SVGID_1_" transform="matrix(0.7071 -0.7071 0.7071 0.7071 -151.0467 218.3049)" cx="187.994" cy="291.482" rx="69.582" ry="69.582"/>
					</defs>
					<clipPath id="SVGID_00000106116709893088142570000005608877877470282652_">
						<use xlink:href="#SVGID_1_"  style="overflow:visible;"/>
					</clipPath>
					<g style="clip-path:url(#SVGID_00000106116709893088142570000005608877877470282652_);">
						
							<rect x="88.082" y="219.834" transform="matrix(0.9402 -0.3407 0.3407 0.9402 -88.0639 81.4887)" style="fill:#3F568E;" width="199.836" height="143.329"/>
						<g>
							<g>
								<polygon style="fill:#FFFFFF;" points="195.982,266.354 178.694,218.646 172.14,221.021 190.737,272.343 173.626,278.543 
									155.029,227.222 155.029,227.222 148.475,229.596 165.763,277.304 71.302,262.738 74.009,270.209 91.51,272.908 
									160.024,283.472 145.652,288.68 76.859,278.073 79.566,285.543 131.998,293.628 88.241,309.484 90.616,316.038 
									160.005,290.894 160.005,290.894 174.377,285.686 176.001,285.097 176.001,285.097 193.112,278.897 194.736,278.308 
									194.737,278.308 209.109,273.1 278.497,247.956 276.122,241.402 232.366,257.258 267.447,217.461 264.74,209.99 
									218.712,262.206 204.34,267.414 261.89,202.127 261.89,202.127 259.183,194.656 								"/>
								<polygon style="fill:#FFFFFF;" points="215.995,292.103 201.623,297.311 199.999,297.9 182.887,304.1 182.887,304.1 
									181.263,304.689 166.891,309.897 166.891,309.897 97.503,335.041 99.877,341.595 143.634,325.739 108.553,365.536 
									111.26,373.007 111.26,373.007 157.288,320.791 171.66,315.583 114.11,380.87 116.817,388.341 180.018,316.643 
									197.306,364.351 203.86,361.976 203.86,361.976 185.262,310.654 202.373,304.454 220.971,355.775 227.525,353.4 
									210.237,305.693 304.698,320.259 301.99,312.788 301.99,312.788 265.353,307.138 215.976,299.525 230.348,294.316 
									283.03,302.44 299.141,304.924 296.434,297.454 244.002,289.369 287.758,273.513 285.383,266.959 215.995,292.103 								
									"/>
							</g>
							<polygon style="fill:#D14A67;" points="218.712,262.206 264.74,209.99 261.89,202.127 204.34,267.414 							"/>
							<polygon style="fill:#D14A67;" points="160.024,283.472 91.51,272.908 74.009,270.209 76.859,278.073 145.652,288.68 							
								"/>
							<polygon style="fill:#D14A67;" points="157.288,320.791 111.26,373.007 114.11,380.87 171.66,315.583 							"/>
							<polygon style="fill:#D14A67;" points="230.348,294.316 215.976,299.525 265.353,307.138 301.99,312.788 299.141,304.924 
								283.03,302.44 							"/>
							<polygon style="fill:#D14A67;" points="209.109,273.1 194.736,278.308 193.112,278.897 172.14,221.021 155.029,227.221 
								176.001,285.097 176.001,285.097 174.377,285.686 160.005,290.894 90.616,316.038 97.503,335.041 166.891,309.897 
								166.891,309.897 181.263,304.689 182.887,304.1 182.887,304.1 185.262,310.654 191.599,328.14 203.86,361.976 
								220.971,355.775 208.71,321.94 202.373,304.454 199.998,297.9 201.623,297.311 215.995,292.103 285.383,266.959 
								278.497,247.956 							"/>
						</g>
					</g>
				</g>
			</g>
			<path style="opacity:0.45;fill:#243A66;" d="M212.724,226.463c14.033,7.879,25.424,20.618,31.337,36.936
				c13.092,36.13-5.583,76.032-41.713,89.125c-16.317,5.913-33.397,5.328-48.436-0.4c17.038,9.566,37.976,11.957,57.788,4.777
				c36.13-13.092,54.805-52.995,41.713-89.125C246.233,247.964,230.985,233.418,212.724,226.463z"/>
		</g>
		<g>
			<polygon style="fill:#E1E5EA;" points="489.702,184.393 494.447,199.488 589.38,249.011 644.499,143.351 642.692,119.811 			"/>
			<polygon style="fill:#D14A67;" points="501.819,200.567 497.074,185.472 643.004,123.87 642.692,119.811 489.702,184.393 
				494.447,199.488 589.38,249.011 590.515,246.836 			"/>
			<polyline style="fill:#D14A67;" points="643.774,134.334 587.339,242.517 492.406,192.994 494.447,199.488 589.38,249.011 
				647.929,136.776 			"/>
			
				<rect x="513.311" y="88.092" transform="matrix(0.8866 0.4625 -0.4625 0.8866 134.5494 -244.6277)" style="fill:#D14A67;" width="105.772" height="128.02"/>
			<path style="fill:#243A66;" d="M505.728,154.683c-0.157,0-0.318-0.037-0.468-0.115c-0.496-0.259-0.687-0.87-0.429-1.367
				l26.966-51.692c0.259-0.495,0.868-0.688,1.367-0.429c0.495,0.259,0.687,0.87,0.429,1.367l-26.966,51.692
				C506.446,154.485,506.093,154.683,505.728,154.683z"/>
			<g>
				<g>
					<path style="fill:#F7B24D;" d="M547.123,117.25c-0.284-0.274-0.307-0.636-0.071-1.089l8.957-17.17
						c0.175-0.335,0.378-0.868,0.609-1.6c0.18-0.682,0.374-1.221,0.58-1.615l0.046-0.089c0.622-0.377,1.053-0.603,1.293-0.678
						c0.276,0.144,0.661,0.295,1.156,0.452c0.454,0.137,0.84,0.288,1.154,0.452c0.315,0.164,0.572,0.418,0.771,0.758
						c0.198,0.341,0.229,0.641,0.096,0.896c-0.308,0.591-0.916,0.651-1.823,0.178l-0.414-0.216
						c-0.108-0.081-0.241-0.163-0.398-0.245c-0.177-0.092-0.292-0.139-0.34-0.14c-0.349,0.669-0.732,1.497-1.146,2.485l-0.372,0.858
						l-0.789,1.656c-0.196,0.375-0.523,0.931-0.983,1.668l-0.922,1.624l0.46,0.127c0.456,0.088,0.812,0.198,1.067,0.331
						c0.217,0.113,0.371,0.3,0.461,0.559c0.09,0.261,0.078,0.498-0.035,0.715c-0.123,0.236-0.308,0.409-0.553,0.52
						c-0.246,0.11-0.476,0.108-0.692-0.005l-0.34-0.215l-0.384-0.2c-0.295-0.154-0.538-0.193-0.729-0.116l-4.763,9.131l1.701,0.775
						c1.122,0.586,1.551,1.135,1.284,1.648l-0.062,0.118c-0.242,0.174-0.559,0.252-0.951,0.236
						c-0.392-0.016-0.746-0.082-1.062-0.197l-0.991-0.479l-0.916-0.478C547.647,117.711,547.348,117.493,547.123,117.25z"/>
					<path style="fill:#F7B24D;" d="M562.465,118.035c1.097-5.467,2.182-10.453,3.255-14.957l-5.057,9.693
						c-0.432,0.828-1.088,2.278-1.969,4.35c-0.993,2.239-1.653,3.674-1.982,4.304c-0.093,0.177-0.281,0.273-0.564,0.288
						c-0.284,0.015-0.564-0.049-0.84-0.193c-0.414-0.216-0.538-0.481-0.374-0.796l0.506-0.827c0.367-0.609,0.604-1.013,0.706-1.21
						c0.545-1.044,1.349-2.73,2.413-5.058c1.084-2.367,1.755-3.796,2.012-4.289l1.973-3.783c0.318-0.61,0.821-1.501,1.507-2.672
						c0.623-1.003,1.136-1.889,1.537-2.658l0.092-0.177c0.514-0.985,0.987-1.364,1.42-1.138c0.256,0.133,0.356,0.736,0.298,1.809
						c-0.09,1.758-0.589,4.73-1.495,8.919c-0.539,2.426-1.297,5.514-2.276,9.263c0.022-0.089-0.176,0.674-0.591,2.286l-0.047,0.163
						c0.997-1.911,1.91-3.615,2.741-5.111l2.742-5.112l4.563-8.747c0.336-0.452,0.78-0.534,1.332-0.246
						c0.532,0.277,0.597,0.8,0.196,1.569l-0.093,0.177c-0.241,0.175-0.45,0.43-0.624,0.764c-0.627,1.202-1.602,2.999-2.925,5.392
						c-1.334,2.413-2.319,4.229-2.956,5.451l-4.702,9.014c-0.164,0.315-0.404,0.572-0.722,0.77
						c-0.316,0.198-0.592,0.235-0.828,0.112C561.318,125.181,561.57,122.731,562.465,118.035z"/>
					<path style="fill:#F7B24D;" d="M568.967,128.345c-0.325-0.771-0.426-1.851-0.302-3.24c0.095-0.903,0.409-2.08,0.941-3.532
						c0.437-1.175,0.913-2.255,1.428-3.241c0.113-0.266,0.335-0.714,0.664-1.344l0.524-1.005l0.616-1.181
						c0.442-0.847,1.001-1.846,1.677-2.998c0.602-0.963,1.295-1.906,2.076-2.826c0.79-0.891,1.617-1.563,2.48-2.015
						c0.883-0.492,1.82-0.679,2.813-0.563c0.564,0.119,1.063,0.292,1.496,0.517c0.828,0.432,1.098,0.924,0.81,1.476
						c-0.113,0.217-0.277,0.35-0.491,0.401c-0.215,0.052-0.44,0.016-0.677-0.108c-0.078-0.041-0.202-0.143-0.367-0.304l-0.383-0.275
						c-0.375-0.196-0.768-0.256-1.182-0.184c-0.414,0.072-0.833,0.273-1.256,0.604c-0.946,0.709-1.792,1.584-2.534,2.625
						c-0.936,1.266-1.682,2.407-2.235,3.421c-0.503,0.866-1.011,1.792-1.525,2.777l-0.416,0.798
						c-0.163,0.266-0.353,0.605-0.569,1.018c-0.524,1.005-0.988,2.016-1.393,3.033c-0.518,1.184-0.815,2.282-0.892,3.294
						c-0.169,1.091,0.005,2.008,0.519,2.752c0.231,0.372,0.594,0.687,1.086,0.944c0.867,0.452,1.812,0.418,2.834-0.101
						c0.34-0.7,0.642-1.4,0.909-2.102c0.265-0.7,0.382-1.211,0.347-1.529c-0.019-0.01-0.067-0.028-0.14-0.054
						c-0.075-0.026-0.186-0.066-0.333-0.118l-0.74-0.311c-0.67-0.35-0.857-0.81-0.559-1.381c0.093-0.177,0.274-0.284,0.542-0.319
						c0.268-0.035,0.586,0.005,0.953,0.121c0.623,0.149,1.152,0.337,1.585,0.563c0.394,0.206,0.623,0.513,0.685,0.922
						c0.062,0.408-0.024,0.839-0.261,1.292c-0.34,0.651-0.703,1.589-1.092,2.814c-0.379,1.206-0.738,2.134-1.077,2.784
						c-0.113,0.217-0.28,0.367-0.499,0.453c-0.22,0.086-0.429,0.077-0.625-0.026c-0.493-0.257-0.72-0.639-0.682-1.145l0.015-0.03
						l-0.819-0.014c-0.766,0.027-1.355-0.068-1.769-0.284C570.064,130.157,569.337,129.364,568.967,128.345z"/>
					<path style="fill:#F7B24D;" d="M578.425,133.599c-0.109-0.295-0.097-0.571,0.036-0.827c0.092-0.177,0.245-0.373,0.458-0.589
						c0.203-0.244,0.34-0.436,0.412-0.574c0.914-1.753,2.573-5.174,4.977-10.261c2.022-4.358,3.677-7.768,4.962-10.231
						c0.092-0.177,0.235-0.284,0.43-0.321c0.194-0.036,0.391-0.004,0.587,0.099c0.236,0.123,0.399,0.316,0.49,0.576
						c0.089,0.26,0.073,0.508-0.05,0.745c-0.617,1.183-1.482,2.986-2.598,5.412c-1.269,2.671-2.144,4.47-2.627,5.396l-0.155,0.37
						l-0.185,0.355l-0.108,0.207l-0.077,0.148c-0.835,1.745-2.142,4.322-3.92,7.73l-0.401,0.768l2.275,1.187
						c0.259,0.511,0.312,0.914,0.157,1.211c-0.113,0.217-0.286,0.37-0.521,0.46c-0.235,0.091-0.452,0.084-0.649-0.018
						c-0.059-0.031-0.158-0.107-0.294-0.229l-0.103-0.091c-0.128-0.042-0.321-0.13-0.577-0.263l-0.503-0.262
						c-0.127-0.091-0.28-0.184-0.457-0.276c-0.321,0.133-0.657,0.108-1.012-0.077C578.717,134.107,578.535,133.893,578.425,133.599z
						"/>
					<path style="fill:#F7B24D;" d="M584.97,135.791c0.247-0.474,0.666-0.556,1.256-0.248l0.354,0.185
						c0.068,0.061,0.152,0.117,0.25,0.168c0.158,0.082,0.296,0.092,0.417,0.03c0.12-0.062,0.248-0.222,0.381-0.477
						c0.873-1.674,1.967-4.012,3.28-7.011c1.395-3.106,2.493-5.428,3.295-6.965c0.287-0.551,0.56-1.049,0.816-1.492l0.816-1.492
						c0.339-0.65,0.592-1.207,0.759-1.671c-0.258-0.035-0.505-0.113-0.741-0.236c-0.453-0.236-0.556-0.592-0.309-1.064
						c0.123-0.236,0.374-0.369,0.751-0.397c0.378-0.028,0.814,0.036,1.308,0.194c0.9,0.295,1.635,0.59,2.206,0.888
						c0.237,0.124,0.398,0.307,0.483,0.552c0.085,0.245,0.072,0.476-0.041,0.692c-0.113,0.217-0.275,0.371-0.485,0.461
						c-0.211,0.091-0.414,0.085-0.611-0.018c-0.118-0.062-0.212-0.122-0.28-0.184l-0.236-0.123c-0.197-0.103-0.363-0.132-0.497-0.09
						c-0.136,0.042-0.265,0.182-0.388,0.418c-1.089,2.088-2.461,5.031-4.117,8.829c-1.768,3.965-3.156,6.913-4.163,8.844
						l-0.586,1.122c0.148,0.052,0.351,0.145,0.607,0.279c0.827,0.431,1.06,0.992,0.701,1.682l-0.093,0.177l-1,0.117
						c-0.02-0.011-0.082-0.036-0.185-0.078c-0.104-0.041-0.303-0.139-0.6-0.293c-0.69-0.309-1.115-0.506-1.271-0.588
						C585.354,137.119,584.662,136.382,584.97,135.791z"/>
					<path style="fill:#F7B24D;" d="M592.479,141.211c-0.223-0.342-0.272-0.63-0.149-0.867c0.123-0.236,0.283-0.398,0.478-0.484
						c0.195-0.086,0.401-0.073,0.618,0.04c0.197,0.103,0.441,0.331,0.733,0.684c0.332,0.374,0.547,0.586,0.646,0.638
						c0.374,0.195,0.799,0.209,1.274,0.044c0.474-0.166,0.94-0.468,1.395-0.908c0.868-0.8,1.508-1.595,1.919-2.383
						c0.442-0.846,0.773-1.808,0.995-2.882c0.223-1.075,0.339-2.174,0.348-3.296l0.021-1.193c0.021-1.242,0.048-2.218,0.08-2.928
						c0.032-0.71,0.124-1.451,0.277-2.224c0.198-1.099,0.528-2.093,0.99-2.979c0.37-0.71,0.842-1.315,1.417-1.817
						s1.222-0.841,1.942-1.017c0.738-0.216,1.473-0.134,2.202,0.245c0.355,0.185,0.646,0.469,0.873,0.851
						c0.227,0.382,0.327,0.767,0.3,1.153l-0.826,0.358c-0.512-0.267-0.845-0.565-0.999-0.897c-0.375-0.145-0.775-0.134-1.2,0.032
						c-0.426,0.166-0.81,0.41-1.153,0.733c-0.314,0.313-0.568,0.656-0.763,1.031c-0.391,0.749-0.686,1.565-0.885,2.451
						c-0.2,0.887-0.311,1.762-0.336,2.626l-0.09,5.216c-0.035,0.884-0.185,1.821-0.45,2.81c-0.266,0.99-0.63,1.927-1.092,2.813
						c-0.678,1.301-1.632,2.358-2.858,3.171c-0.644,0.417-1.32,0.659-2.032,0.727c-0.712,0.066-1.393-0.07-2.043-0.409
						C593.402,142.181,592.858,141.734,592.479,141.211z"/>
					<path style="fill:#F7B24D;" d="M606.349,148.316c-0.031-0.254,0.026-0.519,0.17-0.795c2.148-4.118,3.884-7.636,5.206-10.556
						c-0.432-0.325-0.746-0.539-0.943-0.642c-0.809-0.422-1.425-0.656-1.851-0.703c-0.576,1.104-1.356,2.815-2.34,5.133
						c-1.076,2.446-1.871,4.163-2.385,5.147c-0.102,0.197-0.257,0.348-0.462,0.454c-0.206,0.106-0.397,0.113-0.574,0.021
						c-0.257-0.134-0.256-0.71-0.001-1.73c0.384-1.504,1.592-4.444,3.626-8.823c1.372-2.968,2.928-6.117,4.665-9.446
						c0.298-0.621,0.741-1.493,1.327-2.616c0.185-0.354,0.444-0.445,0.779-0.27c0.197,0.103,0.374,0.257,0.529,0.464
						c0.155,0.207,0.251,0.394,0.288,0.563c-0.407,0.59-0.833,1.308-1.274,2.155c-0.431,0.827-0.916,1.853-1.455,3.076
						c-0.649,1.39-1.154,2.43-1.513,3.12l-0.277,0.532c-0.103,0.147-0.21,0.33-0.323,0.547c-0.103,0.197-0.217,0.463-0.342,0.799
						c0.118,0.062,0.32,0.155,0.606,0.279c0.286,0.125,0.577,0.239,0.873,0.343c0.682,0.281,1.179,0.502,1.495,0.667
						c0.894-1.714,1.702-3.31,2.423-4.788l2.516-4.966l0.416-0.798c0.256,0.133,0.46,0.296,0.61,0.487
						c0.15,0.191,0.238,0.382,0.267,0.572c0.064,0.309-0.023,0.74-0.261,1.292l-0.355,0.68c-0.884,1.695-2.477,4.986-4.777,9.877
						c-2.084,4.426-3.691,7.723-4.822,9.891c-0.144,0.276-0.357,0.477-0.637,0.607c-0.28,0.13-0.538,0.133-0.774,0.009
						C606.523,148.763,606.379,148.569,606.349,148.316z"/>
				</g>
				<g>
					<path style="fill:#F7B24D;" d="M535.203,146.133c0.247-0.474,0.676-0.551,1.287-0.232l0.325,0.169l0.28,0.184
						c0.158,0.082,0.291,0.09,0.402,0.022c0.11-0.067,0.233-0.23,0.366-0.486c0.175-0.335,0.428-0.868,0.758-1.597
						c0.187-0.504,0.56-1.387,1.119-2.649c1.396-3.107,2.494-5.429,3.296-6.966c0.287-0.551,0.56-1.048,0.815-1.491l0.816-1.492
						c0.34-0.651,0.592-1.207,0.759-1.672c-0.357-0.086-0.604-0.165-0.741-0.236c-0.474-0.247-0.587-0.607-0.34-1.079
						c0.124-0.237,0.379-0.367,0.768-0.39c0.388-0.023,0.828,0.045,1.323,0.202c0.87,0.254,1.61,0.539,2.221,0.858
						c0.236,0.123,0.394,0.312,0.475,0.568c0.08,0.254,0.064,0.491-0.049,0.707c-0.113,0.217-0.275,0.371-0.486,0.462
						c-0.211,0.091-0.415,0.084-0.611-0.018c-0.118-0.062-0.212-0.123-0.28-0.184l-0.236-0.123
						c-0.198-0.103-0.363-0.134-0.498-0.091c-0.135,0.042-0.264,0.183-0.387,0.419c-0.997,1.912-2.38,4.85-4.147,8.815
						c-0.331,0.729-0.796,1.814-1.398,3.255c-0.374,0.958-0.808,1.909-1.302,2.855l-0.586,1.122c0.128,0.042,0.33,0.135,0.606,0.279
						c0.828,0.432,1.062,0.993,0.702,1.683l-0.093,0.177l-1,0.117c-0.02-0.011-0.087-0.039-0.2-0.086
						c-0.113-0.046-0.319-0.147-0.614-0.301c-0.651-0.289-1.065-0.48-1.242-0.573C535.599,147.467,534.895,146.724,535.203,146.133z
						"/>
					<path style="fill:#F7B24D;" d="M542.113,150.94c-0.144-0.325-0.153-0.656-0.027-0.991l0.587-0.334
						c0.118,0.062,0.284,0.199,0.5,0.411c0.265,0.213,0.475,0.361,0.633,0.443c0.354,0.185,0.757,0.195,1.207,0.029
						c0.449-0.166,0.878-0.468,1.283-0.909c0.749-0.813,1.319-1.592,1.71-2.342c0.678-1.3,0.979-2.885,0.902-4.755l-0.032-0.731
						c-0.036-0.845-0.048-1.592-0.037-2.237c0.011-0.646,0.082-1.31,0.214-1.994c0.164-0.891,0.447-1.722,0.848-2.49
						c0.452-0.867,1.122-1.671,2.009-2.41c0.433-0.351,0.907-0.574,1.42-0.669c0.513-0.096,0.997-0.025,1.45,0.211
						c0.354,0.185,0.625,0.47,0.813,0.857c0.188,0.385,0.199,0.736,0.035,1.051c-0.093,0.178-0.234,0.28-0.423,0.307
						c-0.19,0.027-0.384-0.012-0.58-0.115c-0.217-0.113-0.393-0.28-0.528-0.501c-0.444-0.207-0.989-0.003-1.636,0.612
						c-0.577,0.577-0.983,1.091-1.219,1.545c-0.298,0.571-0.51,1.194-0.636,1.867c-0.126,0.674-0.174,1.32-0.145,1.937l0.034,1.52
						l0.017,2.49c-0.013,0.695-0.125,1.452-0.338,2.267c-0.212,0.817-0.515,1.6-0.905,2.348c-0.628,1.203-1.5,2.202-2.615,2.997
						c-0.564,0.408-1.184,0.648-1.861,0.721c-0.678,0.073-1.321-0.05-1.932-0.369l-0.046,0.089
						C542.49,151.55,542.257,151.265,542.113,150.94z"/>
					<path style="fill:#F7B24D;" d="M556.856,156.225c1.192-2.286,2.996-5.994,5.41-11.126c2.414-5.131,3.603-7.881,3.57-8.25
						c0.287-0.551,0.724-0.862,1.312-0.931c0.209-0.016,0.474,0.015,0.796,0.095c0.321,0.081,0.601,0.182,0.837,0.306
						c0.128,0.042,0.38,0.161,0.754,0.356c0.453,0.236,0.74,0.479,0.86,0.73c0.12,0.25,0.082,0.564-0.113,0.937
						c-0.113,0.217-0.278,0.339-0.491,0.365c-0.214,0.026-0.439-0.023-0.676-0.147l-0.28-0.184l-0.414-0.216
						c-0.552-0.288-0.884-0.322-0.997-0.105c-0.535,1.025-1.165,2.4-1.89,4.127c-0.601,1.441-1.206,2.791-1.814,4.054
						c0.158,0.032,0.453,0.104,0.884,0.216c0.43,0.112,0.744,0.218,0.942,0.321c0.216,0.113,0.354,0.304,0.414,0.574
						c0.06,0.27,0.028,0.523-0.095,0.759c-0.144,0.276-0.375,0.406-0.692,0.39c-0.05,0-0.167-0.006-0.351-0.013
						c-0.184-0.008-0.398-0.064-0.645-0.168c-0.189-0.073-0.5-0.197-0.933-0.374l-0.325-0.169c-0.617,1.182-1.357,2.84-2.218,4.972
						c-0.933,2.22-1.682,3.873-2.247,4.955l-0.091,0.103l-0.06,0.044c-0.022,0.09-0.079,0.223-0.171,0.4
						c-0.133,0.256-0.327,0.411-0.581,0.466c-0.254,0.055-0.529,0.006-0.825-0.148C556.155,158.265,556.199,157.486,556.856,156.225
						z"/>
					<path style="fill:#F7B24D;" d="M564.859,162.938c-0.266-0.403-0.415-0.862-0.447-1.38c-0.041-1.075,0.142-2.169,0.549-3.286
						c0.334-0.978,0.831-2.097,1.489-3.358c1.051-2.16,2.378-4.775,3.981-7.848l1.158-2.292c0.041-0.129,0.135-0.33,0.279-0.606
						c0.351-0.769,0.568-1.233,0.65-1.39c0.393-0.321,0.708-0.42,0.944-0.297c0.236,0.123,0.356,0.411,0.358,0.863
						c0.001,0.453-0.105,0.886-0.32,1.3l-4.193,8.038c-0.411,0.788-0.888,1.868-1.428,3.241c-0.705,1.687-1.181,2.767-1.427,3.24
						c-0.761,1.459-0.52,2.51,0.721,3.158c1.418,0.74,4.892-4.189,10.422-14.789l0.863-1.655l0.139-0.266
						c0.01-0.07,0.042-0.153,0.094-0.252c0.123-0.236,0.267-0.38,0.432-0.433c0.164-0.052,0.405,0.005,0.72,0.17
						c0.256,0.133,0.42,0.312,0.491,0.537c0.071,0.225,0.074,0.447,0.011,0.664c-0.042,0.128-0.151,0.361-0.325,0.696
						c-0.164,0.315-0.456,0.801-0.874,1.46c-0.378,0.531-0.673,1.003-0.889,1.416c-0.236,0.453-0.467,0.846-0.692,1.181l-0.706,1.21
						l-0.123,0.236c-0.022,0.09-0.058,0.184-0.11,0.282c-4.563,8.747-8.115,12.458-10.656,11.132
						C565.495,163.664,565.125,163.34,564.859,162.938z"/>
					<path style="fill:#F7B24D;" d="M581.295,171.21c-0.052-0.189-0.025-0.457,0.081-0.803l0.116-0.655l0.031-0.059l0.046-0.089
						c0.339-0.65,0.82-3.218,1.444-7.705c0.624-4.487,1.024-7.837,1.201-10.05l-7.754,14.864l0.01,0.268
						c-0.001,0.05,0.002,0.14,0.01,0.268c0.008,0.13-0.015,0.244-0.066,0.343c-0.133,0.256-0.335,0.426-0.605,0.511
						c-0.27,0.085-0.533,0.06-0.788-0.073c-0.632-0.33-0.633-1.095-0.006-2.296l2.607-5.069c0.772-1.527,1.645-3.226,2.622-5.098
						c0.329-0.63,0.836-1.531,1.522-2.702c0.707-1.211,1.214-2.112,1.523-2.703c0.483-0.926,1.218-1.47,2.205-1.632l-0.092,0.177
						c0.138,0.023,0.227,0.044,0.267,0.064c0.453,0.237,0.612,1.322,0.481,3.258c-0.107,1.548-0.303,3.138-0.589,4.768
						c-0.287,1.63-0.74,3.926-1.356,6.886l-0.26,1.219c-0.379,1.832-0.63,3.155-0.754,3.968c2.604-4.03,5.411-8.932,8.422-14.705
						l0.2-0.384c0.042-0.128,0.099-0.262,0.171-0.399c0.309-0.592,0.699-0.764,1.173-0.517c0.275,0.143,0.43,0.363,0.465,0.656
						c0.035,0.294-0.035,0.609-0.21,0.944l-1.156,2.216c-1.622,3.014-3.457,6.242-5.504,9.686c-2.048,3.443-3.327,5.32-3.838,5.629
						c-0.655-0.141-1.05-0.247-1.188-0.319C581.49,171.557,581.346,171.4,581.295,171.21z"/>
				</g>
			</g>
			<path style="fill:#F7B24D;" d="M565.876,180.695c-1.26-0.657-2.779-0.507-3.903,0.362c-4.015,3.105-9.62,3.794-14.416,1.292
				c-4.796-2.502-7.438-7.493-7.189-12.562c0.07-1.419-0.676-2.751-1.936-3.408l0,0c-2.366-1.234-5.179,0.426-5.303,3.091
				c-0.364,7.788,3.715,15.45,11.082,19.293c7.367,3.843,15.985,2.805,22.164-1.95C568.489,185.186,568.241,181.93,565.876,180.695
				L565.876,180.695z"/>
		</g>
		<g>
			<path style="fill:#3F568E;" d="M527.002,284.711l4.78-16.58c0.422-1.463,0.315-3.018-0.256-4.43
				c-1.799-4.446-2.769-9.316-2.715-14.42c0.21-19.605,15.87-35.942,35.451-36.927c22.16-1.114,40.363,17.078,39.267,39.234
				c-0.962,19.438-17.062,35.058-36.519,35.475c-5.774,0.124-11.256-1.066-16.173-3.286c-1.475-0.666-3.131-0.817-4.686-0.369
				l-15.874,4.577C528.277,288.563,526.425,286.711,527.002,284.711z"/>
			<path style="fill:#243A66;" d="M589.789,221.708c-0.225,0-0.451-0.074-0.639-0.228c-6.978-5.686-15.798-8.579-24.837-8.113
				c-4.658,0.234-9.163,1.356-13.391,3.334c-0.507,0.235-1.111,0.018-1.347-0.489c-0.236-0.506-0.018-1.11,0.489-1.347
				c4.467-2.089,9.227-3.274,14.149-3.522c9.531-0.479,18.851,2.562,26.218,8.566c0.433,0.353,0.499,0.991,0.145,1.425
				C590.375,221.58,590.084,221.708,589.789,221.708z"/>
			<circle style="fill:#FFFFFF;" cx="565.235" cy="249.737" r="4.09"/>
			<g>
				<circle style="fill:#FFFFFF;" cx="547.818" cy="249.737" r="4.09"/>
				<circle style="fill:#FFFFFF;" cx="582.653" cy="249.737" r="4.09"/>
			</g>
		</g>
	</g>
</g>
</svg>
