<?xml version="1.0" encoding="utf-8"?>
<!-- Generator: Adobe Illustrator 27.5.0, SVG Export Plug-In . SVG Version: 6.00 Build 0)  -->
<svg version="1.1" xmlns="http://www.w3.org/2000/svg" xmlns:xlink="http://www.w3.org/1999/xlink" x="0px" y="0px"
	 viewBox="0 0 1200 675" style="enable-background:new 0 0 1200 675;" xml:space="preserve">
<g id="Background">
	<rect style="fill:#F0EDE2;" width="1200" height="675"/>
</g>
<g id="Graphic_Element">
	<circle style="fill:#D1496B;" cx="150.7" cy="145.535" r="68.256"/>
	<rect x="536.01" y="81.545" style="fill:#9FCFC3;" width="127.98" height="127.98"/>
	<rect x="753.999" y="102.875" style="fill:#61ACC1;" width="141.301" height="85.32"/>
	<polygon style="fill:#FFC847;" points="375.35,86.424 307.094,204.647 443.606,204.647 	"/>
	<ellipse style="fill:#B84BA9;" cx="1049.3" cy="145.535" rx="55.458" ry="74.404"/>
	<polygon style="fill:#9FCFC3;" points="218.956,321.471 167.525,321.471 167.525,270.039 133.875,270.039 133.875,321.471 
		82.444,321.471 82.444,355.12 133.875,355.12 133.875,406.552 167.525,406.552 167.525,355.12 218.956,355.12 	"/>
	<polygon style="fill:#61ACC1;" points="375.35,273.38 307.094,322.971 333.165,403.211 417.535,403.211 443.606,322.971 	"/>
	<polygon style="fill:#B84BA9;" points="659.112,372.424 659.112,304.168 600,270.039 540.888,304.168 540.888,372.424 600,406.552 
			"/>
	<polygon style="fill:#D1496B;" points="871.674,279.535 824.65,279.535 777.626,279.535 756.394,305.757 824.65,397.056 
		892.906,305.757 	"/>
	<path style="fill:#FFC847;" d="M1081.767,270.039c6.588,11.011,10.376,23.891,10.376,37.655c0,40.562-32.882,73.444-73.444,73.444
		c-13.765,0-26.644-3.788-37.655-10.376c12.826,21.436,36.271,35.789,63.068,35.789c40.562,0,73.444-32.882,73.444-73.444
		C1117.556,306.31,1103.203,282.866,1081.767,270.039z"/>
	<polygon style="fill:#B84BA9;" points="150.7,466.141 171.792,508.878 218.956,515.732 184.828,548.998 192.885,595.971 
		150.7,573.794 108.515,595.971 116.572,548.998 82.444,515.732 129.608,508.878 	"/>
	<path style="fill:#D1496B;" d="M426.564,474.838c-9.976-5.176-23.731-5.687-33.365,0.616c-4.931,3.226-17.849,17.209-17.849,21.12
		c0-3.911-12.918-17.893-17.849-21.12c-9.634-6.303-23.389-5.792-33.365-0.616c-15.228,7.903-20.648,39.035-14.648,53.559
		c6.312,15.278,22.412,23.639,35.155,32.629c17.13,12.085,30.707,30.245,30.707,30.245s13.577-18.16,30.706-30.245
		c12.743-8.991,28.844-17.351,35.155-32.629C447.212,513.873,441.792,482.741,426.564,474.838z"/>
	<polygon style="fill:#FFC847;" points="659.724,471.332 597.8,487.924 610.52,500.645 540.276,570.889 560.167,590.78 
		630.411,520.536 643.131,533.256 	"/>
	<polygon style="fill:#9FCFC3;" points="824.65,458.371 762.979,531.056 824.65,603.742 886.321,531.056 	"/>
	<path style="fill:#61ACC1;" d="M1049.3,496.928c-37.697,0-68.256,30.559-68.256,68.256h136.512
		C1117.556,527.487,1086.997,496.928,1049.3,496.928z"/>
</g>
</svg>
