<?xml version="1.0" encoding="utf-8"?>
<!-- Generator: Adobe Illustrator 27.5.0, SVG Export Plug-In . SVG Version: 6.00 Build 0)  -->
<svg version="1.1" xmlns="http://www.w3.org/2000/svg" xmlns:xlink="http://www.w3.org/1999/xlink" x="0px" y="0px"
	 viewBox="0 0 1200 1200" style="enable-background:new 0 0 1200 1200;" xml:space="preserve">
<g id="Layer_2">
	<rect style="fill:#F9F7ED;" width="1200" height="1200"/>
</g>
<g id="Layer_1">
	<g>
		<g>
			<g>
				<g>
					<path style="fill:#242423;" d="M529.781,86.764H427.624h-15.346l-43.874,39.647h-85.617v21.425h85.597l43.893,39.645v0.002
						h15.346h102.158c8.442,0,15.346-6.905,15.346-15.346v-70.025C545.128,93.67,538.223,86.764,529.781,86.764z M529.943,167.819
						c0,2.109-1.728,3.838-3.839,3.838h-98.319c-2.108,0-3.836-1.729-3.836-3.838v-0.001c0-2.109,1.729-3.837,3.836-3.837h98.319
						C528.215,163.981,529.943,165.709,529.943,167.819L529.943,167.819z M529.943,152.473c0,2.109-1.728,3.837-3.839,3.837h-98.319
						c-2.108,0-3.836-1.729-3.836-3.837v-0.001c0-2.11,1.729-3.838,3.836-3.838h98.319c2.111,0,3.839,1.728,3.839,3.838V152.473z
						 M529.943,137.124c0,2.111-1.728,3.838-3.839,3.838h-98.319c-2.108,0-3.836-1.727-3.836-3.838l0,0
						c0-2.111,1.729-3.838,3.836-3.838h98.319C528.215,133.286,529.943,135.013,529.943,137.124L529.943,137.124z M529.943,121.778
						c0,2.109-1.728,3.836-3.839,3.836h-98.319c-2.108,0-3.836-1.727-3.836-3.836v-0.001c0-2.111,1.729-3.838,3.836-3.838h98.319
						C528.215,117.939,529.943,119.666,529.943,121.778L529.943,121.778z M529.943,106.43c0,2.109-1.728,3.838-3.839,3.838h-98.319
						c-2.108,0-3.836-1.729-3.836-3.838v-0.002c0-2.109,1.729-3.837,3.836-3.837h98.319c2.111,0,3.839,1.728,3.839,3.837V106.43z"/>
				</g>
			</g>
			<path style="fill:#242423;" d="M142.581,122.897h-31.655c-6.886,0-12.47,5.582-12.47,12.469c0,6.886,5.583,12.47,12.47,12.47
				h31.655c6.884,0,12.469-5.584,12.469-12.47C155.05,128.479,149.465,122.897,142.581,122.897z M142.581,140.161h-31.655
				c-2.646,0-4.797-2.151-4.797-4.795c0-2.646,2.151-4.796,4.797-4.796h31.655c2.643,0,4.794,2.15,4.794,4.796
				C147.375,138.01,145.225,140.161,142.581,140.161z"/>
			<path style="fill:#DAA350;" d="M286.625,144.316c0,6.333-5.179,11.512-11.511,11.512H138.265
				c-6.335,0-11.511-5.179-11.511-11.512v-17.904c0-6.33,5.176-11.509,11.511-11.509h136.849c6.332,0,11.511,5.179,11.511,11.509
				V144.316z"/>
		</g>
		<path style="fill:#242423;" d="M151.375,135.366c0,3.354-2.719,6.073-6.074,6.073c-3.357,0-6.078-2.72-6.078-6.073
			c0-3.355,2.72-6.076,6.078-6.076C148.655,129.29,151.375,132.012,151.375,135.366z"/>
		<path style="fill:#242423;" d="M274.154,135.366c0,3.354-2.721,6.073-6.075,6.073c-3.357,0-6.078-2.72-6.078-6.073
			c0-3.355,2.722-6.076,6.078-6.076C271.433,129.29,274.154,132.012,274.154,135.366z"/>
	</g>
	<g>
		<g>
			<path style="fill:#242423;" d="M485.245,365.982c-33.664,0-190.281-41.17-196.934-42.922l-1.788-0.471v-25.104l1.769-0.48
				c6.959-1.896,170.718-46.448,196.953-46.448c31.82,0,57.708,25.892,57.708,57.715
				C542.953,340.092,517.065,365.982,485.245,365.982L485.245,365.982z M291.321,318.889c17.821,4.66,162.768,42.295,193.924,42.295
				c29.177,0,52.911-23.736,52.911-52.913c0-29.179-23.734-52.919-52.911-52.919c-24.178,0-175.749,40.874-193.924,45.8V318.889
				L291.321,318.889z"/>
		</g>
		<g>
			<path style="fill:#242423;" d="M485.245,352.949c-33.594,0-190.146-31.455-196.794-32.794l-1.928-0.387v-20.291l1.909-0.397
				c6.959-1.451,170.65-35.491,196.813-35.491c31.82,0,57.708,20.043,57.708,44.682
				C542.953,332.907,517.065,352.949,485.245,352.949L485.245,352.949z M291.321,315.838c18.42,3.68,162.778,32.316,193.924,32.316
				c29.177,0,52.911-17.892,52.911-39.882c0-21.993-23.734-39.886-52.911-39.886c-24.183,0-175.118,31.1-193.924,34.994V315.838
				L291.321,315.838z"/>
		</g>
		<g>
			<path style="fill:#242423;" d="M485.245,336.406c-33.499,0-189.97-19.138-196.616-19.953l-2.106-0.256v-14.205l2.096-0.267
				c6.953-0.88,170.558-21.591,196.625-21.591c32.361,0,57.708,12.359,57.708,28.137
				C542.953,324.047,517.605,336.406,485.245,336.406L485.245,336.406z M291.321,311.95c19.169,2.33,162.792,19.66,193.924,19.66
				c28.68,0,52.911-10.688,52.911-23.338c0-12.653-24.231-23.342-52.911-23.342c-24.196,0-174.317,18.818-193.924,21.291V311.95
				L291.321,311.95z"/>
		</g>
		<g>
			<path style="fill:#242423;" d="M485.245,319.878c-33.404,0-194.803-7.063-196.428-7.134l-2.294-0.103v-8.152l2.29-0.105
				c1.701-0.076,170.463-7.724,196.432-7.724c5.902,0,57.708,0.325,57.708,11.612C542.953,319.553,491.147,319.878,485.245,319.878
				L485.245,319.878z M302.922,308.553c40.095,1.717,154.83,6.53,182.323,6.53c32.616,0,50.077-4.335,52.72-6.811
				c-2.643-2.479-20.104-6.815-52.72-6.815C463.791,301.456,344.082,306.714,302.922,308.553L302.922,308.553z"/>
		</g>
		<g>
			<g>
				<path style="fill:#242423;" d="M144.88,295.801h-31.653c-6.889,0-12.471,5.582-12.471,12.47c0,6.886,5.582,12.469,12.471,12.469
					h31.653c6.888,0,12.471-5.583,12.471-12.469C157.351,301.384,151.767,295.801,144.88,295.801z M144.88,313.068h-31.653
					c-2.647,0-4.798-2.151-4.798-4.797c0-2.645,2.15-4.797,4.798-4.797h31.653c2.643,0,4.794,2.152,4.794,4.797
					C149.674,310.917,147.523,313.068,144.88,313.068z"/>
			</g>
			<g>
				<path style="fill:#DAA350;" d="M288.921,317.222c0,6.331-5.177,11.512-11.508,11.512h-136.85
					c-6.335,0-11.511-5.18-11.511-11.512v-17.905c0-6.33,5.176-11.51,11.511-11.51h136.85c6.33,0,11.508,5.18,11.508,11.51V317.222z
					"/>
			</g>
		</g>
		<g>
			<path style="fill:#242423;" d="M153.674,308.271c0,3.352-2.721,6.074-6.075,6.074c-3.358,0-6.077-2.722-6.077-6.074
				c0-3.356,2.719-6.076,6.077-6.076C150.953,302.195,153.674,304.915,153.674,308.271z"/>
		</g>
		<g>
			<path style="fill:#242423;" d="M276.453,308.271c0,3.352-2.722,6.074-6.074,6.074c-3.357,0-6.078-2.722-6.078-6.074
				c0-3.356,2.722-6.076,6.078-6.076C273.732,302.195,276.453,304.915,276.453,308.271z"/>
		</g>
	</g>
	<g>
		<path style="fill:#242423;" d="M165.889,809.067h-31.655c-6.886,0-12.469,5.584-12.469,12.472c0,6.883,5.583,12.469,12.469,12.469
			h31.655c6.885,0,12.469-5.586,12.469-12.469C178.358,814.651,172.774,809.067,165.889,809.067z M165.889,826.333h-31.655
			c-2.646,0-4.797-2.149-4.797-4.795c0-2.647,2.151-4.799,4.797-4.799h31.655c2.643,0,4.794,2.152,4.794,4.799
			C170.684,824.184,168.533,826.333,165.889,826.333z"/>
		<path style="fill:#DAA350;" d="M298.421,842H150.061c-6.332,0-11.511-5.18-11.511-11.511v-17.906
			c0-6.33,5.179-11.508,11.511-11.508h148.359C298.421,842,298.421,801.075,298.421,842z"/>
		<path style="fill:#242423;" d="M163.172,821.539c0,3.353-2.72,6.072-6.074,6.072c-3.356,0-6.076-2.719-6.076-6.072
			c0-3.359,2.72-6.076,6.076-6.076C160.452,815.462,163.172,818.18,163.172,821.539z"/>
		<path style="fill:#242423;" d="M285.953,821.539c0,3.353-2.723,6.072-6.075,6.072c-3.357,0-6.078-2.719-6.078-6.072
			c0-3.359,2.722-6.076,6.078-6.076C283.23,815.462,285.953,818.18,285.953,821.539z"/>
		<path style="fill:#7C7C7B;" d="M298.421,889.162v11.511c97.201,19.187,186.083,7.674,219.338-7.674v-11.511
			C484.504,896.836,395.621,908.347,298.421,889.162z"/>
		<path style="fill:#50504F;" d="M504.65,801.075H298.421v88.087c97.201,19.185,186.083,7.674,219.338-7.674v-67.307
			C517.759,806.944,511.892,801.075,504.65,801.075z M502.255,821.536c-2.74,0-4.96-2.216-4.96-4.956c0-2.736,2.22-4.956,4.96-4.956
			c2.734,0,4.954,2.219,4.954,4.956C507.209,819.319,504.99,821.536,502.255,821.536z"/>
	</g>
	<g>
		<path style="fill:#242423;" d="M164.79,672.209h-23.804c-5.179,0-9.375,4.198-9.375,9.378c0,5.18,4.196,9.377,9.375,9.377h23.804
			c5.177,0,9.375-4.197,9.375-9.377C174.165,676.408,169.967,672.209,164.79,672.209z M164.79,685.195h-23.804
			c-1.985,0-3.603-1.619-3.603-3.608c0-1.988,1.619-3.606,3.603-3.606h23.804c1.99,0,3.604,1.619,3.604,3.606
			C168.394,683.577,166.78,685.195,164.79,685.195z"/>
		<path style="fill:#DAA350;" d="M302.747,699.933h-143.33c-5.627,0-10.226-4.604-10.226-10.226v-15.908
			c0-5.628,4.599-10.226,10.226-10.226h143.33C302.747,699.933,302.747,663.573,302.747,699.933z"/>
		<path style="fill:#242423;" d="M172.955,681.753c0,3.043-2.465,5.508-5.5,5.508c-3.051,0-5.517-2.465-5.517-5.508
			c0-3.043,2.466-5.508,5.517-5.508C170.49,676.245,172.955,678.71,172.955,681.753z"/>
		<path style="fill:#242423;" d="M280.439,681.753c0,3.043-2.464,5.508-5.508,5.508c-3.042,0-5.506-2.465-5.506-5.508
			c0-3.043,2.465-5.508,5.506-5.508C277.975,676.245,280.439,678.71,280.439,681.753z"/>
		<g>
			<path style="fill:#7C7C7B;" d="M542.71,681.587c-2.624-1.041-5.976-2.043-9.84-3.01
				c-29.957,20.553-110.945,43.463-222.902,44.991c1.083,2.741,2.251,5.382,3.49,7.68
				C434.161,729.65,518.969,703.191,542.71,681.587z"/>
			<path style="fill:#50504F;" d="M302.747,663.573v36.363c0,0,2.898,12.681,7.22,23.632
				c111.957-1.528,192.946-24.438,222.902-44.991C481.406,665.694,328.546,659.606,302.747,663.573z"/>
		</g>
	</g>
	<g>
		<rect x="295.442" y="434.844" style="fill:#DAA350;" width="612.949" height="125.874"/>
		<path style="fill:#DAA350;" d="M216.609,468.499c-23.104,0-44.574-5.01-64.379-12.818c-7.003-3.962-18.271-5.922-23.708-6.247
			C101.88,447.84,80.18,471.07,80.18,497.777c0,26.697,21.649,48.348,48.342,48.348c2.068,0,4.09-0.171,6.087-0.429
			c25.077-2.111,53.708-15.992,82.392-15.992c19.466,0,45.385,12.217,62.003,21.305l16.438-116.165
			C295.442,434.844,250.356,468.499,216.609,468.499z"/>
		<path style="fill:#DAA350;" d="M1075.311,449.433c-5.436,0.326-16.702,2.285-23.706,6.247
			c-19.806,7.808-41.276,12.818-64.377,12.818c-20.751,0-45.75-12.71-61.954-22.512l-16.884,114.731c0,0,6.587-4.305,16.443-9.708
			c16.617-9.089,42.532-21.305,62.004-21.305c28.677,0,57.316,13.881,82.39,15.992c1.995,0.256,4.016,0.429,6.083,0.429
			c26.694,0,48.344-21.651,48.344-48.348C1123.655,471.07,1101.955,447.84,1075.311,449.433z"/>
		<path style="fill:#242423;" d="M908.391,434.843v125.874l16.884-114.731C915.119,439.849,908.391,434.843,908.391,434.843z"/>
		<polygon style="fill:#242423;" points="279.004,551.009 295.442,560.718 295.442,434.844 		"/>
	</g>
	<g>
		<g>
			<path style="fill:#DAA350;" d="M761.248,782.89c0-42.029-24.454-91.447-49.879-91.447c-25.428,0-49.878,49.418-49.878,91.447
				c0,34.953,20.76,53.741,41.083,59.086v139.61c-2.553,26.399-16.146,76.279-16.146,97.238c0,17.298,5.118,42.828,24.94,42.828
				c18.547,0,24.94-25.529,24.94-42.828c0-20.48-11.351-67.479-16.147-97.238v-139.61
				C740.486,836.631,761.248,817.843,761.248,782.89z"/>
		</g>
		<g>
			<path style="fill:#242423;" d="M711.369,831.895c-21.763,0-39.472-18.762-39.472-41.82c0-1.008,0.819-1.825,1.822-1.825
				c1.008,0,1.824,0.817,1.824,1.825c0,21.051,16.069,38.177,35.826,38.177c19.758,0,35.827-17.125,35.827-38.177
				c0-1.008,0.814-1.825,1.821-1.825s1.821,0.817,1.821,1.825C750.838,813.133,733.129,831.895,711.369,831.895L711.369,831.895z"/>
		</g>
	</g>
	<path style="fill:#DAA350;" d="M884.751,842.388c20.322-5.35,25.737-24.138,25.737-59.093l-7.531-92.313h-7.498v93.203
		c0,2.256-1.828,4.084-4.081,4.084c-2.259,0-4.086-1.828-4.086-4.084v-93.203h-7.181v93.203c0,2.256-1.828,4.084-4.084,4.084
		c-2.256,0-4.084-1.828-4.084-4.084v-93.203h-7.181v93.203c0,2.256-1.827,4.084-4.085,4.084c-2.253,0-4.081-1.828-4.081-4.084
		v-93.203h-7.499l-7.673,92.313c0,34.956,5.414,53.744,25.739,59.093v139.604c-2.556,26.402-16.148,76.282-16.148,97.241
		c0,17.298,5.121,42.829,24.94,42.829c18.545,0,24.94-25.531,24.94-42.829c0-20.479-11.351-67.481-16.146-97.241V842.388z"/>
	<g>
		<path style="fill:#DAA350;" d="M1035.709,889.22h1.594c18.428,0,15.35-19.185,15.35-19.185s11.833-247.476-44.125-230.851V889.22
			v197.761c0,26.335,10.828,35.732,21.426,35.732c10.595,0,23.022-6.001,23.022-32.336c0-40.324-17.266-87.325-17.266-110.585
			V889.22z"/>
		<g>
			<polygon style="fill:#242423;" points="1020.523,872.874 1017.64,872.874 1017.64,664.351 1020.523,664.351 1020.523,872.874 			
				"/>
		</g>
	</g>
	<g>
		<rect x="295.569" y="1001.399" style="fill:#242423;" width="65.227" height="41.244"/>
		<path style="fill:#7C7C7B;" d="M489.329,1042.644c0,44.761-36.289,81.054-81.054,81.054c-44.763,0-81.054-36.293-81.054-81.054
			c0-44.769,36.291-81.053,81.054-81.053C453.041,961.591,489.329,997.875,489.329,1042.644z"/>
		<path style="fill:#50504F;" d="M475.582,1042.644c0,37.17-30.131,67.304-67.307,67.304c-37.173,0-67.306-30.133-67.306-67.304
			c0-37.176,30.133-67.307,67.306-67.307C445.451,975.337,475.582,1005.467,475.582,1042.644z"/>
		<path style="fill:#242423;" d="M417.51,1042.644c0,5.095-4.133,9.234-9.234,9.234c-5.099,0-9.232-4.14-9.232-9.234
			c0-5.105,4.132-9.231,9.232-9.231C413.377,1033.412,417.51,1037.539,417.51,1042.644z"/>
		<path style="fill:#DAA350;" d="M313.644,997.405h-0.305l-0.064-13.544c-0.029-6.329-4.488-8.842-9.909-5.574
			c0,0-22.501,19.118-47.063,19.118h-94.063c-20.484,0-37.091,14.312-37.091,31.969c0,17.663,16.607,31.978,37.091,31.978
			c16.157,0,44.848-13.408,55.043-17.905c15.94-7.036,24.337-10.088,44.517-7.676c25.375,3.037,41.928,19.515,41.928,19.515
			c5.452,3.224,9.893,0.674,9.862-5.656l-0.049-10.02h0.103V997.405z M143.712,1036.54c-3.713,0-6.72-3.009-6.72-6.724
			c0-3.716,3.007-6.724,6.72-6.724c3.715,0,6.722,3.007,6.722,6.724C150.434,1033.531,147.427,1036.54,143.712,1036.54z"/>
	</g>
	<g>
		<path style="fill:#7C7C7B;" d="M1094.704,113.085H842.169l-61.708,22.339l61.708,22.304h252.535
			c12.33,0,22.321-9.993,22.321-22.324C1117.025,123.079,1107.034,113.085,1094.704,113.085z"/>
		<path style="fill:#242423;" d="M686.083,125.865h-23.804c-5.18,0-9.375,4.2-9.375,9.379c0,5.18,4.195,9.376,9.375,9.376h23.804
			c5.178,0,9.375-4.196,9.375-9.376C695.458,130.066,691.261,125.865,686.083,125.865z M686.083,138.848h-23.804
			c-1.988,0-3.606-1.618-3.606-3.604c0-1.994,1.619-3.607,3.606-3.607h23.804c1.989,0,3.605,1.614,3.605,3.607
			C689.688,137.23,688.072,138.848,686.083,138.848z"/>
		<path style="fill:#DAA350;" d="M820.204,150.242H676.872c-5.628,0-10.225-3.758-10.225-8.345v-12.983
			c0-4.589,4.597-8.343,10.225-8.343h143.332C820.204,150.242,820.204,120.571,820.204,150.242z"/>
		<path style="fill:#242423;" d="M691.649,135.41c0,2.959-2.402,5.366-5.357,5.366c-2.971,0-5.374-2.407-5.374-5.366
			c0-2.965,2.404-5.366,5.374-5.366C689.247,130.044,691.649,132.445,691.649,135.41z"/>
		<path style="fill:#242423;" d="M796.368,135.41c0,2.959-2.402,5.366-5.364,5.366c-2.966,0-5.367-2.407-5.367-5.366
			c0-2.965,2.401-5.366,5.367-5.366C793.966,130.044,796.368,132.445,796.368,135.41z"/>
		<polygon style="fill:#242423;" points="842.169,113.085 842.169,147.82 838.759,114.318 		"/>
		<path style="fill:#242423;" d="M1095.048,152.052c-0.526,0-0.958-0.429-0.958-0.959c0-0.528,0.432-0.957,0.958-0.957
			c8.12,0,14.726-6.608,14.726-14.731c0-8.121-6.607-14.73-14.726-14.73c-0.526,0-0.958-0.43-0.958-0.957
			c0-0.531,0.432-0.96,0.958-0.96c9.177,0,16.647,7.469,16.647,16.647C1111.695,144.585,1104.226,152.052,1095.048,152.052
			L1095.048,152.052z"/>
	</g>
	<g>
		<path style="fill:#DAA350;" d="M951.92,254.898v20.128l-15.913,9.185c-123.067-5.215-266.043-6.504-274.409-6.504
			c-14.836,0-26.861,12.024-26.861,26.859c0,14.835,12.025,26.859,26.861,26.859c8.313,0,149.58-2.346,272.128-7.824l18.193,10.507
			v24.389h131.895c22.515,0,40.767-18.253,40.767-40.769v-62.83H951.92z M656.481,310.537c-3.532,0-6.396-2.864-6.396-6.397
			c0-3.533,2.864-6.396,6.396-6.396c3.536,0,6.396,2.864,6.396,6.396C662.877,307.673,660.018,310.537,656.481,310.537z"/>
		<g>
			<path style="fill:#242423;" d="M1083.814,348.422H963.432c-0.795,0-1.44-0.643-1.44-1.436c0-0.794,0.645-1.441,1.44-1.441
				h120.382c15.338,0,27.816-12.478,27.816-27.816c0-0.793,0.645-1.438,1.438-1.438c0.796,0,1.437,0.644,1.437,1.438
				C1114.506,334.654,1100.739,348.422,1083.814,348.422L1083.814,348.422z"/>
		</g>
		<polygon style="fill:#242423;" points="951.92,334.108 951.92,275.026 946.701,331.093 		"/>
	</g>
	<g>
		<path style="fill:#242423;" d="M368.497,507.423l23.129,21.351h-9.808l-15.449-13.67v13.67h-7.029v-55.545h7.029v26.514
			l15.449-11.76h9.808L368.497,507.423z"/>
		<path style="fill:#242423;" d="M400.479,481.734c-0.637,0-1.237-0.122-1.802-0.369c-0.563-0.246-1.062-0.578-1.496-0.998
			c-0.434-0.42-0.774-0.911-1.021-1.475c-0.245-0.564-0.368-1.164-0.368-1.801c0-0.664,0.123-1.28,0.368-1.844
			c0.247-0.564,0.587-1.055,1.021-1.475c0.434-0.419,0.933-0.752,1.496-0.998c0.565-0.246,1.165-0.369,1.802-0.369
			c0.637,0,1.243,0.123,1.822,0.369c0.578,0.246,1.085,0.579,1.518,0.998c0.435,0.42,0.775,0.911,1.02,1.475
			c0.247,0.565,0.37,1.18,0.37,1.844c0,0.637-0.124,1.237-0.37,1.801c-0.245,0.564-0.585,1.056-1.02,1.475
			c-0.433,0.42-0.941,0.752-1.518,0.998C401.722,481.611,401.115,481.734,400.479,481.734z M403.95,488.417v40.356h-6.943v-40.356
			H403.95z"/>
		<path style="fill:#242423;" d="M431.246,488.417v6.508h-7.162v33.849h-6.942v-33.849h-7.117v-6.508h7.117v-15.188h7.03v15.188
			H431.246z"/>
		<path style="fill:#242423;" d="M470.908,514.018c-0.088,0.666-0.268,1.512-0.543,2.539c-0.275,1.027-0.681,2.098-1.214,3.21
			c-0.536,1.115-1.238,2.235-2.106,3.363c-0.867,1.129-1.952,2.141-3.254,3.038c-1.301,0.898-2.85,1.628-4.643,2.191
			c-1.794,0.565-3.891,0.846-6.293,0.846c-2.227,0-4.187-0.237-5.88-0.716c-1.692-0.477-3.175-1.107-4.447-1.887
			c-1.274-0.782-2.351-1.67-3.233-2.669c-0.883-0.998-1.613-2.019-2.191-3.06c-1.388-2.429-2.213-5.221-2.473-8.374v-7.811
			c0.26-3.124,1.085-5.902,2.473-8.332c0.578-1.042,1.309-2.062,2.191-3.059c0.882-0.998,1.959-1.895,3.233-2.69
			c1.272-0.795,2.755-1.433,4.447-1.91c1.693-0.477,3.653-0.716,5.88-0.716c2.402,0,4.499,0.283,6.293,0.847
			c1.792,0.564,3.341,1.294,4.643,2.191c1.302,0.899,2.387,1.909,3.254,3.037c0.868,1.129,1.57,2.257,2.106,3.385
			c0.534,1.129,0.932,2.2,1.192,3.211c0.26,1.013,0.449,1.867,0.565,2.56h-6.857c-0.144-1.042-0.412-1.953-0.803-2.734
			c-0.39-0.781-0.867-1.46-1.431-2.039c-0.565-0.578-1.173-1.07-1.824-1.476c-0.65-0.404-1.31-0.738-1.974-0.998
			c-1.563-0.609-3.284-0.955-5.164-1.042c-2.111,0.087-3.992,0.493-5.64,1.216c-0.694,0.318-1.381,0.708-2.061,1.171
			c-0.681,0.463-1.288,1.041-1.824,1.735c-0.535,0.695-0.962,1.506-1.28,2.43c-0.319,0.926-0.478,1.997-0.478,3.212v7.811
			c0,1.272,0.159,2.399,0.478,3.384c0.318,0.984,0.745,1.83,1.28,2.538c0.535,0.709,1.142,1.31,1.824,1.801
			c0.68,0.493,1.367,0.897,2.061,1.216c1.648,0.752,3.529,1.171,5.64,1.257c1.88-0.086,3.617-0.447,5.208-1.085
			c0.665-0.26,1.323-0.598,1.975-1.019c0.65-0.42,1.25-0.934,1.801-1.541c0.549-0.607,1.02-1.324,1.41-2.148
			c0.391-0.824,0.659-1.786,0.803-2.886H470.908z"/>
		<path style="fill:#242423;" d="M494.817,487.982c2.199,0,4.145,0.24,5.837,0.716c1.692,0.477,3.174,1.114,4.447,1.91
			c1.272,0.795,2.358,1.692,3.255,2.69c0.896,0.998,1.634,2.018,2.213,3.059c1.389,2.43,2.213,5.208,2.473,8.332v24.084H506.1
			v-24.084c0-1.215-0.16-2.286-0.478-3.212c-0.319-0.924-0.746-1.728-1.28-2.408c-0.535-0.68-1.143-1.251-1.824-1.713
			c-0.68-0.464-1.366-0.854-2.06-1.173c-1.65-0.723-3.531-1.127-5.643-1.215c-2.112,0.088-3.992,0.492-5.64,1.215
			c-0.695,0.319-1.381,0.71-2.062,1.173c-0.68,0.462-1.288,1.033-1.822,1.713c-0.535,0.68-0.962,1.484-1.28,2.408
			c-0.319,0.926-0.478,1.997-0.478,3.212v24.084h-6.943v-55.545h6.943v18.051c1.301-0.955,2.87-1.742,4.708-2.365
			C490.079,488.293,492.271,487.982,494.817,487.982z"/>
		<path style="fill:#242423;" d="M525.324,509.723v2.777c0,1.272,0.159,2.399,0.478,3.384c0.317,0.984,0.744,1.83,1.28,2.538
			c0.536,0.709,1.143,1.31,1.822,1.801c0.68,0.493,1.367,0.897,2.062,1.216c1.649,0.752,3.529,1.171,5.641,1.257
			c1.879-0.086,3.615-0.447,5.208-1.085c0.665-0.26,1.323-0.598,1.973-1.019c0.651-0.42,1.252-0.934,1.801-1.541
			c0.55-0.607,1.02-1.324,1.41-2.148c0.391-0.824,0.659-1.786,0.804-2.886h6.899c-0.116,0.666-0.304,1.512-0.564,2.539
			c-0.261,1.027-0.658,2.098-1.194,3.21c-0.535,1.115-1.237,2.235-2.104,3.363c-0.868,1.129-1.952,2.141-3.254,3.038
			c-1.302,0.898-2.857,1.628-4.666,2.191c-1.807,0.565-3.912,0.846-6.313,0.846c-2.199,0-4.146-0.237-5.837-0.716
			c-1.693-0.477-3.174-1.107-4.447-1.887c-1.274-0.782-2.35-1.67-3.234-2.669c-0.882-0.998-1.613-2.019-2.191-3.06
			c-1.388-2.429-2.213-5.221-2.474-8.374v-7.811c0.261-3.124,1.086-5.902,2.474-8.332c0.578-1.042,1.309-2.062,2.191-3.059
			c0.883-0.998,1.959-1.895,3.234-2.69c1.272-0.795,2.754-1.433,4.447-1.91c1.692-0.477,3.638-0.716,5.837-0.716
			c2.401,0,4.506,0.283,6.313,0.847c1.81,0.564,3.364,1.294,4.666,2.191c1.302,0.899,2.386,1.909,3.254,3.037
			c0.867,1.129,1.57,2.257,2.104,3.385c0.536,1.129,0.933,2.2,1.194,3.211c0.26,1.013,0.448,1.867,0.564,2.56v6.51H525.324z
			 M536.606,494.925c-1.882,0.087-3.602,0.434-5.164,1.042c-0.666,0.26-1.324,0.593-1.976,0.998
			c-0.65,0.406-1.251,0.898-1.799,1.476c-0.55,0.579-1.027,1.258-1.432,2.039c-0.406,0.781-0.667,1.693-0.781,2.734h22.348
			c-0.146-1.042-0.413-1.953-0.804-2.734c-0.39-0.781-0.86-1.46-1.41-2.039c-0.549-0.578-1.15-1.07-1.801-1.476
			c-0.65-0.404-1.308-0.738-1.973-0.998C540.251,495.358,538.515,495.012,536.606,494.925z"/>
		<path style="fill:#242423;" d="M578.308,487.982c2.197,0,4.143,0.24,5.836,0.716c1.692,0.477,3.174,1.114,4.449,1.91
			c1.272,0.795,2.357,1.692,3.254,2.69c0.896,0.998,1.633,2.018,2.213,3.059c1.388,2.43,2.213,5.208,2.473,8.332v24.084h-6.942
			v-24.084c0-1.215-0.16-2.286-0.478-3.212c-0.319-0.924-0.745-1.728-1.28-2.408c-0.535-0.68-1.142-1.251-1.822-1.713
			c-0.679-0.464-1.367-0.854-2.062-1.173c-1.649-0.723-3.53-1.127-5.64-1.215c-2.112,0.088-3.992,0.492-5.641,1.215
			c-0.694,0.319-1.382,0.71-2.062,1.173c-0.679,0.462-1.287,1.033-1.824,1.713c-0.534,0.68-0.961,1.484-1.279,2.408
			c-0.319,0.926-0.477,1.997-0.477,3.212v24.084h-6.943v-40.356h6.943v2.862c1.302-0.955,2.871-1.742,4.708-2.365
			C573.571,488.293,575.761,487.982,578.308,487.982z"/>
		<path style="fill:#242423;" d="M662.71,488.417V512.5c-0.262,3.153-1.087,5.944-2.474,8.374c-0.58,1.041-1.318,2.062-2.215,3.06
			c-0.896,0.998-1.98,1.887-3.253,2.669c-1.273,0.78-2.755,1.41-4.449,1.887c-1.693,0.478-3.637,0.716-5.836,0.716
			c-2.23,0-4.188-0.237-5.88-0.716c-1.693-0.477-3.174-1.107-4.447-1.887c-1.274-0.782-2.353-1.67-3.233-2.669
			c-0.883-0.998-1.614-2.019-2.191-3.06c-1.389-2.429-2.213-5.221-2.473-8.374v-24.083h6.942V512.5c0,1.215,0.157,2.292,0.477,3.232
			c0.316,0.941,0.744,1.75,1.279,2.431c0.538,0.68,1.144,1.258,1.822,1.736c0.681,0.477,1.368,0.861,2.061,1.15
			c1.649,0.724,3.53,1.127,5.643,1.215c2.111-0.088,3.993-0.492,5.641-1.215c0.694-0.289,1.38-0.673,2.06-1.15
			c0.682-0.478,1.289-1.055,1.822-1.736c0.538-0.68,0.962-1.49,1.282-2.431c0.318-0.94,0.478-2.016,0.478-3.232v-24.083H662.71z"/>
		<path style="fill:#242423;" d="M688.743,488.417v6.508h-7.157v33.849h-6.945v-33.849h-7.116v-6.508h7.116v-15.188h7.03v15.188
			H688.743z"/>
		<path style="fill:#242423;" d="M698.987,509.723v2.777c0,1.272,0.157,2.399,0.478,3.384c0.315,0.984,0.743,1.83,1.277,2.538
			c0.538,0.709,1.146,1.31,1.822,1.801c0.681,0.493,1.368,0.897,2.064,1.216c1.648,0.752,3.527,1.171,5.641,1.257
			c1.881-0.086,3.615-0.448,5.208-1.085c0.665-0.26,1.321-0.598,1.973-1.019c0.65-0.42,1.253-0.934,1.802-1.541
			c0.548-0.607,1.02-1.324,1.408-2.148c0.391-0.824,0.659-1.786,0.804-2.886h6.901c-0.117,0.666-0.303,1.512-0.564,2.539
			c-0.261,1.027-0.659,2.098-1.195,3.21c-0.535,1.115-1.235,2.235-2.103,3.363c-0.867,1.129-1.951,2.141-3.255,3.038
			c-1.302,0.898-2.856,1.628-4.666,2.191c-1.806,0.565-3.911,0.846-6.312,0.846c-2.2,0-4.147-0.237-5.837-0.716
			c-1.692-0.477-3.174-1.107-4.447-1.887c-1.274-0.782-2.351-1.67-3.233-2.669c-0.883-0.998-1.616-2.019-2.191-3.06
			c-1.39-2.429-2.213-5.221-2.473-8.374v-7.811c0.259-3.125,1.082-5.902,2.473-8.332c0.576-1.042,1.308-2.062,2.191-3.059
			c0.882-0.998,1.958-1.895,3.233-2.69c1.273-0.795,2.755-1.433,4.447-1.91c1.69-0.477,3.637-0.716,5.837-0.716
			c2.401,0,4.506,0.283,6.312,0.847c1.809,0.564,3.363,1.294,4.666,2.191c1.304,0.899,2.388,1.909,3.255,3.037
			c0.869,1.129,1.569,2.257,2.103,3.385c0.536,1.129,0.935,2.2,1.195,3.211c0.261,1.013,0.447,1.867,0.564,2.56v6.51H698.987z
			 M710.269,494.925c-1.882,0.087-3.602,0.434-5.165,1.042c-0.666,0.26-1.324,0.593-1.975,0.998c-0.65,0.406-1.251,0.898-1.8,1.476
			c-0.551,0.579-1.027,1.258-1.431,2.039c-0.407,0.781-0.667,1.693-0.782,2.734h22.348c-0.145-1.042-0.413-1.953-0.804-2.734
			c-0.388-0.781-0.86-1.46-1.408-2.039c-0.549-0.578-1.151-1.07-1.802-1.476c-0.652-0.404-1.308-0.738-1.973-0.998
			C713.915,495.358,712.178,495.012,710.269,494.925z"/>
		<path style="fill:#242423;" d="M751.969,487.982c2.2,0,4.146,0.24,5.837,0.716c1.692,0.477,3.176,1.114,4.447,1.91
			c1.275,0.795,2.358,1.692,3.255,2.69c0.898,0.998,1.635,2.018,2.213,3.059c1.389,2.43,2.213,5.207,2.474,8.332v24.084h-6.943
			v-24.084c0-1.215-0.16-2.286-0.478-3.212c-0.318-0.924-0.743-1.728-1.28-2.408c-0.535-0.68-1.142-1.251-1.822-1.713
			c-0.68-0.464-1.365-0.854-2.061-1.173c-1.649-0.723-3.529-1.127-5.643-1.215c-2.111,0.088-3.99,0.492-5.64,1.215
			c-0.694,0.319-1.383,0.71-2.063,1.173c-0.678,0.462-1.286,1.033-1.822,1.713c-0.536,0.68-0.961,1.484-1.28,2.408
			c-0.318,0.926-0.475,1.997-0.475,3.212v24.084h-6.945v-40.356h6.945v2.862c1.301-0.955,2.868-1.742,4.705-2.365
			C747.233,488.293,749.424,487.982,751.969,487.982z"/>
		<path style="fill:#242423;" d="M797.578,498.267c-2.345-1.476-4.304-2.531-5.881-3.168c-1.575-0.636-2.726-0.954-3.448-0.954
			c-0.668,0-1.318,0.108-1.954,0.326c-0.636,0.217-1.194,0.513-1.67,0.888c-0.479,0.377-0.861,0.841-1.15,1.389
			c-0.292,0.55-0.434,1.143-0.434,1.78c0,0.984,0.217,1.852,0.652,2.603c0.432,0.752,0.995,1.418,1.69,1.996
			c0.694,0.579,1.49,1.107,2.386,1.584c0.896,0.478,1.824,0.932,2.777,1.367c1.157,0.521,2.344,1.121,3.561,1.801
			c1.213,0.681,2.311,1.497,3.294,2.452c0.983,0.955,1.788,2.084,2.408,3.386c0.625,1.301,0.935,2.834,0.935,4.599v0.217
			c0,1.852-0.332,3.45-0.999,4.795c-0.665,1.345-1.562,2.451-2.688,3.32c-1.128,0.868-2.452,1.512-3.971,1.931
			c-1.521,0.42-3.133,0.628-4.838,0.628c-1.995,0-3.776-0.231-5.338-0.693c-1.562-0.463-2.914-0.998-4.057-1.605
			c-1.143-0.608-2.068-1.216-2.777-1.823c-0.71-0.608-1.209-1.07-1.497-1.389l4.166-4.08c0.52,0.435,1.148,0.869,1.887,1.303
			c0.737,0.434,1.526,0.818,2.366,1.15c0.839,0.333,1.701,0.608,2.581,0.824c0.883,0.218,1.759,0.326,2.626,0.326
			c1.909,0,3.413-0.434,4.513-1.302c1.097-0.867,1.649-1.996,1.649-3.384c0-0.839-0.198-1.591-0.587-2.256
			c-0.389-0.665-0.904-1.273-1.541-1.824c-0.637-0.548-1.359-1.033-2.169-1.453c-0.81-0.419-1.646-0.817-2.515-1.193
			c-1.216-0.521-2.461-1.114-3.731-1.78c-1.277-0.664-2.432-1.496-3.475-2.495c-1.04-0.998-1.901-2.221-2.581-3.667
			c-0.68-1.445-1.018-3.225-1.018-5.336c0-1.938,0.338-3.581,1.018-4.926c0.68-1.345,1.562-2.43,2.647-3.254
			c1.085-0.825,2.316-1.425,3.688-1.8c1.374-0.376,2.755-0.565,4.145-0.565c1.301,0,2.501,0.138,3.601,0.412
			c1.099,0.275,2.148,0.644,3.145,1.106c0.999,0.464,1.991,0.992,2.974,1.584c0.983,0.594,2.01,1.209,3.082,1.844L797.578,498.267z"
			/>
		<path style="fill:#242423;" d="M810.681,481.734c-0.636,0-1.235-0.122-1.8-0.369c-0.564-0.246-1.064-0.578-1.496-0.998
			c-0.435-0.42-0.775-0.911-1.021-1.475c-0.245-0.564-0.368-1.164-0.368-1.801c0-0.664,0.123-1.28,0.368-1.844
			c0.246-0.564,0.586-1.055,1.021-1.475c0.432-0.419,0.932-0.752,1.496-0.998c0.565-0.246,1.165-0.369,1.8-0.369
			s1.245,0.123,1.825,0.369c0.577,0.246,1.084,0.579,1.518,0.998c0.434,0.42,0.773,0.911,1.018,1.475
			c0.249,0.565,0.371,1.18,0.371,1.844c0,0.637-0.122,1.237-0.371,1.801c-0.245,0.564-0.584,1.056-1.018,1.475
			c-0.433,0.42-0.94,0.752-1.518,0.998C811.926,481.611,811.317,481.734,810.681,481.734z M814.154,488.417v40.356h-6.945v-40.356
			H814.154z"/>
		<path style="fill:#242423;" d="M830.209,473.229v55.545h-6.943v-55.545H830.209z"/>
		<path style="fill:#242423;" d="M858.763,498.267c-2.342-1.476-4.304-2.531-5.88-3.168c-1.578-0.636-2.726-0.954-3.45-0.954
			c-0.667,0-1.315,0.108-1.953,0.326c-0.637,0.217-1.195,0.513-1.673,0.888c-0.476,0.377-0.86,0.841-1.148,1.389
			c-0.289,0.551-0.432,1.143-0.432,1.78c0,0.984,0.217,1.852,0.649,2.603c0.435,0.752,0.998,1.418,1.693,1.996
			c0.694,0.579,1.49,1.107,2.386,1.584c0.897,0.478,1.822,0.932,2.777,1.367c1.157,0.521,2.344,1.121,3.558,1.801
			c1.214,0.681,2.315,1.497,3.299,2.452c0.981,0.955,1.786,2.084,2.407,3.386c0.624,1.301,0.935,2.834,0.935,4.599v0.217
			c0,1.852-0.334,3.45-0.999,4.795c-0.665,1.345-1.561,2.451-2.689,3.32c-1.129,0.868-2.453,1.512-3.973,1.931
			c-1.519,0.42-3.13,0.628-4.837,0.628c-1.995,0-3.776-0.231-5.336-0.693c-1.563-0.463-2.917-0.998-4.059-1.605
			c-1.144-0.608-2.068-1.216-2.777-1.823c-0.709-0.608-1.208-1.07-1.497-1.389l4.166-4.08c0.52,0.435,1.15,0.869,1.887,1.303
			c0.738,0.434,1.526,0.818,2.367,1.15c0.836,0.333,1.699,0.608,2.581,0.824c0.882,0.218,1.756,0.326,2.625,0.326
			c1.909,0,3.413-0.434,4.513-1.302c1.099-0.867,1.649-1.996,1.649-3.384c0-0.839-0.196-1.591-0.586-2.256
			c-0.391-0.665-0.907-1.273-1.539-1.824c-0.639-0.548-1.362-1.033-2.171-1.453c-0.812-0.419-1.648-0.817-2.517-1.193
			c-1.216-0.521-2.458-1.114-3.731-1.78c-1.274-0.664-2.432-1.496-3.473-2.495c-1.042-0.998-1.901-2.221-2.581-3.667
			c-0.678-1.445-1.019-3.225-1.019-5.336c0-1.938,0.341-3.581,1.019-4.926c0.68-1.345,1.56-2.43,2.647-3.254
			c1.084-0.825,2.313-1.425,3.685-1.8c1.376-0.376,2.76-0.565,4.147-0.565c1.301,0,2.499,0.138,3.601,0.412
			c1.102,0.275,2.147,0.644,3.145,1.106c1,0.464,1.991,0.992,2.975,1.584c0.983,0.594,2.01,1.209,3.081,1.844L858.763,498.267z"/>
	</g>
</g>
</svg>
