<?xml version="1.0" encoding="utf-8"?>
<!-- Generator: Adobe Illustrator 27.5.0, SVG Export Plug-In . SVG Version: 6.00 Build 0)  -->
<svg version="1.1" xmlns="http://www.w3.org/2000/svg" xmlns:xlink="http://www.w3.org/1999/xlink" x="0px" y="0px"
	 viewBox="0 0 750 500" style="enable-background:new 0 0 750 500;" xml:space="preserve">
<g id="BACKGROUND">
	<rect style="fill:#3C8442;" width="750" height="500"/>
</g>
<g id="OBJECTS">
	<rect y="436.595" style="fill:#EFCF7F;" width="750" height="63.405"/>
	<g>
		<g>
			<path style="fill:#FCD426;" d="M440.339,436.595h214.415V330.906L440.339,436.595z M625.634,415.578h-88.578l88.578-43.661
				V415.578z"/>
			<g>
				<g>
					<path style="fill:#21102B;" d="M649.522,333.724c0.769,0.671,1.264,1.476,1.694,2.313c0.402,0.851,0.738,1.735,0.798,2.754
						c-0.771-0.67-1.266-1.475-1.694-2.313C649.919,335.626,649.583,334.743,649.522,333.724z"/>
				</g>
				<g>
					<path style="fill:#21102B;" d="M641.904,337.47c0.98,1.099,1.685,2.333,2.326,3.598c0.613,1.279,1.159,2.591,1.429,4.039
						c-0.982-1.098-1.687-2.331-2.326-3.598C642.722,340.229,642.176,338.917,641.904,337.47z"/>
				</g>
				<g>
					<path style="fill:#21102B;" d="M634.285,341.216c0.769,0.671,1.264,1.476,1.694,2.313c0.402,0.851,0.738,1.735,0.798,2.754
						c-0.771-0.67-1.266-1.475-1.694-2.313C634.683,343.118,634.347,342.235,634.285,341.216z"/>
				</g>
				<g>
					<path style="fill:#21102B;" d="M626.667,344.962c0.98,1.099,1.685,2.332,2.326,3.598c0.613,1.279,1.159,2.591,1.429,4.039
						c-0.982-1.098-1.687-2.332-2.326-3.598C627.485,347.721,626.939,346.409,626.667,344.962z"/>
				</g>
				<g>
					<path style="fill:#21102B;" d="M619.049,348.708c0.769,0.671,1.264,1.476,1.694,2.313c0.402,0.851,0.738,1.735,0.797,2.754
						c-0.771-0.67-1.266-1.475-1.694-2.313C619.446,350.611,619.11,349.727,619.049,348.708z"/>
				</g>
				<g>
					<path style="fill:#21102B;" d="M611.43,352.455c0.98,1.099,1.685,2.332,2.326,3.598c0.613,1.279,1.159,2.591,1.429,4.039
						c-0.982-1.098-1.687-2.332-2.326-3.598C612.249,355.213,611.702,353.901,611.43,352.455z"/>
				</g>
				<g>
					<path style="fill:#21102B;" d="M603.812,356.201c0.769,0.671,1.264,1.476,1.694,2.313c0.402,0.851,0.738,1.735,0.798,2.754
						c-0.771-0.67-1.266-1.475-1.694-2.313C604.209,358.103,603.873,357.22,603.812,356.201z"/>
				</g>
				<g>
					<path style="fill:#21102B;" d="M596.194,359.947c0.98,1.099,1.685,2.332,2.326,3.598c0.613,1.279,1.159,2.591,1.429,4.039
						c-0.982-1.098-1.687-2.331-2.326-3.598C597.012,362.706,596.466,361.394,596.194,359.947z"/>
				</g>
				<g>
					<path style="fill:#21102B;" d="M588.575,363.693c0.769,0.671,1.264,1.476,1.694,2.313c0.402,0.851,0.738,1.735,0.798,2.754
						c-0.771-0.67-1.266-1.475-1.694-2.313C588.973,365.596,588.637,364.712,588.575,363.693z"/>
				</g>
				<g>
					<path style="fill:#21102B;" d="M580.957,367.439c0.98,1.099,1.685,2.332,2.326,3.598c0.613,1.279,1.159,2.591,1.429,4.039
						c-0.982-1.098-1.687-2.332-2.326-3.598C581.775,370.198,581.229,368.886,580.957,367.439z"/>
				</g>
				<g>
					<path style="fill:#21102B;" d="M573.339,371.185c0.769,0.671,1.264,1.476,1.694,2.313c0.402,0.851,0.738,1.735,0.797,2.754
						c-0.771-0.67-1.266-1.475-1.694-2.313C573.736,373.088,573.4,372.204,573.339,371.185z"/>
				</g>
				<g>
					<path style="fill:#21102B;" d="M565.72,374.932c0.98,1.099,1.685,2.332,2.326,3.598c0.613,1.279,1.159,2.591,1.429,4.039
						c-0.982-1.098-1.687-2.332-2.326-3.598C566.539,377.69,565.992,376.378,565.72,374.932z"/>
				</g>
				<g>
					<path style="fill:#21102B;" d="M558.102,378.678c0.769,0.671,1.264,1.476,1.694,2.313c0.402,0.851,0.738,1.735,0.798,2.754
						c-0.771-0.67-1.266-1.475-1.694-2.313C558.499,380.58,558.164,379.696,558.102,378.678z"/>
				</g>
				<g>
					<path style="fill:#21102B;" d="M550.484,382.424c0.98,1.099,1.685,2.332,2.326,3.598c0.613,1.279,1.159,2.591,1.429,4.039
						c-0.982-1.098-1.687-2.331-2.326-3.598C551.302,385.183,550.756,383.871,550.484,382.424z"/>
				</g>
				<g>
					<path style="fill:#21102B;" d="M542.866,386.17c0.769,0.671,1.264,1.476,1.694,2.313c0.402,0.851,0.738,1.735,0.798,2.754
						c-0.771-0.67-1.266-1.475-1.695-2.313C543.263,388.072,542.927,387.189,542.866,386.17z"/>
				</g>
				<g>
					<path style="fill:#21102B;" d="M535.247,389.916c0.98,1.099,1.685,2.332,2.326,3.598c0.613,1.279,1.159,2.591,1.429,4.039
						c-0.982-1.098-1.687-2.331-2.326-3.598C536.066,392.675,535.519,391.363,535.247,389.916z"/>
				</g>
				<g>
					<path style="fill:#21102B;" d="M527.629,393.662c0.769,0.671,1.264,1.476,1.694,2.313c0.402,0.851,0.738,1.735,0.797,2.754
						c-0.771-0.67-1.266-1.475-1.694-2.313C528.026,395.565,527.69,394.681,527.629,393.662z"/>
				</g>
				<g>
					<path style="fill:#21102B;" d="M520.011,397.409c0.98,1.099,1.685,2.332,2.326,3.598c0.613,1.279,1.159,2.591,1.429,4.039
						c-0.982-1.098-1.687-2.331-2.326-3.598C520.829,400.167,520.283,398.855,520.011,397.409z"/>
				</g>
				<g>
					<path style="fill:#21102B;" d="M512.392,401.155c0.769,0.671,1.264,1.476,1.694,2.313c0.402,0.851,0.738,1.735,0.798,2.754
						c-0.771-0.67-1.266-1.475-1.694-2.313C512.79,403.057,512.454,402.173,512.392,401.155z"/>
				</g>
				<g>
					<path style="fill:#21102B;" d="M504.774,404.901c0.98,1.099,1.685,2.332,2.326,3.598c0.613,1.279,1.159,2.591,1.429,4.039
						c-0.982-1.098-1.687-2.331-2.326-3.598C505.592,407.659,505.046,406.348,504.774,404.901z"/>
				</g>
				<g>
					<path style="fill:#21102B;" d="M497.156,408.647c0.769,0.671,1.264,1.476,1.694,2.313c0.402,0.851,0.738,1.735,0.798,2.754
						c-0.771-0.67-1.266-1.475-1.694-2.313C497.553,410.549,497.217,409.666,497.156,408.647z"/>
				</g>
				<g>
					<path style="fill:#21102B;" d="M489.537,412.393c0.98,1.099,1.685,2.332,2.326,3.598c0.613,1.279,1.159,2.591,1.429,4.039
						c-0.982-1.098-1.687-2.331-2.326-3.598C490.356,415.152,489.809,413.84,489.537,412.393z"/>
				</g>
				<g>
					<path style="fill:#21102B;" d="M481.919,416.139c0.769,0.671,1.264,1.476,1.694,2.313c0.402,0.851,0.738,1.735,0.798,2.754
						c-0.771-0.67-1.266-1.475-1.694-2.313C482.316,418.042,481.98,417.158,481.919,416.139z"/>
				</g>
				<g>
					<path style="fill:#21102B;" d="M474.301,419.885c0.98,1.099,1.685,2.332,2.326,3.598c0.613,1.279,1.159,2.591,1.429,4.039
						c-0.982-1.098-1.687-2.331-2.326-3.598C475.119,422.644,474.573,421.332,474.301,419.885z"/>
				</g>
				<g>
					<path style="fill:#21102B;" d="M466.682,423.632c0.769,0.671,1.264,1.476,1.694,2.313c0.402,0.851,0.738,1.735,0.798,2.754
						c-0.771-0.67-1.266-1.475-1.694-2.313C467.08,425.534,466.744,424.65,466.682,423.632z"/>
				</g>
				<g>
					<path style="fill:#21102B;" d="M459.064,427.378c0.98,1.099,1.685,2.332,2.326,3.598c0.613,1.279,1.159,2.591,1.429,4.039
						c-0.982-1.098-1.687-2.332-2.326-3.598C459.882,430.136,459.336,428.825,459.064,427.378z"/>
				</g>
				<g>
					<path style="fill:#21102B;" d="M451.446,431.124c0.769,0.671,1.264,1.476,1.694,2.313c0.402,0.851,0.738,1.735,0.798,2.754
						c-0.771-0.67-1.266-1.475-1.694-2.313C451.843,433.026,451.507,432.143,451.446,431.124z"/>
				</g>
				<g>
					<path style="fill:#21102B;" d="M443.827,434.87c0.495,0.114,0.716,0.362,0.873,0.642c0.128,0.294,0.19,0.621-0.024,1.083
						c-0.497-0.113-0.718-0.361-0.873-0.642C443.677,435.658,443.615,435.332,443.827,434.87z"/>
				</g>
				<g>
					<path style="fill:#21102B;" d="M569.365,399.652c4.598-2.496,9.244-4.894,13.898-7.277c4.653-2.385,9.345-4.69,14.016-7.039
						c4.706-2.276,9.394-4.591,14.118-6.831l7.095-3.342c2.381-1.081,4.747-2.193,7.142-3.247c-2.294,1.257-4.617,2.457-6.925,3.687
						l-6.972,3.592c-4.654,2.383-9.345,4.691-14.016,7.037c-4.707,2.274-9.393,4.592-14.119,6.83
						C578.877,395.301,574.146,397.526,569.365,399.652z"/>
				</g>
				<g>
					<polygon style="fill:#21102B;" points="654.754,333.841 630.806,345.95 606.812,357.965 558.752,381.85 510.589,405.527 
						486.471,417.292 462.306,428.963 486.254,416.853 510.248,404.838 558.309,380.954 606.473,357.279 630.591,345.514 					"/>
				</g>
				<g>
					<path style="fill:#21102B;" d="M625.634,415.578c-7.382,0.206-14.763,0.303-22.145,0.383l-22.144,0.116l-22.144-0.115
						l-11.072-0.139l-11.072-0.245l11.072-0.245l11.072-0.139l22.144-0.115l22.144,0.116
						C610.871,415.275,618.253,415.371,625.634,415.578z"/>
				</g>
			</g>
		</g>
		<g>
			<polygon style="fill:#21102B;" points="148.763,436.595 223.918,436.352 299.072,436.264 449.382,436.096 599.691,436.263 
				674.845,436.35 750,436.595 674.845,436.84 599.691,436.928 449.382,437.094 299.072,436.927 223.918,436.838 			"/>
		</g>
		<g>
			<path style="fill:#F0E8CF;" d="M692.685,457.112H578.686v-19.164c0-9.243,7.493-16.735,16.735-16.735h80.528
				c9.243,0,16.735,7.493,16.735,16.735V457.112z"/>
			<g>
				<path style="fill:#FF654D;" d="M692.446,467.841H578.925c-2.963,0-5.364-2.402-5.364-5.364l0,0c0-2.963,2.402-5.364,5.364-5.364
					h113.521c2.963,0,5.364,2.402,5.364,5.364l0,0C697.811,465.44,695.409,467.841,692.446,467.841z"/>
				<g>
					<path style="fill:#21102B;" d="M573.56,464.431c9.415-0.206,18.831-0.303,28.246-0.383l28.246-0.117l28.246,0.115l14.123,0.139
						l14.123,0.245l-14.123,0.245l-14.123,0.139l-28.246,0.115l-28.246-0.117C592.391,464.734,582.976,464.638,573.56,464.431z"/>
				</g>
			</g>
		</g>
		<g>
			<polygon style="fill:#E0589C;" points="529.368,463.284 431.293,463.284 435.543,447.1 533.619,447.1 			"/>
			<polygon style="fill:#924BDA;" points="529.368,463.284 539.275,455.192 533.619,447.1 			"/>
			<g>
				<path style="fill:#21102B;" d="M452.016,453.578c6.623-0.206,13.246-0.303,19.869-0.383c6.623-0.082,13.246-0.075,19.869-0.117
					l19.87,0.115l9.935,0.14c3.312,0.083,6.623,0.132,9.935,0.245c-3.312,0.113-6.623,0.162-9.935,0.245l-9.935,0.14l-19.87,0.115
					c-6.623-0.042-13.246-0.034-19.869-0.117C465.262,453.881,458.639,453.785,452.016,453.578z"/>
			</g>
			<g>
				<path style="fill:#21102B;" d="M431.293,463.284c6.669-0.206,13.337-0.303,20.006-0.383c6.669-0.082,13.337-0.075,20.006-0.116
					l20.006,0.115l10.003,0.14c3.334,0.083,6.669,0.132,10.003,0.245c-3.334,0.113-6.669,0.162-10.003,0.245l-10.003,0.14
					l-20.006,0.115c-6.669-0.042-13.337-0.034-20.006-0.116C444.63,463.587,437.961,463.491,431.293,463.284z"/>
			</g>
		</g>
	</g>
	<g>
		<g>
			<g>
				<circle style="fill:#357CC9;" cx="118.147" cy="349.582" r="75.253"/>
				<ellipse style="fill:#51B75D;" cx="116.339" cy="382.439" rx="27.638" ry="19.767"/>
				<path style="fill:#51B75D;" d="M85.238,407.487c-0.096-5.612,0.059-11.351-1.707-16.757c-0.807-2.47-2.041-4.784-3.699-6.789
					c-1.848-2.235-4.138-3.988-6.563-5.553c-5.269-3.401-11.315-6.401-17.609-7.16c-0.157-0.019-0.132-0.247-0.005-0.289
					c0.958-0.321,1.909-0.662,2.852-1.024c8.452-3.248,16.431-8.019,23.27-13.954c6.695-5.811,12.645-13.102,15.206-21.72
					c1.313-4.421,1.652-9.038,0.402-13.515c-1.238-4.434-3.806-8.399-7.008-11.67c-6.772-6.917-16.067-10.227-25.19-12.801
					c-0.033-0.009-0.067-0.018-0.1-0.027c-13.704,13.629-22.191,32.5-22.191,53.355c0,30.165,17.756,56.171,43.38,68.172
					C85.548,414.397,85.296,410.917,85.238,407.487z"/>
				<path style="fill:#51B75D;" d="M145.214,280.595c-3.383,1.936-6.799,3.955-9.931,6.281
					c-6.148,4.566-11.469,10.721-13.585,18.208c-1.09,3.855-1.254,7.922-0.551,11.862c0.648,3.634,1.83,7.25,3.732,10.427
					c1.594,2.661,3.723,4.97,6.28,6.731c2.432,1.674,5.173,2.842,8,3.665c6.309,1.836,12.976,2.135,19.499,2.479
					c0.122,0.006,0.177,0.116,0.133,0.223c-1.539,3.766-4.991,6.286-6.833,9.875c-0.899,1.751-1.371,3.783-1.739,5.708
					c-0.403,2.109-0.595,4.285-0.405,6.429c0.318,3.598,2.097,7.037,5.045,9.173c5.178,3.752,12.524,3.255,18.284,1.277
					c0.124-0.042,0.239,0.108,0.173,0.217c-1.849,3.069-3.036,6.608-2.665,10.225c0.497,4.849,3.796,8.793,8.069,10.853
					c9.222-12.491,14.681-27.929,14.681-44.646c0-31.528-19.397-58.511-46.901-69.71
					C146.067,280.111,145.637,280.352,145.214,280.595z"/>
			</g>
			<g>
				<g>
					<path style="fill:#21102B;" d="M163.629,409.54c-6.735,5.208-14.365,9.278-22.477,11.952
						c-8.118,2.65-16.702,3.896-25.253,3.668c-17.127-0.324-34.036-6.898-47.028-18.07c-6.516-5.567-12.042-12.276-16.305-19.702
						c-4.288-7.411-7.294-15.57-8.776-23.999c-0.759-4.209-1.179-8.482-1.185-12.757c-0.071-4.274,0.288-8.548,0.951-12.765
						c1.402-8.426,4.241-16.595,8.361-24.046c-7.994,15.059-10.546,32.788-7.37,49.428c3.083,16.661,12.07,32.137,24.975,43.082
						c12.782,11.094,29.461,17.577,46.4,18.062C132.859,425.046,149.97,419.725,163.629,409.54z"/>
				</g>
				<g>
					<path style="fill:#21102B;" d="M118.147,274.329c4.927-0.106,9.868,0.324,14.73,1.204c4.857,0.91,9.627,2.31,14.217,4.163
						c9.184,3.712,17.579,9.342,24.617,16.321c6.982,7.037,12.608,15.434,16.323,24.617c1.853,4.591,3.252,9.361,4.163,14.218
						c0.879,4.862,1.309,9.803,1.202,14.73c-0.212-9.848-2.24-19.631-6.076-28.653c-3.821-9.023-9.369-17.308-16.319-24.205
						c-6.895-6.952-15.183-12.497-24.205-16.32C137.779,276.568,127.996,274.539,118.147,274.329z"/>
				</g>
				<g>
					<path style="fill:#21102B;" d="M35.533,349.582c-0.571-10.82,1.261-21.835,5.256-32.043c1.986-5.11,4.518-10.016,7.532-14.613
						c2.988-4.616,6.492-8.896,10.366-12.805c7.754-7.811,17.13-14.023,27.34-18.087c10.203-4.084,21.236-5.998,32.121-5.592
						l0.039,0.001c0.279,0.01,0.497,0.245,0.487,0.524c-0.142,3.889-0.317,7.778-0.525,11.667
						c-0.209-3.889-0.383-7.778-0.525-11.667l0.525,0.525c-10.746,0.413-21.341,2.75-31.115,6.967
						c-4.892,2.097-9.558,4.686-13.97,7.641c-4.404,2.972-8.503,6.382-12.288,10.107c-3.77,3.743-7.162,7.862-10.186,12.235
						c-2.999,4.391-5.597,9.064-7.751,13.945C38.529,328.158,36.112,338.77,35.533,349.582z"/>
				</g>
				<g>
					<path style="fill:#21102B;" d="M118.147,425.079c0.125,2.373,0.256,4.745,0.351,7.118c0.007,0.186-0.137,0.342-0.323,0.35
						l-0.028,0.001c-10.864,0.468-21.89-1.424-32.105-5.456c-10.209-4.055-19.591-10.241-27.363-18.041
						c-7.762-7.803-13.942-17.189-17.914-27.416c-4-10.209-5.825-21.233-5.232-32.053c0.6,10.812,3.026,21.415,7.327,31.184
						c4.3,9.761,10.388,18.689,17.921,26.183c7.525,7.495,16.457,13.577,26.235,17.794c9.762,4.269,20.364,6.628,31.131,7.103
						l-0.351,0.351C117.891,429.824,118.022,427.451,118.147,425.079z"/>
				</g>
				<circle style="fill:#FCD426;" cx="118.028" cy="256.984" r="3.566"/>
				<g>
					<path style="fill:#21102B;" d="M118.147,421.097c0.625,2.592,0.936,5.184,1.175,7.776c0.22,2.592,0.322,5.184,0.324,7.777
						c0.002,2.592-0.1,5.184-0.32,7.776c-0.238,2.592-0.551,5.184-1.179,7.776c-0.628-2.592-0.942-5.184-1.18-7.776
						c-0.22-2.592-0.322-5.184-0.32-7.776c0.002-2.592,0.104-5.184,0.324-7.777C117.211,426.282,117.522,423.69,118.147,421.097z"/>
				</g>
				<path style="fill:#21102B;" d="M149.923,460.018c0,4.431-14.227,8.023-31.776,8.023s-31.776-3.592-31.776-8.023
					c0-4.431,14.227-13.584,31.776-13.584S149.923,455.587,149.923,460.018z"/>
				<g>
					<g>
						<path style="fill:#21102B;" d="M132.019,276.952c2.695,5.624,4.835,11.501,6.774,17.429
							c1.905,5.943,3.504,11.984,4.823,18.087c2.652,12.207,3.992,24.688,4.232,37.181c0.03,6.25-0.249,12.498-0.81,18.722
							c-0.383,3.101-0.654,6.216-1.191,9.295c-0.257,1.541-0.446,3.093-0.758,4.624l-0.932,4.592
							c-2.618,12.217-6.736,24.096-12.137,35.329c2.438-5.735,4.833-11.492,6.648-17.45c1.972-5.903,3.471-11.952,4.736-18.036
							c1.231-6.096,2.102-12.256,2.728-18.44c0.528-6.194,0.773-12.409,0.717-18.624c-0.156-12.43-1.502-24.845-3.983-37.036
							c-1.222-6.099-2.735-12.142-4.539-18.099C136.55,288.561,134.507,282.667,132.019,276.952z"/>
					</g>
					<g>
						<path style="fill:#21102B;" d="M152.137,283.916c7.423,9.034,12.782,19.665,16.512,30.745
							c1.866,5.552,3.209,11.278,4.109,17.067c0.19,1.453,0.457,2.896,0.583,4.357l0.41,4.378l0.197,4.393
							c0.076,1.464,0.006,2.931,0.015,4.397c-0.145,5.856-0.641,11.72-1.76,17.474l-0.379,2.164l-0.492,2.141
							c-0.336,1.426-0.641,2.859-1.001,4.277c-0.844,2.804-1.534,5.657-2.588,8.391l-1.467,4.137l-1.687,4.051
							c-1.061,2.728-2.418,5.324-3.666,7.966c-0.61,1.329-1.351,2.591-2.052,3.873l-2.12,3.834
							c-1.488,2.513-3.072,4.968-4.615,7.444c6.093-9.953,11.217-20.503,14.878-31.551l0.697-2.067
							c0.223-0.692,0.396-1.399,0.597-2.098l1.186-4.197c0.35-1.41,0.646-2.834,0.971-4.251l0.478-2.127l0.365-2.149
							c1.082-5.713,1.539-11.528,1.657-17.33c0.307-11.623-1.562-23.254-5.045-34.338c-1.757-5.542-3.943-10.956-6.577-16.149
							C158.719,293.555,155.729,288.519,152.137,283.916z"/>
					</g>
					<g>
						<path style="fill:#21102B;" d="M104.042,422.211c-2.694-5.624-4.835-11.501-6.774-17.429
							c-1.905-5.943-3.504-11.984-4.823-18.088c-2.652-12.207-3.992-24.688-4.232-37.181c-0.03-6.25,0.249-12.498,0.81-18.722
							c0.382-3.101,0.654-6.216,1.191-9.295c0.257-1.541,0.446-3.093,0.758-4.624l0.932-4.592
							c2.618-12.217,6.736-24.096,12.137-35.329c-2.438,5.735-4.833,11.491-6.648,17.45c-1.972,5.903-3.471,11.952-4.736,18.036
							c-1.231,6.096-2.102,12.256-2.728,18.44c-0.528,6.194-0.773,12.409-0.717,18.625c0.156,12.43,1.502,24.845,3.983,37.036
							c1.222,6.099,2.735,12.142,4.539,18.1C99.511,410.602,101.554,416.497,104.042,422.211z"/>
					</g>
					<g>
						<path style="fill:#21102B;" d="M83.924,415.247c-7.423-9.034-12.782-19.665-16.512-30.745
							c-1.866-5.552-3.209-11.278-4.109-17.067c-0.19-1.453-0.457-2.896-0.583-4.357l-0.41-4.377l-0.197-4.393
							c-0.076-1.464-0.006-2.931-0.015-4.397c0.145-5.856,0.641-11.72,1.76-17.474l0.379-2.164l0.493-2.141
							c0.335-1.426,0.641-2.859,1.001-4.277c0.844-2.804,1.534-5.657,2.588-8.391l1.467-4.137l1.687-4.051
							c1.061-2.728,2.418-5.324,3.666-7.966c0.61-1.329,1.35-2.591,2.052-3.873l2.12-3.834c1.488-2.513,3.072-4.968,4.615-7.444
							c-6.093,9.953-11.218,20.503-14.878,31.552l-0.697,2.067c-0.223,0.692-0.396,1.399-0.597,2.098l-1.186,4.197
							c-0.35,1.41-0.646,2.834-0.971,4.251l-0.478,2.127l-0.365,2.149c-1.082,5.714-1.54,11.528-1.657,17.33
							c-0.307,11.623,1.562,23.254,5.045,34.338c1.757,5.542,3.943,10.956,6.577,16.149
							C77.342,405.609,80.332,410.644,83.924,415.247z"/>
					</g>
					<g>
						<path style="fill:#21102B;" d="M190.918,362.672c-11.293,5.35-23.314,9.081-35.509,11.82
							c-12.214,2.72-24.708,4.137-37.221,4.43c-6.26,0.059-12.52-0.189-18.756-0.732c-3.107-0.37-6.229-0.63-9.315-1.159
							c-1.544-0.252-3.099-0.441-4.634-0.744l-4.602-0.922c-12.245-2.586-24.151-6.7-35.404-12.108
							c5.745,2.441,11.512,4.838,17.483,6.647c5.916,1.966,11.977,3.459,18.076,4.707c6.109,1.221,12.283,2.068,18.479,2.673
							c6.206,0.511,12.433,0.724,18.658,0.64c12.45-0.209,24.878-1.632,37.076-4.18c6.103-1.259,12.146-2.811,18.104-4.651
							C179.316,367.278,185.208,365.196,190.918,362.672z"/>
					</g>
					<g>
						<path style="fill:#21102B;" d="M184.088,383.038c-9.082,7.446-19.745,12.851-30.864,16.633
							c-5.571,1.893-11.317,3.265-17.128,4.197c-1.458,0.199-2.909,0.458-4.374,0.607l-4.396,0.429l-4.412,0.216
							c-1.47,0.101-2.944,0.02-4.416,0.038c-5.884-0.105-11.776-0.594-17.561-1.688l-2.176-0.371l-2.153-0.484l-4.302-0.987
							l-4.242-1.216l-2.115-0.625l-2.08-0.733l-4.159-1.466l-4.075-1.682c-2.742-1.063-5.356-2.413-8.009-3.668
							c-1.336-0.612-2.608-1.348-3.894-2.055l-3.853-2.127c-2.527-1.49-4.992-3.084-7.48-4.632
							c9.998,6.12,20.605,11.253,31.714,14.9l2.078,0.696l2.111,0.588l4.219,1.182l4.274,0.957l2.139,0.469l2.16,0.357
							c5.744,1.057,11.587,1.507,17.416,1.586c11.677,0.256,23.352-1.679,34.475-5.216c5.561-1.785,10.996-3.991,16.207-6.65
							C174.406,389.651,179.461,386.641,184.088,383.038z"/>
					</g>
					<g>
						<path style="fill:#21102B;" d="M45.718,334.675c11.282-5.249,23.283-8.872,35.448-11.501
							c12.182-2.623,24.636-3.922,37.098-4.133c6.235-0.017,12.466,0.281,18.672,0.853c3.092,0.386,6.199,0.668,9.269,1.208
							c1.536,0.26,3.085,0.447,4.61,0.767l4.579,0.935c12.18,2.636,24.026,6.752,35.229,12.141
							c-5.721-2.433-11.462-4.822-17.403-6.639c-5.886-1.974-11.919-3.474-17.985-4.749c-6.08-1.232-12.221-2.122-18.388-2.756
							c-6.177-0.539-12.376-0.802-18.576-0.76c-12.399,0.128-24.786,1.433-36.952,3.884c-6.086,1.206-12.118,2.699-18.063,4.488
							C57.305,330.173,51.422,332.2,45.718,334.675z"/>
					</g>
					<g>
						<path style="fill:#21102B;" d="M53.768,313.206c8.962-7.295,19.555-12.444,30.56-15.953
							c5.516-1.755,11.198-2.978,16.935-3.757c5.738-0.76,11.543-1.117,17.334-0.884c1.45-0.002,2.891,0.16,4.336,0.257
							c1.444,0.107,2.89,0.2,4.323,0.416l4.306,0.564l4.271,0.785c1.43,0.23,2.832,0.592,4.24,0.928
							c1.403,0.355,2.825,0.636,4.211,1.051c2.769,0.837,5.567,1.587,8.264,2.64c1.357,0.5,2.725,0.969,4.072,1.493l3.993,1.689
							l1.996,0.844c0.664,0.285,1.304,0.622,1.957,0.931l3.897,1.894c1.311,0.607,2.548,1.358,3.816,2.047l3.783,2.104
							c2.476,1.482,4.905,3.042,7.348,4.571c-9.834-6.021-20.23-11.131-31.115-14.846c-10.858-3.767-22.259-5.99-33.732-6.37
							c-11.475-0.466-23.003,1.1-34.01,4.375c-5.505,1.642-10.88,3.735-16.049,6.261C63.344,306.78,58.333,309.678,53.768,313.206z"
							/>
					</g>
					<g>
						<path style="fill:#21102B;" d="M118.144,275.652c0.856,12.303,1.431,24.624,1.904,36.948
							c0.465,12.325,0.743,24.656,0.885,36.991c0.058,12.334,0.069,24.672-0.345,37.004c-0.414,12.327-1.028,24.661-2.443,36.917
							l0.654-9.224c0.198-3.075,0.301-6.157,0.457-9.233c0.182-3.076,0.237-6.158,0.342-9.237c0.101-3.08,0.196-6.159,0.222-9.241
							c0.255-12.322,0.252-24.65,0.115-36.975c-0.058-12.327-0.352-24.651-0.651-36.976c-0.14-6.163-0.324-12.325-0.526-18.486
							L118.144,275.652z"/>
					</g>
					<g>
						<path style="fill:#21102B;" d="M191.733,348.402c-12.274,0.861-24.565,1.441-36.86,1.917
							c-12.296,0.468-24.598,0.751-36.903,0.895c-12.305,0.06-24.614,0.074-36.916-0.338c-12.298-0.413-24.603-1.026-36.83-2.438
							l9.203,0.652c3.068,0.199,6.142,0.301,9.212,0.456c3.068,0.182,6.143,0.237,9.215,0.341c3.072,0.1,6.144,0.195,9.219,0.221
							c12.293,0.253,24.592,0.247,36.888,0.109c12.297-0.06,24.593-0.358,36.888-0.662c6.148-0.142,12.295-0.328,18.442-0.532
							L191.733,348.402z"/>
					</g>
				</g>
				
					<path style="fill:none;stroke:#FFFFE9;stroke-width:0.75;stroke-linecap:round;stroke-linejoin:round;stroke-miterlimit:10;" d="
					M90.757,458.693c0,0,26.866,9.307,54.435,0"/>
			</g>
		</g>
		<g>
			<g>
				
					<ellipse transform="matrix(0.4845 -0.8748 0.8748 0.4845 -174.2375 342.7031)" style="fill:#E0589C;" cx="203.646" cy="319.183" rx="28.725" ry="28.725"/>
				
					<ellipse transform="matrix(0.7443 -0.6679 0.6679 0.7443 -161.0937 217.6243)" style="fill:#F0E8CF;" cx="203.647" cy="319.183" rx="23.215" ry="23.215"/>
				<g>
					<path style="fill:#21102B;" d="M185.009,324.395c-0.191-0.603-0.376-1.214-0.548-1.83c-0.13-0.623-0.233-1.255-0.351-1.888
						c-0.067-0.637-0.081-1.28-0.124-1.924c-0.001-0.643,0.047-1.287,0.069-1.933c0.217-2.579,1.03-5.106,2.293-7.375
						c1.284-2.257,3.023-4.263,5.115-5.787c0.542-0.354,1.067-0.729,1.617-1.061c0.572-0.297,1.13-0.618,1.709-0.892
						c0.602-0.227,1.196-0.467,1.797-0.679c0.616-0.172,1.234-0.331,1.849-0.48c-2.379,0.886-4.594,2.119-6.497,3.717
						c-1.895,1.602-3.515,3.516-4.719,5.673c-1.221,2.148-2.017,4.526-2.403,6.977C184.436,319.368,184.531,321.901,185.009,324.395
						z"/>
				</g>
				<path style="fill:#E0589C;" d="M226.552,400.077L226.552,400.077c-1.94,0.542-3.971-0.601-4.513-2.54L207.765,346.5
					c-0.542-1.94,0.601-3.971,2.54-4.513l0,0c1.94-0.543,3.971,0.601,4.513,2.54l14.273,51.037
					C229.635,397.504,228.492,399.535,226.552,400.077z"/>
			</g>
			<g>
				
					<rect x="219.768" y="326.585" transform="matrix(0.9926 -0.1215 0.1215 0.9926 -42.4044 29.9875)" style="fill:#924BDA;" width="9.759" height="72.111"/>
				<polygon style="fill:#F4C573;" points="215.422,327.446 218.882,315.552 225.109,326.26 				"/>
				<polygon style="fill:#924BDA;" points="221.379,319.845 218.882,315.552 217.495,320.321 				"/>
				<g>
					<path style="fill:#21102B;" d="M220.616,329.711c0.878,5.477,1.648,10.967,2.401,16.459c0.755,5.492,1.421,10.994,2.137,16.491
						c0.635,5.507,1.312,11.008,1.907,16.519l0.872,8.27c0.254,2.761,0.543,5.518,0.767,8.283c-0.449-2.737-0.835-5.482-1.254-8.223
						l-1.149-8.236c-0.753-5.492-1.422-10.994-2.135-16.491c-0.632-5.507-1.313-11.008-1.905-16.52
						C221.662,340.751,221.084,335.238,220.616,329.711z"/>
				</g>
			</g>
			<g>
				
					<rect x="252.423" y="326.595" transform="matrix(0.9944 0.1061 -0.1061 0.9944 39.9341 -25.2553)" style="fill:#51B75D;" width="9.759" height="72.111"/>
				<polygon style="fill:#F4C573;" points="256.276,326.281 262.336,315.478 265.98,327.317 				"/>
				<polygon style="fill:#51B75D;" points="263.797,320.225 262.336,315.478 259.907,319.81 				"/>
				<g>
					<path style="fill:#21102B;" d="M260.823,329.663c-0.383,5.533-0.875,11.055-1.384,16.575
						c-0.506,5.52-1.102,11.031-1.649,16.547c-0.627,5.508-1.211,11.02-1.879,16.523l-1.021,8.253
						c-0.377,2.747-0.719,5.497-1.126,8.241c0.181-2.768,0.427-5.529,0.639-8.293l0.744-8.282c0.509-5.52,1.101-11.031,1.65-16.547
						c0.63-5.507,1.21-11.02,1.881-16.522C259.345,340.654,260.029,335.152,260.823,329.663z"/>
				</g>
			</g>
			<g>
				<rect x="241.667" y="300.455" style="fill:#F4F0A4;" width="10.983" height="66.562"/>
				<rect x="227.506" y="300.455" style="fill:#F0E8CF;" width="19.941" height="106.082"/>
				<ellipse style="fill:#F4F0A4;" cx="237.476" cy="300.455" rx="9.97" ry="4.395"/>
				<g>
					<g>
						<path style="fill:#21102B;" d="M237.476,304.85c-0.297-2.159-0.429-4.317-0.478-6.476l0.439,0.476
							c-0.803-0.044-1.655,0.025-2.469,0.12c-0.818,0.109-1.625,0.291-2.367,0.599c-0.742,0.307-1.417,0.744-1.937,1.359
							c-0.515,0.628-0.763,1.435-0.932,2.293c-0.083-0.855-0.001-1.79,0.462-2.61c0.472-0.805,1.227-1.419,2.043-1.832
							c0.82-0.422,1.706-0.659,2.593-0.785c0.892-0.14,1.769-0.155,2.686-0.096c0.25,0.015,0.443,0.228,0.439,0.476
							C237.905,300.533,237.773,302.691,237.476,304.85z"/>
					</g>
					<g>
						<path style="fill:#21102B;" d="M247.447,300.455c0.206,4.728,0.303,9.455,0.383,14.183c0.082,4.728,0.075,9.455,0.117,14.183
							c-0.039,4.728-0.035,9.455-0.115,14.183l-0.14,7.091c-0.083,2.364-0.132,4.728-0.245,7.091
							c-0.113-2.364-0.162-4.728-0.245-7.091l-0.139-7.091c-0.08-4.728-0.076-9.455-0.115-14.183
							c0.042-4.728,0.034-9.455,0.117-14.183C247.144,309.91,247.24,305.183,247.447,300.455z"/>
					</g>
					<g>
						<path style="fill:#21102B;" d="M227.612,301.063c0.499,0.814,1.251,1.407,2.057,1.845c0.804,0.453,1.69,0.736,2.581,0.96
							c1.796,0.42,3.664,0.531,5.528,0.473c1.864-0.046,3.74-0.201,5.531-0.638c0.886-0.235,1.774-0.521,2.539-1.016
							c0.76-0.475,1.452-1.185,1.599-2.141c0.088,0.989-0.578,1.894-1.308,2.535c-0.768,0.642-1.683,1.053-2.606,1.37
							c-1.864,0.623-3.805,0.824-5.732,0.89c-1.928,0.039-3.895-0.119-5.765-0.725c-0.929-0.304-1.837-0.711-2.631-1.297
							C228.642,302.716,227.911,301.987,227.612,301.063z"/>
					</g>
				</g>
			</g>
			<g>
				<polygon style="fill:#357CC9;" points="256.933,450.9 217.943,450.9 208.661,364.645 266.215,364.645 				"/>
				<g>
					<path style="fill:#21102B;" d="M220.993,370.56c3.715-0.206,7.431-0.303,11.146-0.383c3.715-0.091,7.431-0.104,11.146-0.117
						c3.715,0.011,7.431,0.025,11.146,0.115l5.573,0.139c1.858,0.083,3.715,0.132,5.573,0.245c-1.858,0.113-3.716,0.162-5.573,0.245
						l-5.573,0.139c-3.715,0.091-7.431,0.104-11.146,0.115c-3.715-0.013-7.431-0.025-11.146-0.117
						C228.424,370.863,224.708,370.766,220.993,370.56z"/>
				</g>
				<g>
					<path style="fill:#21102B;" d="M208.661,364.645c4.743-0.206,9.486-0.303,14.229-0.383c4.743-0.082,9.486-0.075,14.229-0.117
						c4.743,0.039,9.486,0.035,14.229,0.115l7.115,0.14c2.372,0.083,4.743,0.132,7.115,0.245c-2.372,0.113-4.743,0.162-7.115,0.245
						l-7.115,0.14c-4.743,0.08-9.486,0.076-14.229,0.115c-4.743-0.042-9.486-0.034-14.229-0.117
						C218.147,364.947,213.404,364.851,208.661,364.645z"/>
				</g>
				<g>
					<path style="fill:#21102B;" d="M217.378,445.648c2.631-0.206,5.262-0.303,7.894-0.383c2.631-0.091,5.263-0.104,7.894-0.117
						c2.631,0.011,5.263,0.024,7.894,0.115l3.947,0.139c1.316,0.083,2.631,0.132,3.947,0.245c-1.316,0.113-2.631,0.162-3.947,0.245
						l-3.947,0.139c-2.631,0.091-5.263,0.104-7.894,0.115c-2.631-0.013-5.262-0.025-7.894-0.117
						C222.64,445.951,220.009,445.855,217.378,445.648z"/>
				</g>
			</g>
		</g>
		<g>
			<path style="fill:#FF654D;" d="M232.984,439.843c0,17.003-13.783,28.039-30.786,28.039s-30.786-11.036-30.786-28.039
				c0-17.003,13.783-30.786,30.786-30.786S232.984,422.841,232.984,439.843z"/>
			<path style="fill:#51B75D;" d="M235.033,379.864c0,0-25.307,1.292-24.471,24.471
				C233.741,405.171,235.033,379.864,235.033,379.864z"/>
			<g>
				<path style="fill:#21102B;" d="M202.197,416.217c-0.393-3.284-0.484-6.569-0.5-9.854c0.014-3.284,0.104-6.569,0.5-9.854
					c0.396,3.285,0.486,6.569,0.5,9.854C202.681,409.648,202.59,412.932,202.197,416.217z"/>
			</g>
			<g>
				<path style="fill:#21102B;" d="M196.737,414.655c0.884,0.359,1.76,0.621,2.644,0.802c0.884,0.168,1.769,0.285,2.657,0.252
					c0.884-0.021,1.776-0.098,2.655-0.309c0.891-0.176,1.753-0.478,2.679-0.745c-0.716,0.627-1.541,1.158-2.454,1.493
					c-0.9,0.384-1.889,0.522-2.869,0.561c-0.985,0.015-1.971-0.162-2.884-0.505C198.253,415.865,197.393,415.362,196.737,414.655z"
					/>
			</g>
			<g>
				<path style="fill:#21102B;" d="M202.197,412.7c2.564-2.855,5.205-5.633,7.858-8.399c2.651-2.768,5.366-5.472,8.046-8.211
					c2.737-2.682,5.444-5.394,8.21-8.047l4.163-3.966c1.413-1.296,2.803-2.616,4.238-3.891c-1.275,1.435-2.595,2.824-3.891,4.238
					l-3.966,4.163c-2.653,2.766-5.366,5.473-8.047,8.21c-2.739,2.68-5.443,5.395-8.211,8.046
					C207.83,407.495,205.053,410.136,202.197,412.7z"/>
			</g>
		</g>
	</g>
	<g>
		<rect style="fill:#FCD426;" width="750" height="45.568"/>
		<g>
			<polygon style="fill:#21102B;" points="320.783,39.556 374.435,39.312 428.087,39.224 535.391,39.057 642.696,39.223 
				696.348,39.311 750,39.556 696.348,39.8 642.696,39.888 535.391,40.054 428.087,39.887 374.435,39.799 			"/>
		</g>
		<g>
			<polygon style="fill:#21102B;" points="8.628,45.568 68.685,45.324 128.742,45.236 248.856,45.069 368.969,45.235 
				429.026,45.323 489.083,45.568 429.026,45.812 368.969,45.9 248.856,46.066 128.742,45.899 68.685,45.811 			"/>
		</g>
	</g>
</g>
<g id="TEXT">
	
		<text transform="matrix(1 0 0 1 33.9484 29.9989)" style="fill:#21102B; font-family:'Sniglet-Regular'; font-size:24px; letter-spacing:4;">a b c d e f g h i j k l m n o p q r s t u v w x y z</text>
	<g>
		<g>
			<g>
				<path style="fill:#FF654D;" d="M21.608,53.069c0.899,17.889,2.447,35.865,4.647,53.888
					c11.832-13.749,23.071-27.83,33.705-42.207C47.066,61.374,34.272,57.48,21.608,53.069z"/>
				<path style="fill:#FCD426;" d="M94.227,72.464c3.449,17.549,7.551,35.09,12.306,52.584c9.635-15.355,18.645-30.947,27.022-46.74
					C120.393,76.877,107.274,74.929,94.227,72.464z"/>
				<path style="fill:#FF654D;" d="M168.395,80.883c5.941,16.853,12.529,33.602,19.76,50.21
					c7.279-16.604,13.911-33.351,19.894-50.203C194.836,81.405,181.608,81.403,168.395,80.883z"/>
				<path style="fill:#FCD426;" d="M242.889,78.328c8.336,15.799,17.302,31.401,26.889,46.767
					c4.803-17.497,8.95-35.042,12.44-52.596C269.172,74.959,256.052,76.902,242.889,78.328z"/>
				<path style="fill:#FF654D;" d="M316.488,64.797c10.594,14.39,21.79,28.487,33.576,42.254c2.248-18.033,3.84-36.019,4.779-53.92
					C342.178,57.537,329.383,61.425,316.488,64.797z"/>
			</g>
			<path style="fill:none;stroke:#21102B;stroke-linecap:round;stroke-linejoin:round;stroke-miterlimit:10;" d="M1.456,45.568
				c120.064,47.61,253.654,47.61,373.718,0"/>
		</g>
		<g>
			<g>
				<path style="fill:#FCD426;" d="M394.762,53.069c0.899,17.889,2.447,35.865,4.647,53.888
					c11.832-13.749,23.071-27.83,33.705-42.207C420.22,61.374,407.425,57.48,394.762,53.069z"/>
				<path style="fill:#FF654D;" d="M467.381,72.464c3.449,17.549,7.551,35.09,12.306,52.584
					c9.635-15.355,18.645-30.947,27.022-46.74C493.547,76.877,480.427,74.929,467.381,72.464z"/>
				<path style="fill:#FCD426;" d="M541.548,80.883c5.941,16.853,12.529,33.602,19.759,50.21
					c7.279-16.604,13.911-33.351,19.894-50.203C567.989,81.405,554.761,81.403,541.548,80.883z"/>
				<path style="fill:#FF654D;" d="M616.043,78.328c8.336,15.799,17.302,31.401,26.889,46.767
					c4.803-17.497,8.95-35.042,12.44-52.596C642.325,74.959,629.205,76.902,616.043,78.328z"/>
				<path style="fill:#FCD426;" d="M689.641,64.797c10.594,14.39,21.79,28.487,33.576,42.254c2.248-18.033,3.84-36.019,4.779-53.92
					C715.332,57.537,702.536,61.425,689.641,64.797z"/>
			</g>
			<path style="fill:none;stroke:#21102B;stroke-linecap:round;stroke-linejoin:round;stroke-miterlimit:10;" d="M374.609,45.568
				c120.064,47.61,253.654,47.61,373.718,0"/>
		</g>
	</g>
</g>
</svg>
