<?xml version="1.0" encoding="utf-8"?>
<!-- Generator: Adobe Illustrator 27.5.0, SVG Export Plug-In . SVG Version: 6.00 Build 0)  -->
<svg version="1.1" xmlns="http://www.w3.org/2000/svg" xmlns:xlink="http://www.w3.org/1999/xlink" x="0px" y="0px"
	 viewBox="0 0 500 500" style="enable-background:new 0 0 500 500;" xml:space="preserve">
<g id="BACKGROUND">
</g>
<g id="DESIGNED_BY_FREEPIK">
	<g>
		<g>
			<g>
				<g>
					<path style="fill:#364349;" d="M175.869,466.59c-0.14-0.17-0.34-0.25-0.61-0.25c-0.27,0-0.47,0.09-0.62,0.27
						c-0.14,0.19-0.21,0.46-0.21,0.82v2.6c-0.33-0.359-0.67-0.63-1.02-0.81c-0.35-0.17-0.77-0.26-1.28-0.26
						c-0.87,0-1.58,0.309-2.12,0.92c-0.53,0.62-0.8,1.47-0.8,2.57c0,0.52,0.07,1,0.2,1.449c0.14,0.45,0.33,0.841,0.6,1.17
						c0.26,0.33,0.57,0.58,0.93,0.761c0.35,0.18,0.74,0.27,1.16,0.27c0.32,0,0.62-0.05,0.88-0.14c0.27-0.08,0.52-0.21,0.75-0.38
						c0.23-0.17,0.46-0.391,0.7-0.66v0.17c0,0.32,0.08,0.57,0.23,0.75c0.16,0.17,0.36,0.26,0.6,0.26c0.24,0,0.44-0.09,0.6-0.25
						c0.15-0.17,0.23-0.42,0.23-0.76v-7.75C176.089,467.01,176.019,466.76,175.869,466.59z M174.099,473.76
						c-0.15,0.33-0.35,0.58-0.61,0.74c-0.25,0.16-0.54,0.24-0.84,0.24c-0.31,0-0.59-0.091-0.85-0.261
						c-0.26-0.17-0.46-0.42-0.61-0.75c-0.14-0.34-0.22-0.739-0.22-1.22c0-0.45,0.07-0.85,0.21-1.19c0.14-0.34,0.34-0.6,0.59-0.779
						c0.25-0.181,0.54-0.28,0.86-0.28c0.31,0,0.6,0.09,0.86,0.27c0.26,0.181,0.46,0.44,0.61,0.771c0.16,0.34,0.23,0.74,0.23,1.21
						C174.329,473.01,174.259,473.42,174.099,473.76z"/>
					<path style="fill:#364349;" d="M182.919,473.68c-0.17,0-0.3,0.04-0.39,0.12c-0.22,0.2-0.4,0.37-0.53,0.49
						c-0.14,0.12-0.29,0.229-0.45,0.34c-0.17,0.1-0.33,0.18-0.51,0.229c-0.17,0.051-0.36,0.07-0.57,0.07
						c-0.32,0-0.6-0.08-0.86-0.229c-0.26-0.15-0.47-0.381-0.63-0.69c-0.16-0.3-0.24-0.66-0.24-1.05h3.44c0.46,0,0.81-0.07,1.07-0.2
						c0.25-0.13,0.38-0.42,0.38-0.86c0-0.479-0.13-0.939-0.37-1.4c-0.24-0.46-0.61-0.84-1.11-1.13c-0.49-0.29-1.08-0.431-1.76-0.431
						c-0.53,0-1.01,0.08-1.44,0.25c-0.44,0.17-0.8,0.42-1.1,0.73c-0.29,0.32-0.52,0.7-0.67,1.149c-0.16,0.44-0.24,0.921-0.24,1.44
						c0,1.1,0.32,1.98,0.94,2.62c0.63,0.64,1.51,0.97,2.64,0.97c0.49,0,0.93-0.07,1.31-0.2c0.38-0.13,0.69-0.29,0.94-0.479
						c0.25-0.2,0.44-0.401,0.57-0.611c0.12-0.22,0.18-0.399,0.18-0.56c0-0.181-0.05-0.32-0.16-0.42
						C183.239,473.73,183.099,473.68,182.919,473.68z M179.249,470.609c0.28-0.3,0.64-0.449,1.08-0.449
						c0.46,0,0.83,0.149,1.11,0.449c0.28,0.301,0.44,0.75,0.49,1.351h-3.19C178.799,471.37,178.969,470.92,179.249,470.609z"/>
					<path style="fill:#364349;" d="M189.919,472.94c-0.18-0.25-0.44-0.47-0.79-0.649c-0.34-0.19-0.79-0.351-1.33-0.481
						c-0.46-0.109-0.82-0.21-1.08-0.28c-0.27-0.079-0.47-0.18-0.63-0.3c-0.15-0.109-0.23-0.27-0.23-0.45
						c0-0.199,0.1-0.369,0.31-0.51c0.22-0.13,0.48-0.2,0.8-0.2c0.31,0,0.55,0.051,0.73,0.16c0.18,0.101,0.34,0.24,0.47,0.41
						c0.16,0.2,0.31,0.36,0.43,0.46c0.13,0.101,0.28,0.16,0.46,0.16c0.25,0,0.45-0.07,0.58-0.2c0.14-0.13,0.2-0.29,0.2-0.49
						c0-0.19-0.06-0.38-0.19-0.569c-0.12-0.19-0.31-0.37-0.55-0.53c-0.24-0.16-0.54-0.28-0.91-0.38c-0.36-0.09-0.77-0.14-1.22-0.14
						c-0.58,0-1.08,0.09-1.49,0.279c-0.41,0.19-0.72,0.44-0.93,0.75c-0.21,0.311-0.309,0.65-0.309,1c0,0.391,0.11,0.73,0.34,1
						c0.23,0.27,0.53,0.49,0.91,0.65c0.38,0.16,0.87,0.32,1.48,0.47c0.53,0.13,0.92,0.271,1.15,0.41c0.24,0.14,0.35,0.37,0.35,0.67
						c0,0.21-0.11,0.38-0.33,0.54c-0.23,0.16-0.52,0.24-0.87,0.24c-0.43,0-0.78-0.08-1.03-0.23c-0.25-0.16-0.46-0.39-0.65-0.71
						c-0.08-0.16-0.18-0.29-0.28-0.38s-0.24-0.13-0.42-0.13c-0.21,0-0.39,0.07-0.52,0.2c-0.14,0.14-0.21,0.309-0.21,0.5
						c0,0.29,0.11,0.58,0.32,0.87c0.22,0.29,0.55,0.529,1,0.729c0.45,0.19,0.99,0.29,1.62,0.29c0.66,0,1.22-0.09,1.68-0.27
						c0.47-0.181,0.82-0.44,1.05-0.79c0.24-0.34,0.35-0.761,0.35-1.24C190.179,473.48,190.099,473.19,189.919,472.94z"/>
					<path style="fill:#364349;" d="M192.599,469.22c-0.17-0.18-0.38-0.27-0.64-0.27c-0.26,0-0.47,0.09-0.63,0.27
						c-0.16,0.17-0.24,0.43-0.24,0.78v5.029c0,0.341,0.08,0.601,0.24,0.79c0.16,0.181,0.37,0.28,0.63,0.28
						c0.26,0,0.47-0.09,0.64-0.27c0.17-0.181,0.25-0.45,0.25-0.801v-5.079C192.849,469.64,192.769,469.39,192.599,469.22z
						 M192.579,466.63c-0.17-0.14-0.37-0.22-0.6-0.22c-0.24,0-0.44,0.08-0.62,0.25c-0.18,0.159-0.27,0.359-0.27,0.609
						c0,0.28,0.09,0.49,0.26,0.641c0.18,0.149,0.39,0.22,0.63,0.22c0.24,0,0.44-0.07,0.61-0.22c0.17-0.16,0.26-0.37,0.26-0.641
						C192.849,466.99,192.759,466.779,192.579,466.63z"/>
					<path style="fill:#364349;" d="M200.379,469.279c-0.11-0.22-0.34-0.329-0.68-0.329c-0.23,0-0.43,0.09-0.58,0.25
						c-0.15,0.17-0.22,0.409-0.22,0.71v0.239c-0.31-0.409-0.65-0.71-1.02-0.9c-0.36-0.19-0.79-0.29-1.29-0.29
						c-0.42,0-0.8,0.08-1.15,0.229c-0.35,0.141-0.65,0.36-0.92,0.66c-0.26,0.29-0.47,0.65-0.61,1.07
						c-0.15,0.43-0.22,0.899-0.22,1.43c0,0.71,0.12,1.33,0.36,1.87c0.23,0.54,0.57,0.96,1.01,1.26c0.44,0.311,0.95,0.46,1.54,0.46
						c0.49,0,0.91-0.1,1.27-0.3c0.35-0.2,0.66-0.49,0.93-0.86c-0.01,0.57-0.02,0.99-0.04,1.25c-0.01,0.261-0.07,0.5-0.17,0.73
						c-0.1,0.23-0.28,0.4-0.53,0.53c-0.25,0.13-0.6,0.189-1.06,0.189c-0.22,0-0.42-0.02-0.59-0.06c-0.17-0.04-0.32-0.101-0.44-0.19
						c-0.12-0.08-0.24-0.18-0.34-0.3c-0.1-0.12-0.2-0.24-0.29-0.35c-0.19-0.23-0.42-0.34-0.68-0.34c-0.2,0-0.38,0.069-0.52,0.199
						c-0.15,0.141-0.22,0.31-0.22,0.53c0,0.28,0.13,0.55,0.38,0.82c0.26,0.269,0.63,0.489,1.1,0.66c0.48,0.17,1.02,0.25,1.63,0.25
						c0.66,0,1.21-0.061,1.65-0.2c0.45-0.13,0.81-0.33,1.08-0.61c0.28-0.27,0.48-0.62,0.6-1.04c0.12-0.42,0.19-0.92,0.19-1.51v-5.1
						C200.549,469.82,200.489,469.5,200.379,469.279z M198.589,473.69c-0.16,0.31-0.37,0.551-0.63,0.7
						c-0.26,0.16-0.54,0.24-0.83,0.24c-0.49,0-0.9-0.18-1.21-0.55c-0.31-0.36-0.46-0.9-0.46-1.61c0-0.71,0.15-1.25,0.45-1.63
						c0.3-0.38,0.7-0.58,1.21-0.58c0.51,0,0.93,0.2,1.24,0.6c0.32,0.4,0.48,0.96,0.48,1.681
						C198.839,472.99,198.749,473.37,198.589,473.69z"/>
					<path style="fill:#364349;" d="M207.899,470.8c-0.03-0.24-0.11-0.48-0.22-0.69c-0.18-0.369-0.45-0.649-0.82-0.859
						c-0.36-0.2-0.78-0.3-1.24-0.3c-0.48,0-0.9,0.1-1.27,0.29c-0.1,0.05-0.19,0.109-0.29,0.18c-0.25,0.18-0.49,0.42-0.72,0.72v-0.22
						c0-0.21-0.04-0.391-0.11-0.53c-0.08-0.149-0.18-0.26-0.3-0.33c-0.13-0.069-0.27-0.109-0.42-0.109c-0.25,0-0.45,0.079-0.6,0.25
						c-0.15,0.159-0.22,0.409-0.22,0.75v5.079c0,0.341,0.08,0.601,0.25,0.79c0.16,0.181,0.37,0.28,0.62,0.28
						c0.26,0,0.48-0.09,0.64-0.27c0.17-0.181,0.25-0.45,0.25-0.801v-2.199c0-0.721,0.04-1.21,0.13-1.471
						c0.12-0.33,0.31-0.58,0.56-0.77c0.26-0.19,0.55-0.28,0.86-0.28c0.48,0,0.8,0.151,0.96,0.46c0.16,0.311,0.24,0.75,0.24,1.33
						v2.93c0,0.341,0.09,0.601,0.25,0.79c0.16,0.181,0.37,0.28,0.64,0.28c0.25,0,0.46-0.09,0.62-0.27
						c0.17-0.181,0.25-0.45,0.25-0.801v-3.27C207.959,471.37,207.939,471.05,207.899,470.8z"/>
					<path style="fill:#364349;" d="M214.769,473.68c-0.17,0-0.29,0.04-0.38,0.12c-0.22,0.2-0.4,0.37-0.54,0.49
						c-0.14,0.12-0.29,0.229-0.45,0.34c-0.16,0.1-0.33,0.18-0.5,0.229c-0.17,0.051-0.35,0.07-0.55,0.07h-0.01c-0.01,0-0.01,0-0.02,0
						c-0.31,0-0.6-0.08-0.86-0.229c-0.26-0.15-0.47-0.381-0.62-0.69c-0.03-0.06-0.06-0.11-0.08-0.17v-0.01
						c-0.11-0.261-0.16-0.561-0.17-0.87h3.44c0.46,0,0.82-0.07,1.07-0.2c0.25-0.13,0.38-0.42,0.38-0.86c0-0.479-0.12-0.939-0.37-1.4
						c-0.24-0.46-0.61-0.84-1.1-1.13c-0.49-0.29-1.08-0.431-1.77-0.431c-0.53,0-1.01,0.08-1.441,0.25c-0.43,0.17-0.8,0.42-1.09,0.73
						c-0.3,0.32-0.53,0.7-0.68,1.149c-0.15,0.44-0.23,0.921-0.23,1.44c0,1.1,0.31,1.98,0.941,2.62c0.62,0.64,1.5,0.97,2.63,0.97
						c0.49,0,0.93-0.07,1.31-0.2c0.01,0,0.03-0.01,0.04-0.01c0.36-0.13,0.66-0.29,0.91-0.47c0.25-0.2,0.43-0.401,0.56-0.611
						c0.12-0.22,0.19-0.399,0.19-0.56c0-0.181-0.06-0.32-0.17-0.42C215.099,473.73,214.949,473.68,214.769,473.68z M211.109,470.609
						c0.28-0.3,0.64-0.449,1.07-0.449c0.46,0,0.83,0.149,1.11,0.449c0.29,0.301,0.45,0.75,0.49,1.351h-3.19
						C210.649,471.37,210.819,470.92,211.109,470.609z"/>
					<path style="fill:#364349;" d="M222.639,466.59c-0.14-0.17-0.35-0.25-0.61-0.25c-0.27,0-0.48,0.09-0.62,0.27
						c-0.14,0.19-0.22,0.46-0.22,0.82v2.6c-0.33-0.359-0.66-0.63-1.01-0.81c-0.35-0.17-0.78-0.26-1.28-0.26
						c-0.88,0-1.58,0.309-2.12,0.92c-0.54,0.62-0.81,1.47-0.81,2.57c0,0.52,0.07,1,0.21,1.449c0.13,0.45,0.33,0.841,0.59,1.17
						c0.26,0.33,0.57,0.58,0.93,0.761c0.36,0.18,0.75,0.27,1.17,0.27c0.32,0,0.61-0.05,0.88-0.14c0.27-0.08,0.52-0.21,0.75-0.38
						c0.23-0.17,0.46-0.391,0.69-0.66v0.17c0,0.32,0.08,0.57,0.24,0.75c0.16,0.17,0.35,0.26,0.6,0.26c0.24,0,0.44-0.09,0.59-0.25
						c0.16-0.17,0.24-0.42,0.24-0.76v-7.75C222.859,467.01,222.779,466.76,222.639,466.59z M220.869,473.76
						c-0.15,0.33-0.36,0.58-0.61,0.74c-0.26,0.16-0.54,0.24-0.85,0.24c-0.3,0-0.58-0.091-0.84-0.261c-0.26-0.17-0.46-0.42-0.61-0.75
						c-0.15-0.34-0.22-0.739-0.22-1.22c0-0.45,0.07-0.85,0.21-1.19c0.14-0.34,0.33-0.6,0.59-0.779c0.25-0.181,0.54-0.28,0.86-0.28
						c0.31,0,0.59,0.09,0.85,0.27c0.26,0.181,0.47,0.44,0.62,0.771c0.15,0.34,0.23,0.74,0.23,1.21
						C221.099,473.01,221.019,473.42,220.869,473.76z"/>
					<path style="fill:#364349;" d="M233.219,470.58c-0.24-0.521-0.58-0.92-1.02-1.2c-0.44-0.28-0.95-0.42-1.54-0.42
						c-0.5,0-0.93,0.099-1.27,0.28c-0.35,0.18-0.68,0.439-1.01,0.789v-2.689c0-0.32-0.08-0.57-0.22-0.74
						c-0.15-0.18-0.36-0.26-0.63-0.26c-0.25,0-0.45,0.09-0.6,0.27c-0.14,0.181-0.21,0.45-0.21,0.811v7.67
						c0,0.33,0.07,0.58,0.22,0.75c0.15,0.17,0.34,0.26,0.59,0.26s0.45-0.09,0.61-0.26c0.16-0.17,0.24-0.42,0.24-0.75v-0.17
						c0.19,0.22,0.35,0.389,0.46,0.5c0.12,0.109,0.26,0.22,0.43,0.33c0.17,0.1,0.37,0.19,0.61,0.25c0.24,0.06,0.49,0.1,0.76,0.1
						c0.44,0,0.85-0.09,1.22-0.27c0.36-0.181,0.68-0.431,0.93-0.761c0.26-0.319,0.46-0.71,0.59-1.149c0.14-0.45,0.2-0.93,0.2-1.47
						C233.579,471.73,233.459,471.109,233.219,470.58z M231.339,474.16c-0.32,0.39-0.7,0.58-1.14,0.58c-0.52,0-0.94-0.19-1.26-0.57
						c-0.32-0.37-0.48-0.91-0.48-1.611c0-0.47,0.08-0.889,0.23-1.229c0.15-0.351,0.35-0.61,0.61-0.79c0.27-0.181,0.56-0.28,0.9-0.28
						c0.32,0,0.61,0.1,0.85,0.28c0.25,0.18,0.441,0.439,0.57,0.769c0.13,0.34,0.2,0.74,0.2,1.2
						C231.819,473.23,231.659,473.779,231.339,474.16z"/>
					<path style="fill:#364349;" d="M240.009,469.34c-0.07-0.12-0.16-0.21-0.28-0.28c-0.12-0.069-0.25-0.109-0.38-0.109
						c-0.19,0-0.33,0.029-0.43,0.1c-0.1,0.06-0.2,0.19-0.29,0.37c-0.09,0.189-0.19,0.439-0.3,0.77l-1.41,4.021l-1.49-4.33
						c-0.1-0.3-0.21-0.53-0.34-0.69c-0.13-0.16-0.32-0.239-0.57-0.239c-0.15,0-0.29,0.04-0.42,0.119
						c-0.14,0.07-0.25,0.181-0.32,0.31c-0.08,0.12-0.12,0.26-0.12,0.41c0,0.149,0.07,0.37,0.2,0.689l2.16,5.44l-0.16,0.399
						c-0.12,0.28-0.22,0.5-0.32,0.65c-0.09,0.15-0.19,0.25-0.31,0.31c-0.11,0.061-0.27,0.091-0.47,0.091
						c-0.09,0-0.18-0.011-0.29-0.04c-0.09-0.021-0.19-0.04-0.28-0.04c-0.24,0-0.42,0.06-0.54,0.17c-0.13,0.109-0.19,0.26-0.19,0.46
						c0,0.3,0.13,0.5,0.39,0.62c0.26,0.109,0.64,0.16,1.16,0.16c0.52,0,0.94-0.08,1.25-0.24c0.32-0.16,0.57-0.391,0.75-0.691
						c0.19-0.3,0.39-0.71,0.58-1.24l2.3-6c0.05-0.159,0.1-0.31,0.14-0.46c0.04-0.149,0.06-0.27,0.08-0.35
						C240.109,469.59,240.079,469.46,240.009,469.34z"/>
				</g>
				<g>
					<path style="fill:#364349;" d="M261.319,469.103h0.419v-0.527c0-0.552,0.067-0.987,0.207-1.313
						c0.139-0.324,0.377-0.561,0.71-0.708c0.332-0.147,0.788-0.222,1.367-0.222c1.029,0,1.54,0.249,1.54,0.755
						c0,0.162-0.054,0.302-0.163,0.417c-0.105,0.115-0.232,0.174-0.378,0.174c-0.067,0-0.189-0.013-0.357-0.04
						c-0.161-0.022-0.307-0.038-0.422-0.038c-0.317,0-0.52,0.096-0.614,0.281c-0.086,0.187-0.132,0.453-0.132,0.803v0.418h0.429
						c0.672,0,1.004,0.201,1.004,0.608c0,0.284-0.086,0.468-0.267,0.545c-0.177,0.078-0.423,0.116-0.737,0.116h-0.429v4.656
						c0,0.347-0.082,0.61-0.25,0.792c-0.164,0.185-0.376,0.275-0.639,0.275c-0.249,0-0.455-0.091-0.622-0.275
						c-0.166-0.182-0.247-0.445-0.247-0.792v-4.656h-0.484c-0.263,0-0.462-0.057-0.605-0.178c-0.142-0.115-0.213-0.271-0.213-0.459
						C260.435,469.312,260.73,469.103,261.319,469.103L261.319,469.103z"/>
					<path style="fill:#364349;" d="M267.072,473.559v1.469c0,0.355-0.09,0.623-0.253,0.8c-0.168,0.18-0.379,0.268-0.636,0.268
						c-0.259,0-0.466-0.089-0.628-0.272c-0.16-0.179-0.244-0.444-0.244-0.796v-4.895c0-0.79,0.284-1.186,0.854-1.186
						c0.294,0,0.503,0.092,0.633,0.276c0.128,0.185,0.199,0.457,0.215,0.819c0.208-0.362,0.423-0.634,0.643-0.819
						c0.225-0.185,0.517-0.276,0.888-0.276c0.372,0,0.727,0.092,1.074,0.276c0.349,0.185,0.522,0.432,0.522,0.735
						c0,0.214-0.075,0.393-0.221,0.53c-0.149,0.142-0.308,0.211-0.478,0.211c-0.067,0-0.225-0.043-0.47-0.122
						c-0.247-0.077-0.467-0.117-0.652-0.117c-0.258,0-0.47,0.069-0.632,0.202c-0.164,0.139-0.291,0.337-0.382,0.601
						c-0.088,0.268-0.148,0.587-0.185,0.952C267.088,472.583,267.072,473.031,267.072,473.559L267.072,473.559z"/>
					<path style="fill:#364349;" d="M275.889,473.68c-0.16,0-0.29,0.04-0.38,0.12c-0.22,0.2-0.399,0.37-0.54,0.479
						c-0.14,0.131-0.279,0.24-0.449,0.341c-0.16,0.109-0.33,0.189-0.5,0.229c-0.181,0.061-0.37,0.08-0.58,0.08
						c-0.311,0-0.601-0.08-0.86-0.229c-0.26-0.16-0.47-0.391-0.63-0.69c-0.15-0.3-0.23-0.66-0.24-1.06h3.44
						c0.46,0,0.819-0.061,1.069-0.19c0.25-0.14,0.38-0.42,0.38-0.86c0-0.479-0.12-0.939-0.37-1.409
						c-0.239-0.461-0.609-0.83-1.1-1.12c-0.49-0.29-1.08-0.431-1.77-0.431c-0.53,0-1.011,0.08-1.44,0.25
						c-0.43,0.17-0.8,0.41-1.09,0.73c-0.3,0.32-0.53,0.7-0.68,1.139c-0.16,0.45-0.23,0.931-0.23,1.45c0,1.1,0.31,1.98,0.94,2.62
						c0.619,0.64,1.5,0.96,2.63,0.96c0.489,0,0.93-0.061,1.31-0.19c0.38-0.13,0.7-0.29,0.95-0.479c0.25-0.2,0.441-0.401,0.57-0.62
						c0.12-0.21,0.18-0.39,0.18-0.55c0-0.181-0.059-0.32-0.17-0.42C276.219,473.73,276.069,473.68,275.889,473.68z M272.228,470.609
						c0.28-0.3,0.641-0.449,1.07-0.449c0.471,0,0.83,0.149,1.12,0.449c0.28,0.29,0.44,0.74,0.48,1.341h-3.19
						C271.77,471.359,271.94,470.92,272.228,470.609z"/>
					<path style="fill:#364349;" d="M283.199,473.68c-0.16,0-0.29,0.04-0.38,0.12c-0.221,0.2-0.4,0.37-0.54,0.479
						c-0.141,0.131-0.28,0.24-0.45,0.341c-0.16,0.109-0.33,0.189-0.51,0.229c-0.17,0.061-0.36,0.08-0.57,0.08
						c-0.309,0-0.6-0.08-0.86-0.229c-0.26-0.16-0.47-0.391-0.619-0.69c-0.16-0.3-0.24-0.66-0.25-1.06h3.44
						c0.46,0,0.82-0.061,1.07-0.19c0.25-0.14,0.38-0.42,0.38-0.86c0-0.479-0.12-0.939-0.37-1.409c-0.24-0.461-0.61-0.83-1.1-1.12
						c-0.5-0.29-1.08-0.431-1.771-0.431c-0.53,0-1.01,0.08-1.44,0.25c-0.439,0.17-0.8,0.41-1.09,0.73
						c-0.3,0.32-0.529,0.7-0.68,1.139c-0.16,0.45-0.24,0.931-0.24,1.45c0,1.1,0.32,1.98,0.95,2.62c0.62,0.64,1.5,0.96,2.63,0.96
						c0.49,0,0.93-0.061,1.311-0.19c0.38-0.13,0.699-0.29,0.949-0.479c0.25-0.2,0.44-0.401,0.561-0.62
						c0.13-0.21,0.18-0.39,0.18-0.55c0-0.181-0.05-0.32-0.16-0.42C283.529,473.73,283.379,473.68,283.199,473.68z M279.529,470.609
						c0.29-0.3,0.649-0.449,1.08-0.449c0.46,0,0.83,0.149,1.119,0.449c0.28,0.29,0.44,0.74,0.481,1.341h-3.19
						C279.079,471.359,279.249,470.92,279.529,470.609z"/>
					<path style="fill:#364349;" d="M291.509,472.3c-0.02-0.65-0.149-1.21-0.38-1.7c-0.27-0.53-0.63-0.939-1.08-1.22
						c-0.46-0.28-0.96-0.42-1.5-0.42c-0.45,0-0.85,0.099-1.2,0.29c-0.359,0.19-0.71,0.49-1.04,0.9v-0.21
						c0-0.33-0.069-0.569-0.229-0.739c-0.16-0.171-0.36-0.25-0.61-0.25s-0.449,0.079-0.6,0.239c-0.15,0.17-0.22,0.42-0.22,0.761
						v7.579c0,0.391,0.06,0.671,0.159,0.881c0.11,0.189,0.33,0.29,0.66,0.29c0.56,0,0.84-0.391,0.84-1.16v-2.63
						c0.181,0.22,0.36,0.409,0.551,0.569c0.14,0.12,0.279,0.221,0.43,0.311c0.34,0.2,0.76,0.3,1.26,0.3c0.42,0,0.811-0.08,1.17-0.24
						c0.37-0.17,0.681-0.41,0.95-0.71c0.26-0.31,0.47-0.689,0.63-1.14c0.15-0.45,0.221-0.95,0.221-1.49
						C291.52,472.44,291.52,472.37,291.509,472.3z M289.529,473.72c-0.15,0.34-0.34,0.59-0.601,0.76
						c-0.239,0.17-0.52,0.261-0.81,0.261c-0.061,0-0.12,0-0.17-0.021c-0.42-0.03-0.77-0.229-1.06-0.57
						c-0.33-0.38-0.489-0.93-0.489-1.63c0-0.74,0.159-1.3,0.5-1.689c0.329-0.38,0.739-0.57,1.22-0.57c0.31,0,0.59,0.09,0.84,0.27
						c0.25,0.181,0.44,0.431,0.58,0.771c0.15,0.33,0.22,0.729,0.22,1.19c0,0.43-0.06,0.8-0.189,1.109
						C289.559,473.64,289.549,473.68,289.529,473.72z"/>
					<path style="fill:#364349;" d="M293.909,469.21c-0.17-0.181-0.38-0.26-0.64-0.26c-0.25,0-0.461,0.079-0.62,0.26
						c-0.16,0.18-0.25,0.439-0.25,0.79v5.029c0,0.341,0.09,0.601,0.25,0.79c0.159,0.181,0.37,0.27,0.62,0.27
						c0.26,0,0.47-0.08,0.64-0.27c0.17-0.18,0.25-0.44,0.25-0.79v-5.079C294.159,469.63,294.079,469.39,293.909,469.21z
						 M293.899,466.63c-0.181-0.15-0.38-0.22-0.61-0.22c-0.23,0-0.44,0.08-0.62,0.239c-0.18,0.16-0.27,0.37-0.27,0.62
						c0,0.271,0.09,0.48,0.27,0.63c0.17,0.15,0.38,0.23,0.62,0.23c0.24,0,0.439-0.08,0.62-0.23c0.17-0.15,0.25-0.359,0.25-0.63
						C294.159,466.99,294.069,466.77,293.899,466.63z"/>
					<path style="fill:#364349;" d="M299.827,475.292l-1.548-2.552l-0.954,0.9v1.399c0,0.339-0.09,0.598-0.269,0.779
						c-0.175,0.185-0.384,0.275-0.614,0.275c-0.271,0-0.484-0.089-0.638-0.272c-0.153-0.179-0.232-0.444-0.232-0.796v-7.498
						c0-0.388,0.077-0.685,0.224-0.89c0.151-0.207,0.369-0.307,0.647-0.307c0.27,0,0.483,0.093,0.643,0.279
						c0.158,0.183,0.239,0.456,0.239,0.814v4.265l1.977-2.075c0.245-0.255,0.429-0.435,0.561-0.527
						c0.128-0.095,0.283-0.142,0.467-0.142c0.221,0,0.402,0.07,0.553,0.209c0.143,0.14,0.217,0.316,0.217,0.524
						c0,0.257-0.239,0.602-0.715,1.031l-0.933,0.855l1.802,2.835c0.131,0.213,0.229,0.368,0.287,0.479
						c0.058,0.107,0.088,0.217,0.088,0.313c0,0.28-0.077,0.498-0.23,0.661c-0.152,0.161-0.354,0.24-0.601,0.24
						c-0.214,0-0.382-0.055-0.497-0.174C300.185,475.804,300.024,475.594,299.827,475.292L299.827,475.292z"/>
					<path style="fill:#364349;" d="M303.647,476.095c-0.265,0-0.492-0.086-0.687-0.258c-0.192-0.169-0.291-0.411-0.291-0.722
						c0-0.262,0.094-0.487,0.278-0.675c0.186-0.19,0.412-0.283,0.684-0.283c0.269,0,0.498,0.094,0.692,0.279
						c0.189,0.187,0.286,0.414,0.286,0.679c0,0.307-0.097,0.547-0.286,0.718C304.129,476.009,303.903,476.095,303.647,476.095
						L303.647,476.095z"/>
					<path style="fill:#364349;" d="M312.389,473.919c0,0.218-0.065,0.453-0.197,0.701c-0.13,0.251-0.331,0.486-0.601,0.712
						c-0.268,0.225-0.604,0.408-1.013,0.544c-0.407,0.137-0.868,0.208-1.376,0.208c-1.089,0-1.938-0.318-2.547-0.949
						c-0.607-0.635-0.912-1.484-0.912-2.549c0-0.723,0.138-1.359,0.419-1.914c0.276-0.552,0.681-0.98,1.208-1.283
						c0.527-0.304,1.162-0.454,1.894-0.454c0.456,0,0.873,0.066,1.255,0.2c0.38,0.132,0.7,0.306,0.966,0.515
						c0.262,0.213,0.465,0.436,0.603,0.672c0.14,0.238,0.208,0.462,0.208,0.669c0,0.209-0.077,0.388-0.232,0.534
						c-0.159,0.146-0.35,0.22-0.568,0.22c-0.148,0-0.27-0.039-0.367-0.113c-0.097-0.076-0.206-0.196-0.324-0.367
						c-0.215-0.324-0.438-0.57-0.675-0.731c-0.232-0.164-0.528-0.245-0.89-0.245c-0.517,0-0.938,0.202-1.257,0.608
						c-0.316,0.403-0.477,0.962-0.477,1.663c0,0.331,0.043,0.637,0.124,0.913c0.079,0.276,0.197,0.513,0.352,0.708
						c0.156,0.194,0.342,0.342,0.561,0.443c0.22,0.103,0.461,0.152,0.721,0.152c0.353,0,0.655-0.081,0.905-0.244
						c0.255-0.163,0.477-0.411,0.669-0.747c0.107-0.197,0.222-0.351,0.345-0.463c0.124-0.111,0.277-0.169,0.458-0.169
						c0.215,0,0.393,0.083,0.533,0.245C312.316,473.561,312.389,473.737,312.389,473.919L312.389,473.919z"/>
					<path style="fill:#364349;" d="M319.728,471.07c-0.159-0.43-0.39-0.81-0.699-1.13c-0.31-0.319-0.681-0.56-1.11-0.729
						c-0.44-0.181-0.92-0.26-1.45-0.26c-0.529,0-1.01,0.079-1.44,0.25c-0.431,0.17-0.801,0.409-1.11,0.729
						c-0.3,0.311-0.54,0.69-0.7,1.13c-0.16,0.44-0.24,0.931-0.24,1.46c0,0.53,0.08,1.01,0.231,1.45c0.17,0.43,0.4,0.81,0.72,1.13
						c0.3,0.32,0.681,0.57,1.101,0.74c0.42,0.17,0.899,0.26,1.44,0.26c0.53,0,1.01-0.09,1.45-0.26c0.42-0.17,0.79-0.41,1.101-0.73
						c0.31-0.319,0.55-0.699,0.709-1.14c0.16-0.44,0.24-0.93,0.24-1.45C319.969,471.99,319.889,471.51,319.728,471.07z
						 M317.739,474.18c-0.32,0.41-0.74,0.61-1.27,0.61c-0.359,0-0.66-0.09-0.92-0.271c-0.26-0.189-0.46-0.45-0.6-0.8
						c-0.141-0.34-0.21-0.74-0.21-1.2c0-0.46,0.069-0.87,0.21-1.22c0.14-0.34,0.34-0.61,0.609-0.79c0.261-0.17,0.561-0.26,0.91-0.26
						c0.53,0,0.95,0.2,1.27,0.6c0.31,0.4,0.47,0.96,0.47,1.67C318.209,473.23,318.049,473.779,317.739,474.18z"/>
					<path style="fill:#364349;" d="M326.677,472.651v2.336c0,0.371-0.082,0.644-0.251,0.832c-0.169,0.185-0.387,0.276-0.662,0.276
						c-0.267,0-0.484-0.092-0.645-0.276c-0.168-0.188-0.252-0.461-0.252-0.832v-2.8c0-0.442-0.015-0.787-0.043-1.033
						c-0.031-0.239-0.114-0.443-0.246-0.598c-0.133-0.16-0.345-0.238-0.631-0.238c-0.576,0-0.953,0.196-1.136,0.597
						c-0.182,0.391-0.275,0.958-0.275,1.699v2.373c0,0.364-0.083,0.642-0.245,0.829c-0.169,0.186-0.385,0.279-0.654,0.279
						c-0.268,0-0.485-0.094-0.655-0.279c-0.17-0.188-0.255-0.465-0.255-0.829v-5.028c0-0.331,0.076-0.583,0.228-0.753
						c0.155-0.174,0.356-0.259,0.603-0.259c0.242,0,0.441,0.084,0.604,0.241c0.16,0.161,0.24,0.384,0.24,0.667v0.166
						c0.308-0.362,0.634-0.631,0.979-0.8c0.351-0.177,0.733-0.262,1.161-0.262c0.441,0,0.82,0.089,1.137,0.264
						c0.318,0.177,0.579,0.444,0.787,0.798c0.298-0.358,0.616-0.625,0.955-0.8c0.339-0.175,0.714-0.262,1.127-0.262
						c0.478,0,0.896,0.097,1.242,0.284c0.346,0.189,0.605,0.46,0.778,0.81c0.149,0.32,0.224,0.82,0.224,1.503v3.431
						c0,0.371-0.083,0.644-0.249,0.832c-0.167,0.185-0.39,0.276-0.664,0.276c-0.267,0-0.483-0.094-0.653-0.279
						c-0.17-0.188-0.255-0.465-0.255-0.829v-2.956c0-0.378-0.017-0.68-0.047-0.906c-0.032-0.228-0.12-0.421-0.26-0.574
						c-0.144-0.154-0.359-0.232-0.645-0.232c-0.232,0-0.452,0.072-0.66,0.208c-0.208,0.135-0.371,0.323-0.488,0.551
						C326.743,471.374,326.677,471.9,326.677,472.651L326.677,472.651z"/>
				</g>
				<g>
					<path style="fill:#364349;" d="M244.872,472.097c-0.001-0.003-0.001-0.006-0.001-0.012
						C244.871,472.091,244.871,472.094,244.872,472.097z"/>
					<path style="fill:#364349;" d="M244.961,472.659c0.001,0,0.001,0,0.002,0c-0.034-0.16-0.06-0.319-0.081-0.476
						C244.903,472.342,244.929,472.501,244.961,472.659z"/>
					<path style="fill:#364349;" d="M245.542,474.29c-0.004-0.007-0.007-0.015-0.012-0.023
						C245.535,474.276,245.539,474.283,245.542,474.29z"/>
					<path style="fill:#364349;" d="M245.487,474.182c-0.015-0.03-0.03-0.061-0.044-0.091
						C245.457,474.122,245.472,474.151,245.487,474.182z"/>
					<path style="fill:#364349;" d="M245.124,473.287c0.086,0.271,0.19,0.534,0.31,0.785c-0.122-0.256-0.224-0.52-0.308-0.785
						C245.126,473.287,245.125,473.287,245.124,473.287z"/>
					<path style="fill:#364349;" d="M251.675,465.363c0.34,0,0.59,0.026,0.878,0.075l0.081-0.517c0,0-0.794-0.244-1.837-0.159
						l-0.082-0.281c0.324-0.068,0.567-0.357,0.567-0.701c0-0.395-0.321-0.714-0.716-0.714c-0.396,0-0.716,0.319-0.716,0.714
						c0,0.345,0.243,0.633,0.567,0.701l0.09,0.314c-1.107,0.152-1.989,0.585-1.989,0.585l0.156,0.478
						c0.67-0.224,1.251-0.358,1.778-0.416C250.97,465.387,251.358,465.363,251.675,465.363z"/>
					<path style="fill:#364349;" d="M245.529,467.978l0.004-0.005c0.026-0.034,0.051-0.065,0.077-0.097l-0.212-0.153l-0.331-0.241
						c-0.019,0.025-0.539,0.504-0.95,1.388c-0.018-0.027-0.038-0.055-0.061-0.081c-0.123-0.134-0.295-0.202-0.514-0.198
						c-0.003,0-0.006,0-0.01,0c-0.135,0-0.228-0.046-0.289-0.101c0.061-0.076,0.097-0.173,0.097-0.28
						c0-0.249-0.203-0.453-0.454-0.453c-0.249,0-0.453,0.204-0.453,0.453c0,0.251,0.204,0.454,0.453,0.454
						c0.04,0,0.077-0.007,0.113-0.014c0.111,0.123,0.288,0.231,0.547,0.225c0.133-0.001,0.231,0.033,0.296,0.105
						c0.075,0.082,0.101,0.2,0.108,0.29c-0.001,0.001-0.001,0.003-0.002,0.003c-0.295,0.807-0.211,1.81-0.211,1.81l0.716,0.028
						c0.015-0.365,0.067-1.004,0.252-1.512C245.064,468.618,245.511,468.004,245.529,467.978z"/>
					<path style="fill:#364349;" d="M257.909,465.962c-0.249,0-0.453,0.202-0.453,0.453c0,0.039,0.006,0.076,0.016,0.112
						c-0.124,0.112-0.232,0.29-0.229,0.549c0.002,0.134-0.032,0.23-0.104,0.296c-0.058,0.051-0.13,0.078-0.2,0.096
						c-0.533-0.747-1.191-1.203-1.191-1.203l-0.514,0.551c0.389,0.353,0.785,0.797,1.171,1.349c0.267,0.382,0.542,0.875,0.771,1.366
						l0.693-0.33c0,0-0.316-0.783-0.763-1.485c0.077-0.027,0.155-0.069,0.225-0.13c0.136-0.123,0.202-0.296,0.198-0.514
						c-0.001-0.142,0.045-0.236,0.101-0.3c0.077,0.06,0.174,0.098,0.279,0.098c0.252,0,0.454-0.204,0.454-0.454
						C258.363,466.164,258.161,465.962,257.909,465.962z"/>
					<path style="fill:#364349;" d="M256.108,472.198c-0.955,0.466-2.527,1.08-4.596,1.369c-0.812,0.112-1.599,0.154-2.324,0.154
						c-0.942,0-1.775-0.07-2.414-0.151c-0.73-0.092-1.3-0.204-1.648-0.283c0.084,0.266,0.186,0.529,0.308,0.785
						c0.002,0.007,0.005,0.014,0.008,0.019c0.015,0.029,0.029,0.06,0.044,0.091c0.015,0.029,0.029,0.059,0.044,0.086
						c0.004,0.008,0.008,0.016,0.012,0.023c0.205,0.387,0.452,0.742,0.732,1.05c0.976,1.067,1.97,1.236,1.979,1.237l0.016,0.002
						l0.015,0.005c0.009,0.004,0.89,0.288,2.23,0.288c1.319,0,2.613-0.266,3.845-0.791c0.913-0.467,1.777-1.177,2.205-1.81
						c0.331-0.489,0.57-1.012,0.712-1.555c0.075-0.288,0.135-0.75,0.1-1.236C257.108,471.661,256.684,471.918,256.108,472.198z"/>
					<path style="fill:#364349;" d="M256.089,468.38c-1.35-1.94-2.819-2.44-3.569-2.56c-0.29-0.05-0.521-0.069-0.841-0.069
						c-0.31,0-0.68,0.02-1.189,0.069c-0.5,0.051-1.06,0.19-1.71,0.41c-0.92,0.3-1.74,0.78-2.39,1.38l-0.02,0.021
						c-0.1,0.09-0.3,0.28-0.53,0.57c-0.03,0.04-0.45,0.63-0.77,1.529c-0.25,0.681-0.24,1.66-0.24,1.67c0,0.23,0.02,0.46,0.04,0.69
						c0,0,0,0,0,0.01c0.01,0.03,0.01,0.05,0.01,0.08c0.02,0.16,0.05,0.32,0.08,0.48c0.48,0.119,3.31,0.779,6.47,0.34
						c1.99-0.28,3.49-0.86,4.41-1.31c0.76-0.359,1.25-0.699,1.44-0.84C257.089,470.16,256.569,469.06,256.089,468.38z
						 M248.569,471.52c-1.06,0-1.91-0.849-1.91-1.91c0-1.05,0.85-1.899,1.91-1.899c1.05,0,1.91,0.849,1.91,1.899
						C250.479,470.67,249.619,471.52,248.569,471.52z M254.149,470.12c-0.65,0-1.181-0.53-1.181-1.19c0-0.65,0.53-1.18,1.181-1.18
						c0.649,0,1.18,0.529,1.18,1.18C255.329,469.59,254.799,470.12,254.149,470.12z"/>
				</g>
			</g>
		</g>
	</g>
</g>
<g id="OBJECTS">
	<g>
		<g>
			<g>
				
					<text transform="matrix(1 0 0 1 163.2608 274.0329)" style="fill:#364349; font-family:'KaushanScript-Regular'; font-size:28.6472px;">Chef Elements</text>
				<path id="SVGID_x5F_1_x5F_" style="fill:none;" d="M189.547,263.554c0,0-2.071,35.56,32.81,51.76
					c34.881,16.2,62.733-9.281,62.733-9.281s18.666-16.477,18.777-45.997"/>
				<text>				<textPath  xlink:href="#SVGID_x5F_1_x5F_" startOffset="16.211%">
<tspan  style="fill:#364349; font-family:'WorkSans-Medium'; font-size:13.6993px; letter-spacing:120;">  COLLECTION</tspan>				</textPath>
</text>
			</g>
			<g>
				<g>
					<g>
						<path style="fill:none;" d="M247.679,230.201c1.586,0,2.872-1.851,2.872-4.133c0-2.283-1.286-4.133-2.872-4.133
							s-2.872,1.851-2.872,4.133C244.807,228.35,246.092,230.201,247.679,230.201z"/>
						<path style="fill:#E2E2E2;" d="M247.679,168.129c-1.348,0-2.588,10.641-3.568,23.119h7.137
							C250.267,178.769,249.027,168.129,247.679,168.129z"/>
						<path style="fill:#364349;" d="M241.934,230.201c0,3.173,2.572,5.745,5.745,5.745c3.173,0,5.745-2.572,5.745-5.745
							c0-1.734-0.768-20.117-1.983-36.43h-7.523C242.702,210.084,241.934,228.466,241.934,230.201z M247.679,221.934
							c1.586,0,2.872,1.851,2.872,4.133c0,2.283-1.286,4.133-2.872,4.133s-2.872-1.851-2.872-4.133
							C244.807,223.784,246.092,221.934,247.679,221.934z"/>
						<path style="fill:#AFCED8;" d="M244.111,191.248c-0.066,0.834-0.13,1.675-0.193,2.522h7.523
							c-0.063-0.848-0.128-1.688-0.193-2.522H244.111z"/>
					</g>
					<path style="fill:#AFCED8;" d="M258.5,180.739h-21.641c-1.1,0-2-0.9-2-2v-38.035c0-1.1,0.9-2,2-2h8.641c8.25,0,15,6.75,15,15
						v25.035C260.5,179.839,259.599,180.739,258.5,180.739z"/>
					<path style="fill:#99BCC4;" d="M252.688,180.739H242.67v-16.723c0-1.1,0.9-2,2-2h0.883c3.924,0,7.135,3.211,7.135,7.135
						V180.739z"/>
				</g>
				<g>
					<g>
						<path style="fill:none;" d="M207.044,230.201c1.586,0,2.872-1.851,2.872-4.133c0-2.283-1.286-4.133-2.872-4.133
							c-1.586,0-2.872,1.851-2.872,4.133C204.172,228.35,205.458,230.201,207.044,230.201z"/>
						<path style="fill:#364349;" d="M201.299,230.201c0,3.173,2.572,5.745,5.745,5.745c3.173,0,5.745-2.572,5.745-5.745
							c0-1.734-0.768-20.117-1.983-36.43h-7.523C202.068,210.084,201.299,228.466,201.299,230.201z M207.044,221.934
							c1.586,0,2.872,1.851,2.872,4.133c0,2.283-1.286,4.133-2.872,4.133c-1.586,0-2.872-1.851-2.872-4.133
							C204.172,223.784,205.458,221.934,207.044,221.934z"/>
						<path style="fill:#AFCED8;" d="M203.476,191.248c-0.065,0.834-0.13,1.675-0.193,2.522h7.523
							c-0.063-0.848-0.128-1.688-0.193-2.522H203.476z"/>
					</g>
					<polygon style="fill:#E2E2E2;" points="209.76,191.248 204.329,191.248 205.249,168.129 208.84,168.129 					"/>
					<g>
						<path style="fill:none;" d="M202.09,163.631c-0.436-0.261-1-0.121-1.262,0.315c-0.261,0.436-0.12,1,0.315,1.262l0.094,0.055
							c0.14,0.081,0.288,0.119,0.435,0.119c0.314,0,0.615-0.175,0.788-0.475C202.714,164.467,202.53,163.885,202.09,163.631z"/>
						<path style="fill:none;" d="M204.581,159.314c-0.436-0.262-1-0.122-1.263,0.313c-0.262,0.435-0.122,1,0.313,1.263l0.109,0.064
							c0.138,0.078,0.284,0.114,0.428,0.114c0.318,0,0.622-0.178,0.794-0.483C205.211,160.141,205.024,159.563,204.581,159.314z"/>
						<path style="fill:none;" d="M203.761,149.364l-0.094,0.054c-0.438,0.257-0.547,0.799-0.29,1.237
							c0.168,0.286,0.482,0.438,0.802,0.438c0.17,0,0.342-0.044,0.494-0.133c0.441-0.252,0.594-0.814,0.342-1.255
							C204.764,149.264,204.202,149.112,203.761,149.364z"/>
						<path style="fill:none;" d="M201.299,156.068c0.5,0,0.91-0.449,0.921-0.95c0.01-0.508-0.393-0.928-0.901-0.938
							c-0.541,0.012-0.928,0.393-0.938,0.901c0,0.009,0,0.101,0,0.11l0.92,0.008h-0.92c0,0.504,0.406,0.865,0.91,0.87
							C201.293,156.068,201.296,156.068,201.299,156.068z"/>
						<path style="fill:none;" d="M211.989,146.707c0.146,0.085,0.305,0.125,0.463,0.125c0.316,0,0.624-0.163,0.795-0.456
							c0.256-0.439,0.108-1.002-0.331-1.258l-0.084-0.048c-0.441-0.255-0.965-0.08-1.218,0.359
							C211.36,145.869,211.549,146.454,211.989,146.707z"/>
						<path style="fill:none;" d="M215.562,150.319c0.171,0.292,0.479,0.454,0.794,0.454c0.158,0,0.318-0.04,0.464-0.126
							c0.438-0.257,0.585-0.82,0.328-1.258l-0.043-0.073c-0.253-0.44-0.814-0.591-1.256-0.337c-0.44,0.253-0.591,0.816-0.337,1.256
							C215.514,150.236,215.561,150.317,215.562,150.319z"/>
						<path style="fill:none;" d="M198.254,148.96c-0.44-0.256-1.001-0.107-1.258,0.331l-0.049,0.084
							c-0.254,0.44-0.081,0.964,0.359,1.218c0.135,0.078,0.284,0.114,0.432,0.114c0.335,0,0.67-0.185,0.846-0.489
							C198.841,149.779,198.693,149.216,198.254,148.96z"/>
						<path style="fill:none;" d="M206.979,164.974c-0.487,0.014-0.926,0.397-0.935,0.904c-0.009,0.508,0.396,0.926,0.904,0.935
							c0.005,0,0.091,0.001,0.096,0.001h0.011c0.505,0,0.869-0.407,0.873-0.912C207.933,165.396,207.484,164.982,206.979,164.974z"
							/>
						<path style="fill:none;" d="M197.262,159.674c-0.44,0.253-0.591,0.816-0.337,1.256l0.046,0.079
							c0.164,0.284,0.447,0.432,0.746,0.432c0.163,0,0.331-0.044,0.487-0.134c0.44-0.254,0.568-0.856,0.314-1.296
							C198.264,159.571,197.703,159.419,197.262,159.674z"/>
						<path style="fill:none;" d="M197.243,155.195v-0.092c0-0.508-0.412-0.885-0.92-0.885s-0.919,0.446-0.919,0.954v0.023
							c0,0.508,0.412,0.92,0.919,0.92S197.243,155.703,197.243,155.195z"/>
						<path style="fill:none;" d="M201.277,145.058l-0.079,0.046c-0.44,0.253-0.551,0.793-0.298,1.233
							c0.167,0.289,0.484,0.444,0.806,0.444c0.168,0,0.339-0.042,0.489-0.129c0.44-0.253,0.591-0.816,0.337-1.256
							C202.279,144.956,201.718,144.804,201.277,145.058z"/>
						<path style="fill:none;" d="M217.766,154.207c-0.508,0-0.92,0.412-0.92,0.92l-0.001,0.124
							c-0.007,0.508,0.398,0.925,0.906,0.933c0.005,0,0.01,0,0.014,0c0.501,0,0.912-0.403,0.919-0.906l0-0.151
							C218.685,154.619,218.273,154.207,217.766,154.207z"/>
						<path style="fill:none;" d="M212.789,154.211c-0.501,0-0.909,0.434-0.92,0.934c0,0.006-0.001,0.098-0.001,0.103
							c-0.007,0.508,0.399,0.925,0.907,0.932c0.004,0,0.008,0,0.013,0c0.502,0,0.912-0.404,0.919-0.907l0.001-0.092
							c0-0.012,0-0.091,0-0.104C213.698,154.578,213.289,154.211,212.789,154.211z"/>
						<path style="fill:none;" d="M216.77,159.775c-0.438-0.254-1.023-0.065-1.279,0.372c-0.256,0.438-0.099,0.986,0.339,1.242
							c0.142,0.083,0.298,0.122,0.453,0.122c0.322,0,0.64-0.17,0.813-0.466c0.001-0.002,0.032-0.054,0.033-0.056
							C217.382,160.55,217.209,160.03,216.77,159.775z"/>
						<path style="fill:none;" d="M206.617,154.368l-0.094,0.054c-0.438,0.257-0.547,0.799-0.29,1.237
							c0.168,0.285,0.482,0.438,0.802,0.438c0.17,0,0.342-0.044,0.494-0.133c0.441-0.252,0.594-0.814,0.342-1.254
							C207.62,154.269,207.058,154.116,206.617,154.368z"/>
						<path style="fill:none;" d="M211.884,163.698c-0.443,0.248-0.602,0.808-0.353,1.251c0.168,0.301,0.481,0.471,0.803,0.471
							c0.152,0,0.306-0.038,0.448-0.117c0.003-0.002,0.086-0.049,0.09-0.051c0.438-0.252,0.55-0.788,0.3-1.228
							C212.923,163.585,212.326,163.451,211.884,163.698z"/>
						<path style="fill:none;" d="M209.4,159.376c-0.445,0.244-0.609,0.802-0.365,1.248c0.167,0.305,0.482,0.478,0.808,0.478
							c0.149,0,0.3-0.036,0.441-0.113l0.109-0.062c0.438-0.257,0.554-0.803,0.297-1.242
							C210.432,159.248,209.839,159.12,209.4,159.376z"/>
						<path style="fill:none;" d="M207.078,143.532l-0.061,0h-0.008v0c-0.001,0-0.001,0-0.002,0l-0.022,0v0.004
							c-0.496,0.013-0.896,0.415-0.896,0.915c0,0.508,0.412,0.92,0.92,0.92l0.061,0h0.008v0c0.001,0,0.001,0,0.002,0l0.022,0v-0.004
							c0.496-0.013,0.896-0.415,0.896-0.915C207.998,143.944,207.586,143.532,207.078,143.532z"/>
						<path style="fill:none;" d="M210.419,149.417l-0.1-0.058c-0.441-0.248-0.968-0.072-1.217,0.371
							c-0.249,0.443-0.057,1.024,0.386,1.273c0.146,0.086,0.307,0.127,0.465,0.127c0.315,0,0.623-0.162,0.794-0.454
							C211.003,150.237,210.857,149.674,210.419,149.417z"/>
						<path style="fill:#D3D3D3;" d="M207.044,139.31c-8.76,0-15.862,7.102-15.862,15.862c0,8.761,7.102,15.862,15.862,15.862
							c8.761,0,15.863-7.102,15.863-15.862C222.907,146.412,215.805,139.31,207.044,139.31z M215.851,148.978
							c0.441-0.254,1.003-0.102,1.256,0.337l0.043,0.073c0.257,0.438,0.109,1.002-0.328,1.258c-0.146,0.086-0.306,0.126-0.464,0.126
							c-0.316,0-0.623-0.163-0.794-0.454c-0.001-0.002-0.048-0.083-0.049-0.085C215.26,149.794,215.411,149.231,215.851,148.978z
							 M211.614,145.429c0.253-0.44,0.777-0.614,1.218-0.359l0.084,0.048c0.439,0.256,0.587,0.819,0.331,1.258
							c-0.171,0.293-0.479,0.456-0.795,0.456c-0.157,0-0.317-0.04-0.463-0.125C211.549,146.454,211.36,145.869,211.614,145.429z
							 M195.404,155.195v-0.023c0-0.508,0.412-0.954,0.919-0.954s0.92,0.377,0.92,0.885v0.092c0,0.508-0.412,0.92-0.92,0.92
							S195.404,155.703,195.404,155.195z M198.204,161.307c-0.156,0.09-0.324,0.134-0.487,0.134c-0.299,0-0.582-0.147-0.746-0.432
							l-0.046-0.079c-0.254-0.44-0.103-1.003,0.337-1.256c0.441-0.255,1.002-0.103,1.256,0.337
							C198.771,160.451,198.643,161.053,198.204,161.307z M198.585,150.218c-0.176,0.305-0.51,0.489-0.846,0.489
							c-0.149,0-0.297-0.036-0.432-0.114c-0.44-0.254-0.613-0.778-0.359-1.218l0.049-0.084c0.256-0.438,0.818-0.587,1.258-0.331
							C198.693,149.216,198.841,149.779,198.585,150.218z M200.38,155.197h0.92l-0.92-0.008c0-0.009,0-0.101,0-0.11
							c0.01-0.508,0.398-0.889,0.938-0.901c0.508,0.011,0.911,0.431,0.901,0.938c-0.01,0.501-0.42,0.95-0.921,0.95
							c-0.003,0-0.006,0-0.008,0C200.786,156.062,200.38,155.702,200.38,155.197z M202.46,164.907
							c-0.173,0.3-0.475,0.475-0.788,0.475c-0.146,0-0.295-0.038-0.435-0.119l-0.094-0.055c-0.436-0.261-0.576-0.826-0.315-1.262
							c0.261-0.436,0.825-0.576,1.262-0.315C202.53,163.885,202.714,164.467,202.46,164.907z M202.195,146.652
							c-0.151,0.087-0.321,0.129-0.489,0.129c-0.323,0-0.64-0.154-0.806-0.444c-0.254-0.44-0.142-0.98,0.298-1.233l0.079-0.046
							c0.441-0.254,1.002-0.102,1.256,0.337C202.786,145.836,202.636,146.398,202.195,146.652z M204.962,160.584
							c-0.171,0.305-0.476,0.483-0.794,0.483c-0.144,0-0.29-0.036-0.428-0.114l-0.109-0.064c-0.435-0.263-0.575-0.827-0.313-1.263
							c0.262-0.435,0.827-0.575,1.263-0.313C205.024,159.563,205.211,160.141,204.962,160.584z M204.674,150.96
							c-0.152,0.089-0.324,0.133-0.494,0.133c-0.32,0-0.634-0.153-0.802-0.438c-0.257-0.438-0.148-0.98,0.29-1.237l0.094-0.054
							c0.441-0.252,1.003-0.099,1.255,0.342C205.268,150.147,205.115,150.708,204.674,150.96z M207.056,166.813h-0.011
							c-0.005,0-0.091-0.001-0.096-0.001c-0.508-0.008-0.913-0.427-0.904-0.935c0.009-0.507,0.448-0.89,0.935-0.904
							c0.505,0.008,0.955,0.422,0.95,0.928C207.925,166.406,207.56,166.813,207.056,166.813z M207.529,155.965
							c-0.152,0.089-0.324,0.133-0.494,0.133c-0.32,0-0.634-0.153-0.802-0.438c-0.257-0.438-0.148-0.98,0.29-1.237l0.094-0.054
							c0.441-0.252,1.003-0.099,1.255,0.342C208.123,155.151,207.97,155.713,207.529,155.965z M207.102,145.366v0.004l-0.022,0
							c-0.001,0-0.001,0-0.002,0v0h-0.008v0v0l-0.061,0c-0.508,0-0.92-0.412-0.92-0.92c0-0.499,0.4-0.902,0.896-0.915v-0.004
							l0.022,0c0.001,0,0.001,0,0.002,0v0h0.008v0v0l0.061,0c0.508,0,0.92,0.412,0.92,0.919
							C207.998,144.951,207.598,145.353,207.102,145.366z M210.392,160.928l-0.109,0.062c-0.14,0.076-0.291,0.113-0.441,0.113
							c-0.326,0-0.641-0.173-0.808-0.478c-0.244-0.446-0.08-1.004,0.365-1.248c0.439-0.257,1.032-0.128,1.289,0.31
							C210.946,160.124,210.83,160.67,210.392,160.928z M210.746,150.675c-0.171,0.292-0.479,0.454-0.794,0.454
							c-0.158,0-0.318-0.041-0.465-0.127c-0.443-0.249-0.635-0.83-0.386-1.273c0.249-0.443,0.776-0.619,1.217-0.371l0.1,0.058
							C210.857,149.674,211.003,150.237,210.746,150.675z M212.872,165.252c-0.004,0.002-0.087,0.049-0.09,0.051
							c-0.142,0.079-0.296,0.117-0.448,0.117c-0.322,0-0.635-0.169-0.803-0.471c-0.248-0.443-0.09-1.003,0.353-1.251
							c0.442-0.247,1.039-0.114,1.288,0.326C213.421,164.463,213.309,165,212.872,165.252z M213.708,155.182l-0.001,0.092
							c-0.007,0.503-0.417,0.907-0.919,0.907c-0.004,0-0.008,0-0.013,0c-0.508-0.007-0.914-0.424-0.907-0.932
							c0-0.006,0.001-0.097,0.001-0.103c0.01-0.501,0.419-0.934,0.92-0.934c0.501,0,0.909,0.367,0.92,0.868
							C213.708,155.091,213.708,155.17,213.708,155.182z M217.129,160.99c-0.001,0.002-0.031,0.054-0.033,0.056
							c-0.173,0.296-0.491,0.466-0.813,0.466c-0.155,0-0.311-0.039-0.453-0.122c-0.438-0.256-0.594-0.804-0.339-1.242
							c0.256-0.437,0.841-0.626,1.279-0.372C217.209,160.03,217.382,160.55,217.129,160.99z M217.766,156.184
							c-0.005,0-0.01,0-0.014,0c-0.508-0.008-0.913-0.425-0.906-0.933l0.001-0.124c0-0.508,0.412-0.92,0.92-0.92
							c0.508,0,0.919,0.412,0.919,0.92l0,0.151C218.678,155.781,218.267,156.184,217.766,156.184z"/>
					</g>
				</g>
				<g>
					<g>
						<g>
							<path style="fill:none;" d="M288.313,230.201c1.586,0,2.872-1.851,2.872-4.133c0-2.283-1.286-4.133-2.872-4.133
								s-2.872,1.851-2.872,4.133C285.441,228.35,286.727,230.201,288.313,230.201z"/>
							<path style="fill:#364349;" d="M282.569,230.201c0,3.173,2.572,5.745,5.745,5.745c3.173,0,5.745-2.572,5.745-5.745
								c0-1.734-0.768-20.117-1.983-36.43h-7.523C283.337,210.084,282.569,228.466,282.569,230.201z M288.313,221.934
								c1.586,0,2.872,1.851,2.872,4.133c0,2.283-1.286,4.133-2.872,4.133s-2.872-1.851-2.872-4.133
								C285.441,223.784,286.727,221.934,288.313,221.934z"/>
							<path style="fill:#AFCED8;" d="M284.745,191.248c-0.065,0.834-0.13,1.675-0.193,2.522h7.523
								c-0.063-0.848-0.128-1.688-0.193-2.522H284.745z"/>
						</g>
						<polygon style="fill:#E2E2E2;" points="291.029,191.248 285.598,191.248 286.518,168.129 290.109,168.129 						"/>
					</g>
					<g>
						<path style="fill:#D3D3D3;" d="M297.666,142.791c-0.661-1.301-2.627-0.829-2.627,0.63v11.308c0,0.719-0.589,1.308-1.308,1.308
							c-0.719,0-1.308-0.589-1.308-1.308v-13.688c0-0.475-0.249-0.911-0.644-1.175c-0.009-0.006-0.018-0.012-0.027-0.018
							c-0.911-0.604-2.13,0.083-2.13,1.176v13.705c0,0.719-0.589,1.308-1.308,1.308c-0.719,0-1.308-0.589-1.308-1.308v-13.705
							c0-1.093-1.219-1.78-2.13-1.176c-0.009,0.006-0.018,0.012-0.027,0.018c-0.395,0.264-0.644,0.7-0.644,1.175v13.688
							c0,0.719-0.589,1.308-1.308,1.308c-0.719,0-1.308-0.589-1.308-1.308v-11.308c0-1.46-1.966-1.931-2.627-0.63
							c-2.79,5.487-4.542,12.285-4.542,16.356c0,7.673,6.221,13.894,13.894,13.894c7.673,0,13.894-6.221,13.894-13.894
							C302.207,155.076,300.456,148.278,297.666,142.791z"/>
					</g>
				</g>
			</g>
		</g>
		<g>
			<g>
				<path style="fill:#AFCED8;" d="M170.817,67.101H41.263c-1.1,0-2-0.9-2-2V52.556c0-1.1,0.9-2,2-2h129.554c1.1,0,2,0.9,2,2v12.545
					C172.817,66.201,171.917,67.101,170.817,67.101z"/>
				<g>
					<path style="fill:#99BCC4;" d="M46.991,58.828c0,0.945-0.766,1.712-1.712,1.712c-0.945,0-1.711-0.766-1.711-1.712
						c0-0.945,0.766-1.712,1.711-1.712C46.225,57.117,46.991,57.883,46.991,58.828z"/>
					<path style="fill:#99BCC4;" d="M168.513,58.828c0,0.945-0.766,1.712-1.712,1.712c-0.945,0-1.711-0.766-1.711-1.712
						c0-0.945,0.766-1.712,1.711-1.712C167.747,57.117,168.513,57.883,168.513,58.828z"/>
				</g>
			</g>
			<g>
				<g>
					<g>
						<path style="fill:#D3D3D3;" d="M102.762,108.714c-3.006,28.66,4.39,44.449,9.399,51.594c0.063-0.162,0.107-0.337,0.107-0.533
							V97.95l-3.933-0.889C103.416,101.715,102.762,108.714,102.762,108.714z"/>
						<path style="fill:#E2E2E2;" d="M109.707,160.696c0.731,0.902,2.079,0.574,2.455-0.389
							c-5.009-7.145-12.405-22.934-9.399-51.594c0,0,0.654-6.998,5.573-11.653l-1.316-0.297c-6.85,4.11-7.669,12.901-7.669,12.901
							C96.189,139.811,105.102,155.017,109.707,160.696z"/>
					</g>
					<g>
						<g>
							<path style="fill:#364349;" d="M104.588,73.268c-1.427,2.994-3.092,8.137-0.617,12.605c0.481,0.868,0.57,1.895,0.34,2.86
								c-0.476,1.995-1.115,5.462-0.756,8.558c0.125,1.073,1.063,1.867,2.143,1.867h5.534c1.194,0,2.163-0.968,2.163-2.163V56.577
								c0-1.88-1.225-3.582-3.041-4.065c-2.375-0.633-5.669-0.39-8.104,4.194c-2.78,5.233-0.33,9.612,1.707,12.023
								C105.028,69.997,105.302,71.769,104.588,73.268z"/>
						</g>
						<g>
							<path style="fill:#FFFFFF;" d="M107.547,92.86c0-0.608,0.493-1.101,1.101-1.101c0.608,0,1.101,0.493,1.101,1.101
								c0,0.608-0.493,1.101-1.101,1.101C108.04,93.961,107.547,93.468,107.547,92.86z"/>
							<path style="fill:#FFFFFF;" d="M107.547,78.05c0-0.608,0.493-1.101,1.101-1.101c0.608,0,1.101,0.493,1.101,1.101
								c0,0.608-0.493,1.101-1.101,1.101C108.04,79.151,107.547,78.658,107.547,78.05z"/>
							<path style="fill:#FFFFFF;" d="M107.547,63.241c0-0.608,0.493-1.101,1.101-1.101c0.608,0,1.101,0.493,1.101,1.101
								c0,0.608-0.493,1.101-1.101,1.101C108.04,64.342,107.547,63.849,107.547,63.241z"/>
						</g>
					</g>
				</g>
				<g>
					<g>
						<path style="fill:#D3D3D3;" d="M146.322,150.715V99.158l-5.17-2.992l-2.451,3.174v62.817
							C146.417,159.223,146.322,150.715,146.322,150.715z"/>
						<path style="fill:#E2E2E2;" d="M137.806,162.464c0.311-0.093,0.607-0.197,0.895-0.307V99.34l-1.908,2.47
							c-0.788,1.02-1.204,2.188-1.204,3.379v56.102C135.59,162.181,136.742,162.784,137.806,162.464z"/>
					</g>
					<g>
						<g>
							<path style="fill:#364349;" d="M138.235,73.268c-1.427,2.994-3.092,8.137-0.617,12.605c0.481,0.868,0.57,1.895,0.34,2.86
								c-0.476,1.995-1.115,5.462-0.756,8.558c0.125,1.073,1.063,1.867,2.143,1.867h5.534c1.194,0,2.163-0.968,2.163-2.163V56.577
								c0-1.88-1.225-3.582-3.041-4.065c-2.375-0.633-5.669-0.39-8.104,4.194c-2.78,5.233-0.33,9.612,1.707,12.023
								C138.675,69.997,138.949,71.769,138.235,73.268z"/>
						</g>
						<g>
							<path style="fill:#FFFFFF;" d="M141.194,92.86c0-0.608,0.493-1.101,1.101-1.101c0.608,0,1.101,0.493,1.101,1.101
								c0,0.608-0.493,1.101-1.101,1.101C141.687,93.961,141.194,93.468,141.194,92.86z"/>
							<path style="fill:#FFFFFF;" d="M141.194,78.05c0-0.608,0.493-1.101,1.101-1.101c0.608,0,1.101,0.493,1.101,1.101
								c0,0.608-0.493,1.101-1.101,1.101C141.687,79.151,141.194,78.658,141.194,78.05z"/>
							<path style="fill:#FFFFFF;" d="M141.194,63.241c0-0.608,0.493-1.101,1.101-1.101c0.608,0,1.101,0.493,1.101,1.101
								c0,0.608-0.493,1.101-1.101,1.101C141.687,64.342,141.194,63.849,141.194,63.241z"/>
						</g>
					</g>
				</g>
				<g>
					<g>
						<path style="fill:#D3D3D3;" d="M70.387,120.758c0,22.963,3.01,33.246,5.32,37.759V99.016L73.3,97.554l-2.914,4.481V120.758z"
							/>
						<path style="fill:#E2E2E2;" d="M74.739,161.04c0.335,0.384,0.967,0.135,0.967-0.374v-2.148
							c-2.309-4.513-5.32-14.796-5.32-37.759v-18.723l2.914-4.481l-1.865-1.133l-3.651,5.614v18.723
							C67.784,149.876,72.626,158.613,74.739,161.04z"/>
					</g>
					<g>
						<g>
							<path style="fill:#364349;" d="M68.626,73.268c-1.428,2.994-3.092,8.137-0.617,12.605c0.481,0.868,0.57,1.895,0.34,2.86
								c-0.476,1.995-1.115,5.462-0.756,8.558c0.125,1.073,1.063,1.867,2.143,1.867h5.534c1.195,0,2.163-0.968,2.163-2.163V56.577
								c0-1.88-1.225-3.582-3.041-4.065c-2.375-0.633-5.669-0.39-8.104,4.194c-2.78,5.233-0.33,9.612,1.707,12.023
								C69.066,69.997,69.34,71.769,68.626,73.268z"/>
						</g>
						<g>
							<path style="fill:#FFFFFF;" d="M71.585,92.86c0-0.608,0.493-1.101,1.101-1.101c0.608,0,1.101,0.493,1.101,1.101
								c0,0.608-0.493,1.101-1.101,1.101C72.078,93.961,71.585,93.468,71.585,92.86z"/>
							<path style="fill:#FFFFFF;" d="M71.585,78.05c0-0.608,0.493-1.101,1.101-1.101c0.608,0,1.101,0.493,1.101,1.101
								c0,0.608-0.493,1.101-1.101,1.101C72.078,79.151,71.585,78.658,71.585,78.05z"/>
							<path style="fill:#FFFFFF;" d="M71.585,63.241c0-0.608,0.493-1.101,1.101-1.101c0.608,0,1.101,0.493,1.101,1.101
								c0,0.608-0.493,1.101-1.101,1.101C72.078,64.342,71.585,63.849,71.585,63.241z"/>
						</g>
					</g>
				</g>
			</g>
		</g>
		<g>
			<g>
				<path style="fill:#364349;" d="M198.492,89.828c-7.375,0-12.938-2.87-12.938-6.676c0-3.806,5.562-6.676,12.938-6.676
					c7.375,0,12.937,2.87,12.937,6.676C211.429,86.958,205.867,89.828,198.492,89.828z M198.492,79.947
					c-5.434,0-9.039,1.929-9.039,3.205s3.605,3.205,9.039,3.205c5.434,0,9.039-1.929,9.039-3.205S203.926,79.947,198.492,79.947z"/>
				<path style="fill:#364349;" d="M294.897,89.828c-7.375,0-12.938-2.87-12.938-6.676c0-3.806,5.562-6.676,12.938-6.676
					s12.937,2.87,12.937,6.676C307.834,86.958,302.272,89.828,294.897,89.828z M294.897,79.947c-5.434,0-9.039,1.929-9.039,3.205
					s3.605,3.205,9.039,3.205s9.039-1.929,9.039-3.205S300.331,79.947,294.897,79.947z"/>
			</g>
			<g>
				<rect x="264.392" y="69.114" style="fill:#99BCC4;" width="2.789" height="46.184"/>
				<path style="fill:#99BCC4;" d="M198.683,69.114v35.948c0,5.63,4.606,10.235,10.235,10.235h44.186V69.114H198.683z"/>
				<path style="fill:#99BCC4;" d="M272.825,69.114v46.184h11.645c5.629,0,10.235-4.606,10.235-10.235V69.114H272.825z"/>
				<rect x="253.105" y="69.114" style="fill:#A2C6CC;" width="11.288" height="46.184"/>
				<rect x="267.181" y="69.114" style="fill:#A2C6CC;" width="5.644" height="46.184"/>
			</g>
			<g>
				<path style="fill:#D3D3D3;" d="M256.051,38.946c0-2.143-4.189-3.88-9.356-3.88c-5.167,0-9.356,1.737-9.356,3.88
					c0,1.119,1.149,2.124,2.976,2.832v3.634h12.761v-3.634C254.902,41.07,256.051,40.065,256.051,38.946z"/>
				<path style="fill:#364349;" d="M246.694,43.242c-25.236,0-45.94,10.423-48.009,23.692c-0.183,1.17,1.213,2.189,2.996,2.189
					h90.027c1.783,0,3.178-1.019,2.996-2.189C292.634,53.665,271.93,43.242,246.694,43.242z"/>
				<path style="fill:#EAEAEA;" d="M297.912,71.274H195.476c-1.1,0-2-0.9-2-2v-0.34c0-1.1,0.9-2,2-2h102.436c1.1,0,2,0.9,2,2v0.34
					C299.912,70.374,299.012,71.274,297.912,71.274z"/>
			</g>
		</g>
		<g>
			<path style="fill:#EAEAEA;" d="M112.416,440.941H41.354c-1.15,0-2.091-0.941-2.091-2.091l11.853-78.554
				c0-1.15,0.941-2.091,2.091-2.091h47.356c1.15,0,2.091,0.941,2.091,2.091l11.853,78.554
				C114.507,440.001,113.566,440.941,112.416,440.941z"/>
			<g>
				<g>
					<path style="fill:#BFBFBF;" d="M55.634,428.803H55.48c-0.935,0-1.7-0.765-1.7-1.7v-3.709c0-0.935,0.765-1.7,1.7-1.7h0.154
						c0.935,0,1.7,0.765,1.7,1.7v3.709C57.335,428.038,56.57,428.803,55.634,428.803z"/>
					<path style="fill:#BFBFBF;" d="M66.298,428.803h-0.154c-0.935,0-1.7-0.765-1.7-1.7v-3.709c0-0.935,0.765-1.7,1.7-1.7h0.154
						c0.935,0,1.7,0.765,1.7,1.7v3.709C67.998,428.038,67.233,428.803,66.298,428.803z"/>
					<path style="fill:#BFBFBF;" d="M76.962,428.803h-0.154c-0.935,0-1.7-0.765-1.7-1.7v-3.709c0-0.935,0.765-1.7,1.7-1.7h0.154
						c0.935,0,1.7,0.765,1.7,1.7v3.709C78.662,428.038,77.897,428.803,76.962,428.803z"/>
					<path style="fill:#BFBFBF;" d="M87.626,428.803h-0.154c-0.935,0-1.7-0.765-1.7-1.7v-3.709c0-0.935,0.765-1.7,1.7-1.7h0.154
						c0.935,0,1.7,0.765,1.7,1.7v3.709C89.326,428.038,88.561,428.803,87.626,428.803z"/>
					<path style="fill:#BFBFBF;" d="M98.29,428.803h-0.154c-0.935,0-1.7-0.765-1.7-1.7v-3.709c0-0.935,0.765-1.7,1.7-1.7h0.154
						c0.935,0,1.7,0.765,1.7,1.7v3.709C99.99,428.038,99.225,428.803,98.29,428.803z"/>
				</g>
				<g>
					<path style="fill:#BFBFBF;" d="M55.634,414.126H55.48c-0.935,0-1.7-0.765-1.7-1.7v-3.709c0-0.935,0.765-1.7,1.7-1.7h0.154
						c0.935,0,1.7,0.765,1.7,1.7v3.709C57.335,413.361,56.57,414.126,55.634,414.126z"/>
					<path style="fill:#BFBFBF;" d="M66.298,414.126h-0.154c-0.935,0-1.7-0.765-1.7-1.7v-3.709c0-0.935,0.765-1.7,1.7-1.7h0.154
						c0.935,0,1.7,0.765,1.7,1.7v3.709C67.998,413.361,67.233,414.126,66.298,414.126z"/>
					<path style="fill:#BFBFBF;" d="M76.962,414.126h-0.154c-0.935,0-1.7-0.765-1.7-1.7v-3.709c0-0.935,0.765-1.7,1.7-1.7h0.154
						c0.935,0,1.7,0.765,1.7,1.7v3.709C78.662,413.361,77.897,414.126,76.962,414.126z"/>
					<path style="fill:#BFBFBF;" d="M87.626,414.126h-0.154c-0.935,0-1.7-0.765-1.7-1.7v-3.709c0-0.935,0.765-1.7,1.7-1.7h0.154
						c0.935,0,1.7,0.765,1.7,1.7v3.709C89.326,413.361,88.561,414.126,87.626,414.126z"/>
					<path style="fill:#BFBFBF;" d="M98.29,414.126h-0.154c-0.935,0-1.7-0.765-1.7-1.7v-3.709c0-0.935,0.765-1.7,1.7-1.7h0.154
						c0.935,0,1.7,0.765,1.7,1.7v3.709C99.99,413.361,99.225,414.126,98.29,414.126z"/>
				</g>
				<g>
					<path style="fill:#BFBFBF;" d="M55.634,399.449H55.48c-0.935,0-1.7-0.765-1.7-1.7v-3.709c0-0.935,0.765-1.7,1.7-1.7h0.154
						c0.935,0,1.7,0.765,1.7,1.7v3.709C57.335,398.684,56.57,399.449,55.634,399.449z"/>
					<path style="fill:#BFBFBF;" d="M66.298,399.449h-0.154c-0.935,0-1.7-0.765-1.7-1.7v-3.709c0-0.935,0.765-1.7,1.7-1.7h0.154
						c0.935,0,1.7,0.765,1.7,1.7v3.709C67.998,398.684,67.233,399.449,66.298,399.449z"/>
					<path style="fill:#BFBFBF;" d="M76.962,399.449h-0.154c-0.935,0-1.7-0.765-1.7-1.7v-3.709c0-0.935,0.765-1.7,1.7-1.7h0.154
						c0.935,0,1.7,0.765,1.7,1.7v3.709C78.662,398.684,77.897,399.449,76.962,399.449z"/>
					<path style="fill:#BFBFBF;" d="M87.626,399.449h-0.154c-0.935,0-1.7-0.765-1.7-1.7v-3.709c0-0.935,0.765-1.7,1.7-1.7h0.154
						c0.935,0,1.7,0.765,1.7,1.7v3.709C89.326,398.684,88.561,399.449,87.626,399.449z"/>
					<path style="fill:#BFBFBF;" d="M98.29,399.449h-0.154c-0.935,0-1.7-0.765-1.7-1.7v-3.709c0-0.935,0.765-1.7,1.7-1.7h0.154
						c0.935,0,1.7,0.765,1.7,1.7v3.709C99.99,398.684,99.225,399.449,98.29,399.449z"/>
				</g>
				<g>
					<path style="fill:#BFBFBF;" d="M55.634,384.772H55.48c-0.935,0-1.7-0.765-1.7-1.7v-3.709c0-0.935,0.765-1.7,1.7-1.7h0.154
						c0.935,0,1.7,0.765,1.7,1.7v3.709C57.335,384.007,56.57,384.772,55.634,384.772z"/>
					<path style="fill:#BFBFBF;" d="M66.298,384.772h-0.154c-0.935,0-1.7-0.765-1.7-1.7v-3.709c0-0.935,0.765-1.7,1.7-1.7h0.154
						c0.935,0,1.7,0.765,1.7,1.7v3.709C67.998,384.007,67.233,384.772,66.298,384.772z"/>
					<path style="fill:#BFBFBF;" d="M76.962,384.772h-0.154c-0.935,0-1.7-0.765-1.7-1.7v-3.709c0-0.935,0.765-1.7,1.7-1.7h0.154
						c0.935,0,1.7,0.765,1.7,1.7v3.709C78.662,384.007,77.897,384.772,76.962,384.772z"/>
					<path style="fill:#BFBFBF;" d="M87.626,384.772h-0.154c-0.935,0-1.7-0.765-1.7-1.7v-3.709c0-0.935,0.765-1.7,1.7-1.7h0.154
						c0.935,0,1.7,0.765,1.7,1.7v3.709C89.326,384.007,88.561,384.772,87.626,384.772z"/>
					<path style="fill:#BFBFBF;" d="M98.29,384.772h-0.154c-0.935,0-1.7-0.765-1.7-1.7v-3.709c0-0.935,0.765-1.7,1.7-1.7h0.154
						c0.935,0,1.7,0.765,1.7,1.7v3.709C99.99,384.007,99.225,384.772,98.29,384.772z"/>
				</g>
			</g>
			<path style="fill:#364349;" d="M104.155,362.145h-54.54c-1.1,0-2-0.9-2-2v-3.605c0-1.1,0.9-2,2-2h54.54c1.1,0,2,0.9,2,2v3.605
				C106.155,361.245,105.255,362.145,104.155,362.145z"/>
			<path style="fill:#364349;" d="M94.344,361.865H59.426c-2.594,0-4.704-2.11-4.704-4.704V345.88c0-2.594,2.11-4.704,4.704-4.704
				h34.919c2.594,0,4.704,2.11,4.704,4.704v11.281C99.049,359.755,96.938,361.865,94.344,361.865z M59.948,356.638h33.873v-10.236
				H59.948V356.638z"/>
		</g>
		<g>
			<path style="fill:#AFCED8;" d="M185.888,428.506c-14.335,0-25.957,5.567-25.957,12.435h51.913
				C211.844,434.074,200.223,428.506,185.888,428.506z"/>
			<path style="fill:#AFCED8;" d="M208.491,367.363c5.193-2.979,11.854-3.498,16.458,0.941c4.822,4.65,3.922,10.664,0.783,15.945
				c-5.568,9.366-13.031,17.955-19.494,26.723c-2.498,3.389,3.172,6.653,5.644,3.299c5.428-7.364,10.903-14.696,16.284-22.094
				c4.006-5.508,7.939-11.716,6.593-18.849c-2.623-13.895-18.329-18.056-29.567-11.61
				C201.544,363.812,204.832,369.462,208.491,367.363L208.491,367.363z"/>
			<path style="fill:#AFCED8;" d="M213.626,346.675c0.248-0.662,0.084-1.409-0.421-1.905c-0.505-0.494-1.254-0.647-1.911-0.386
				c-17.686,7.018-56.7-0.023-57.091-0.097c-0.916-0.165-1.809,0.397-2.049,1.297c-0.24,0.901,0.251,1.834,1.13,2.145
				c4.468,1.582,7.374,4.277,8.886,8.236c1.797,4.706,1.309,10.512,0.037,15.868h48.384
				C209.239,358.64,213.565,346.839,213.626,346.675z"/>
			<g>
				<path style="fill:#E2E2E2;" d="M185.888,431.199c-17.522,0-31.969-13.405-33.632-30.499c-0.098,1.043-0.163,2.09-0.163,3.141
					c0,18.635,15.16,33.795,33.795,33.795c18.634,0,33.794-15.16,33.794-33.795c0-1.05-0.066-2.096-0.163-3.138
					C217.855,417.795,203.409,431.199,185.888,431.199z"/>
				<path style="fill:#EAEAEA;" d="M185.888,431.199c17.521,0,31.967-13.403,33.631-30.495c-0.432-4.621-1.796-9.129-4.041-13.189
					c-0.006-0.012-0.013-0.023-0.019-0.034c-2.916-5.012-4.334-10.438-4.867-15.647h-48.384c-2.002,8.435-5.952,15.751-6.019,15.873
					c-2.179,4.003-3.506,8.443-3.931,12.992C153.919,417.794,168.366,431.199,185.888,431.199z"/>
			</g>
		</g>
		<g>
			<g>
				<path style="fill:#364349;" d="M351.394,83.923c-7.375,0-12.937-2.87-12.937-6.676c0-3.806,5.562-6.676,12.937-6.676
					c7.376,0,12.938,2.87,12.938,6.676C364.332,81.053,358.77,83.923,351.394,83.923z M351.394,74.042
					c-5.434,0-9.039,1.929-9.039,3.205c0,1.276,3.605,3.205,9.039,3.205c5.434,0,9.039-1.929,9.039-3.205
					C360.434,75.971,356.828,74.042,351.394,74.042z"/>
				<path style="fill:#364349;" d="M447.799,83.923c-7.375,0-12.937-2.87-12.937-6.676c0-3.806,5.562-6.676,12.937-6.676
					c7.375,0,12.938,2.87,12.938,6.676C460.737,81.053,455.175,83.923,447.799,83.923z M447.799,74.042
					c-5.434,0-9.039,1.929-9.039,3.205c0,1.276,3.605,3.205,9.039,3.205c5.434,0,9.039-1.929,9.039-3.205
					C456.839,75.971,453.233,74.042,447.799,74.042z"/>
			</g>
			<path style="fill:#BFBFBF;" d="M418.551,115.297c0.978,0,1.751-0.533,1.667-1.153c-0.918-6.735-9.799-12.019-20.621-12.019
				c-10.821,0-19.703,5.284-20.621,12.019c-0.085,0.62,0.689,1.153,1.667,1.153H418.551z"/>
			<path style="fill:#E2E2E2;" d="M350.803,56.56c-1.763,0-3.189,1.479-3.081,3.238c1.672,27.196,24.258,48.736,51.875,48.736
				c27.617,0,50.203-21.54,51.874-48.736c0.108-1.759-1.319-3.238-3.081-3.238H350.803z"/>
			<g>
				<g>
					<g>
						<path style="fill:#BFBFBF;" d="M369.984,63.747c0,0.966-0.783,1.749-1.749,1.749c-0.966,0-1.749-0.783-1.749-1.749
							c0-0.966,0.783-1.749,1.749-1.749C369.201,61.998,369.984,62.781,369.984,63.747z"/>
						<g>
							<circle style="fill:#BFBFBF;" cx="364.737" cy="69.147" r="1.749"/>
							<path style="fill:#BFBFBF;" d="M373.483,69.147c0,0.966-0.783,1.749-1.749,1.749s-1.749-0.783-1.749-1.749
								c0-0.966,0.783-1.749,1.749-1.749S373.483,68.181,373.483,69.147z"/>
						</g>
					</g>
					<g>
						<path style="fill:#BFBFBF;" d="M390.892,63.747c0,0.966-0.783,1.749-1.749,1.749c-0.966,0-1.749-0.783-1.749-1.749
							c0-0.966,0.783-1.749,1.749-1.749C390.109,61.998,390.892,62.781,390.892,63.747z"/>
						<g>
							<path style="fill:#BFBFBF;" d="M387.394,69.147c0,0.966-0.783,1.749-1.749,1.749c-0.966,0-1.749-0.783-1.749-1.749
								c0-0.966,0.783-1.749,1.749-1.749C386.611,67.398,387.394,68.181,387.394,69.147z"/>
							<path style="fill:#BFBFBF;" d="M394.39,69.147c0,0.966-0.783,1.749-1.749,1.749s-1.749-0.783-1.749-1.749
								c0-0.966,0.783-1.749,1.749-1.749S394.39,68.181,394.39,69.147z"/>
						</g>
					</g>
					<g>
						<path style="fill:#BFBFBF;" d="M411.8,63.747c0,0.966-0.783,1.749-1.749,1.749c-0.966,0-1.749-0.783-1.749-1.749
							c0-0.966,0.783-1.749,1.749-1.749C411.017,61.998,411.8,62.781,411.8,63.747z"/>
						<g>
							<path style="fill:#BFBFBF;" d="M408.301,69.147c0,0.966-0.783,1.749-1.749,1.749c-0.966,0-1.749-0.783-1.749-1.749
								c0-0.966,0.783-1.749,1.749-1.749C407.518,67.398,408.301,68.181,408.301,69.147z"/>
							<path style="fill:#BFBFBF;" d="M415.298,69.147c0,0.966-0.783,1.749-1.749,1.749c-0.966,0-1.749-0.783-1.749-1.749
								c0-0.966,0.783-1.749,1.749-1.749C414.515,67.398,415.298,68.181,415.298,69.147z"/>
						</g>
					</g>
					<g>
						<path style="fill:#BFBFBF;" d="M432.707,63.747c0,0.966-0.783,1.749-1.749,1.749s-1.749-0.783-1.749-1.749
							c0-0.966,0.783-1.749,1.749-1.749S432.707,62.781,432.707,63.747z"/>
						<g>
							<circle style="fill:#BFBFBF;" cx="427.46" cy="69.147" r="1.749"/>
							<path style="fill:#BFBFBF;" d="M436.205,69.147c0,0.966-0.783,1.749-1.749,1.749s-1.749-0.783-1.749-1.749
								c0-0.966,0.783-1.749,1.749-1.749S436.205,68.181,436.205,69.147z"/>
						</g>
					</g>
				</g>
				<g>
					<g>
						<path style="fill:#BFBFBF;" d="M369.984,79.433c0,0.966-0.783,1.749-1.749,1.749c-0.966,0-1.749-0.783-1.749-1.749
							c0-0.966,0.783-1.749,1.749-1.749C369.201,77.683,369.984,78.467,369.984,79.433z"/>
						<g>
							<path style="fill:#BFBFBF;" d="M366.486,84.832c0,0.966-0.783,1.749-1.749,1.749s-1.749-0.783-1.749-1.749
								c0-0.966,0.783-1.749,1.749-1.749S366.486,83.866,366.486,84.832z"/>
							<path style="fill:#BFBFBF;" d="M373.483,84.832c0,0.966-0.783,1.749-1.749,1.749s-1.749-0.783-1.749-1.749
								c0-0.966,0.783-1.749,1.749-1.749S373.483,83.866,373.483,84.832z"/>
						</g>
					</g>
					<g>
						<path style="fill:#BFBFBF;" d="M390.892,79.433c0,0.966-0.783,1.749-1.749,1.749c-0.966,0-1.749-0.783-1.749-1.749
							c0-0.966,0.783-1.749,1.749-1.749C390.109,77.683,390.892,78.467,390.892,79.433z"/>
						<g>
							<path style="fill:#BFBFBF;" d="M387.394,84.832c0,0.966-0.783,1.749-1.749,1.749c-0.966,0-1.749-0.783-1.749-1.749
								c0-0.966,0.783-1.749,1.749-1.749C386.611,83.083,387.394,83.866,387.394,84.832z"/>
							<path style="fill:#BFBFBF;" d="M394.39,84.832c0,0.966-0.783,1.749-1.749,1.749s-1.749-0.783-1.749-1.749
								c0-0.966,0.783-1.749,1.749-1.749S394.39,83.866,394.39,84.832z"/>
						</g>
					</g>
					<g>
						<path style="fill:#BFBFBF;" d="M411.8,79.433c0,0.966-0.783,1.749-1.749,1.749c-0.966,0-1.749-0.783-1.749-1.749
							c0-0.966,0.783-1.749,1.749-1.749C411.017,77.683,411.8,78.467,411.8,79.433z"/>
						<g>
							<path style="fill:#BFBFBF;" d="M408.301,84.832c0,0.966-0.783,1.749-1.749,1.749c-0.966,0-1.749-0.783-1.749-1.749
								c0-0.966,0.783-1.749,1.749-1.749C407.518,83.083,408.301,83.866,408.301,84.832z"/>
							<path style="fill:#BFBFBF;" d="M415.298,84.832c0,0.966-0.783,1.749-1.749,1.749c-0.966,0-1.749-0.783-1.749-1.749
								c0-0.966,0.783-1.749,1.749-1.749C414.515,83.083,415.298,83.866,415.298,84.832z"/>
						</g>
					</g>
					<g>
						<path style="fill:#BFBFBF;" d="M432.707,79.433c0,0.966-0.783,1.749-1.749,1.749s-1.749-0.783-1.749-1.749
							c0-0.966,0.783-1.749,1.749-1.749S432.707,78.467,432.707,79.433z"/>
						<g>
							<path style="fill:#BFBFBF;" d="M429.209,84.832c0,0.966-0.783,1.749-1.749,1.749c-0.966,0-1.749-0.783-1.749-1.749
								c0-0.966,0.783-1.749,1.749-1.749C428.426,83.083,429.209,83.866,429.209,84.832z"/>
							<path style="fill:#BFBFBF;" d="M436.205,84.832c0,0.966-0.783,1.749-1.749,1.749s-1.749-0.783-1.749-1.749
								c0-0.966,0.783-1.749,1.749-1.749S436.205,83.866,436.205,84.832z"/>
						</g>
					</g>
				</g>
				<g>
					<g>
						<path style="fill:#BFBFBF;" d="M390.892,95.118c0,0.966-0.783,1.749-1.749,1.749c-0.966,0-1.749-0.783-1.749-1.749
							c0-0.966,0.783-1.749,1.749-1.749C390.109,93.369,390.892,94.152,390.892,95.118z"/>
						<g>
							<path style="fill:#BFBFBF;" d="M387.394,100.518c0,0.966-0.783,1.749-1.749,1.749c-0.966,0-1.749-0.783-1.749-1.749
								c0-0.966,0.783-1.749,1.749-1.749C386.611,98.769,387.394,99.552,387.394,100.518z"/>
							<path style="fill:#BFBFBF;" d="M394.39,100.518c0,0.966-0.783,1.749-1.749,1.749s-1.749-0.783-1.749-1.749
								c0-0.966,0.783-1.749,1.749-1.749S394.39,99.552,394.39,100.518z"/>
						</g>
					</g>
					<g>
						<path style="fill:#BFBFBF;" d="M411.8,95.118c0,0.966-0.783,1.749-1.749,1.749c-0.966,0-1.749-0.783-1.749-1.749
							c0-0.966,0.783-1.749,1.749-1.749C411.017,93.369,411.8,94.152,411.8,95.118z"/>
						<g>
							<path style="fill:#BFBFBF;" d="M408.301,100.518c0,0.966-0.783,1.749-1.749,1.749c-0.966,0-1.749-0.783-1.749-1.749
								c0-0.966,0.783-1.749,1.749-1.749C407.518,98.769,408.301,99.552,408.301,100.518z"/>
							<path style="fill:#BFBFBF;" d="M415.298,100.518c0,0.966-0.783,1.749-1.749,1.749c-0.966,0-1.749-0.783-1.749-1.749
								c0-0.966,0.783-1.749,1.749-1.749C414.515,98.769,415.298,99.552,415.298,100.518z"/>
						</g>
					</g>
				</g>
			</g>
		</g>
		<g>
			<g>
				<path style="fill:#364349;" d="M305.99,343.009c0,3.771-20.418,6.828-24.188,6.828c-3.771,0-6.828-3.057-6.828-6.828
					s3.057-6.828,6.828-6.828C285.573,336.182,305.99,339.238,305.99,343.009z"/>
				<path style="fill:#364349;" d="M424.211,343.009c0,3.771,20.418,6.828,24.188,6.828c3.771,0,6.828-3.057,6.828-6.828
					s-3.057-6.828-6.828-6.828C444.628,336.182,424.211,339.238,424.211,343.009z"/>
			</g>
			<g>
				<path style="fill:#99BCC4;" d="M428.623,335.793c0-2.044-1.672-3.716-3.716-3.716H305.294c-2.044,0-3.716,1.672-3.716,3.716
					v7.216h127.045V335.793z"/>
				<path style="fill:#AFCED8;" d="M305.294,353.942h119.612c2.044,0,3.716-1.672,3.716-3.716v-7.216H301.578v7.216
					C301.578,352.269,303.25,353.942,305.294,353.942z"/>
			</g>
		</g>
		<g>
			<g>
				<path style="fill:#D3D3D3;" d="M82.117,316.146c-3.855,0-6.991-3.136-6.991-6.991c0-3.855,3.136-6.992,6.991-6.992
					c3.855,0,6.991,3.137,6.991,6.992C89.108,313.011,85.972,316.146,82.117,316.146z M82.117,305.087
					c-2.243,0-4.067,1.825-4.067,4.068c0,2.243,1.825,4.067,4.067,4.067c2.243,0,4.068-1.824,4.068-4.067
					C86.185,306.912,84.36,305.087,82.117,305.087z"/>
				<path style="fill:#AFCED8;" d="M118.304,303.626H45.93c-3.667,0-6.667-3-6.667-6.667V189.616c0-3.667,3-6.667,6.667-6.667
					h72.374c3.667,0,6.667,3,6.667,6.667v107.343C124.971,300.626,121.971,303.626,118.304,303.626z"/>
			</g>
			<g>
				<path style="fill:#99BCC4;" d="M112.216,296.899c3.573,0,6.497-2.923,6.497-6.497v-39.841l-62.151,46.338H112.216z"/>
				<path style="fill:#99BCC4;" d="M112.216,189.676H52.018c-3.573,0-6.497,2.924-6.497,6.497v52.761l72.971-54.405
					C117.759,191.746,115.221,189.676,112.216,189.676z"/>
				<path style="fill:#A3C6CC;" d="M45.521,290.402c0,3.573,2.924,6.497,6.497,6.497h4.544l62.151-46.338v-22l-73.192,54.57V290.402
					z"/>
				<polygon style="fill:#99BCC4;" points="45.521,270.934 45.521,283.13 118.713,228.561 118.713,216.365 				"/>
				<path style="fill:#A3C6CC;" d="M118.713,196.173c0-0.568-0.081-1.118-0.22-1.644l-72.971,54.405v22l73.192-54.57V196.173z"/>
			</g>
		</g>
		<g>
			<g>
				<path style="fill:#AFCED8;" d="M365.153,423.272c4.251-3.025,9.687-4.334,14.849-3.575c4.127,0.607,8.2,2.475,12.306,1.74
					c3.242-0.581,6.276-2.764,9.527-2.237c2.181,0.353,3.991,1.881,6.105,2.525c4.964,1.511,10.046-2.086,15.235-2.136
					c4.014-0.039,7.694,2.031,11.463,3.414c5.233,1.92,10.934,2.549,16.46,1.818c1.291-0.171,2.69-0.483,3.493-1.507
					c0.843-1.076,0.758-2.634,0.265-3.909c-1.514-3.917-5.954-5.75-10.017-6.816c0,0-28.33-7.309-79.687,3.045"/>
			</g>
			<g>
				<g>
					<rect x="343.19" y="403.045" style="fill:#364349;" width="2.789" height="37.896"/>
					<path style="fill:#364349;" d="M277.481,403.045v27.661c0,5.63,4.606,10.235,10.235,10.235h44.186v-37.897H277.481z"/>
					<path style="fill:#364349;" d="M351.622,403.045v37.897h11.645c5.629,0,10.235-4.606,10.235-10.235v-27.661H351.622z"/>
					<rect x="331.902" y="403.045" style="fill:#3E4C51;" width="11.288" height="37.896"/>
					<rect x="345.979" y="403.045" style="fill:#3E4C51;" width="5.644" height="37.896"/>
				</g>
				<g>
					<path style="fill:#364349;" d="M333.006,374.789c0-1.721-3.364-3.116-7.514-3.116s-7.513,1.395-7.513,3.116
						c0,0.898,0.922,1.706,2.389,2.274v2.919h10.248v-2.919C332.083,376.495,333.006,375.687,333.006,374.789z"/>
					<path style="fill:#AFCED8;" d="M325.492,379.343c-25.236,0-45.94,9.549-48.009,21.706c-0.182,1.072,1.213,2.006,2.996,2.006
						h90.027c1.783,0,3.178-0.934,2.996-2.006C371.432,388.892,350.728,379.343,325.492,379.343z"/>
					<path style="fill:#EAEAEA;" d="M376.71,405.205H274.274c-1.1,0-2-0.9-2-2v-0.34c0-1.1,0.9-2,2-2H376.71c1.1,0,2,0.9,2,2v0.34
						C378.71,404.305,377.81,405.205,376.71,405.205z"/>
				</g>
			</g>
			<path style="fill:#364349;" d="M375.029,423.465L375.029,423.465c-0.839,0-1.526-0.686-1.526-1.526v-10.33
				c0-0.839,0.687-1.526,1.526-1.526l0,0c0.839,0,1.526,0.687,1.526,1.526v10.33C376.555,422.778,375.868,423.465,375.029,423.465z"
				/>
		</g>
		<g>
			<g>
				<path style="fill:#D3D3D3;" d="M354.475,157.544v27.715c0,1.216,0.995,2.211,2.211,2.211h2.65c1.216,0,2.211-0.995,2.211-2.211
					v-27.715c0-1.216-0.995-2.211-2.211-2.211h-2.65C355.47,155.333,354.475,156.328,354.475,157.544z M358.84,158.425v25.589
					c0,0.534-0.437,0.971-0.971,0.971c-0.534,0-0.971-0.437-0.971-0.971v-25.589c0-0.534,0.437-0.971,0.971-0.971
					C358.403,157.454,358.84,157.891,358.84,158.425z"/>
			</g>
			<g>
				<path style="fill:#364349;" d="M437.823,179.889c4.688,0,8.488-3.8,8.488-8.488s-3.8-8.488-8.488-8.488
					c-2.562,0-29.722,1.135-53.825,2.93v11.115C408.101,178.754,435.261,179.889,437.823,179.889z M429.187,171.401
					c0-1.657,1.933-3.001,4.318-3.001c2.385,0,4.318,1.344,4.318,3.001s-1.933,3.001-4.318,3.001
					C431.12,174.402,429.187,173.059,429.187,171.401z"/>
				<path style="fill:#AFCED8;" d="M380.272,176.674c1.232,0.097,2.474,0.192,3.726,0.285v-11.115
					c-1.252,0.093-2.495,0.189-3.726,0.285V176.674z"/>
			</g>
			<g>
				<path style="fill:#364349;" d="M355.894,155.7h6.653c3.795,0,6.901,3.105,6.901,6.901v17.601c0,3.796-3.105,6.901-6.901,6.901
					h-6.653c-3.728,0-4.138,5.62-0.427,5.975c0.211,0.02,0.425,0.031,0.641,0.031h19.944c2.338,0,4.251-1.913,4.251-4.251v-34.912
					c0-2.338-1.913-4.251-4.251-4.251h-19.944c-0.216,0-0.43,0.01-0.641,0.031C351.756,150.08,352.166,155.7,355.894,155.7z"/>
			</g>
		</g>
		<g>
			<g>
				<path style="fill:#364349;" d="M364.579,284.811h70.036c1.214,0,2.342,0.615,2.995,1.638
					c2.021,3.168,6.672,10.299,10.261,15.787h1.43c0.153,0,0.304-0.009,0.453-0.026c2.309-0.27,3.659-2.707,2.985-4.882
					c-0.081-0.262-0.215-0.498-0.366-0.727c-1.613-2.46-11.538-17.609-14.763-22.665c-0.653-1.024-1.781-1.638-2.995-1.638h-70.036
					c-1.214,0-2.342,0.615-2.995,1.638c-3.225,5.056-13.151,20.204-14.763,22.665c-0.15,0.23-0.285,0.465-0.366,0.727
					c-0.674,2.174,0.676,4.611,2.985,4.882c0.149,0.017,0.3,0.026,0.453,0.026h1.43c3.589-5.489,8.24-12.619,10.261-15.787
					C362.237,285.426,363.365,284.811,364.579,284.811z"/>
				<path style="fill:#3E4C51;" d="M437.609,286.449c-0.653-1.024-1.781-1.638-2.995-1.638h-70.036
					c-1.214,0-2.342,0.615-2.995,1.638c-2.021,3.168-6.673,10.299-10.261,15.787h96.548
					C444.282,296.748,439.63,289.617,437.609,286.449z"/>
			</g>
			<g>
				<path style="fill:#E2E2E2;" d="M399.597,266.355c-24.551,0-44.88-18.031-48.493-41.572c-0.333,0.544-0.51,1.191-0.463,1.878
					c1.765,25.499,23.009,45.636,48.957,45.636c25.947,0,47.191-20.137,48.956-45.636c0.048-0.687-0.13-1.333-0.463-1.878
					C444.477,248.324,424.147,266.355,399.597,266.355z"/>
				<path style="fill:#EAEAEA;" d="M399.597,266.355c24.551,0,44.88-18.031,48.493-41.572c-0.57-0.931-1.601-1.561-2.779-1.561
					h-91.429c-1.178,0-2.209,0.629-2.779,1.561C354.717,248.324,375.046,266.355,399.597,266.355z"/>
			</g>
			<g>
				<path style="fill:#AFCED8;" d="M422.499,288.991c0,0-2.379-5.549-3.687-8.636c-0.518-1.224-1.716-2.013-3.045-2.013h-32.34
					c-1.329,0-2.526,0.789-3.045,2.013c-1.308,3.087-3.687,8.636-3.687,8.636c-0.422,0.977,0.17,2.154,1.228,2.277
					c0.064,0.007,0.13,0.011,0.196,0.011h42.957c0.066,0,0.131-0.004,0.196-0.011C422.329,291.145,422.921,289.968,422.499,288.991z
					"/>
				<g>
					<path style="fill:#364349;" d="M410.04,288.686c-1.554,0-2.818-1.264-2.818-2.818v-3.603c0-1.554,1.264-2.818,2.818-2.818
						c1.554,0,2.818,1.264,2.818,2.818v3.603C412.859,287.422,411.595,288.686,410.04,288.686z M410.04,280.974
						c-0.712,0-1.292,0.579-1.292,1.292v3.603c0,0.713,0.579,1.292,1.292,1.292c0.712,0,1.292-0.579,1.292-1.292v-3.603
						C411.332,281.553,410.753,280.974,410.04,280.974z"/>
					<path style="fill:#364349;" d="M415.02,288.114c0,0.316-0.256,0.573-0.573,0.573c-0.316,0-0.572-0.256-0.572-0.573
						c0-0.316,0.256-0.572,0.572-0.572C414.764,287.541,415.02,287.798,415.02,288.114z"/>
				</g>
			</g>
		</g>
	</g>
</g>
</svg>
