<?xml version="1.0" encoding="utf-8"?>
<!-- Generator: Adobe Illustrator 27.5.0, SVG Export Plug-In . SVG Version: 6.00 Build 0)  -->
<svg version="1.1" xmlns="http://www.w3.org/2000/svg" xmlns:xlink="http://www.w3.org/1999/xlink" x="0px" y="0px"
	 viewBox="0 0 500 500" style="enable-background:new 0 0 500 500;" xml:space="preserve">
<g id="BACKGROUND">
	<rect style="fill:#FFFEFC;" width="500" height="500"/>
</g>
<g id="OBJECTS">
	<g>
		<g>
			<g>
				<path style="fill:#334350;" d="M225.224,405.39c0,0,8.971-6.695,16.013-16.733c0,0-49.455-63.89-77.967-64.407L225.224,405.39z"
					/>
				<path style="fill:#546070;" d="M164.107,324.293c31.512,15.873,50.436,45.438,67.899,75.132
					c2.864-2.805,6.221-6.478,9.23-10.768C241.237,388.656,192.741,326.013,164.107,324.293z"/>
			</g>
			<g>
				<path style="fill:#57351A;" d="M269.489,432.552c0,0,10.234,8.621,1.647,15.361c-8.589,6.741-15.819-4.236-15.819-4.236
					l-31.685-40.365l13.526-10.616l3.37,4.294c0,0-5.045,1.529-3.682,6.359c1.362,4.83,14.291,4.398,19.736,12.269
					c5.441,7.872,0.123,11.7,4.887,17.33C266.232,438.575,268.811,436.554,269.489,432.552z"/>
				<g style="opacity:0.3;">
					<path style="fill:#81583C;" d="M238.231,421.884l1.572,2.005c0.032-2.303-0.011-4.605-0.142-6.905
						c-0.2-3.59-0.101-7.186,0.109-10.787c-0.143-0.073-0.263-0.151-0.396-0.228c-0.091,1.785-0.184,3.559-0.323,5.309
						C238.784,414.66,238.365,418.272,238.231,421.884z"/>
					<path style="fill:#81583C;" d="M254.442,442.536l0.886,1.131c0,0,0.875,1.308,2.353,2.739c0.019-0.177,0.044-0.353,0.06-0.532
						c-1.257-5.58-1.185-11.591-1.586-17.172c-0.041-0.6-0.076-1.198-0.115-1.796c-0.035-0.532-0.08-1.064-0.103-1.601
						c-0.209-3.619-0.295-7.239-0.27-10.855c-0.589-0.674-1.243-1.271-1.935-1.818c-0.309,6.073-0.582,12.139-0.078,18.194
						C253.921,434.06,254.646,438.464,254.442,442.536z"/>
					<path style="fill:#81583C;" d="M229.261,410.458c0.062-1.574,0.181-3.141,0.306-4.668c0.205-2.51,0.358-5.027,0.518-7.54
						l-3.415,2.681c-0.174,2.03-0.197,4.072-0.142,6.046L229.261,410.458z"/>
					<path style="fill:#81583C;" d="M232.161,414.154l0.575,0.729c0.378-4.09,0.28-8.242,0.681-12.352
						c0.246-2.534,0.547-5.062,0.875-7.584l-2.065,1.62c-0.18,3.838-0.244,7.68-0.159,11.478
						C232.11,409.957,232.247,412.069,232.161,414.154z"/>
					<path style="fill:#81583C;" d="M242.831,427.747l3.605,4.595c-0.105-2.527-0.125-5.055-0.114-7.54
						c0.014-3.475,0.062-6.939,0.133-10.404c-0.002-1.857,0.019-3.713,0.06-5.572c-1.206-0.457-2.382-0.869-3.484-1.273
						c-0.15,3.355-0.263,6.707-0.268,10.033C242.762,420.83,243.006,424.327,242.831,427.747z"/>
					<path style="fill:#81583C;" d="M247.971,422.452c-0.002,0.25-0.003,0.502-0.005,0.754c0.005,0.098,0.003,0.195,0.008,0.294
						c0.222,3.808,0.617,7.692,0.581,11.54l2.315,2.949c-0.077-2.329-0.053-4.594-0.064-6.6c-0.043-6.875-0.034-13.701,0.26-20.515
						c-0.93-0.512-1.884-0.966-2.848-1.372C248.075,413.815,247.996,418.13,247.971,422.452z"/>
					<path style="fill:#81583C;" d="M273.757,441.237c0.018,1.094,0.034,2.335,0.016,3.6c1.27-2.443,0.832-4.922-0.172-7.012
						C273.673,438.962,273.739,440.097,273.757,441.237z"/>
					<path style="fill:#81583C;" d="M234.634,417.306l2.074,2.641c0.159-2.635,0.421-5.242,0.616-7.73
						c0.195-2.443,0.308-4.931,0.426-7.428c-0.419-0.432-0.739-0.902-0.893-1.447c-0.672-2.388,0.221-3.967,1.293-4.955
						c0.111-1.301,0.267-2.596,0.447-3.883l-1.428-1.816l-0.491,0.387c-0.627,5.256-1.218,10.514-1.519,15.814
						C235.014,411.481,234.749,414.37,234.634,417.306z"/>
					<path style="fill:#81583C;" d="M259.291,445.509c0.215,0.967,0.478,1.914,0.79,2.844c0.537,0.35,1.118,0.653,1.723,0.921
						c0.18-0.889,0.309-1.79,0.357-2.71c-0.589-3.469-0.689-7.045-0.83-10.587c-0.123-1.028-0.23-2.04-0.295-3.025
						c-0.014-0.214-0.019-0.432-0.029-0.647c-3.559-4.857,0.092-8.501-3.344-14.929c-0.099,5.208,0.002,10.406,0.636,15.571
						C258.778,436.87,259.502,441.288,259.291,445.509z"/>
					<path style="fill:#81583C;" d="M269.498,432.543c-0.343,2.038-1.182,3.556-2.553,3.816c0.032,0.692,0.056,1.386,0.094,2.075
						c0.063,1.07,0.133,2.158,0.192,3.248c0.359,2.572,0.982,5.094,2.056,7.405c0.611-0.314,1.23-0.688,1.859-1.183
						c0.403-0.316,0.725-0.639,1.045-0.961c-1.125-4.377-1.613-8.961-1.768-13.524C269.877,432.863,269.498,432.543,269.498,432.543
						z"/>
					<path style="fill:#81583C;" d="M262.944,435.573c0.374,3.371,0.963,7.131,0.832,10.752c0.227,1.264,0.553,2.5,0.945,3.719
						c0.201,0.018,0.403,0.026,0.607,0.029c0.362-1.975,0.453-4.004,0.401-6.05c-0.595-2.615-0.872-5.368-0.984-8.163
						c-0.569-0.318-1.194-0.799-1.869-1.443c0.009,0.256,0.023,0.51,0.03,0.768C262.923,435.313,262.928,435.444,262.944,435.573z"
						/>
				</g>
				<g>
					<path style="fill:#C4B4A4;" d="M247.161,422.317c-1.024-1.304-0.795-3.191,0.508-4.215c1.307-1.024,3.192-0.797,4.215,0.509
						c1.024,1.303,0.799,3.19-0.508,4.214C250.074,423.849,248.185,423.62,247.161,422.317z"/>
					<path style="fill:#C4B4A4;" d="M261.619,443.593c-0.6-0.767-0.465-1.875,0.298-2.477c0.768-0.602,1.876-0.469,2.477,0.3
						c0.6,0.764,0.469,1.872-0.299,2.474C263.331,444.489,262.222,444.356,261.619,443.593z"/>
					<path style="fill:#C4B4A4;" d="M231.116,404.731c-0.603-0.765-0.467-1.874,0.299-2.475c0.767-0.603,1.875-0.468,2.475,0.297
						c0.602,0.767,0.469,1.875-0.298,2.477C232.826,405.629,231.716,405.497,231.116,404.731z"/>
				</g>
			</g>
		</g>
		<g>
			<g>
				<path style="fill:#DB394E;" d="M240.664,310.101c-1.35,5.355-6.785,8.602-12.141,7.254l-74.263-18.717
					c-5.357-1.35-8.604-6.785-7.254-12.141l18.757-74.43c1.35-5.355,6.785-8.604,12.143-7.253l74.262,18.715
					c5.356,1.349,8.602,6.785,7.253,12.142L240.664,310.101z"/>
				<g>
					<path style="fill:#FF7A7B;" d="M185.269,214.195c1.877-1.309,3.754-2.616,5.631-3.924c-0.012-0.049-0.038-0.096-0.045-0.144
						l-7.8-1.966C183.712,210.208,184.448,212.22,185.269,214.195z"/>
					<path style="fill:#FF7A7B;" d="M178.467,218.988c1.702-1.219,3.415-2.429,5.131-3.629c-0.926-2.203-1.766-4.443-2.495-6.73
						c-1.969,1.26-3.896,2.585-5.803,3.935C176.355,214.706,177.416,216.845,178.467,218.988z"/>
					<path style="fill:#FF7A7B;" d="M170.427,224.942c2.111-1.617,4.246-3.204,6.403-4.763c-1.057-2.155-2.12-4.302-3.181-6.453
						c-2.039,1.461-4.061,2.95-6.086,4.433C168.481,220.434,169.434,222.694,170.427,224.942z"/>
					<path style="fill:#FF7A7B;" d="M165.945,219.465l-2.859,11.352c1.869-1.584,3.794-3.104,5.727-4.611
						C167.82,223.973,166.867,221.725,165.945,219.465z"/>
					<path style="fill:#FF7A7B;" d="M203.007,227.498c2.245-1.679,4.48-3.554,6.76-5.409c-1.067-2.226-2.068-4.479-2.977-6.769
						c-2.624,1.552-5.212,3.162-7.78,4.798C200.373,222.559,201.712,225.015,203.007,227.498z"/>
					<path style="fill:#FF7A7B;" d="M194.922,233.238c2.158-1.505,4.324-2.997,6.456-4.541c-1.313-2.52-2.672-5.015-4.051-7.49
						c-2.213,1.432-4.379,2.931-6.554,4.415C192.132,228.174,193.53,230.706,194.922,233.238z"/>
					<path style="fill:#FF7A7B;" d="M187.793,238.233c1.819-1.267,3.628-2.548,5.448-3.813c-0.466-0.869-0.914-1.742-1.389-2.605
						c-0.926-1.682-1.847-3.372-2.749-5.066c-1.712,1.184-3.401,2.403-5.097,3.612C185.279,232.98,186.536,235.607,187.793,238.233z
						"/>
					<path style="fill:#FF7A7B;" d="M179.422,244.146c0.475-0.342,0.938-0.699,1.412-1.039c1.755-1.26,3.537-2.479,5.306-3.716
						c-1.257-2.623-2.51-5.247-3.779-7.864c-2.23,1.609-4.416,3.286-6.619,4.935C176.964,239.025,178.195,241.585,179.422,244.146z"
						/>
					<path style="fill:#FF7A7B;" d="M170.737,250.587c2.347-1.754,4.689-3.521,7.06-5.242c-1.227-2.559-2.455-5.115-3.678-7.675
						c-2.26,1.702-4.505,3.425-6.746,5.153C168.466,245.423,169.6,248.005,170.737,250.587z"/>
					<path style="fill:#FF7A7B;" d="M162.367,256.907c2.235-1.714,4.48-3.416,6.732-5.105c-1.133-2.57-2.254-5.143-3.35-7.73
						c-2.246,1.742-4.477,3.502-6.697,5.275C160.123,251.884,161.231,254.399,162.367,256.907z"/>
					<path style="fill:#FF7A7B;" d="M157.855,251.569l-2.775,11.014c1.883-1.492,3.783-2.963,5.683-4.432
						C159.768,255.968,158.802,253.773,157.855,251.569z"/>
					<path style="fill:#FF7A7B;" d="M211.439,220.774c1.768-1.395,3.563-2.745,5.438-3.891c-0.025-0.058-0.056-0.115-0.082-0.173
						c-0.007-0.016-0.003-0.033-0.009-0.048l-8.122-2.047C209.5,216.714,210.439,218.761,211.439,220.774z"/>
					<path style="fill:#FF7A7B;" d="M223.443,226.142c2.326-1.615,4.652-3.229,6.98-4.844c-0.213-0.447-0.412-0.901-0.615-1.354
						l-9.917-2.499c-0.147,0.08-0.286,0.185-0.432,0.269C220.747,220.544,222.07,223.355,223.443,226.142z"/>
					<path style="fill:#FF7A7B;" d="M216.809,230.716c1.658-1.146,3.325-2.279,4.981-3.428c-1.391-2.816-2.731-5.657-4.034-8.516
						c-1.827,1.248-3.564,2.712-5.272,4.088C213.865,225.507,215.326,228.115,216.809,230.716z"/>
					<path style="fill:#FF7A7B;" d="M207.767,236.917c2.385-1.635,4.775-3.262,7.156-4.903c-1.428-2.587-2.816-5.191-4.135-7.822
						c-2.27,1.727-4.557,3.427-6.857,5.109C205.232,231.827,206.51,234.367,207.767,236.917z"/>
					<path style="fill:#FF7A7B;" d="M192.183,247.445c1.933-1.287,3.87-2.566,5.793-3.865c-1.232-2.478-2.498-4.941-3.794-7.393
						c-1.845,1.28-3.687,2.559-5.528,3.844C189.835,242.499,191.015,244.97,192.183,247.445z"/>
					<path style="fill:#FF7A7B;" d="M183.646,253.11c1.317-0.867,2.631-1.74,3.949-2.605c0.977-0.641,1.94-1.299,2.914-1.943
						c-1.163-2.463-2.334-4.92-3.508-7.377c-2.238,1.566-4.467,3.145-6.679,4.748c-0.014,0.008-0.026,0.018-0.036,0.025
						C181.423,248.337,182.543,250.719,183.646,253.11z"/>
					<path style="fill:#FF7A7B;" d="M174.566,259.147c2.46-1.657,4.929-3.3,7.402-4.933c-1.084-2.355-2.186-4.705-3.306-7.048
						c-2.39,1.743-4.743,3.533-7.112,5.306C172.541,254.704,173.555,256.925,174.566,259.147z"/>
					<path style="fill:#FF7A7B;" d="M158.349,270.626c2.025-1.516,4.068-3.008,6.129-4.477c-0.965-2.039-1.912-4.083-2.855-6.131
						c-2.264,1.746-4.514,3.51-6.75,5.288C156.07,267.058,157.227,268.831,158.349,270.626z"/>
					<path style="fill:#FF7A7B;" d="M153.865,267.4l-2.097,8.319c1.638-1.32,3.309-2.596,4.985-3.869
						C155.816,270.351,154.853,268.87,153.865,267.4z"/>
					<path style="fill:#FF7A7B;" d="M166.113,264.987c2.253-1.586,4.515-3.158,6.794-4.707c-1.001-2.193-2.01-4.383-2.989-6.588
						c-2.237,1.686-4.465,3.385-6.686,5.09C164.183,260.856,165.14,262.925,166.113,264.987z"/>
					<path style="fill:#FF7A7B;" d="M199.697,242.408c2.138-1.447,4.275-2.893,6.404-4.35c-1.248-2.535-2.518-5.059-3.809-7.571
						c-0.61,0.44-1.213,0.89-1.828,1.324c-1.526,1.077-3.062,2.135-4.596,3.201C197.191,237.456,198.462,239.923,199.697,242.408z"
						/>
					<path style="fill:#FF7A7B;" d="M237.173,229.806c2.191-1.55,4.375-3.114,6.58-4.641c-0.459-0.685-0.914-1.375-1.382-2.055
						l-8.111-2.043c-0.438,0.305-0.875,0.607-1.314,0.912C234.249,224.639,235.678,227.24,237.173,229.806z"/>
					<path style="fill:#FF7A7B;" d="M228.466,236.02c2.369-1.702,4.738-3.404,7.116-5.093c-1.499-2.564-2.947-5.154-4.276-7.811
						c-2.317,1.612-4.637,3.222-6.954,4.833C225.703,230.652,227.068,233.344,228.466,236.02z"/>
					<path style="fill:#FF7A7B;" d="M218.222,233.196c1.377,2.422,2.676,4.877,3.95,7.35c1.555-1.12,3.107-2.24,4.663-3.357
						c-1.404-2.683-2.779-5.383-4.135-8.09c-1.628,1.128-3.264,2.245-4.892,3.373C217.946,232.713,218.083,232.954,218.222,233.196z
						"/>
					<path style="fill:#FF7A7B;" d="M212.811,247.267c2.522-1.811,5.051-3.615,7.571-5.432c-1.479-2.688-2.984-5.37-4.48-8.053
						c-2.405,1.662-4.821,3.307-7.234,4.96C210.061,241.581,211.441,244.425,212.811,247.267z"/>
					<path style="fill:#FF7A7B;" d="M197.24,258.265c1.952-1.355,3.908-2.702,5.849-4.072c-1.382-2.961-2.78-5.912-4.218-8.837
						c-1.942,1.309-3.886,2.615-5.831,3.922C194.447,252.269,195.853,255.261,197.24,258.265z"/>
					<path style="fill:#FF7A7B;" d="M187.371,261.462c0.396,0.932,0.782,1.864,1.176,2.797c1.596-1.092,3.193-2.184,4.79-3.274
						c0.754-0.517,1.496-1.048,2.247-1.567c-1.39-3.013-2.804-6.016-4.217-9.017c-0.417,0.277-0.827,0.564-1.247,0.839
						c-1.878,1.23-3.754,2.463-5.63,3.697C185.476,257.103,186.443,259.272,187.371,261.462z"/>
					<path style="fill:#FF7A7B;" d="M179.73,270.319c2.384-1.638,4.762-3.284,7.146-4.918c-0.478-1.127-0.948-2.256-1.427-3.385
						c-0.852-2-1.733-3.991-2.633-5.973c-2.479,1.637-4.951,3.285-7.412,4.947C176.833,264.106,178.273,267.216,179.73,270.319z"/>
					<path style="fill:#FF7A7B;" d="M164.342,280.972c1.798-1.252,3.595-2.508,5.396-3.754c-1.459-3.077-2.924-6.15-4.387-9.227
						c-2,1.433-3.975,2.898-5.941,4.377C161.126,275.194,162.775,278.06,164.342,280.972z"/>
					<path style="fill:#FF7A7B;" d="M156.236,286.675c2.152-1.516,4.293-3.047,6.453-4.555c-1.555-2.893-3.191-5.742-4.891-8.554
						c-1.822,1.392-3.61,2.827-5.393,4.271C153.505,280.86,154.804,283.796,156.236,286.675z"/>
					<path style="fill:#FF7A7B;" d="M150.836,279.417l-1.521,6.035c-0.507,2.016-0.316,4.033,0.39,5.83
						c1.617-1.162,3.258-2.296,4.885-3.447C153.21,285.085,151.932,282.291,150.836,279.417z"/>
					<path style="fill:#FF7A7B;" d="M171.384,276.081c2.231-1.541,4.459-3.092,6.696-4.627c-1.46-3.105-2.904-6.215-4.336-9.331
						c-2.27,1.545-4.522,3.112-6.762,4.696C168.448,269.909,169.918,272.993,171.384,276.081z"/>
					<path style="fill:#FF7A7B;" d="M204.758,253.005c2.138-1.518,4.276-3.031,6.404-4.556c-1.376-2.855-2.761-5.711-4.157-8.563
						c-2.133,1.456-4.29,2.874-6.427,4.319C202.004,247.123,203.398,250.056,204.758,253.005z"/>
					<path style="fill:#FF7A7B;" d="M251.238,233.065c1.538-1.298,3.074-2.598,4.563-3.943c-1.271-1.938-3.221-3.439-5.646-4.051
						l-2.048-0.516c-0.538,0.366-1.065,0.751-1.601,1.119C248.128,228.11,249.703,230.575,251.238,233.065z"/>
					<path style="fill:#FF7A7B;" d="M243.005,239.697c2.262-1.738,4.506-3.498,6.697-5.31c-1.567-2.55-3.176-5.073-4.831-7.565
						c-2.24,1.552-4.458,3.142-6.683,4.714C239.796,234.254,241.433,236.961,243.005,239.697z"/>
					<path style="fill:#FF7A7B;" d="M227.402,251.036c1.645-1.153,3.291-2.306,4.926-3.472c-1.53-2.859-3.046-5.725-4.555-8.592
						c-1.559,1.121-3.115,2.244-4.674,3.365C224.562,245.22,225.984,248.126,227.402,251.036z"/>
					<path style="fill:#FF7A7B;" d="M202.148,269.061c0.876-0.654,1.743-1.314,2.62-1.965c1.044-0.777,2.108-1.537,3.161-2.307
						c-0.806-1.783-1.598-3.572-2.411-5.354c-0.521-1.139-1.052-2.268-1.576-3.402c-1.942,1.371-3.902,2.719-5.855,4.074
						C199.454,263.087,200.804,266.071,202.148,269.061z"/>
					<path style="fill:#FF7A7B;" d="M193.347,275.663c2.391-1.795,4.777-3.594,7.171-5.381c-1.353-3.012-2.716-6.02-4.093-9.018
						c-0.689,0.475-1.371,0.964-2.064,1.437c-1.674,1.146-3.35,2.29-5.024,3.435C190.673,269.31,192.014,272.485,193.347,275.663z"
						/>
					<path style="fill:#FF7A7B;" d="M185.15,281.814c2.189-1.643,4.379-3.285,6.567-4.928c-1.343-3.205-2.699-6.404-4.049-9.607
						c-2.366,1.617-4.719,3.25-7.081,4.871C182.103,275.374,183.624,278.595,185.15,281.814z"/>
					<path style="fill:#FF7A7B;" d="M176.88,287.981c2.213-1.66,4.443-3.297,6.657-4.959c-1.537-3.242-3.072-6.489-4.603-9.737
						c-2.232,1.536-4.456,3.083-6.686,4.622C173.831,281.249,175.372,284.607,176.88,287.981z"/>
					<path style="fill:#FF7A7B;" d="M170.339,292.849c1.635-1.223,3.277-2.436,4.909-3.656c-1.511-3.397-3.061-6.779-4.647-10.147
						c-1.779,1.23-3.549,2.469-5.322,3.703C167.034,286.079,168.718,289.447,170.339,292.849z"/>
					<path style="fill:#FF7A7B;" d="M162.667,298.558c2.024-1.486,4.033-2.996,6.045-4.498c-1.632-3.421-3.324-6.811-5.086-10.162
						c-2.175,1.518-4.332,3.06-6.5,4.588C158.882,291.884,160.778,295.22,162.667,298.558z"/>
					<path style="fill:#FF7A7B;" d="M155.489,289.64c-1.614,1.145-3.244,2.27-4.85,3.424c1.272,1.929,3.217,3.424,5.634,4.031
						l3.837,0.969C158.533,295.272,156.965,292.478,155.489,289.64z"/>
					<path style="fill:#FF7A7B;" d="M208.857,261.979c0.243,0.535,0.48,1.073,0.721,1.61c2.203-1.589,4.42-3.165,6.651-4.731
						c-1.403-2.848-2.794-5.712-4.183-8.585c-2.14,1.529-4.285,3.05-6.431,4.57C206.704,257.22,207.78,259.599,208.857,261.979z"/>
					<path style="fill:#FF7A7B;" d="M217.882,257.702c2.617-1.83,5.234-3.66,7.858-5.493c-0.364-0.743-0.718-1.493-1.083-2.237
						c-1.054-2.139-2.176-4.256-3.318-6.367c-2.545,1.835-5.1,3.658-7.646,5.486C215.083,251.974,216.476,254.846,217.882,257.702z"
						/>
					<path style="fill:#FF7A7B;" d="M233.943,246.379c2.509-1.806,5.013-3.615,7.472-5.476c-1.56-2.777-3.194-5.51-4.814-8.247
						c-2.407,1.706-4.801,3.43-7.196,5.15C230.909,240.669,232.419,243.526,233.943,246.379z"/>
					<path style="fill:#FF7A7B;" d="M241.501,280.349c1.734-1.568,3.439-3.176,5.096-4.838c-1.209-2.592-2.438-5.172-3.714-7.727
						c-1.759,1.484-3.507,2.986-5.251,4.492C238.919,274.969,240.214,277.657,241.501,280.349z"/>
					<path style="fill:#FF7A7B;" d="M232.539,287.843c2.514-1.995,4.995-4.027,7.406-6.145c-1.285-2.695-2.578-5.387-3.865-8.082
						c-2.441,2.111-4.885,4.227-7.342,6.319C230.01,282.568,231.278,285.204,232.539,287.843z"/>
					<path style="fill:#FF7A7B;" d="M223.363,294.839c2.549-1.883,5.084-3.781,7.578-5.727c-1.252-2.625-2.513-5.248-3.775-7.869
						c-2.045,1.725-4.089,3.447-6.175,5.117c-0.325,0.26-0.646,0.527-0.972,0.787C221.136,289.71,222.253,292.272,223.363,294.839z"
						/>
					<path style="fill:#FF7A7B;" d="M215.636,300.479c2.029-1.477,4.063-2.954,6.086-4.439c-1.092-2.537-2.188-5.072-3.293-7.605
						c-1.951,1.571-3.871,3.177-5.816,4.756C213.625,295.619,214.644,298.043,215.636,300.479z"/>
					<path style="fill:#FF7A7B;" d="M206.947,306.921c2.335-1.752,4.667-3.508,7.027-5.229c-0.974-2.401-1.972-4.793-2.968-7.185
						c-2.36,1.918-4.709,3.854-7.065,5.775C204.933,302.501,205.927,304.716,206.947,306.921z"/>
					<path style="fill:#FF7A7B;" d="M202.349,301.582c-1.923,1.573-3.854,3.14-5.77,4.719c0.163,0.356,0.317,0.717,0.478,1.073
						l6.933,1.747c0.436-0.335,0.887-0.653,1.326-0.985C204.308,305.96,203.329,303.771,202.349,301.582z"/>
					<path style="fill:#FF7A7B;" d="M247.839,273.505l3.107-12.33c-2.201,1.73-4.355,3.516-6.504,5.313
						C245.605,268.811,246.729,271.153,247.839,273.505z"/>
					<path style="fill:#FF7A7B;" d="M244.524,286.661l2.104-8.348c-1.381,1.34-2.795,2.639-4.226,3.918
						C243.108,283.708,243.817,285.183,244.524,286.661z"/>
					<path style="fill:#FF7A7B;" d="M236.861,296.968c2.422-2.332,4.729-4.783,6.836-7.428c-0.951-1.982-1.898-3.967-2.847-5.952
						c-2.421,2.106-4.909,4.132-7.43,6.118C234.572,292.124,235.723,294.544,236.861,296.968z"/>
					<path style="fill:#FF7A7B;" d="M227.667,304.847c2.641-2.061,5.224-4.184,7.676-6.441c-1.166-2.485-2.348-4.963-3.526-7.443
						c-2.518,1.952-5.079,3.855-7.648,5.748C225.336,299.421,226.505,302.13,227.667,304.847z"/>
					<path style="fill:#FF7A7B;" d="M219.717,310.741c2.134-1.52,4.255-3.055,6.336-4.639c-1.166-2.734-2.351-5.463-3.524-8.193
						c-2.043,1.494-4.091,2.98-6.139,4.469C217.514,305.16,218.627,307.948,219.717,310.741z"/>
					<path style="fill:#FF7A7B;" d="M214.73,303.59c-2.34,1.706-4.662,3.435-6.976,5.173c0.169,0.498-0.047,0.949-0.399,1.207
						l9.932,2.502c0.255-0.178,0.506-0.361,0.76-0.541C216.962,309.142,215.847,306.364,214.73,303.59z"/>
					<path style="fill:#FF7A7B;" d="M240.148,304.026l2.586-10.264c-1.587,1.773-3.254,3.463-4.98,5.094
						C238.559,300.577,239.348,302.304,240.148,304.026z"/>
					<path style="fill:#FF7A7B;" d="M226.84,307.954c-2.099,1.588-4.229,3.137-6.379,4.666c0.021,0.049,0.042,0.096,0.06,0.146
						c0.076,0.198,0.072,0.372,0.035,0.53l6.926,1.746c0.831,0.209,1.654,0.264,2.472,0.254
						C228.915,312.847,227.881,310.399,226.84,307.954z"/>
					<path style="fill:#FF7A7B;" d="M236.216,300.265c-2.484,2.254-5.084,4.387-7.746,6.451c1.184,2.772,2.355,5.549,3.531,8.324
						c3.377-0.794,6.217-3.358,7.123-6.953l0.251-0.994C238.323,304.815,237.279,302.538,236.216,300.265z"/>
					<path style="fill:#FF7A7B;" d="M252.042,256.831l2.895-11.49c-2.032,1.764-4.097,3.483-6.157,5.212
						C249.866,252.645,250.974,254.73,252.042,256.831z"/>
					<path style="fill:#FF7A7B;" d="M243.542,264.706c2.391-2.01,4.807-3.994,7.271-5.915c-1.176-2.32-2.365-4.636-3.562-6.944
						c-2.404,2-4.831,3.973-7.266,5.936C241.192,260.08,242.369,262.392,243.542,264.706z"/>
					<path style="fill:#FF7A7B;" d="M227.872,278.141c2.465-2.087,4.91-4.194,7.354-6.306c-1.191-2.492-2.407-4.971-3.605-7.458
						c-2.514,1.972-5.052,3.913-7.582,5.862C225.324,272.87,226.597,275.505,227.872,278.141z"/>
					<path style="fill:#FF7A7B;" d="M195.732,304.433c1.922-1.578,3.844-3.154,5.768-4.734c-1.35-3.044-2.676-6.098-3.989-9.158
						c-2.019,1.55-4.031,3.107-6.042,4.666C192.905,298.274,194.325,301.351,195.732,304.433z"/>
					<path style="fill:#FF7A7B;" d="M189.862,296.444c-2.395,1.861-4.776,3.739-7.151,5.623c0.234,0.621,0.465,1.244,0.692,1.865
						l9.898,2.494c0.28-0.233,0.567-0.465,0.848-0.699C192.74,302.627,191.306,299.532,189.862,296.444z"/>
					<path style="fill:#FF7A7B;" d="M203.087,298.397c2.372-1.941,4.728-3.9,7.106-5.832c-1.243-2.959-2.487-5.916-3.76-8.861
						c-2.439,1.859-4.87,3.728-7.304,5.596C200.434,292.337,201.748,295.374,203.087,298.397z"/>
					<path style="fill:#FF7A7B;" d="M211.803,291.261c1.935-1.569,3.862-3.146,5.802-4.705c-1.242-2.844-2.488-5.684-3.744-8.522
						c-1.934,1.474-3.865,2.954-5.801,4.429C209.326,285.386,210.568,288.321,211.803,291.261z"/>
					<path style="fill:#FF7A7B;" d="M219.195,285.269c0.631-0.504,1.255-1.018,1.885-1.521c1.763-1.407,3.486-2.858,5.215-4.305
						c-1.283-2.654-2.566-5.311-3.861-7.961c-2.311,1.777-4.631,3.543-6.947,5.312C216.734,279.614,217.962,282.442,219.195,285.269
						z"/>
					<path style="fill:#FF7A7B;" d="M236.776,270.495c1.732-1.497,3.469-2.992,5.216-4.474c-1.178-2.331-2.36-4.66-3.572-6.974
						c-1.717,1.375-3.464,2.71-5.193,4.07C234.407,265.579,235.597,268.034,236.776,270.495z"/>
					<path style="fill:#FF7A7B;" d="M255.997,241.135l1.115-4.421c0.501-1.991,0.324-3.986-0.36-5.768
						c-1.459,1.309-2.96,2.571-4.465,3.833C253.558,236.877,254.799,238.994,255.997,241.135z"/>
					<path style="fill:#FF7A7B;" d="M245.032,243.33c0.96,1.793,1.87,3.613,2.812,5.414c2.295-1.928,4.589-3.857,6.848-5.831
						c-1.274-2.298-2.589-4.573-3.946-6.823c-2.216,1.822-4.483,3.589-6.77,5.335C244.329,242.06,244.689,242.691,245.032,243.33z"
						/>
					<path style="fill:#FF7A7B;" d="M239.045,255.998c2.438-1.97,4.868-3.947,7.273-5.956c-1.293-2.478-2.602-4.949-3.934-7.406
						l-0.005-0.006c-2.474,1.861-4.989,3.678-7.509,5.484C236.271,250.739,237.659,253.366,239.045,255.998z"/>
					<path style="fill:#FF7A7B;" d="M232.348,261.293c1.706-1.347,3.436-2.667,5.131-4.026c-1.404-2.664-2.81-5.324-4.23-7.98
						c-1.657,1.18-3.325,2.345-4.989,3.512C229.635,255.624,230.986,258.462,232.348,261.293z"/>
					<path style="fill:#FF7A7B;" d="M223.15,268.429c2.532-1.955,5.072-3.898,7.589-5.873c-1.378-2.863-2.752-5.729-4.145-8.582
						c-2.618,1.831-5.235,3.66-7.846,5.493C220.222,262.45,221.686,265.44,223.15,268.429z"/>
					<path style="fill:#FF7A7B;" d="M214.656,274.94c2.297-1.754,4.598-3.506,6.887-5.267c-1.477-3.02-2.956-6.038-4.447-9.05
						c-2.254,1.589-4.467,3.21-6.686,4.823C211.831,268.608,213.249,271.772,214.656,274.94z"/>
					<path style="fill:#FF7A7B;" d="M207.244,280.595c1.933-1.474,3.87-2.947,5.803-4.422c-1.414-3.186-2.852-6.359-4.283-9.537
						c-0.477,0.352-0.968,0.688-1.44,1.04c-1.447,1.077-2.886,2.168-4.329,3.247C204.431,274.138,205.837,277.366,207.244,280.595z"
						/>
					<path style="fill:#FF7A7B;" d="M198.323,287.429c2.431-1.863,4.858-3.733,7.296-5.592c-1.408-3.234-2.815-6.471-4.255-9.692
						c-2.407,1.802-4.812,3.612-7.217,5.419C195.53,280.856,196.921,284.144,198.323,287.429z"/>
					<path style="fill:#FF7A7B;" d="M190.609,293.378c2.029-1.571,4.057-3.146,6.096-4.709c-1.402-3.291-2.801-6.582-4.186-9.883
						c-2.165,1.627-4.331,3.249-6.494,4.874C187.559,286.897,189.086,290.137,190.609,293.378z"/>
					<path style="fill:#FF7A7B;" d="M181.995,300.136c2.333-1.846,4.664-3.695,7.014-5.52c-1.523-3.25-3.059-6.498-4.597-9.746
						c-2.227,1.672-4.467,3.32-6.696,4.988C179.208,293.255,180.647,296.675,181.995,300.136z"/>
					<path style="fill:#FF7A7B;" d="M174.445,301.676l4.236,1.067c0.553-0.443,1.111-0.871,1.666-1.311
						c-1.341-3.488-2.766-6.941-4.261-10.36c-1.62,1.211-3.247,2.415-4.867,3.626C172.312,297.018,173.39,299.343,174.445,301.676z"
						/>
					<path style="fill:#FF7A7B;" d="M169.591,295.912c-1.518,1.132-3.029,2.269-4.557,3.392l6.939,1.75
						C171.191,299.334,170.395,297.622,169.591,295.912z"/>
					<path style="fill:#FF7A7B;" d="M198.006,218.355c2.438-1.556,4.893-3.088,7.384-4.564l-11.797-2.973
						c-0.018,0.012-0.035,0.025-0.053,0.038C195.08,213.318,196.564,215.823,198.006,218.355z"/>
					<path style="fill:#FF7A7B;" d="M174.857,234.605c2.198-1.647,4.381-3.313,6.607-4.92c-1.245-2.561-2.488-5.121-3.741-7.677
						c-2.178,1.582-4.331,3.197-6.462,4.838C172.429,229.445,173.635,232.026,174.857,234.605z"/>
					<path style="fill:#FF7A7B;" d="M166.584,240.892c2.209-1.705,4.427-3.4,6.651-5.082c-1.217-2.564-2.42-5.134-3.59-7.721
						c-2.101,1.651-4.158,3.353-6.184,5.095C164.476,235.767,165.521,238.333,166.584,240.892z"/>
					<path style="fill:#FF7A7B;" d="M162.038,234.968l-2.98,11.827c1.952-1.559,3.923-3.097,5.896-4.63
						C163.957,239.777,162.993,237.376,162.038,234.968z"/>
					<path style="fill:#FF7A7B;" d="M183.111,228.518c1.676-1.199,3.35-2.403,5.045-3.576c-1.324-2.537-2.593-5.099-3.756-7.71
						c-1.686,1.186-3.368,2.381-5.041,3.586C180.615,223.382,181.863,225.95,183.111,228.518z"/>
					<path style="fill:#FF7A7B;" d="M189.817,223.822c2.161-1.473,4.313-2.959,6.507-4.38c-1.43-2.511-2.9-4.996-4.428-7.439
						c-1.939,1.352-3.881,2.704-5.82,4.058C187.234,218.689,188.49,221.271,189.817,223.822z"/>
					<path style="fill:#FF7A7B;" d="M174.408,210.757c1.682-1.186,3.365-2.372,5.091-3.493l-0.552-0.139
						c-2.112-0.532-4.221-0.287-6.08,0.506C173.38,208.673,173.894,209.716,174.408,210.757z"/>
					<path style="fill:#FF7A7B;" d="M166.793,216.253c1.981-1.455,3.963-2.913,5.958-4.347c-0.543-1.1-1.084-2.202-1.627-3.303
						c-1.824,1.275-3.236,3.153-3.822,5.478l-0.533,2.114C166.778,216.214,166.787,216.234,166.793,216.253z"/>
				</g>
				<path style="fill:#DB394E;" d="M236.298,315.62c-1.156,0.674-0.912,3.395-0.904,4.472c0.015,2.567,0.613,5.147,1.715,7.462
					c1.073,2.255,2.993,3.876,5.48,4.24c1.465,0.215,3.401,0.264,4.453-0.957c2.12-2.461-1.162-6.303-2.627-8.098
					c-1.481-1.811-3.078-3.516-4.709-5.189c-0.848-0.869-1.908-2.443-3.124-2.779c-0.524-0.147-0.716,1.01-0.608,1.314
					c0.686,1.969,3.123,3.557,4.55,4.991c2.188,2.204,4.915,4.737,5.935,7.759c0.471,1.398-2.117,1.184-2.9,1.141
					c-2.407-0.127-4.113-1.408-5.342-3.42c-1.201-1.961-1.644-4.396-1.816-6.655c-0.098-1.307,0.428-2.933,0.076-4.191
					C236.451,315.618,236.389,315.566,236.298,315.62L236.298,315.62z"/>
			</g>
			<g style="opacity:0.3;">
				<path style="fill:#DB394E;" d="M177.041,266.792c-0.829-20.632,11.364-41.911,31.197-49.031
					c3.678-1.32,7.407-2.317,11.157-3.007l-40.556-10.221c-5.356-1.351-10.792,1.899-12.142,7.254l-18.757,74.43
					c-1.35,5.355,1.896,10.791,7.253,12.141l39.057,9.844C184.255,296.515,177.682,282.745,177.041,266.792z"/>
			</g>
		</g>
		<g>
			<g>
				<path style="fill:#F1D9BD;" d="M62.913,47.2c-6.939-0.146-5.474,14.705-5.474,14.705l-0.705,126.408l8.225,0.172l3.885-130.031
					C68.843,58.454,69.855,47.345,62.913,47.2z M65.385,53.733c-0.048,2.175-3.419,2.104-3.372-0.071l0.005-0.296
					c0.046-2.175,3.418-2.104,3.371,0.071L65.385,53.733z"/>
				<path style="fill:#F5D09B;" d="M34.531,192.348c0,0,0.775,24.319,25.711,24.842c24.936,0.522,26.217-23.753,26.217-23.753
					L34.531,192.348z"/>
				<path style="fill:#F5E4D2;" d="M86.458,193.436c-0.053,2.484-11.718,4.254-26.059,3.953c-14.34-0.3-25.921-2.557-25.869-5.042
					c0.051-2.486,11.718-4.255,26.058-3.955C74.927,188.693,86.511,190.951,86.458,193.436z"/>
				<path style="fill:#F1D9BD;" d="M41.609,195.634c4.689,0.936,11.218,1.597,18.498,1.75c6.606,0.139,12.624-0.165,17.212-0.774
					C64.777,191.376,50.27,187.355,41.609,195.634z"/>
			</g>
			<g>
				<path style="fill:#FBB03B;" d="M62.5,36.787c-8.496,0-7.626,8.935-7.626,8.935v63.772h15.25V45.721
					C70.124,45.721,70.882,36.787,62.5,36.787z M67.996,45.016v0.32H57v-0.32c0,0-0.627-6.441,5.5-6.441
					C68.542,38.575,67.996,45.016,67.996,45.016z"/>
				<path style="fill:#EB9C1D;" d="M62.442,79.939c-0.64-5.239-1.101-10.85-1.25-16.563c-0.566-6.029-0.542-12.102,0.093-18.041
					h-4.275v-0.32c0,0-0.598-6.255,5.267-6.425c0.11-0.6,0.216-1.202,0.342-1.797c-0.04,0-0.072-0.007-0.109-0.007
					c-8.495,0-7.626,8.935-7.626,8.935v63.772h15.249v-1.639C66.13,99.362,63.671,89.972,62.442,79.939z"/>
			</g>
		</g>
		<g>
			<g>
				<g>
					<path style="fill:#F1D9BD;" d="M128.052,47.2c-6.938-0.146-5.473,14.705-5.473,14.705l-0.706,126.408l8.226,0.172
						l3.885-130.031C133.984,58.454,134.995,47.345,128.052,47.2z M130.525,53.733c-0.047,2.175-3.419,2.104-3.372-0.071
						l0.005-0.296c0.047-2.175,3.418-2.104,3.371,0.071L130.525,53.733z"/>
				</g>
				<g>
					<path style="fill:#FBB03B;" d="M127.641,36.787c-8.497,0-7.627,8.935-7.627,8.935v63.772h15.25V45.721
						C135.264,45.721,136.022,36.787,127.641,36.787z M133.135,45.016v0.32H122.14v-0.32c0,0-0.627-6.441,5.501-6.441
						C133.682,38.575,133.135,45.016,133.135,45.016z"/>
					<path style="fill:#EB9C1D;" d="M127.582,79.939c-0.64-5.239-1.101-10.85-1.25-16.563c-0.566-6.029-0.543-12.102,0.092-18.041
						h-4.275v-0.32c0,0-0.598-6.255,5.267-6.425c0.111-0.6,0.216-1.202,0.343-1.797c-0.041,0-0.072-0.007-0.11-0.007
						c-8.495,0-7.625,8.935-7.625,8.935v63.772h15.248v-1.639C131.27,99.362,128.811,89.972,127.582,79.939z"/>
				</g>
			</g>
			<g>
				<path style="fill:#F5E4D2;" d="M124.573,186.07c-15.963,0-28.902,8.374-28.902,18.703c0,10.329,12.939,18.703,28.902,18.703
					c15.958,0,28.896-8.374,28.896-18.703C153.469,194.443,140.531,186.07,124.573,186.07z M107.933,212.403
					c0,0.475-0.387,0.862-0.86,0.862c-0.478,0-0.864-0.387-0.864-0.862v-15.258c0-0.476,0.387-0.862,0.864-0.862
					c0.474,0,0.86,0.387,0.86,0.862V212.403z M113.879,215.163c0,0.428-0.425,0.775-0.946,0.775c-0.525,0-0.95-0.347-0.95-0.775
					v-22.759c0-0.428,0.425-0.776,0.95-0.776c0.521,0,0.946,0.348,0.946,0.776V215.163z M119.572,216.842
					c0,0.499-0.405,0.905-0.906,0.905c-0.5,0-0.905-0.406-0.905-0.905v-24.998c0-0.5,0.405-0.906,0.905-0.906
					c0.501,0,0.906,0.406,0.906,0.906V216.842z M125.779,219.299c0,0.62-0.505,1.121-1.125,1.121c-0.615,0-1.119-0.501-1.119-1.121
					v-29.052c0-0.618,0.504-1.12,1.119-1.12c0.62,0,1.125,0.502,1.125,1.12V219.299z M131.379,216.842
					c0,0.499-0.406,0.905-0.906,0.905c-0.499,0-0.905-0.406-0.905-0.905v-24.998c0-0.5,0.406-0.906,0.905-0.906
					c0.5,0,0.906,0.406,0.906,0.906V216.842z M137.158,216.282c0,0.428-0.425,0.775-0.95,0.775c-0.523,0-0.948-0.348-0.948-0.775
					v-22.759c0-0.428,0.425-0.776,0.948-0.776c0.525,0,0.95,0.348,0.95,0.776V216.282z M142.931,211.541
					c0,0.475-0.387,0.862-0.863,0.862c-0.474,0-0.861-0.387-0.861-0.862v-15.258c0-0.475,0.388-0.862,0.861-0.862
					c0.477,0,0.863,0.387,0.863,0.862V211.541z"/>
				<path style="fill:#F1D9BD;" d="M136.64,187.796c0.955,2.384,1.398,4.917,1.083,7.417c-0.159,1.25-0.335,2.457-0.565,3.634
					v17.436c0,0.428-0.425,0.775-0.95,0.775c-0.523,0-0.948-0.348-0.948-0.775v-11.843c-0.274,0.518-0.576,1.033-0.926,1.542
					c-0.745,1.083-1.828,2.59-2.954,3.899v6.961c0,0.499-0.406,0.905-0.906,0.905c-0.499,0-0.905-0.406-0.905-0.905v-5.126
					c-1.228,1.082-2.492,2.058-3.789,2.933v4.65c0,0.62-0.505,1.121-1.125,1.121c-0.615,0-1.119-0.501-1.119-1.121v-3.249
					c-4.798,2.717-10.01,4.072-15.54,4.031c4.693,2.133,10.403,3.396,16.578,3.396c15.958,0,28.896-8.374,28.896-18.703
					C153.469,197.236,146.566,190.757,136.64,187.796z M142.931,211.541c0,0.475-0.387,0.862-0.863,0.862
					c-0.474,0-0.861-0.387-0.861-0.862v-15.258c0-0.475,0.388-0.862,0.861-0.862c0.477,0,0.863,0.387,0.863,0.862V211.541z"/>
			</g>
		</g>
		<g>
			<g>
				<path style="fill:#FFD4A7;" d="M347.622,275.657h-33.447c-3.584,56.742,13.141,54.354,13.141,54.354l-5.973,117.066h16.724
					l-3.584-116.469C352.999,323.441,347.622,275.657,347.622,275.657z M335.259,436.087c0,2.949-2.391,5.34-5.34,5.34
					c-2.949,0-5.34-2.391-5.34-5.34c0-2.95,2.391-5.341,5.34-5.341C332.868,430.746,335.259,433.137,335.259,436.087z"/>
				<g>
					<path style="fill:#FFC583;" d="M327.32,330.011l-1.81,35.471c2.936-1.759,6.945-1.744,10.045-0.172l-1.068-34.701
						c6.496-2.514,10.049-10.028,11.927-18.723c-2.395,2.478-5.194,4.391-8.402,5.455c-9.376,3.112-17.413-1.479-23.264-9.069
						C317.964,331.344,327.32,330.011,327.32,330.011z"/>
					<path style="fill:#FFC583;" d="M335.227,398.361c-1.993,4.114-7.292,6.161-11.649,4.99l-2.23,43.725h16.724l-1.496-48.635
						C336.127,398.442,335.676,398.417,335.227,398.361z M329.924,441.427c-2.948,0-5.34-2.391-5.34-5.34
						c0-2.95,2.392-5.341,5.34-5.341c2.949,0,5.341,2.391,5.341,5.341C335.265,439.036,332.873,441.427,329.924,441.427z"/>
				</g>
			</g>
			<g>
				<path style="fill:#FFC585;" d="M372.307,438.005l33.448,12.098c14.807-61.44-13.141-60.403-13.141-60.403l5.973-117.067h-16.724
					l3.584,116.47C359.27,396.973,372.307,438.005,372.307,438.005z M384.67,283.624c0-2.949,2.392-5.341,5.341-5.341
					c2.949,0,5.34,2.392,5.34,5.341c0,2.949-2.391,5.34-5.34,5.34C387.061,288.964,384.67,286.573,384.67,283.624z M388.92,410.478
					c4.397,0,7.964,3.566,7.964,7.965c0,4.398-3.566,7.965-7.964,7.965c-4.399,0-7.965-3.566-7.965-7.965
					C380.955,414.044,384.52,410.478,388.92,410.478z"/>
				<path style="fill:#FFB755;" d="M388.708,272.632c0.352,1.891,0.652,3.79,0.925,5.693c0.141-0.011,0.276-0.042,0.42-0.042
					c2.948,0,5.34,2.392,5.34,5.341c0,2.697-2.007,4.904-4.604,5.266c0.624,8.305,0.641,16.674,0.254,24.98
					c-0.5,10.777-1.436,21.523-1.928,32.302c-0.508,11.179-1.248,22.347-3.586,33.316c-0.085,0.393-0.186,0.768-0.301,1.126
					l0.261,8.487c-13.772,4.142-16.685,17.458-16.358,29.153c2.096-4.634,4.821-8.888,8.349-12.313
					c7.74-7.517,19.011-7.574,25.212-0.265c1.794,1.134,3.206,2.825,3.981,4.819c1.328,1.5,2.45,3.228,3.363,5.154
					c-1.298-26.541-17.38-25.952-17.38-25.952l5.974-117.067H388.708z"/>
			</g>
			<g>
				<path style="fill:#FFD4A7;" d="M464.744,275.657h-4.989v29.452c0,0.865-0.701,1.567-1.566,1.567
					c-0.866,0-1.567-0.702-1.567-1.567v-29.452h-3.849v29.452c0,0.865-0.701,1.567-1.566,1.567c-0.866,0-1.567-0.702-1.567-1.567
					v-29.452h-3.849v29.452c0,0.865-0.701,1.567-1.566,1.567c-0.866,0-1.567-0.702-1.567-1.567v-29.452h-3.849v29.452
					c0,0.865-0.701,1.567-1.566,1.567c-0.866,0-1.567-0.702-1.567-1.567v-29.452h-4.378c-3.583,56.742,13.141,54.354,13.141,54.354
					l-5.973,117.066h16.724l-3.583-116.469C470.12,323.441,464.744,275.657,464.744,275.657z M452.381,436.087
					c0,2.949-2.392,5.34-5.341,5.34c-2.949,0-5.34-2.391-5.34-5.34c0-2.95,2.391-5.341,5.34-5.341
					C449.989,430.746,452.381,433.137,452.381,436.087z"/>
				<path style="fill:#FFC583;" d="M441.629,436.087c0-2.473,1.689-4.533,3.97-5.142c-0.119-10.429,0.375-20.909,0.404-31.143
					c0.027-9.728,0.283-19.409,0.914-29.093c-0.395-3.863-0.373-7.943,0.229-11.836c-0.513-7.63-0.377-15.277,1.658-22.652
					c0.553-2.004,1.531-3.529,2.758-4.641l-0.03-0.973c9.92-3.84,12.98-19.335,13.686-32.896
					c-3.365,10.725-8.919,20.039-19.336,17.355c-2.763-0.711-5.014-2.115-6.838-4.006c-3.441-2.203-6.085-5.896-8-10.265
					c2.053,30.815,13.321,29.214,13.321,29.214l-5.973,117.066h8.04c-0.194-1.91-0.35-3.828-0.471-5.752
					C443.495,440.854,441.629,438.691,441.629,436.087z"/>
			</g>
		</g>
		<g>
			<path style="fill:#FDD6AB;" d="M139.305,316.985c-7.507-8.394-28.479,2.614-41.495-7.365
				c-12.178-9.339-13.082-27.524-16.367-34.435c-8.865-18.652-36.904-9.547-27.834,13.23c3.041,7.637,16.743,22.646,18.585,30.216
				c1.837,7.569-6.309,17.069-17.028,27.089c-10.715,10.019-3.887,31.047,6.412,49.018c10.302,17.969,25.355,54.084,39.684,55.365
				l72.89-34.645c0,0,5.38,0.959,3.261-13.863C175.29,386.772,146.813,325.376,139.305,316.985z M70.133,286.541
				c-2.852,1.356-6.265,0.143-7.622-2.71c-1.355-2.854-0.141-6.266,2.712-7.621c2.853-1.355,6.264-0.143,7.62,2.71
				C74.201,281.773,72.987,285.185,70.133,286.541z"/>
			<g style="opacity:0.3;">
				<path style="fill:#FDD6AB;" d="M123.775,436.261c-1.202-1.047-2.355-2.135-3.439-3.23c-2.276-2.296-4.448-4.703-6.531-7.197
					c0.574,2.251,1.108,4.512,1.587,6.785c0.41,0.845,0.804,1.693,1.224,2.536c1.84,1.842,3.809,3.481,5.918,4.837l2.781-1.322
					C124.794,437.87,124.281,437.067,123.775,436.261z"/>
				<path style="fill:#FDD6AB;" d="M131.021,435.956c-0.256-1.814-0.811-3.631-1.266-5.156c-0.4-1.338-0.833-2.668-1.291-3.99
					c-0.085-0.071-0.174-0.137-0.257-0.209c-1.165-1.016-2.284-2.08-3.372-3.175c2.053,4.188,3.977,8.435,5.71,12.757
					L131.021,435.956z"/>
				<path style="fill:#FDD6AB;" d="M107.761,399.728c2.31,4.631,4.552,9.298,6.836,13.943c4.028,8.189,8.89,15.842,13.556,23.648
					l1.066-0.507c-2.345-5.875-5.055-11.611-7.962-17.25C116.044,413.527,111.687,406.675,107.761,399.728z"/>
				<path style="fill:#FDD6AB;" d="M112.124,392.162c-1.003-1.808-1.984-3.619-2.941-5.435c-2.994-5.492-6.035-10.957-9.064-16.431
					c-1.565-2.829-3.07-5.692-4.551-8.568c-0.053,1.204-0.053,2.409-0.046,3.617c5.415,10.296,10.878,20.567,16.878,30.544
					c2.877,4.788,5.849,9.574,8.987,14.246c-1.906-3.914-3.907-7.775-5.89-11.596C114.39,396.406,113.26,394.282,112.124,392.162z"
					/>
				<path style="fill:#FDD6AB;" d="M112.254,400.069c2.859,5.055,5.722,10.139,8.458,15.291c1.917,2.543,3.984,4.965,6.193,7.213
					c-0.697-1.78-1.445-3.546-2.216-5.303c-10.471-14.342-19.255-29.902-27.526-45.594
					C101.805,381.314,106.93,390.663,112.254,400.069z"/>
				<path style="fill:#FDD6AB;" d="M55.496,269.936c-0.423,0.467-0.81,0.969-1.17,1.498c0.514,1.75,1.021,3.208,1.208,3.814
					c0.25,0.811,0.515,1.618,0.778,2.426c0.287,0.488,0.566,0.979,0.849,1.47C56.507,276.091,55.949,273.022,55.496,269.936z"/>
				<path style="fill:#FDD6AB;" d="M57.962,275.004c0.628,3.145,1.334,6.268,2.136,9.366c0.482,0.883,0.957,1.772,1.433,2.659
					c-0.243-1.282-0.475-2.564-0.697-3.846C59.814,280.476,58.849,277.749,57.962,275.004z"/>
				<path style="fill:#FDD6AB;" d="M108.822,405.168c4.726,10.38,9.955,20.484,16.02,30.071c0.23,0.203,0.449,0.411,0.686,0.612
					c-4.434-7.337-8.884-14.61-12.658-22.347C111.514,410.731,110.174,407.947,108.822,405.168z"/>
				<path style="fill:#FDD6AB;" d="M98.425,385.383c-0.232-0.394-0.456-0.792-0.694-1.185c-0.052-0.087-0.106-0.176-0.159-0.262
					c1.464,7.089,3.581,14.109,6.028,20.902c1.541,3.112,3.039,6.244,4.441,9.424c0.5,1.131,0.999,2.277,1.494,3.438
					c0.261,0.368,0.536,0.725,0.8,1.092c-1.234-4.103-2.579-8.167-3.965-12.18C103.901,399.468,101.195,392.413,98.425,385.383z"/>
				<path style="fill:#FDD6AB;" d="M107.591,405.583c1.908,5.461,3.685,10.977,5.229,16.549c2.491,3.244,5.145,6.352,8,9.256
					C115.921,423.056,111.569,414.388,107.591,405.583z"/>
				<path style="fill:#FDD6AB;" d="M70.569,268.694c2.962,7.661,6.241,15.203,9.685,22.656c1.818,3.939,3.654,7.883,5.502,11.824
					c-0.705-2.063-1.408-4.122-2.111-6.184c-2.949-6.148-5.884-12.307-8.59-18.566C73.669,275.219,72.266,271.864,70.569,268.694z"
					/>
				<path style="fill:#FDD6AB;" d="M83.783,302.565c3.26,8.094,6.479,16.169,10.054,23.92c0.329,0.713,0.688,1.41,1.026,2.118
					c-1.687-4.438-3.332-8.892-4.916-13.37C87.873,311.02,85.81,306.8,83.783,302.565z"/>
				<path style="fill:#FDD6AB;" d="M105.542,342.741c-0.74-1.478-1.49-2.949-2.217-4.434c-1.205-2.461-2.344-4.952-3.455-7.457
					c-3.311-6.688-6.47-13.448-9.597-20.174c-0.602-1.234-1.216-2.459-1.813-3.695c0.84,2.422,1.688,4.842,2.551,7.256
					c3.049,6.338,6.156,12.646,9.371,18.875c1.867,3.612,3.621,7.279,5.346,10.959C105.655,343.63,105.602,343.185,105.542,342.741z
					"/>
				<path style="fill:#FDD6AB;" d="M107.492,351.696c-0.107-0.243-0.219-0.484-0.327-0.727c-3.659-8.074-7.539-16.072-11.467-24.059
					c1.359,3.537,2.756,7.062,4.226,10.56c0.73,1.741,1.486,3.475,2.253,5.204c1.773,3.174,3.581,6.33,5.438,9.459
					C107.57,351.991,107.535,351.841,107.492,351.696z"/>
				<path style="fill:#FDD6AB;" d="M95.188,357.776c0.069,0.013,0.136,0.025,0.198,0.057c-1.506-3.393-3.002-6.795-4.495-10.195
					c-3.624-8.25-7.696-16.449-11.811-24.68c0.093,0.359,0.188,0.721,0.28,1.08C84.489,335.361,89.594,346.7,95.188,357.776z"/>
				<path style="fill:#FDD6AB;" d="M99.271,396.288c-1.58-5.194-2.898-10.476-3.823-15.788c-2.453-3.862-5.174-7.678-8.286-11.075
					c0.568,1.8,1.143,3.6,1.715,5.399c0.618,1.403,1.237,2.809,1.869,4.204C93.401,384.872,96.339,390.578,99.271,396.288z"/>
				<path style="fill:#FDD6AB;" d="M82.438,362.996c-4.417-10.86-8.772-21.802-13.531-32.537c-0.185,0.284-0.396,0.573-0.595,0.86
					c3.506,9.564,6.635,19.27,9.895,28.922C79.685,361.058,81.097,361.977,82.438,362.996z"/>
				<path style="fill:#FDD6AB;" d="M66.308,334.032c1.207,2.982,2.431,5.952,3.668,8.902c1.345,3.211,2.724,6.413,4.12,9.611
					c-2.195-6.627-4.407-13.253-6.799-19.81C66.978,333.166,66.657,333.597,66.308,334.032z"/>
				<path style="fill:#FDD6AB;" d="M77.959,324.41c-2.905-6.403-5.825-12.798-8.854-19.134c0.722,2.104,1.479,4.189,2.266,6.263
					c0.197,0.393,0.396,0.787,0.59,1.181c2.479,5.042,4.766,10.166,6.957,15.333C78.594,326.839,78.279,325.624,77.959,324.41z"/>
				<path style="fill:#FDD6AB;" d="M83.178,338.384c1.954,4.855,3.876,9.725,5.819,14.585c1.704,3.206,3.392,6.423,5.082,9.636
					c0.034-1.155,0.074-2.314,0.166-3.467c-4.48-8.855-8.642-17.887-12.754-26.941C82.043,334.263,82.603,336.325,83.178,338.384z"
					/>
				<path style="fill:#FDD6AB;" d="M88.878,360.974c-0.646-1.453-1.291-2.908-1.937-4.362c-3.515-7.919-7.237-15.935-10.862-24.054
					c-0.746-1.398-1.493-2.797-2.232-4.198c1.499,4.843,3.07,9.666,4.699,14.465c2.646,7.792,5.137,15.614,7.613,23.446
					c3.282,3.179,6.161,6.841,8.724,10.647c-0.033-0.223-0.049-0.445-0.078-0.668c-1.176-2.944-2.35-5.888-3.511-8.838
					C90.456,365.278,89.652,363.13,88.878,360.974z"/>
				<path style="fill:#FDD6AB;" d="M62.893,302.903c0.751,1.051,1.495,2.1,2.225,3.142c-0.896-2.44-1.761-4.889-2.58-7.348
					c-1.244-1.97-2.556-3.894-3.932-5.765C59.966,296.288,61.401,299.609,62.893,302.903z"/>
				<path style="fill:#FDD6AB;" d="M60.166,292.566c-1.849-4.668-3.58-9.38-5.145-14.146c-0.755-1.287-1.51-2.573-2.287-3.849
					c-0.081,0.226-0.139,0.464-0.211,0.696c1.167,4.348,2.594,8.631,4.182,12.843C57.908,289.555,59.058,291.042,60.166,292.566z"/>
				<path style="fill:#FDD6AB;" d="M58.518,296.728c-1.122-2.647-2.213-5.309-3.218-8.001c-0.82-0.976-1.676-1.921-2.549-2.851
					c0.239,0.828,0.514,1.669,0.859,2.539C54.508,290.667,56.343,293.57,58.518,296.728z"/>
				<path style="fill:#FDD6AB;" d="M71.446,325.622c-0.442,1.146-1.009,2.314-1.711,3.509c4.541,10.314,8.718,20.812,13.021,31.243
					c-1.69-5.308-3.402-10.605-5.189-15.873C75.462,338.313,73.42,331.995,71.446,325.622z"/>
				<path style="fill:#FDD6AB;" d="M53.979,285.024c-0.744-2.153-1.424-4.328-2.065-6.512c-0.119,1.447-0.059,2.996,0.217,4.642
					C52.749,283.774,53.382,284.384,53.979,285.024z"/>
				<path style="fill:#FDD6AB;" d="M103.558,408.815c-0.326-0.867-0.647-1.74-0.965-2.615c-3.225-6.49-6.661-12.884-9.846-19.393
					c1.095,3.29,2.219,6.57,3.386,9.838C98.521,400.759,100.985,404.822,103.558,408.815z"/>
				<path style="fill:#FDD6AB;" d="M83.617,365.886c-1.46-1.285-3.024-2.436-4.669-3.471c0.418,1.221,0.849,2.432,1.284,3.64
					c3.746,7.977,7.708,15.855,11.947,23.572c-1.683-4.964-3.299-9.954-4.891-14.952C86.055,371.753,84.822,368.832,83.617,365.886z
					"/>
				<path style="fill:#FDD6AB;" d="M113.173,364.302c0.444,1.316,0.887,2.633,1.332,3.949c1.148,2.286,2.298,4.57,3.442,6.858
					c-0.353-1.116-0.707-2.235-1.056-3.349c-1.081-2.166-2.131-4.349-3.168-6.535C113.54,364.917,113.357,364.609,113.173,364.302z"
					/>
				<path style="fill:#FDD6AB;" d="M135.962,407.939c-1.094-3.281-2.266-6.535-3.531-9.754c-0.248-0.479-0.496-0.959-0.743-1.438
					c-1.278-1.766-2.507-3.549-3.675-5.332c-2.512-3.838-4.823-7.797-7.019-11.82c0.608,1.825,1.224,3.647,1.853,5.465
					c1.701,3.529,3.353,7.078,4.942,10.651C130.362,399.891,133.073,403.979,135.962,407.939z"/>
				<path style="fill:#FDD6AB;" d="M139.727,412.94c-0.63-1.415-1.263-2.775-1.876-4.059c0.285,0.891,0.559,1.784,0.826,2.681
					C139.032,412.023,139.365,412.478,139.727,412.94z"/>
				<path style="fill:#FDD6AB;" d="M144.113,420.272c1.014,2.624,1.951,5.382,2.525,8.136c0.053,0.019,0.106,0.032,0.159,0.051
					l1.301-0.617c-1.183-2.348-2.35-4.702-3.498-7.064C144.441,420.607,144.274,420.441,144.113,420.272z"/>
				<path style="fill:#FDD6AB;" d="M105.94,424.435c-0.298-0.626-0.571-1.263-0.86-1.893
					c-11.127-15.826-19.973-33.516-28.362-50.784c-0.266-0.546-0.54-1.088-0.808-1.633c-0.094,1.065-0.146,2.138-0.16,3.214
					c3.184,6.5,6.301,13.032,9.422,19.561c4.366,7.77,8.811,15.498,12.698,23.521c1.213,2.506,2.404,5.057,3.519,7.647
					c3.83,6.693,7.657,13.439,10.825,20.403c0.156,0.072,0.323,0.128,0.483,0.196l1.733-0.824c0.009-0.256-0.005-0.511-0.003-0.766
					c-0.961-2.73-2.014-5.43-3.158-8.096C109.308,431.382,107.535,427.796,105.94,424.435z"/>
				<path style="fill:#FDD6AB;" d="M111.56,431.212c-0.285-0.357-0.56-0.723-0.842-1.081c0.597,1.294,1.184,2.591,1.749,3.897
					c0.488,0.892,1.011,1.766,1.521,2.648c-0.154-1.052-0.334-2.105-0.562-3.153C112.752,432.703,112.123,431.916,111.56,431.212z"
					/>
				<path style="fill:#FDD6AB;" d="M157.507,413.636c-0.023-0.035-0.043-0.072-0.065-0.107c-1.994-3.212-4.069-6.395-6.144-9.586
					c0.484,1.268,0.968,2.537,1.433,3.814c1.403,2.614,2.822,5.222,4.268,7.814c0.07-0.239,0.145-0.574,0.28-1.033
					C157.369,414.24,157.431,413.936,157.507,413.636z"/>
				<path style="fill:#FDD6AB;" d="M158.527,415.337c-0.203,0.598-0.407,1.194-0.667,1.773c0.513,0.913,1.032,1.82,1.55,2.73
					c0.481,0.648,0.971,1.289,1.471,1.924l1.167-0.555C160.902,419.235,159.717,417.285,158.527,415.337z"/>
				<path style="fill:#FDD6AB;" d="M151.918,425.929c0.024,0.021,0.05,0.04,0.075,0.06l4.25-2.02
					c-0.604-2.425-1.271-4.835-2.008-7.228c-1.436-0.622-2.82-1.333-4.161-2.115C151.165,418.331,151.858,422.114,151.918,425.929z"
					/>
				<path style="fill:#FDD6AB;" d="M106.706,340.356c0.528,1.046,1.05,2.095,1.579,3.141c-0.559-1.887-1.113-3.773-1.663-5.664
					C106.611,338.67,106.647,339.512,106.706,340.356z"/>
				<path style="fill:#FDD6AB;" d="M156.048,417.695c0.56,1.866,1.076,3.742,1.553,5.628l1.576-0.749
					c-0.46-0.837-0.914-1.649-1.367-2.477C157.213,419.304,156.625,418.504,156.048,417.695z"/>
				<path style="fill:#FDD6AB;" d="M153.192,413.477c-4.723-7.304-8.712-15.128-12.367-22.913
					c-2.677-5.699-5.173-11.472-7.576-17.284c-3.585-6.796-7.035-13.665-10.524-20.513c-2.18-4.283-4.359-8.582-6.515-12.895
					c-2.474-3.498-5.179-6.836-8.183-9.956c-0.443,1.159-0.733,2.354-0.961,3.562c1.303,4.525,2.622,9.04,3.93,13.547
					c0.287,0.999,0.582,1.998,0.874,2.995c1.614,2.718,3.284,5.396,5.035,8.022c8.106,12.161,16.923,23.901,24.119,36.648
					c3.119,5.52,6.27,11.532,8.377,17.799c0.585,0.377,1.168,0.757,1.772,1.097c0.811,0.456,1.631,0.888,2.467,1.291
					C153.492,414.409,153.345,413.942,153.192,413.477z"/>
				<path style="fill:#FDD6AB;" d="M121.064,400.064c-3.685-7.926-7.137-16.001-11.455-23.611
					c-2.886-5.082-6.191-10.5-10.714-14.398c0.672,1.493,1.332,2.992,2.018,4.478c2.272,4.924,4.6,9.851,7.05,14.719
					c3.038,5.382,6.072,10.798,8.971,16.28c1.843,3.018,3.763,5.986,5.8,8.873c0.642,0.911,1.332,1.846,2.015,2.776
					c-1.12-2.855-2.254-5.707-3.409-8.551C121.248,400.441,121.152,400.253,121.064,400.064z"/>
				<path style="fill:#FDD6AB;" d="M123.054,390.549c-0.861-1.494-1.723-2.989-2.563-4.495c0.062,0.174,0.118,0.35,0.177,0.523
					c3.495,10.264,7.275,20.44,11.395,30.475c0.517,0.873,1.034,1.746,1.552,2.619c0.717,0.702,1.458,1.371,2.209,2.027
					C130.885,411.652,126.739,401.134,123.054,390.549z"/>
				<path style="fill:#FDD6AB;" d="M144.927,427.699c-0.717-3.211-1.877-6.664-3.209-10.028c-0.619-0.707-1.22-1.432-1.82-2.154
					c1.25,3.809,2.794,7.529,3.509,11.4C143.913,427.178,144.408,427.468,144.927,427.699z"/>
				<path style="fill:#FDD6AB;" d="M140.336,421.675c-1.161-3.033-1.982-6.132-2.908-9.229c-2.159-2.777-4.201-5.646-6.16-8.573
					c2.231,5.489,4.261,11.053,5.981,16.732c0.598,1.242,1.222,2.475,1.845,3.705c0.861,0.617,1.743,1.197,2.65,1.732
					C141.395,424.606,140.913,423.175,140.336,421.675z"/>
				<path style="fill:#FDD6AB;" d="M87.079,317.233c-5.071-11.053-9.929-22.202-14.191-33.555c-0.534,1.209-1.466,2.25-2.752,2.861
					c-0.292,0.139-0.588,0.248-0.888,0.333c0.701,2.251,1.38,4.509,2.042,6.77c2.096,7.165,3.978,14.417,5.836,21.681
					c2.737,5.602,5.515,11.186,8.239,16.791c4.332,8.908,8.213,18.018,12.235,27.064c5.323,3.661,9.165,9.406,12.347,14.895
					c0.361,0.624,0.709,1.255,1.06,1.886c-1.394-3.255-2.778-6.513-4.184-9.762C99.836,350.05,93.559,333.599,87.079,317.233z"/>
				<path style="fill:#FDD6AB;" d="M95.943,336.173c3.004,7.619,6.072,15.209,9.325,22.713
					c5.909,13.633,11.823,27.274,17.404,41.048c1.298,2.702,2.683,5.368,4.142,8.005c-3.305-8.591-6.385-17.268-9.244-26.002
					c-0.331-1.016-0.65-2.037-0.97-3.057c-4.191-7.947-8.115-16.037-11.909-24.182C101.813,348.524,98.875,342.356,95.943,336.173z"
					/>
				<path style="fill:#FDD6AB;" d="M63.619,285.355c0.012,0.065,0.025,0.13,0.037,0.194c3.07,7.721,6.509,15.281,10.089,22.779
					c-1.886-7.127-3.853-14.226-6.023-21.253C66.188,287.078,64.705,286.463,63.619,285.355z"/>
				<path style="fill:#FDD6AB;" d="M65.655,276.064c1.443-0.546,2.97-0.469,4.302,0.116c-0.899-2.073-1.795-4.147-2.693-6.22
					c-0.012-0.029-0.024-0.059-0.038-0.086c-0.846-1.543-1.715-3.07-2.613-4.578c-0.815,0.103-1.611,0.291-2.393,0.519
					c-0.021,0.267-0.059,0.532-0.074,0.8C63.389,269.735,64.54,272.892,65.655,276.064z"/>
				<path style="fill:#FDD6AB;" d="M57.575,268.067c0.573,2.005,1.2,3.992,1.853,5.971c-0.291-2.221-0.542-4.443-0.762-6.666
					C58.296,267.595,57.924,267.811,57.575,268.067z"/>
				<path style="fill:#FDD6AB;" d="M62.574,278.849c0.397-0.82,0.998-1.545,1.768-2.103c-0.742-2.118-1.5-4.232-2.298-6.329
					C62.046,273.222,62.238,276.039,62.574,278.849z"/>
				<path style="fill:#FDD6AB;" d="M113.734,361.506c-0.686-2.234-1.367-4.468-2.048-6.706c-1.309-2.529-2.612-5.06-3.904-7.597
					c0.225,0.968,0.468,1.927,0.733,2.876C110.252,353.888,111.98,357.704,113.734,361.506z"/>
				<path style="fill:#FDD6AB;" d="M115.436,362.052c0.638,2.115,1.298,4.221,1.957,6.33c2.581,4.287,5.134,8.589,7.591,12.94
					c0.161,0.284,0.32,0.571,0.482,0.856C122.261,375.399,118.873,368.715,115.436,362.052z"/>
				<path style="fill:#FDD6AB;" d="M148.236,413.479c-3.372-2.212-6.442-4.891-9.256-7.848c0.929,1.945,1.86,3.887,2.786,5.832
					c1.454,3.049,2.95,6.074,4.452,9.098c1.339,1.41,2.725,2.776,4.171,4.063C150.194,420.868,149.406,417.137,148.236,413.479z"/>
				<path style="fill:#FDD6AB;" d="M117.377,361.415c6.579,13.057,12.981,26.203,19.294,39.389c1.743,2.09,3.581,4.095,5.556,5.957
					c1.64,1.547,3.373,3.015,5.194,4.356c-2.518-6.873-6.254-13.441-9.813-19.353C131.329,381.337,124.143,371.519,117.377,361.415z
					"/>
				<path style="fill:#FDD6AB;" d="M100.444,449.966c-1.592-2.498-3.12-5.037-4.576-7.62c-3.521-3.602-6.483-7.853-9.071-11.94
					c-5.325-8.407-9.575-17.369-14.152-26.182c1.975,5.257,3.952,10.512,6.044,15.726c2.475,6.168,5.077,12.542,8.097,18.7
					c0.571,0.846,1.134,1.697,1.719,2.533C92.454,445.956,96.472,449.251,100.444,449.966z"/>
				<path style="fill:#FDD6AB;" d="M76.336,418.018c-3.132-8.012-6.111-16.069-9.211-24.083c-3.188-5.815-6.462-11.709-9.539-17.719
					c2.647,9.747,6.24,19.239,10.445,28.414c3.871,8.451,8.203,16.924,13.081,25.084C79.433,425.831,77.859,421.915,76.336,418.018z
					"/>
				<path style="fill:#FDD6AB;" d="M174.219,402.095c0.031,0.084,0.062,0.168,0.093,0.25c1.113,1.129,2.272,2.205,3.518,3.163
					c-0.075-1.165-0.209-2.462-0.418-3.914c-1.86-12.995-23.979-61.795-34.462-79.276c4.118,13.738,7.911,27.622,13.643,40.566
					C162.392,375.985,169.054,388.716,174.219,402.095z"/>
				<path style="fill:#FDD6AB;" d="M140.181,318.077c-0.314-0.422-0.609-0.799-0.875-1.093c-1.954-2.183-4.824-3.045-8.221-3.314
					c2.269,5.467,4.504,10.939,6.704,16.428c0.776,1.584,1.542,3.173,2.328,4.753c6.252,12.589,12.132,25.409,18.855,37.755
					c0.936,1.723,1.88,3.447,2.819,5.174c-2.357-5.012-4.705-10.029-6.909-15.113C148.716,348.45,144.814,333.096,140.181,318.077z"
					/>
				<path style="fill:#FDD6AB;" d="M112.983,314.104c-0.648-0.017-1.296-0.045-1.94-0.088c1.16,2.709,2.314,5.422,3.444,8.145
					C113.852,319.495,113.328,316.808,112.983,314.104z"/>
				<path style="fill:#FDD6AB;" d="M117.619,339.308c1.783,2.551,3.461,5.173,5.037,7.861c-1.18-3.053-2.299-6.129-3.369-9.222
					c-3.261-8.066-6.646-16.08-10.029-24.097c-1.388-0.158-2.756-0.394-4.092-0.741
					C109.113,321.927,113.309,330.648,117.619,339.308z"/>
				<path style="fill:#FDD6AB;" d="M163.193,420.665l1.895-0.9c-2.1-2.02-4.089-4.152-6.009-6.355
					c-0.03,0.131-0.057,0.263-0.09,0.391C160.408,416.078,161.822,418.358,163.193,420.665z"/>
				<path style="fill:#FDD6AB;" d="M132.308,429.708c-0.595-0.389-1.172-0.806-1.743-1.228c0.032,0.101,0.071,0.201,0.105,0.303
					c0.453,1.396,1.296,3.939,1.724,6.521l2.04-0.969c-0.338-0.7-0.678-1.4-1.011-2.1
					C133.027,431.409,132.663,430.561,132.308,429.708z"/>
				<path style="fill:#FDD6AB;" d="M130.464,424.82c-0.767-0.936-1.488-1.897-2.23-2.849c0.37,0.967,0.732,1.935,1.082,2.909
					c0.564,0.51,1.121,1.032,1.707,1.511C130.832,425.869,130.649,425.345,130.464,424.82z"/>
				<path style="fill:#FDD6AB;" d="M131.322,419.249c-0.638-0.656-1.256-1.331-1.875-2.007c0.885,2.339,1.76,4.681,2.612,7.03
					c0.035,0.098,0.076,0.194,0.112,0.293c0.922,1.09,1.875,2.152,2.832,3.211C133.747,424.947,132.509,422.108,131.322,419.249z"/>
				<path style="fill:#FDD6AB;" d="M122.649,408.907c1.278,2.708,2.487,5.441,3.639,8.195c0.915,1.24,1.844,2.473,2.798,3.682
					c-0.597-1.758-1.198-3.506-1.85-5.21c-0.202-0.522-0.408-1.044-0.61-1.565C125.25,412.353,123.923,410.651,122.649,408.907z"/>
				<path style="fill:#FDD6AB;" d="M156.167,370.53c-4.005-7.47-7.749-15.101-11.451-22.748c2.793,7.266,5.65,14.631,8.764,21.898
					c4.409,9.188,9.279,18.232,15.412,26.299c0.418,0.549,0.844,1.102,1.279,1.654C165.972,388.358,160.976,379.497,156.167,370.53z
					"/>
				<path style="fill:#FDD6AB;" d="M127.863,313.566c4.471,10.829,9.473,21.468,14.447,32.079c-0.395-1.03-0.789-2.061-1.182-3.086
					c-1.541-4.017-3.147-8.004-4.77-11.983c-2.771-5.641-5.496-11.304-8.125-17.01C128.112,313.567,127.99,313.565,127.863,313.566z
					"/>
				<path style="fill:#FDD6AB;" d="M53.904,368.736c-1.486-3.175-2.867-6.384-4.127-9.626c-0.308,10.496,4.984,23.73,11.803,35.626
					c0.77,1.344,1.57,2.799,2.392,4.324C59.907,389.548,56.082,379.226,53.904,368.736z"/>
				<path style="fill:#FDD6AB;" d="M76.4,268.696c8.757,18.281,14.878,37.854,22.723,56.602c2.01,4.027,4.045,8.044,6.074,12.061
					c0.018-1.171,0.115-2.331,0.288-3.482c-2.208-7.713-4.302-15.461-6.197-23.244c-0.501-0.313-0.995-0.645-1.477-1.015
					c-12.176-9.339-13.08-27.524-16.365-34.435C80.126,272.415,78.378,270.283,76.4,268.696z"/>
				<path style="fill:#FDD6AB;" d="M107.07,328.318c0.237-0.524,0.848-0.649,1.258-0.237c1.589,1.598,3.076,3.266,4.51,4.975
					c-3.324-6.785-6.542-13.618-9.569-20.52c-0.74-0.261-1.464-0.573-2.177-0.917c1.607,6.338,3.335,12.649,5.131,18.937
					C106.46,329.8,106.738,329.052,107.07,328.318z"/>
				<path style="fill:#FDD6AB;" d="M83.488,292.448c2.391,5.234,4.796,10.463,7.236,15.674
					c-4.487-11.932-8.815-23.936-14.094-35.477C78.987,279.219,81.24,285.831,83.488,292.448z"/>
				<path style="fill:#FDD6AB;" d="M77.686,279.709c-1.552-4.407-3.136-8.8-4.781-13.171c-0.49-0.217-0.985-0.409-1.485-0.573
					C73.52,270.54,75.603,275.125,77.686,279.709z"/>
				<path style="fill:#FDD6AB;" d="M159.476,411.572c2.232,2.618,4.567,5.143,7.054,7.507l3.638-1.729
					c-0.979-4.231-2.478-8.353-4.188-12.328c-2.921-6.776-6.374-13.304-10.108-19.675c0.932,3.005,1.756,6.038,2.41,9.108
					C159.437,399.876,160.377,405.929,159.476,411.572z"/>
				<path style="fill:#FDD6AB;" d="M140.226,382.402c0.844,1.673,1.724,3.322,2.623,4.96c-6.097-13.982-12.561-27.809-17.463-42.273
					c-2.348-6.932-4.304-13.979-6.16-21.059c-1.607-3.047-3.204-6.103-4.774-9.172c0.759,5.232,2.311,10.44,3.813,15.307
					c0.97,3.142,2.021,6.261,3.112,9.367c2.692,6.883,5.41,13.756,8.156,20.617C133.17,367.56,136.552,375.113,140.226,382.402z"/>
				<path style="fill:#FDD6AB;" d="M152.209,379.289c-2.48-4.004-5.033-7.961-7.613-11.88
					c-8.087-12.277-15.469-24.959-22.437-37.874c1.387,5.016,2.861,10.005,4.563,14.919c5.814,16.787,13.551,32.732,20.401,49.102
					c0.406,0.979,0.811,1.963,1.212,2.946c3.048,4.665,6.307,9.246,9.862,13.565c1.251-10.082-2.494-21.272-5.82-30.34
					C152.323,379.581,152.263,379.435,152.209,379.289z"/>
				<path style="fill:#FDD6AB;" d="M175.505,405.527c0.7,1.899,1.385,3.814,2.019,5.757c0.021,0.026,0.044,0.051,0.067,0.078
					c0.205-1.032,0.329-2.311,0.315-3.924C177.075,406.852,176.282,406.202,175.505,405.527z"/>
				<path style="fill:#FDD6AB;" d="M119.749,320.501c0.232,0.9,0.473,1.799,0.708,2.697c0.737,1.414,1.471,2.83,2.22,4.239
					c7.497,14.127,15.59,27.581,24.312,40.947c0.784,1.202,1.567,2.41,2.347,3.619c-4.507-10.861-9.94-21.364-16.004-31.417
					C129.246,333.809,124.899,326.739,119.749,320.501z"/>
				<path style="fill:#FDD6AB;" d="M171.63,416.655l2.521-1.198c0,0,1.176,0.209,2.212-1.082c-0.248-1.09-0.541-2.174-0.864-3.251
					c-10.129-12.478-17.526-27.008-23.861-41.942c-0.136-0.284-0.276-0.568-0.413-0.855c-4.344-9.074-8.202-18.369-12.515-27.456
					c-4.276-9.011-8.501-18.067-12.333-27.276c-2.624,0.085-5.427,0.302-8.28,0.428c0.276,1.086,0.553,2.172,0.829,3.256
					c4.11,4.683,7.649,9.953,11.004,15.105c6.39,9.814,12.137,20.081,17.084,30.696c2.393,5.136,4.677,10.388,6.649,15.745
					c5.258,8.455,10.181,17.151,13.976,26.324C169.077,408.63,170.606,412.584,171.63,416.655z"/>
				<path style="fill:#FDD6AB;" d="M169.152,398.724c-1.516-1.914-2.941-3.899-4.317-5.918c2.794,4.857,5.842,9.548,9.196,14.012
					c-0.566-1.515-1.157-3.006-1.764-4.431C171.149,401.174,170.105,399.931,169.152,398.724z"/>
				<path style="fill:#FDD6AB;" d="M72.509,400.774c4.689,8.83,8.838,17.948,14.062,26.486c1.831,2.994,3.831,6.144,6.085,9.113
					c-2.931-5.708-5.563-11.57-7.902-17.529c-1.513-3.854-2.936-7.768-4.226-11.728c-3.261-6.428-6.259-12.995-9.187-19.554
					c-5.614-12.584-11.686-24.881-17.698-37.273c-0.019,2.63,0.159,5.264,0.431,7.887c3.305,8.261,6.81,16.444,10.241,24.654
					c1.478,3.536,2.878,7.1,4.258,10.672C69.911,395.942,71.232,398.368,72.509,400.774z"/>
				<path style="fill:#FDD6AB;" d="M61.894,380.889c-2.345-5.565-4.713-11.132-7.016-16.724c0.307,1.797,0.649,3.585,1.042,5.353
					c2.075,4.356,4.313,8.649,6.594,12.891C62.303,381.903,62.108,381.393,61.894,380.889z"/>
				<path style="fill:#FDD6AB;" d="M84.531,394.862c-2.342-4.168-4.662-8.346-6.862-12.589c-0.583-1.123-1.142-2.257-1.707-3.389
					c0.234,2.772,0.62,5.511,1.073,8.134c3.831,9.723,7.658,19.445,12.17,28.884c2.633,5.505,5.488,11.159,8.745,16.575
					c2.193,2.728,4.579,5.309,7.226,7.502c-1.038-4.899-2.705-9.695-4.672-14.353c-3.645-6.359-7.307-12.682-10.404-19.125
					C88.236,402.628,86.384,398.744,84.531,394.862z"/>
				<path style="fill:#FDD6AB;" d="M81.896,406.526c2.383,4.692,4.914,9.302,7.666,13.778c-3.731-7.341-7.055-14.917-10.208-22.58
					C80.119,400.681,80.962,403.618,81.896,406.526z"/>
				<path style="fill:#FDD6AB;" d="M58.77,344.442c1.614,2.127,3.172,4.297,4.637,6.532c-1.326-3.117-2.659-6.23-4.009-9.335
					c-0.428,0.426-0.863,0.852-1.301,1.277C58.318,343.427,58.544,343.935,58.77,344.442z"/>
				<path style="fill:#FDD6AB;" d="M106.219,447.745c-0.028-0.475-0.078-0.946-0.118-1.42c-1.844-2.158-3.565-4.422-5.175-6.748
					c-1.303-1.882-2.541-3.801-3.75-5.736c-2.527-3.097-4.787-6.391-6.851-9.55c-1.835-2.813-3.566-5.69-5.224-8.612
					c0.537,1.404,1.087,2.801,1.653,4.191c3.013,7.385,6.406,14.656,10.312,21.629c2.616,2.64,5.559,4.863,8.897,6.367
					L106.219,447.745z"/>
				<path style="fill:#FDD6AB;" d="M102.749,439.784c0.988,1.374,2.011,2.722,3.074,4.027c-0.072-0.537-0.133-1.077-0.226-1.613
					C104.615,441.448,103.669,440.63,102.749,439.784z"/>
				<path style="fill:#FDD6AB;" d="M68.679,359.704c2.018,3.591,3.92,7.248,5.744,10.928c0.064-0.971,0.172-1.932,0.31-2.888
					c-4.571-9.245-9.306-18.417-13.726-27.734c-0.178,0.181-0.356,0.364-0.535,0.546C63.234,346.923,65.912,353.335,68.679,359.704z
					"/>
				<path style="fill:#FDD6AB;" d="M72.681,360.053c0.848,1.697,1.689,3.397,2.534,5.097c0.3-1.322,0.685-2.619,1.169-3.886
					c-3.949-8.532-7.676-17.175-11.154-25.911c-0.968,1.15-2.01,2.314-3.116,3.492C65.514,345.971,69.15,352.984,72.681,360.053z"/>
				<path style="fill:#FDD6AB;" d="M104.91,433.435c0.818,2.596,1.499,5.228,1.994,7.894c1.002,0.733,2.037,1.41,3.11,2.02
					C108.426,440.003,106.708,436.704,104.91,433.435z"/>
				<path style="fill:#FDD6AB;" d="M78.003,398.567c-0.823-3.113-1.53-6.252-2.107-9.411c-4.505-11.33-8.859-22.718-13.858-33.681
					c-1.577-3.454-3.146-6.926-4.679-10.417c-0.209-0.273-0.404-0.559-0.615-0.831c-0.52,0.496-1.042,0.993-1.576,1.492
					c-0.503,0.47-0.955,0.973-1.381,1.49c0.556,1.145,1.114,2.288,1.674,3.422c5.808,11.775,11.518,23.521,16.868,35.511
					C74.18,390.292,76.057,394.444,78.003,398.567z"/>
				<path style="fill:#FDD6AB;" d="M70.155,369.97c1.577,3.73,3.093,7.485,4.587,11.249c-0.201-1.872-0.357-3.769-0.416-5.671
					c-2.289-4.753-4.456-9.566-6.561-14.409c-1.828-3.291-3.773-6.512-5.844-9.649C64.706,357.632,67.529,363.757,70.155,369.97z"/>
				<path style="fill:#FDD6AB;" d="M99.431,445.581c0.828,1.374,1.672,2.738,2.541,4.083c0.018,0.024,0.035,0.052,0.053,0.076
					l2.213-1.053C102.54,447.814,100.935,446.772,99.431,445.581z"/>
				<path style="fill:#FDD6AB;" d="M95.986,404.901c-6.722-12.572-12.547-25.316-17.281-38.721
					c-0.475-0.997-0.959-1.988-1.426-2.988c-0.423,1.328-0.781,2.678-1.017,4.063c6.604,13.322,13.187,26.637,20.706,39.467
					C96.64,406.116,96.31,405.506,95.986,404.901z"/>
				<path style="fill:#FDD6AB;" d="M112.722,430.623c-1.865-3.985-3.619-7.991-5.268-11.975c-0.325-0.783-0.646-1.579-0.969-2.37
					c-2.501-3.547-4.856-7.215-7.123-10.938c1.52,3.927,3.108,7.825,4.804,11.675c1.2,2.27,2.376,4.557,3.525,6.855
					c1.599,2.388,3.279,4.77,5.096,7.013C112.766,430.795,112.746,430.71,112.722,430.623z"/>
				<path style="fill:#FDD6AB;" d="M95.197,398.257c-2.936-5.186-5.703-10.438-8.373-15.646c3.277,7.501,6.873,14.858,10.779,22.165
					C96.778,402.612,95.984,400.436,95.197,398.257z"/>
				<path style="fill:#FDD6AB;" d="M50.605,353.463c-0.205,0.737-0.384,1.486-0.511,2.265c0.858,2.378,1.789,4.738,2.784,7.08
					c-0.234-1.633-0.404-3.267-0.537-4.898C51.753,356.431,51.177,354.946,50.605,353.463z"/>
			</g>
			<path style="opacity:0.3;fill:#F5D09B;" d="M162.101,406.498l-57.189,27.183c-3.873,1.842-8.394,0.457-10.078-3.086
				l-31.039-65.302c-1.685-3.544,0.097-7.924,3.972-9.765l57.188-27.183c3.873-1.841,8.395-0.457,10.08,3.086l31.037,65.302
				C167.756,400.276,165.976,404.656,162.101,406.498z M69.04,358.211c-2.396,1.138-3.547,3.744-2.565,5.808l31.039,65.303
				c0.98,2.063,3.728,2.815,6.122,1.677l57.19-27.183c2.395-1.139,3.546-3.744,2.564-5.807l-31.039-65.303
				c-0.98-2.063-3.728-2.816-6.123-1.678L69.04,358.211z"/>
		</g>
		<g>
			<g>
				<path style="fill:#35465A;" d="M191.122,71.247c0,2.203-1.785,3.991-3.991,3.991h-19.869c-2.202,0-3.991-1.788-3.991-3.991
					v-1.002c0-2.205,1.789-3.992,3.991-3.992h19.869c2.206,0,3.991,1.787,3.991,3.992V71.247z"/>
				<path style="fill:#35465A;" d="M342.181,71.247c0,2.203-1.787,3.991-3.992,3.991h-19.87c-2.204,0-3.992-1.788-3.992-3.991
					v-1.002c0-2.205,1.788-3.992,3.992-3.992h19.87c2.205,0,3.992,1.787,3.992,3.992V71.247z"/>
				<g>
					<path style="fill:#FBB03B;" d="M318.318,143.129c0,2.205-1.788,3.993-3.992,3.993H191.122c-2.202,0-3.991-1.788-3.991-3.993
						V60.361c0-2.205,1.789-3.992,3.991-3.992h123.205c2.204,0,3.992,1.788,3.992,3.992V143.129z"/>
					<path style="fill:#C79040;" d="M318.318,143.129c0,2.205-1.788,3.993-3.992,3.993H191.122c-2.202,0-3.991-1.788-3.991-3.993
						v-14.877c0-2.204,0-3.993,0-3.993h131.188c0,0,0,1.788,0,3.993V143.129z"/>
					<path style="opacity:0.3;fill:#EC9D1C;" d="M255.667,114.18c-24.301-14.787-51.919-32.07-65.909-57.694
						c-1.764,0.416-3.077,1.988-3.077,3.876v82.768c0,2.205,1.787,3.993,3.992,3.993h123.205c2.202,0,3.991-1.788,3.991-3.993
						v-5.496C296.108,134.182,275.362,126.163,255.667,114.18z"/>
				</g>
				<path style="fill:#35465A;" d="M182.095,58.714c2.906-3.633,59.396-16.273,70.629-16.273c11.231,0,68.313,13.51,69.279,14.698
					C326.27,62.39,180.059,61.258,182.095,58.714z"/>
			</g>
			<path style="fill:#35465A;" d="M251.472,29.896c-11.102,0-20.101,6.262-20.101,13.984c0,7.724,8.999,13.985,20.101,13.985
				c11.1,0,20.096-6.261,20.096-13.985C271.567,36.158,262.571,29.896,251.472,29.896z M251.472,56.255
				c-9.823,0-17.788-5.542-17.788-12.375c0-6.833,7.965-12.374,17.788-12.374c9.821,0,17.781,5.541,17.781,12.374
				C269.253,50.714,261.293,56.255,251.472,56.255z"/>
		</g>
		<g>
			<g>
				<g>
					<path style="fill:#E1435A;" d="M372.055,223.839c10.908,3.725,25.835-52.509,26.849-59.855
						c1.012-7.347,8.563-34.471,8.563-34.471l-5.738-1.96c0,0-11.366,23.898-18.121,38.047
						C376.852,179.747,361.146,220.114,372.055,223.839z M376.743,208.078c1.776,0.607,2.42,3.439,1.432,6.326
						c-0.984,2.889-3.225,4.736-5.003,4.129c-1.777-0.607-2.418-3.439-1.432-6.327C372.727,209.319,374.965,207.471,376.743,208.078
						z"/>
					
						<rect x="401.16" y="122.112" transform="matrix(0.3231 -0.9464 0.9464 0.3231 154.4629 469.4873)" style="fill:#FBB03B;" width="8.533" height="9.309"/>
				</g>
				<path style="opacity:0.3;fill:#8D294F;" d="M399.675,129.311l1.046,0.356c-0.355,0.744-0.794,1.668-1.302,2.731
					c-1.206,13.132-4.146,26.052-8.624,38.895c-4.332,12.428-9.384,24.592-13.554,37.05c1.384,0.931,1.82,3.467,0.934,6.06
					c-0.828,2.425-2.537,4.096-4.117,4.216c-0.499,1.777-0.979,3.559-1.427,5.355c10.853,1.626,25.277-52.774,26.272-59.992
					c0.835-6.063,6.121-25.583,7.943-32.224l1.606,0.549l2.757-8.076l-8.81-3.008l-2.714,7.948
					C399.684,129.22,399.678,129.265,399.675,129.311z"/>
			</g>
			<g>
				<g>
					<path style="fill:#E1435A;" d="M463.043,97.869c-8.029,23.517-33.603,36.072-57.119,28.042
						c-23.518-8.029-36.071-33.603-28.042-57.12c8.03-23.517,33.603-36.072,57.12-28.042
						C458.519,48.779,471.073,74.353,463.043,97.869z"/>
				</g>
				<g>
					<path style="fill:#554953;" d="M462.044,97.527c-7.842,22.965-32.815,35.225-55.779,27.384
						c-22.965-7.841-35.225-32.814-27.384-55.779c7.842-22.964,32.815-35.225,55.779-27.383
						C457.625,49.59,469.885,74.563,462.044,97.527z"/>
				</g>
				<g>
					<path style="fill:#2F3C4C;" d="M447.951,92.716c-5.184,15.181-21.693,23.286-36.875,18.103
						c-15.181-5.184-23.285-21.693-18.103-36.875c5.185-15.181,21.694-23.286,36.875-18.103
						C445.03,61.025,453.135,77.534,447.951,92.716z"/>
				</g>
				<g style="opacity:0.3;">
					<path style="fill:#40373C;" d="M444.201,118.567c-14.131,1.04-29.35-1.515-38.432-13.866
						c-6.505-8.846-11.053-18.771-12.338-29.774c-1.096-9.395-0.16-18.913,2.43-27.998c-7.662,5.169-13.764,12.783-16.98,22.203
						c-7.841,22.965,4.419,47.938,27.384,55.779c14.521,4.958,29.837,1.873,41.127-6.867
						C446.36,118.302,445.298,118.486,444.201,118.567z"/>
				</g>
			</g>
		</g>
		<g>
			<g>
				<g>
					<path style="fill:#E1435A;" d="M337.643,162.49c-6.284,10.168-16.917,27.314-16.917,27.314l3.625,2.872
						c0,0,14.276-16.031,18.567-19.712c4.293-3.68,34.189-36.449,27.299-41.907C363.33,125.6,343.928,152.322,337.643,162.49z
						 M362.629,135.653c1.446-1.824,3.525-2.581,4.648-1.691c1.122,0.889,0.861,3.087-0.583,4.912
						c-1.444,1.823-3.525,2.58-4.647,1.69C360.924,139.675,361.185,137.477,362.629,135.653z"/>
					
						<rect x="318.496" y="188.951" transform="matrix(0.621 -0.7838 0.7838 0.621 -28.9427 325.1426)" style="fill:#FBB03B;" width="6.506" height="7.098"/>
				</g>
				<path style="opacity:0.3;fill:#8D294F;" d="M321.007,187.763l0.66,0.523c0.331-0.534,0.741-1.196,1.215-1.96
					c7.923-6.191,14.991-13.406,21.378-21.576c6.182-7.906,11.896-16.163,18.162-23.977c1.17,0.504,2.975-0.262,4.272-1.9
					c1.213-1.531,1.579-3.317,1.003-4.38c0.934-1.053,1.878-2.097,2.847-3.123c5.519,6.287-23.408,37.978-27.626,41.593
					c-3.541,3.038-13.876,14.48-17.382,18.387l1.015,0.804l-4.041,5.1l-5.563-4.407l3.977-5.019
					C320.951,187.806,320.978,187.784,321.007,187.763z"/>
			</g>
			<g>
				<g>
					<path style="fill:#E1435A;" d="M326.991,241.363c11.765-14.852,9.265-36.426-5.587-48.191
						c-14.85-11.765-36.425-9.263-48.19,5.587c-11.766,14.85-9.264,36.425,5.586,48.19
						C293.65,258.714,315.227,256.212,326.991,241.363z"/>
				</g>
				<g>
					<path style="fill:#554953;" d="M326.36,240.863c11.488-14.502,9.046-35.572-5.456-47.06
						c-14.502-11.489-35.57-9.047-47.059,5.455c-11.489,14.501-9.047,35.57,5.455,47.06
						C293.803,257.806,314.871,255.363,326.36,240.863z"/>
				</g>
				<g>
					<path style="fill:#2F3C4C;" d="M317.461,233.812c7.595-9.587,5.98-23.516-3.606-31.11c-9.587-7.595-23.515-5.98-31.11,3.606
						c-7.595,9.587-5.98,23.516,3.607,31.11C295.938,245.013,309.867,243.398,317.461,233.812z"/>
				</g>
				<g style="opacity:0.3;">
					<path style="fill:#40373C;" d="M332.488,220.743c-5.162-9.488-13.079-18.191-24.744-18.919
						c-8.355-0.521-16.596,0.657-24.181,4.372c-6.476,3.172-12.191,7.701-16.949,13.108c0.153-7.044,2.518-14.097,7.231-20.045
						c11.488-14.502,32.557-16.944,47.059-5.455c9.17,7.264,13.511,18.357,12.564,29.201
						C333.209,222.236,332.889,221.48,332.488,220.743z"/>
				</g>
			</g>
		</g>
	</g>
</g>
<g id="DESIGNED_BY_FREEPIK">
	<g style="opacity:0.4;">
		<g>
			<path style="fill:#554953;" d="M175.869,467.947c-0.14-0.17-0.34-0.25-0.61-0.25c-0.27,0-0.47,0.09-0.62,0.27
				c-0.14,0.19-0.21,0.46-0.21,0.82v2.6c-0.33-0.359-0.67-0.63-1.02-0.81c-0.35-0.17-0.77-0.26-1.28-0.26
				c-0.87,0-1.58,0.31-2.12,0.92c-0.53,0.62-0.8,1.47-0.8,2.57c0,0.52,0.07,1,0.2,1.449c0.14,0.45,0.33,0.841,0.6,1.17
				c0.26,0.33,0.57,0.58,0.93,0.761c0.35,0.18,0.74,0.27,1.16,0.27c0.32,0,0.62-0.05,0.88-0.14c0.27-0.08,0.52-0.21,0.75-0.38
				c0.23-0.17,0.46-0.391,0.7-0.66v0.17c0,0.32,0.08,0.57,0.23,0.75c0.16,0.17,0.36,0.26,0.6,0.26c0.24,0,0.44-0.09,0.6-0.25
				c0.15-0.17,0.23-0.42,0.23-0.76v-7.75C176.089,468.367,176.019,468.117,175.869,467.947z M174.099,475.117
				c-0.15,0.33-0.35,0.58-0.61,0.74c-0.25,0.16-0.54,0.24-0.84,0.24c-0.31,0-0.59-0.091-0.85-0.261c-0.26-0.17-0.46-0.42-0.61-0.75
				c-0.14-0.34-0.22-0.739-0.22-1.22c0-0.45,0.07-0.85,0.21-1.19c0.14-0.34,0.34-0.6,0.59-0.779c0.25-0.181,0.54-0.28,0.86-0.28
				c0.31,0,0.6,0.09,0.86,0.27c0.26,0.181,0.46,0.44,0.61,0.771c0.16,0.34,0.23,0.74,0.23,1.21
				C174.329,474.367,174.259,474.777,174.099,475.117z"/>
			<path style="fill:#554953;" d="M182.919,475.037c-0.17,0-0.3,0.04-0.39,0.12c-0.22,0.2-0.4,0.37-0.53,0.49
				c-0.14,0.12-0.29,0.23-0.45,0.34c-0.17,0.1-0.33,0.18-0.51,0.229c-0.17,0.051-0.36,0.07-0.57,0.07c-0.32,0-0.6-0.08-0.86-0.23
				c-0.26-0.15-0.47-0.381-0.63-0.69c-0.16-0.3-0.24-0.66-0.24-1.05h3.44c0.46,0,0.81-0.07,1.07-0.2c0.25-0.13,0.38-0.42,0.38-0.86
				c0-0.479-0.13-0.939-0.37-1.399c-0.24-0.46-0.61-0.84-1.11-1.13c-0.49-0.29-1.08-0.431-1.76-0.431c-0.53,0-1.01,0.08-1.44,0.25
				c-0.44,0.17-0.8,0.42-1.1,0.73c-0.29,0.32-0.52,0.7-0.67,1.149c-0.16,0.44-0.24,0.921-0.24,1.44c0,1.1,0.32,1.98,0.94,2.62
				c0.63,0.64,1.51,0.97,2.64,0.97c0.49,0,0.93-0.07,1.31-0.2c0.38-0.13,0.69-0.29,0.94-0.479c0.25-0.2,0.44-0.4,0.57-0.61
				c0.12-0.22,0.18-0.399,0.18-0.56c0-0.181-0.05-0.32-0.16-0.42C183.239,475.087,183.099,475.037,182.919,475.037z
				 M179.249,471.967c0.28-0.3,0.64-0.449,1.08-0.449c0.46,0,0.83,0.149,1.11,0.449c0.28,0.301,0.44,0.75,0.49,1.351h-3.19
				C178.799,472.728,178.969,472.277,179.249,471.967z"/>
			<path style="fill:#554953;" d="M189.919,474.297c-0.18-0.25-0.44-0.47-0.79-0.649c-0.34-0.19-0.79-0.351-1.33-0.48
				c-0.46-0.109-0.82-0.21-1.08-0.28c-0.27-0.079-0.47-0.18-0.63-0.3c-0.15-0.109-0.23-0.27-0.23-0.45c0-0.199,0.1-0.369,0.31-0.51
				c0.22-0.13,0.48-0.2,0.8-0.2c0.31,0,0.55,0.051,0.73,0.16c0.18,0.101,0.34,0.24,0.47,0.41c0.16,0.2,0.31,0.36,0.43,0.46
				c0.13,0.101,0.28,0.16,0.46,0.16c0.25,0,0.45-0.07,0.58-0.2c0.14-0.13,0.2-0.29,0.2-0.49c0-0.189-0.06-0.38-0.19-0.569
				c-0.12-0.19-0.31-0.37-0.55-0.53c-0.24-0.16-0.54-0.28-0.91-0.38c-0.36-0.09-0.77-0.14-1.22-0.14c-0.58,0-1.08,0.09-1.49,0.279
				c-0.41,0.19-0.72,0.44-0.93,0.75c-0.21,0.311-0.31,0.65-0.31,1c0,0.391,0.11,0.73,0.34,1c0.23,0.27,0.53,0.49,0.91,0.65
				c0.38,0.16,0.87,0.32,1.48,0.47c0.53,0.13,0.92,0.271,1.15,0.41c0.24,0.14,0.35,0.37,0.35,0.67c0,0.21-0.11,0.38-0.33,0.54
				c-0.23,0.16-0.52,0.24-0.87,0.24c-0.43,0-0.78-0.08-1.03-0.23c-0.25-0.16-0.46-0.39-0.65-0.71c-0.08-0.16-0.18-0.29-0.28-0.38
				c-0.1-0.09-0.24-0.13-0.42-0.13c-0.21,0-0.39,0.07-0.52,0.2c-0.14,0.14-0.21,0.31-0.21,0.5c0,0.29,0.11,0.58,0.32,0.87
				c0.22,0.29,0.55,0.529,1,0.729c0.45,0.19,0.99,0.29,1.62,0.29c0.66,0,1.22-0.09,1.68-0.27c0.47-0.181,0.82-0.44,1.05-0.79
				c0.24-0.34,0.35-0.761,0.35-1.24C190.179,474.837,190.099,474.547,189.919,474.297z"/>
			<path style="fill:#554953;" d="M192.599,470.577c-0.17-0.18-0.38-0.27-0.64-0.27c-0.26,0-0.47,0.09-0.63,0.27
				c-0.16,0.17-0.24,0.43-0.24,0.78v5.029c0,0.341,0.08,0.601,0.24,0.79c0.16,0.181,0.37,0.28,0.63,0.28c0.26,0,0.47-0.09,0.64-0.27
				c0.17-0.181,0.25-0.45,0.25-0.801v-5.079C192.849,470.997,192.769,470.747,192.599,470.577z M192.579,467.987
				c-0.17-0.14-0.37-0.22-0.6-0.22c-0.24,0-0.44,0.08-0.62,0.25c-0.18,0.159-0.27,0.359-0.27,0.609c0,0.28,0.09,0.49,0.26,0.641
				c0.18,0.149,0.39,0.22,0.63,0.22c0.24,0,0.44-0.07,0.61-0.22c0.17-0.16,0.26-0.37,0.26-0.641
				C192.849,468.348,192.759,468.137,192.579,467.987z"/>
			<path style="fill:#554953;" d="M200.379,470.637c-0.11-0.22-0.34-0.329-0.68-0.329c-0.23,0-0.43,0.09-0.58,0.25
				c-0.15,0.17-0.22,0.409-0.22,0.71v0.239c-0.31-0.409-0.65-0.71-1.02-0.899c-0.36-0.19-0.79-0.29-1.29-0.29
				c-0.42,0-0.8,0.08-1.15,0.229c-0.35,0.141-0.65,0.36-0.92,0.66c-0.26,0.29-0.47,0.65-0.61,1.07c-0.15,0.43-0.22,0.899-0.22,1.43
				c0,0.71,0.12,1.33,0.36,1.87c0.23,0.54,0.57,0.96,1.01,1.26c0.44,0.311,0.95,0.46,1.54,0.46c0.49,0,0.91-0.1,1.27-0.3
				c0.35-0.2,0.66-0.49,0.93-0.86c-0.01,0.57-0.02,0.99-0.04,1.25c-0.01,0.261-0.07,0.5-0.17,0.73c-0.1,0.23-0.28,0.4-0.53,0.53
				c-0.25,0.13-0.6,0.189-1.06,0.189c-0.22,0-0.42-0.02-0.59-0.06c-0.17-0.04-0.32-0.101-0.44-0.19c-0.12-0.08-0.24-0.18-0.34-0.3
				c-0.1-0.12-0.2-0.24-0.29-0.35c-0.19-0.23-0.42-0.34-0.68-0.34c-0.2,0-0.38,0.069-0.52,0.199c-0.15,0.141-0.22,0.31-0.22,0.53
				c0,0.28,0.13,0.55,0.38,0.82c0.26,0.27,0.63,0.489,1.1,0.66c0.48,0.17,1.02,0.25,1.63,0.25c0.66,0,1.21-0.06,1.65-0.2
				c0.45-0.13,0.81-0.33,1.08-0.61c0.28-0.27,0.48-0.62,0.6-1.04c0.12-0.42,0.19-0.92,0.19-1.51v-5.1
				C200.549,471.177,200.489,470.857,200.379,470.637z M198.589,475.047c-0.16,0.31-0.37,0.551-0.63,0.7
				c-0.26,0.16-0.54,0.24-0.83,0.24c-0.49,0-0.9-0.18-1.21-0.55c-0.31-0.36-0.46-0.9-0.46-1.61c0-0.71,0.15-1.25,0.45-1.63
				c0.3-0.38,0.7-0.58,1.21-0.58c0.51,0,0.93,0.2,1.24,0.6c0.32,0.4,0.48,0.96,0.48,1.681
				C198.839,474.348,198.749,474.728,198.589,475.047z"/>
			<path style="fill:#554953;" d="M207.899,472.157c-0.03-0.24-0.11-0.48-0.22-0.69c-0.18-0.369-0.45-0.649-0.82-0.859
				c-0.36-0.2-0.78-0.3-1.24-0.3c-0.48,0-0.9,0.1-1.27,0.29c-0.1,0.05-0.19,0.109-0.29,0.18c-0.25,0.18-0.49,0.42-0.72,0.72v-0.22
				c0-0.21-0.04-0.391-0.11-0.53c-0.08-0.149-0.18-0.26-0.3-0.33c-0.13-0.069-0.27-0.109-0.42-0.109c-0.25,0-0.45,0.079-0.6,0.25
				c-0.15,0.159-0.22,0.409-0.22,0.75v5.079c0,0.341,0.08,0.601,0.25,0.79c0.16,0.181,0.37,0.28,0.62,0.28
				c0.26,0,0.48-0.09,0.64-0.27c0.17-0.181,0.25-0.45,0.25-0.801v-2.199c0-0.721,0.04-1.21,0.13-1.471
				c0.12-0.33,0.31-0.58,0.56-0.77c0.26-0.19,0.55-0.28,0.86-0.28c0.48,0,0.8,0.15,0.96,0.46c0.16,0.31,0.24,0.75,0.24,1.33v2.93
				c0,0.341,0.09,0.601,0.25,0.79c0.16,0.181,0.37,0.28,0.64,0.28c0.25,0,0.46-0.09,0.62-0.27c0.17-0.181,0.25-0.45,0.25-0.801
				v-3.27C207.959,472.728,207.939,472.407,207.899,472.157z"/>
			<path style="fill:#554953;" d="M214.769,475.037c-0.17,0-0.29,0.04-0.38,0.12c-0.22,0.2-0.4,0.37-0.54,0.49
				c-0.14,0.12-0.29,0.23-0.45,0.34c-0.16,0.1-0.33,0.18-0.5,0.229c-0.17,0.051-0.35,0.07-0.55,0.07h-0.01c-0.01,0-0.01,0-0.02,0
				c-0.31,0-0.6-0.08-0.86-0.23c-0.26-0.15-0.47-0.381-0.62-0.69c-0.03-0.06-0.06-0.11-0.08-0.17v-0.01
				c-0.11-0.261-0.16-0.56-0.17-0.87h3.44c0.46,0,0.82-0.07,1.07-0.2c0.25-0.13,0.38-0.42,0.38-0.86c0-0.479-0.12-0.939-0.37-1.399
				c-0.24-0.46-0.61-0.84-1.1-1.13c-0.49-0.29-1.08-0.431-1.77-0.431c-0.53,0-1.01,0.08-1.44,0.25c-0.43,0.17-0.8,0.42-1.09,0.73
				c-0.3,0.32-0.53,0.7-0.68,1.149c-0.15,0.44-0.23,0.921-0.23,1.44c0,1.1,0.31,1.98,0.94,2.62c0.62,0.64,1.5,0.97,2.63,0.97
				c0.49,0,0.93-0.07,1.31-0.2c0.01,0,0.03-0.01,0.04-0.01c0.36-0.13,0.66-0.29,0.91-0.47c0.25-0.2,0.43-0.4,0.56-0.61
				c0.12-0.22,0.19-0.399,0.19-0.56c0-0.181-0.06-0.32-0.17-0.42C215.099,475.087,214.949,475.037,214.769,475.037z
				 M211.109,471.967c0.28-0.3,0.64-0.449,1.07-0.449c0.46,0,0.83,0.149,1.11,0.449c0.29,0.301,0.45,0.75,0.49,1.351h-3.19
				C210.649,472.728,210.819,472.277,211.109,471.967z"/>
			<path style="fill:#554953;" d="M222.639,467.947c-0.14-0.17-0.35-0.25-0.61-0.25c-0.271,0-0.48,0.09-0.62,0.27
				c-0.14,0.19-0.22,0.46-0.22,0.82v2.6c-0.33-0.359-0.66-0.63-1.01-0.81c-0.35-0.17-0.78-0.26-1.28-0.26
				c-0.88,0-1.58,0.31-2.12,0.92c-0.54,0.62-0.81,1.47-0.81,2.57c0,0.52,0.07,1,0.21,1.449c0.13,0.45,0.33,0.841,0.59,1.17
				c0.26,0.33,0.57,0.58,0.93,0.761c0.36,0.18,0.75,0.27,1.17,0.27c0.32,0,0.61-0.05,0.88-0.14c0.27-0.08,0.52-0.21,0.75-0.38
				c0.23-0.17,0.46-0.391,0.69-0.66v0.17c0,0.32,0.08,0.57,0.24,0.75c0.16,0.17,0.35,0.26,0.6,0.26c0.24,0,0.44-0.09,0.59-0.25
				c0.16-0.17,0.24-0.42,0.24-0.76v-7.75C222.859,468.367,222.779,468.117,222.639,467.947z M220.869,475.117
				c-0.15,0.33-0.36,0.58-0.61,0.74c-0.26,0.16-0.54,0.24-0.85,0.24c-0.3,0-0.58-0.091-0.84-0.261c-0.26-0.17-0.46-0.42-0.61-0.75
				c-0.15-0.34-0.22-0.739-0.22-1.22c0-0.45,0.07-0.85,0.21-1.19c0.14-0.34,0.33-0.6,0.59-0.779c0.25-0.181,0.54-0.28,0.86-0.28
				c0.31,0,0.59,0.09,0.85,0.27c0.26,0.181,0.47,0.44,0.62,0.771c0.15,0.34,0.23,0.74,0.23,1.21
				C221.099,474.367,221.019,474.777,220.869,475.117z"/>
			<path style="fill:#554953;" d="M233.219,471.938c-0.24-0.521-0.58-0.92-1.02-1.2c-0.44-0.28-0.95-0.42-1.54-0.42
				c-0.5,0-0.93,0.1-1.27,0.28c-0.35,0.18-0.68,0.439-1.01,0.789v-2.689c0-0.32-0.08-0.57-0.22-0.74c-0.15-0.18-0.36-0.26-0.63-0.26
				c-0.25,0-0.45,0.09-0.6,0.27c-0.14,0.181-0.21,0.45-0.21,0.811v7.67c0,0.33,0.07,0.58,0.22,0.75c0.15,0.17,0.34,0.26,0.59,0.26
				s0.45-0.09,0.61-0.26c0.16-0.17,0.24-0.42,0.24-0.75v-0.17c0.19,0.22,0.35,0.39,0.46,0.5c0.12,0.109,0.26,0.22,0.43,0.33
				c0.17,0.1,0.37,0.19,0.61,0.25c0.24,0.06,0.49,0.1,0.76,0.1c0.44,0,0.85-0.09,1.22-0.27c0.36-0.181,0.68-0.431,0.93-0.761
				c0.26-0.319,0.46-0.71,0.59-1.149c0.14-0.45,0.2-0.93,0.2-1.47C233.579,473.087,233.459,472.467,233.219,471.938z
				 M231.339,475.518c-0.32,0.39-0.7,0.58-1.14,0.58c-0.52,0-0.94-0.19-1.26-0.57c-0.32-0.37-0.48-0.91-0.48-1.61
				c0-0.47,0.08-0.89,0.23-1.229c0.15-0.351,0.35-0.61,0.61-0.79c0.27-0.181,0.56-0.28,0.9-0.28c0.32,0,0.61,0.1,0.85,0.28
				c0.25,0.18,0.44,0.439,0.57,0.77c0.13,0.34,0.2,0.74,0.2,1.2C231.819,474.587,231.659,475.137,231.339,475.518z"/>
			<path style="fill:#554953;" d="M240.009,470.697c-0.07-0.12-0.16-0.21-0.28-0.28c-0.12-0.069-0.25-0.109-0.38-0.109
				c-0.19,0-0.33,0.029-0.43,0.1c-0.1,0.06-0.2,0.19-0.29,0.37c-0.09,0.189-0.19,0.439-0.3,0.77l-1.41,4.021l-1.49-4.33
				c-0.1-0.3-0.21-0.53-0.34-0.69c-0.13-0.16-0.32-0.239-0.57-0.239c-0.15,0-0.29,0.04-0.42,0.119c-0.14,0.07-0.25,0.181-0.32,0.311
				c-0.08,0.12-0.12,0.26-0.12,0.41c0,0.149,0.07,0.37,0.2,0.689l2.16,5.44l-0.16,0.399c-0.12,0.28-0.22,0.5-0.32,0.65
				c-0.09,0.15-0.19,0.25-0.31,0.31c-0.11,0.061-0.27,0.091-0.47,0.091c-0.09,0-0.18-0.011-0.29-0.04
				c-0.09-0.021-0.19-0.04-0.28-0.04c-0.24,0-0.42,0.06-0.54,0.17c-0.13,0.109-0.19,0.26-0.19,0.46c0,0.3,0.13,0.5,0.39,0.62
				c0.26,0.109,0.64,0.16,1.16,0.16c0.521,0,0.94-0.08,1.25-0.24c0.32-0.16,0.57-0.391,0.75-0.69c0.19-0.3,0.39-0.71,0.58-1.24
				l2.3-6c0.05-0.159,0.1-0.31,0.14-0.46c0.039-0.149,0.06-0.27,0.08-0.35C240.109,470.947,240.079,470.817,240.009,470.697z"/>
		</g>
		<g>
			<path style="fill:#554953;" d="M261.319,470.46h0.419v-0.527c0-0.552,0.067-0.987,0.207-1.313c0.139-0.324,0.377-0.56,0.71-0.708
				c0.332-0.148,0.788-0.222,1.367-0.222c1.029,0,1.54,0.249,1.54,0.755c0,0.162-0.054,0.302-0.163,0.417
				c-0.104,0.115-0.232,0.174-0.378,0.174c-0.067,0-0.188-0.013-0.357-0.04c-0.161-0.022-0.307-0.038-0.422-0.038
				c-0.317,0-0.52,0.096-0.614,0.281c-0.086,0.187-0.132,0.453-0.132,0.803v0.418h0.429c0.672,0,1.004,0.201,1.004,0.607
				c0,0.284-0.086,0.468-0.267,0.545c-0.177,0.078-0.423,0.116-0.737,0.116h-0.429v4.656c0,0.347-0.082,0.61-0.25,0.792
				c-0.164,0.185-0.376,0.275-0.639,0.275c-0.249,0-0.455-0.091-0.622-0.275c-0.166-0.182-0.247-0.445-0.247-0.792v-4.656h-0.484
				c-0.263,0-0.462-0.057-0.605-0.178c-0.142-0.115-0.213-0.271-0.213-0.459C260.435,470.669,260.73,470.46,261.319,470.46
				L261.319,470.46z"/>
			<path style="fill:#554953;" d="M267.072,474.916v1.469c0,0.355-0.09,0.623-0.253,0.8c-0.168,0.18-0.379,0.267-0.636,0.267
				c-0.259,0-0.466-0.089-0.628-0.271c-0.16-0.179-0.244-0.444-0.244-0.796v-4.895c0-0.79,0.284-1.186,0.854-1.186
				c0.294,0,0.503,0.092,0.633,0.276c0.128,0.186,0.199,0.457,0.215,0.819c0.208-0.362,0.423-0.634,0.643-0.819
				c0.225-0.185,0.517-0.276,0.888-0.276c0.372,0,0.727,0.092,1.074,0.276c0.349,0.186,0.522,0.432,0.522,0.735
				c0,0.214-0.075,0.394-0.221,0.53c-0.149,0.142-0.308,0.211-0.479,0.211c-0.067,0-0.225-0.043-0.47-0.122
				c-0.247-0.077-0.467-0.117-0.652-0.117c-0.258,0-0.47,0.069-0.632,0.202c-0.164,0.139-0.291,0.337-0.382,0.601
				c-0.088,0.268-0.148,0.587-0.185,0.952C267.088,473.94,267.072,474.389,267.072,474.916L267.072,474.916z"/>
			<path style="fill:#554953;" d="M275.889,475.037c-0.16,0-0.29,0.04-0.38,0.12c-0.22,0.2-0.399,0.37-0.54,0.479
				c-0.14,0.131-0.279,0.24-0.449,0.341c-0.16,0.109-0.33,0.189-0.5,0.229c-0.181,0.061-0.37,0.08-0.58,0.08
				c-0.311,0-0.601-0.08-0.86-0.23c-0.26-0.16-0.47-0.391-0.63-0.69c-0.15-0.3-0.23-0.66-0.24-1.06h3.44
				c0.46,0,0.819-0.06,1.069-0.19c0.25-0.14,0.38-0.42,0.38-0.86c0-0.479-0.12-0.939-0.37-1.409c-0.239-0.461-0.609-0.83-1.1-1.12
				c-0.49-0.29-1.08-0.431-1.77-0.431c-0.53,0-1.011,0.08-1.44,0.25c-0.43,0.17-0.8,0.41-1.09,0.73c-0.3,0.32-0.53,0.7-0.68,1.14
				c-0.16,0.45-0.23,0.931-0.23,1.45c0,1.1,0.31,1.98,0.94,2.62c0.619,0.64,1.5,0.96,2.63,0.96c0.489,0,0.93-0.061,1.31-0.19
				c0.38-0.13,0.7-0.29,0.95-0.479c0.25-0.2,0.44-0.4,0.57-0.62c0.12-0.21,0.18-0.39,0.18-0.55c0-0.181-0.06-0.32-0.17-0.42
				C276.219,475.087,276.069,475.037,275.889,475.037z M272.228,471.967c0.28-0.3,0.641-0.449,1.07-0.449
				c0.471,0,0.83,0.149,1.12,0.449c0.28,0.29,0.44,0.74,0.48,1.341h-3.19C271.77,472.717,271.939,472.277,272.228,471.967z"/>
			<path style="fill:#554953;" d="M283.199,475.037c-0.16,0-0.29,0.04-0.38,0.12c-0.221,0.2-0.4,0.37-0.54,0.479
				c-0.141,0.131-0.28,0.24-0.45,0.341c-0.16,0.109-0.33,0.189-0.51,0.229c-0.17,0.061-0.36,0.08-0.57,0.08
				c-0.31,0-0.6-0.08-0.86-0.23c-0.26-0.16-0.47-0.391-0.619-0.69c-0.16-0.3-0.24-0.66-0.25-1.06h3.44c0.46,0,0.82-0.06,1.07-0.19
				c0.25-0.14,0.38-0.42,0.38-0.86c0-0.479-0.12-0.939-0.37-1.409c-0.24-0.461-0.61-0.83-1.1-1.12c-0.5-0.29-1.08-0.431-1.771-0.431
				c-0.53,0-1.01,0.08-1.44,0.25c-0.439,0.17-0.8,0.41-1.09,0.73c-0.3,0.32-0.529,0.7-0.68,1.14c-0.16,0.45-0.24,0.931-0.24,1.45
				c0,1.1,0.32,1.98,0.95,2.62c0.62,0.64,1.5,0.96,2.63,0.96c0.49,0,0.93-0.061,1.311-0.19c0.38-0.13,0.699-0.29,0.949-0.479
				c0.25-0.2,0.44-0.4,0.56-0.62c0.13-0.21,0.18-0.39,0.18-0.55c0-0.181-0.05-0.32-0.16-0.42
				C283.529,475.087,283.379,475.037,283.199,475.037z M279.529,471.967c0.29-0.3,0.649-0.449,1.08-0.449
				c0.46,0,0.83,0.149,1.119,0.449c0.28,0.29,0.44,0.74,0.481,1.341h-3.19C279.079,472.717,279.249,472.277,279.529,471.967z"/>
			<path style="fill:#554953;" d="M291.509,473.657c-0.02-0.65-0.149-1.21-0.38-1.7c-0.27-0.53-0.63-0.939-1.08-1.22
				c-0.46-0.28-0.96-0.42-1.5-0.42c-0.45,0-0.85,0.1-1.2,0.29c-0.359,0.19-0.71,0.49-1.04,0.899v-0.21
				c0-0.33-0.069-0.569-0.229-0.739c-0.16-0.171-0.36-0.25-0.61-0.25s-0.449,0.079-0.6,0.239c-0.15,0.17-0.22,0.42-0.22,0.761v7.579
				c0,0.391,0.06,0.671,0.159,0.881c0.11,0.189,0.33,0.29,0.66,0.29c0.561,0,0.84-0.391,0.84-1.16v-2.63
				c0.181,0.22,0.36,0.409,0.551,0.569c0.14,0.12,0.279,0.221,0.43,0.311c0.34,0.2,0.76,0.3,1.26,0.3c0.42,0,0.811-0.08,1.17-0.24
				c0.37-0.17,0.681-0.41,0.95-0.71c0.26-0.31,0.47-0.69,0.63-1.14c0.15-0.45,0.221-0.95,0.221-1.49
				C291.52,473.797,291.52,473.728,291.509,473.657z M289.529,475.077c-0.15,0.34-0.34,0.59-0.601,0.76
				c-0.239,0.17-0.52,0.261-0.81,0.261c-0.06,0-0.12,0-0.17-0.021c-0.42-0.03-0.771-0.229-1.06-0.57
				c-0.33-0.38-0.489-0.93-0.489-1.63c0-0.74,0.159-1.3,0.5-1.69c0.329-0.38,0.739-0.57,1.22-0.57c0.31,0,0.59,0.09,0.84,0.27
				c0.25,0.181,0.44,0.431,0.58,0.771c0.15,0.33,0.22,0.729,0.22,1.19c0,0.43-0.06,0.8-0.19,1.109
				C289.559,474.997,289.549,475.037,289.529,475.077z"/>
			<path style="fill:#554953;" d="M293.909,470.567c-0.17-0.181-0.38-0.26-0.64-0.26c-0.25,0-0.461,0.079-0.62,0.26
				c-0.16,0.18-0.25,0.439-0.25,0.79v5.029c0,0.341,0.09,0.601,0.25,0.79c0.159,0.181,0.37,0.271,0.62,0.271
				c0.26,0,0.47-0.08,0.64-0.271c0.17-0.18,0.25-0.439,0.25-0.79v-5.079C294.159,470.987,294.079,470.747,293.909,470.567z
				 M293.899,467.987c-0.181-0.15-0.38-0.22-0.61-0.22c-0.23,0-0.44,0.08-0.62,0.239c-0.18,0.16-0.27,0.37-0.27,0.62
				c0,0.27,0.09,0.48,0.27,0.63c0.17,0.15,0.38,0.23,0.62,0.23c0.24,0,0.439-0.08,0.62-0.23c0.17-0.149,0.25-0.359,0.25-0.63
				C294.159,468.348,294.069,468.127,293.899,467.987z"/>
			<path style="fill:#554953;" d="M299.827,476.649l-1.548-2.552l-0.954,0.9v1.4c0,0.339-0.09,0.598-0.269,0.779
				c-0.175,0.185-0.384,0.275-0.614,0.275c-0.271,0-0.484-0.089-0.638-0.271c-0.153-0.179-0.232-0.444-0.232-0.796v-7.498
				c0-0.388,0.077-0.685,0.224-0.89c0.151-0.207,0.369-0.307,0.646-0.307c0.271,0,0.483,0.093,0.643,0.279
				c0.158,0.183,0.239,0.456,0.239,0.815v4.265l1.977-2.075c0.245-0.255,0.429-0.435,0.56-0.527
				c0.128-0.095,0.283-0.142,0.467-0.142c0.221,0,0.402,0.07,0.553,0.209c0.143,0.14,0.217,0.316,0.217,0.524
				c0,0.257-0.239,0.603-0.715,1.031l-0.933,0.855l1.802,2.835c0.131,0.213,0.229,0.368,0.287,0.479
				c0.058,0.107,0.088,0.217,0.088,0.313c0,0.28-0.077,0.498-0.23,0.661c-0.152,0.161-0.354,0.24-0.601,0.24
				c-0.214,0-0.382-0.055-0.497-0.174C300.185,477.161,300.024,476.951,299.827,476.649L299.827,476.649z"/>
			<path style="fill:#554953;" d="M303.646,477.452c-0.265,0-0.492-0.086-0.686-0.258c-0.192-0.169-0.291-0.411-0.291-0.722
				c0-0.262,0.094-0.487,0.278-0.675c0.186-0.19,0.412-0.283,0.684-0.283c0.268,0,0.498,0.094,0.692,0.279
				c0.19,0.187,0.286,0.414,0.286,0.679c0,0.307-0.097,0.547-0.286,0.718C304.129,477.366,303.903,477.452,303.646,477.452
				L303.646,477.452z"/>
			<path style="fill:#554953;" d="M312.389,475.276c0,0.218-0.066,0.453-0.197,0.701c-0.13,0.251-0.331,0.486-0.601,0.712
				c-0.268,0.225-0.604,0.408-1.013,0.544c-0.407,0.137-0.868,0.208-1.376,0.208c-1.089,0-1.938-0.318-2.547-0.949
				c-0.607-0.635-0.912-1.484-0.912-2.549c0-0.723,0.138-1.359,0.419-1.914c0.276-0.552,0.681-0.98,1.208-1.283
				c0.527-0.304,1.162-0.454,1.894-0.454c0.456,0,0.873,0.066,1.255,0.2c0.38,0.132,0.7,0.306,0.966,0.515
				c0.262,0.213,0.465,0.436,0.604,0.672c0.14,0.238,0.208,0.462,0.208,0.669c0,0.209-0.077,0.388-0.232,0.534
				c-0.159,0.146-0.35,0.22-0.568,0.22c-0.148,0-0.27-0.039-0.367-0.113c-0.097-0.076-0.206-0.196-0.324-0.367
				c-0.215-0.324-0.438-0.57-0.675-0.732c-0.232-0.164-0.528-0.245-0.89-0.245c-0.517,0-0.939,0.202-1.257,0.608
				c-0.316,0.403-0.477,0.962-0.477,1.663c0,0.331,0.043,0.637,0.124,0.913c0.079,0.276,0.197,0.513,0.353,0.708
				c0.156,0.194,0.342,0.342,0.561,0.443c0.22,0.104,0.461,0.152,0.721,0.152c0.353,0,0.655-0.081,0.905-0.244
				c0.255-0.163,0.477-0.411,0.669-0.747c0.107-0.197,0.222-0.351,0.345-0.463c0.124-0.111,0.277-0.169,0.458-0.169
				c0.215,0,0.393,0.083,0.533,0.245C312.316,474.918,312.389,475.094,312.389,475.276L312.389,475.276z"/>
			<path style="fill:#554953;" d="M319.728,472.427c-0.159-0.43-0.39-0.81-0.699-1.13c-0.311-0.319-0.681-0.56-1.11-0.729
				c-0.44-0.181-0.92-0.26-1.45-0.26c-0.529,0-1.01,0.079-1.439,0.25c-0.431,0.17-0.801,0.409-1.11,0.73
				c-0.3,0.311-0.54,0.69-0.7,1.13c-0.16,0.44-0.24,0.931-0.24,1.46c0,0.53,0.08,1.01,0.231,1.45c0.17,0.43,0.4,0.81,0.72,1.13
				c0.3,0.32,0.681,0.57,1.101,0.74c0.42,0.17,0.899,0.26,1.439,0.26c0.53,0,1.01-0.09,1.45-0.26c0.42-0.17,0.79-0.41,1.101-0.73
				c0.31-0.319,0.55-0.699,0.709-1.14c0.16-0.44,0.24-0.93,0.24-1.45C319.969,473.348,319.889,472.867,319.728,472.427z
				 M317.739,475.537c-0.32,0.41-0.74,0.61-1.271,0.61c-0.359,0-0.66-0.09-0.92-0.27c-0.26-0.19-0.46-0.45-0.6-0.8
				c-0.141-0.34-0.21-0.74-0.21-1.2c0-0.46,0.069-0.87,0.21-1.22c0.14-0.34,0.34-0.61,0.609-0.79c0.261-0.17,0.56-0.26,0.91-0.26
				c0.53,0,0.95,0.2,1.271,0.6c0.31,0.4,0.47,0.96,0.47,1.67C318.209,474.587,318.049,475.137,317.739,475.537z"/>
			<path style="fill:#554953;" d="M326.677,474.009v2.336c0,0.371-0.082,0.645-0.251,0.832c-0.169,0.185-0.387,0.276-0.662,0.276
				c-0.267,0-0.484-0.092-0.645-0.276c-0.168-0.188-0.252-0.461-0.252-0.832v-2.8c0-0.442-0.015-0.787-0.043-1.033
				c-0.031-0.239-0.114-0.443-0.246-0.598c-0.133-0.16-0.345-0.238-0.631-0.238c-0.576,0-0.953,0.196-1.136,0.597
				c-0.182,0.391-0.275,0.958-0.275,1.699v2.373c0,0.364-0.083,0.642-0.245,0.829c-0.169,0.186-0.385,0.279-0.654,0.279
				c-0.268,0-0.485-0.094-0.655-0.279c-0.17-0.188-0.255-0.465-0.255-0.829v-5.028c0-0.331,0.076-0.583,0.228-0.753
				c0.155-0.174,0.356-0.259,0.602-0.259c0.242,0,0.441,0.084,0.605,0.241c0.16,0.161,0.24,0.384,0.24,0.667v0.166
				c0.308-0.362,0.634-0.631,0.978-0.8c0.351-0.177,0.733-0.262,1.161-0.262c0.441,0,0.82,0.089,1.137,0.264
				c0.318,0.177,0.579,0.444,0.787,0.798c0.298-0.358,0.616-0.625,0.955-0.8c0.339-0.175,0.714-0.262,1.127-0.262
				c0.479,0,0.896,0.097,1.242,0.284c0.346,0.188,0.605,0.46,0.778,0.81c0.149,0.32,0.224,0.82,0.224,1.503v3.431
				c0,0.371-0.083,0.645-0.249,0.832c-0.167,0.185-0.39,0.276-0.664,0.276c-0.268,0-0.483-0.094-0.653-0.279
				c-0.17-0.188-0.255-0.465-0.255-0.829v-2.956c0-0.378-0.017-0.68-0.047-0.906c-0.032-0.228-0.12-0.421-0.26-0.574
				c-0.144-0.154-0.359-0.232-0.646-0.232c-0.232,0-0.452,0.072-0.66,0.208c-0.208,0.135-0.371,0.323-0.488,0.551
				C326.743,472.731,326.677,473.257,326.677,474.009L326.677,474.009z"/>
		</g>
		<g>
			<path style="fill:#554953;" d="M244.872,473.454c-0.001-0.003-0.001-0.006-0.001-0.012
				C244.871,473.448,244.871,473.451,244.872,473.454z"/>
			<path style="fill:#554953;" d="M244.961,474.017c0.001,0,0.001,0,0.002,0c-0.034-0.16-0.06-0.319-0.081-0.476
				C244.903,473.699,244.929,473.858,244.961,474.017z"/>
			<path style="fill:#554953;" d="M245.542,475.647c-0.004-0.007-0.007-0.015-0.012-0.022
				C245.535,475.633,245.539,475.641,245.542,475.647z"/>
			<path style="fill:#554953;" d="M245.487,475.539c-0.015-0.03-0.03-0.062-0.044-0.091
				C245.457,475.479,245.472,475.509,245.487,475.539z"/>
			<path style="fill:#554953;" d="M245.124,474.645c0.086,0.271,0.19,0.534,0.31,0.785c-0.122-0.256-0.224-0.52-0.308-0.785
				C245.126,474.645,245.125,474.645,245.124,474.645z"/>
			<path style="fill:#554953;" d="M251.675,466.721c0.34,0,0.59,0.026,0.878,0.075l0.081-0.517c0,0-0.794-0.244-1.837-0.159
				l-0.082-0.281c0.324-0.068,0.567-0.357,0.567-0.701c0-0.395-0.321-0.714-0.716-0.714c-0.396,0-0.716,0.319-0.716,0.714
				c0,0.345,0.243,0.633,0.567,0.701l0.09,0.313c-1.107,0.152-1.989,0.585-1.989,0.585l0.156,0.478
				c0.67-0.224,1.251-0.358,1.778-0.416C250.97,466.744,251.358,466.721,251.675,466.721z"/>
			<path style="fill:#554953;" d="M245.529,469.335l0.004-0.005c0.026-0.034,0.051-0.066,0.077-0.097l-0.212-0.153l-0.331-0.241
				c-0.019,0.025-0.539,0.504-0.95,1.388c-0.018-0.027-0.038-0.055-0.061-0.081c-0.123-0.134-0.295-0.202-0.514-0.198
				c-0.003,0-0.006,0-0.01,0c-0.135,0-0.228-0.046-0.289-0.101c0.061-0.076,0.097-0.173,0.097-0.28c0-0.249-0.203-0.453-0.454-0.453
				c-0.249,0-0.453,0.204-0.453,0.453c0,0.251,0.204,0.454,0.453,0.454c0.04,0,0.077-0.007,0.113-0.014
				c0.111,0.123,0.288,0.232,0.547,0.226c0.133-0.001,0.231,0.033,0.296,0.105c0.075,0.082,0.1,0.2,0.108,0.29
				c-0.001,0.001-0.001,0.003-0.002,0.003c-0.295,0.807-0.211,1.81-0.211,1.81l0.716,0.028c0.015-0.365,0.067-1.004,0.252-1.512
				C245.064,469.976,245.511,469.361,245.529,469.335z"/>
			<path style="fill:#554953;" d="M257.909,467.319c-0.249,0-0.453,0.202-0.453,0.453c0,0.039,0.006,0.076,0.016,0.112
				c-0.124,0.112-0.232,0.29-0.228,0.549c0.002,0.134-0.032,0.23-0.104,0.296c-0.058,0.051-0.13,0.078-0.2,0.096
				c-0.533-0.747-1.19-1.203-1.19-1.203l-0.514,0.551c0.389,0.353,0.785,0.797,1.171,1.349c0.267,0.382,0.542,0.875,0.77,1.366
				l0.693-0.33c0,0-0.316-0.783-0.763-1.485c0.077-0.027,0.155-0.069,0.225-0.13c0.136-0.123,0.202-0.296,0.198-0.514
				c-0.001-0.142,0.045-0.236,0.101-0.3c0.077,0.06,0.174,0.098,0.279,0.098c0.252,0,0.454-0.204,0.454-0.454
				C258.363,467.522,258.161,467.319,257.909,467.319z"/>
			<path style="fill:#554953;" d="M256.108,473.556c-0.955,0.466-2.527,1.08-4.596,1.369c-0.812,0.112-1.599,0.154-2.324,0.154
				c-0.942,0-1.775-0.07-2.414-0.151c-0.729-0.092-1.3-0.204-1.648-0.283c0.084,0.266,0.186,0.529,0.308,0.785
				c0.002,0.007,0.005,0.014,0.008,0.019c0.015,0.029,0.029,0.061,0.044,0.091c0.015,0.029,0.029,0.059,0.044,0.086
				c0.004,0.008,0.008,0.016,0.012,0.022c0.205,0.387,0.452,0.742,0.732,1.05c0.976,1.067,1.97,1.236,1.98,1.237l0.016,0.002
				l0.015,0.005c0.009,0.004,0.89,0.288,2.23,0.288c1.319,0,2.613-0.266,3.845-0.791c0.913-0.467,1.777-1.177,2.205-1.81
				c0.331-0.489,0.57-1.012,0.712-1.555c0.075-0.288,0.135-0.75,0.1-1.236C257.108,473.019,256.684,473.275,256.108,473.556z"/>
			<path style="fill:#554953;" d="M256.089,469.737c-1.35-1.94-2.819-2.44-3.569-2.561c-0.29-0.05-0.52-0.069-0.841-0.069
				c-0.31,0-0.68,0.02-1.189,0.069c-0.5,0.051-1.06,0.19-1.71,0.41c-0.92,0.3-1.74,0.78-2.39,1.38l-0.02,0.021
				c-0.1,0.09-0.3,0.28-0.53,0.57c-0.03,0.04-0.45,0.63-0.77,1.529c-0.25,0.681-0.24,1.66-0.24,1.67c0,0.23,0.02,0.46,0.04,0.69
				c0,0,0,0,0,0.01c0.01,0.03,0.01,0.05,0.01,0.08c0.02,0.16,0.05,0.32,0.08,0.48c0.48,0.119,3.31,0.779,6.47,0.34
				c1.99-0.28,3.49-0.86,4.41-1.31c0.76-0.359,1.25-0.699,1.44-0.84C257.089,471.518,256.569,470.417,256.089,469.737z
				 M248.569,472.877c-1.06,0-1.91-0.85-1.91-1.91c0-1.05,0.85-1.899,1.91-1.899c1.05,0,1.91,0.85,1.91,1.899
				C250.479,472.027,249.619,472.877,248.569,472.877z M254.149,471.478c-0.65,0-1.181-0.53-1.181-1.19c0-0.65,0.53-1.18,1.181-1.18
				c0.649,0,1.18,0.529,1.18,1.18C255.329,470.947,254.799,471.478,254.149,471.478z"/>
		</g>
	</g>
</g>
</svg>
