<?xml version="1.0" encoding="utf-8"?>
<!-- Generator: Adobe Illustrator 27.5.0, SVG Export Plug-In . SVG Version: 6.00 Build 0)  -->
<svg version="1.1" xmlns="http://www.w3.org/2000/svg" xmlns:xlink="http://www.w3.org/1999/xlink" x="0px" y="0px"
	 viewBox="0 0 500 500" style="enable-background:new 0 0 500 500;" xml:space="preserve">
<g id="BACKGROUND">
	<rect style="fill:#FFFFFF;" width="500" height="500"/>
</g>
<g id="OBJECTS">
	<g>
		<path style="fill:#E6E7E8;" d="M72.92,349.322c-25.334,0-39.133,8.299-39.133,10.713v101.321h78.264V360.035
			C112.051,357.621,99.004,349.322,72.92,349.322z M84.366,360.303H61.472c-0.874,0-1.589-0.98-1.589-2.178s0.715-2.177,1.589-2.177
			h22.895c0.872,0,1.588,0.979,1.588,2.177S85.238,360.303,84.366,360.303z"/>
		<path style="fill:#9CCDAC;" d="M104.126,449.986c0,1.572-1.285,2.858-2.858,2.858H44.57c-1.57,0-2.858-1.286-2.858-2.858v-78.377
			c0-1.57,1.288-2.857,2.858-2.857h56.697c1.573,0,2.858,1.287,2.858,2.857V449.986z"/>
		<path style="opacity:0.4;fill:#BCBEC0;" d="M112.051,360.035c0-2.414-13.047-10.713-39.131-10.713
			c-2.466,0-4.79,0.099-7.035,0.243c0.222,0.122,3.907,2.185,8.481,6.383h10c0.872,0,1.588,0.979,1.588,2.177
			s-0.716,2.178-1.588,2.178h-5.731c8.865,10.021,18.043,27.34,11.753,53.215c-10.879,44.766-56.601,47.839-56.601,47.839h78.264
			V360.035z"/>
	</g>
	<g>
		<g>
			<rect x="219.809" y="76.614" style="fill:#E6E7E8;" width="5.429" height="50.427"/>
			<path style="fill:#E6E7E8;" d="M222.522,122.074c-6.73,0-16.098,12.84-16.098,25.479c0,12.679,9.607,18.586,16.098,18.586
				c6.492,0,16.099-5.907,16.099-18.586C238.621,134.914,229.254,122.074,222.522,122.074z M221.262,162.784
				c-2.085-1.295-3.632-3.137-4.571-5.542c-2.347-6.017-0.434-13.622,0.528-15.712c1.282-2.792,3.209-11.565,4.043-15.524V162.784z
				 M223.784,162.784v-36.78c0.834,3.959,2.761,12.732,4.044,15.525c0.962,2.089,2.874,9.695,0.526,15.712
				C227.417,159.647,225.869,161.488,223.784,162.784z M208.947,147.553c0-8.702,5.084-17.494,9.655-21.164
				c-0.892,4.176-2.591,11.726-3.675,14.086c-1.27,2.757-3.178,11.036-0.584,17.683c0.52,1.334,1.193,2.527,2.009,3.584
				C212.42,159.374,208.947,154.724,208.947,147.553z M228.693,161.742c0.815-1.057,1.489-2.25,2.01-3.584
				c2.593-6.647,0.684-14.926-0.583-17.682c-1.085-2.359-2.783-9.911-3.677-14.087c4.571,3.671,9.655,12.462,9.655,21.164
				C236.099,154.724,232.626,159.374,228.693,161.742z"/>
			<path style="opacity:0.4;fill:#BCBEC0;" d="M238.621,147.553c0-11.007-7.105-22.159-13.384-24.857V76.614h-2.715v89.525
				C229.015,166.139,238.621,160.232,238.621,147.553z M223.784,162.784v-35.743h0.22c0.918,4.285,2.643,11.917,3.824,14.489
				c0.962,2.089,2.874,9.695,0.526,15.712C227.417,159.647,225.869,161.488,223.784,162.784z M228.693,161.742
				c0.815-1.057,1.489-2.25,2.01-3.584c2.593-6.647,0.684-14.926-0.583-17.682c-1.085-2.359-2.783-9.911-3.677-14.087
				c4.571,3.671,9.655,12.462,9.655,21.164C236.099,154.724,232.626,159.374,228.693,161.742z"/>
		</g>
		<g>
			<path style="fill:#9CCDAC;" d="M224.707,49.218h-4.368c-1.31,0-2.382,1.072-2.382,2.382v26.602h9.132V51.6
				C227.089,50.29,226.019,49.218,224.707,49.218z M224.352,57.784c0,0.699-0.572,1.271-1.271,1.271h-1.118
				c-0.698,0-1.27-0.571-1.27-1.271v-4.239c0-0.699,0.572-1.27,1.27-1.27h1.118c0.698,0,1.271,0.571,1.271,1.27V57.784z"/>
			<path style="opacity:0.3;fill:#9CCDAC;" d="M227.089,51.6c0-1.311-1.069-2.382-2.382-2.382h-4.368c0,0,0.753,1.139,1.613,3.059
				c0.003,0,0.007-0.002,0.011-0.002h1.118c0.698,0,1.271,0.571,1.271,1.27v4.239c0,0.345-0.142,0.659-0.367,0.888
				c0.483,2.529,0.655,5.403,0.128,8.412c-1.686,9.628-6.155,11.117-6.155,11.117h9.132V51.6z"/>
		</g>
	</g>
	<g>
		<g>
			<path style="fill:#E6E7E8;" d="M188.508,128.747V76.614h-5.429v52.133c-4.059,1.251-3.447,4.454-3.447,4.454v33.798h1.319
				c0,0,1.539-19.251,1.98-22.033c0.44-2.782,2.861-2.539,2.861-2.539s2.421-0.243,2.861,2.539s1.98,22.033,1.98,22.033h1.32
				v-33.798C191.955,133.201,192.566,129.999,188.508,128.747z"/>
			<path style="opacity:0.4;fill:#BCBEC0;" d="M188.508,128.747V76.614h-2.715v65.814c0,0,2.421-0.243,2.861,2.539
				s1.98,22.033,1.98,22.033h1.32v-33.798v-0.919C191.824,131.237,191.18,129.571,188.508,128.747z"/>
		</g>
		<g>
			<path style="fill:#9CCDAC;" d="M187.977,49.218h-4.367c-1.309,0-2.382,1.072-2.382,2.382v26.602h9.132V51.6
				C190.359,50.29,189.29,49.218,187.977,49.218z M187.622,57.784c0,0.699-0.573,1.271-1.27,1.271h-1.119
				c-0.696,0-1.27-0.571-1.27-1.271v-4.239c0-0.699,0.573-1.27,1.27-1.27h1.119c0.697,0,1.27,0.571,1.27,1.27V57.784z"/>
			<path style="opacity:0.3;fill:#9CCDAC;" d="M190.359,51.6c0-1.311-1.069-2.382-2.383-2.382h-4.367c0,0,0.753,1.139,1.614,3.059
				c0.003,0,0.006-0.002,0.009-0.002h1.119c0.697,0,1.27,0.571,1.27,1.27v4.239c0,0.345-0.142,0.659-0.368,0.888
				c0.484,2.529,0.656,5.403,0.13,8.412c-1.686,9.628-6.156,11.117-6.156,11.117h9.132V51.6z"/>
		</g>
	</g>
	<g>
		<g>
			<rect x="54.067" y="76.614" style="fill:#E6E7E8;" width="5.429" height="55.585"/>
			<path style="fill:#E6E7E8;" d="M71.569,131.114c-0.199-2.613-2.506-4.751-5.127-4.751H47.121c-2.622,0-4.928,2.138-5.127,4.751
				l-2.386,31.393c-0.199,2.613,1.781,4.751,4.401,4.751h25.543c2.62,0,4.601-2.138,4.402-4.751L71.569,131.114z M47.117,160.113
				c-0.04,0.697-0.645,1.268-1.343,1.268h-0.401c-0.698,0-1.227-0.569-1.175-1.266l1.792-23.77c0.054-0.697,0.655-1.268,1.338-1.268
				c0.683,0,1.209,0.571,1.168,1.269L47.117,160.113z M52.682,160.113c-0.017,0.697-0.604,1.268-1.302,1.268h-0.402
				c-0.697,0-1.245-0.571-1.217-1.268l1.001-23.765c0.028-0.698,0.611-1.27,1.294-1.27c0.683,0,1.227,0.572,1.21,1.271
				L52.682,160.113z M56.983,161.381H56.58c-0.698,0-1.266-0.571-1.259-1.268l0.209-23.765c0.006-0.698,0.569-1.271,1.251-1.271
				c0.683,0,1.245,0.572,1.251,1.271l0.21,23.765C58.248,160.81,57.681,161.381,56.983,161.381z M62.585,161.381h-0.401
				c-0.699,0-1.284-0.571-1.302-1.268l-0.585-23.765c-0.017-0.698,0.528-1.271,1.211-1.271c0.682,0,1.265,0.572,1.293,1.27
				l1.002,23.765C63.83,160.81,63.283,161.381,62.585,161.381z M68.19,161.381h-0.402c-0.697,0-1.302-0.571-1.342-1.268
				l-1.379-23.766c-0.042-0.698,0.484-1.269,1.168-1.269c0.682,0,1.283,0.57,1.337,1.268l1.792,23.77
				C69.417,160.812,68.888,161.381,68.19,161.381z"/>
			<path style="opacity:0.4;fill:#BCBEC0;" d="M66.442,126.363h-6.946V76.614h-2.513v58.506c0.584,0.102,1.043,0.603,1.049,1.228
				l0.21,23.765c0.006,0.697-0.562,1.268-1.259,1.268v5.878h12.569c2.62,0,4.601-2.138,4.402-4.751l-2.386-31.393
				C71.37,128.501,69.063,126.363,66.442,126.363z M62.585,161.381h-0.401c-0.699,0-1.284-0.571-1.302-1.268l-0.585-23.765
				c-0.017-0.698,0.528-1.271,1.211-1.271c0.682,0,1.265,0.572,1.293,1.27l1.002,23.765C63.83,160.81,63.283,161.381,62.585,161.381
				z M68.19,161.381h-0.402c-0.697,0-1.302-0.571-1.342-1.268l-1.379-23.766c-0.042-0.698,0.484-1.269,1.168-1.269
				c0.682,0,1.283,0.57,1.337,1.268l1.792,23.77C69.417,160.812,68.888,161.381,68.19,161.381z"/>
		</g>
		<g>
			<path style="fill:#9CCDAC;" d="M58.965,49.218h-4.367c-1.31,0-2.382,1.072-2.382,2.382v26.602h9.132V51.6
				C61.348,50.29,60.277,49.218,58.965,49.218z M58.609,57.784c0,0.699-0.571,1.271-1.27,1.271h-1.117
				c-0.699,0-1.271-0.571-1.271-1.271v-4.239c0-0.699,0.571-1.27,1.271-1.27h1.117c0.698,0,1.27,0.571,1.27,1.27V57.784z"/>
			<path style="opacity:0.3;fill:#9CCDAC;" d="M61.348,51.6c0-1.311-1.07-2.382-2.383-2.382h-4.367c0,0,0.753,1.139,1.613,3.059
				c0.003,0,0.008-0.002,0.012-0.002h1.117c0.698,0,1.27,0.571,1.27,1.27v4.239c0,0.345-0.141,0.659-0.367,0.888
				c0.484,2.529,0.656,5.403,0.129,8.412c-1.686,9.628-6.155,11.117-6.155,11.117h9.132V51.6z"/>
		</g>
	</g>
	<g>
		<g>
			<path style="fill:#E6E7E8;" d="M106.53,131.317h0.017c-2.923-1.27-2.923-4.806-2.923-4.806V74.099h-5.427v52.412
				c0,0,0,3.536-2.919,4.806h0.018c-7.205,2.363-12.416,9.134-12.416,17.129c0,9.959,8.074,18.033,18.033,18.033
				c9.957,0,18.029-8.074,18.029-18.033C118.942,140.451,113.734,133.68,106.53,131.317z M87.219,152.88
				c-0.822,0-1.488-0.667-1.488-1.488c0-0.822,0.666-1.489,1.488-1.489c0.822,0,1.489,0.667,1.489,1.489
				C88.708,152.213,88.041,152.88,87.219,152.88z M87.219,146.23c-0.822,0-1.488-0.666-1.488-1.488c0-0.821,0.666-1.489,1.488-1.489
				c0.822,0,1.489,0.667,1.489,1.489C88.708,145.564,88.041,146.23,87.219,146.23z M91.784,156.439
				c-0.823,0-1.489-0.667-1.489-1.489c0-0.822,0.666-1.489,1.489-1.489c0.821,0,1.488,0.667,1.488,1.489
				C93.272,155.772,92.605,156.439,91.784,156.439z M91.784,149.788c-0.823,0-1.489-0.668-1.489-1.489
				c0-0.823,0.666-1.489,1.489-1.489c0.821,0,1.488,0.667,1.488,1.489C93.272,149.121,92.605,149.788,91.784,149.788z
				 M91.784,143.137c-0.823,0-1.489-0.667-1.489-1.489c0-0.822,0.666-1.489,1.489-1.489c0.821,0,1.488,0.666,1.488,1.489
				C93.272,142.47,92.605,143.137,91.784,143.137z M96.347,159.618c-0.822,0-1.489-0.667-1.489-1.489
				c0-0.822,0.667-1.489,1.489-1.489c0.821,0,1.489,0.667,1.489,1.489C97.836,158.951,97.168,159.618,96.347,159.618z
				 M96.347,152.968c-0.822,0-1.489-0.667-1.489-1.489c0-0.822,0.667-1.489,1.489-1.489c0.821,0,1.489,0.666,1.489,1.489
				C97.836,152.3,97.168,152.968,96.347,152.968z M96.347,146.317c-0.822,0-1.489-0.668-1.489-1.491
				c0-0.821,0.667-1.488,1.489-1.488c0.821,0,1.489,0.667,1.489,1.488C97.836,145.649,97.168,146.317,96.347,146.317z
				 M96.347,139.666c-0.822,0-1.489-0.667-1.489-1.489c0-0.821,0.667-1.489,1.489-1.489c0.821,0,1.489,0.667,1.489,1.489
				C97.836,138.999,97.168,139.666,96.347,139.666z M100.91,162.993c-0.821,0-1.488-0.667-1.488-1.489
				c0-0.823,0.667-1.489,1.488-1.489c0.822,0,1.489,0.667,1.489,1.489C102.399,162.326,101.732,162.993,100.91,162.993z
				 M100.91,156.342c-0.821,0-1.488-0.667-1.488-1.489c0-0.822,0.667-1.489,1.488-1.489c0.822,0,1.489,0.667,1.489,1.489
				C102.399,155.675,101.732,156.342,100.91,156.342z M100.91,149.691c-0.821,0-1.488-0.667-1.488-1.489
				c0-0.821,0.667-1.489,1.488-1.489c0.822,0,1.489,0.667,1.489,1.489C102.399,149.025,101.732,149.691,100.91,149.691z
				 M100.91,143.041c-0.821,0-1.488-0.668-1.488-1.489c0-0.822,0.667-1.489,1.488-1.489c0.822,0,1.489,0.667,1.489,1.489
				C102.399,142.373,101.732,143.041,100.91,143.041z M100.91,136.391c-0.821,0-1.488-0.667-1.488-1.489
				c0-0.822,0.667-1.489,1.488-1.489c0.822,0,1.489,0.667,1.489,1.489C102.399,135.723,101.732,136.391,100.91,136.391z
				 M114.602,143.253c0.822,0,1.488,0.667,1.488,1.489c0,0.822-0.666,1.488-1.488,1.488c-0.822,0-1.489-0.666-1.489-1.488
				C113.112,143.92,113.779,143.253,114.602,143.253z M105.474,159.618c-0.821,0-1.489-0.667-1.489-1.489
				c0-0.822,0.668-1.489,1.489-1.489s1.488,0.667,1.488,1.489C106.962,158.951,106.295,159.618,105.474,159.618z M105.474,152.968
				c-0.821,0-1.489-0.667-1.489-1.489c0-0.822,0.668-1.489,1.489-1.489s1.488,0.666,1.488,1.489
				C106.962,152.3,106.295,152.968,105.474,152.968z M105.474,146.317c-0.821,0-1.489-0.668-1.489-1.491
				c0-0.821,0.668-1.488,1.489-1.488s1.488,0.667,1.488,1.488C106.962,145.649,106.295,146.317,105.474,146.317z M105.474,139.666
				c-0.821,0-1.489-0.667-1.489-1.489c0-0.821,0.668-1.489,1.489-1.489s1.488,0.667,1.488,1.489
				C106.962,138.999,106.295,139.666,105.474,139.666z M110.037,156.439c-0.821,0-1.489-0.667-1.489-1.489
				c0-0.822,0.668-1.489,1.489-1.489c0.823,0,1.489,0.667,1.489,1.489C111.526,155.772,110.86,156.439,110.037,156.439z
				 M110.037,149.788c-0.821,0-1.489-0.668-1.489-1.489c0-0.823,0.668-1.489,1.489-1.489c0.823,0,1.489,0.667,1.489,1.489
				C111.526,149.121,110.86,149.788,110.037,149.788z M110.037,143.137c-0.821,0-1.489-0.667-1.489-1.489
				c0-0.822,0.668-1.489,1.489-1.489c0.823,0,1.489,0.666,1.489,1.489C111.526,142.47,110.86,143.137,110.037,143.137z
				 M114.602,152.88c-0.822,0-1.489-0.667-1.489-1.488c0-0.822,0.667-1.489,1.489-1.489c0.822,0,1.488,0.667,1.488,1.489
				C116.09,152.213,115.424,152.88,114.602,152.88z"/>
			<path style="opacity:0.4;fill:#BCBEC0;" d="M106.53,131.317h0.017c-2.923-1.27-2.923-4.806-2.923-4.806V74.099h-2.711v59.314
				c0.821,0.001,1.486,0.667,1.486,1.488c0,0.821-0.665,1.486-1.486,1.488v3.674c0.821,0.001,1.486,0.667,1.486,1.488
				c0,0.821-0.665,1.487-1.486,1.488v3.674c0.821,0.001,1.486,0.667,1.486,1.489c0,0.821-0.665,1.486-1.486,1.487v3.674
				c0.821,0.001,1.486,0.667,1.486,1.489c0,0.821-0.665,1.486-1.486,1.487v3.674c0.821,0.002,1.486,0.667,1.486,1.489
				c0,0.82-0.665,1.485-1.486,1.487v3.488c9.957,0,18.029-8.074,18.029-18.033C118.942,140.451,113.734,133.68,106.53,131.317z
				 M105.474,159.618c-0.821,0-1.489-0.667-1.489-1.489c0-0.822,0.668-1.489,1.489-1.489s1.488,0.667,1.488,1.489
				C106.962,158.951,106.295,159.618,105.474,159.618z M105.474,152.968c-0.821,0-1.489-0.667-1.489-1.489
				c0-0.822,0.668-1.489,1.489-1.489s1.488,0.666,1.488,1.489C106.962,152.3,106.295,152.968,105.474,152.968z M105.474,146.317
				c-0.821,0-1.489-0.668-1.489-1.491c0-0.821,0.668-1.488,1.489-1.488s1.488,0.667,1.488,1.488
				C106.962,145.649,106.295,146.317,105.474,146.317z M105.474,139.666c-0.821,0-1.489-0.667-1.489-1.489
				c0-0.821,0.668-1.489,1.489-1.489s1.488,0.667,1.488,1.489C106.962,138.999,106.295,139.666,105.474,139.666z M110.037,156.439
				c-0.821,0-1.489-0.667-1.489-1.489c0-0.822,0.668-1.489,1.489-1.489c0.823,0,1.489,0.667,1.489,1.489
				C111.526,155.772,110.86,156.439,110.037,156.439z M110.037,149.788c-0.821,0-1.489-0.668-1.489-1.489
				c0-0.823,0.668-1.489,1.489-1.489c0.823,0,1.489,0.667,1.489,1.489C111.526,149.121,110.86,149.788,110.037,149.788z
				 M110.037,143.137c-0.821,0-1.489-0.667-1.489-1.489c0-0.822,0.668-1.489,1.489-1.489c0.823,0,1.489,0.666,1.489,1.489
				C111.526,142.47,110.86,143.137,110.037,143.137z M114.602,152.88c-0.822,0-1.489-0.667-1.489-1.488
				c0-0.822,0.667-1.489,1.489-1.489c0.822,0,1.488,0.667,1.488,1.489C116.09,152.213,115.424,152.88,114.602,152.88z
				 M116.09,144.742c0,0.822-0.666,1.488-1.488,1.488c-0.822,0-1.489-0.666-1.489-1.488c0-0.821,0.667-1.489,1.489-1.489
				C115.424,143.253,116.09,143.92,116.09,144.742z"/>
		</g>
		<g>
			<path style="fill:#9CCDAC;" d="M103.095,49.218h-4.367c-1.309,0-2.383,1.072-2.383,2.382v26.602h9.132V51.6
				C105.477,50.29,104.406,49.218,103.095,49.218z M102.74,57.784c0,0.699-0.573,1.271-1.271,1.271h-1.119
				c-0.697,0-1.271-0.571-1.271-1.271v-4.239c0-0.699,0.573-1.27,1.271-1.27h1.119c0.697,0,1.271,0.571,1.271,1.27V57.784z"/>
			<path style="opacity:0.3;fill:#9CCDAC;" d="M105.477,51.6c0-1.311-1.07-2.382-2.382-2.382h-4.367c0,0,0.751,1.139,1.612,3.059
				c0.003,0,0.008-0.002,0.011-0.002h1.119c0.697,0,1.271,0.571,1.271,1.27v4.239c0,0.345-0.142,0.659-0.369,0.888
				c0.484,2.529,0.657,5.403,0.13,8.412c-1.687,9.628-6.156,11.117-6.156,11.117h9.132V51.6z"/>
		</g>
	</g>
	<g>
		<g>
			<path style="fill:#E6E7E8;" d="M163.412,146.545c0,0-16.964-5.943-35.646,0.197C127.766,146.742,140.251,156.257,163.412,146.545
				z"/>
			<rect x="142.875" y="76.614" style="fill:#E6E7E8;" width="5.428" height="69.813"/>
			<path style="opacity:0.4;fill:#BCBEC0;" d="M148.303,76.614h-2.692v74.245c4.957-0.241,10.901-1.42,17.802-4.314
				c0,0-6.146-2.149-15.109-2.525V76.614z"/>
			<g>
				<path style="fill:#C1C1C1;" d="M127.45,146.545c0,9.768,8.122,17.684,18.14,17.684c10.019,0,18.139-7.916,18.139-17.684
					C163.728,146.545,144.016,151.963,127.45,146.545z"/>
				<path style="opacity:0.3;fill:#C1C1C1;" d="M133.969,148.133h-0.004c0,0,7.133,2.066,12.096,3.059
					c4.963,0.993,10.125,3.773,4.567,8.337c-5.546,4.557-17.446-0.136-17.5-0.158c3.251,3.003,7.631,4.857,12.463,4.857
					c10.019,0,18.139-7.916,18.139-17.684C163.728,146.545,148.772,150.652,133.969,148.133z"/>
			</g>
		</g>
		<g>
			<path style="fill:#9CCDAC;" d="M147.772,49.218h-4.368c-1.309,0-2.382,1.072-2.382,2.382v26.602h9.133V51.6
				C150.155,50.29,149.084,49.218,147.772,49.218z M147.417,57.784c0,0.699-0.571,1.271-1.271,1.271h-1.117
				c-0.699,0-1.271-0.571-1.271-1.271v-4.239c0-0.699,0.571-1.27,1.271-1.27h1.117c0.699,0,1.271,0.571,1.271,1.27V57.784z"/>
			<path style="opacity:0.3;fill:#9CCDAC;" d="M150.155,51.6c0-1.311-1.071-2.382-2.383-2.382h-4.368c0,0,0.753,1.139,1.613,3.059
				c0.003,0,0.009-0.002,0.012-0.002h1.117c0.699,0,1.271,0.571,1.271,1.27v4.239c0,0.345-0.141,0.659-0.367,0.888
				c0.484,2.529,0.656,5.403,0.128,8.412c-1.686,9.628-6.155,11.117-6.155,11.117h9.133V51.6z"/>
		</g>
	</g>
	<g>
		<g>
			<g>
				<g>
					<path style="fill:#9CCDAC;" d="M75.228,247.496h-19.12c-1.596,0-3.119-0.658-4.18-1.808c-1.075-1.165-1.597-2.695-1.466-4.308
						l0.543-6.722c0.256-3.161,3.046-5.735,6.22-5.735h17.221c3.201,0,5.956,2.602,6.138,5.797l0.378,6.71
						c0.092,1.604-0.457,3.122-1.547,4.276C78.324,246.859,76.837,247.496,75.228,247.496z M57.226,233.674
						c-0.719,0-1.427,0.652-1.483,1.369l-0.543,6.718c-0.028,0.354,0.104,0.58,0.223,0.707c0.116,0.128,0.332,0.279,0.687,0.279
						h19.12c0.369,0,0.601-0.163,0.732-0.303c0.131-0.136,0.28-0.375,0.26-0.744l-0.379-6.71c-0.04-0.7-0.691-1.314-1.395-1.314
						H57.226z"/>
				</g>
				<path style="opacity:0.3;fill:#9CCDAC;" d="M74.45,247.263c0,0,1.931-0.404,4.293-0.978c0.231-0.179,0.465-0.363,0.672-0.58
					c1.09-1.154,1.639-2.672,1.547-4.276l-0.378-6.71l-0.998,1.465c-1.532,1.222-2.438,0.935-2.438,0.935s-0.245-2.043-0.49-3.188
					c-0.245-1.144-2.29-1.371-2.29-1.371c-15.068,0.407-14.468,0.465-17.094,0.227c-1.799-0.165-1.963,1.84-1.963,1.84l-0.327,2.577
					c-2.766,0.811-4.15-0.416-4.15-0.416l-0.371,4.591c-0.074,0.911,0.084,1.79,0.409,2.599c1.75,0.698,3.794,1.487,4.114,1.487
					C55.56,245.465,74.45,247.263,74.45,247.263z M55.742,235.043c0.057-0.716,0.765-1.369,1.483-1.369h17.221
					c0.703,0,1.354,0.614,1.395,1.314l0.379,6.71c0.021,0.369-0.129,0.608-0.26,0.744c-0.131,0.141-0.362,0.303-0.732,0.303h-19.12
					c-0.354,0-0.57-0.15-0.687-0.279c-0.119-0.126-0.251-0.353-0.223-0.707L55.742,235.043z"/>
			</g>
			<rect x="43.694" y="237.846" style="fill:#87C197;" width="43.95" height="2.035"/>
		</g>
		<polygon style="fill:#E6E7E8;" points="93.242,306.229 38.097,306.229 43.694,239.881 87.644,239.881 		"/>
		<g>
			<g>
				<path style="fill:#939598;" d="M50.052,256.321c0-2.045,1.126-3.931,2.514-3.931c1.39,0,2.515,1.886,2.515,3.931H50.052z"/>
				<path style="fill:#939598;" d="M58.786,256.321c0-2.045,1.127-3.931,2.515-3.931c1.389,0,2.515,1.886,2.515,3.931H58.786z"/>
				<path style="fill:#939598;" d="M67.521,256.321c0-2.045,1.127-3.931,2.514-3.931c1.39,0,2.515,1.886,2.515,3.931H67.521z"/>
				<path style="fill:#939598;" d="M76.257,256.321c0-2.045,1.126-3.931,2.514-3.931c1.389,0,2.515,1.886,2.515,3.931H76.257z"/>
			</g>
			<g>
				<path style="fill:#939598;" d="M50.052,281.333c0-2.042,1.126-3.929,2.514-3.929c1.39,0,2.515,1.887,2.515,3.929H50.052z"/>
				<path style="fill:#939598;" d="M58.786,281.333c0-2.042,1.127-3.929,2.515-3.929c1.389,0,2.515,1.887,2.515,3.929H58.786z"/>
				<path style="fill:#939598;" d="M67.521,281.333c0-2.042,1.127-3.929,2.514-3.929c1.39,0,2.515,1.887,2.515,3.929H67.521z"/>
				<path style="fill:#939598;" d="M76.257,281.333c0-2.042,1.126-3.929,2.514-3.929c1.389,0,2.515,1.887,2.515,3.929H76.257z"/>
			</g>
			<g>
				<path style="fill:#939598;" d="M45.553,268.5c0-2.048,1.125-3.934,2.515-3.934c1.387,0,2.514,1.886,2.514,3.934H45.553z"/>
				<path style="fill:#939598;" d="M54.352,268.5c0-2.048,1.126-3.934,2.516-3.934c1.387,0,2.513,1.886,2.513,3.934H54.352z"/>
				<path style="fill:#939598;" d="M63.153,268.5c0-2.048,1.127-3.934,2.515-3.934c1.389,0,2.515,1.886,2.515,3.934H63.153z"/>
				<path style="fill:#939598;" d="M71.956,268.5c0-2.048,1.126-3.934,2.512-3.934c1.391,0,2.517,1.886,2.517,3.934H71.956z"/>
				<path style="fill:#939598;" d="M80.756,268.5c0-2.048,1.125-3.934,2.515-3.934c1.387,0,2.513,1.886,2.513,3.934H80.756z"/>
			</g>
			<g>
				<path style="fill:#939598;" d="M45.553,293.717c0-2.047,1.125-3.934,2.515-3.934c1.387,0,2.514,1.887,2.514,3.934H45.553z"/>
				<path style="fill:#939598;" d="M54.352,293.717c0-2.047,1.126-3.934,2.516-3.934c1.387,0,2.513,1.887,2.513,3.934H54.352z"/>
				<path style="fill:#939598;" d="M63.153,293.717c0-2.047,1.127-3.934,2.515-3.934c1.389,0,2.515,1.887,2.515,3.934H63.153z"/>
				<path style="fill:#939598;" d="M71.956,293.717c0-2.047,1.126-3.934,2.512-3.934c1.391,0,2.517,1.887,2.517,3.934H71.956z"/>
				<path style="fill:#939598;" d="M80.756,293.717c0-2.047,1.125-3.934,2.515-3.934c1.387,0,2.513,1.887,2.513,3.934H80.756z"/>
			</g>
		</g>
		<path style="opacity:0.4;fill:#BCBEC0;" d="M38.097,306.229c0,0,36.254-3.797,40.025-32.187
			c3.772-28.389-19.852-34.161-19.852-34.161h29.374l5.598,66.348H38.097z"/>
	</g>
	<g>
		<g>
			<path style="fill:#C8B18B;" d="M266.85,432.31c-2.734-6.054-8.041-10.565-13.065-11.607l2.623-70.475
				c0,0,0.724-3.593-5.295-3.705c-6.018,0.112-5.295,3.705-5.295,3.705l2.622,70.475c-5.021,1.041-10.33,5.553-13.064,11.607
				c-3.228,7.147,0.231,29.044,0.231,29.044h15.506h15.507C266.619,461.353,270.077,439.457,266.85,432.31z M243.498,455.943
				c0,0.871-0.68,1.588-1.51,1.588c-0.83,0-1.509-0.717-1.509-1.588V437.44c0-0.874,0.679-1.589,1.509-1.589
				c0.83,0,1.51,0.715,1.51,1.589V455.943z M249.579,455.943c0,0.871-0.68,1.588-1.509,1.588c-0.828,0-1.509-0.717-1.509-1.588
				V431.95c0-0.873,0.681-1.589,1.509-1.589c0.829,0,1.509,0.716,1.509,1.589V455.943z M248.93,353.036
				c0-1.209,0.977-2.186,2.183-2.186c1.208,0,2.185,0.978,2.185,2.186c0,1.201-0.977,2.183-2.185,2.183
				C249.906,355.219,248.93,354.237,248.93,353.036z M255.662,455.943c0,0.871-0.68,1.588-1.509,1.588
				c-0.83,0-1.509-0.717-1.509-1.588V431.95c0-0.873,0.679-1.589,1.509-1.589c0.829,0,1.509,0.716,1.509,1.589V455.943z
				 M261.746,455.943c0,0.871-0.68,1.588-1.511,1.588c-0.829,0-1.509-0.717-1.509-1.588V437.44c0-0.874,0.68-1.589,1.509-1.589
				c0.831,0,1.511,0.715,1.511,1.589V455.943z"/>
			<path style="opacity:0.3;fill:#C8B18B;" d="M253.297,353.036c0,1.201-0.977,2.183-2.185,2.183v106.135h15.507
				c0,0,3.458-21.896,0.23-29.044c-2.734-6.054-8.041-10.565-13.065-11.607l2.623-70.475c0,0,0.724-3.593-5.295-3.705v4.326
				C252.32,350.85,253.297,351.827,253.297,353.036z M258.727,437.44c0-0.874,0.68-1.589,1.509-1.589
				c0.831,0,1.511,0.715,1.511,1.589v18.504c0,0.871-0.68,1.588-1.511,1.588c-0.829,0-1.509-0.717-1.509-1.588V437.44z
				 M254.153,430.361c0.829,0,1.509,0.716,1.509,1.589v23.993c0,0.871-0.68,1.588-1.509,1.588c-0.83,0-1.509-0.717-1.509-1.588
				V431.95C252.644,431.077,253.323,430.361,254.153,430.361z"/>
		</g>
		<g>
			<path style="fill:#C8B18B;" d="M220.666,430.927c0,0-0.31-2.268-1.855-3.299c-1.432-0.955-9.193-7.549-10.663-10.073
				l2.569-67.326c0,0,0.724-3.593-5.294-3.705c-6.018,0.112-5.296,3.705-5.296,3.705l2.571,67.332
				c-1.475,2.528-9.229,9.116-10.66,10.067c-1.545,1.031-1.855,3.299-1.855,3.299s-1.133,21.419-1.133,24.711
				c0,3.298,3.191,3.193,3.191,3.193h13.182h13.182c0,0,3.193,0.104,3.193-3.193C221.8,452.346,220.666,430.927,220.666,430.927z
				 M205.424,350.85c1.207,0,2.184,0.978,2.184,2.186c0,1.201-0.977,2.183-2.184,2.183c-1.206,0-2.184-0.981-2.184-2.183
				C203.24,351.827,204.218,350.85,205.424,350.85z"/>
			<path style="opacity:0.3;fill:#C8B18B;" d="M207.607,353.036c0,1.201-0.977,2.183-2.184,2.183v103.612h0.001h13.182
				c0,0,3.193,0.104,3.193-3.193c0-3.292-1.134-24.711-1.134-24.711s-0.31-2.268-1.855-3.299
				c-1.432-0.955-9.193-7.549-10.663-10.073l2.569-67.326c0,0,0.724-3.593-5.294-3.705v4.326
				C206.631,350.85,207.607,351.827,207.607,353.036z"/>
		</g>
		<g>
			<path style="fill:#C8B18B;" d="M164.276,414.065l2.436-63.837c0,0,0.722-3.593-5.296-3.705c-6.018,0.112-5.294,3.705-5.294,3.705
				l2.437,63.809c-10.942,1.063-15.519,12.116-13.098,29.777c2.616,19.082,15.852,17.851,15.852,17.851s13.236,1.231,15.852-17.851
				C179.572,426.263,175.065,415.253,164.276,414.065z M161.417,350.85c1.208,0,2.185,0.978,2.185,2.186
				c0,1.201-0.977,2.183-2.185,2.183c-1.205,0-2.183-0.981-2.183-2.183C159.234,351.827,160.212,350.85,161.417,350.85z"/>
			<path style="opacity:0.2;fill:#FFFFFF;" d="M161.313,420.484c-9.387-0.446-13.411,7.824-11.51,21.684
				c1.898,13.858,11.51,12.965,11.51,12.965s9.611,0.894,11.512-12.965C174.725,428.309,170.702,420.038,161.313,420.484z"/>
			<path style="opacity:0.3;fill:#C8B18B;" d="M163.602,353.036c0,1.201-0.977,2.183-2.185,2.183v106.454
				c1.196,0.067,13.263,0.274,15.748-17.858c2.407-17.552-2.1-28.562-12.889-29.749l2.436-63.837c0,0,0.722-3.593-5.296-3.705v4.326
				C162.625,350.85,163.602,351.827,163.602,353.036z"/>
		</g>
	</g>
	<g>
		<g>
			<g>
				<path style="fill:#323232;" d="M356.034,47.941c0.411-3.983,0.824-9.497-7.622-8.883c-8.447-0.614-8.034,4.9-7.623,8.883
					c0.412,3.983,2.47,21.14,2.679,35.234c0.206,14.095-2.356,28.495-2.356,28.495h7.301h7.297c0,0-2.559-14.4-2.353-28.495
					C353.563,69.081,355.622,51.925,356.034,47.941z M348.413,47.709c-1.415,0-2.561-1.144-2.561-2.559
					c0-1.415,1.146-2.561,2.561-2.561c1.415,0,2.56,1.146,2.56,2.561C350.973,46.565,349.828,47.709,348.413,47.709z"/>
				<path style="opacity:0.3;fill:#323232;" d="M348.412,39.058c-1.659-0.122-2.969,0-4.012,0.295
					c1.412,0.285,2.657,1.491,3.68,3.269c0.11-0.012,0.219-0.032,0.333-0.032c1.415,0,2.56,1.146,2.56,2.561
					c0,0.859-0.426,1.615-1.075,2.077c1.225,4.595,1.499,10.476,0.366,15.734c-2.184,10.124,1.734,33.535-1.144,35.07
					c-2.876,1.535-6.208-0.791-6.208-0.791l-0.003,0.002c-0.699,8.229-1.798,14.428-1.798,14.428h7.301h7.297
					c0,0-2.559-14.4-2.353-28.495c0.206-14.095,2.266-31.251,2.678-35.234C356.445,43.959,356.858,38.444,348.412,39.058z"/>
			</g>
			<g>
				<path style="fill:#808285;" d="M355.71,110.398c0,0.698-0.572,1.273-1.27,1.273h-12.409c-0.699,0-1.271-0.575-1.271-1.273
					v-7.784c0-0.696,0.571-1.27,1.271-1.27h12.409c0.697,0,1.27,0.574,1.27,1.27V110.398z"/>
				<path style="opacity:0.3;fill:#808285;" d="M354.44,101.344h-6.206v10.326h6.206c0.697,0,1.27-0.575,1.27-1.273v-7.784
					C355.71,101.918,355.138,101.344,354.44,101.344z"/>
			</g>
		</g>
		<g>
			<g>
				<g>
					<path style="fill:#6D6E71;" d="M394.014,153.384c0,25.184-20.416,45.601-45.602,45.601
						c-25.185,0.004-45.603-20.417-45.603-45.601c0-25.185,20.418-45.604,45.603-45.604
						C373.598,107.779,394.014,128.196,394.014,153.384z"/>
				</g>
				<path style="fill:#414042;" d="M391.672,153.384c0,23.891-19.367,43.259-43.26,43.259c-23.893,0-43.259-19.368-43.259-43.259
					c0-23.891,19.366-43.259,43.259-43.259C372.305,110.125,391.672,129.493,391.672,153.384z"/>
				<path style="fill:#141414;" d="M380.646,153.384c0,17.805-14.434,32.234-32.234,32.234c-17.804,0-32.235-14.43-32.235-32.234
					c0-17.803,14.432-32.234,32.235-32.234C366.213,121.149,380.646,135.581,380.646,153.384z"/>
			</g>
			<path style="opacity:0.3;fill:#6D6E71;" d="M394.014,153.384c0-25.188-20.416-45.604-45.602-45.604v91.205
				C373.598,198.984,394.014,178.567,394.014,153.384z"/>
		</g>
	</g>
	<g>
		<g>
			<path style="fill:#BCA179;" d="M428.274,199.678c-7.976-0.265-6.258-9.365-4.669-16.511c1.588-7.145,0.732-14.899,0.732-14.899
				h3.936h3.939c0,0-0.858,7.753,0.729,14.899C434.53,190.313,436.251,199.413,428.274,199.678z"/>
			<path style="opacity:0.3;fill:#BCA179;" d="M432.942,183.167c-1.588-7.145-0.729-14.899-0.729-14.899h-3.939h-3.936
				c0,0,0.084,0.78,0.152,2.073l0,0c6.153,0.217,5.164,4.944,5.164,10.503c0,5.559,3.176,9.329,0.794,14.492
				c-2.367,5.127-7.541,0.825-7.612,0.763c0.764,2.081,2.389,3.479,5.439,3.58C436.251,199.413,434.53,190.313,432.942,183.167z"/>
		</g>
		<g>
			<g>
				<path style="fill:#BCA179;" d="M428.274,38.317c-7.976,0.265-6.258,9.365-4.669,16.511c1.588,7.147,0.732,14.901,0.732,14.901
					h3.936h3.939c0,0-0.858-7.754,0.729-14.901C434.53,47.682,436.251,38.583,428.274,38.317z"/>
			</g>
			<path style="opacity:0.3;fill:#BCA179;" d="M432.942,54.829c1.588-7.146,3.309-16.246-4.668-16.511
				c-1.11,0.037-2.017,0.26-2.776,0.611c5.874,0.645,5.848,8.693,4.621,13.224c-1.225,4.538,1.877,11.285-0.611,14.47
				c-2.486,3.184-4.975,0-4.975,0v0.003c-0.066,1.892-0.195,3.104-0.195,3.104h3.936h3.939
				C432.213,69.73,431.354,61.976,432.942,54.829z"/>
		</g>
		<g>
			<path style="fill:#C8B18B;" d="M440.452,166.113c0,1.748-1.431,3.175-3.176,3.175h-18.001c-1.747,0-3.176-1.427-3.176-3.175
				V72.675c0-1.748,1.429-3.176,3.176-3.176h18.001c1.745,0,3.176,1.428,3.176,3.176V166.113z"/>
			<path style="opacity:0.3;fill:#C8B18B;" d="M419.275,169.288h18.001c1.745,0,3.176-1.427,3.176-3.175V72.675
				c0-1.748-1.431-3.176-3.176-3.176h-15.001c2.841,0.991,7.268,5.073,11.35,19.497c6.709,23.695,2.382,70.143-5.559,73.318
				c-7.941,3.176-11.967-3.175-11.967-3.175v6.973C416.1,167.861,417.528,169.288,419.275,169.288z"/>
		</g>
	</g>
	<g>
		<g>
			<g>
				<path style="fill:#D1D3D4;" d="M114.739,267.381h23.667c0,0,1.358,0.115,1.358,2.171h8.406v-71.519l-33.057-0.542
					C115.114,197.491,111.296,244.348,114.739,267.381z"/>
				<path style="fill:#FFFFFF;" d="M118.576,197.548l-3.462-0.057c0,0-3.818,46.856-0.375,69.89h3.837
					C118.576,267.381,114.385,249.147,118.576,197.548z"/>
				<rect x="145.655" y="198.033" style="fill:#A7A9AC;" width="2.516" height="71.519"/>
			</g>
			<path style="opacity:0.4;fill:#BCBEC0;" d="M148.171,198.033l-20.975-0.343c30.175,28.423,14.889,62.499,4.367,65.874
				c-10.501,3.367-17.692-4.778-17.724-4.813c0.219,3.108,0.511,6.026,0.9,8.63h23.667c0,0,1.358,0.115,1.358,2.171h8.406V198.033z"
				/>
		</g>
		<g>
			<g>
				<path style="fill:#323232;" d="M148.171,307.71c0-0.02,0-38.158,0-38.158h-9.167v34.524c-0.898,0.952-1.457,2.227-1.457,3.634
					c0,2.937,2.38,5.314,5.314,5.314C145.792,313.024,148.171,310.647,148.171,307.71z"/>
				<g>
					<path style="fill:#6D6E71;" d="M143.723,279.516c-0.747,0-1.355-0.612-1.355-1.362c0-0.752,0.608-1.359,1.355-1.359
						c0.75,0,1.361,0.607,1.361,1.359C145.084,278.903,144.473,279.516,143.723,279.516z"/>
					<g>
						<path style="fill:#6D6E71;" d="M143.723,291.379c-0.747,0-1.355-0.609-1.355-1.361c0-0.75,0.608-1.358,1.355-1.358
							c0.75,0,1.361,0.608,1.361,1.358C145.084,290.77,144.473,291.379,143.723,291.379z"/>
						<path style="fill:#6D6E71;" d="M143.723,303.243c-0.747,0-1.355-0.607-1.355-1.357c0-0.751,0.608-1.358,1.355-1.358
							c0.75,0,1.361,0.607,1.361,1.358C145.084,302.636,144.473,303.243,143.723,303.243z"/>
					</g>
				</g>
			</g>
			<path style="opacity:0.3;fill:#323232;" d="M142.931,307.436c-2.943,3.021-5.232-0.027-5.331-0.261
				c-0.018,0.179-0.053,0.352-0.053,0.535c0,2.937,2.38,5.314,5.314,5.314c2.932,0,5.311-2.378,5.311-5.314
				c0-0.02,0-38.158,0-38.158h-9.167C147.246,271.305,150.276,299.891,142.931,307.436z"/>
		</g>
	</g>
	<g>
		<g>
			<g>
				<path style="fill:#D1D3D4;" d="M187.454,269.552v-63.696c0,0-9.846,6.12-10.488,25.196c-0.634,18.907-0.131,36.33-0.131,36.33
					h1.248c0,0,0.964,0.115,0.964,2.171H187.454z"/>
				<path style="fill:#FFFFFF;" d="M179.138,218.313c-1.143,3.398-1.998,7.58-2.172,12.738c-0.634,18.907-0.131,36.33-0.131,36.33
					h1.248c0,0,0.838,0.123,0.943,1.825h0.111V218.313z"/>
				<path style="fill:#A7A9AC;" d="M185.44,269.552h2.014v-63.696c0,0-0.832,0.533-2.014,1.714V269.552z"/>
			</g>
			<path style="opacity:0.4;fill:#BCBEC0;" d="M187.454,205.856c0,0-2.936,1.848-5.706,6.609c0.017,0.028,0.025,0.053,0.041,0.08
				c4.963,8.735,3.375,48.042,0.794,51.615c-2.546,3.524-5.742-0.095-5.824-0.19c0.039,2.168,0.076,3.412,0.076,3.412h1.248
				c0,0,0.964,0.115,0.964,2.171h8.407V205.856z"/>
		</g>
		<g>
			<g>
				<path style="fill:#323232;" d="M187.454,307.71c0-0.02,0-38.158,0-38.158h-9.167v34.524c-0.9,0.952-1.457,2.227-1.457,3.634
					c0,2.937,2.379,5.314,5.313,5.314C185.074,313.024,187.454,310.647,187.454,307.71z"/>
				<g>
					<path style="fill:#6D6E71;" d="M183.005,279.516c-0.747,0-1.355-0.612-1.355-1.362c0-0.752,0.608-1.359,1.355-1.359
						c0.75,0,1.362,0.607,1.362,1.359C184.367,278.903,183.755,279.516,183.005,279.516z"/>
					<g>
						<path style="fill:#6D6E71;" d="M183.005,291.379c-0.747,0-1.355-0.609-1.355-1.361c0-0.75,0.608-1.358,1.355-1.358
							c0.75,0,1.362,0.608,1.362,1.358C184.367,290.77,183.755,291.379,183.005,291.379z"/>
						<path style="fill:#6D6E71;" d="M183.005,303.243c-0.747,0-1.355-0.607-1.355-1.357c0-0.751,0.608-1.358,1.355-1.358
							c0.75,0,1.362,0.607,1.362,1.358C184.367,302.636,183.755,303.243,183.005,303.243z"/>
					</g>
				</g>
			</g>
			<path style="opacity:0.3;fill:#323232;" d="M182.214,307.436c-2.943,3.021-5.233-0.027-5.332-0.261
				c-0.018,0.179-0.052,0.352-0.052,0.535c0,2.937,2.379,5.314,5.313,5.314c2.932,0,5.311-2.378,5.311-5.314
				c0-0.02,0-38.158,0-38.158h-9.167C186.528,271.305,189.56,299.891,182.214,307.436z"/>
		</g>
	</g>
	<g>
		<g>
			<g>
				<path style="fill:#D1D3D4;" d="M213.732,267.381h7.845c0,0,1.358,0.115,1.358,2.171h8.406v-63.696l-17.234-8.364
					C214.107,197.491,210.286,244.348,213.732,267.381z"/>
				<polygon style="fill:#A7A9AC;" points="229.329,269.552 231.342,269.552 231.342,205.856 229.329,204.879 				"/>
				<path style="fill:#FFFFFF;" d="M216.908,198.852l-2.801-1.361c0,0-3.821,46.856-0.375,69.89h2.683
					C213.931,242.773,216.006,210.495,216.908,198.852z"/>
			</g>
			<path style="opacity:0.4;fill:#BCBEC0;" d="M222.935,269.552h8.406v-63.696l-11.79-5.721c-0.145,0.061-0.242,0.101-0.242,0.101
				c12.11,13.897,9.528,60.747,5.161,63.726c-4.098,2.793-10.549-1.048-11.338-1.537c0.171,1.743,0.367,3.407,0.6,4.957h7.845
				C221.577,267.381,222.935,267.496,222.935,269.552z"/>
		</g>
		<g>
			<g>
				<path style="fill:#323232;" d="M231.342,307.71c0-0.02,0-38.158,0-38.158h-9.167v34.524c-0.898,0.952-1.457,2.227-1.457,3.634
					c0,2.937,2.38,5.314,5.313,5.314S231.342,310.647,231.342,307.71z"/>
				<g>
					<path style="fill:#6D6E71;" d="M226.894,279.516c-0.747,0-1.355-0.612-1.355-1.362c0-0.752,0.608-1.359,1.355-1.359
						c0.75,0,1.361,0.607,1.361,1.359C228.255,278.903,227.644,279.516,226.894,279.516z"/>
					<g>
						<path style="fill:#6D6E71;" d="M226.894,291.379c-0.747,0-1.355-0.609-1.355-1.361c0-0.75,0.608-1.358,1.355-1.358
							c0.75,0,1.361,0.608,1.361,1.358C228.255,290.77,227.644,291.379,226.894,291.379z"/>
						<path style="fill:#6D6E71;" d="M226.894,303.243c-0.747,0-1.355-0.607-1.355-1.357c0-0.751,0.608-1.358,1.355-1.358
							c0.75,0,1.361,0.607,1.361,1.358C228.255,302.636,227.644,303.243,226.894,303.243z"/>
					</g>
				</g>
			</g>
			<path style="opacity:0.3;fill:#323232;" d="M226.102,307.436c-2.943,3.021-5.232-0.027-5.331-0.261
				c-0.018,0.179-0.053,0.352-0.053,0.535c0,2.937,2.38,5.314,5.313,5.314s5.312-2.378,5.312-5.314c0-0.02,0-38.158,0-38.158h-9.167
				C230.417,271.305,233.448,299.891,226.102,307.436z"/>
		</g>
	</g>
	<g>
		<g>
			<g>
				<path style="fill:#D1D3D4;" d="M269.712,269.552v-63.696c0,0-13.093,5.908-14.507,24.772
					c-1.157,15.432-0.854,36.754-0.854,36.754h5.599c0,0,1.356,0.115,1.356,2.171H269.712z"/>
				<path style="fill:#A7A9AC;" d="M267.698,269.552h2.014v-63.696c0,0-0.798,0.363-2.014,1.184V269.552z"/>
				<path style="fill:#FFFFFF;" d="M257.286,220.781c-1.027,2.804-1.796,6.052-2.081,9.847c-1.157,15.432-0.854,36.754-0.854,36.754
					h2.935V220.781z"/>
			</g>
			<path style="opacity:0.4;fill:#BCBEC0;" d="M254.352,267.381h5.599c0,0,1.356,0.115,1.356,2.171h8.405v-63.696
				c0,0-4.745,2.172-8.834,8.001c7.008,8.664,7.86,43.356,2.305,47.92c-5.559,4.565-8.865-0.596-8.865-0.596v0.001
				C254.317,264.966,254.352,267.381,254.352,267.381z"/>
		</g>
		<g>
			<g>
				<path style="fill:#323232;" d="M269.712,307.71c0-0.02,0-38.158,0-38.158h-9.166v34.524c-0.897,0.952-1.458,2.227-1.458,3.634
					c0,2.937,2.379,5.314,5.314,5.314C267.332,313.024,269.712,310.647,269.712,307.71z"/>
				<g>
					<path style="fill:#6D6E71;" d="M265.268,279.516c-0.752,0-1.359-0.612-1.359-1.362c0-0.752,0.607-1.359,1.359-1.359
						c0.75,0,1.358,0.607,1.358,1.359C266.626,278.903,266.018,279.516,265.268,279.516z"/>
					<g>
						<path style="fill:#6D6E71;" d="M265.268,291.379c-0.752,0-1.359-0.609-1.359-1.361c0-0.75,0.607-1.358,1.359-1.358
							c0.75,0,1.358,0.608,1.358,1.358C266.626,290.77,266.018,291.379,265.268,291.379z"/>
						<path style="fill:#6D6E71;" d="M265.268,303.243c-0.752,0-1.359-0.607-1.359-1.357c0-0.751,0.607-1.358,1.359-1.358
							c0.75,0,1.358,0.607,1.358,1.358C266.626,302.636,266.018,303.243,265.268,303.243z"/>
					</g>
				</g>
			</g>
			<path style="opacity:0.3;fill:#323232;" d="M264.473,307.436c-2.943,3.021-5.232-0.027-5.332-0.261
				c-0.018,0.179-0.053,0.352-0.053,0.535c0,2.937,2.379,5.314,5.314,5.314c2.931,0,5.31-2.378,5.31-5.314c0-0.02,0-38.158,0-38.158
				h-9.166C268.787,271.305,271.818,299.891,264.473,307.436z"/>
		</g>
	</g>
	<g>
		<g>
			<g>
				<rect x="399.831" y="328.487" style="fill:#58595B;" width="7.864" height="2.752"/>
				<rect x="300.957" y="323.722" style="fill:#6D6E71;" width="102.472" height="2.121"/>
			</g>
			<g>
				<path style="fill:#414042;" d="M352.417,325.843h-51.46c0,0,2.061,10.29,5.719,15.32c3.663,5.032,14.412,3.889,14.412,3.889
					h31.329h31.06c0,0,10.658,1.143,14.284-3.889c3.627-5.03,5.668-15.32,5.668-15.32H352.417z"/>
				<path style="opacity:0.2;fill:#414042;" d="M377.969,339.106c-9.671,4.98-52.449,5.945-52.449,5.945h26.897h31.06
					c0,0,10.658,1.143,14.284-3.889c3.627-5.03,5.668-15.32,5.668-15.32h-51.012h-11.954
					C366.247,325.843,387.639,334.126,377.969,339.106z"/>
			</g>
		</g>
		<g>
			<g>
				<path style="fill:#9CCDAC;" d="M406.454,335.601c2.88,0,7.344-0.259,9.44-1.391c0.691-0.371,1.517-0.921,2.758-1.753
					c4.972-3.33,11.476-8.95,21.69-8.292c13.103,0.847,19.196,2.911,19.233,2.926c2.573,0.921,5.425-0.424,6.346-3.008
					c0.924-2.58-0.422-5.42-3.005-6.346c-0.288-0.1-7.229-2.532-21.934-3.478c-13.557-0.861-20.639,6.056-26.453,9.948
					c-0.878,0.592-1.816,1.046-2.125,1.216c-0.402,0.159-4.934,0.253-5.951,0.291V335.601z"/>
			</g>
			<path style="opacity:0.3;fill:#9CCDAC;" d="M415.895,334.21c0.691-0.371,1.517-0.921,2.758-1.753
				c4.972-3.33,11.476-8.95,21.69-8.292c13.103,0.847,19.196,2.911,19.233,2.926c2.573,0.921,5.425-0.424,6.346-3.008
				c0.924-2.58-0.422-5.42-3.005-6.346c-0.153-0.056-2.301-0.803-6.587-1.619c0.046,0.021,5.214,2.569,3.465,5.484
				c-1.757,2.935-8.643,1.904-18.458,0.588c-9.815-1.318-15.529,3.076-21.391,6.888c-5.859,3.808-7.911,3.659-10.108,3.659
				s-3.384-7.023-3.384-7.023v9.887C409.334,335.601,413.798,335.342,415.895,334.21z"/>
		</g>
	</g>
	<g>
		<g>
			<g>
				<rect x="394.434" y="251.501" style="fill:#58595B;" width="7.864" height="2.751"/>
			</g>
			<g>
				<g>
					<path style="fill:#414042;" d="M398.236,258.711c2.881,0,7.344-0.261,9.44-1.392c0.692-0.37,1.515-0.92,2.757-1.753
						c4.972-3.329,11.477-8.948,21.691-8.289c13.102,0.844,19.197,2.911,19.232,2.923c2.573,0.919,5.426-0.422,6.346-3.006
						c0.925-2.581-0.42-5.423-3.004-6.346c-0.288-0.104-7.228-2.532-21.934-3.48c-13.556-0.862-20.638,6.055-26.452,9.947
						c-0.88,0.59-1.817,1.047-2.125,1.218c-0.402,0.154-4.936,0.251-5.952,0.287V258.711z"/>
				</g>
				<path style="opacity:0.2;fill:#414042;" d="M407.677,257.319c0.692-0.37,1.515-0.92,2.757-1.753
					c4.972-3.329,11.477-8.948,21.691-8.289c13.102,0.844,19.197,2.911,19.232,2.923c2.573,0.919,5.426-0.422,6.346-3.006
					c0.925-2.581-0.42-5.423-3.004-6.346c-0.155-0.056-2.303-0.803-6.588-1.623c0.047,0.024,5.215,2.571,3.467,5.489
					c-1.758,2.931-8.643,1.905-18.46,0.586c-9.815-1.318-15.529,3.077-21.389,6.886c-5.86,3.811-7.912,3.664-10.108,3.664
					c-2.197,0-3.385-7.029-3.385-7.029v9.889C401.117,258.711,405.58,258.45,407.677,257.319z"/>
			</g>
		</g>
		<g>
			<g>
				<g>
					<g>
						<path style="fill:#414042;" d="M346.354,232.74c0-3.524,2.523-6.379,5.637-6.379c3.111,0,5.635,2.855,5.635,6.379l7.027,1.18
							c0-6.24-5.667-11.299-12.662-11.299c-6.991,0-12.664,5.059-12.664,11.299L346.354,232.74z"/>
						<path style="opacity:0.3;fill:#414042;" d="M346.354,232.74c0-3.524,2.523-6.379,5.637-6.379c3.111,0,5.635,2.855,5.635,6.379
							l7.027,1.18c0-2.521-0.956-4.823-2.517-6.702c1.808,3.163-0.252,4.655-2.454,4.361c-2.234-0.3-2.313-4.768-5.888-5.663
							c-3.576-0.892-6.107,1.713-7.151,3.055c-1.044,1.34-1.264,2.086-3.946,2.755c-2.28,0.569-2.73-0.578-2.816-0.939
							c-0.324,1.004-0.554,2.037-0.554,3.132L346.354,232.74z"/>
					</g>
					<path style="fill:#323232;" d="M367.782,235.026c0,1.554-7.07,2.816-15.791,2.816c-8.723,0-15.794-1.263-15.794-2.816
						c0-1.555,7.071-2.819,15.794-2.819C360.712,232.207,367.782,233.472,367.782,235.026z"/>
				</g>
				<path style="fill:#9CCDAC;" d="M308.818,244.536v38.665c0,5.156,4.216,9.374,9.375,9.374h67.597
					c5.154,0,9.376-4.218,9.376-9.374v-38.665H308.818z"/>
				<path style="fill:#D1D3D4;" d="M392.734,242.724h-40.743h-40.738c-2.802,0-2.425,1.812-2.425,1.812h43.163h43.165
					C395.156,244.536,395.536,242.724,392.734,242.724z"/>
				<path style="opacity:0.3;fill:#9CCDAC;" d="M367.572,279.336c-6.832,12.113-49.379,13.239-49.379,13.239h67.597
					c5.154,0,9.376-4.218,9.376-9.374v-38.665h-60.215C359.372,249.192,374.408,267.227,367.572,279.336z"/>
				<path style="opacity:0.3;fill:#FFFFFF;" d="M314.49,246.912h-3.378v36.22c0,2.646,1.347,4.99,3.378,6.402V246.912z"/>
			</g>
			<g>
				<path style="fill:#E6E7E8;" d="M379.335,236.288c-12.58-2.683-27.344-2.417-27.344-2.417s-14.767-0.266-27.341,2.417
					c-12.577,2.682-13.397,6.436-13.397,6.436h40.738h40.738C392.729,242.724,391.91,238.97,379.335,236.288z"/>
				<path style="opacity:0.3;fill:#FFFFFF;" d="M354.679,242.724h38.051c0,0-0.819-3.754-13.395-6.436
					c-2.822-0.603-5.751-1.048-8.599-1.392C385.597,241.661,354.679,242.724,354.679,242.724z"/>
			</g>
		</g>
	</g>
	<g>
		<g>
			<g>
				<g>
					<path style="fill:#414042;" d="M303.926,408.875h-15.566c0,0-2.897-0.27-2.555,2.426c0.229,1.781,3.224,2.783,8.205,2.958
						c4.98,0.177,11.486,1.624,11.486,1.624L303.926,408.875z"/>
					<path style="opacity:0.3;fill:#414042;" d="M303.926,408.875h-6.584c2.317,0,4.267,1.796,4.917,3.092
						c0.647,1.301-0.65,2.136-3.707,1.766c-3.04-0.371-6.072,0.426-6.111,0.436c0.502,0.04,1.02,0.074,1.569,0.091
						c4.98,0.177,11.486,1.624,11.486,1.624L303.926,408.875z"/>
				</g>
				<g>
					<path style="fill:#414042;" d="M417.947,408.875h15.566c0,0,2.898-0.27,2.555,2.426c-0.229,1.781-3.222,2.783-8.204,2.958
						c-4.982,0.177-11.486,1.624-11.486,1.624L417.947,408.875z"/>
					<path style="opacity:0.3;fill:#414042;" d="M417.947,408.875h6.585c-2.317,0-4.268,1.796-4.918,3.092
						c-0.645,1.301,0.65,2.136,3.708,1.766c3.041-0.371,6.07,0.426,6.113,0.436c-0.504,0.04-1.02,0.074-1.571,0.091
						c-4.982,0.177-11.486,1.624-11.486,1.624L417.947,408.875z"/>
				</g>
			</g>
			<g style="opacity:0.3;">
				<path style="fill:#414042;" d="M292.132,414.145c0.07,0.006,0.142,0.014,0.217,0.02L292.132,414.145z"/>
			</g>
			<g>
				<g>
					<path style="fill:#9CCDAC;" d="M360.961,402.404h-59.042c0,0,8.476,36.719,14.978,42.58c6.496,5.861,44.064,4.804,44.064,4.804
						s37.572,1.058,44.072-4.804c6.496-5.861,14.969-42.58,14.969-42.58H360.961z"/>
				</g>
				<path style="opacity:0.3;fill:#9CCDAC;" d="M385.356,438.376c-15.235,9.377-56.31,10.192-56.31,10.192v0.005
					c13.291,1.736,31.915,1.215,31.915,1.215s37.572,1.058,44.072-4.804c6.496-5.861,14.969-42.58,14.969-42.58h-59.041h-2.559
					C389.265,405.042,400.593,429.003,385.356,438.376z"/>
				<path style="opacity:0.2;fill:#FFFFFF;" d="M304.901,404.737h4.114c0,0,9.954,37.051,13.131,40.054c0,0-4.911-0.9-6.4-4.692
					C314.255,436.3,304.901,404.737,304.901,404.737z"/>
			</g>
		</g>
		<g>
			<g>
				<g>
					<g>
						<path style="fill:#414042;" d="M352.789,385.561c0-4.975,3.563-9.008,7.957-9.008c4.399,0,7.961,4.033,7.961,9.008l9.923,1.67
							c0-8.813-8.003-15.96-17.884-15.96c-9.876,0-17.888,7.146-17.888,15.96L352.789,385.561z"/>
						<path style="opacity:0.3;fill:#414042;" d="M352.789,385.561c0-4.975,3.563-9.008,7.957-9.008
							c4.399,0,7.961,4.033,7.961,9.008l9.923,1.67c0-3.561-1.351-6.814-3.554-9.466c2.552,4.467-0.358,6.572-3.472,6.156
							c-3.154-0.419-3.258-6.729-8.308-7.992c-5.05-1.262-8.627,2.42-10.1,4.313c-1.476,1.893-1.791,2.946-5.572,3.895
							c-3.224,0.798-3.859-0.821-3.983-1.329c-0.458,1.413-0.783,2.878-0.783,4.423L352.789,385.561z"/>
					</g>
					<path style="fill:#323232;" d="M383.049,388.792c0,2.197-9.984,3.978-22.303,3.978c-12.32,0-22.306-1.78-22.306-3.978
						s9.985-3.98,22.306-3.98C373.064,384.811,383.049,386.595,383.049,388.792z"/>
				</g>
				<g>
					<path style="fill:#E6E7E8;" d="M398.742,390.392c-17.522-3.907-38.084-3.515-38.084-3.515s-20.565-0.393-38.085,3.515
						c-17.517,3.907-18.661,9.378-18.661,9.378h56.746h56.744C417.402,399.77,416.258,394.299,398.742,390.392z"/>
					<path style="opacity:0.3;fill:#FFFFFF;" d="M373.634,399.77h43.768c0,0-1.145-5.471-18.66-9.378
						c-3.246-0.727-6.601-1.298-9.906-1.76C405.981,397.096,373.634,399.77,373.634,399.77z"/>
				</g>
			</g>
			<path style="fill:#D1D3D4;" d="M417.402,399.77h-56.748h-56.742c-3.905,0-3.384,2.635-3.384,2.635h60.126h60.128
				C420.782,402.404,421.309,399.77,417.402,399.77z"/>
		</g>
	</g>
	<g>
		<g>
			<g>
				<path style="fill:#A7A9AC;" d="M256.182,59.111c-0.788-1.673-2.658-5.669-4.947-7.099c-1.06-0.664-2.159-0.52-2.651-0.052
					c-0.531,0.509-0.437,1.539,0.251,2.759c1.569,2.775,5.169,4.015,7.651,4.844C256.362,59.432,256.261,59.282,256.182,59.111z
					 M252.431,50.004c2.835,1.773,5.232,6.768,5.498,7.329c0.326,0.698,0.025,1.526-0.67,1.854
					c-0.112,0.053-0.232,0.088-0.348,0.108c0.516,0.31,0.79,0.931,0.632,1.544c-0.191,0.745-0.951,1.195-1.693,1.005
					c-0.279-0.073-6.873-1.803-9.222-5.959c-1.213-2.147-1.101-4.231,0.3-5.573c0.761-0.724,1.776-1.093,2.84-1.094
					C250.663,49.219,251.59,49.478,252.431,50.004z"/>
			</g>
			<rect x="256.143" y="56.022" style="fill:#D1D3D4;" width="38.926" height="5.938"/>
		</g>
		<g>
			<path style="fill:#9CCDAC;" d="M295.068,61.961c0,0-0.859,6.046,4.713,14.754c5.574,8.709,11.052,17.57,9.66,22.796
				c-1.393,5.225-6.446,3.833-9.059,1.046c-2.613-2.787-4.007-6.62-4.878-4.878c-0.869,1.742,1.395,15.678-3.135,20.729
				c-4.529,5.049-17.76,11.385-35.183-1.045c-16.141-11.517-5.921-44.168-1.045-53.4H295.068z"/>
			<path style="opacity:0.3;fill:#9CCDAC;" d="M303.719,82.964c-0.036-0.029-7.835-6.013-9.909-11.198
				c-2.078-5.196-23.904-6.237-31.961,0.26c-8.055,6.496-14.09,33.351,0.881,46.816c-1.798-0.937-3.647-2.058-5.55-3.416
				c-16.161-11.529-5.93-44.223-1.046-53.466h38.974c0,0-0.862,6.053,4.718,14.773C301.162,78.818,302.489,80.913,303.719,82.964z"
				/>
		</g>
	</g>
</g>
</svg>
