<?xml version="1.0" encoding="utf-8"?>
<!-- Generator: Adobe Illustrator 27.5.0, SVG Export Plug-In . SVG Version: 6.00 Build 0)  -->
<svg version="1.1" xmlns="http://www.w3.org/2000/svg" xmlns:xlink="http://www.w3.org/1999/xlink" x="0px" y="0px"
	 viewBox="0 0 750 500" style="enable-background:new 0 0 750 500;" xml:space="preserve">
<g id="BACKGROUND">
	<rect style="opacity:0.08;fill:#9EE0EB;" width="750" height="500"/>
	<circle style="opacity:0.51;fill:#9EE0EB;" cx="347.869" cy="186.542" r="102.727"/>
	
		<path style="opacity:0.18;fill:none;stroke:#9EE0EB;stroke-width:2;stroke-linecap:round;stroke-miterlimit:10;stroke-dasharray:5;" d="
		M176.317,407.019c-8.207-13.737-25.156-19.011-40.602-23.19c-3.884-1.051-7.953-2.108-11.882-1.242s-7.602,4.33-7.24,8.337
		c0.361,4.007,6.314,6.572,8.734,3.358c2.02-6.63-2.033-13.827-7.601-17.955c-5.567-4.128-12.423-6.01-18.891-8.501
		c-34.238-13.184-59.743-46.659-63.366-83.168c-0.759-7.65-0.566-15.674,2.768-22.602c3.334-6.928,10.435-12.473,18.111-12.034
		c7.675,0.439,14.596,8.431,12.34,15.78c-4.921,3.088-11.888-0.327-14.38-5.575c-2.492-5.248-1.646-11.445-0.156-17.06
		c5.076-19.125,16.86-36.005,21.443-55.254c7.129-29.946-3.412-64.133,12.317-90.595c3.675-6.183,9.776-12.048,16.942-11.435
		c7.166,0.613,11.874,11.582,5.695,15.263c-4.239,2.525-10.098-0.611-11.959-5.181c-1.861-4.569-0.747-9.8,0.994-14.416
		c8.019-21.255,28.512-36.041,50.431-42.015s45.202-4.253,67.614-0.535c19.877,3.297,39.499,8.128,58.635,14.437
		c32.711,10.783,66.049,26.123,100.073,20.772c8.745-1.375,17.575-4.299,23.999-10.39c6.424-6.091,9.88-15.882,6.65-24.125
		c-8.681-0.36-10.814,13.782-4.193,19.407s16.311,5.01,24.984,4.489c25.857-1.555,51.929,0.496,77.225,6.073
		c28.006,6.175,57.311,18.583,70.839,43.871"/>
	
		<path style="opacity:0.18;fill:none;stroke:#9EE0EB;stroke-width:2;stroke-linecap:round;stroke-miterlimit:10;stroke-dasharray:5;" d="
		M194.449,419.723c3.039,18.074,19.596,32.947,37.892,34.035c6.887,0.41,14.17-1.105,19.38-5.627
		c5.21-4.523,7.728-12.463,4.699-18.661c-6.409-1.482-13.093-1.761-19.603-0.82c-2.172,0.314-4.443,0.821-6.058,2.307
		c-4.916,4.524,0.102,12.557,5.352,16.69c23.268,18.32,54.228,26.529,83.516,22.144c18.699-2.799,36.305-10.393,54.59-15.203
		c36.473-9.595,74.834-7.953,112.51-6.242c7.99,0.363,17.024,1.236,21.962,7.529c6.354,8.099-0.376,22.329-10.668,22.554
		c-2.381,0.052-4.982-0.657-6.331-2.62c-1.969-2.866-0.393-6.811,1.648-9.626c13.881-19.15,42.032-18.31,65.645-16.955
		c28.256,1.621,58.119,0.794,82.565-13.468c24.447-14.262,40.788-45.952,29.19-71.77c-3.228-7.185-8.306-13.405-11.682-20.522
		c-4.207-8.868-5.625-19.035-4.006-28.716c1.384-8.268,7.855-17.705,15.95-15.524c-1.373,3.66-5.195,6.252-9.103,6.175
		c0.71-20.395,26.725-36.749,19.884-55.975c-2.87-8.067-10.796-13.023-18.184-17.352c-3.081-1.805-6.618-3.677-10.051-2.691
		c-3.433,0.986-5.1,6.546-1.858,8.044c1.875,2.643,6.319,1.832,8.372-0.674c2.053-2.506,2.434-5.935,2.915-9.139
		c2.144-14.293,7.836-27.793,13.945-40.892c4.882-10.468,10.117-20.955,12.245-32.307c2.129-11.352,0.732-23.955-6.551-32.919
		c-7.302-8.987-19.529-12.948-31.096-12.412c-11.567,0.536-22.597,5.041-32.8,10.517c-10.463,5.616-22.461,12.528-33.42,7.955"/>
</g>
<g id="OBJECTS">
	<path style="opacity:0.74;fill:#9EE0EB;" d="M376.312,285.827c0-27.374-22.191-49.566-49.566-49.566
		c-5.823,0-11.408,1.013-16.599,2.858c-4.347-30.596-30.636-54.127-62.432-54.127c-31.532,0-57.657,23.138-62.329,53.361
		c-0.249-0.004-0.496-0.019-0.746-0.019c-27.204,0-49.279,21.918-49.553,49.058c-13.633,6.744-23.012,20.787-23.012,37.027
		c0,17.693,11.131,32.78,26.77,38.658c7.412,15.521,23.252,26.246,41.599,26.246h134.545c25.447,0,46.077-20.629,46.077-46.077v0
		c0-6.529-1.366-12.737-3.815-18.365C368.848,315.808,376.312,301.693,376.312,285.827z"/>
	<path style="opacity:0.51;fill:#9EE0EB;" d="M611.916,250.26h-22.512c0.284-1.56,0.44-3.165,0.44-4.807
		c0-13.835-10.518-25.214-23.995-26.576c-4.736-19.448-22.267-33.886-43.172-33.886c-21.689,0-39.745,15.54-43.65,36.091
		c-0.611-0.042-1.225-0.071-1.846-0.071c-14.753,0-26.713,11.96-26.713,26.713c0,1.486,0.127,2.941,0.36,4.361
		c-9.08,3.693-15.484,12.599-15.484,23.006v0c0,13.714,11.118,24.832,24.832,24.832h151.74c13.714,0,24.832-11.118,24.832-24.832v0
		C636.749,261.377,625.631,250.26,611.916,250.26z"/>
	<path style="fill:#B9E9F5;stroke:#412351;stroke-width:2;stroke-linecap:round;stroke-miterlimit:10;" d="M216.767,99.808v56.52
		c0,0.509,0.413,0.922,0.922,0.922h21.092c0.509,0,0.922,0.413,0.922,0.922v11.672c0,0.509-0.413,0.922-0.922,0.922H200.18
		c-0.509,0-0.922-0.413-0.922-0.922V99.808c0-0.509,0.413-0.922,0.922-0.922h15.666C216.354,98.886,216.767,99.299,216.767,99.808z"
		/>
	<path style="fill:#B9E9F5;stroke:#412351;stroke-width:2;stroke-linecap:round;stroke-miterlimit:10;" d="M295.7,121.464h-24.676
		c-0.509,0-0.922,0.413-0.922,0.922v12.696c0,0.509,0.413,0.922,0.922,0.922h21.605c0.509,0,0.922,0.413,0.922,0.922v11.672
		c0,0.509-0.413,0.922-0.922,0.922h-21.605c-0.509,0-0.922,0.413-0.922,0.922v13.925c0,0.509,0.413,0.922,0.922,0.922H295.7
		c0.509,0,0.922,0.413,0.922,0.922v12.184c0,0.509-0.413,0.922-0.922,0.922h-42.185c-0.509,0-0.922-0.413-0.922-0.922v-70.037
		c0-0.509,0.413-0.922,0.922-0.922H295.7c0.509,0,0.922,0.413,0.922,0.922v12.184C296.622,121.051,296.21,121.464,295.7,121.464z"/>
	<path style="fill:#B9E9F5;stroke:#412351;stroke-width:2;stroke-linecap:round;stroke-miterlimit:10;" d="M352.076,166.215H326.57
		c-0.395,0-0.747,0.252-0.873,0.626l-3.876,11.444c-0.127,0.374-0.478,0.626-0.873,0.626h-16.353c-0.639,0-1.085-0.635-0.867-1.236
		l25.341-70.037c0.132-0.365,0.479-0.608,0.867-0.608h18.981c0.388,0,0.735,0.243,0.867,0.608l25.341,70.037
		c0.217,0.601-0.228,1.236-0.867,1.236h-16.559c-0.395,0-0.746-0.252-0.873-0.626l-3.876-11.444
		C352.822,166.467,352.471,166.215,352.076,166.215z M338.454,128.981l-7.531,22.503c-0.2,0.597,0.245,1.215,0.874,1.215h15.149
		c0.631,0,1.076-0.62,0.873-1.218l-7.618-22.503C339.918,128.141,338.734,128.143,338.454,128.981z"/>
	<path style="fill:#B9E9F5;stroke:#412351;stroke-width:2;stroke-linecap:round;stroke-miterlimit:10;" d="M412.848,105.625
		c17.612,0,26.418,10.137,26.418,22.629c0,8.707-4.59,16.937-14.877,20.438c-0.558,0.19-0.814,0.832-0.517,1.342l15.202,26.086
		c0.358,0.615-0.085,1.386-0.797,1.386h-17.613c-0.336,0-0.645-0.183-0.808-0.477l-14.424-26.18
		c-0.162-0.294-0.472-0.477-0.808-0.477h-2.732c-0.509,0-0.922,0.413-0.922,0.922v25.291c0,0.509-0.413,0.922-0.922,0.922h-15.665
		c-0.509,0-0.922-0.413-0.922-0.922v-70.037c0-0.509,0.413-0.922,0.922-0.922H412.848z M411.825,120.165h-9.932
		c-0.509,0-0.922,0.413-0.922,0.922v15.972c0,0.509,0.413,0.922,0.922,0.922h9.932c6.553,0,9.625-3.379,9.625-9.011
		C421.45,123.646,418.378,120.165,411.825,120.165z"/>
	<path style="fill:#B9E9F5;stroke:#412351;stroke-width:2;stroke-linecap:round;stroke-miterlimit:10;" d="M514.53,101.026v70.037
		c0,0.509-0.413,0.922-0.922,0.922h-16.091c-0.31,0-0.599-0.155-0.769-0.414l-27.321-41.362c-0.504-0.763-1.691-0.406-1.691,0.508
		v40.346c0,0.509-0.413,0.922-0.922,0.922h-15.665c-0.509,0-0.922-0.413-0.922-0.922v-70.037c0-0.509,0.413-0.922,0.922-0.922h16.09
		c0.31,0,0.6,0.156,0.77,0.415l27.32,41.552c0.503,0.765,1.692,0.409,1.692-0.507v-40.539c0-0.509,0.413-0.922,0.922-0.922h15.665
		C514.117,100.104,514.53,100.517,514.53,101.026z"/>
	<path style="fill:#FFD773;stroke:#412351;stroke-width:2;stroke-linecap:round;stroke-miterlimit:10;" d="M216.767,94.995v56.52
		c0,0.509,0.413,0.922,0.922,0.922h21.092c0.509,0,0.922,0.413,0.922,0.922v11.672c0,0.509-0.413,0.922-0.922,0.922H200.18
		c-0.509,0-0.922-0.413-0.922-0.922V94.995c0-0.509,0.413-0.922,0.922-0.922h15.666C216.354,94.073,216.767,94.486,216.767,94.995z"
		/>
	<path style="fill:#FFD773;stroke:#412351;stroke-width:2;stroke-linecap:round;stroke-miterlimit:10;" d="M295.7,116.651h-24.676
		c-0.509,0-0.922,0.413-0.922,0.922v12.696c0,0.509,0.413,0.922,0.922,0.922h21.605c0.509,0,0.922,0.413,0.922,0.922v11.672
		c0,0.509-0.413,0.922-0.922,0.922h-21.605c-0.509,0-0.922,0.413-0.922,0.922v13.925c0,0.509,0.413,0.922,0.922,0.922H295.7
		c0.509,0,0.922,0.413,0.922,0.922v12.184c0,0.509-0.413,0.922-0.922,0.922h-42.185c-0.509,0-0.922-0.413-0.922-0.922v-70.037
		c0-0.509,0.413-0.922,0.922-0.922H295.7c0.509,0,0.922,0.413,0.922,0.922v12.184C296.622,116.238,296.21,116.651,295.7,116.651z"/>
	<path style="fill:#FFD773;stroke:#412351;stroke-width:2;stroke-linecap:round;stroke-miterlimit:10;" d="M352.076,161.402H326.57
		c-0.395,0-0.747,0.252-0.873,0.626l-3.876,11.444c-0.127,0.374-0.478,0.626-0.873,0.626h-16.353c-0.639,0-1.085-0.635-0.867-1.236
		l25.341-70.037c0.132-0.365,0.479-0.608,0.867-0.608h18.981c0.388,0,0.735,0.243,0.867,0.608l25.341,70.037
		c0.217,0.601-0.228,1.236-0.867,1.236h-16.559c-0.395,0-0.746-0.252-0.873-0.626l-3.876-11.444
		C352.822,161.654,352.471,161.402,352.076,161.402z M338.454,124.168l-7.531,22.503c-0.2,0.597,0.245,1.215,0.874,1.215h15.149
		c0.631,0,1.076-0.62,0.873-1.218l-7.618-22.503C339.918,123.328,338.734,123.33,338.454,124.168z"/>
	<path style="fill:#FFD773;stroke:#412351;stroke-width:2;stroke-linecap:round;stroke-miterlimit:10;" d="M412.848,100.812
		c17.612,0,26.418,10.137,26.418,22.629c0,8.707-4.59,16.937-14.877,20.438c-0.558,0.19-0.814,0.832-0.517,1.342l15.202,26.086
		c0.358,0.615-0.085,1.386-0.797,1.386h-17.613c-0.336,0-0.645-0.183-0.808-0.477l-14.424-26.18
		c-0.162-0.294-0.472-0.477-0.808-0.477h-2.732c-0.509,0-0.922,0.413-0.922,0.922v25.291c0,0.509-0.413,0.922-0.922,0.922h-15.665
		c-0.509,0-0.922-0.413-0.922-0.922v-70.037c0-0.509,0.413-0.922,0.922-0.922H412.848z M411.825,115.352h-9.932
		c-0.509,0-0.922,0.413-0.922,0.922v15.972c0,0.509,0.413,0.922,0.922,0.922h9.932c6.553,0,9.625-3.379,9.625-9.011
		C421.45,118.833,418.378,115.352,411.825,115.352z"/>
	<path style="fill:#FFD773;stroke:#412351;stroke-width:2;stroke-linecap:round;stroke-miterlimit:10;" d="M514.53,96.213v70.037
		c0,0.509-0.413,0.922-0.922,0.922h-16.091c-0.31,0-0.599-0.155-0.769-0.414l-27.321-41.362c-0.504-0.763-1.691-0.406-1.691,0.508
		v40.346c0,0.509-0.413,0.922-0.922,0.922h-15.665c-0.509,0-0.922-0.413-0.922-0.922V96.213c0-0.509,0.413-0.922,0.922-0.922h16.09
		c0.31,0,0.6,0.156,0.77,0.415l27.32,41.552c0.503,0.765,1.692,0.409,1.692-0.507V96.213c0-0.509,0.413-0.922,0.922-0.922h15.665
		C514.117,95.291,514.53,95.704,514.53,96.213z"/>
	<g>
		<g>
			<path style="fill:#B9E9F5;stroke:#412351;stroke-width:2;stroke-linecap:round;stroke-miterlimit:10;" d="M493.556,412.427
				c-13.813,0-24.648-6.771-25.379-19.598c-0.016-0.28,0.213-0.522,0.494-0.522h15.926c0.246,0,0.446,0.189,0.478,0.433
				c0.602,4.713,3.699,6.984,8.019,6.984c4.635,0,7.602-2.317,7.602-6.119c0-12.052-32.542-5.563-32.356-28.647
				c0-12.331,10.105-19.191,23.734-19.191c13.983,0,23.461,6.846,24.351,18.942c0.021,0.283-0.209,0.528-0.492,0.528h-16.189
				c-0.249,0-0.449-0.192-0.477-0.439c-0.451-3.909-3.356-6.24-7.47-6.329c-3.801-0.093-6.675,1.854-6.675,5.934
				c0,11.312,32.171,6.212,32.171,27.999C517.29,403.341,508.761,412.427,493.556,412.427z"/>
			<path style="fill:#E181B1;stroke:#412351;stroke-width:2;stroke-miterlimit:10;" d="M493.556,407.199
				c-13.813,0-24.648-6.771-25.379-19.598c-0.016-0.28,0.213-0.522,0.494-0.522h15.926c0.246,0,0.446,0.189,0.478,0.433
				c0.602,4.713,3.699,6.984,8.019,6.984c4.635,0,7.602-2.317,7.602-6.119c0-12.052-32.542-5.563-32.356-28.647
				c0-12.331,10.105-19.191,23.734-19.191c13.983,0,23.461,6.846,24.351,18.942c0.021,0.283-0.209,0.528-0.492,0.528h-16.189
				c-0.249,0-0.449-0.192-0.477-0.439c-0.451-3.909-3.356-6.24-7.47-6.329c-3.801-0.093-6.675,1.854-6.675,5.934
				c0,11.312,32.171,6.212,32.171,27.999C517.29,398.113,508.761,407.199,493.556,407.199z"/>
			<g>
				
					<circle style="fill:#8D59AB;stroke:#412351;stroke-width:2;stroke-linecap:round;stroke-miterlimit:10;" cx="511.579" cy="349.566" r="15.869"/>
				
					<circle style="fill:#412351;stroke:#412351;stroke-width:2;stroke-linecap:round;stroke-miterlimit:10;" cx="507.601" cy="349.566" r="15.869"/>
			</g>
			<g>
				
					<circle style="fill:#8D59AB;stroke:#412351;stroke-width:2;stroke-linecap:round;stroke-miterlimit:10;" cx="343.27" cy="349.566" r="15.869"/>
				
					<circle style="fill:#412351;stroke:#412351;stroke-width:2;stroke-linecap:round;stroke-miterlimit:10;" cx="339.292" cy="349.566" r="15.869"/>
			</g>
			<path style="fill:#D80085;stroke:#412351;stroke-width:2;stroke-miterlimit:10;" d="M529.821,299.424v-84.565
				c0-19.423-15.746-35.169-35.169-35.169H282.431c-19.423,0-35.169,15.746-35.169,35.169v127.35c0,5.293,4.291,9.583,9.583,9.583
				h295.657c5.293,0,9.583-4.291,9.583-9.583v-10.522c0-14.606-11.841-26.447-26.447-26.447h0
				C532.426,305.241,529.821,302.637,529.821,299.424z"/>
			<path style="fill:#B9E9F5;stroke:#412351;stroke-width:2;stroke-linecap:round;stroke-miterlimit:10;" d="M523.932,305.442
				H479.19c-3.438,0-6.225-2.787-6.225-6.225v-30.722h54.672c1.207,0,2.185,0.978,2.185,2.185v28.873
				C529.821,302.806,527.184,305.442,523.932,305.442z"/>
			<path style="fill:#B9E9F5;stroke:#412351;stroke-width:2;stroke-linecap:round;stroke-miterlimit:10;" d="M529.821,244.165
				h-69.383v-56.212h46.998c12.363,0,22.385,10.022,22.385,22.385V244.165z"/>
			<g>
				<defs>
					<path id="SVGID_1_" d="M529.821,244.165h-69.383v-56.212h46.998c12.363,0,22.385,10.022,22.385,22.385V244.165z"/>
				</defs>
				<clipPath id="SVGID_00000076569961984696454440000007490683359430798214_">
					<use xlink:href="#SVGID_1_"  style="overflow:visible;"/>
				</clipPath>
				<g style="clip-path:url(#SVGID_00000076569961984696454440000007490683359430798214_);">
					<polygon style="opacity:0.58;fill:#FFFFFF;" points="486.385,243.311 464.332,243.311 487.906,188.806 509.958,188.806 					
						"/>
					<polygon style="opacity:0.58;fill:#FFFFFF;" points="523.266,243.311 501.213,243.311 524.787,188.806 546.839,188.806 					
						"/>
				</g>
			</g>
			<path style="fill:none;stroke:#412351;stroke-width:2;stroke-linecap:round;stroke-miterlimit:10;" d="M529.821,244.165h-69.383
				v-56.212h46.998c12.363,0,22.385,10.022,22.385,22.385V244.165z"/>
			<path style="fill:#D80085;stroke:#412351;stroke-width:2;stroke-miterlimit:10;" d="M472.965,299.424v-84.565
				c0-19.423-15.746-35.169-35.169-35.169H225.574c-19.423,0-35.169,15.746-35.169,35.169v127.35c0,5.293,4.291,9.583,9.583,9.583
				h295.657c5.293,0,9.583-4.291,9.583-9.583v-10.522c0-14.606-11.841-26.447-26.447-26.447h0
				C475.569,305.241,472.965,302.637,472.965,299.424z"/>
			<g>
				<path style="fill:#B9E9F5;stroke:#412351;stroke-width:2;stroke-linecap:round;stroke-miterlimit:10;" d="M452.68,242.458
					H212.043c-1.744,0-3.158-1.414-3.158-3.158v-22.397c0-11.894,9.642-21.537,21.537-21.537h203.879
					c11.894,0,21.537,9.642,21.537,21.537V239.3C455.838,241.044,454.424,242.458,452.68,242.458z"/>
				<path style="opacity:0.11;fill:#412351;stroke:#412351;stroke-width:2;stroke-linecap:round;stroke-miterlimit:10;" d="
					M248.841,227.436c-1.744,0-3.158-1.414-3.158-3.158v-28.912h-15.261c-11.894,0-21.537,9.642-21.537,21.537V239.3
					c0,1.744,1.414,3.158,3.158,3.158H452.68c1.744,0,3.158-1.414,3.158-3.158v-10.229c0-0.551-0.027-1.095-0.068-1.635H248.841z"/>
				<path style="opacity:0.58;fill:#FFFFFF;" d="M386.902,208.615c0,5.04-6.215,14.828-13.881,14.828s-13.881-9.789-13.881-14.828
					s6.215-9.125,13.881-9.125S386.902,203.575,386.902,208.615z"/>
				<g>
					
						<line style="fill:none;stroke:#412351;stroke-width:2;stroke-linecap:round;stroke-miterlimit:10;" x1="234.476" y1="195.367" x2="234.476" y2="242.458"/>
					
						<line style="fill:none;stroke:#412351;stroke-width:2;stroke-linecap:round;stroke-miterlimit:10;" x1="274.104" y1="195.367" x2="274.104" y2="242.458"/>
					
						<line style="fill:none;stroke:#412351;stroke-width:2;stroke-linecap:round;stroke-miterlimit:10;" x1="313.731" y1="195.367" x2="313.731" y2="242.458"/>
					
						<line style="fill:none;stroke:#412351;stroke-width:2;stroke-linecap:round;stroke-miterlimit:10;" x1="353.358" y1="195.367" x2="353.358" y2="242.458"/>
					
						<line style="fill:none;stroke:#412351;stroke-width:2;stroke-linecap:round;stroke-miterlimit:10;" x1="392.985" y1="195.367" x2="392.985" y2="242.458"/>
					
						<line style="fill:none;stroke:#412351;stroke-width:2;stroke-linecap:round;stroke-miterlimit:10;" x1="432.613" y1="195.367" x2="432.613" y2="242.458"/>
				</g>
			</g>
			
				<rect x="190.405" y="251.389" style="fill:#FF24B6;stroke:#412351;stroke-width:2;stroke-miterlimit:10;" width="282.56" height="7.604"/>
			<g>
				<path style="fill:#8D59AB;stroke:#412351;stroke-width:2;stroke-linecap:round;stroke-miterlimit:10;" d="M254.962,270.405
					h-48.741c-1.783,0-3.229,1.446-3.229,3.229v78.158h55.199v-78.158C258.191,271.851,256.745,270.405,254.962,270.405z"/>
				<path style="fill:#412351;stroke:#412351;stroke-width:2;stroke-linecap:round;stroke-miterlimit:10;" d="M246.405,351.793
					v-78.158c0-1.783-1.137-3.229-2.54-3.229h-38.333c-1.403,0-2.54,1.446-2.54,3.229v78.158"/>
			</g>
			
				<line style="fill:none;stroke:#412351;stroke-width:2;stroke-linecap:round;stroke-miterlimit:10;" x1="196.026" y1="234.279" x2="202.489" y2="234.279"/>
			
				<line style="fill:none;stroke:#412351;stroke-width:2;stroke-linecap:round;stroke-miterlimit:10;" x1="196.026" y1="230.477" x2="202.489" y2="230.477"/>
			
				<line style="fill:none;stroke:#412351;stroke-width:2;stroke-linecap:round;stroke-miterlimit:10;" x1="196.026" y1="226.675" x2="202.489" y2="226.675"/>
			
				<line style="fill:none;stroke:#412351;stroke-width:2;stroke-linecap:round;stroke-miterlimit:10;" x1="196.026" y1="222.873" x2="202.489" y2="222.873"/>
			
				<line style="fill:none;stroke:#412351;stroke-width:2;stroke-linecap:round;stroke-miterlimit:10;" x1="196.026" y1="219.071" x2="202.489" y2="219.071"/>
			
				<line style="fill:none;stroke:#412351;stroke-width:2;stroke-linecap:round;stroke-miterlimit:10;" x1="196.026" y1="215.268" x2="202.489" y2="215.268"/>
			
				<line style="fill:none;stroke:#412351;stroke-width:2;stroke-linecap:round;stroke-miterlimit:10;" x1="196.026" y1="211.466" x2="202.489" y2="211.466"/>
			<path style="fill:#8D59AB;stroke:#412351;stroke-width:2;stroke-linecap:round;stroke-miterlimit:10;" d="M486.623,263.176h-9.5
				c-0.178,0-0.323-0.145-0.323-0.323v-13.422c0-0.178,0.145-0.323,0.323-0.323h9.5c0.178,0,0.323,0.145,0.323,0.323v13.422
				C486.946,263.031,486.802,263.176,486.623,263.176z"/>
			<path style="fill:#8D59AB;stroke:#412351;stroke-width:2;stroke-linecap:round;stroke-miterlimit:10;" d="M524.411,263.176
				h-33.138c-0.328,0-0.594-0.266-0.594-0.594v-12.88c0-0.328,0.266-0.594,0.594-0.594h33.138c0.328,0,0.594,0.266,0.594,0.594
				v12.88C525.005,262.91,524.739,263.176,524.411,263.176z"/>
			<g>
				<path style="fill:#B9E9F5;stroke:#412351;stroke-width:2;stroke-linecap:round;stroke-miterlimit:10;" d="M305.254,311.099
					h-34.22c-3.15,0-5.703-2.553-5.703-5.703v-31.558c0-3.15,2.553-5.703,5.703-5.703h34.22c3.15,0,5.703,2.553,5.703,5.703v31.558
					C310.957,308.545,308.404,311.099,305.254,311.099z"/>
				<path style="opacity:0.11;fill:#412351;stroke:#412351;stroke-width:2;stroke-linecap:round;stroke-miterlimit:10;" d="
					M309.19,302.258h-34.22c-3.15,0-5.703-2.553-5.703-5.703v-28.138c-2.284,0.745-3.935,2.888-3.935,5.421v31.558
					c0,3.15,2.553,5.703,5.703,5.703h34.22c3.15,0,5.703-2.553,5.703-5.703v-3.42C310.4,302.157,309.807,302.258,309.19,302.258z"/>
				<path style="opacity:0.58;fill:#FFFFFF;" d="M303.098,282.583c0,5.04-6.215,14.828-13.881,14.828s-13.881-9.789-13.881-14.828
					c0-5.04,6.215-9.125,13.881-9.125S303.098,277.543,303.098,282.583z"/>
			</g>
			<g>
				<path style="fill:#B9E9F5;stroke:#412351;stroke-width:2;stroke-linecap:round;stroke-miterlimit:10;" d="M356.403,311.099
					h-34.22c-3.15,0-5.703-2.553-5.703-5.703v-31.558c0-3.15,2.553-5.703,5.703-5.703h34.22c3.15,0,5.703,2.553,5.703,5.703v31.558
					C362.106,308.545,359.553,311.099,356.403,311.099z"/>
				<path style="opacity:0.11;fill:#412351;stroke:#412351;stroke-width:2;stroke-linecap:round;stroke-miterlimit:10;" d="
					M360.338,302.258h-34.22c-3.15,0-5.703-2.553-5.703-5.703v-28.138c-2.284,0.745-3.935,2.888-3.935,5.421v31.558
					c0,3.15,2.553,5.703,5.703,5.703h34.22c3.15,0,5.703-2.553,5.703-5.703v-3.42C361.549,302.157,360.956,302.258,360.338,302.258z
					"/>
				<path style="opacity:0.58;fill:#FFFFFF;" d="M354.246,282.583c0,5.04-6.215,14.828-13.881,14.828s-13.881-9.789-13.881-14.828
					c0-5.04,6.215-9.125,13.881-9.125S354.246,277.543,354.246,282.583z"/>
			</g>
			<g>
				<path style="fill:#B9E9F5;stroke:#412351;stroke-width:2;stroke-linecap:round;stroke-miterlimit:10;" d="M407.552,311.099
					h-34.22c-3.15,0-5.703-2.553-5.703-5.703v-31.558c0-3.15,2.553-5.703,5.703-5.703h34.22c3.15,0,5.703,2.553,5.703,5.703v31.558
					C413.255,308.545,410.702,311.099,407.552,311.099z"/>
				<path style="opacity:0.11;fill:#412351;stroke:#412351;stroke-width:2;stroke-linecap:round;stroke-miterlimit:10;" d="
					M411.487,302.258h-34.22c-3.15,0-5.703-2.553-5.703-5.703v-28.138c-2.284,0.745-3.935,2.888-3.935,5.421v31.558
					c0,3.15,2.553,5.703,5.703,5.703h34.22c3.15,0,5.703-2.553,5.703-5.703v-3.42C412.698,302.157,412.105,302.258,411.487,302.258z
					"/>
				<path style="opacity:0.58;fill:#FFFFFF;" d="M405.395,282.583c0,5.04-6.215,14.828-13.881,14.828s-13.881-9.789-13.881-14.828
					c0-5.04,6.215-9.125,13.881-9.125S405.395,277.543,405.395,282.583z"/>
			</g>
			<g>
				<path style="fill:#B9E9F5;stroke:#412351;stroke-width:2;stroke-linecap:round;stroke-miterlimit:10;" d="M458.701,311.099
					h-34.22c-3.15,0-5.703-2.553-5.703-5.703v-31.558c0-3.15,2.553-5.703,5.703-5.703h34.22c3.15,0,5.703,2.553,5.703,5.703v31.558
					C464.404,308.545,461.85,311.099,458.701,311.099z"/>
				<path style="opacity:0.11;fill:#412351;stroke:#412351;stroke-width:2;stroke-linecap:round;stroke-miterlimit:10;" d="
					M462.636,302.258h-34.22c-3.15,0-5.703-2.553-5.703-5.703v-28.138c-2.284,0.745-3.935,2.888-3.935,5.421v31.558
					c0,3.15,2.553,5.703,5.703,5.703h34.22c3.15,0,5.703-2.553,5.703-5.703v-3.42C463.847,302.157,463.254,302.258,462.636,302.258z
					"/>
				<path style="opacity:0.58;fill:#FFFFFF;" d="M456.544,282.583c0,5.04-6.215,14.828-13.881,14.828s-13.881-9.789-13.881-14.828
					c0-5.04,6.215-9.125,13.881-9.125S456.544,277.543,456.544,282.583z"/>
			</g>
			
				<rect x="258.191" y="328.032" style="fill:#FF24B6;stroke:#412351;stroke-width:2;stroke-miterlimit:10;" width="247.037" height="8.615"/>
			<text transform="matrix(1 0 0 1 493.9258 258.105)" style="fill:#FFFFFF; font-family:'Poppins-Bold'; font-size:6.7207px;">LONDON</text>
			<g>
				<polygon style="opacity:0.58;fill:#FFFFFF;" points="492.785,303.911 478.81,303.911 490.679,269.261 504.654,269.261 				"/>
				<polygon style="opacity:0.58;fill:#FFFFFF;" points="510.403,303.911 503.416,303.911 515.285,269.261 522.272,269.261 				"/>
			</g>
			<g>
				
					<circle style="fill:#8D59AB;stroke:#412351;stroke-width:2;stroke-linecap:round;stroke-miterlimit:10;" cx="287.791" cy="348.141" r="15.869"/>
				
					<circle style="fill:#412351;stroke:#412351;stroke-width:2;stroke-linecap:round;stroke-miterlimit:10;" cx="283.813" cy="348.141" r="15.869"/>
				
					<circle style="fill:#B9E9F5;stroke:#412351;stroke-width:2;stroke-linecap:round;stroke-miterlimit:10;" cx="283.813" cy="348.317" r="9.511"/>
				<path style="opacity:0.11;fill:#412351;stroke:#412351;stroke-width:2;stroke-linecap:round;stroke-miterlimit:10;" d="
					M284.675,353.483c-5.129,0-9.298-4.062-9.493-9.144c-0.559,1.211-0.88,2.556-0.88,3.978c0,5.253,4.258,9.511,9.511,9.511
					c5.253,0,9.511-4.258,9.511-9.511c0-0.124-0.014-0.245-0.019-0.368C291.799,351.213,288.506,353.483,284.675,353.483z"/>
			</g>
			<g>
				
					<circle style="fill:#8D59AB;stroke:#412351;stroke-width:2;stroke-linecap:round;stroke-miterlimit:10;" cx="457.827" cy="349.566" r="15.869"/>
				
					<circle style="fill:#412351;stroke:#412351;stroke-width:2;stroke-linecap:round;stroke-miterlimit:10;" cx="453.849" cy="349.566" r="15.869"/>
				
					<circle style="fill:#B9E9F5;stroke:#412351;stroke-width:2;stroke-linecap:round;stroke-miterlimit:10;" cx="453.849" cy="349.743" r="9.511"/>
				<path style="opacity:0.11;fill:#412351;stroke:#412351;stroke-width:2;stroke-linecap:round;stroke-miterlimit:10;" d="
					M454.71,354.909c-5.129,0-9.298-4.062-9.493-9.144c-0.559,1.211-0.88,2.556-0.88,3.977c0,5.253,4.258,9.511,9.511,9.511
					c5.253,0,9.511-4.258,9.511-9.511c0-0.124-0.014-0.245-0.019-0.368C461.835,352.639,458.541,354.909,454.71,354.909z"/>
			</g>
			<g>
				
					<circle style="fill:#412351;stroke:#412351;stroke-width:2;stroke-linecap:round;stroke-miterlimit:10;" cx="517.108" cy="330.76" r="7.897"/>
				<circle style="fill:#FFD773;stroke:#412351;stroke-width:2;stroke-miterlimit:10;" cx="521.857" cy="330.76" r="7.897"/>
			</g>
			<g>
				
					<circle style="fill:#412351;stroke:#412351;stroke-width:2;stroke-linecap:round;stroke-miterlimit:10;" cx="551.88" cy="330.76" r="7.897"/>
				<circle style="fill:#FFD773;stroke:#412351;stroke-width:2;stroke-miterlimit:10;" cx="556.629" cy="330.76" r="7.897"/>
			</g>
			<ellipse style="opacity:0.58;fill:#FFFFFF;" cx="525.741" cy="313.822" rx="16.53" ry="2.723"/>
			<g>
				<path style="fill:#D80085;stroke:#412351;stroke-width:2;stroke-miterlimit:10;" d="M544.758,291.563h-10.142
					c-0.371,0-0.672-0.301-0.672-0.672v-19.814c0-0.371,0.301-0.672,0.672-0.672h10.142c0.371,0,0.672,0.301,0.672,0.672v19.814
					C545.43,291.262,545.129,291.563,544.758,291.563z"/>
				<path style="fill:#D80085;stroke:#412351;stroke-width:2;stroke-miterlimit:10;" d="M549.054,291.563h-10.141
					c-0.371,0-0.672-0.301-0.672-0.672v-19.814c0-0.371,0.301-0.672,0.672-0.672h10.141c0.371,0,0.672,0.301,0.672,0.672v19.814
					C549.726,291.262,549.425,291.563,549.054,291.563z"/>
				<path style="fill:none;stroke:#412351;stroke-width:2;stroke-miterlimit:10;" d="M542.271,270.405L542.271,270.405
					c0-4.601-3.73-8.331-8.331-8.331h-4.119"/>
			</g>
			<g>
				<path style="fill:#D80085;stroke:#412351;stroke-width:2;stroke-miterlimit:10;" d="M487.901,291.563h-10.142
					c-0.371,0-0.672-0.301-0.672-0.672v-19.814c0-0.371,0.301-0.672,0.672-0.672h10.142c0.371,0,0.672,0.301,0.672,0.672v19.814
					C488.573,291.262,488.272,291.563,487.901,291.563z"/>
				<path style="fill:#D80085;stroke:#412351;stroke-width:2;stroke-miterlimit:10;" d="M492.197,291.563h-10.142
					c-0.371,0-0.672-0.301-0.672-0.672v-19.814c0-0.371,0.301-0.672,0.672-0.672h10.142c0.371,0,0.672,0.301,0.672,0.672v19.814
					C492.87,291.262,492.569,291.563,492.197,291.563z"/>
				<path style="fill:none;stroke:#412351;stroke-width:2;stroke-miterlimit:10;" d="M485.415,270.405L485.415,270.405
					c0-4.601-3.73-8.331-8.331-8.331h-4.119"/>
			</g>
		</g>
		<g>
			<g>
				<g>
					<g>
						<defs>
							<path id="SVGID_00000008146028905219296160000014381581296219294107_" d="M223.402,222.178h-74.165
								c-1.452,0-2.63-1.101-2.63-2.46l-16.569-46.783c0-1.359,1.177-2.46,2.63-2.46h74.165c1.452,0,2.63,1.101,2.63,2.46
								l16.569,46.783C226.031,221.076,224.854,222.178,223.402,222.178z"/>
						</defs>
						<clipPath id="SVGID_00000140702390839699325200000009446932156056834201_">
							<use xlink:href="#SVGID_00000008146028905219296160000014381581296219294107_"  style="overflow:visible;"/>
						</clipPath>
						
							<path style="clip-path:url(#SVGID_00000140702390839699325200000009446932156056834201_);fill:#4600F7;stroke:#412351;stroke-width:2;stroke-miterlimit:10;" d="
							M223.402,222.178h-74.165c-1.452,0-2.63-1.101-2.63-2.46l-16.569-46.783c0-1.359,1.177-2.46,2.63-2.46h74.165
							c1.452,0,2.63,1.101,2.63,2.46l16.569,46.783C226.031,221.076,224.854,222.178,223.402,222.178z"/>
						
							<polygon style="clip-path:url(#SVGID_00000140702390839699325200000009446932156056834201_);fill:#FFFFFF;stroke:#412351;stroke-width:2;stroke-miterlimit:10;" points="
							127.509,165.598 136.901,156.813 228.218,226.735 218.827,235.52 						"/>
						
							<polygon style="clip-path:url(#SVGID_00000140702390839699325200000009446932156056834201_);fill:#D80085;stroke:#412351;stroke-width:2;stroke-miterlimit:10;" points="
							130.058,163.214 133.526,159.97 224.842,229.892 221.375,233.136 						"/>
						
							<polygon style="clip-path:url(#SVGID_00000140702390839699325200000009446932156056834201_);fill:#FFFFFF;stroke:#412351;stroke-width:2;stroke-miterlimit:10;" points="
							202.258,156.813 211.648,165.598 153.47,235.52 144.079,226.735 						"/>
						
							<polygon style="clip-path:url(#SVGID_00000140702390839699325200000009446932156056834201_);fill:#D80085;stroke:#412351;stroke-width:2;stroke-miterlimit:10;" points="
							204.806,159.197 208.273,162.44 150.095,232.362 146.627,229.119 						"/>
						
							<path style="clip-path:url(#SVGID_00000140702390839699325200000009446932156056834201_);fill:#FFFFFF;stroke:#412351;stroke-width:2;stroke-miterlimit:10;" d="
							M242.275,189.021h-58.734c-0.068,0-0.128-0.044-0.148-0.108l-7.368-22.991h-15.621l7.338,22.896
							c0.032,0.101-0.043,0.203-0.148,0.203h-46.087v14.612h50.87c0.068,0,0.128,0.044,0.148,0.108l7.368,22.991h15.621
							l-7.338-22.896c-0.032-0.101,0.043-0.203,0.148-0.203h53.951V189.021z"/>
						
							<path style="clip-path:url(#SVGID_00000140702390839699325200000009446932156056834201_);fill:#D80085;stroke:#412351;stroke-width:2;stroke-miterlimit:10;" d="
							M232.133,192.524h-50.34c-0.254,0-0.479-0.164-0.557-0.406l-6.806-21.236c-0.078-0.242-0.303-0.406-0.557-0.406h-7.386
							c-0.396,0-0.678,0.386-0.557,0.763l6.577,20.522c0.121,0.377-0.161,0.763-0.557,0.763h-41.326
							c-0.323,0-0.585,0.262-0.585,0.585v6.889c0,0.323,0.262,0.585,0.585,0.585h44.284c0.254,0,0.479,0.164,0.557,0.406
							l6.66,20.783c0.078,0.242,0.303,0.406,0.557,0.406h7.387c0.396,0,0.678-0.386,0.557-0.763l-6.432-20.069
							c-0.121-0.377,0.161-0.763,0.557-0.763h47.383c0.323,0,0.585-0.262,0.585-0.585v-6.889
							C232.718,192.786,232.456,192.524,232.133,192.524z"/>
					</g>
					<path style="fill:none;stroke:#412351;stroke-width:2;stroke-linecap:round;stroke-miterlimit:10;" d="M223.402,222.178
						h-74.165c-1.452,0-2.63-1.101-2.63-2.46l-16.569-46.783c0-1.359,1.177-2.46,2.63-2.46h74.165c1.452,0,2.63,1.101,2.63,2.46
						l16.569,46.783C226.031,221.076,224.854,222.178,223.402,222.178z"/>
				</g>
			</g>
			<path style="fill:#8D59AB;stroke:#412351;stroke-width:2;stroke-linecap:round;stroke-miterlimit:10;" d="M246.405,287.6
				l0.055,5.684c-0.506,0-0.953-0.332-1.098-0.817l-39.524-126.631c-0.22-0.735,0.331-1.475,1.098-1.475h2.143
				c0.506,0,0.953,0.332,1.098,0.817l36.179,119.643C246.576,285.557,246.373,285.922,246.405,287.6z"/>
		</g>
	</g>
	<path style="fill:#B9E9F5;stroke:#412351;stroke-width:2;stroke-linecap:round;stroke-miterlimit:10;" d="M198.77,335.283h-23.037
		c-0.269,0-0.487,0.218-0.487,0.487v12.19c0,0.269,0.218,0.488,0.487,0.488h20.256c0.269,0,0.488,0.218,0.488,0.487v11.262
		c0,0.269-0.218,0.488-0.488,0.488h-20.256c-0.269,0-0.487,0.218-0.487,0.487v13.303c0,0.269,0.218,0.488,0.487,0.488h23.037
		c0.269,0,0.488,0.218,0.488,0.487v11.726c0,0.269-0.218,0.488-0.488,0.488h-38.891c-0.269,0-0.487-0.218-0.487-0.488v-64.109
		c0-0.269,0.218-0.487,0.487-0.487h38.891c0.269,0,0.488,0.218,0.488,0.487v11.727C199.258,335.065,199.039,335.283,198.77,335.283z
		"/>
	<path style="fill:#B9E9F5;stroke:#412351;stroke-width:2;stroke-linecap:round;stroke-miterlimit:10;" d="M273.305,346.969v64.109
		c0,0.269-0.218,0.488-0.487,0.488h-15.104c-0.164,0-0.317-0.082-0.407-0.219l-25.478-38.572c-0.266-0.403-0.894-0.215-0.894,0.269
		v38.034c0,0.269-0.218,0.488-0.488,0.488h-14.879c-0.269,0-0.487-0.218-0.487-0.488v-64.109c0-0.269,0.218-0.487,0.487-0.487
		h15.103c0.164,0,0.317,0.083,0.407,0.22l25.477,38.749c0.266,0.404,0.895,0.216,0.895-0.268v-38.214
		c0-0.269,0.218-0.487,0.488-0.487h14.879C273.087,346.481,273.305,346.699,273.305,346.969z"/>
	<path style="fill:#B9E9F5;stroke:#412351;stroke-width:2;stroke-linecap:round;stroke-miterlimit:10;" d="M353.896,381.674h-16.602
		c-0.171,0-0.327-0.094-0.413-0.242c-2.44-4.201-6.834-6.433-12.657-6.433c-10.199,0-16.967,7.231-16.967,18.542
		c0,12.053,6.86,19.099,18.265,19.099c7.641,0,13.017-3.923,15.533-10.839c0.115-0.317-0.127-0.657-0.464-0.657h-18.939
		c-0.269,0-0.487-0.218-0.487-0.488V389.95c0-0.269,0.218-0.487,0.487-0.487h33.513c0.269,0,0.487,0.218,0.487,0.487v14.177
		c0,0.051-0.007,0.101-0.022,0.149c-2.922,9.727-11.489,19.437-24.916,21.814c-23.477,4.156-43.771-17.343-38.75-40.65
		c3.246-15.067,15.619-25.089,32.259-25.089c15.331,0,26.53,7.724,30.149,20.698C354.459,381.361,354.219,381.674,353.896,381.674z"
		/>
	<path style="fill:#B9E9F5;stroke:#412351;stroke-width:2;stroke-linecap:round;stroke-miterlimit:10;" d="M388.527,350.657v51.871
		c0,0.269,0.218,0.487,0.487,0.487h19.793c0.269,0,0.487,0.218,0.487,0.487v11.263c0,0.269-0.218,0.487-0.487,0.487h-35.646
		c-0.269,0-0.487-0.218-0.487-0.487v-64.109c0-0.269,0.218-0.487,0.487-0.487h14.879
		C388.309,350.169,388.527,350.388,388.527,350.657z"/>
	<path style="fill:#B9E9F5;stroke:#412351;stroke-width:2;stroke-linecap:round;stroke-miterlimit:10;" d="M428.368,350.412h14.879
		c0.269,0,0.487,0.218,0.487,0.487v64.109c0,0.269-0.218,0.487-0.487,0.487h-14.879c-0.269,0-0.487-0.218-0.487-0.487V350.9
		C427.881,350.631,428.099,350.412,428.368,350.412z"/>
	<path style="fill:#B9E9F5;stroke:#412351;stroke-width:2;stroke-linecap:round;stroke-miterlimit:10;" d="M575.019,371.015h-23.687
		c-0.269,0-0.487,0.218-0.487,0.487v25.819c0,0.269-0.218,0.487-0.487,0.487h-14.879c-0.269,0-0.487-0.218-0.487-0.487v-64.109
		c0-0.269,0.218-0.487,0.487-0.487h14.879c0.269,0,0.487,0.218,0.487,0.487v24.521c0,0.269,0.218,0.487,0.487,0.487h23.687
		c0.269,0,0.487-0.218,0.487-0.487v-24.521c0-0.269,0.218-0.487,0.487-0.487h14.879c0.269,0,0.487,0.218,0.487,0.487v64.109
		c0,0.269-0.218,0.487-0.487,0.487h-14.879c-0.269,0-0.487-0.218-0.487-0.487v-25.819
		C575.507,371.233,575.288,371.015,575.019,371.015z"/>
	<path style="fill:#E181B1;stroke:#412351;stroke-width:2;stroke-miterlimit:10;" d="M198.77,330.056h-23.037
		c-0.269,0-0.487,0.218-0.487,0.487v12.19c0,0.269,0.218,0.488,0.487,0.488h20.256c0.269,0,0.488,0.218,0.488,0.487v11.262
		c0,0.269-0.218,0.488-0.488,0.488h-20.256c-0.269,0-0.487,0.218-0.487,0.487v13.303c0,0.269,0.218,0.488,0.487,0.488h23.037
		c0.269,0,0.488,0.218,0.488,0.487v11.726c0,0.269-0.218,0.488-0.488,0.488h-38.891c-0.269,0-0.487-0.218-0.487-0.488v-64.109
		c0-0.269,0.218-0.487,0.487-0.487h38.891c0.269,0,0.488,0.218,0.488,0.487v11.727C199.258,329.837,199.039,330.056,198.77,330.056z
		"/>
	<path style="fill:#E181B1;stroke:#412351;stroke-width:2;stroke-miterlimit:10;" d="M273.305,341.741v64.109
		c0,0.269-0.218,0.488-0.487,0.488h-15.104c-0.164,0-0.317-0.082-0.407-0.219l-25.478-38.572c-0.266-0.403-0.894-0.215-0.894,0.269
		v38.034c0,0.269-0.218,0.488-0.488,0.488h-14.879c-0.269,0-0.487-0.218-0.487-0.488v-64.109c0-0.269,0.218-0.487,0.487-0.487
		h15.103c0.164,0,0.317,0.083,0.407,0.22l25.477,38.749c0.266,0.404,0.895,0.216,0.895-0.268v-38.214
		c0-0.269,0.218-0.487,0.488-0.487h14.879C273.087,341.253,273.305,341.472,273.305,341.741z"/>
	<path style="fill:#E181B1;stroke:#412351;stroke-width:2;stroke-miterlimit:10;" d="M353.896,376.447h-16.602
		c-0.171,0-0.327-0.094-0.413-0.242c-2.44-4.201-6.834-6.433-12.657-6.433c-10.199,0-16.967,7.231-16.967,18.542
		c0,12.053,6.86,19.099,18.265,19.099c7.641,0,13.017-3.923,15.533-10.839c0.115-0.317-0.127-0.657-0.464-0.657h-18.939
		c-0.269,0-0.487-0.218-0.487-0.488v-10.707c0-0.269,0.218-0.487,0.487-0.487h33.513c0.269,0,0.487,0.218,0.487,0.487v14.177
		c0,0.051-0.007,0.101-0.022,0.149c-2.922,9.727-11.489,19.437-24.916,21.814c-23.477,4.156-43.771-17.343-38.75-40.65
		c3.246-15.067,15.619-25.089,32.259-25.089c15.331,0,26.53,7.724,30.149,20.698C354.459,376.133,354.219,376.447,353.896,376.447z"
		/>
	<path style="fill:#E181B1;stroke:#412351;stroke-width:2;stroke-miterlimit:10;" d="M388.527,345.429V397.3
		c0,0.269,0.218,0.487,0.487,0.487h19.793c0.269,0,0.487,0.218,0.487,0.487v11.263c0,0.269-0.218,0.487-0.487,0.487h-35.646
		c-0.269,0-0.487-0.218-0.487-0.487v-64.109c0-0.269,0.218-0.487,0.487-0.487h14.879
		C388.309,344.942,388.527,345.16,388.527,345.429z"/>
	<path style="fill:#E181B1;stroke:#412351;stroke-width:2;stroke-miterlimit:10;" d="M428.368,345.185h14.879
		c0.269,0,0.487,0.218,0.487,0.487v64.109c0,0.269-0.218,0.487-0.487,0.487h-14.879c-0.269,0-0.487-0.218-0.487-0.487v-64.109
		C427.881,345.403,428.099,345.185,428.368,345.185z"/>
	<path style="fill:#E181B1;stroke:#412351;stroke-width:2;stroke-miterlimit:10;" d="M575.019,365.787h-23.687
		c-0.269,0-0.487,0.218-0.487,0.487v25.819c0,0.269-0.218,0.487-0.487,0.487h-14.879c-0.269,0-0.487-0.218-0.487-0.487v-64.109
		c0-0.269,0.218-0.487,0.487-0.487h14.879c0.269,0,0.487,0.218,0.487,0.487v24.521c0,0.269,0.218,0.487,0.487,0.487h23.687
		c0.269,0,0.487-0.218,0.487-0.487v-24.521c0-0.269,0.218-0.487,0.487-0.487h14.879c0.269,0,0.487,0.218,0.487,0.487v64.109
		c0,0.269-0.218,0.487-0.487,0.487h-14.879c-0.269,0-0.487-0.218-0.487-0.487v-25.819
		C575.507,366.005,575.288,365.787,575.019,365.787z"/>
	<g>
		<g>
			<circle style="opacity:0.09;fill:#641A85;" cx="545.676" cy="202.643" r="23.591"/>
			<circle style="fill:#EEC671;stroke:#412351;stroke-width:2.1962;stroke-miterlimit:10;" cx="542.007" cy="194.917" r="23.591"/>
			<g>
				<path style="fill:none;stroke:#412351;stroke-width:2.1962;stroke-linecap:round;stroke-miterlimit:10;" d="M536.507,197.434
					c0,0,6.229,4.4,10.865,0"/>
			</g>
		</g>
		<g>
			<path style="fill:#D80085;stroke:#412351;stroke-width:2.1962;stroke-miterlimit:10;" d="M527.059,194.111l-6.208-6.209
				c-1.771-1.771-2.221-4.579-0.849-6.674c1.87-2.853,5.704-3.185,8.029-0.996l0.052-0.052c1.608-1.608,4.096-2.113,6.108-1.055
				c3.349,1.762,3.805,5.994,1.37,8.429l-6.557,6.556C528.467,194.648,527.596,194.648,527.059,194.111z"/>
		</g>
		<g>
			<path style="fill:#D80085;stroke:#412351;stroke-width:2.1962;stroke-miterlimit:10;" d="M557.002,194.111l-6.208-6.209
				c-1.771-1.771-2.221-4.579-0.849-6.674c1.87-2.853,5.704-3.185,8.029-0.996l0.052-0.052c1.608-1.608,4.096-2.113,6.108-1.055
				c3.349,1.762,3.805,5.994,1.37,8.429l-6.557,6.556C558.41,194.648,557.539,194.648,557.002,194.111z"/>
		</g>
	</g>
	<g>
		<circle style="opacity:0.09;fill:#641A85;" cx="184.102" cy="298.843" r="15.155"/>
		<circle style="fill:#EEC671;stroke:#412351;stroke-width:2;stroke-miterlimit:10;" cx="181.745" cy="293.88" r="15.155"/>
		<g>
			
				<line style="fill:none;stroke:#412351;stroke-width:4;stroke-linecap:round;stroke-miterlimit:10;" x1="174.024" y1="289.114" x2="174.024" y2="291.79"/>
			
				<line style="fill:none;stroke:#412351;stroke-width:4;stroke-linecap:round;stroke-miterlimit:10;" x1="188.542" y1="289.114" x2="188.542" y2="291.79"/>
			<path style="fill:none;stroke:#412351;stroke-width:2;stroke-linecap:round;stroke-miterlimit:10;" d="M178.212,295.497
				c0,0,4.002,2.827,6.98,0"/>
		</g>
	</g>
	<g>
		<circle style="opacity:0.09;fill:#641A85;" cx="606.715" cy="324.22" r="18.464"/>
		<circle style="fill:#EEC671;stroke:#412351;stroke-width:2;stroke-miterlimit:10;" cx="603.843" cy="318.173" r="18.464"/>
		<g>
			
				<line style="fill:none;stroke:#412351;stroke-width:4.8732;stroke-linecap:round;stroke-miterlimit:10;" x1="594.436" y1="312.367" x2="594.436" y2="315.626"/>
			
				<line style="fill:none;stroke:#412351;stroke-width:4.8732;stroke-linecap:round;stroke-miterlimit:10;" x1="612.124" y1="312.367" x2="612.124" y2="315.626"/>
			<path style="fill:none;stroke:#412351;stroke-width:2.4366;stroke-linecap:round;stroke-miterlimit:10;" d="M599.539,320.143
				c0,0,4.875,3.444,8.504,0"/>
		</g>
		<g>
			<path style="fill:#8D59AB;stroke:#412351;stroke-width:2;stroke-linecap:round;stroke-miterlimit:10;" d="M590.707,305.1
				c-3.714,0-6.573,0.405-7.805,2.867c-0.195-0.026-0.392-0.049-0.597-0.049c-2.044,0-3.702,1.361-3.702,3.04s1.657,3.04,3.702,3.04
				c0.086,0,0.167-0.016,0.252-0.021c1.041,4.27,4.559,7.417,8.751,7.417c5.011,0,9.072-4.489,9.072-10.027
				S595.718,305.1,590.707,305.1z"/>
			<path style="fill:#8D59AB;stroke:#412351;stroke-width:2;stroke-linecap:round;stroke-miterlimit:10;" d="M615.919,305.1
				c3.714,0,6.573,0.405,7.805,2.867c0.195-0.026,0.392-0.049,0.597-0.049c2.044,0,3.702,1.361,3.702,3.04s-1.657,3.04-3.702,3.04
				c-0.086,0-0.167-0.016-0.252-0.021c-1.041,4.27-4.559,7.417-8.751,7.417c-5.011,0-9.072-4.489-9.072-10.027
				S610.909,305.1,615.919,305.1z"/>
			<path style="fill:none;stroke:#412351;stroke-width:2;stroke-linecap:round;stroke-miterlimit:10;" d="M600.38,310.942
				c0,0,2.896-3.274,5.865,0"/>
		</g>
	</g>
	<path style="fill:none;stroke:#412351;stroke-width:2;stroke-linecap:round;stroke-miterlimit:10;stroke-dasharray:5;" d="
		M163.669,270.905c0.52-3.383-1.299-6.638-3.051-9.578c-4.68-7.855-10.672-16.582-19.774-17.446
		c-6.651-0.631-13.2,3.607-16.349,9.499c-3.149,5.893-3.223,13.089-1.316,19.492c1.441,4.84,4.213,9.598,8.725,11.866
		c4.512,2.268,10.922,1.102,13.215-3.398c2.105-4.132-0.137-9.621-4.202-11.853c-4.065-2.232-9.299-1.551-13.242,0.888
		c-2.154,1.333-4.023,3.174-5.201,5.417c-3.292,6.269-0.673,13.816,0.791,20.744c1.634,7.735,1.716,15.795,0.242,23.562
		c-0.622,3.279-1.638,6.703-4.145,8.906c-1.567,1.377-3.591,2.146-5.643,2.519c-6.391,1.163-14.148-2.702-14.627-9.18
		c-0.482-6.511,6.942-11.53,13.396-10.547c6.454,0.983,11.513,6.165,14.807,11.802c3.294,5.637,5.326,11.946,8.698,17.536
		c3.373,5.59,8.608,10.648,15.098,11.359"/>
	<path style="fill:none;stroke:#412351;stroke-width:2;stroke-linecap:round;stroke-miterlimit:10;stroke-dasharray:5;" d="
		M585.267,323.678c-5.704-5.274-9.99-12.4-10.621-20.143c-0.631-7.743,2.88-16.002,9.605-19.891c3.567-2.063,8.452-2.672,11.589,0
		c3.137,2.672,2.295,9.062-1.781,9.665c-1.341,0.198-2.687-0.23-3.975-0.652c-3.341-1.095-6.837-2.289-9.21-4.884
		c-2.916-3.19-3.532-7.86-3.337-12.177c0.195-4.317,1.057-8.641,0.532-12.93c-0.839-6.852-5.464-13.117-11.764-15.939
		c-6.3-2.821-14.054-2.099-19.724,1.838"/>
	<g>
		<path style="fill:#D80085;stroke:#412351;stroke-width:2;stroke-miterlimit:10;" d="M153.307,361.796l-11.2-11.2
			c-3.195-3.195-4.007-8.261-1.531-12.04c3.373-5.148,10.289-5.745,14.484-1.797l0.093-0.093c2.901-2.901,7.389-3.812,11.02-1.903
			c6.042,3.178,6.865,10.813,2.472,15.207l-11.828,11.827C155.848,362.765,154.276,362.765,153.307,361.796z"/>
	</g>
	<g>
		<path style="fill:#D80085;stroke:#412351;stroke-width:2;stroke-miterlimit:10;" d="M544.063,122.129l-7.792-7.792
			c-2.222-2.223-2.788-5.747-1.065-8.376c2.346-3.581,7.158-3.997,10.077-1.25l0.065-0.065c2.018-2.018,5.141-2.652,7.667-1.324
			c4.203,2.211,4.776,7.523,1.72,10.579l-8.229,8.228C545.83,122.803,544.737,122.803,544.063,122.129z"/>
	</g>
	<g>
		<path style="fill:#FFD773;stroke:#412351;stroke-width:2;stroke-linecap:round;stroke-miterlimit:10;" d="M167.028,148.057
			h-43.416c-1.007,0-1.824-0.817-1.824-1.824V123.64h47.064v22.593C168.852,147.24,168.035,148.057,167.028,148.057z"/>
		<path style="fill:#FFF5FC;stroke:#412351;stroke-width:2;stroke-miterlimit:10;" d="M143.95,143.917l-4.297-1.245
			c-3.984-1.155-8.214-1.155-12.198,0l-4.297,1.245c-0.686,0.199-1.37-0.316-1.37-1.03v-21.281c0-0.486,0.327-0.911,0.796-1.036
			l5.832-1.552c4.036-1.075,8.296-0.973,12.276,0.293l3.881,1.234c0.445,0.141,0.747,0.555,0.747,1.021v21.321
			C145.32,143.601,144.635,144.115,143.95,143.917z"/>
		<path style="fill:#FFF5FC;stroke:#412351;stroke-width:2;stroke-miterlimit:10;" d="M167.482,143.917l-4.297-1.245
			c-3.984-1.155-8.214-1.155-12.198,0l-4.297,1.245c-0.686,0.199-1.37-0.316-1.37-1.03v-21.281c0-0.486,0.327-0.911,0.796-1.036
			l5.832-1.552c4.036-1.075,8.296-0.973,12.276,0.293l3.881,1.234c0.445,0.141,0.747,0.555,0.747,1.021v21.321
			C168.852,143.601,168.167,144.115,167.482,143.917z"/>
		<path style="fill:none;stroke:#412351;stroke-width:2;stroke-linecap:round;stroke-miterlimit:10;" d="M125.147,124.171
			c0,0,4.824-2.875,9.687-0.885"/>
		<path style="fill:none;stroke:#412351;stroke-width:2;stroke-linecap:round;stroke-miterlimit:10;" d="M125.147,131.12
			c0,0,4.824-2.875,9.687-0.885"/>
		<path style="fill:none;stroke:#412351;stroke-width:2;stroke-linecap:round;stroke-miterlimit:10;" d="M125.147,138.069
			c0,0,4.824-2.875,9.687-0.885"/>
		<path style="fill:none;stroke:#412351;stroke-width:2;stroke-linecap:round;stroke-miterlimit:10;" d="M153.181,124.171
			c0,0,4.824-2.875,9.687-0.885"/>
		<path style="fill:none;stroke:#412351;stroke-width:2;stroke-linecap:round;stroke-miterlimit:10;" d="M153.181,131.12
			c0,0,4.824-2.875,9.687-0.885"/>
		<path style="fill:none;stroke:#412351;stroke-width:2;stroke-linecap:round;stroke-miterlimit:10;" d="M153.181,138.069
			c0,0,4.824-2.875,9.687-0.885"/>
	</g>
	<g>
		<path style="fill:#D80085;stroke:#412351;stroke-width:2;stroke-miterlimit:10;" d="M557.182,247.12l-6.728-6.728
			c-0.478-0.478-0.478-1.252,0-1.73l2.548-2.548c0.478-0.478,1.252-0.478,1.73,0l6.728,6.728c0.478,0.478,0.478,1.252,0,1.73
			l-2.548,2.548C558.434,247.597,557.66,247.597,557.182,247.12z"/>
		<path style="fill:#D80085;stroke:#412351;stroke-width:2;stroke-miterlimit:10;" d="M562.442,243.823l-8.575-8.575
			c-1.419-1.419-1.419-3.718,0-5.137l29.09-29.09c3.786-3.786,9.925-3.786,13.712,0v0c3.786,3.786,3.786,9.925,0,13.712
			l-29.09,29.09C566.161,245.241,563.861,245.241,562.442,243.823z"/>
		<path style="fill:#D80085;stroke:#412351;stroke-width:2;stroke-miterlimit:10;" d="M592.046,221.009l-15.36-15.36
			c-1.093-1.093-1.093-2.864,0-3.956l0,0c1.092-1.093,2.864-1.093,3.956,0l15.36,15.36c1.093,1.093,1.093,2.864,0,3.956l0,0
			C594.91,222.102,593.139,222.102,592.046,221.009z"/>
		<path style="fill:#EF3FB4;stroke:#412351;stroke-width:2;stroke-miterlimit:10;" d="M563.304,235.089L563.304,235.089
			c-1.157-1.157-1.157-3.032,0-4.189l19.316-19.316l4.189,4.189l-19.316,19.316C566.337,236.246,564.461,236.246,563.304,235.089z"
			/>
		
			<ellipse transform="matrix(0.7071 -0.7071 0.7071 0.7071 28.994 479.2896)" style="opacity:0.58;fill:#FFFFFF;" cx="593.049" cy="204.646" rx="2.88" ry="4.84"/>
		<path style="fill:#412351;stroke:#412351;stroke-width:2;stroke-linecap:round;stroke-miterlimit:10;" d="M545.152,251.613
			L545.152,251.613c-0.45-0.45-0.45-1.179,0-1.629l5.017-9.877l6.73,7.415l-10.118,4.091
			C546.331,252.063,545.602,252.063,545.152,251.613z"/>
	</g>
	<path style="fill:#B9E9F5;stroke:#412351;stroke-width:2;stroke-linecap:round;stroke-miterlimit:10;" d="M108.884,203.346
		l3.352,6.791c0.186,0.377,0.546,0.639,0.962,0.699l7.495,1.089c1.048,0.152,1.467,1.44,0.708,2.18l-5.423,5.286
		c-0.301,0.294-0.439,0.717-0.368,1.131l1.28,7.464c0.179,1.044-0.917,1.84-1.854,1.347l-6.703-3.524
		c-0.372-0.196-0.817-0.196-1.189,0l-6.703,3.524c-0.937,0.493-2.033-0.303-1.854-1.347l1.28-7.464
		c0.071-0.415-0.066-0.837-0.368-1.131l-5.423-5.286c-0.758-0.739-0.34-2.027,0.708-2.18l7.495-1.089
		c0.416-0.06,0.776-0.322,0.962-0.699l3.352-6.791C107.061,202.397,108.416,202.397,108.884,203.346z"/>
	<path style="fill:#B9E9F5;stroke:#412351;stroke-width:2;stroke-linecap:round;stroke-miterlimit:10;" d="M615.576,352.722
		l3.352,6.791c0.186,0.377,0.546,0.639,0.962,0.699l7.495,1.089c1.048,0.152,1.467,1.44,0.708,2.18l-5.423,5.286
		c-0.301,0.294-0.439,0.717-0.367,1.131l1.28,7.464c0.179,1.044-0.917,1.84-1.854,1.347l-6.703-3.524
		c-0.372-0.196-0.817-0.196-1.189,0l-6.703,3.524c-0.937,0.493-2.033-0.303-1.854-1.347l1.28-7.464
		c0.071-0.415-0.066-0.837-0.367-1.131l-5.423-5.286c-0.758-0.739-0.34-2.027,0.708-2.18l7.495-1.089
		c0.416-0.06,0.776-0.322,0.962-0.699l3.352-6.791C613.753,351.773,615.107,351.773,615.576,352.722z"/>
	
		<circle style="fill:#B9E9F5;stroke:#412351;stroke-width:2;stroke-linecap:round;stroke-miterlimit:10;" cx="578.603" cy="118.28" r="3.53"/>
	
		<circle style="fill:#B9E9F5;stroke:#412351;stroke-width:2;stroke-linecap:round;stroke-miterlimit:10;" cx="188.542" cy="411.565" r="3.53"/>
</g>
<g id="TEXTS">
	<g>
		<g>
			<path style="fill:#9EE0EB;stroke:#412351;stroke-width:1.5838;stroke-linecap:round;stroke-miterlimit:10;" d="M634.717,140.525
				h-86.714c-6.212,0-11.248,5.036-11.248,11.248c0,6.212,5.036,11.248,11.248,11.248h20.677c-0.678,2.552-2.259,5.189-5.422,7.496
				c-0.502,0.367-0.19,1.16,0.425,1.069c3.351-0.497,9.487-2.271,13.323-8.565h57.711c6.212,0,11.248-5.036,11.248-11.248
				C645.966,145.561,640.93,140.525,634.717,140.525z"/>
		</g>
		<g>
			
				<text transform="matrix(1 0 0 1 546.2343 156.0598)" style="fill:#FFFFFF; font-family:'Poppins-BoldItalic'; font-size:13.4545px;">I LOVE THAT!</text>
		</g>
	</g>
	<g>
		<g>
			<path style="fill:#9EE0EB;stroke:#412351;stroke-width:1.5838;stroke-linecap:round;stroke-miterlimit:10;" d="M88.931,281.219
				h45.141c6.212,0,11.248,5.036,11.248,11.248c0,6.212-5.036,11.248-11.248,11.248h-20.676c0.678,2.552,2.259,5.189,5.422,7.496
				c0.502,0.367,0.19,1.16-0.425,1.069c-3.351-0.497-9.487-2.271-13.323-8.565H88.931c-6.212,0-11.248-5.036-11.248-11.248
				C77.683,286.255,82.719,281.219,88.931,281.219z"/>
		</g>
		<g>
			
				<text transform="matrix(1 0 0 1 84.7108 297.7541)" style="fill:#FFFFFF; font-family:'Poppins-BoldItalic'; font-size:13.4545px;">BEAUTY</text>
		</g>
	</g>
	<g>
		<g>
			<path style="fill:#FFD773;stroke:#412351;stroke-width:2;stroke-linecap:round;stroke-miterlimit:10;" d="M327.728,243.459
				h67.516c6.212,0,11.248,5.036,11.248,11.248c0,6.212-5.036,11.248-11.248,11.248h-20.676c0.678,2.552,2.259,5.189,5.422,7.496
				c0.502,0.367,0.19,1.16-0.425,1.069c-3.351-0.497-9.487-2.271-13.323-8.565h-38.512c-6.212,0-11.248-5.036-11.248-11.248
				C316.48,248.495,321.516,243.459,327.728,243.459z"/>
		</g>
		<g>
			
				<text transform="matrix(1 0 0 1 326.2842 259.9945)" style="fill:#FFFFFF; font-family:'Poppins-BoldItalic'; font-size:13.4545px;">YOU CAN!</text>
		</g>
	</g>
	<g>
		<g>
			<path style="fill:#D80085;stroke:#412351;stroke-width:2;stroke-miterlimit:10;" d="M613.931,414.023H568.79
				c-6.212,0-11.248-5.036-11.248-11.248c0-6.212,5.036-11.248,11.248-11.248h20.676c-0.677-2.552-2.259-5.189-5.422-7.496
				c-0.502-0.367-0.19-1.16,0.425-1.069c3.351,0.497,9.487,2.271,13.323,8.565h16.137c6.212,0,11.248,5.036,11.248,11.248
				C625.179,408.987,620.143,414.023,613.931,414.023z"/>
		</g>
		<g>
			<text transform="matrix(1 0 0 1 576.3327 408.27)"><tspan x="0" y="0" style="fill:#FFFFFF; font-family:'Poppins-BoldItalic'; font-size:13.4545px;">NICE</tspan><tspan x="31.617" y="0" style="fill:#FFFFFF; font-family:'Poppins-BoldItalic'; font-size:13.4545px; letter-spacing:5;">	</tspan></text>
		</g>
	</g>
	<g>
		<g>
			<path style="fill:#4600F7;stroke:#412351;stroke-width:2;stroke-miterlimit:10;" d="M656.663,263.945h-79.058
				c-6.212,0-11.248,5.036-11.248,11.248c0,6.212,5.036,11.248,11.248,11.248h33.632c-0.678,2.552-2.259,5.189-5.422,7.496
				c-0.503,0.367-0.19,1.16,0.425,1.069c3.351-0.497,9.487-2.271,13.323-8.565h37.099c6.212,0,11.248-5.036,11.248-11.248
				C667.911,268.981,662.876,263.945,656.663,263.945z"/>
		</g>
		<g>
			
				<text transform="matrix(1 0 0 1 573.3685 279.4123)" style="fill:#FFFFFF; font-family:'Poppins-BoldItalic'; font-size:13.4545px;">WONDERFUL</text>
		</g>
	</g>
	<g>
		<g>
			<path style="fill:#D80085;stroke:#412351;stroke-width:2;stroke-miterlimit:10;" d="M161.922,64.775h74.671
				c6.212,0,11.248,5.036,11.248,11.248c0,6.212-5.036,11.248-11.248,11.248h-50.207c0.678,2.552,2.259,5.189,5.422,7.496
				c0.502,0.367,0.19,1.16-0.425,1.069c-3.351-0.497-9.487-2.271-13.323-8.565h-16.137c-6.212,0-11.248-5.036-11.248-11.248
				C150.674,69.811,155.71,64.775,161.922,64.775z"/>
		</g>
		<g>
			
				<text transform="matrix(1 0 0 1 160.5462 80.7684)" style="fill:#FFFFFF; font-family:'Poppins-BoldItalic'; font-size:13.4545px;">YOU ROCK!</text>
		</g>
	</g>
</g>
</svg>
