<?xml version="1.0" encoding="utf-8"?>
<!-- Generator: Adobe Illustrator 27.5.0, SVG Export Plug-In . SVG Version: 6.00 Build 0)  -->
<svg version="1.1" xmlns="http://www.w3.org/2000/svg" xmlns:xlink="http://www.w3.org/1999/xlink" x="0px" y="0px"
	 viewBox="0 0 499.92 499.92" style="enable-background:new 0 0 499.92 499.92;" xml:space="preserve">
<g id="BACKGROUND">
	<rect x="-0.04" y="-0.04" style="fill-rule:evenodd;clip-rule:evenodd;fill:#FFFFFF;" width="500" height="500"/>
</g>
<g id="OBJECTS">
	<g>
		<polygon style="fill-rule:evenodd;clip-rule:evenodd;fill:#378591;" points="198.046,-0.04 301.874,-0.04 301.874,187.858 
			248.68,163.432 198.046,187.858 		"/>
		<text transform="matrix(1 0 0 1 205.6455 100.5557)"><tspan x="0" y="0" style="fill:#FFFFFF; font-family:'Vibur'; font-size:29.6937px;">C</tspan><tspan x="16.442" y="0" style="fill:#FFFFFF; font-family:'Vibur'; font-size:29.6937px;">hildren</tspan></text>
		<text transform="matrix(1 0 0 1 206.5249 127.29)"><tspan x="0" y="0" style="fill:#B3DAE0;stroke:#B3DAE0;stroke-width:0.216;stroke-miterlimit:5; font-family:'Pompiere-Regular'; font-size:22.3079px;">C</tspan><tspan x="10.119" y="0" style="fill:#B3DAE0;stroke:#B3DAE0;stroke-width:0.216;stroke-miterlimit:5; font-family:'Pompiere-Regular'; font-size:22.3079px;">HARACTER</tspan></text>
		<text transform="matrix(1 0 0 1 207.1382 151.832)"><tspan x="0" y="0" style="fill:#73B1BA;stroke:#73B1BA;stroke-width:0.216;stroke-miterlimit:5; font-family:'Pompiere-Regular'; font-size:21.0425px;">C</tspan><tspan x="9.545" y="0" style="fill:#73B1BA;stroke:#73B1BA;stroke-width:0.216;stroke-miterlimit:5; font-family:'Pompiere-Regular'; font-size:21.0425px;">OLLECTION</tspan></text>
	</g>
	<g>
		<ellipse style="fill-rule:evenodd;clip-rule:evenodd;fill:#E6E6E6;" cx="389.256" cy="446.085" rx="41.82" ry="11.152"/>
		<g>
			
				<path style="fill-rule:evenodd;clip-rule:evenodd;fill:none;stroke:#E04138;stroke-width:2.4001;stroke-linecap:round;stroke-linejoin:round;stroke-miterlimit:22.9256;" d="
				M374.082,438.443c-2.674-4.455-7.08-7.592-8.069-3.991C365.024,438.052,369.541,438.809,374.082,438.443z"/>
			
				<path style="fill-rule:evenodd;clip-rule:evenodd;fill:none;stroke:#E04138;stroke-width:2.4001;stroke-linecap:round;stroke-linejoin:round;stroke-miterlimit:22.9256;" d="
				M402.607,438.443c2.674-4.455,7.08-7.592,8.069-3.991C411.664,438.052,407.148,438.809,402.607,438.443z"/>
			<polygon style="fill-rule:evenodd;clip-rule:evenodd;fill:#FAC2AB;" points="365.816,394.018 365.816,375.173 410.084,375.173 
				410.084,394.018 402.315,439.61 391.456,439.61 391.456,394.018 385.361,394.018 385.361,439.61 374.501,439.61 			"/>
			<path style="fill-rule:evenodd;clip-rule:evenodd;fill:#A3B1B3;" d="M365.816,375.173h44.268
				c1.55,19.657,0.151,38.643-6.1,57.432h-12.528v-38.587l-6.095,0v38.587h-12.528C367.171,414.072,364.06,395.452,365.816,375.173z
				"/>
			
				<path style="fill-rule:evenodd;clip-rule:evenodd;fill:none;stroke:#7B8A8C;stroke-width:1.9199;stroke-linecap:round;stroke-linejoin:round;stroke-miterlimit:22.9256;" d="
				M389.418,381.172c0,3.76,0.836,11.595-2.925,11.386"/>
			<path style="fill-rule:evenodd;clip-rule:evenodd;fill:#FAC2AB;" d="M404.609,331.428c-2.982-1.951-6.981-1.116-8.933,1.866
				c-1.951,2.982,0.075,5.73,3.057,7.681c4.772,3.13,15.31,7.544,20.412,12.858c4.988,5.194,4.45,7.141,2.136,14.542
				c-3.28,3.454-4.463,7.775-0.474,4.911c-3.341,9.075,7.721,6.861,8.136-2.385c1.491-7.068,3.361-12.889-2.534-22.117
				C421.956,341.813,411.237,336.047,404.609,331.428z"/>
			<path style="fill-rule:evenodd;clip-rule:evenodd;fill:#FFFFFF;" d="M412.639,380.891h-49.533l3.867-24.597
				c-0.547,0.581-0.65,0.708-1.216,1.363l-10.152-8.689c4.248-5.867,12.916-18.819,26.031-21.111
				c5.072-1.956,10.781-1.741,15.624,0.656c11.584,3.507,20.943,9.942,26.486,15.167l-13.145,13.978
				c-0.619-0.716-0.732-0.51-1.021-1.375L412.639,380.891z"/>
			<path style="fill-rule:evenodd;clip-rule:evenodd;fill:#EBB845;" d="M410.451,380.891
				c-17.707-14.779-15.142-37.544-14.451-52.876c2.613,1.466,8.637,2.379,10.248,4.624
				C410.003,337.871,414.702,371.721,410.451,380.891z"/>
			<path style="fill-rule:evenodd;clip-rule:evenodd;fill:#EBB845;" d="M365.816,380.891c17.707-14.779,15.691-37.544,15-52.876
				c-2.613,1.466-8.637,2.379-10.248,4.624C366.813,337.872,361.565,371.721,365.816,380.891z"/>
			<path style="fill-rule:evenodd;clip-rule:evenodd;fill:#FD645C;" d="M374.216,438.327c5.069,1.474,7.122,1.609,11.145,0.206
				c0,2.517,0,5.035,0,7.552h-32.074v-2.06C353.287,434.004,367.199,429.734,374.216,438.327z"/>
			<path style="fill-rule:evenodd;clip-rule:evenodd;fill:#FD645C;" d="M402.601,438.327c-5.069,1.474-7.122,1.609-11.145,0.206
				c0,2.517,0,5.035,0,7.552h32.073v-2.06C423.529,434.004,409.618,429.734,402.601,438.327z"/>
			<path style="fill-rule:evenodd;clip-rule:evenodd;fill:#EDB097;" d="M388.408,301.208L388.408,301.208
				c4.176,0,7.592,3.416,7.592,7.592v20.128c0,4.176-3.416,7.592-7.592,7.592l0,0c-4.176,0-7.592-3.416-7.592-7.592V308.8
				C380.816,304.624,384.233,301.208,388.408,301.208z"/>
			<ellipse style="fill-rule:evenodd;clip-rule:evenodd;fill:#FAC2AB;" cx="388.409" cy="292.2" rx="38.577" ry="32.049"/>
			<path style="fill-rule:evenodd;clip-rule:evenodd;fill:#9E5833;" d="M355.061,298.801c3.086-12.776,6.047-21.523,12.804-26.535
				c5.392-3.999,13.256-1.805,19.789-2.07c6.407-0.259,15.612-1.982,21.584,1.658c7.504,4.572,8.518,14.285,11.389,27.182
				c0.599,4.219,6.413-0.067,6.55-1.381c5.284-50.585-82.406-51.769-77.249,0.755C350.081,299.97,354.677,301.763,355.061,298.801z"
				/>
			<path style="fill-rule:evenodd;clip-rule:evenodd;fill:#4D4D4D;" d="M401.027,299.556c1.158,0,2.102-1.833,2.102-4.08
				c0-2.247-0.944-4.08-2.102-4.08c-1.157,0-2.102,1.833-2.102,4.08C398.925,297.723,399.87,299.556,401.027,299.556z"/>
			<path style="fill-rule:evenodd;clip-rule:evenodd;fill:#4D4D4D;" d="M375.79,299.556c1.158,0,2.102-1.833,2.102-4.08
				c0-2.247-0.944-4.08-2.102-4.08c-1.157,0-2.102,1.833-2.102,4.08C373.688,297.723,374.632,299.556,375.79,299.556z"/>
			<rect x="353.287" y="444.197" style="fill-rule:evenodd;clip-rule:evenodd;fill:#E04138;" width="32.073" height="1.888"/>
			<rect x="391.456" y="444.197" style="fill-rule:evenodd;clip-rule:evenodd;fill:#E04138;" width="32.073" height="1.888"/>
			<path style="fill-rule:evenodd;clip-rule:evenodd;fill:#D19077;" d="M386.833,306.868c4.327,1.01,6.18-1.625,4.981-5.267
				C391.898,303.996,390.062,306.651,386.833,306.868z"/>
			
				<path style="fill-rule:evenodd;clip-rule:evenodd;fill:none;stroke:#9E5833;stroke-width:2.4001;stroke-linecap:round;stroke-linejoin:round;stroke-miterlimit:22.9256;" d="
				M404.584,287.788c-1.496-1.114-4.615-2.104-7.114-1.299"/>
			
				<path style="fill-rule:evenodd;clip-rule:evenodd;fill:none;stroke:#9E5833;stroke-width:2.4001;stroke-linecap:round;stroke-linejoin:round;stroke-miterlimit:22.9256;" d="
				M372.233,287.788c1.496-1.114,4.615-2.104,7.114-1.299"/>
			<path style="fill-rule:evenodd;clip-rule:evenodd;fill:#7B8A8C;" d="M385.961,429.64v5.931h-13.933
				c-0.603-1.975-1.18-3.952-1.73-5.931H385.961z"/>
			<path style="fill-rule:evenodd;clip-rule:evenodd;fill:#7B8A8C;" d="M390.526,429.64v5.931h13.933
				c0.603-1.975,1.18-3.952,1.729-5.931H390.526z"/>
			<path style="fill-rule:evenodd;clip-rule:evenodd;fill:#FBB49F;" d="M402.866,299.664c0.994-1.657,3.663-1.882,5.962-0.503
				c2.299,1.379,3.358,3.84,2.364,5.496c-0.993,1.657-3.663,1.882-5.962,0.503C402.931,303.782,401.872,301.321,402.866,299.664z"/>
			<path style="fill-rule:evenodd;clip-rule:evenodd;fill:#FBB49F;" d="M375.287,299.664c-0.994-1.657-3.663-1.882-5.962-0.503
				c-2.299,1.379-3.358,3.84-2.364,5.496c0.993,1.657,3.663,1.882,5.962,0.503C375.223,303.781,376.281,301.321,375.287,299.664z"/>
			
				<path style="fill-rule:evenodd;clip-rule:evenodd;fill:none;stroke:#E04138;stroke-width:2.4001;stroke-linecap:round;stroke-linejoin:round;stroke-miterlimit:22.9256;" d="
				M374.186,437.438c3.266,4.041,8.066,6.536,8.545,2.832C383.21,436.567,378.632,436.445,374.186,437.438z"/>
			
				<path style="fill-rule:evenodd;clip-rule:evenodd;fill:none;stroke:#E04138;stroke-width:2.4001;stroke-linecap:round;stroke-linejoin:round;stroke-miterlimit:22.9256;" d="
				M402.776,437.438c-3.266,4.041-8.066,6.536-8.545,2.832C393.752,436.567,398.33,436.445,402.776,437.438z"/>
			<path style="fill-rule:evenodd;clip-rule:evenodd;fill:#FAC2AB;" d="M427.107,292.904c-2.349-0.835-5.192,1.132-6.35,4.392
				c-1.158,3.26-0.192,6.579,2.157,7.414c2.349,0.834,5.192-1.132,6.35-4.393C430.422,297.057,429.457,293.738,427.107,292.904z"/>
			<path style="fill-rule:evenodd;clip-rule:evenodd;fill:#FAC2AB;" d="M348.572,292.904c2.349-0.835,5.192,1.132,6.35,4.392
				c1.158,3.26,0.192,6.579-2.157,7.414c-2.349,0.834-5.192-1.132-6.35-4.393C345.257,297.057,346.223,293.738,348.572,292.904z"/>
			
				<path style="fill-rule:evenodd;clip-rule:evenodd;fill:none;stroke:#D19077;stroke-width:1.4397;stroke-linecap:round;stroke-linejoin:round;stroke-miterlimit:22.9256;" d="
				M377.137,309.384c5.457,3.418,19.22,3.375,22.542,0"/>
			
				<path style="fill-rule:evenodd;clip-rule:evenodd;fill:none;stroke:#D19077;stroke-width:1.4397;stroke-linecap:round;stroke-linejoin:round;stroke-miterlimit:22.9256;" d="
				M385.448,315.201c1.485,1.742,5.156,1.739,5.921,0"/>
			<path style="fill-rule:evenodd;clip-rule:evenodd;fill:#FAC2AB;" d="M364.436,356.526c-0.922,1.836-1.427,3.712-1.458,5.565
				c-0.09,5.316,3.435,8.176,7.74,14.947c4.207,2.568,6.552,6.567,1.796,4.779c5.781,8.167-5.842,12.4-8.771-0.192
				c-3.393-6.661-11.183-15.037-9.342-24.331c0.467-2.358,1.313-4.802,2.51-7.21L364.436,356.526z"/>
			<polygon style="fill-rule:evenodd;clip-rule:evenodd;fill:#A3B1B3;" points="366.974,390.383 373.991,383.366 379.586,386.429 
				368.931,397.397 			"/>
			<g>
				
					<line style="fill-rule:evenodd;clip-rule:evenodd;fill:none;stroke:#7B8A8C;stroke-width:1.9199;stroke-linecap:round;stroke-linejoin:round;stroke-miterlimit:22.9256;" x1="400.955" y1="382.217" x2="407.972" y2="389.234"/>
				
					<line style="fill-rule:evenodd;clip-rule:evenodd;fill:none;stroke:#7B8A8C;stroke-width:1.9199;stroke-linecap:round;stroke-linejoin:round;stroke-miterlimit:22.9256;" x1="373.991" y1="383.366" x2="366.974" y2="390.383"/>
			</g>
			<g>
				<path style="fill-rule:evenodd;clip-rule:evenodd;fill:#7B8A8C;" d="M426.482,359.98c2.929,8.384-1.494,17.555-9.878,20.484
					c-8.384,2.929-17.555-1.494-20.484-9.878c-2.929-8.384,1.494-17.555,9.878-20.484
					C414.382,347.174,423.554,351.596,426.482,359.98z"/>
				<path style="fill-rule:evenodd;clip-rule:evenodd;fill:#D5DEE0;" d="M411.64,362.655c1.459-0.021,6.13,0.162,6.985,0.213
					c0.752,1.552,1.773,5.873,1.498,7.086c-0.881,1.076-4.561,3.129-5.968,3.9c-1.644-1.31-4.405-3.418-5.194-4.678
					C409.503,367.73,411.095,363.892,411.64,362.655z"/>
				<path style="fill-rule:evenodd;clip-rule:evenodd;fill:#D5DEE0;" d="M398.834,364.964c0.609,1.742,2.252,4.449,3.474,5.348
					c-0.48,1.424-0.861,3.931-0.724,4.721c-1.631-0.219-3.025-0.908-3.609-1.617c-0.702-1.13-2.146-4.762-1.745-6.914
					C397.102,365.603,397.708,365.31,398.834,364.964z"/>
				<path style="fill-rule:evenodd;clip-rule:evenodd;fill:#D5DEE0;" d="M407.574,357.143c0.22-1.06,1.904-3.747,2.734-4.561
					c-0.245-0.701-1.985-1.929-3.317-1.988c-1.148,0.467-4.771,1.732-6.113,3.709c-0.217,1.256-0.002,2.623,0.348,3.812
					C402.702,357.271,406.867,356.996,407.574,357.143z"/>
				<path style="fill-rule:evenodd;clip-rule:evenodd;fill:#D5DEE0;" d="M416.562,380.479c-0.786-0.128-2.019-0.005-3.647-1.665
					c-1.279,0.525-4.114,1.175-5.621,1.177c0.054,0.263,0.2,0.602,0.393,0.964C410.536,381.613,413.597,381.505,416.562,380.479z"/>
				<path style="fill-rule:evenodd;clip-rule:evenodd;fill:#D5DEE0;" d="M427.282,367.107c-0.365,3.182-1.679,6.187-3.745,8.614
					c0.905-1.799,1.237-3.567,0.935-4.602c1.025-1.018,2.318-3.33,2.521-4.121C427.048,367.004,427.15,367.043,427.282,367.107z"/>
				<path style="fill-rule:evenodd;clip-rule:evenodd;fill:#D5DEE0;" d="M419.599,351.509c1.902,1.144,3.576,2.685,4.882,4.555
					c0.429,1.461,0.794,2.902,0.792,3.433c-0.887-0.65-2.44-1.488-3.999-1.484c-0.341-1.321-2.623-4.245-3.764-5.107
					C418.128,352.271,418.553,351.942,419.599,351.509z"/>
				<path style="fill-rule:evenodd;clip-rule:evenodd;fill:#D5DEE0;" d="M421.273,357.622c0.035-0.088,0.136-0.131,0.224-0.095
					c0.088,0.035,0.131,0.136,0.095,0.224c-0.246,0.61-0.875,1.909-1.413,2.895c-0.455,0.834-0.958,1.678-1.414,2.322
					c-0.055,0.078-0.162,0.096-0.24,0.041c-0.077-0.055-0.096-0.163-0.041-0.24c0.45-0.636,0.945-1.467,1.393-2.288
					C420.408,359.508,421.031,358.223,421.273,357.622L421.273,357.622z M397.872,374.133c-0.075-0.115-0.149-0.23-0.222-0.347
					c0.081-0.189,0.227-0.622,0.249-0.703c0.025-0.092,0.12-0.146,0.211-0.121c0.092,0.025,0.146,0.12,0.12,0.212
					C398.198,373.292,398.011,373.82,397.872,374.133L397.872,374.133z M395.225,365.786c-0.005-0.147-0.007-0.294-0.007-0.44
					c0.458,0.332,0.992,0.833,1.294,1.147l0.029,0.03c0.066,0.069,0.064,0.178-0.005,0.243s-0.177,0.064-0.243-0.005l-0.029-0.03
					C396.022,366.48,395.563,366.057,395.225,365.786L395.225,365.786z M398.968,354.963c0.144-0.172,0.29-0.341,0.441-0.508
					c0.58-0.181,1.452-0.277,1.8-0.292c0.095-0.004,0.176,0.07,0.18,0.165c0.004,0.095-0.07,0.176-0.165,0.18
					c-0.363,0.016-1.302,0.139-1.943,0.349C399.177,354.892,399.073,354.927,398.968,354.963L398.968,354.963z M406.766,349.856
					c0.115-0.034,0.229-0.065,0.343-0.096c-0.009,0.359,0.037,0.761,0.08,0.906c0.027,0.091-0.025,0.187-0.116,0.214
					c-0.091,0.027-0.187-0.025-0.214-0.116C406.813,350.608,406.762,350.207,406.766,349.856L406.766,349.856z M411.781,362.556
					c0.054,0.078,0.035,0.186-0.043,0.24c-0.078,0.054-0.185,0.035-0.24-0.043c-0.137-0.195-0.32-0.459-0.525-0.755
					c-0.962-1.388-2.564-3.683-3.695-4.963c-0.063-0.072-0.056-0.181,0.016-0.243c0.072-0.063,0.181-0.056,0.243,0.016
					c1.14,1.29,2.752,3.598,3.719,4.995C411.446,362.075,411.617,362.322,411.781,362.556L411.781,362.556z M418.076,352.853
					c0.084,0.044,0.117,0.148,0.073,0.232c-0.044,0.085-0.148,0.117-0.232,0.073c-0.567-0.296-2.465-0.63-3.962-0.698
					c-1.313-0.059-3.216,0.097-4.131,0.371c-0.091,0.027-0.187-0.024-0.215-0.115c-0.028-0.091,0.024-0.187,0.115-0.215
					c0.955-0.286,2.9-0.446,4.246-0.385C415.513,352.186,417.468,352.535,418.076,352.853L418.076,352.853z M401.347,357.515
					c0.06-0.074,0.168-0.085,0.242-0.025c0.074,0.06,0.085,0.168,0.025,0.242c-0.469,0.577-1.282,2.335-1.737,3.641
					c-0.51,1.459-1.015,3.569-0.997,4.201c0.003,0.095-0.072,0.174-0.167,0.177c-0.095,0.003-0.174-0.072-0.177-0.167
					c-0.019-0.672,0.494-2.833,1.016-4.325C400.018,359.922,400.85,358.126,401.347,357.515L401.347,357.515z M401.233,374.82
					c-0.045-0.084-0.014-0.188,0.07-0.233c0.084-0.045,0.188-0.014,0.233,0.07c0.45,0.831,1.552,2.172,2.64,3.116
					c0.982,0.853,2.739,1.981,3.812,2.422c0.088,0.036,0.13,0.137,0.094,0.224c-0.036,0.088-0.136,0.13-0.224,0.094
					c-1.112-0.456-2.901-1.606-3.908-2.48C402.834,377.065,401.703,375.688,401.233,374.82L401.233,374.82z M409.145,368.958
					c0.091-0.026,0.187,0.026,0.213,0.118c0.026,0.092-0.026,0.187-0.118,0.214c-0.769,0.222-2.383,0.614-3.857,0.866
					c-1.037,0.177-2.557,0.317-3.508,0.336c-0.095,0.002-0.174-0.073-0.176-0.169c-0.002-0.095,0.073-0.174,0.169-0.176
					c0.934-0.019,2.436-0.156,3.457-0.331C406.786,369.566,408.384,369.177,409.145,368.958L409.145,368.958z M413.988,373.492
					c-0.002-0.095,0.074-0.174,0.169-0.176c0.095-0.002,0.174,0.074,0.176,0.169c0.01,0.592-0.153,1.908-0.393,2.868
					c-0.238,0.949-0.996,2.877-1.311,3.504c-0.042,0.085-0.146,0.12-0.231,0.077c-0.085-0.043-0.12-0.146-0.077-0.231
					c0.305-0.607,1.054-2.508,1.286-3.434C413.839,375.34,413.997,374.058,413.988,373.492L413.988,373.492z M419.825,370.019
					c-0.089-0.033-0.135-0.132-0.102-0.222c0.033-0.089,0.133-0.135,0.222-0.102c1.616,0.6,3.723,1.057,4.623,1.242
					c0.192,0.039,0.367,0.075,0.536,0.113c0.093,0.02,0.151,0.112,0.131,0.205c-0.02,0.093-0.112,0.151-0.205,0.131
					c-0.152-0.034-0.333-0.071-0.532-0.112C423.586,371.087,421.463,370.626,419.825,370.019L419.825,370.019z M424.866,359.097
					c-0.053-0.079-0.032-0.186,0.047-0.239s0.186-0.031,0.239,0.047c0.45,0.672,1.169,2.52,1.503,3.974
					c0.335,1.463,0.613,3.385,0.573,4.473c-0.003,0.095-0.083,0.169-0.178,0.166c-0.095-0.003-0.169-0.083-0.166-0.178
					c0.038-1.058-0.235-2.946-0.565-4.383C425.994,361.539,425.292,359.733,424.866,359.097z"/>
			</g>
			<path style="fill-rule:evenodd;clip-rule:evenodd;fill:#FAC2AB;" d="M422.96,360.373c0.169,2.038-0.539,4.359-1.678,8.001
				c-3.28,3.454-4.463,7.775-0.474,4.911c-3.341,9.075,7.721,6.861,8.136-2.385c0.815-3.867,1.745-7.36,1.454-11.242L422.96,360.373
				z"/>
			<path style="fill-rule:evenodd;clip-rule:evenodd;fill:#CC9A25;" d="M370.568,332.639c-11.416,5.948-19.801,24.088-18.261,29.735
				s5.261,18.594,9.385,15.696c4.124-2.898,3.56-2.29,6.567-4.664c3.007-2.374-7.821-10.762-3.073-18.085
				C366.126,348.772,367.008,343.772,370.568,332.639z"/>
			<path style="fill-rule:evenodd;clip-rule:evenodd;fill:#CC9A25;" d="M404.609,331.428c12.828,4.7,20.968,12.926,24.061,19.988
				c3.093,7.062,4.523,17.248,0.927,16.443c-2.204-0.493-3.711-1.507-7.312-2.814c-3.601-1.306,4.488-10.495-11.715-15.83
				C409.515,343.476,408.227,338.509,404.609,331.428z"/>
		</g>
	</g>
	<g>
		<ellipse style="fill-rule:evenodd;clip-rule:evenodd;fill:#E6E6E6;" cx="388.113" cy="228.293" rx="41.82" ry="11.152"/>
		<g>
			
				<ellipse transform="matrix(0.0437 -0.999 0.999 0.0437 269.6154 505.2809)" style="fill-rule:evenodd;clip-rule:evenodd;fill:#965633;" cx="398.744" cy="111.805" rx="13.232" ry="13.232"/>
			
				<ellipse transform="matrix(0.986 -0.1665 0.1665 0.986 -11.9176 70.4431)" style="fill-rule:evenodd;clip-rule:evenodd;fill:#965633;" cx="414.1" cy="106.287" rx="13.232" ry="13.232"/>
			
				<ellipse transform="matrix(0.9296 -0.3686 0.3686 0.9296 -2.6807 161.34)" style="fill-rule:evenodd;clip-rule:evenodd;fill:#965633;" cx="421" cy="87.687" rx="13.232" ry="13.232"/>
			
				<ellipse transform="matrix(0.9729 -0.2311 0.2311 0.9729 -15.6054 90.3616)" style="fill-rule:evenodd;clip-rule:evenodd;fill:#965633;" cx="377.98" cy="111.805" rx="13.232" ry="13.232"/>
			<circle style="fill-rule:evenodd;clip-rule:evenodd;fill:#965633;" cx="362.624" cy="106.287" r="13.232"/>
			<circle style="fill-rule:evenodd;clip-rule:evenodd;fill:#965633;" cx="355.724" cy="87.687" r="13.232"/>
			<g>
				<path style="fill-rule:evenodd;clip-rule:evenodd;fill:#965633;" d="M388.504,51.234c21.572,0,39.033,19.105,39.033,42.69
					c0,23.556-17.461,42.661-39.033,42.661c-12.926,0-24.406-6.888-31.521-17.49c-4.705-7.058-7.512-15.761-7.512-25.172
					C349.471,70.339,366.96,51.234,388.504,51.234L388.504,51.234z"/>
			</g>
			<polygon style="fill-rule:evenodd;clip-rule:evenodd;fill:#FAC2AB;" points="371.266,161.849 404.852,161.849 399.751,224.122 
				389.256,224.122 389.256,180.061 387.144,180.061 387.144,224.122 376.649,224.122 			"/>
			<path style="fill-rule:evenodd;clip-rule:evenodd;fill:#FD645C;" d="M384.791,116.21c0.044,0.157,0.085,0.308,0.128,0.462
				c2.247-0.594,4.595-0.707,6.867-0.341l0.033-0.121c14.405,1.848,21.95,14.212,25.042,20.908l-9.174,7.863
				c-0.216-0.295-0.968-2.589-2.375-3.316c3.163,10.104,5.555,34.592,6.295,43.761c-30.331,0-16.174,0-46.603,0
				c0.924-7.971,2.935-27.555,8.86-43.411c-1.169-0.354-4.601,2.503-4.941,2.967l-9.174-7.863
				C362.841,130.422,370.386,118.058,384.791,116.21z"/>
			<g>
				<path style="fill-rule:evenodd;clip-rule:evenodd;fill:#E3524B;" d="M389.266,116.122c0.7,1.138,1.099,2.457,1.099,3.864
					c0,4.287-3.715,7.762-8.298,7.762c-4.514,0-8.187-3.373-8.295-7.572c3.117-1.96,6.769-3.421,11.019-3.966
					c0.044,0.157,0.085,0.308,0.128,0.462C386.342,116.296,387.806,116.113,389.266,116.122z"/>
				<path style="fill-rule:evenodd;clip-rule:evenodd;fill:#E3524B;" d="M387.533,116.202c-0.67,1.12-1.052,2.41-1.052,3.784
					c0,4.287,3.715,7.762,8.298,7.762c4.462,0,8.101-3.295,8.29-7.425c-3.168-2.034-6.894-3.554-11.249-4.113l-0.033,0.121
					C390.383,116.105,388.951,116.062,387.533,116.202z"/>
			</g>
			<path style="fill-rule:evenodd;clip-rule:evenodd;fill:#E3524B;" d="M373.864,142.211c-0.759,2.17-1.448,4.406-2.076,6.672
				h35.079c-0.458-2.618-0.955-4.949-1.495-6.835L373.864,142.211z"/>
			
				<path style="fill-rule:evenodd;clip-rule:evenodd;fill:none;stroke:#CC9A25;stroke-width:2.4001;stroke-linecap:round;stroke-linejoin:round;stroke-miterlimit:22.9256;" d="
				M376.23,222.396c-2.674-4.455-7.08-7.592-8.069-3.991C367.172,222.005,371.689,222.762,376.23,222.396z"/>
			<path style="fill-rule:evenodd;clip-rule:evenodd;fill:#EBB845;" d="M376.373,222.882c4.898,1.424,6.883,1.555,10.771,0.199
				c0,2.433,0,4.866,0,7.299h-30.996v-1.991C356.147,218.704,369.591,214.578,376.373,222.882z"/>
			
				<path style="fill-rule:evenodd;clip-rule:evenodd;fill:none;stroke:#CC9A25;stroke-width:2.4001;stroke-linecap:round;stroke-linejoin:round;stroke-miterlimit:22.9256;" d="
				M400.861,222.396c2.674-4.455,7.08-7.592,8.069-3.991C409.919,222.005,405.402,222.762,400.861,222.396z"/>
			<path style="fill-rule:evenodd;clip-rule:evenodd;fill:#EBB845;" d="M400.026,222.882c-4.899,1.424-6.882,1.555-10.77,0.199
				c0,2.433,0,4.866,0,7.299h30.996v-1.991C420.252,218.704,406.808,214.578,400.026,222.882z"/>
			<rect x="356.147" y="228.555" style="fill-rule:evenodd;clip-rule:evenodd;fill:#CC9A25;" width="30.996" height="1.825"/>
			<rect x="389.256" y="228.555" style="fill-rule:evenodd;clip-rule:evenodd;fill:#CC9A25;" width="30.996" height="1.825"/>
			
				<path style="fill-rule:evenodd;clip-rule:evenodd;fill:none;stroke:#CC9A25;stroke-width:2.4001;stroke-linecap:round;stroke-linejoin:round;stroke-miterlimit:22.9256;" d="
				M375.583,221.391c3.266,4.041,8.066,6.536,8.545,2.832C384.607,220.52,380.029,220.398,375.583,221.391z"/>
			
				<path style="fill-rule:evenodd;clip-rule:evenodd;fill:none;stroke:#CC9A25;stroke-width:2.4001;stroke-linecap:round;stroke-linejoin:round;stroke-miterlimit:22.9256;" d="
				M401.508,221.391c-3.266,4.041-8.066,6.536-8.545,2.832C392.485,220.52,397.063,220.398,401.508,221.391z"/>
			<path style="fill-rule:evenodd;clip-rule:evenodd;fill:#EDB097;" d="M388.423,90.368L388.423,90.368
				c4.036,0,7.337,3.301,7.337,7.337v19.452c0,4.036-3.301,7.337-7.337,7.337h0c-4.035,0-7.337-3.302-7.337-7.337V97.704
				C381.086,93.669,384.387,90.368,388.423,90.368z"/>
			<ellipse style="fill-rule:evenodd;clip-rule:evenodd;fill:#FAC2AB;" cx="388.423" cy="81.663" rx="37.282" ry="30.972"/>
			<path style="fill-rule:evenodd;clip-rule:evenodd;fill:#965633;" d="M359.655,83.448c19.257-2.727,36.597-14.384,45.767-20.581
				c2.241,6.593,11.686,13.711,14.926,22.261c3.347,8.833,4.3,4.205,5.227,0.257c4.295-18.277-11.272-31.213-19.591-31.731
				c-21.411-14.463-60.529,0.159-54.703,32.455C351.836,89.181,354.397,84.192,359.655,83.448z"/>
			<g>
				<path style="fill-rule:evenodd;clip-rule:evenodd;fill:#FBB49F;" d="M399.37,90.878c0.993-1.657,3.663-1.882,5.962-0.503
					c2.299,1.379,3.358,3.84,2.364,5.497c-0.994,1.657-3.663,1.882-5.962,0.503C399.435,94.995,398.376,92.535,399.37,90.878z"/>
				<path style="fill-rule:evenodd;clip-rule:evenodd;fill:#FBB49F;" d="M377.477,90.878c-0.994-1.657-3.663-1.882-5.962-0.503
					c-2.299,1.379-3.358,3.84-2.364,5.497c0.993,1.657,3.663,1.882,5.962,0.503C377.411,94.995,378.47,92.535,377.477,90.878z"/>
			</g>
			<path style="fill-rule:evenodd;clip-rule:evenodd;fill:#D19077;" d="M387.66,95.838c4.182,0.977,5.973-1.571,4.814-5.09
				C392.555,93.062,390.781,95.628,387.66,95.838z"/>
			
				<path style="fill-rule:evenodd;clip-rule:evenodd;fill:none;stroke:#965633;stroke-width:2.4001;stroke-linecap:round;stroke-linejoin:round;stroke-miterlimit:22.9256;" d="
				M402.769,77.164c-1.539-1.054-4.695-1.919-7.16-1.016"/>
			<g>
				<path style="fill-rule:evenodd;clip-rule:evenodd;fill:#4D4D4D;" d="M399.492,87.961c1.158,0,2.102-1.833,2.102-4.08
					c0-2.247-0.944-4.08-2.102-4.08c-1.157,0-2.102,1.833-2.102,4.08C397.39,86.128,398.335,87.961,399.492,87.961z"/>
				<path style="fill-rule:evenodd;clip-rule:evenodd;fill:#4D4D4D;" d="M377.354,87.961c1.158,0,2.102-1.833,2.102-4.08
					c0-2.247-0.944-4.08-2.102-4.08c-1.157,0-2.102,1.833-2.102,4.08C375.253,86.128,376.197,87.961,377.354,87.961z"/>
			</g>
			
				<path style="fill-rule:evenodd;clip-rule:evenodd;fill:none;stroke:#965633;stroke-width:2.4001;stroke-linecap:round;stroke-linejoin:round;stroke-miterlimit:22.9256;" d="
				M373.4,77.164c1.539-1.054,4.695-1.919,7.16-1.016"/>
			
				<rect x="403.158" y="148.688" transform="matrix(0.9941 -0.1082 0.1082 0.9941 -14.655 46.0095)" style="fill-rule:evenodd;clip-rule:evenodd;fill:#D5DEE0;" width="26.846" height="18.681"/>
			
				<rect x="404.519" y="150.915" style="fill-rule:evenodd;clip-rule:evenodd;fill:#3C7D66;stroke:#3C7D66;stroke-width:0.216;stroke-miterlimit:22.9256;" width="26.846" height="18.681"/>
			<path style="fill-rule:evenodd;clip-rule:evenodd;fill:#FAC2AB;" d="M408.367,144.398c0.111,0.166,0.421,0.509,0.529,0.674
				c3.908,5.995,5.224,10.768,4.752,18.508c-2.356,4.139-2.468,8.619,0.717,4.881c-0.389,3.506,2.428,3.327,4.178,3.388
				c2.643,0.091,5.318-0.021,3.149-7.654c-0.248-7.22-1.408-15.716-5.015-23.331c-0.394-0.832-0.808-1.641-1.276-2.495
				L408.367,144.398z"/>
			<path style="fill-rule:evenodd;clip-rule:evenodd;fill:#FAC2AB;" d="M368.098,144.274c-2.273,5.662-2.549,10.75-1.068,17.615
				c2.954,3.736,3.741,8.147,0.028,4.933c2.506,9.34-9.448,9.285-7.887-3.111c-0.845-7.174-0.982-15.748,1.434-23.82
				c0.162-0.542,0.323-1.045,0.512-1.6L368.098,144.274z"/>
			<g>
				<path style="fill-rule:evenodd;clip-rule:evenodd;fill:#E3524B;" d="M360.703,139.18c0.675,0,1.227-0.551,1.227-1.227
					c0-0.676-0.551-1.226-1.227-1.226c-0.676,0-1.226,0.551-1.226,1.226C359.477,138.628,360.028,139.18,360.703,139.18z"/>
				<path style="fill-rule:evenodd;clip-rule:evenodd;fill:#E3524B;" d="M362.528,140.743c0.675,0,1.227-0.551,1.227-1.227
					c0-0.676-0.551-1.226-1.227-1.226c-0.676,0-1.226,0.551-1.226,1.226C361.301,140.192,361.852,140.743,362.528,140.743z"/>
				<path style="fill-rule:evenodd;clip-rule:evenodd;fill:#E3524B;" d="M364.34,142.297c0.675,0,1.226-0.551,1.226-1.227
					c0-0.675-0.551-1.226-1.226-1.226c-0.676,0-1.226,0.551-1.226,1.226C363.114,141.746,363.665,142.297,364.34,142.297z"/>
				<path style="fill-rule:evenodd;clip-rule:evenodd;fill:#E3524B;" d="M366.142,143.84c0.676,0,1.226-0.551,1.226-1.227
					c0-0.675-0.551-1.226-1.226-1.226s-1.226,0.551-1.226,1.226C364.915,143.29,365.466,143.84,366.142,143.84z"/>
				<path style="fill-rule:evenodd;clip-rule:evenodd;fill:#E3524B;" d="M367.951,145.391c0.675,0,1.226-0.551,1.226-1.227
					c0-0.675-0.551-1.226-1.226-1.226c-0.676,0-1.226,0.551-1.226,1.226C366.724,144.84,367.275,145.391,367.951,145.391z"/>
			</g>
			<path style="fill-rule:evenodd;clip-rule:evenodd;fill:none;stroke:#EBB845;stroke-width:1.9199;stroke-miterlimit:22.9256;" d="
				M351.311,84.64c5.644-38.5,67.844-39.413,74.817,0"/>
			<path style="fill-rule:evenodd;clip-rule:evenodd;fill:#FAC2AB;" d="M427.458,80.629c-2.349-0.835-5.193,1.132-6.35,4.393
				c-1.158,3.26-0.192,6.579,2.157,7.414c2.349,0.835,5.193-1.132,6.35-4.393C430.772,84.782,429.807,81.463,427.458,80.629z"/>
			<path style="fill-rule:evenodd;clip-rule:evenodd;fill:#FAC2AB;" d="M350.297,80.629c2.349-0.835,5.192,1.132,6.35,4.393
				c1.158,3.26,0.192,6.579-2.157,7.414c-2.349,0.835-5.193-1.132-6.35-4.393C346.982,84.782,347.948,81.463,350.297,80.629z"/>
			<path style="fill-rule:evenodd;clip-rule:evenodd;fill:none;stroke:#EBB845;stroke-width:1.9199;stroke-miterlimit:22.9256;" d="
				M373.139,58.18c-6.758-6.213-14.354-5.037-15.745-1.399C356.003,60.418,362.529,62.451,373.139,58.18z"/>
			<path style="fill-rule:evenodd;clip-rule:evenodd;fill:none;stroke:#EBB845;stroke-width:1.9199;stroke-miterlimit:22.9256;" d="
				M373.139,58.18c-1.445-9.066,3.733-14.747,7.534-13.896C384.473,45.134,382.561,51.697,373.139,58.18z"/>
			<path style="fill-rule:evenodd;clip-rule:evenodd;fill:#EDB097;" d="M375.349,98.075c6.331,2.508,22.294,2.614,26.147,0
				C396.843,111.285,380.87,111.45,375.349,98.075z"/>
			<path style="fill-rule:evenodd;clip-rule:evenodd;fill:#FFFFFF;" d="M397.567,100.041c-2.626,5.175-15.15,4.73-18.288-0.211
				C384.837,100.862,392.636,100.957,397.567,100.041z"/>
			<g>
				<path style="fill-rule:evenodd;clip-rule:evenodd;fill:#E3524B;" d="M415.9,139.168c0.676,0,1.227-0.551,1.227-1.227
					c0-0.676-0.551-1.226-1.227-1.226s-1.226,0.551-1.226,1.226C414.673,138.617,415.224,139.168,415.9,139.168z"/>
				<path style="fill-rule:evenodd;clip-rule:evenodd;fill:#E3524B;" d="M414.075,140.732c0.676,0,1.227-0.551,1.227-1.227
					c0-0.676-0.551-1.226-1.227-1.226s-1.226,0.551-1.226,1.226C412.849,140.181,413.4,140.732,414.075,140.732z"/>
				<path style="fill-rule:evenodd;clip-rule:evenodd;fill:#E3524B;" d="M412.263,142.286c0.676,0,1.226-0.551,1.226-1.227
					c0-0.676-0.551-1.226-1.226-1.226s-1.226,0.551-1.226,1.226C411.036,141.735,411.587,142.286,412.263,142.286z"/>
				<path style="fill-rule:evenodd;clip-rule:evenodd;fill:#E3524B;" d="M410.461,143.829c0.676,0,1.226-0.551,1.226-1.227
					s-0.551-1.226-1.226-1.226s-1.226,0.551-1.226,1.226S409.786,143.829,410.461,143.829z"/>
				<path style="fill-rule:evenodd;clip-rule:evenodd;fill:#E3524B;" d="M408.652,145.38c0.676,0,1.227-0.551,1.227-1.227
					c0-0.676-0.551-1.226-1.227-1.226s-1.226,0.551-1.226,1.226C407.426,144.829,407.977,145.38,408.652,145.38z"/>
			</g>
			<g>
				<path style="fill-rule:evenodd;clip-rule:evenodd;fill:#E3524B;" d="M410.381,186.652c0.676,0,1.227-0.551,1.227-1.227
					c0-0.675-0.551-1.226-1.227-1.226s-1.226,0.551-1.226,1.226C409.155,186.101,409.705,186.652,410.381,186.652z"/>
				<path style="fill-rule:evenodd;clip-rule:evenodd;fill:#E3524B;" d="M407.928,186.652c0.676,0,1.227-0.551,1.227-1.227
					c0-0.675-0.551-1.226-1.227-1.226s-1.226,0.551-1.226,1.226C406.701,186.101,407.252,186.652,407.928,186.652z"/>
				<path style="fill-rule:evenodd;clip-rule:evenodd;fill:#E3524B;" d="M405.475,186.652c0.676,0,1.227-0.551,1.227-1.227
					c0-0.675-0.551-1.226-1.227-1.226s-1.226,0.551-1.226,1.226C404.249,186.101,404.8,186.652,405.475,186.652z"/>
				<path style="fill-rule:evenodd;clip-rule:evenodd;fill:#E3524B;" d="M403.022,186.652c0.676,0,1.227-0.551,1.227-1.227
					c0-0.675-0.551-1.226-1.227-1.226s-1.226,0.551-1.226,1.226C401.796,186.101,402.347,186.652,403.022,186.652z"/>
				<path style="fill-rule:evenodd;clip-rule:evenodd;fill:#E3524B;" d="M400.57,186.652c0.676,0,1.227-0.551,1.227-1.227
					c0-0.675-0.551-1.226-1.227-1.226c-0.675,0-1.226,0.551-1.226,1.226C399.343,186.101,399.894,186.652,400.57,186.652z"/>
				<path style="fill-rule:evenodd;clip-rule:evenodd;fill:#E3524B;" d="M398.116,186.652c0.676,0,1.227-0.551,1.227-1.227
					c0-0.675-0.551-1.226-1.227-1.226c-0.675,0-1.226,0.551-1.226,1.226C396.89,186.101,397.441,186.652,398.116,186.652z"/>
				<path style="fill-rule:evenodd;clip-rule:evenodd;fill:#E3524B;" d="M395.664,186.652c0.675,0,1.227-0.551,1.227-1.227
					c0-0.675-0.551-1.226-1.227-1.226c-0.676,0-1.226,0.551-1.226,1.226C394.438,186.101,394.988,186.652,395.664,186.652z"/>
				<path style="fill-rule:evenodd;clip-rule:evenodd;fill:#E3524B;" d="M393.211,186.652c0.676,0,1.227-0.551,1.227-1.227
					c0-0.675-0.551-1.226-1.227-1.226c-0.675,0-1.226,0.551-1.226,1.226C391.985,186.101,392.535,186.652,393.211,186.652z"/>
				<path style="fill-rule:evenodd;clip-rule:evenodd;fill:#E3524B;" d="M390.758,186.652c0.675,0,1.227-0.551,1.227-1.227
					c0-0.675-0.551-1.226-1.227-1.226c-0.676,0-1.226,0.551-1.226,1.226C389.532,186.101,390.083,186.652,390.758,186.652z"/>
				<path style="fill-rule:evenodd;clip-rule:evenodd;fill:#E3524B;" d="M388.305,186.652c0.676,0,1.227-0.551,1.227-1.227
					c0-0.675-0.551-1.226-1.227-1.226c-0.675,0-1.226,0.551-1.226,1.226C387.079,186.101,387.63,186.652,388.305,186.652z"/>
				<path style="fill-rule:evenodd;clip-rule:evenodd;fill:#E3524B;" d="M385.853,186.652c0.676,0,1.227-0.551,1.227-1.227
					c0-0.675-0.551-1.226-1.227-1.226s-1.226,0.551-1.226,1.226C384.626,186.101,385.177,186.652,385.853,186.652z"/>
				<path style="fill-rule:evenodd;clip-rule:evenodd;fill:#E3524B;" d="M383.4,186.652c0.676,0,1.227-0.551,1.227-1.227
					c0-0.675-0.551-1.226-1.227-1.226s-1.226,0.551-1.226,1.226C382.173,186.101,382.724,186.652,383.4,186.652z"/>
				<path style="fill-rule:evenodd;clip-rule:evenodd;fill:#E3524B;" d="M380.947,186.652c0.676,0,1.227-0.551,1.227-1.227
					c0-0.675-0.551-1.226-1.227-1.226s-1.226,0.551-1.226,1.226C379.721,186.101,380.271,186.652,380.947,186.652z"/>
				<path style="fill-rule:evenodd;clip-rule:evenodd;fill:#E3524B;" d="M378.494,186.652c0.676,0,1.227-0.551,1.227-1.227
					c0-0.675-0.551-1.226-1.227-1.226s-1.226,0.551-1.226,1.226C377.268,186.101,377.818,186.652,378.494,186.652z"/>
				<path style="fill-rule:evenodd;clip-rule:evenodd;fill:#E3524B;" d="M376.041,186.652c0.676,0,1.227-0.551,1.227-1.227
					c0-0.675-0.551-1.226-1.227-1.226c-0.675,0-1.226,0.551-1.226,1.226C374.815,186.101,375.366,186.652,376.041,186.652z"/>
				<path style="fill-rule:evenodd;clip-rule:evenodd;fill:#E3524B;" d="M373.588,186.652c0.676,0,1.227-0.551,1.227-1.227
					c0-0.675-0.551-1.226-1.227-1.226s-1.226,0.551-1.226,1.226C372.362,186.101,372.913,186.652,373.588,186.652z"/>
				<path style="fill-rule:evenodd;clip-rule:evenodd;fill:#E3524B;" d="M371.136,186.652c0.675,0,1.227-0.551,1.227-1.227
					c0-0.675-0.551-1.226-1.227-1.226c-0.676,0-1.226,0.551-1.226,1.226C369.909,186.101,370.46,186.652,371.136,186.652z"/>
				<path style="fill-rule:evenodd;clip-rule:evenodd;fill:#E3524B;" d="M368.683,186.652c0.676,0,1.227-0.551,1.227-1.227
					c0-0.675-0.551-1.226-1.227-1.226c-0.675,0-1.226,0.551-1.226,1.226C367.456,186.101,368.007,186.652,368.683,186.652z"/>
				<path style="fill-rule:evenodd;clip-rule:evenodd;fill:#E3524B;" d="M366.23,186.652c0.675,0,1.227-0.551,1.227-1.227
					c0-0.675-0.551-1.226-1.227-1.226c-0.676,0-1.226,0.551-1.226,1.226C365.004,186.101,365.555,186.652,366.23,186.652z"/>
			</g>
			<path style="fill-rule:evenodd;clip-rule:evenodd;fill:#BA7C5B;" d="M356.67,72.237c6.633,5.39,40.578-4.97,42.659-9.938
				C394.297,64.563,365.415,71.479,356.67,72.237z"/>
		</g>
	</g>
	<g>
		<path style="fill-rule:evenodd;clip-rule:evenodd;fill:#E6E6E6;" d="M249.96,455.15c23.033,0,41.82-5.01,41.82-11.152
			c0-6.142-18.786-11.152-41.82-11.152c-23.033,0-41.82,5.01-41.82,11.152C208.14,450.141,226.927,455.15,249.96,455.15z"/>
		<g>
			<path style="fill-rule:evenodd;clip-rule:evenodd;fill:#965633;" d="M249.127,291.951c20.887,0,37.819-18.327,37.819,6.515
				c0,24.842-36.033,37.285-52.317,34.553c-6.775-1.137-23.32-9.711-23.32-34.553C211.309,273.624,228.24,291.951,249.127,291.951z"
				/>
			<path style="fill-rule:evenodd;clip-rule:evenodd;fill:#CC9A25;" d="M268.694,355.97l-8.701,3.949
				c-1.953,0.887-2.826,3.209-1.939,5.163l14.103,31.072c0.887,1.953,3.209,2.826,5.163,1.94l8.7-3.949
				c1.953-0.886,2.826-3.209,1.94-5.163l-14.103-31.073C272.97,355.956,270.647,355.083,268.694,355.97z"/>
			<path style="fill-rule:evenodd;clip-rule:evenodd;fill:#FAC2AB;" d="M236.999,334.146c2.746-2.272,6.813-1.887,9.085,0.858
				c2.271,2.745,0.564,5.703-2.181,7.974c-4.394,3.642-11.462,10.606-15.485,16.777c-3.908,5.994-5.224,10.768-4.752,18.508
				c2.356,4.14,2.468,8.619-0.717,4.881c1.067,9.611-10.742,7.752-7.327-4.266c0.248-7.22,1.407-15.715,5.015-23.331
				C224.178,348.073,230.928,339.476,236.999,334.146z"/>
			<path style="fill-rule:evenodd;clip-rule:evenodd;fill:#378591;" d="M241.79,330.138c2.745-2.272,2.023,2.121,4.294,4.866
				c2.272,2.746,0.564,5.703-2.181,7.974c-4.393,3.642-11.461,10.606-15.485,16.777c-1.653,2.536-2.842,4.853-3.628,7.268
				l-7.347-2.293c0.753-3.11,1.788-6.213,3.195-9.183C224.178,348.073,228.459,336.194,241.79,330.138z"/>
			<path style="fill-rule:evenodd;clip-rule:evenodd;fill:#378591;" d="M269.792,376.533l-41.571,0l5.302-33.597
				c3.221-20.41,30.073-19.422,32.509,1.419L269.792,376.533z"/>
			
				<line style="fill-rule:evenodd;clip-rule:evenodd;fill:none;stroke:#6DBDC9;stroke-width:0.5669;stroke-linecap:round;stroke-linejoin:round;stroke-miterlimit:22.9256;stroke-dasharray:1.1339,1.7008;" x1="228.599" y1="374.134" x2="269.54" y2="374.134"/>
			
				<path style="fill-rule:evenodd;clip-rule:evenodd;fill:none;stroke:#6DBDC9;stroke-width:0.5669;stroke-linecap:round;stroke-linejoin:round;stroke-miterlimit:22.9256;stroke-dasharray:1.1339,1.7008;" d="
				M239.439,331.314c0.268,5.095,3.104,9.201,8.503,9.803"/>
			<polygon style="fill-rule:evenodd;clip-rule:evenodd;fill:#FAC2AB;" points="226.858,394.746 229.795,376.533 267.732,376.533 
				270.95,394.746 260.455,438.806 249.96,438.806 249.96,394.746 247.848,394.746 247.848,438.806 237.353,438.806 			"/>
			<path style="fill-rule:evenodd;clip-rule:evenodd;fill:#FD645C;" d="M228.22,376.533c13.857,0,27.714,0,41.571,0
				c2.63,11.334,3.364,22.668,1.862,34.001c-30.332,0-15.243,0-45.672,0C225.124,399.201,225.863,387.867,228.22,376.533z"/>
			<path style="fill-rule:evenodd;clip-rule:evenodd;fill:#E04138;" d="M233.183,376.533c10.552,0,21.104,0,31.657,0
				c2.003,11.334,2.561,22.668,1.418,34.001c-23.098,0-11.608,0-34.78,0C230.826,399.201,231.388,387.867,233.183,376.533z"/>
			<path style="fill-rule:evenodd;clip-rule:evenodd;fill:#FD645C;" d="M236.221,376.533c8.529,0,17.059,0,25.589,0
				c1.619,11.334,2.07,22.668,1.146,34.001c-18.67,0-9.383,0-28.114,0C234.315,399.201,234.77,387.867,236.221,376.533z"/>
			<path style="fill-rule:evenodd;clip-rule:evenodd;fill:#A86643;" d="M237.077,437.566c4.899,1.424,6.883,1.555,10.771,0.198
				c0,2.433,0,4.866,0,7.299h-30.996v-1.991C216.851,433.388,230.296,429.262,237.077,437.566z"/>
			<path style="fill-rule:evenodd;clip-rule:evenodd;fill:#A86643;" d="M260.731,437.566c-4.899,1.424-6.883,1.555-10.771,0.198
				c0,2.433,0,4.866,0,7.299h30.996v-1.991C280.956,433.388,267.512,429.262,260.731,437.566z"/>
			<rect x="216.851" y="443.24" style="fill-rule:evenodd;clip-rule:evenodd;fill:#874A2A;" width="30.996" height="1.825"/>
			<rect x="249.96" y="443.24" style="fill-rule:evenodd;clip-rule:evenodd;fill:#874A2A;" width="30.996" height="1.825"/>
			
				<path style="fill-rule:evenodd;clip-rule:evenodd;fill:none;stroke:#874A2A;stroke-width:1.9199;stroke-linecap:round;stroke-linejoin:round;stroke-miterlimit:22.9256;" d="
				M239.451,442.291c0.316-2.464-2.371-6.024-4.305-7.213"/>
			
				<path style="fill-rule:evenodd;clip-rule:evenodd;fill:none;stroke:#874A2A;stroke-width:1.9199;stroke-linecap:round;stroke-linejoin:round;stroke-miterlimit:22.9256;" d="
				M237.118,441.032c0.316-2.464-2.371-6.024-4.305-7.213"/>
			
				<path style="fill-rule:evenodd;clip-rule:evenodd;fill:none;stroke:#874A2A;stroke-width:1.9199;stroke-linecap:round;stroke-linejoin:round;stroke-miterlimit:22.9256;" d="
				M235.019,440.052c0.316-2.464-2.371-6.024-4.305-7.213"/>
			
				<path style="fill-rule:evenodd;clip-rule:evenodd;fill:none;stroke:#874A2A;stroke-width:1.9199;stroke-linecap:round;stroke-linejoin:round;stroke-miterlimit:22.9256;" d="
				M258.988,442.291c-0.316-2.464,2.371-6.024,4.305-7.213"/>
			
				<path style="fill-rule:evenodd;clip-rule:evenodd;fill:none;stroke:#874A2A;stroke-width:1.9199;stroke-linecap:round;stroke-linejoin:round;stroke-miterlimit:22.9256;" d="
				M261.321,441.032c-0.316-2.464,2.371-6.024,4.305-7.213"/>
			
				<path style="fill-rule:evenodd;clip-rule:evenodd;fill:none;stroke:#874A2A;stroke-width:1.9199;stroke-linecap:round;stroke-linejoin:round;stroke-miterlimit:22.9256;" d="
				M263.42,440.052c-0.316-2.464,2.371-6.024,4.305-7.213"/>
			<path style="fill-rule:evenodd;clip-rule:evenodd;fill:#EBB845;" d="M234.629,333.019c2.149,8.086,6.495,20.556,16.908,33.915
				c11.173,14.334,22.034,26.388,29.119,30.552l5.088-2.585c-6.531-3.839-19.252-17.295-30.083-31.19
				c-10.037-12.877-14.626-26.354-16.587-33.733L234.629,333.019z"/>
			<path style="fill-rule:evenodd;clip-rule:evenodd;fill:#FAC2AB;" d="M261.912,334.108c-2.704-2.319-5.723-4.151-8.811-2.374
				c-3.089,1.777-2.522,5.145-0.746,8.234c2.843,4.947,16.621,14.359,18.77,21.404c2.1,6.887,0.741,8.382-4.669,13.937
				c-4.487,1.598-7.496,4.918-2.643,4.165c-2.665,2.478-1.662,3.647-0.537,4.716c1.865,1.772,6.034,1.862,8.872-3.165
				c4.525-5.631,8.824-9.977,7.738-20.874C279.066,351.922,270.002,341.042,261.912,334.108z"/>
			<path style="fill-rule:evenodd;clip-rule:evenodd;fill:#378591;" d="M256.464,329.786c-3.272-1.408-0.274,0.171-3.363,1.948
				c-3.089,1.777-2.521,6.476-0.746,9.565c2.843,4.947,16.622,13.028,18.77,20.073c0.732,2.402,1.044,4.148,0.909,5.639l7.179,2.703
				c0.759-2.585,1.063-5.652,0.673-9.562C279.066,351.922,270.215,335.703,256.464,329.786z"/>
			
				<path style="fill-rule:evenodd;clip-rule:evenodd;fill:none;stroke:#6DBDC9;stroke-width:0.5669;stroke-linecap:round;stroke-linejoin:round;stroke-miterlimit:22.9256;stroke-dasharray:1.1339,1.7008;" d="
				M258.615,331.314c-0.292,5.539-3.789,9.773-9.588,9.773"/>
			<path style="fill-rule:evenodd;clip-rule:evenodd;fill:#EDB097;" d="M249.127,305.052L249.127,305.052
				c4.036,0,7.337,3.301,7.337,7.337v19.453c0,4.035-3.301,7.337-7.337,7.337h0c-4.035,0-7.337-3.301-7.337-7.337v-19.453
				C241.79,308.353,245.091,305.052,249.127,305.052z"/>
			<ellipse style="fill-rule:evenodd;clip-rule:evenodd;fill:#FAC2AB;" cx="249.127" cy="296.347" rx="37.282" ry="30.972"/>
			<path style="fill-rule:evenodd;clip-rule:evenodd;fill:#D19077;" d="M248.364,310.522c4.182,0.977,5.973-1.57,4.813-5.09
				C253.259,307.746,251.485,310.312,248.364,310.522z"/>
			
				<path style="fill-rule:evenodd;clip-rule:evenodd;fill:none;stroke:#965633;stroke-width:2.4001;stroke-linecap:round;stroke-linejoin:round;stroke-miterlimit:22.9256;" d="
				M263.81,291.462c-1.643-0.883-4.873-1.406-7.228-0.244"/>
			<path style="fill-rule:evenodd;clip-rule:evenodd;fill:#4D4D4D;" d="M260.196,302.645c1.157,0,2.102-1.833,2.102-4.08
				s-0.944-4.08-2.102-4.08c-1.157,0-2.101,1.833-2.101,4.08S259.038,302.645,260.196,302.645z"/>
			<path style="fill-rule:evenodd;clip-rule:evenodd;fill:#4D4D4D;" d="M238.058,302.645c1.158,0,2.102-1.833,2.102-4.08
				s-0.944-4.08-2.102-4.08c-1.157,0-2.102,1.833-2.102,4.08S236.901,302.645,238.058,302.645z"/>
			<g>
				<path style="fill-rule:evenodd;clip-rule:evenodd;fill:#FBB49F;" d="M262.772,301.836c0.993-1.657,3.663-1.882,5.962-0.503
					c2.299,1.379,3.358,3.84,2.364,5.496c-0.994,1.657-3.663,1.882-5.962,0.504C262.837,305.954,261.778,303.493,262.772,301.836z"
					/>
				<path style="fill-rule:evenodd;clip-rule:evenodd;fill:#FBB49F;" d="M238.181,305.562c-0.994-1.657-3.663-1.882-5.962-0.504
					c-2.299,1.379-3.358,3.84-2.364,5.496c0.993,1.657,3.663,1.882,5.962,0.503C238.115,309.68,239.174,307.219,238.181,305.562z"/>
			</g>
			
				<path style="fill-rule:evenodd;clip-rule:evenodd;fill:none;stroke:#965633;stroke-width:2.4001;stroke-linecap:round;stroke-linejoin:round;stroke-miterlimit:22.9256;" d="
				M234.445,291.462c1.643-0.883,4.873-1.406,7.227-0.244"/>
			
				<path style="fill-rule:evenodd;clip-rule:evenodd;fill:none;stroke:#D19077;stroke-width:1.4397;stroke-linecap:round;stroke-linejoin:round;stroke-miterlimit:22.9256;" d="
				M235.523,312.923c9.67,3.712,26.523,1.359,30.098-3.921"/>
			
				<path style="fill-rule:evenodd;clip-rule:evenodd;fill:none;stroke:#D19077;stroke-width:1.4397;stroke-linecap:round;stroke-linejoin:round;stroke-miterlimit:22.9256;" d="
				M245.262,317.394c2.889,1.569,9.766,1.147,11.093-0.676"/>
			<path style="fill-rule:evenodd;clip-rule:evenodd;fill:#E04138;" d="M242.211,376.533c4.541,0,9.081,0,13.622,0
				c0.862,11.334,1.102,22.668,0.61,34.001c-9.939,0-4.995,0-14.966,0C241.196,399.201,241.438,387.867,242.211,376.533z"/>
			<path style="fill-rule:evenodd;clip-rule:evenodd;fill:#FD645C;" d="M244.886,376.533c2.76,0,5.519,0,8.278,0
				c0.524,11.334,0.67,22.668,0.371,34.001c-6.04,0-3.036,0-9.095,0C244.27,399.201,244.417,387.867,244.886,376.533z"/>
			
				<line style="fill-rule:evenodd;clip-rule:evenodd;fill:none;stroke:#6DBDC9;stroke-width:0.5669;stroke-linecap:round;stroke-linejoin:round;stroke-miterlimit:22.9256;stroke-dasharray:1.1339,1.7008;" x1="218.522" y1="363.264" x2="224.844" y2="365.398"/>
			
				<line style="fill-rule:evenodd;clip-rule:evenodd;fill:none;stroke:#6DBDC9;stroke-width:0.5669;stroke-linecap:round;stroke-linejoin:round;stroke-miterlimit:22.9256;stroke-dasharray:1.1339,1.7008;" x1="279.313" y1="367.868" x2="272.029" y2="365.509"/>
			
				<path style="fill-rule:evenodd;clip-rule:evenodd;fill:none;stroke:#6DBDC9;stroke-width:0.5669;stroke-linecap:round;stroke-linejoin:round;stroke-miterlimit:22.9256;" d="
				M249.127,341.077c-2.304-0.279-4.184,1.864-2.823,3.01C247.665,345.235,248.864,343.073,249.127,341.077z"/>
			
				<path style="fill-rule:evenodd;clip-rule:evenodd;fill:none;stroke:#6DBDC9;stroke-width:0.5669;stroke-linecap:round;stroke-linejoin:round;stroke-miterlimit:22.9256;" d="
				M249.127,341.077c2.304-0.279,4.184,1.864,2.823,3.01C250.589,345.235,249.39,343.073,249.127,341.077z"/>
			
				<path style="fill-rule:evenodd;clip-rule:evenodd;fill:none;stroke:#6DBDC9;stroke-width:0.5669;stroke-linecap:round;stroke-linejoin:round;stroke-miterlimit:22.9256;" d="
				M249.027,341.087c-1.184,2.983,2.122,8.353,0.514,11.091"/>
			
				<path style="fill-rule:evenodd;clip-rule:evenodd;fill:none;stroke:#6DBDC9;stroke-width:0.5669;stroke-linecap:round;stroke-linejoin:round;stroke-miterlimit:22.9256;" d="
				M249.027,341.087c0.48,2.945,0.993,6.3,4.142,8.559"/>
			<path style="fill-rule:evenodd;clip-rule:evenodd;fill:#965633;" d="M249.127,264.542c-34.563-6.453-43.669,30.216-34.305,38.669
				c3.524-18.931,16.753-25.561,34.299-30.407c17.197,4.722,34.539,14.832,35.722,31.624
				C291.704,293.638,280.078,258.064,249.127,264.542z"/>
			<path style="fill-rule:evenodd;clip-rule:evenodd;fill:#BA7C5B;" d="M283.978,293.786c-6.857-17.038-21.646-20.263-34.432-24.128
				C263.219,270.559,279.835,274.034,283.978,293.786z"/>
			<path style="fill-rule:evenodd;clip-rule:evenodd;fill:#FAC2AB;" d="M288.161,295.313c-2.349-0.834-5.192,1.132-6.35,4.393
				c-1.158,3.26-0.192,6.579,2.157,7.414c2.349,0.834,5.192-1.132,6.35-4.392C291.477,299.466,290.511,296.147,288.161,295.313z"/>
			<path style="fill-rule:evenodd;clip-rule:evenodd;fill:#FAC2AB;" d="M211.001,295.313c2.349-0.834,5.192,1.132,6.35,4.393
				c1.158,3.26,0.192,6.579-2.157,7.414c-2.349,0.834-5.193-1.132-6.35-4.392C207.686,299.466,208.652,296.147,211.001,295.313z"/>
			<path style="fill-rule:evenodd;clip-rule:evenodd;fill:#BA7C5B;" d="M215.113,293.786c6.857-17.038,21.646-20.263,34.432-24.128
				C235.872,270.559,219.255,274.034,215.113,293.786z"/>
			<path style="fill-rule:evenodd;clip-rule:evenodd;fill:#965633;" d="M239.074,329.979c1.328-2.697-11.074-5.446-13.516,3.571
				c-3.585,13.234,15.863,29.769,5.266,29.826c4.083,2.012,7.489,1.601,9.901-2.998C244.587,353.017,236.26,335.694,239.074,329.979
				z"/>
			
				<path style="fill-rule:evenodd;clip-rule:evenodd;fill:none;stroke:#FD645C;stroke-width:2.3998;stroke-linecap:round;stroke-linejoin:round;stroke-miterlimit:22.9256;" d="
				M239.56,331.234c-2.329-5.014-9.754-5.741-13.276-1.684"/>
			<path style="fill-rule:evenodd;clip-rule:evenodd;fill:#BA7C5B;" d="M235.401,359.688c4.644-9.071-10.906-25.129-5.396-30.044
				C220.144,336.63,236.257,350.182,235.401,359.688z"/>
		</g>
	</g>
	<g>
		<path style="fill-rule:evenodd;clip-rule:evenodd;fill:#E6E6E6;" d="M104.132,240.466c23.034,0,41.82-5.01,41.82-11.152
			c0-6.142-18.786-11.152-41.82-11.152c-23.034,0-41.82,5.01-41.82,11.152C62.313,235.456,81.099,240.466,104.132,240.466z"/>
		<g>
			<g>
				<path style="fill-rule:evenodd;clip-rule:evenodd;fill:#FD645C;" d="M147.904,86.52c-6.77,3.344-26.019-16.665-29.722-21.401
					c-0.363,14.175,9.047,32.476,18.817,33.772C144.456,99.88,148.735,93.919,147.904,86.52z"/>
				<path style="fill-rule:evenodd;clip-rule:evenodd;fill:#FD645C;" d="M149.257,74.014c-6.352,4.104-27.718-13.552-31.928-17.83
					c1.228,14.126,12.627,31.221,22.479,31.379C147.329,87.685,150.912,81.269,149.257,74.014z"/>
				<path style="fill-rule:evenodd;clip-rule:evenodd;fill:#FD645C;" d="M140.692,99.342c-7.272,1.98-22.434-21.371-25.186-26.734
					c-3.004,13.848,2.816,33.628,12.167,36.781C134.812,111.796,140.126,106.767,140.692,99.342z"/>
				<path style="fill-rule:evenodd;clip-rule:evenodd;fill:#FD645C;" d="M129.243,111.019c-7.519-0.403-14.815-27.371-15.795-33.336
					c-7.08,12.224-9.908,32.862-1.978,38.798C117.523,121.013,126.44,117.901,129.243,111.019z"/>
			</g>
			<path style="fill-rule:evenodd;clip-rule:evenodd;fill:#D4A433;" d="M81.722,118.468h44.307c2.503,0,4.55,2.047,4.55,4.55v42.631
				c0,2.503-2.047,4.55-4.55,4.55H81.722c-2.503,0-4.55-2.047-4.55-4.55v-42.631C77.171,120.515,79.219,118.468,81.722,118.468z"/>
			<polygon style="fill-rule:evenodd;clip-rule:evenodd;fill:#FAC2AB;" points="81.864,180.061 84.801,161.849 122.738,161.849 
				125.955,180.061 115.46,224.122 104.966,224.122 104.966,180.061 102.853,180.061 102.853,224.122 92.359,224.122 			"/>
			<g>
				<path style="fill-rule:evenodd;clip-rule:evenodd;fill:#FD645C;" d="M60.942,86.52c6.77,3.344,26.019-16.665,29.722-21.401
					c0.363,14.175-9.047,32.476-18.817,33.772C64.389,99.88,60.111,93.919,60.942,86.52z"/>
				<path style="fill-rule:evenodd;clip-rule:evenodd;fill:#FD645C;" d="M59.589,74.014c6.352,4.104,27.718-13.552,31.928-17.83
					C90.289,70.31,78.89,87.405,69.038,87.564C61.517,87.685,57.934,81.269,59.589,74.014z"/>
				<path style="fill-rule:evenodd;clip-rule:evenodd;fill:#FD645C;" d="M68.153,99.342c7.272,1.98,22.434-21.371,25.186-26.734
					c3.004,13.848-2.816,33.628-12.167,36.781C74.034,111.796,68.719,106.767,68.153,99.342z"/>
				<path style="fill-rule:evenodd;clip-rule:evenodd;fill:#FD645C;" d="M79.602,111.019c7.519-0.403,14.815-27.371,15.795-33.336
					c7.08,12.224,9.328,33.538,1.398,39.474C90.743,121.689,82.405,117.901,79.602,111.019z"/>
			</g>
			<path style="fill-rule:evenodd;clip-rule:evenodd;fill:#378591;" d="M132.884,136.976l-8.601,7.882l3.785,16.991h-47.87
				l4.214-16.669l-8.953-8.204C88.326,107.181,119.973,107.079,132.884,136.976z"/>
			<path style="fill-rule:evenodd;clip-rule:evenodd;fill:#73B1BA;" d="M94.397,116.567c6.326-2.609,13.134-2.627,19.467-0.042
				c0.021,0.26,0.031,0.522,0.031,0.787c0,5.392-4.371,9.763-9.763,9.763c-5.392,0-9.763-4.371-9.763-9.763
				C94.369,117.061,94.379,116.813,94.397,116.567z"/>
			<path style="fill-rule:evenodd;clip-rule:evenodd;fill:#FFFFFF;" d="M116.629,219.217l-1.168,4.905h-10.495v-4.905H116.629
				L116.629,219.217z M102.853,219.217v4.905H92.359l-1.168-4.905H102.853z"/>
			<path style="fill-rule:evenodd;clip-rule:evenodd;fill:#3C7D66;" d="M92.083,222.882c4.899,1.424,6.882,1.555,10.77,0.199
				c0,2.433,0,4.866,0,7.299H71.857v-1.991C71.857,218.704,85.301,214.578,92.083,222.882z"/>
			<path style="fill-rule:evenodd;clip-rule:evenodd;fill:#3C7D66;" d="M115.736,222.882c-4.899,1.424-6.883,1.555-10.771,0.199
				c0,2.433,0,4.866,0,7.299h30.996v-1.991C135.962,218.704,122.518,214.578,115.736,222.882z"/>
			<rect x="71.857" y="228.555" style="fill-rule:evenodd;clip-rule:evenodd;fill:#8BC4B0;" width="30.996" height="1.825"/>
			<rect x="104.966" y="228.555" style="fill-rule:evenodd;clip-rule:evenodd;fill:#8BC4B0;" width="30.996" height="1.825"/>
			<path style="fill-rule:evenodd;clip-rule:evenodd;fill:#EDB097;" d="M104.132,90.367L104.132,90.367
				c4.036,0,7.337,3.301,7.337,7.337v19.453c0,4.035-3.301,7.337-7.337,7.337h0c-4.035,0-7.337-3.301-7.337-7.337V97.704
				C96.796,93.669,100.097,90.367,104.132,90.367z"/>
			<ellipse style="fill-rule:evenodd;clip-rule:evenodd;fill:#FAC2AB;" cx="104.133" cy="81.662" rx="37.282" ry="30.972"/>
			<path style="fill-rule:evenodd;clip-rule:evenodd;fill:#FD645C;" d="M104.133,47.626c22.627,0,40.97,15.239,40.97,34.036
				c0,1.906-0.191,3.774-0.554,5.594c-3.212-16.136-20.083-28.442-40.416-28.442c-20.333,0-37.204,12.306-40.416,28.442
				c-0.363-1.82-0.554-3.689-0.554-5.594C63.163,62.865,81.506,47.626,104.133,47.626z"/>
			<path style="fill-rule:evenodd;clip-rule:evenodd;fill:#D19077;" d="M103.37,95.837c4.182,0.977,5.972-1.57,4.813-5.09
				C108.265,93.062,106.491,95.628,103.37,95.837z"/>
			
				<path style="fill-rule:evenodd;clip-rule:evenodd;fill:none;stroke:#FD645C;stroke-width:2.4001;stroke-linecap:round;stroke-linejoin:round;stroke-miterlimit:22.9256;" d="
				M89.2,73.035c1.502-1.105,4.627-2.077,7.122-1.258"/>
			
				<path style="fill-rule:evenodd;clip-rule:evenodd;fill:none;stroke:#FD645C;stroke-width:2.4001;stroke-linecap:round;stroke-linejoin:round;stroke-miterlimit:22.9256;" d="
				M118.459,73.035c-1.502-1.105-4.627-2.077-7.121-1.258"/>
			<g>
				<path style="fill-rule:evenodd;clip-rule:evenodd;fill:#4D4D4D;" d="M115.202,87.961c1.158,0,2.102-1.833,2.102-4.08
					c0-2.247-0.944-4.08-2.102-4.08c-1.157,0-2.102,1.833-2.102,4.08C113.1,86.128,114.044,87.961,115.202,87.961z"/>
				<path style="fill-rule:evenodd;clip-rule:evenodd;fill:#4D4D4D;" d="M93.064,87.961c1.158,0,2.102-1.833,2.102-4.08
					c0-2.247-0.944-4.08-2.102-4.08c-1.157,0-2.102,1.833-2.102,4.08C90.963,86.128,91.907,87.961,93.064,87.961z"/>
			</g>
			<g>
				<path style="fill-rule:evenodd;clip-rule:evenodd;fill:#FBB49F;" d="M115.079,90.878c0.993-1.657,3.663-1.882,5.962-0.503
					c2.3,1.379,3.358,3.84,2.364,5.496c-0.994,1.657-3.663,1.882-5.962,0.503C115.144,94.995,114.086,92.535,115.079,90.878z"/>
				<path style="fill-rule:evenodd;clip-rule:evenodd;fill:#FBB49F;" d="M93.186,90.878c-0.994-1.657-3.663-1.882-5.962-0.503
					c-2.299,1.379-3.358,3.84-2.364,5.496c0.993,1.657,3.663,1.882,5.962,0.503C93.121,94.995,94.18,92.535,93.186,90.878z"/>
			</g>
			
				<path style="fill-rule:evenodd;clip-rule:evenodd;fill:none;stroke:#D19077;stroke-width:1.4397;stroke-linecap:round;stroke-linejoin:round;stroke-miterlimit:22.9256;" d="
				M93.676,99.625c5.063,1.854,17.83,1.831,20.913,0"/>
			
				<path style="fill-rule:evenodd;clip-rule:evenodd;fill:none;stroke:#D19077;stroke-width:1.4397;stroke-linecap:round;stroke-linejoin:round;stroke-miterlimit:22.9256;" d="
				M100.442,103.596c1.851,0.729,6.428,0.728,7.381,0"/>
			<path style="fill-rule:evenodd;clip-rule:evenodd;fill:#73B1BA;" d="M124.334,144.63c0.111,0.165,0.941,0.772,1.048,0.936
				c3.485,5.345,4.908,9.719,4.841,16.092l7.777-0.28c-0.472-6.425-1.769-13.541-4.838-20.02c-0.394-0.831-1.199-2.438-1.667-3.292
				L124.334,144.63z"/>
			<path style="fill-rule:evenodd;clip-rule:evenodd;fill:none;stroke:#E6BB57;stroke-width:4.7999;stroke-miterlimit:22.9256;" d="
				M119.719,116.537c-2.435,10.754,6.898,43.443,10.499,51.754"/>
			<path style="fill-rule:evenodd;clip-rule:evenodd;fill:#73B1BA;" d="M83.811,144.63c-0.111,0.165-0.941,0.772-1.048,0.936
				c-3.485,5.345-4.909,9.719-4.841,16.092l-7.777-0.28c0.472-6.425,1.769-13.541,4.838-20.02c0.394-0.831,1.199-2.438,1.667-3.292
				L83.811,144.63z"/>
			<path style="fill-rule:evenodd;clip-rule:evenodd;fill:none;stroke:#E6BB57;stroke-width:4.7999;stroke-miterlimit:22.9256;" d="
				M88.24,116.537c2.436,10.754-6.603,43.974-10.204,52.285"/>
			<g>
				
					<path style="fill-rule:evenodd;clip-rule:evenodd;fill:none;stroke:#FFFFFF;stroke-width:1.6798;stroke-linecap:round;stroke-linejoin:round;stroke-miterlimit:22.9256;" d="
					M91.972,96.703c5.165,0,9.378-4.213,9.378-9.378s-4.213-9.378-9.378-9.378s-9.378,4.213-9.378,9.378
					S86.807,96.703,91.972,96.703z"/>
				
					<path style="fill-rule:evenodd;clip-rule:evenodd;fill:none;stroke:#FFFFFF;stroke-width:1.6798;stroke-linecap:round;stroke-linejoin:round;stroke-miterlimit:22.9256;" d="
					M116.294,96.703c5.165,0,9.379-4.213,9.379-9.378s-4.213-9.378-9.379-9.378c-5.165,0-9.378,4.213-9.378,9.378
					S111.128,96.703,116.294,96.703z"/>
				
					<path style="fill-rule:evenodd;clip-rule:evenodd;fill:none;stroke:#FFFFFF;stroke-width:1.6798;stroke-linecap:round;stroke-linejoin:round;stroke-miterlimit:22.9256;" d="
					M101.35,87.832c0.14-3.167,5.579-3.298,5.579,0"/>
			</g>
			
				<line style="fill-rule:evenodd;clip-rule:evenodd;fill:none;stroke:#FFFFFF;stroke-width:1.6798;stroke-linecap:round;stroke-linejoin:round;stroke-miterlimit:22.9256;" x1="83.341" y1="83.65" x2="66.879" y2="80.445"/>
			
				<line style="fill-rule:evenodd;clip-rule:evenodd;fill:none;stroke:#FFFFFF;stroke-width:1.6798;stroke-linecap:round;stroke-linejoin:round;stroke-miterlimit:22.9256;" x1="124.925" y1="83.65" x2="141.387" y2="80.445"/>
			<path style="fill-rule:evenodd;clip-rule:evenodd;fill:#FD645C;" d="M62.198,69.623c6.108,3.888,26.653-12.836,30.701-16.889
				c-1.181,13.38-12.142,29.572-21.615,29.723C64.052,82.573,60.607,76.496,62.198,69.623z"/>
			<path style="fill-rule:evenodd;clip-rule:evenodd;fill:#FD645C;" d="M67.416,56.083c6.672,5.356,48.283,0.378,53.562-3.858
				c-3.115,15.564-18.08,30.27-29.23,29.259C75.829,80.04,62.857,66.918,67.416,56.083z"/>
			<path style="fill-rule:evenodd;clip-rule:evenodd;fill:#FD645C;" d="M146.211,69.623c-6.107,3.888-26.652-12.836-30.701-16.889
				c1.181,13.38,12.142,29.572,21.615,29.723C144.356,82.573,147.802,76.496,146.211,69.623z"/>
			<path style="fill-rule:evenodd;clip-rule:evenodd;fill:#FAC2AB;" d="M143.167,80.628c-2.349-0.834-5.193,1.132-6.35,4.393
				c-1.158,3.26-0.192,6.58,2.157,7.414c2.349,0.834,5.192-1.132,6.35-4.393C146.482,84.782,145.516,81.463,143.167,80.628z"/>
			<path style="fill-rule:evenodd;clip-rule:evenodd;fill:#FAC2AB;" d="M66.007,80.628c2.349-0.834,5.192,1.132,6.35,4.393
				c1.158,3.26,0.192,6.58-2.157,7.414c-2.349,0.834-5.192-1.132-6.35-4.393C62.692,84.782,63.658,81.463,66.007,80.628z"/>
			<path style="fill-rule:evenodd;clip-rule:evenodd;fill:#FA8F89;" d="M73.222,61.117c8.299,9.018,36.855,2.125,42.134-2.112
				C105.015,77.611,73.227,75.988,73.222,61.117z"/>
			<polygon style="fill-rule:evenodd;clip-rule:evenodd;fill:#7B8A8C;" points="83.226,161.849 124.797,161.849 126.659,188.621 
				104.966,188.621 104.966,180.061 102.853,180.061 102.853,188.621 80.986,188.621 			"/>
			<path style="fill-rule:evenodd;clip-rule:evenodd;fill:#FAC2AB;" d="M77.922,161.655c0.008,0.775,0.039,1.58,0.089,2.419
				c2.356,4.14,2.468,8.619-0.717,4.881c0.431,3.88-1.412,4.446-3.33,4.674c-2.832,0.336-6.034-1.774-3.997-8.94
				c0.037-1.077,0.095-2.184,0.177-3.311l7.777,0.28V161.655z"/>
			
				<line style="fill-rule:evenodd;clip-rule:evenodd;fill:none;stroke:#FFFFFF;stroke-width:1.1999;stroke-miterlimit:22.9256;" x1="85.263" y1="161.849" x2="83.08" y2="188.621"/>
			
				<line style="fill-rule:evenodd;clip-rule:evenodd;fill:none;stroke:#FFFFFF;stroke-width:1.1999;stroke-miterlimit:22.9256;" x1="122.904" y1="161.849" x2="125.088" y2="188.621"/>
			<path style="fill-rule:evenodd;clip-rule:evenodd;fill:#8BC4B0;" d="M79.454,230.379h-7.597v-1.991
				c0-4.852,3.375-8.309,7.595-9.506c0.293,1.823,0.45,3.754,0.45,5.753C79.902,226.632,79.745,228.56,79.454,230.379z"/>
			<path style="fill-rule:evenodd;clip-rule:evenodd;fill:#8BC4B0;" d="M128.365,230.379h7.596v-1.991
				c0-4.852-3.375-8.309-7.595-9.506c-0.293,1.823-0.45,3.754-0.45,5.753C127.917,226.632,128.074,228.56,128.365,230.379z"/>
			<path style="fill-rule:evenodd;clip-rule:evenodd;fill:#FAC2AB;" d="M130.224,161.655c-0.008,0.775-0.039,1.58-0.089,2.419
				c-2.356,4.14-2.468,8.619,0.717,4.881c-0.431,3.88,1.413,4.446,3.33,4.674c2.832,0.336,6.034-1.774,3.997-8.94
				c-0.037-1.077-0.095-2.184-0.177-3.311l-7.777,0.28V161.655z"/>
		</g>
	</g>
	<g>
		<ellipse style="fill-rule:evenodd;clip-rule:evenodd;fill:#E6E6E6;" cx="105.049" cy="446.085" rx="41.82" ry="11.152"/>
		<g>
			<path style="fill-rule:evenodd;clip-rule:evenodd;fill:#7D4120;" d="M93.258,325.756c3.121,0,5.667-2.546,5.667-5.667
				c0-3.121-2.546-5.667-5.667-5.667s-5.667,2.546-5.667,5.667C87.591,323.21,90.137,325.756,93.258,325.756z"/>
			<path style="fill-rule:evenodd;clip-rule:evenodd;fill:#7D4120;" d="M84.906,321.792c3.121,0,5.667-2.546,5.667-5.667
				c0-3.121-2.546-5.667-5.667-5.667s-5.667,2.546-5.667,5.667C79.239,319.246,81.785,321.792,84.906,321.792z"/>
			<path style="fill-rule:evenodd;clip-rule:evenodd;fill:#7D4120;" d="M143.486,303.751c3.121,0,5.667-2.546,5.667-5.667
				c0-3.121-2.546-5.667-5.667-5.667c-3.121,0-5.667,2.546-5.667,5.667C137.819,301.206,140.365,303.751,143.486,303.751z"/>
			<path style="fill-rule:evenodd;clip-rule:evenodd;fill:#7D4120;" d="M143.323,294.232c3.121,0,5.667-2.546,5.667-5.667
				c0-3.121-2.546-5.667-5.667-5.667c-3.121,0-5.667,2.546-5.667,5.667C137.656,291.686,140.201,294.232,143.323,294.232z"/>
			<path style="fill-rule:evenodd;clip-rule:evenodd;fill:#7D4120;" d="M139,310.481c3.121,0,5.667-2.546,5.667-5.667
				c0-3.121-2.546-5.667-5.667-5.667c-3.121,0-5.667,2.546-5.667,5.667C133.333,307.935,135.879,310.481,139,310.481z"/>
			<path style="fill-rule:evenodd;clip-rule:evenodd;fill:#7D4120;" d="M116.954,325.756c3.121,0,5.667-2.546,5.667-5.667
				c0-3.121-2.546-5.667-5.667-5.667s-5.667,2.546-5.667,5.667C111.288,323.21,113.833,325.756,116.954,325.756z"/>
			<path style="fill-rule:evenodd;clip-rule:evenodd;fill:#7D4120;" d="M125.306,321.792c3.121,0,5.667-2.546,5.667-5.667
				c0-3.121-2.546-5.667-5.667-5.667c-3.121,0-5.667,2.546-5.667,5.667C119.64,319.246,122.185,321.792,125.306,321.792z"/>
			<path style="fill-rule:evenodd;clip-rule:evenodd;fill:#7D4120;" d="M131.904,316.377c3.121,0,5.667-2.546,5.667-5.667
				c0-3.121-2.546-5.667-5.667-5.667c-3.121,0-5.667,2.546-5.667,5.667C126.237,313.831,128.782,316.377,131.904,316.377z"/>
			<path style="fill-rule:evenodd;clip-rule:evenodd;fill:#7D4120;" d="M129.969,271.156c3.121,0,5.667-2.546,5.667-5.667
				c0-3.121-2.546-5.667-5.667-5.667s-5.667,2.546-5.667,5.667C124.303,268.61,126.848,271.156,129.969,271.156z"/>
			<path style="fill-rule:evenodd;clip-rule:evenodd;fill:#7D4120;" d="M137.216,277.418c3.121,0,5.667-2.546,5.667-5.667
				c0-3.121-2.546-5.667-5.667-5.667c-3.121,0-5.667,2.546-5.667,5.667C131.549,274.872,134.095,277.418,137.216,277.418z"/>
			<path style="fill-rule:evenodd;clip-rule:evenodd;fill:#7D4120;" d="M140.026,286.472c3.121,0,5.667-2.546,5.667-5.667
				c0-3.121-2.546-5.667-5.667-5.667s-5.667,2.545-5.667,5.667C134.359,283.926,136.904,286.472,140.026,286.472z"/>
			<path style="fill-rule:evenodd;clip-rule:evenodd;fill:#7D4120;" d="M65.179,303.751c3.121,0,5.667-2.546,5.667-5.667
				c0-3.121-2.546-5.667-5.667-5.667c-3.121,0-5.667,2.546-5.667,5.667C59.513,301.206,62.058,303.751,65.179,303.751z"/>
			<path style="fill-rule:evenodd;clip-rule:evenodd;fill:#7D4120;" d="M65.343,294.232c3.121,0,5.667-2.546,5.667-5.667
				c0-3.121-2.546-5.667-5.667-5.667c-3.121,0-5.667,2.546-5.667,5.667C59.676,291.686,62.222,294.232,65.343,294.232z"/>
			<path style="fill-rule:evenodd;clip-rule:evenodd;fill:#7D4120;" d="M69.665,310.481c3.121,0,5.667-2.546,5.667-5.667
				c0-3.121-2.546-5.667-5.667-5.667c-3.121,0-5.667,2.546-5.667,5.667C63.999,307.935,66.544,310.481,69.665,310.481z"/>
			<path style="fill-rule:evenodd;clip-rule:evenodd;fill:#7D4120;" d="M76.762,316.377c3.121,0,5.667-2.546,5.667-5.667
				c0-3.121-2.546-5.667-5.667-5.667c-3.121,0-5.667,2.546-5.667,5.667C71.095,313.831,73.641,316.377,76.762,316.377z"/>
			<path style="fill-rule:evenodd;clip-rule:evenodd;fill:#FAC2AB;" d="M118.472,331.392c-2.827-2.368-7.038-1.996-9.406,0.831
				c-2.368,2.827-0.62,5.897,2.207,8.265c4.524,3.796,11.793,11.046,15.917,17.457c4.006,6.227,5.338,11.174,4.801,19.18
				c-2.464,4.269-2.608,8.903,0.711,5.055c-1.164,9.939,11.067,8.088,7.608-4.368c-0.211-7.472-1.357-16.27-5.042-24.172
				C131.651,345.883,124.721,336.945,118.472,331.392z"/>
			<path style="fill-rule:evenodd;clip-rule:evenodd;fill:#8BC4B0;" d="M109.711,328.918c-3.908,14.467,6.379,15.789,14.368,25.896
				c3.777,4.778,5.999,11.153,6.32,20.985l11.135-0.65C142.871,355.831,127.387,323.897,109.711,328.918z"/>
			<path style="fill-rule:evenodd;clip-rule:evenodd;fill:#FAC2AB;" d="M91.436,331.392c2.827-2.368,7.038-1.996,9.406,0.831
				c2.368,2.827,0.62,5.897-2.207,8.265c-4.523,3.796-11.793,11.046-15.917,17.457c-4.006,6.227-5.338,11.174-4.801,19.18
				c2.464,4.269,2.608,8.903-0.711,5.055c1.164,9.939-11.066,8.088-7.608-4.368c0.211-7.472,1.357-16.27,5.042-24.172
				C78.257,345.883,85.188,336.945,91.436,331.392z"/>
			<path style="fill-rule:evenodd;clip-rule:evenodd;fill:#8BC4B0;" d="M100.197,328.918c3.908,14.467-6.379,15.789-14.367,25.896
				c-3.777,4.778-6.465,11.091-6.787,20.923l-10.817-0.567C66.889,355.852,83.117,324.891,100.197,328.918z"/>
			<polygon style="fill-rule:evenodd;clip-rule:evenodd;fill:#FAC2AB;" points="82.457,394.018 82.457,375.173 126.725,375.173 
				126.725,394.018 118.956,439.61 108.097,439.61 108.097,394.018 102.001,394.018 102.001,439.61 91.142,439.61 			"/>
			<path style="fill-rule:evenodd;clip-rule:evenodd;fill:#AB6E4D;" d="M82.457,375.173h44.268c1.55,19.657,0.151,42.182-6.1,60.971
				h-12.528v-42.126l-6.095,0v42.126H89.474C83.812,417.611,80.7,395.452,82.457,375.173z"/>
			<g>
				
					<line style="fill-rule:evenodd;clip-rule:evenodd;fill:none;stroke:#C78E70;stroke-width:1.9199;stroke-linecap:round;stroke-linejoin:round;stroke-miterlimit:22.9256;" x1="117.074" y1="377.183" x2="124.091" y2="384.2"/>
				
					<line style="fill-rule:evenodd;clip-rule:evenodd;fill:none;stroke:#C78E70;stroke-width:1.9199;stroke-linecap:round;stroke-linejoin:round;stroke-miterlimit:22.9256;" x1="92.199" y1="377.183" x2="85.182" y2="384.2"/>
			</g>
			
				<path style="fill-rule:evenodd;clip-rule:evenodd;fill:none;stroke:#C78E70;stroke-width:1.9199;stroke-linecap:round;stroke-linejoin:round;stroke-miterlimit:22.9256;" d="
				M106.059,377.392c0,3.76,0.836,11.595-2.925,11.386"/>
			<polygon style="fill-rule:evenodd;clip-rule:evenodd;fill:#8BC4B0;" points="127.65,377.65 81.588,377.651 81.853,375.57 
				127.415,375.57 			"/>
			<path style="fill-rule:evenodd;clip-rule:evenodd;fill:#3C7D66;" d="M94.879,329.425c6.206-3.823,14.154-3.861,20.343-0.101
				c-0.116,5.519-4.626,9.957-10.173,9.957C99.536,339.281,95.048,334.897,94.879,329.425z"/>
			<path style="fill-rule:evenodd;clip-rule:evenodd;fill:#3C7D66;" d="M128.796,375.621l-47.751,0L85.2,345.32
				c0.113-0.824,0.26-1.618,0.435-2.388l-0.003-0.045c-0.102-2.527-1.281-4.653-3.228-6.394c4.31-4.723,9.828-8.193,15.172-8.455
				c4.719-1.968,10.074-2.013,14.798-0.135c5.51,0.132,11.267,3.563,15.498,8.313c-1.906,1.98-3.239,5.248-3.314,7.098
				c-0.001,0.033-0.003,0.064-0.006,0.096c0.113,0.577,0.211,1.166,0.29,1.772L128.796,375.621z"/>
			<path style="fill-rule:evenodd;clip-rule:evenodd;fill:#8BC4B0;" d="M95.654,328.266c0.641-0.12,1.283-0.197,1.921-0.228
				c4.719-1.968,10.074-2.013,14.798-0.135c0.682,0.016,1.367,0.083,2.054,0.197c0.035,0.331,0.054,0.666,0.054,1.006
				c0,5.209-4.223,9.432-9.432,9.432c-5.209,0-9.432-4.223-9.432-9.432C95.617,328.823,95.63,328.543,95.654,328.266z"/>
			<polygon style="fill-rule:evenodd;clip-rule:evenodd;fill:#C78E70;" points="102.461,434.956 102.461,438.517 88.915,438.517 
				88.437,434.956 			"/>
			<path style="fill-rule:evenodd;clip-rule:evenodd;fill:#A3B1B3;" d="M90.857,438.533h11.145c0,2.517,0,5.035,0,7.552H69.928
				v-2.06C69.928,434.004,83.84,429.94,90.857,438.533z"/>
			<polygon style="fill-rule:evenodd;clip-rule:evenodd;fill:#C78E70;" points="107.719,434.956 107.719,438.517 121.264,438.517 
				121.743,434.956 			"/>
			<path style="fill-rule:evenodd;clip-rule:evenodd;fill:#A3B1B3;" d="M119.242,438.533h-11.145c0,2.517,0,5.035,0,7.552h32.073
				v-2.06C140.17,434.004,126.259,429.94,119.242,438.533z"/>
			<path style="fill-rule:evenodd;clip-rule:evenodd;fill:#CCA08E;" d="M105.049,303.398L105.049,303.398
				c4.176,0,7.592,3.416,7.592,7.592v17.089c0,4.176-3.417,7.592-7.592,7.592l0,0c-4.176,0-7.592-3.416-7.592-7.592V310.99
				C97.457,306.815,100.873,303.398,105.049,303.398z"/>
			<ellipse style="fill-rule:evenodd;clip-rule:evenodd;fill:#E6B4A1;" cx="105.049" cy="292.2" rx="38.577" ry="32.049"/>
			<path style="fill-rule:evenodd;clip-rule:evenodd;fill:#7D4120;" d="M71.552,298.801c3.086-12.776,6.047-21.523,12.804-26.535
				c5.392-3.999,13.256-1.805,19.789-2.07c6.407-0.259,15.612-1.982,21.584,1.658c7.504,4.572,8.518,14.285,11.389,27.182
				c0.599,4.219,6.413-0.067,6.55-1.381c5.283-50.585-82.406-51.769-77.249,0.755C66.572,299.97,71.169,301.763,71.552,298.801z"/>
			<g>
				<path style="fill-rule:evenodd;clip-rule:evenodd;fill:#4D4D4D;" d="M117.668,299.556c1.158,0,2.102-1.833,2.102-4.08
					c0-2.247-0.944-4.08-2.102-4.08c-1.157,0-2.102,1.833-2.102,4.08C115.566,297.723,116.511,299.556,117.668,299.556z"/>
				<path style="fill-rule:evenodd;clip-rule:evenodd;fill:#4D4D4D;" d="M92.431,299.556c1.158,0,2.102-1.833,2.102-4.08
					c0-2.247-0.944-4.08-2.102-4.08c-1.157,0-2.102,1.833-2.102,4.08C90.329,297.723,91.273,299.556,92.431,299.556z"/>
			</g>
			
				<path style="fill-rule:evenodd;clip-rule:evenodd;fill:none;stroke:#BD846E;stroke-width:1.4397;stroke-linecap:round;stroke-linejoin:round;stroke-miterlimit:22.9256;" d="
				M89.305,309.192c7.623,4.429,26.848,4.373,31.489,0"/>
			
				<path style="fill-rule:evenodd;clip-rule:evenodd;fill:none;stroke:#BD846E;stroke-width:1.4397;stroke-linecap:round;stroke-linejoin:round;stroke-miterlimit:22.9256;" d="
				M99.493,315.201c2.788,1.742,9.678,1.739,11.114,0"/>
			<rect x="69.928" y="444.197" style="fill-rule:evenodd;clip-rule:evenodd;fill:#718487;" width="32.073" height="1.888"/>
			<rect x="108.097" y="444.197" style="fill-rule:evenodd;clip-rule:evenodd;fill:#718487;" width="32.073" height="1.888"/>
			<path style="fill-rule:evenodd;clip-rule:evenodd;fill:#BD846E;" d="M103.474,306.868c4.327,1.01,6.18-1.625,4.981-5.267
				C108.538,303.996,106.703,306.651,103.474,306.868z"/>
			<g>
				<path style="fill-rule:evenodd;clip-rule:evenodd;fill:#EAA897;" d="M118.17,300.785c0.993-1.657,3.663-1.882,5.962-0.503
					c2.299,1.379,3.358,3.84,2.364,5.496c-0.994,1.657-3.663,1.882-5.962,0.503C118.235,304.902,117.177,302.442,118.17,300.785z"/>
				<path style="fill-rule:evenodd;clip-rule:evenodd;fill:#EAA897;" d="M91.928,300.785c-0.994-1.657-3.663-1.882-5.962-0.503
					c-2.299,1.379-3.358,3.84-2.364,5.496c0.993,1.657,3.663,1.882,5.962,0.503C91.863,304.902,92.922,302.442,91.928,300.785z"/>
			</g>
			<polygon style="fill-rule:evenodd;clip-rule:evenodd;fill:#3C7D66;" points="68.999,375.169 78.601,375.713 78.516,377.268 
				68.914,376.724 			"/>
			<polygon style="fill-rule:evenodd;clip-rule:evenodd;fill:#3C7D66;" points="140.909,375.169 131.307,375.713 131.393,377.268 
				140.994,376.724 			"/>
			<g>
				
					<path style="fill-rule:evenodd;clip-rule:evenodd;fill:none;stroke:#7D4120;stroke-width:2.4001;stroke-linecap:round;stroke-linejoin:round;stroke-miterlimit:22.9256;" d="
					M119.734,286.44c-1.539-0.443-4.695-0.807-7.16-0.427"/>
				
					<path style="fill-rule:evenodd;clip-rule:evenodd;fill:none;stroke:#7D4120;stroke-width:2.4001;stroke-linecap:round;stroke-linejoin:round;stroke-miterlimit:22.9256;" d="
					M90.365,286.44c1.539-0.443,4.695-0.807,7.16-0.427"/>
			</g>
			<polygon style="fill-rule:evenodd;clip-rule:evenodd;fill:#8BC4B0;" points="99.847,364.052 103.567,363.598 103.567,348.698 
				99.806,348.698 99.806,346.17 107.968,344.689 107.968,363.598 111.682,364.052 111.682,366.698 99.847,366.698 			"/>
			<circle style="fill-rule:evenodd;clip-rule:evenodd;fill:#7D4120;" cx="122.201" cy="267.478" r="7.179"/>
			<path style="fill-rule:evenodd;clip-rule:evenodd;fill:#7D4120;" d="M111.352,272.341c3.121,0,5.667-2.546,5.667-5.667
				c0-3.121-2.546-5.667-5.667-5.667s-5.667,2.546-5.667,5.667C105.686,269.795,108.231,272.341,111.352,272.341z"/>
			
				<ellipse transform="matrix(1 -0.004 0.004 1 -1.0663 0.4018)" style="fill-rule:evenodd;clip-rule:evenodd;fill:#7D4120;" cx="100.919" cy="269.434" rx="7.836" ry="7.836"/>
			<path style="fill-rule:evenodd;clip-rule:evenodd;fill:#7D4120;" d="M95.297,271.633c3.121,0,5.667-2.546,5.667-5.667
				c0-3.121-2.546-5.667-5.667-5.667c-3.121,0-5.667,2.546-5.667,5.667C89.63,269.087,92.175,271.633,95.297,271.633z"/>
			<path style="fill-rule:evenodd;clip-rule:evenodd;fill:#7D4120;" d="M86.915,272.459c3.121,0,5.667-2.546,5.667-5.667
				c0-3.121-2.546-5.667-5.667-5.667c-3.121,0-5.667,2.546-5.667,5.667C81.248,269.913,83.793,272.459,86.915,272.459z"/>
			<path style="fill-rule:evenodd;clip-rule:evenodd;fill:#7D4120;" d="M79.831,276.709c3.121,0,5.667-2.546,5.667-5.667
				c0-3.121-2.546-5.667-5.667-5.667c-3.121,0-5.667,2.546-5.667,5.667C74.164,274.163,76.71,276.709,79.831,276.709z"/>
			<path style="fill-rule:evenodd;clip-rule:evenodd;fill:#7D4120;" d="M74.991,283.556c3.121,0,5.667-2.546,5.667-5.667
				c0-3.121-2.546-5.667-5.667-5.667s-5.667,2.546-5.667,5.667C69.324,281.011,71.869,283.556,74.991,283.556z"/>
			<path style="fill-rule:evenodd;clip-rule:evenodd;fill:#7D4120;" d="M70.977,289.459c3.121,0,5.667-2.546,5.667-5.667
				c0-3.121-2.546-5.667-5.667-5.667c-3.121,0-5.667,2.546-5.667,5.667C65.31,286.914,67.856,289.459,70.977,289.459z"/>
			<path style="fill-rule:evenodd;clip-rule:evenodd;fill:#7D4120;" d="M68.437,298.98c3.121,0,5.667-2.546,5.667-5.667
				c0-3.121-2.546-5.667-5.667-5.667s-5.667,2.546-5.667,5.667C62.77,296.434,65.315,298.98,68.437,298.98z"/>
			<path style="fill-rule:evenodd;clip-rule:evenodd;fill:#7D4120;" d="M70.175,291.663c3.477,0,6.313-2.836,6.313-6.313
				c0-3.477-2.836-6.313-6.313-6.313s-6.313,2.836-6.313,6.313C63.863,288.827,66.699,291.663,70.175,291.663z"/>
			<path style="fill-rule:evenodd;clip-rule:evenodd;fill:#7D4120;" d="M140.246,299.285c3.594,0,6.526-2.932,6.526-6.526
				s-2.932-6.526-6.526-6.526s-6.526,2.932-6.526,6.526S136.652,299.285,140.246,299.285z"/>
			<path style="fill-rule:evenodd;clip-rule:evenodd;fill:#7D4120;" d="M137.112,290.225c3.665,0,6.655-2.99,6.655-6.655
				c0-3.665-2.99-6.655-6.655-6.655c-3.665,0-6.655,2.99-6.655,6.655C130.457,287.235,133.447,290.225,137.112,290.225z"/>
			<path style="fill-rule:evenodd;clip-rule:evenodd;fill:#7D4120;" d="M132.282,280.676c3.748,0,6.804-3.057,6.804-6.805
				c0-3.748-3.057-6.804-6.804-6.804c-3.748,0-6.804,3.057-6.804,6.804C125.478,277.619,128.535,280.676,132.282,280.676z"/>
			<path style="fill-rule:evenodd;clip-rule:evenodd;fill:#7D4120;" d="M127.29,272.931c3.121,0,5.667-2.546,5.667-5.667
				c0-3.121-2.546-5.667-5.667-5.667c-3.121,0-5.667,2.546-5.667,5.667C121.623,270.386,124.169,272.931,127.29,272.931z"/>
			<path style="fill-rule:evenodd;clip-rule:evenodd;fill:#E6B4A1;" d="M143.748,292.904c-2.349-0.835-5.192,1.132-6.35,4.392
				c-1.158,3.26-0.192,6.579,2.157,7.414c2.349,0.834,5.193-1.132,6.35-4.393C147.063,297.057,146.097,293.738,143.748,292.904z"/>
			<path style="fill-rule:evenodd;clip-rule:evenodd;fill:#E6B4A1;" d="M65.213,292.904c2.349-0.835,5.192,1.132,6.35,4.392
				c1.158,3.26,0.192,6.579-2.157,7.414c-2.349,0.834-5.192-1.132-6.35-4.393C61.898,297.057,62.863,293.738,65.213,292.904z"/>
			<path style="fill-rule:evenodd;clip-rule:evenodd;fill:#7D4120;" d="M113.596,265.966c3.121,0,5.667-2.546,5.667-5.667
				c0-3.121-2.546-5.667-5.667-5.667c-3.121,0-5.667,2.546-5.667,5.667C107.929,263.42,110.474,265.966,113.596,265.966z"/>
			<path style="fill-rule:evenodd;clip-rule:evenodd;fill:#7D4120;" d="M104.741,265.966c3.121,0,5.667-2.546,5.667-5.667
				c0-3.121-2.546-5.667-5.667-5.667c-3.121,0-5.667,2.545-5.667,5.667C99.074,263.42,101.62,265.966,104.741,265.966z"/>
			<path style="fill-rule:evenodd;clip-rule:evenodd;fill:#7D4120;" d="M96.474,265.599c3.121,0,5.667-2.546,5.667-5.667
				c0-3.121-2.546-5.667-5.667-5.667s-5.667,2.546-5.667,5.667C90.807,263.053,93.353,265.599,96.474,265.599z"/>
			<path style="fill-rule:evenodd;clip-rule:evenodd;fill:#7D4120;" d="M87.206,268.46c3.121,0,5.667-2.546,5.667-5.667
				c0-3.121-2.546-5.667-5.667-5.667c-3.121,0-5.667,2.546-5.667,5.667C81.539,265.914,84.085,268.46,87.206,268.46z"/>
			<path style="fill-rule:evenodd;clip-rule:evenodd;fill:#7D4120;" d="M78.696,271.156c3.121,0,5.667-2.546,5.667-5.667
				c0-3.121-2.546-5.667-5.667-5.667c-3.121,0-5.667,2.546-5.667,5.667C73.029,268.61,75.575,271.156,78.696,271.156z"/>
			<path style="fill-rule:evenodd;clip-rule:evenodd;fill:#7D4120;" d="M71.449,277.418c3.121,0,5.667-2.546,5.667-5.667
				c0-3.121-2.546-5.667-5.667-5.667c-3.121,0-5.667,2.546-5.667,5.667C65.782,274.872,68.328,277.418,71.449,277.418z"/>
			<path style="fill-rule:evenodd;clip-rule:evenodd;fill:#7D4120;" d="M69.189,286.472c3.977,0,7.22-3.244,7.22-7.22
				c0-3.977-3.244-7.22-7.22-7.22s-7.22,3.243-7.22,7.22C61.969,283.228,65.213,286.472,69.189,286.472z"/>
			<path style="fill-rule:evenodd;clip-rule:evenodd;fill:#7D4120;" d="M121.828,267.574c3.121,0,5.667-2.546,5.667-5.667
				c0-3.121-2.546-5.667-5.667-5.667s-5.667,2.546-5.667,5.667C116.162,265.028,118.707,267.574,121.828,267.574z"/>
			
				<ellipse transform="matrix(0.9732 -0.2298 0.2298 0.9732 -60.6698 27.7355)" style="fill-rule:evenodd;clip-rule:evenodd;fill:#7D4120;" cx="88.769" cy="274.4" rx="7.836" ry="7.836"/>
			<path style="fill-rule:evenodd;clip-rule:evenodd;fill:#7D4120;" d="M79.299,287.695c5.499,0,9.984-4.485,9.984-9.984
				c0-5.499-4.485-9.984-9.984-9.984c-5.499,0-9.984,4.485-9.984,9.984C69.315,283.21,73.8,287.695,79.299,287.695z"/>
		</g>
	</g>
</g>
<g id="DESIGNED_BY_FREEPIK">
	<g>
		<g>
			<g>
				<path style="fill-rule:evenodd;clip-rule:evenodd;fill:#212121;" d="M260.064,466.429c-0.432,0.443-0.803,0.931-1.109,1.453
					l-0.465-0.241c-0.067-0.298-0.35-0.502-0.659-0.466c-0.331,0.039-0.568,0.339-0.529,0.67c0.039,0.331,0.339,0.568,0.67,0.529
					c0.065-0.008,0.127-0.026,0.184-0.052l0.451,0.234c-0.251,0.554-0.433,1.139-0.539,1.744l0.746,0.132
					c0.23-1.306,0.85-2.507,1.792-3.472L260.064,466.429z"/>
				<path style="fill-rule:evenodd;clip-rule:evenodd;fill:#212121;" d="M265.552,464.127c-0.171,0-0.341,0.006-0.51,0.017
					l-0.073-0.626c0.187-0.149,0.296-0.389,0.266-0.645c-0.046-0.393-0.402-0.674-0.795-0.628c-0.393,0.046-0.674,0.402-0.628,0.795
					c0.03,0.254,0.189,0.461,0.404,0.564l0.073,0.625c-0.714,0.116-1.403,0.332-2.06,0.646l0.327,0.684
					c0.934-0.447,1.942-0.673,2.995-0.673c0.497,0,0.993,0.053,1.475,0.158l0.16-0.741
					C266.652,464.186,266.102,464.127,265.552,464.127z"/>
				<path style="fill-rule:evenodd;clip-rule:evenodd;fill:#212121;" d="M272.154,466.674c0.331-0.04,0.566-0.341,0.525-0.672
					c-0.04-0.331-0.341-0.566-0.672-0.526c-0.309,0.038-0.535,0.304-0.53,0.609l-0.416,0.363c-0.418-0.43-0.889-0.813-1.408-1.139
					l-0.404,0.641c1.134,0.715,2.021,1.726,2.563,2.925l0.69-0.312c-0.251-0.554-0.568-1.072-0.942-1.545l0.402-0.351
					C272.025,466.679,272.089,466.682,272.154,466.674z"/>
				<path style="fill-rule:evenodd;clip-rule:evenodd;fill:#212121;" d="M265.004,474.336c-0.386,0.023-0.775,0.035-1.157,0.035
					c-0.88,0-1.733-0.061-2.479-0.179c-0.39-0.062-0.846-0.155-1.27-0.292c1.046,1.861,3.069,3.125,5.388,3.125
					c2.856,0,5.262-1.916,5.95-4.504c-0.682,0.449-1.505,0.826-2.458,1.123C267.799,474.011,266.423,474.25,265.004,474.336z"/>
				<path style="fill-rule:evenodd;clip-rule:evenodd;fill:#212121;" d="M265.552,465.643c-3.352,0-6.079,2.666-6.079,5.944
					c0,0.426,0.046,0.849,0.137,1.261c0.673,0.483,2.705,0.89,5.347,0.731c2.879-0.173,5.297-0.958,6.672-2.159
					c-0.005-0.195-0.021-0.39-0.045-0.582C271.204,467.877,268.61,465.643,265.552,465.643L265.552,465.643z M263.392,472.158
					L263.392,472.158c-1.02,0-1.85-0.83-1.85-1.85s0.83-1.85,1.85-1.85c1.02,0,1.85,0.83,1.85,1.85S264.412,472.158,263.392,472.158
					L263.392,472.158z M268.13,471.25L268.13,471.25c-0.75,0-1.36-0.61-1.36-1.36c0-0.75,0.61-1.361,1.36-1.361
					c0.75,0,1.361,0.61,1.361,1.361C269.49,470.64,268.88,471.25,268.13,471.25z"/>
			</g>
			<path style="fill-rule:evenodd;clip-rule:evenodd;fill:#212121;" d="M281.555,467.51c-0.295-0.116-0.806-0.309-1.383-0.237
				c-0.551,0.069-0.844,0.34-0.844,1.007v0.866h2.228v1.717h-2.228v5.455h-1.932v-5.455h-1.34v-1.717h1.34v-0.888
				c0-1.68,0.896-2.783,2.568-2.783c0.643,0,1.157,0.122,1.59,0.308L281.555,467.51z"/>
			<path style="fill-rule:evenodd;clip-rule:evenodd;fill:#212121;" d="M286.258,470.842c-0.177-0.03-0.358-0.046-0.526-0.046
				c-0.896,0-1.51,0.548-1.51,1.613v3.908h-1.932v-7.172h1.873v0.785c0.452-0.673,1.14-0.977,2.021-0.977
				c0.414,0,0.848,0.128,1.094,0.337L286.258,470.842z"/>
			<path style="fill-rule:evenodd;clip-rule:evenodd;fill:#212121;" d="M293.925,472.72c0,0.222-0.015,0.489-0.037,0.651h-5.085
				c0.207,1.036,0.933,1.488,1.843,1.488c0.622,0,1.295-0.251,1.813-0.688l1.132,1.243c-0.814,0.748-1.85,1.088-3.057,1.088
				c-2.199,0-3.723-1.495-3.723-3.753c0-2.257,1.48-3.797,3.627-3.797C292.504,468.953,293.918,470.485,293.925,472.72
				L293.925,472.72z M288.811,472.054L288.811,472.054h3.175c-0.178-0.918-0.733-1.436-1.562-1.436
				C289.514,470.618,288.981,471.166,288.811,472.054z"/>
			<path style="fill-rule:evenodd;clip-rule:evenodd;fill:#212121;" d="M301.578,472.72c0,0.222-0.015,0.489-0.037,0.651h-5.085
				c0.207,1.036,0.932,1.488,1.843,1.488c0.622,0,1.296-0.251,1.813-0.688l1.132,1.243c-0.814,0.748-1.85,1.088-3.057,1.088
				c-2.198,0-3.723-1.495-3.723-3.753c0-2.257,1.48-3.797,3.627-3.797C300.157,468.953,301.571,470.485,301.578,472.72
				L301.578,472.72z M296.464,472.054L296.464,472.054h3.175c-0.178-0.918-0.733-1.436-1.562-1.436
				C297.167,470.618,296.634,471.166,296.464,472.054z"/>
			<path style="fill-rule:evenodd;clip-rule:evenodd;fill:#212121;" d="M309.924,472.728c0,2.154-1.495,3.775-3.471,3.775
				c-0.962,0-1.643-0.378-2.109-0.933v3.708h-1.924v-10.132h1.887v0.792c0.466-0.585,1.155-0.984,2.139-0.984
				C308.429,468.953,309.924,470.574,309.924,472.728L309.924,472.728z M304.247,472.728L304.247,472.728
				c0,1.132,0.747,1.976,1.843,1.976c1.14,0,1.85-0.881,1.85-1.976c0-1.096-0.711-1.976-1.85-1.976
				C304.995,470.752,304.247,471.596,304.247,472.728z"/>
			<path style="fill-rule:evenodd;clip-rule:evenodd;fill:#212121;" d="M313.027,466.799c0,0.696-0.54,1.228-1.236,1.228
				c-0.696,0-1.229-0.533-1.229-1.228c0-0.696,0.533-1.243,1.229-1.243C312.487,465.556,313.027,466.104,313.027,466.799
				L313.027,466.799z M312.768,476.318L312.768,476.318h-1.932v-7.172h1.932V476.318z"/>
			<polygon style="fill-rule:evenodd;clip-rule:evenodd;fill:#212121;" points="315.992,471.699 318.694,469.146 321.062,469.146 
				317.583,472.521 321.084,476.318 318.708,476.318 315.992,473.416 315.992,476.318 314.06,476.318 314.06,465.659 
				315.992,465.659 			"/>
		</g>
		<g>
			<path style="fill-rule:evenodd;clip-rule:evenodd;fill:#212121;" d="M184.373,476.253v-1.055
				c-0.527,0.718-1.391,1.231-2.387,1.231c-1.846,0-3.149-1.406-3.149-3.706c0-2.256,1.289-3.721,3.149-3.721
				c0.952,0,1.816,0.469,2.387,1.245v-3.765h1.099v9.77H184.373L184.373,476.253z M184.373,474.334L184.373,474.334v-3.208
				c-0.395-0.615-1.245-1.143-2.124-1.143c-1.421,0-2.27,1.172-2.27,2.739c0,1.567,0.85,2.724,2.27,2.724
				C183.128,475.447,183.977,474.949,184.373,474.334z"/>
			<path style="fill-rule:evenodd;clip-rule:evenodd;fill:#212121;" d="M186.892,472.708c0-2.051,1.465-3.706,3.486-3.706
				c2.139,0,3.398,1.67,3.398,3.794v0.278h-5.727c0.088,1.333,1.026,2.446,2.549,2.446c0.806,0,1.626-0.322,2.182-0.893l0.527,0.718
				c-0.703,0.703-1.655,1.084-2.812,1.084C188.401,476.428,186.892,474.92,186.892,472.708L186.892,472.708z M190.364,469.91
				L190.364,469.91c-1.509,0-2.256,1.274-2.314,2.358h4.644C192.678,471.214,191.975,469.91,190.364,469.91z"/>
			<path style="fill-rule:evenodd;clip-rule:evenodd;fill:#212121;" d="M194.567,475.315l0.571-0.791
				c0.469,0.542,1.362,1.011,2.329,1.011c1.084,0,1.67-0.513,1.67-1.216c0-1.714-4.38-0.659-4.38-3.281
				c0-1.098,0.952-2.036,2.636-2.036c1.201,0,2.051,0.454,2.622,1.026l-0.513,0.762c-0.424-0.513-1.201-0.893-2.109-0.893
				c-0.967,0-1.567,0.483-1.567,1.113c0,1.553,4.38,0.527,4.38,3.281c0,1.187-0.952,2.139-2.783,2.139
				C196.266,476.428,195.285,476.077,194.567,475.315z"/>
			<path style="fill-rule:evenodd;clip-rule:evenodd;fill:#212121;" d="M201.437,467.435c0-0.41,0.337-0.747,0.733-0.747
				c0.41,0,0.747,0.337,0.747,0.747s-0.337,0.732-0.747,0.732C201.774,468.167,201.437,467.845,201.437,467.435L201.437,467.435z
				 M201.627,476.253L201.627,476.253v-7.075h1.099v7.075H201.627z"/>
			<path style="fill-rule:evenodd;clip-rule:evenodd;fill:#212121;" d="M204.542,478.069l0.557-0.82
				c0.586,0.703,1.289,0.967,2.3,0.967c1.172,0,2.271-0.571,2.271-2.124v-1.011c-0.513,0.718-1.377,1.26-2.373,1.26
				c-1.845,0-3.149-1.377-3.149-3.662c0-2.27,1.289-3.677,3.149-3.677c0.952,0,1.802,0.469,2.373,1.245v-1.069h1.098v6.87
				c0,2.344-1.641,3.076-3.369,3.076C206.197,479.124,205.377,478.889,204.542,478.069L204.542,478.069z M209.669,474.217
				L209.669,474.217v-3.091c-0.381-0.615-1.231-1.143-2.109-1.143c-1.421,0-2.27,1.128-2.27,2.695c0,1.553,0.849,2.695,2.27,2.695
				C208.438,475.374,209.288,474.832,209.669,474.217z"/>
			<path style="fill-rule:evenodd;clip-rule:evenodd;fill:#212121;" d="M217.373,476.253v-4.629c0-1.245-0.63-1.64-1.582-1.64
				c-0.864,0-1.685,0.527-2.094,1.099v5.17h-1.099v-7.075h1.099v1.026c0.498-0.586,1.465-1.201,2.519-1.201
				c1.48,0,2.256,0.747,2.256,2.285v4.966H217.373z"/>
			<path style="fill-rule:evenodd;clip-rule:evenodd;fill:#212121;" d="M219.893,472.708c0-2.051,1.465-3.706,3.486-3.706
				c2.139,0,3.398,1.67,3.398,3.794v0.278h-5.727c0.088,1.333,1.025,2.446,2.549,2.446c0.806,0,1.626-0.322,2.183-0.893l0.527,0.718
				c-0.703,0.703-1.655,1.084-2.812,1.084C221.402,476.428,219.893,474.92,219.893,472.708L219.893,472.708z M223.365,469.91
				L223.365,469.91c-1.509,0-2.256,1.274-2.314,2.358h4.643C225.679,471.214,224.975,469.91,223.365,469.91z"/>
			<path style="fill-rule:evenodd;clip-rule:evenodd;fill:#212121;" d="M233.31,476.253v-1.055
				c-0.527,0.718-1.391,1.231-2.388,1.231c-1.845,0-3.149-1.406-3.149-3.706c0-2.256,1.289-3.721,3.149-3.721
				c0.952,0,1.817,0.469,2.388,1.245v-3.765h1.098v9.77H233.31L233.31,476.253z M233.31,474.334L233.31,474.334v-3.208
				c-0.396-0.615-1.245-1.143-2.124-1.143c-1.421,0-2.27,1.172-2.27,2.739c0,1.567,0.849,2.724,2.27,2.724
				C232.065,475.447,232.914,474.949,233.31,474.334z"/>
			<path style="fill-rule:evenodd;clip-rule:evenodd;fill:#212121;" d="M239.652,476.253v-9.77h1.099v3.765
				c0.572-0.776,1.421-1.245,2.388-1.245c1.845,0,3.149,1.465,3.149,3.721c0,2.299-1.304,3.706-3.149,3.706
				c-0.996,0-1.86-0.513-2.388-1.231v1.055H239.652L239.652,476.253z M242.86,475.447L242.86,475.447
				c1.436,0,2.285-1.157,2.285-2.724c0-1.568-0.85-2.739-2.285-2.739c-0.864,0-1.728,0.527-2.109,1.143v3.208
				C241.132,474.949,241.996,475.447,242.86,475.447z"/>
			<path style="fill-rule:evenodd;clip-rule:evenodd;fill:#212121;" d="M247.489,478.025c0.161,0.073,0.425,0.117,0.601,0.117
				c0.483,0,0.805-0.161,1.055-0.747l0.469-1.069l-2.959-7.148h1.187l2.358,5.801l2.343-5.801h1.201l-3.544,8.511
				c-0.425,1.025-1.143,1.421-2.08,1.435c-0.234,0-0.601-0.044-0.806-0.103L247.489,478.025z"/>
		</g>
	</g>
</g>
</svg>
