<svg width="500" height="500" xmlns="http://www.w3.org/2000/svg" xml:space="preserve" version="1.1">

 <g>
  <title>Layer 1</title>
  <g id="Background">
   <rect id="svg_1" fill="#FFFFFF" height="500" width="500"/>
  </g>
  <g id="Objects">
   <g id="svg_2">
    <g id="svg_3">
     <path id="svg_4" fill="#434040" d="m80.955,154.44c-0.217,0 -0.416,-0.142 -0.48,-0.36c-0.701,-2.408 -0.758,-9.466 -0.76,-9.765c-0.002,-0.276 0.22,-0.501 0.496,-0.503c0.001,0 0.003,0 0.004,0c0.274,0 0.498,0.222 0.5,0.497c0,0.072 0.058,7.217 0.72,9.493c0.077,0.265 -0.075,0.543 -0.34,0.62c-0.047,0.012 -0.094,0.018 -0.14,0.018z"/>
     <path id="svg_5" fill="#434040" d="m81.436,153.436c-0.451,-0.467 -1.342,-0.536 -1.833,-0.536c-0.902,0 -2.2,0.247 -2.891,0.941c-0.312,0.313 -0.475,0.694 -0.473,1.102c0.002,0.309 0.166,1.029 1.646,1.029l0.001,0c1.309,0 3.774,-0.642 3.815,-1.869c0.008,-0.248 -0.084,-0.479 -0.265,-0.667z"/>
    </g>
    <g id="svg_6">
     <path id="svg_7" fill="#434040" d="m96.341,153.799c-0.217,0 -0.417,-0.142 -0.48,-0.36c-0.701,-2.408 -0.759,-9.465 -0.761,-9.765c-0.002,-0.276 0.22,-0.501 0.497,-0.503c0.001,0 0.002,0 0.003,0c0.274,0 0.498,0.222 0.5,0.497c0,0.072 0.058,7.217 0.721,9.492c0.077,0.265 -0.075,0.543 -0.34,0.62c-0.046,0.012 -0.094,0.019 -0.14,0.019z"/>
     <path id="svg_8" fill="#434040" d="m96.822,152.795c-0.451,-0.466 -1.342,-0.536 -1.834,-0.536c-0.901,0 -2.199,0.247 -2.891,0.941c-0.311,0.314 -0.475,0.694 -0.473,1.102c0.002,0.309 0.165,1.029 1.646,1.029l0.001,0c1.31,0 3.774,-0.642 3.815,-1.869c0.009,-0.249 -0.082,-0.479 -0.264,-0.667z"/>
    </g>
    <g id="svg_9">
     <path id="svg_10" fill="#F19800" d="m101.06,97.952c0.558,4.539 1.058,8.953 1.481,13.107c0,0 -2.241,-3 -6.847,-1.173c-3.779,1.491 -5.241,10.059 -10.915,10.483c-5.674,0.432 -7.27,-4.385 -8.982,-7.28c-1.462,-2.471 -3.789,-2.048 -4.433,-1.865c-0.241,-3.741 -0.49,-7.578 -0.75,-11.377c1.192,-0.741 4.058,-1.577 5.924,1.472c2.038,3.317 4.712,7.712 8.885,6.318c4.173,-1.394 4.924,-8.664 8.136,-10.376c2.933,-1.569 6.847,0.344 7.501,0.691z"/>
     <path id="svg_11" fill="#75D2DB" d="m102.541,111.059c1.587,15.204 2.27,26.936 1.394,28.321c-3.991,6.279 -22.474,6.991 -28.532,3.712c-1.837,-0.991 -2.943,-15.483 -4.039,-31.869c0.644,-0.183 2.972,-0.606 4.433,1.865c1.712,2.895 3.308,7.712 8.982,7.28c5.674,-0.424 7.135,-8.992 10.915,-10.483c4.606,-1.826 6.847,1.174 6.847,1.174z"/>
     <path id="svg_12" fill="#FFE444" d="m99.56,86.316c0.538,3.904 1.038,7.818 1.5,11.636c-0.654,-0.347 -4.568,-2.26 -7.501,-0.693c-3.212,1.712 -3.962,8.982 -8.136,10.376c-4.173,1.395 -6.847,-3 -8.885,-6.318c-1.866,-3.048 -4.732,-2.212 -5.924,-1.472c-0.221,-3.279 -0.452,-6.53 -0.693,-9.665c0.193,-0.077 3.087,-1.298 6.087,1.298c1.01,0.875 6.953,5.779 9.848,2.029c3.548,-4.606 1.385,-7.491 4.702,-8.665c3.318,-1.183 5.78,3.847 8.886,1.491l0.116,-0.017z"/>
     <path id="svg_13" fill="#E16278" d="m99.56,86.316l-0.116,0.019c-3.106,2.356 -5.568,-2.673 -8.886,-1.491c-3.317,1.173 -1.154,4.059 -4.702,8.665c-2.895,3.751 -8.837,-1.154 -9.848,-2.029c-3,-2.597 -5.894,-1.376 -6.087,-1.298c-0.308,-4.048 -0.634,-7.895 -0.99,-11.357c0.856,-0.02 3.289,0.115 4.933,2.376c2.039,2.789 6.107,4.605 8.348,1.605c2.25,-2.991 1.923,-6.529 5.462,-7.491c3.529,-0.962 6.636,4.924 10.588,1.818c0.452,3.028 0.884,6.105 1.298,9.183z"/>
     <path id="svg_14" fill="#7A62A0" d="m67.556,67.823c1.712,-0.105 4.067,5.779 8.559,5.251c4.77,-0.567 3.106,-6.318 7.808,-8.241c4.674,-1.914 8.28,5.857 12.934,3.279c0.471,2.933 0.942,5.952 1.404,9.021c-3.952,3.106 -7.059,-2.779 -10.588,-1.818c-3.538,0.962 -3.212,4.5 -5.462,7.491c-2.241,3 -6.309,1.183 -8.348,-1.605c-1.644,-2.26 -4.077,-2.395 -4.933,-2.376c-0.461,-4.424 -0.971,-8.213 -1.558,-10.963l0.184,-0.039z"/>
     <path id="svg_15" fill="#75D2DB" d="m96.857,68.112c-4.654,2.577 -8.26,-5.193 -12.934,-3.279c-4.702,1.923 -3.038,7.674 -7.808,8.241c-4.492,0.529 -6.847,-5.356 -8.559,-5.251l-0.183,0.039c-0.567,-2.702 -1.221,-4.404 -1.961,-4.741c-4.702,-2.145 -13.444,12.905 -20.118,14.126c-4.712,0.856 -11.559,-8.779 -11.338,-14.126c0.221,-5.568 16.492,-22.676 24.82,-29.109c4.712,-3.635 23.541,-5.135 29.109,-0.645c2.77,2.231 6.058,16.945 8.972,34.745z"/>
    </g>
    <path id="svg_16" fill="#434040" d="m60.43,44.124c0,-1.532 -1.243,-2.774 -2.775,-2.774c-1.532,0 -2.774,1.242 -2.774,2.774c0,1.532 1.242,2.774 2.774,2.774c1.532,0 2.775,-1.242 2.775,-2.774z"/>
    <path id="svg_17" fill="#434040" d="m83.276,44.124c0,-1.532 -1.242,-2.774 -2.774,-2.774c-1.532,0 -2.774,1.242 -2.774,2.774c0,1.532 1.242,2.774 2.774,2.774c1.532,0 2.774,-1.242 2.774,-2.774z"/>
    <path id="svg_18" fill="#434040" d="m65.184,44.626c0.001,0.013 0.065,0.166 0.214,0.485c0.146,0.309 0.375,0.744 0.697,1.195c0.163,0.225 0.355,0.447 0.566,0.659c0.214,0.209 0.462,0.386 0.718,0.554c0.137,0.066 0.276,0.134 0.417,0.203c0.153,0.039 0.296,0.105 0.451,0.149l0.484,0.091c0.171,0.008 0.342,0.012 0.512,0.031l0.57,-0.026c0.206,-0.014 0.308,-0.06 0.468,-0.079c0.305,-0.066 0.63,-0.171 0.912,-0.308c0.281,-0.146 0.549,-0.307 0.788,-0.496c0.229,-0.198 0.45,-0.395 0.634,-0.604c0.737,-0.843 1.068,-1.615 1.06,-1.572c0.069,-0.283 0.354,-0.457 0.637,-0.388c0.283,0.069 0.456,0.354 0.388,0.637c-0.006,0.016 -0.023,0.259 -0.125,0.66c-0.105,0.399 -0.294,0.966 -0.673,1.591c-0.19,0.312 -0.428,0.638 -0.724,0.952c-0.304,0.307 -0.655,0.615 -1.073,0.862c-0.424,0.243 -0.871,0.447 -1.383,0.58c-0.254,0.051 -0.564,0.123 -0.782,0.141l-0.318,0.024l-0.16,0.012l-0.08,0.006l-0.04,0.003l-0.086,0.003l-0.024,-0.001c-0.255,-0.01 -0.511,-0.035 -0.764,-0.056c-0.254,-0.043 -0.509,-0.108 -0.759,-0.166c-0.247,-0.077 -0.489,-0.178 -0.723,-0.278c-0.224,-0.123 -0.442,-0.254 -0.65,-0.387c-0.4,-0.292 -0.742,-0.622 -1.007,-0.97c-0.27,-0.343 -0.477,-0.693 -0.628,-1.026c-0.314,-0.662 -0.438,-1.245 -0.502,-1.651c-0.059,-0.399 -0.056,-0.671 -0.056,-0.657c-0.047,-0.287 0.147,-0.559 0.434,-0.606c0.288,-0.048 0.56,0.146 0.607,0.433z"/>
    <path id="svg_19" fill="#F9B4C1" d="m60.678,51.418c0,-1.903 -2,-3.446 -4.467,-3.446c-2.467,0 -4.468,1.543 -4.468,3.446c0,1.903 2,3.446 4.468,3.446c2.467,0 4.467,-1.543 4.467,-3.446z"/>
    <path id="svg_20" fill="#F9B4C1" d="m86.041,51.658c0,-1.903 -2,-3.446 -4.467,-3.446c-2.468,0 -4.468,1.543 -4.468,3.446c0,1.903 2,3.446 4.468,3.446c2.467,0 4.467,-1.543 4.467,-3.446z"/>
   </g>
   <g id="svg_21">
    <path id="svg_22" fill="#434040" d="m175.734,151.485c-0.236,0 -0.446,-0.168 -0.491,-0.408c-0.539,-2.894 0.213,-11.168 0.246,-11.519c0.025,-0.274 0.271,-0.474 0.544,-0.452c0.275,0.025 0.478,0.269 0.452,0.544c-0.008,0.085 -0.772,8.486 -0.258,11.244c0.05,0.271 -0.128,0.533 -0.4,0.583c-0.032,0.005 -0.063,0.008 -0.093,0.008z"/>
    <g id="svg_23">
     <path id="svg_24" fill="#434040" d="m207.889,146.415c-0.001,0 -0.001,0 -0.002,0c-0.276,-0.001 -0.499,-0.226 -0.498,-0.503c0.037,-7.781 -1.722,-14.525 -1.74,-14.592c-0.071,-0.267 0.088,-0.54 0.355,-0.611c0.265,-0.071 0.541,0.088 0.611,0.355c0.018,0.069 1.811,6.941 1.773,14.853c-0.001,0.275 -0.224,0.498 -0.499,0.498z"/>
     <g id="svg_25">
      <path id="svg_26" fill="#434040" d="m173.907,149.649c-1.77,-0.079 -3.617,0.5 -3.754,1.971c-0.025,0.271 0.057,0.525 0.239,0.734c0.32,0.368 0.936,0.574 1.831,0.614c1.412,0.063 4.124,-0.376 4.303,-1.714c0.037,-0.283 -0.045,-0.555 -0.24,-0.787c-0.559,-0.668 -1.85,-0.795 -2.379,-0.818z"/>
      <path id="svg_27" fill="#434040" d="m212.994,146.769c-0.78,-1.1 -2.653,-1.899 -3.912,-1.955c-1.181,-0.052 -1.467,0.556 -1.536,0.82c-0.096,0.371 0.013,0.773 0.323,1.193c0.79,1.068 2.9,2.214 4.181,2.271c0.929,0.041 1.192,-0.495 1.262,-0.728c0.16,-0.529 0.05,-1.083 -0.318,-1.601z"/>
     </g>
    </g>
    <g id="svg_28">
     <path id="svg_29" fill="#434040" d="m154.909,81.956c-0.102,0 -0.206,-0.031 -0.295,-0.097c-0.223,-0.163 -0.271,-0.476 -0.108,-0.699c1.9,-2.591 4.45,-2.192 6.916,-1.806c1.309,0.204 2.663,0.418 3.941,0.191c1.618,-0.285 2.042,-1.409 2.71,-3.538c0.561,-1.787 1.258,-4.01 3.331,-5.907c4.451,-4.073 9.406,0.774 9.455,0.823c0.195,0.195 0.196,0.511 0.001,0.707c-0.195,0.196 -0.512,0.195 -0.707,0.002c-0.175,-0.174 -4.33,-4.218 -8.074,-0.794c-1.875,1.715 -2.501,3.709 -3.052,5.469c-0.616,1.964 -1.198,3.82 -3.49,4.223c-1.443,0.255 -2.88,0.029 -4.27,-0.188c-2.368,-0.372 -4.415,-0.691 -5.955,1.409c-0.098,0.134 -0.249,0.205 -0.403,0.205z"/>
     <path id="svg_30" fill="#434040" d="m155.229,80.933c-0.35,-0.14 -3.993,0.712 -3.96,1.555c0.033,0.843 2.013,-0.013 2.013,-0.013s-1.837,1.561 -1.191,2.133c0.646,0.573 1.833,-1.326 1.833,-1.326s-0.461,2.318 0.289,2.237c0.75,-0.081 1.216,-2.632 1.216,-2.632s0.309,1.626 1.052,1.455c0.313,-0.073 0.701,-2.626 -1.252,-3.409z"/>
    </g>
    <path id="svg_31" fill="#EF6856" d="m155.792,74.161c-3.484,3.187 -17.523,4.53 -20.732,-4.972c-3.21,-9.503 -1.064,-35.809 26.984,-41.408c28.048,-5.598 46.17,10.992 44.38,32.425c-1.79,21.433 -14.878,39.291 -12.48,41.913c2.398,2.621 20.2,-14.469 27.184,-14.438c4.946,0.021 16.984,13.886 13.57,21.558c-4.277,9.612 -43.666,33.262 -57.812,30.957c-14.146,-2.305 -20.585,-14.604 -17.908,-24.543c2.677,-9.939 15.707,-24.847 19.934,-39.905c4.647,-16.557 -2.348,-24.424 -12.151,-22.053c-10.734,2.596 -6.163,16.07 -10.969,20.466z"/>
    <path id="svg_32" fill="#434040" d="m157.9,39.557c-0.171,-1.488 -1.518,-2.556 -3.006,-2.384c-1.488,0.171 -2.556,1.518 -2.385,3.006c0.171,1.489 1.518,2.557 3.007,2.385c1.489,-0.172 2.556,-1.519 2.384,-3.007z"/>
    <path id="svg_33" fill="#434040" d="m180.622,36.517c-0.172,-1.488 -1.519,-2.556 -3.007,-2.384c-1.488,0.171 -2.556,1.518 -2.385,3.007c0.172,1.489 1.518,2.556 3.007,2.385c1.488,-0.172 2.557,-1.519 2.385,-3.008z"/>
    <g id="svg_34">
     <path id="svg_35" fill="#F99DA6" d="m164.014,46.304c0,0 3.946,-3.869 8.144,-1.03l0.028,0.052c-1.121,0.67 -2.595,1.186 -4.417,1.395c-1.439,0.167 -2.713,0.01 -3.778,-0.348l0.023,-0.069z"/>
     <path id="svg_36" fill="#434040" d="m174.204,39.779c1.37,1.383 0.716,3.926 -2.018,5.546l-0.028,-0.052c-4.198,-2.839 -8.144,1.03 -8.144,1.03l-0.023,0.069c-3.365,-1.09 -4.833,-4.108 -3.617,-5.326c1.205,-1.208 2.875,0.408 7.394,-0.142c3.603,-0.44 4.98,-2.591 6.436,-1.125z"/>
    </g>
    <path id="svg_37" fill="#F7F4B7" d="m180.39,61.928c0,0 0.156,0.073 0.483,0.185c0.324,0.108 0.81,0.251 1.44,0.348c0.628,0.097 1.409,0.139 2.268,-0.012c0.845,-0.155 1.813,-0.493 2.569,-1.187c0.751,-0.697 1.291,-1.785 1.381,-2.966c0.044,-0.572 -0.035,-1.224 -0.325,-1.601c-0.144,-0.183 -0.29,-0.252 -0.497,-0.246c-0.04,0.003 -0.138,0.021 -0.138,0.021l-0.126,0.04c-0.036,0.014 -0.02,0.021 -0.035,0.025c-0.037,0.029 -0.104,0.075 -0.123,0.153c-0.137,0.343 0.141,1.028 0.551,1.496c0.415,0.496 0.969,0.906 1.585,1.196c1.238,0.595 2.707,0.708 4.121,0.495c1.419,-0.228 2.84,-0.705 3.954,-1.51c1.105,-0.797 1.872,-2.044 1.782,-3.278c-0.035,-0.593 -0.292,-1.188 -0.69,-1.421c-0.195,-0.122 -0.401,-0.149 -0.632,-0.09c-0.082,0.041 -0.107,0.023 -0.082,0.273c0.102,0.455 0.5,0.95 0.909,1.307c0.42,0.368 0.897,0.65 1.383,0.836c0.977,0.377 1.975,0.364 2.794,0.12c0.827,-0.239 1.479,-0.669 1.977,-1.06c0.496,-0.399 0.845,-0.768 1.074,-1.024c0.226,-0.263 0.346,-0.402 0.346,-0.402l0.009,-0.011c0.095,-0.11 0.261,-0.123 0.371,-0.028c0.108,0.092 0.122,0.254 0.035,0.364c0,0 -0.121,0.151 -0.346,0.435c-0.232,0.279 -0.585,0.682 -1.104,1.132c-0.521,0.441 -1.218,0.945 -2.157,1.256c-0.926,0.315 -2.119,0.386 -3.274,-0.042c-0.576,-0.207 -1.139,-0.523 -1.646,-0.949c-0.495,-0.44 -0.992,-0.936 -1.216,-1.751c-0.045,-0.208 -0.068,-0.465 0.045,-0.745c0.12,-0.29 0.379,-0.486 0.656,-0.565c0.411,-0.124 0.926,-0.075 1.315,0.165c0.799,0.479 1.1,1.347 1.164,2.138c0.124,1.649 -0.865,3.185 -2.14,4.118c-1.303,0.946 -2.827,1.457 -4.378,1.719c-1.56,0.246 -3.24,0.104 -4.693,-0.603c-0.724,-0.349 -1.384,-0.837 -1.901,-1.464c-0.256,-0.315 -0.478,-0.665 -0.63,-1.064c-0.145,-0.394 -0.245,-0.869 -0.058,-1.385c0.095,-0.261 0.291,-0.483 0.551,-0.632c0.161,-0.089 0.249,-0.11 0.324,-0.133c0.168,-0.047 0.245,-0.048 0.377,-0.062c0.495,-0.041 1.028,0.247 1.28,0.622c0.512,0.753 0.511,1.532 0.464,2.232c-0.143,1.409 -0.795,2.653 -1.72,3.482c-0.944,0.83 -2.047,1.16 -3.001,1.293c-0.964,0.129 -1.808,0.046 -2.478,-0.084c-1.343,-0.271 -2.045,-0.658 -2.045,-0.658l-0.013,-0.007c-0.128,-0.07 -0.174,-0.23 -0.104,-0.357c0.069,-0.125 0.22,-0.172 0.344,-0.114z"/>
    <path id="svg_38" fill="#FCC5C5" d="m179.532,73.862c0,0 0.172,0.09 0.495,0.26c0.322,0.143 0.774,0.305 1.426,0.455c0.646,0.123 1.445,0.25 2.367,0.233c0.916,-0.012 1.962,-0.093 3.026,-0.419c1.047,-0.323 2.165,-0.907 2.768,-1.94c0.139,-0.261 0.304,-0.513 0.355,-0.82l0.125,-0.442l0.024,-0.474l0.026,-0.443l-0.061,-0.531c-0.035,-0.152 -0.086,-0.257 -0.118,-0.393c-0.069,-0.107 -0.121,-0.246 -0.206,-0.329c-0.295,-0.364 -0.862,-0.33 -1.213,0.108c-0.374,0.401 -0.397,1.076 -0.189,1.681c0.041,0.157 0.107,0.31 0.198,0.457l0.12,0.226l0.03,0.057c-0.006,-0.007 0.034,0.055 -0.01,-0.008l0.022,0.029l0.088,0.114c0.129,0.186 0.209,0.212 0.314,0.314c0.13,0.086 0.257,0.175 0.412,0.238c0.592,0.285 1.335,0.351 2.059,0.361c1.469,-0.011 2.971,-0.361 4.336,-0.896c0.682,-0.271 1.336,-0.603 1.882,-1.014c0.549,-0.397 0.96,-0.965 0.745,-1.258c-0.035,-0.043 -0.044,-0.092 -0.09,-0.138c-0.028,-0.031 -0.129,-0.122 -0.092,-0.108l-0.222,-0.154c-0.06,-0.029 -0.078,-0.016 -0.114,-0.04c-0.18,-0.056 -0.419,-0.013 -0.65,0.13c-0.469,0.286 -0.844,0.825 -1.069,1.374c-0.469,1.112 -0.349,2.374 0.366,3.093c0.699,0.738 1.738,1.01 2.625,1.111c0.903,0.111 1.717,0.036 2.379,-0.009c0.664,-0.079 1.185,-0.152 1.538,-0.227c0.354,-0.064 0.544,-0.099 0.544,-0.099l0.013,-0.002c0.143,-0.026 0.28,0.069 0.306,0.212c0.025,0.14 -0.065,0.274 -0.203,0.305c0,0 -0.192,0.042 -0.552,0.121c-0.358,0.089 -0.891,0.184 -1.575,0.29c-0.688,0.072 -1.529,0.183 -2.516,0.099c-0.959,-0.084 -2.177,-0.301 -3.131,-1.259c-0.462,-0.473 -0.797,-1.134 -0.875,-1.839c-0.086,-0.703 0.008,-1.435 0.279,-2.117c0.274,-0.678 0.678,-1.352 1.4,-1.827c0.355,-0.229 0.86,-0.394 1.378,-0.247c0.129,0.045 0.286,0.107 0.382,0.164l0.223,0.153c0.165,0.144 0.187,0.184 0.286,0.283c0.08,0.084 0.142,0.209 0.208,0.316c0.123,0.237 0.169,0.524 0.143,0.798c-0.044,0.266 -0.14,0.499 -0.261,0.701c-0.247,0.399 -0.565,0.671 -0.886,0.927c-0.651,0.495 -1.363,0.855 -2.099,1.155c-1.475,0.586 -3.05,0.971 -4.692,0.998c-0.819,-0.004 -1.67,-0.078 -2.485,-0.462c-0.204,-0.088 -0.397,-0.216 -0.586,-0.349c-0.183,-0.15 -0.412,-0.366 -0.497,-0.503l-0.087,-0.115l-0.021,-0.029c-0.057,-0.083 -0.027,-0.044 -0.045,-0.071l-0.038,-0.071l-0.15,-0.284c-0.108,-0.183 -0.193,-0.381 -0.251,-0.596c-0.274,-0.807 -0.278,-1.873 0.388,-2.61c0.302,-0.371 0.765,-0.638 1.28,-0.673c0.506,-0.044 1.067,0.181 1.363,0.571c0.166,0.179 0.255,0.389 0.364,0.59c0.066,0.212 0.143,0.446 0.179,0.643l0.057,0.531c0.009,0.262 -0.018,0.405 -0.028,0.611l-0.047,0.57l-0.162,0.551c-0.08,0.376 -0.286,0.698 -0.471,1.021c-0.806,1.286 -2.133,1.906 -3.285,2.238c-1.179,0.338 -2.293,0.384 -3.264,0.356c-0.976,-0.02 -1.814,-0.186 -2.495,-0.343c-0.669,-0.176 -1.219,-0.398 -1.553,-0.568c-0.316,-0.181 -0.485,-0.278 -0.485,-0.278c-0.126,-0.073 -0.17,-0.234 -0.097,-0.36c0.069,-0.122 0.227,-0.165 0.352,-0.1z"/>
    <path id="svg_39" fill="#ADD1B1" d="m175.185,86.247c0,0 0.005,0.038 0.015,0.11c0.014,0.075 0.036,0.189 0.084,0.335c0.098,0.285 0.272,0.718 0.682,1.11c0.401,0.394 1.027,0.744 1.84,0.865c0.814,0.125 1.766,0.127 2.721,-0.188c0.953,-0.307 1.94,-0.891 2.67,-1.756c0.358,-0.424 0.655,-0.947 0.695,-1.437c0.014,-0.241 -0.023,-0.457 -0.149,-0.629c-0.062,-0.086 -0.138,-0.169 -0.24,-0.238l-0.036,-0.028l-0.009,-0.007c-0.011,-0.007 0.063,0.038 0.025,0.015l-0.027,-0.015l-0.11,-0.06c-0.081,-0.038 -0.049,-0.006 -0.08,-0.022c-0.065,-0.016 -0.167,0.04 -0.292,0.278c-0.108,0.226 -0.168,0.524 -0.191,0.826c-0.038,0.611 0.056,1.262 0.273,1.867c0.415,1.227 1.357,2.244 2.565,2.727c0.621,0.245 1.228,0.369 1.938,0.401c0.63,0.025 1.298,-0.066 1.881,-0.292c1.181,-0.457 2.062,-1.497 2.459,-2.657c0.205,-0.575 0.29,-1.192 0.228,-1.73c-0.032,-0.266 -0.124,-0.506 -0.232,-0.626c-0.058,-0.046 -0.099,-0.089 -0.164,-0.093c0.015,-0.001 -0.065,-0.009 0.028,-0.005l-0.058,0.001c-0.032,0.002 -0.094,-0.002 -0.101,0.005c0.008,0.018 0.017,-0.005 -0.018,0.021c-0.243,0.124 -0.412,0.754 -0.382,1.24c0.005,0.517 0.139,1.021 0.332,1.466c0.405,0.893 1.111,1.509 1.845,1.825c0.743,0.308 1.478,0.376 2.075,0.356c0.601,-0.023 1.075,-0.101 1.395,-0.168c0.32,-0.07 0.491,-0.108 0.491,-0.108l0.016,-0.004c0.142,-0.031 0.283,0.059 0.314,0.201c0.03,0.138 -0.055,0.275 -0.19,0.311c0,0 -0.178,0.047 -0.511,0.135c-0.334,0.083 -0.833,0.187 -1.486,0.238c-0.649,0.046 -1.474,0.012 -2.366,-0.317c-0.882,-0.332 -1.796,-1.06 -2.3,-2.135c-0.246,-0.534 -0.42,-1.131 -0.443,-1.776c-0.014,-0.322 0.006,-0.655 0.098,-1c0.098,-0.334 0.232,-0.728 0.665,-1.008c0.091,-0.068 0.253,-0.122 0.41,-0.149c0.068,-0.011 0.085,-0.006 0.131,-0.009l0.058,-0.002c0.132,0.003 0.09,0.01 0.143,0.016c0.252,0.028 0.482,0.175 0.655,0.338c0.324,0.349 0.436,0.747 0.497,1.116c0.106,0.747 -0.009,1.474 -0.244,2.166c-0.458,1.376 -1.516,2.667 -2.989,3.25c-0.734,0.287 -1.503,0.4 -2.299,0.374c-0.716,-0.024 -1.539,-0.169 -2.251,-0.457c-1.474,-0.579 -2.63,-1.873 -3.106,-3.33c-0.252,-0.726 -0.361,-1.49 -0.309,-2.26c0.035,-0.386 0.105,-0.775 0.292,-1.167c0.108,-0.194 0.219,-0.396 0.443,-0.566c0.212,-0.168 0.538,-0.277 0.825,-0.228c0.13,0.017 0.33,0.089 0.397,0.127l0.11,0.061l0.028,0.015l0.052,0.031l0.016,0.012l0.064,0.048c0.171,0.122 0.329,0.283 0.455,0.467c0.263,0.37 0.337,0.841 0.294,1.239c-0.1,0.809 -0.513,1.415 -0.945,1.919c-0.891,1.002 -2.009,1.618 -3.103,1.946c-1.107,0.34 -2.187,0.294 -3.085,0.114c-0.917,-0.173 -1.672,-0.622 -2.143,-1.127c-0.481,-0.503 -0.671,-1.032 -0.773,-1.378c-0.05,-0.177 -0.072,-0.317 -0.085,-0.413c-0.009,-0.1 -0.014,-0.151 -0.014,-0.151c-0.013,-0.145 0.093,-0.273 0.238,-0.286c0.141,-0.013 0.266,0.087 0.285,0.226l0.003,0.024z"/>
    <path id="svg_40" fill="#F7F4B7" d="m167.64,99.586c0,0 -0.062,0.195 -0.144,0.588c-0.079,0.39 -0.179,0.973 -0.192,1.712c-0.007,0.732 0.07,1.65 0.516,2.526c0.441,0.878 1.364,1.575 2.577,1.816c0.605,0.13 1.243,0.169 1.859,0.032c0.619,-0.14 1.205,-0.461 1.684,-0.94c0.934,-0.946 1.524,-2.548 1.287,-3.925c-0.067,-0.339 -0.244,-0.554 -0.356,-0.555c0.001,0 -0.084,-0.002 -0.011,-0.009l-0.156,0.019c0.003,0.017 0.013,0.005 -0.024,0.03c-0.046,0.037 -0.104,0.149 -0.134,0.296c-0.121,0.627 0.111,1.467 0.445,2.167c0.677,1.437 2.002,2.64 3.566,2.799c1.576,0.196 3.183,-0.527 4.116,-1.817c0.483,-0.628 0.825,-1.368 1.021,-2.123c0.096,-0.377 0.154,-0.762 0.156,-1.129c0.008,-0.362 -0.066,-0.732 -0.195,-0.916c-0.067,-0.091 -0.1,-0.107 -0.165,-0.114c-0.05,-0.015 -0.254,0.049 -0.265,0.076c-0.142,0.081 -0.23,0.359 -0.222,0.679c0.027,0.649 0.331,1.335 0.725,1.89c0.797,1.14 2.042,1.81 3.244,1.925c0.296,0.03 0.613,0.033 0.88,0.012c0.313,-0.032 0.619,-0.064 0.917,-0.095c0.276,-0.054 0.545,-0.106 0.807,-0.157c0.258,-0.068 0.505,-0.156 0.748,-0.228c0.954,-0.344 1.633,-0.924 2.03,-1.503c0.402,-0.582 0.544,-1.143 0.596,-1.518c0.052,-0.379 0.028,-0.58 0.03,-0.566c-0.016,-0.145 0.089,-0.275 0.233,-0.291c0.145,-0.016 0.275,0.089 0.291,0.233c0,0 0.004,0.063 0.011,0.186c0.003,0.116 0,0.286 -0.021,0.505c-0.046,0.434 -0.185,1.086 -0.632,1.788c-0.44,0.698 -1.228,1.403 -2.279,1.822c-0.266,0.091 -0.536,0.197 -0.823,0.282c-0.293,0.067 -0.595,0.136 -0.905,0.206c-0.297,0.037 -0.602,0.074 -0.914,0.112c-0.358,0.036 -0.688,0.035 -1.046,0.007c-1.415,-0.107 -2.917,-0.879 -3.877,-2.207c-0.476,-0.66 -0.868,-1.432 -0.933,-2.371c-0.015,-0.449 0.056,-1.066 0.598,-1.468c0.319,-0.205 0.525,-0.253 0.881,-0.25c0.348,0.013 0.691,0.249 0.851,0.497c0.333,0.505 0.369,0.999 0.378,1.462c0,0.467 -0.068,0.92 -0.177,1.362c-0.224,0.881 -0.609,1.729 -1.173,2.474c-1.081,1.529 -3.079,2.469 -5.008,2.225c-0.973,-0.104 -1.893,-0.545 -2.625,-1.153c-0.739,-0.61 -1.297,-1.387 -1.696,-2.223c-0.372,-0.849 -0.684,-1.735 -0.5,-2.789c0.061,-0.261 0.167,-0.561 0.441,-0.805c0.126,-0.112 0.324,-0.214 0.53,-0.254l0.156,-0.018c0.177,-0.008 0.196,0.01 0.301,0.019c0.35,0.062 0.639,0.305 0.796,0.546c0.169,0.246 0.242,0.493 0.299,0.732c0.185,0.954 0.018,1.827 -0.262,2.632c-0.285,0.804 -0.741,1.532 -1.331,2.115c-0.597,0.578 -1.349,0.973 -2.119,1.129c-0.775,0.155 -1.535,0.086 -2.207,-0.072c-0.68,-0.16 -1.325,-0.432 -1.849,-0.835c-0.523,-0.404 -0.915,-0.915 -1.169,-1.436c-0.495,-1.059 -0.532,-2.068 -0.503,-2.854c0.039,-0.794 0.164,-1.403 0.261,-1.813c0.099,-0.409 0.176,-0.63 0.176,-0.63l0.002,-0.006c0.048,-0.137 0.198,-0.209 0.336,-0.162c0.138,0.05 0.211,0.196 0.168,0.331z"/>
    <g id="svg_41">
     <path id="svg_42" fill="#434040" d="m208.26,60.864c-1.043,0 -1.857,-0.152 -1.932,-0.167c-0.271,-0.052 -0.448,-0.314 -0.396,-0.585c0.052,-0.271 0.315,-0.449 0.585,-0.397c0.037,0.007 3.607,0.67 5.032,-0.862c1.198,-1.289 1.468,-2.886 1.73,-4.43c0.258,-1.525 0.501,-2.964 1.604,-3.973c0.49,-0.448 1.202,-0.875 2.027,-1.368c1.736,-1.039 3.897,-2.332 4.341,-4.209c0.246,-1.035 -0.034,-2.166 -0.854,-3.456c-0.148,-0.233 -0.08,-0.542 0.154,-0.69c0.233,-0.148 0.542,-0.079 0.69,0.154c0.959,1.509 1.29,2.93 0.983,4.223c-0.542,2.288 -2.903,3.701 -4.801,4.836c-0.746,0.446 -1.451,0.868 -1.866,1.248c-0.849,0.777 -1.055,1.994 -1.294,3.403c-0.273,1.611 -0.581,3.436 -1.983,4.944c-1.006,1.083 -2.697,1.329 -4.02,1.329z"/>
     <path id="svg_43" fill="#434040" d="m222.688,36.782c-0.349,-0.285 -0.838,-0.312 -1.259,-0.269c-0.334,-1.898 -0.944,-3.965 -2.047,-4.104c-0.266,-0.039 -0.512,0.059 -0.699,0.253c-0.152,0.159 -0.539,0.575 -0.382,2.761c-0.563,-0.835 -1.221,-1.62 -1.76,-1.722c-0.252,-0.052 -0.494,0.019 -0.678,0.188c-0.391,0.358 -0.691,1.195 0.873,4.137c-0.29,0.215 -0.473,0.492 -0.508,0.821c-0.075,0.637 0.257,1.345 0.911,1.944c0.731,0.668 1.693,1.065 2.61,1.105c0.277,0.012 0.55,-0.008 0.811,-0.063c1.502,-0.312 2.43,-2.95 2.486,-4.218c0.017,-0.336 -0.11,-0.632 -0.358,-0.833z"/>
     <path id="svg_44" fill="#FFFFFF" d="m218.048,39.292c0,0 0.115,0.034 0.318,0.094c0.201,0.06 0.499,0.124 0.841,0.165c0.341,0.038 0.752,-0.017 0.831,-0.289c0.06,-0.15 0.059,-0.34 -0.024,-0.532c-0.044,-0.109 -0.219,-0.273 -0.391,-0.381c-0.364,-0.235 -0.842,-0.345 -1.278,-0.383c-0.22,-0.01 -0.434,-0.028 -0.638,-0.014c-0.202,0.015 -0.396,0.035 -0.563,0.086c-0.173,0.039 -0.32,0.104 -0.446,0.169c-0.124,0.071 -0.22,0.15 -0.279,0.235c-0.081,0.072 -0.089,0.16 -0.119,0.209c-0.023,0.054 -0.036,0.083 -0.036,0.083c0,0.003 -0.003,0.004 -0.005,0.004c-0.002,0 -0.003,-0.003 -0.004,-0.005c0,0 0.005,-0.031 0.015,-0.088c0.018,-0.054 0.003,-0.157 0.073,-0.249c0.049,-0.107 0.135,-0.215 0.26,-0.321c0.123,-0.098 0.276,-0.208 0.46,-0.271c0.362,-0.145 0.814,-0.242 1.302,-0.236c0.244,0.008 0.496,0.035 0.751,0.084c0.253,0.06 0.511,0.139 0.757,0.273c0.242,0.153 0.474,0.313 0.618,0.663c0.099,0.253 0.126,0.579 0.009,0.859c-0.103,0.307 -0.422,0.504 -0.674,0.54c-0.258,0.049 -0.478,0.017 -0.677,-0.009c-0.778,-0.161 -1.208,-0.443 -1.208,-0.443c-0.063,-0.039 -0.082,-0.121 -0.043,-0.183c0.03,-0.054 0.095,-0.075 0.15,-0.06z"/>
    </g>
   </g>
   <g id="svg_45">
    <path id="svg_46" fill="#434040" d="m286.206,144.533c-0.27,0 -0.491,-0.213 -0.5,-0.484c-0.071,-2.28 1.469,-8.503 1.534,-8.767c0.066,-0.267 0.332,-0.429 0.606,-0.365c0.268,0.067 0.431,0.338 0.364,0.606c-0.016,0.063 -1.572,6.352 -1.505,8.494c0.009,0.276 -0.208,0.507 -0.484,0.515c-0.004,0.001 -0.01,0.001 -0.015,0.001z"/>
    <g id="svg_47">
     <path id="svg_48" fill="#434040" d="m318.145,145.406c-0.007,0 -0.014,0 -0.021,-0.001c-0.275,-0.012 -0.49,-0.245 -0.479,-0.521c0.092,-2.143 -1.399,-8.447 -1.414,-8.51c-0.064,-0.268 0.103,-0.539 0.371,-0.602c0.264,-0.064 0.537,0.102 0.602,0.371c0.063,0.265 1.538,6.504 1.441,8.785c-0.011,0.268 -0.233,0.478 -0.5,0.478z"/>
     <path id="svg_49" fill="#434040" d="m283.982,142.589c-1.205,0 -2.01,0.455 -2.209,1.247c-0.066,0.265 -0.007,0.533 0.167,0.755c0.57,0.731 2.236,0.768 2.564,0.768c0.78,0 2.127,-0.129 2.381,-0.997c0.081,-0.274 0.023,-0.562 -0.163,-0.811c-0.473,-0.631 -1.737,-0.962 -2.74,-0.962z"/>
     <path id="svg_50" fill="#434040" d="m322.581,144.756c-0.193,-0.809 -1.012,-1.272 -2.245,-1.272c-0.99,0 -2.237,0.323 -2.704,0.94c-0.186,0.245 -0.245,0.531 -0.168,0.802c0.259,0.924 1.794,1.024 2.441,1.024c0.45,0 1.959,-0.054 2.505,-0.745c0.173,-0.22 0.234,-0.486 0.171,-0.749z"/>
    </g>
    <g id="svg_51">
     <path id="svg_52" fill="#83087D" d="m334.077,126.002c-6.5,7.19 -16.38,12.04 -30.09,12.31c-29.721,0.59 -51.101,-29.21 -40.98,-40.39c10.57,-11.69 14.9,-0.5 30.53,1.69l-0.04,0.25c0,0 -4.01,4.85 -0.771,9.13c3.37,4.45 10.35,-0.52 10.35,-0.52s-3.141,8.24 0.91,11.65c6.029,5.09 12.79,-3.22 13.189,-3.71c-0.279,0.67 -4.13,10.12 2.221,12.9c7.96,3.5 14.63,-3.36 14.63,-3.36l0.051,0.05z"/>
     <path id="svg_53" fill="#A02294" d="m304.117,98.631c0,0 -1.45,6.48 4.27,8.8c4.63,1.88 9.5,-3.98 9.83,-4.38c-0.1,0.42 -2.05,8.74 4.29,10.079c6.08,1.29 8.54,-6.73 8.54,-6.73s1.02,12.72 9.99,8.27c-1.62,4.13 -3.92,7.98 -6.96,11.33l-0.05,-0.05c0,0 -6.67,6.86 -14.63,3.36c-6.351,-2.78 -2.5,-12.23 -2.221,-12.9c-0.4,0.49 -7.16,8.8 -13.189,3.71c-4.051,-3.41 -0.91,-11.65 -0.91,-11.65s-6.98,4.97 -10.35,0.52c-3.239,-4.28 0.771,-9.13 0.771,-9.13l0.04,-0.25c0.74,0.11 1.5,0.191 2.29,0.25c3.28,0.25 6,-0.3 8.21,-1.39l0.079,0.161z"/>
     <path id="svg_54" fill="#C12786" d="m343.037,89.131c0.39,1.81 0.68,3.72 0.83,5.74c0.5,6.71 -0.391,13.57 -2.83,19.8c-8.97,4.45 -9.99,-8.27 -9.99,-8.27s-2.46,8.02 -8.54,6.73c-6.34,-1.34 -4.39,-9.66 -4.29,-10.079c-0.33,0.4 -5.2,6.26 -9.83,4.38c-5.72,-2.32 -4.27,-8.8 -4.27,-8.8l-0.08,-0.16c2.77,-1.36 4.73,-3.56 5.97,-6.11c0.26,0.92 1.49,4.65 4.21,5.1c3.11,0.52 5.05,-6.86 5.05,-6.86s1.94,7.25 6.471,7.12c4.319,-0.12 5.18,-7.38 5.18,-7.38s2.46,7.25 6.87,6.99c4.54,-0.26 5.05,-8.15 5.05,-8.15l0.199,-0.051z"/>
     <path id="svg_55" fill="#D05E9A" d="m338.567,77.572c1.869,3.22 3.5,7.06 4.47,11.56l-0.2,0.05c0,0 -0.51,7.89 -5.05,8.15c-4.41,0.26 -6.87,-6.99 -6.87,-6.99s-0.86,7.26 -5.18,7.38c-4.53,0.13 -6.471,-7.12 -6.471,-7.12s-1.94,7.38 -5.05,6.86c-2.72,-0.45 -3.95,-4.18 -4.21,-5.1c1.91,-3.88 2.15,-8.55 1.03,-12.24c0.399,0.49 2.89,3.33 5.64,2.84c3.63,-0.65 3.88,-6.34 3.88,-6.34s2.851,6.08 6.74,5.05c3.88,-1.04 3.11,-6.74 3.11,-6.74s5.17,5.83 8.02,2.72l0.141,-0.08z"/>
     <path id="svg_56" fill="#DB7FB3" d="m338.567,77.572l-0.141,0.08c-2.85,3.11 -8.02,-2.72 -8.02,-2.72s0.77,5.7 -3.11,6.74c-3.89,1.03 -6.74,-5.05 -6.74,-5.05s-0.25,5.69 -3.88,6.34c-2.75,0.49 -5.24,-2.35 -5.64,-2.84c-0.3,-1.02 -0.71,-1.96 -1.22,-2.79c-6.41,-10.49 -20.591,-5.83 -20.98,-12.63c-0.15,-2.7 1.59,-4.29 3.84,-5.5l0.181,0.33c0,0 0.159,5.7 4.27,6.73c4.11,1.02 6.86,-5.31 6.86,-5.31s1.149,6.48 5.31,6.73c4.16,0.25 6.21,-5.95 6.21,-5.95s1.92,6.85 5.69,7.08c3.77,0.22 5.51,-4.11 5.51,-4.11s6.8,4.12 11.86,12.87z"/>
     <path id="svg_57" fill="#E5A1CF" d="m335.147,43.072c1.96,12.91 -8.44,21.63 -8.44,21.63s-1.74,4.33 -5.51,4.11c-3.771,-0.23 -5.69,-7.08 -5.69,-7.08s-2.05,6.2 -6.21,5.95c-4.16,-0.25 -5.31,-6.73 -5.31,-6.73s-2.75,6.33 -6.86,5.31c-4.11,-1.03 -4.27,-6.73 -4.27,-6.73l-0.181,-0.33c4.19,-2.26 10.15,-3.23 9.021,-7.75c0.77,1.54 2.38,3.76 5.14,3.15c4.14,-0.9 4.4,-6.08 4.4,-6.08s1.81,5.31 5.699,4.53c3.881,-0.78 4.921,-6.86 4.921,-6.86s2.79,5.6 6.989,5.31c5.57,-0.39 6.221,-8.42 6.221,-8.42l0.08,-0.01z"/>
     <path id="svg_58" fill="#B997C1" d="m335.147,43.072l-0.08,0.01c0,0 -0.65,8.03 -6.221,8.42c-4.199,0.29 -6.989,-5.31 -6.989,-5.31s-1.04,6.08 -4.921,6.86c-3.89,0.78 -5.699,-4.53 -5.699,-4.53s-0.261,5.18 -4.4,6.08c-2.76,0.61 -4.37,-1.61 -5.14,-3.15c-0.011,-0.05 -0.03,-0.1 -0.04,-0.15c-3.5,-12.43 -28.94,-0.58 -30.3,-13.01c-1.49,-13.68 15.54,-19.42 27.19,-19.62c11.66,-0.19 31.66,6.8 35.93,21.37c0.31,1.03 0.53,2.04 0.67,3.03z"/>
    </g>
    <path id="svg_59" fill="#434040" d="m288.132,28.092c0,0 0.024,0.136 0.068,0.373c0.041,0.239 0.132,0.577 0.251,0.961c0.063,0.191 0.141,0.394 0.242,0.59c0.104,0.193 0.217,0.393 0.358,0.555c0.134,0.177 0.307,0.296 0.484,0.396c0.185,0.076 0.405,0.126 0.605,0.123c0.338,0.008 0.47,-0.021 0.666,-0.094c0.199,-0.065 0.362,-0.196 0.506,-0.348c0.29,-0.304 0.487,-0.728 0.596,-1.109c0.112,-0.383 0.183,-0.724 0.212,-0.962c0.031,-0.236 0.049,-0.371 0.049,-0.371l0.002,-0.016c0.018,-0.145 0.151,-0.248 0.297,-0.229c0.117,0.015 0.207,0.105 0.227,0.216c0.001,0 0.029,0.159 0.043,0.425c0.006,0.266 0.022,0.651 -0.061,1.116c-0.09,0.457 -0.229,1.029 -0.661,1.546c-0.215,0.25 -0.498,0.49 -0.837,0.622c-0.324,0.155 -0.781,0.206 -1.02,0.2c-0.746,0.024 -1.472,-0.396 -1.845,-0.931c-0.209,-0.254 -0.329,-0.533 -0.428,-0.792c-0.098,-0.261 -0.159,-0.509 -0.207,-0.738c-0.168,-0.916 -0.075,-1.528 -0.075,-1.528c0.023,-0.146 0.158,-0.246 0.305,-0.224c0.115,0.02 0.202,0.111 0.223,0.219z"/>
    <path id="svg_60" fill="#434040" d="m303.767,28.481c0,0 0.025,0.14 0.069,0.383c0.042,0.245 0.135,0.591 0.26,0.985c0.065,0.195 0.145,0.404 0.252,0.601c0.102,0.204 0.236,0.388 0.376,0.559c0.147,0.164 0.315,0.299 0.513,0.372c0.097,0.041 0.197,0.075 0.309,0.081c0.037,0.004 0.147,0.026 0.123,0.019l0.223,-0.005c0.174,0.011 0.259,-0.023 0.334,-0.044c0.086,-0.002 0.176,-0.069 0.268,-0.106c0.175,-0.1 0.321,-0.253 0.438,-0.443c0.236,-0.378 0.377,-0.846 0.445,-1.253c0.07,-0.41 0.113,-0.768 0.121,-1.017c0.011,-0.247 0.018,-0.388 0.018,-0.388l0.001,-0.012c0.007,-0.146 0.131,-0.26 0.277,-0.253c0.12,0.006 0.218,0.09 0.245,0.202c0,0 0.039,0.158 0.075,0.426c0.031,0.269 0.077,0.658 0.046,1.133c-0.04,0.471 -0.103,1.049 -0.426,1.641c-0.163,0.291 -0.408,0.58 -0.733,0.785c-0.17,0.09 -0.327,0.198 -0.54,0.238c-0.211,0.059 -0.414,0.094 -0.54,0.088l-0.223,0.005c-0.173,0 -0.207,-0.027 -0.317,-0.041c-0.186,-0.024 -0.362,-0.086 -0.534,-0.166c-0.346,-0.15 -0.628,-0.397 -0.84,-0.655c-0.426,-0.526 -0.572,-1.101 -0.68,-1.562c-0.181,-0.939 -0.086,-1.566 -0.086,-1.566c0.022,-0.146 0.158,-0.246 0.305,-0.224c0.113,0.017 0.2,0.108 0.221,0.217z"/>
    <path id="svg_61" fill="#E9A8C1" d="m301.754,35.67c0,0 0.195,5.341 -0.874,7.089c-1.067,1.748 -4.467,1.553 -6.02,0c-1.695,-1.697 -1.068,-7.284 -1.068,-7.284s6.111,0.847 7.962,0.195z"/>
    <path id="svg_62" fill="#E279A4" d="m298.133,35.581c0,0 0.066,0.306 0.105,0.763c0.047,0.458 0.046,1.065 0.032,1.672c-0.022,0.303 -0.045,0.606 -0.066,0.891c-0.024,0.284 -0.074,0.548 -0.104,0.775c-0.076,0.453 -0.161,0.754 -0.161,0.754c-0.038,0.145 -0.186,0.231 -0.331,0.193c-0.102,-0.027 -0.175,-0.113 -0.196,-0.208c0,0 -0.061,-0.306 -0.101,-0.763c-0.011,-0.229 -0.039,-0.495 -0.041,-0.78c0.002,-0.285 0.003,-0.589 0.005,-0.893c0.035,-0.606 0.083,-1.213 0.166,-1.666c0.074,-0.454 0.165,-0.754 0.165,-0.754c0.041,-0.145 0.19,-0.229 0.335,-0.188c0.098,0.028 0.169,0.111 0.192,0.204z"/>
    <g id="svg_63">
     <path id="svg_64" fill="#434040" d="m284.395,36.277c-0.136,0 -0.272,-0.055 -0.37,-0.164c-0.185,-0.205 -0.171,-0.521 0.034,-0.707c2.33,-2.118 0.568,-4.454 0.492,-4.552c-0.168,-0.218 -0.13,-0.532 0.088,-0.701c0.218,-0.169 0.53,-0.132 0.7,0.085c0.849,1.081 1.813,3.708 -0.608,5.908c-0.096,0.088 -0.216,0.131 -0.336,0.131z"/>
     <path id="svg_65" fill="#434040" d="m300.466,36.23c-7.433,0 -14.5,-2.563 -14.907,-2.713c-0.259,-0.096 -0.392,-0.383 -0.296,-0.642c0.096,-0.259 0.386,-0.392 0.642,-0.296c0.136,0.049 13.622,4.938 22.653,1.269c0.256,-0.104 0.548,0.019 0.651,0.275c0.104,0.255 -0.019,0.547 -0.274,0.651c-2.631,1.069 -5.579,1.456 -8.469,1.456z"/>
     <path id="svg_66" fill="#434040" d="m310.273,37.389c-0.144,0 -0.286,-0.062 -0.385,-0.181c-1.54,-1.856 -1.491,-3.406 -1.179,-4.379c0.342,-1.062 1.065,-1.671 1.096,-1.696c0.213,-0.176 0.528,-0.147 0.704,0.066c0.176,0.212 0.147,0.526 -0.065,0.703c-0.093,0.079 -2.119,1.856 0.213,4.668c0.177,0.213 0.147,0.528 -0.065,0.704c-0.093,0.078 -0.206,0.115 -0.319,0.115z"/>
    </g>
   </g>
   <g id="svg_67">
    <path id="svg_68" fill="#434040" d="m413.783,154.313c-0.269,0 -0.491,-0.213 -0.5,-0.484c-0.082,-2.566 1.655,-9.585 1.729,-9.883c0.066,-0.268 0.333,-0.429 0.606,-0.365c0.268,0.067 0.431,0.338 0.364,0.606c-0.018,0.072 -1.778,7.181 -1.7,9.609c0.009,0.276 -0.208,0.507 -0.484,0.516c-0.004,0.001 -0.01,0.001 -0.015,0.001z"/>
    <g id="svg_69">
     <path id="svg_70" fill="#434040" d="m429.952,156.38c-0.209,0 -0.404,-0.132 -0.475,-0.341c-0.814,-2.435 -1.162,-9.658 -1.176,-9.964c-0.014,-0.276 0.199,-0.51 0.475,-0.523c0.281,-0.013 0.511,0.2 0.522,0.476c0.004,0.074 0.356,7.39 1.127,9.694c0.087,0.262 -0.054,0.545 -0.316,0.633c-0.05,0.017 -0.104,0.025 -0.157,0.025z"/>
     <path id="svg_71" fill="#434040" d="m411.27,152.246c-1.328,0 -2.214,0.496 -2.432,1.36c-0.069,0.279 -0.007,0.563 0.177,0.797c0.626,0.802 2.48,0.843 2.847,0.843c0.695,0 2.341,-0.105 2.627,-1.08c0.085,-0.289 0.022,-0.594 -0.175,-0.857c-0.517,-0.691 -1.954,-1.063 -3.044,-1.063z"/>
     <path id="svg_72" fill="#434040" d="m428.739,154.859c-1.046,0 -2.414,0.327 -3.113,1.059c-0.326,0.341 -0.488,0.749 -0.469,1.182c0.014,0.3 0.192,0.997 1.56,0.997c1.154,0 2.886,-0.498 3.622,-1.238c0.261,-0.262 0.392,-0.545 0.391,-0.842c-0.004,-0.725 -0.748,-1.158 -1.991,-1.158z"/>
    </g>
    <g id="svg_73">
     <path id="svg_74" fill="#F48EB8" d="m412.255,26.879c-1.698,-2.669 -17.254,-5.264 -22.519,-1.462c-5.263,3.801 -23.103,58.487 -14.329,65.799c8.773,7.312 42.404,12.868 42.404,12.868s-9.943,34.509 -7.311,37.433c2.632,2.924 21.64,7.895 24.271,4.387c2.633,-3.509 12.576,-38.018 12.576,-38.018s10.236,4.094 14.037,0.585c3.802,-3.51 8.344,-20.642 5.922,-23.469c-2.633,-3.071 -14.037,-6.142 -14.037,-6.142s10.967,-38.164 8.334,-41.453c-2.889,-3.612 -19.738,-9.431 -25.661,-5.703c-3.349,2.108 -8.48,35.824 -10.819,36.409c-2.34,0.585 -20.472,-3.217 -20.765,-7.018c-0.293,-3.802 9.432,-31.803 7.897,-34.216z"/>
     <path id="svg_75" fill="#434040" d="m406.702,75.28c0.001,0.004 0.039,0.057 0.096,0.12c0.07,0.083 0.172,0.205 0.302,0.36c0.266,0.308 0.656,0.741 1.153,1.194c0.501,0.452 1.11,0.916 1.804,1.304c0.35,0.188 0.714,0.37 1.101,0.513c0.373,0.149 0.817,0.262 1.181,0.354c0.242,0.046 0.523,0.115 0.732,0.142c0.195,0.021 0.39,0.034 0.582,0.07c0.423,0.033 0.841,0.049 1.245,0.024c0.403,-0.021 0.795,-0.06 1.164,-0.13c0.366,-0.075 0.718,-0.15 1.037,-0.251c0.315,-0.107 0.611,-0.202 0.866,-0.311c0.25,-0.113 0.476,-0.206 0.652,-0.298c0.175,-0.091 0.311,-0.163 0.405,-0.212c0.09,-0.053 0.121,-0.066 0.117,-0.063l0.294,-0.1c0.399,-0.137 0.833,0.077 0.97,0.476c0.086,0.251 0.03,0.519 -0.119,0.715c0,0 -0.052,0.067 -0.148,0.192c-0.09,0.11 -0.218,0.271 -0.396,0.455c-0.357,0.367 -0.907,0.848 -1.673,1.286c-0.761,0.441 -1.742,0.822 -2.847,1.011c-0.554,0.085 -1.129,0.119 -1.717,0.124c-0.311,-0.012 -0.623,-0.047 -0.937,-0.076c-0.297,-0.035 -0.517,-0.085 -0.78,-0.127c-0.638,-0.118 -1.188,-0.286 -1.744,-0.53c-0.553,-0.223 -1.073,-0.509 -1.53,-0.842c-0.934,-0.644 -1.641,-1.43 -2.13,-2.154c-0.494,-0.724 -0.78,-1.391 -0.94,-1.871c-0.155,-0.462 -0.214,-0.813 -0.21,-0.793c-0.16,-0.406 0.039,-0.865 0.444,-1.026c0.406,-0.162 0.866,0.037 1.026,0.444z"/>
     <g id="svg_76">
      <path id="svg_77" fill="#434040" d="m399.963,71.705c0.405,-1.73 -0.672,-3.459 -2.402,-3.863c-1.729,-0.403 -3.459,0.673 -3.862,2.403c-0.403,1.73 0.672,3.459 2.402,3.862c1.729,0.403 3.459,-0.673 3.862,-2.402z"/>
      <path id="svg_78" fill="#434040" d="m394.657,70.755c-0.072,0 -0.147,-0.01 -0.22,-0.033c-1.575,-0.483 -2.691,-1.827 -2.738,-1.884c-0.263,-0.32 -0.216,-0.793 0.104,-1.056c0.32,-0.262 0.792,-0.216 1.056,0.104c0.008,0.009 0.883,1.053 2.018,1.401c0.396,0.122 0.619,0.541 0.497,0.937c-0.099,0.324 -0.396,0.531 -0.717,0.531z"/>
      <path id="svg_79" fill="#434040" d="m396.324,69.945c-0.158,0 -0.318,-0.05 -0.454,-0.154c-1.116,-0.852 -1.784,-3.641 -1.907,-4.191c-0.09,-0.404 0.165,-0.805 0.569,-0.895c0.398,-0.09 0.805,0.163 0.896,0.568c0.297,1.33 0.898,2.979 1.353,3.325c0.329,0.252 0.393,0.722 0.141,1.051c-0.149,0.195 -0.371,0.296 -0.598,0.296z"/>
      <path id="svg_80" fill="#434040" d="m397.795,69.922c-0.332,0 -0.636,-0.222 -0.725,-0.559c-0.331,-1.256 0.565,-3.591 0.749,-4.046c0.153,-0.384 0.588,-0.57 0.975,-0.416c0.385,0.154 0.571,0.591 0.417,0.976c-0.367,0.915 -0.841,2.533 -0.689,3.104c0.106,0.4 -0.134,0.81 -0.534,0.916c-0.065,0.018 -0.13,0.025 -0.193,0.025z"/>
     </g>
     <g id="svg_81">
      <path id="svg_82" fill="#434040" d="m425.259,77.602c0.403,-1.73 2.133,-2.806 3.863,-2.403c1.73,0.403 2.805,2.133 2.403,3.863c-0.404,1.73 -2.134,2.805 -3.865,2.402c-1.728,-0.402 -2.804,-2.132 -2.401,-3.862z"/>
      <path id="svg_83" fill="#434040" d="m431.403,79.224c-0.247,0 -0.5,-0.018 -0.754,-0.059c-0.409,-0.066 -0.686,-0.452 -0.62,-0.861c0.066,-0.409 0.458,-0.691 0.86,-0.62c1.173,0.193 2.418,-0.359 2.431,-0.365c0.378,-0.168 0.821,-0.001 0.991,0.376c0.17,0.377 0.004,0.82 -0.372,0.991c-0.056,0.025 -1.202,0.538 -2.536,0.538z"/>
      <path id="svg_84" fill="#434040" d="m429.631,77.71c-0.351,0 -0.665,-0.248 -0.735,-0.605c-0.079,-0.407 0.186,-0.801 0.592,-0.881c0.563,-0.111 1.831,-1.324 2.685,-2.385c0.259,-0.323 0.732,-0.372 1.054,-0.114c0.323,0.26 0.374,0.732 0.114,1.055c-0.353,0.439 -2.185,2.645 -3.563,2.916c-0.051,0.01 -0.099,0.014 -0.147,0.014z"/>
      <path id="svg_85" fill="#434040" d="m428.323,77.039c-0.175,0 -0.35,-0.061 -0.492,-0.184c-0.313,-0.271 -0.346,-0.745 -0.074,-1.058c0.388,-0.445 0.68,-2.106 0.755,-3.089c0.031,-0.414 0.391,-0.729 0.806,-0.69c0.412,0.031 0.722,0.392 0.69,0.805c-0.037,0.489 -0.267,2.978 -1.118,3.959c-0.149,0.17 -0.358,0.257 -0.567,0.257z"/>
     </g>
     <path id="svg_86" fill="#FFEF00" d="m459.923,39.6c0,-1.373 -1.113,-2.486 -2.486,-2.486c-1.372,0 -2.485,1.113 -2.485,2.486c0,1.373 1.113,2.486 2.485,2.486c1.373,0 2.486,-1.113 2.486,-2.486z"/>
     <path id="svg_87" fill="#F464A6" d="m453.599,36.639c0,-0.885 -11.953,-5.703 -13.27,-1.536c-1.316,4.168 13.27,3.4 13.27,1.536z"/>
     <path id="svg_88" fill="#E84D9B" d="m453.379,40.258c-0.188,-0.453 -13.05,1.425 -13.05,5.922c0,4.496 13.599,-4.606 13.05,-5.922z"/>
     <path id="svg_89" fill="#F464A6" d="m455.023,42.342c-0.854,-0.053 -9.7,8.701 -6.579,10.309c3.619,1.864 8.335,-10.199 6.579,-10.309z"/>
     <path id="svg_90" fill="#E84D9B" d="m457.876,43.767c-0.549,0 -5.375,11.077 -1.864,11.954c2.48,0.62 3.069,-11.954 1.864,-11.954z"/>
     <path id="svg_91" fill="#FFEBF4" d="m409.184,27.171c-0.203,-0.389 -2.197,7.545 -6.944,10.381c-5.264,3.144 -3.729,7.896 0.511,6.288c4.854,-1.84 8.187,-13.305 6.433,-16.669z"/>
     <path id="svg_92" fill="#B75795" d="m386.958,40.113c-0.669,0.084 2.56,-13.087 9.14,-11.917c5.222,0.928 -1.243,5.191 -3.802,7.604c-2.878,2.712 -4.168,4.167 -5.338,4.313z"/>
     <path id="svg_93" fill="#FFEF00" d="m420.348,144.304c-4.131,-0.987 -4.508,-4.886 0.181,-5.928c3.232,-0.719 5.838,1.887 5.567,4.491c-0.208,2.008 -1.605,2.428 -5.748,1.437z"/>
     <path id="svg_94" fill="#F464A6" d="m420.186,136.802c0.549,0.391 5.411,-22.703 -0.365,-21.496c-2.739,0.573 -4.241,18.206 0.365,21.496z"/>
     <path id="svg_95" fill="#E84D9B" d="m422.783,136.911c-0.422,1.546 14.584,-22.773 7.859,-25.186c-3.942,-1.414 -4.533,4.387 -5.338,11.917c-0.776,7.27 -2.302,12.464 -2.521,13.269z"/>
     <path id="svg_96" fill="#F464A6" d="m424.62,137.603c-0.358,0.342 4.632,-0.741 8.542,-3.227c3.448,-2.191 4.713,-5.91 2.774,-7.733c-1.883,-1.77 -3.983,1.248 -6.086,4.807c-2.028,3.435 -4.878,5.817 -5.23,6.153z"/>
     <path id="svg_97" fill="#E84D9B" d="m426.849,140.137c-0.306,0.089 2.845,0.938 5.79,0.676c2.598,-0.23 4.406,-1.967 3.843,-3.57c-0.549,-1.557 -2.625,-0.462 -4.862,0.939c-2.16,1.354 -4.475,1.867 -4.771,1.955z"/>
     <path id="svg_98" fill="#E84D9B" d="m417.854,138.212c0.142,0.283 -2.623,-1.445 -4.435,-3.784c-1.599,-2.061 -1.556,-4.569 0.004,-5.246c1.514,-0.657 2.124,1.609 2.617,4.202c0.478,2.504 1.678,4.552 1.814,4.828z"/>
     <path id="svg_99" fill="#FFBDDB" d="m396.463,79.957c0,2.665 -2.161,4.825 -4.825,4.825s-4.826,-2.161 -4.826,-4.825c0,-2.665 2.162,-4.826 4.826,-4.826s4.825,2.162 4.825,4.826z"/>
     <path id="svg_100" fill="#FFBDDB" d="m436.161,90.266c0,2.664 -2.16,4.825 -4.824,4.825c-2.665,0 -4.826,-2.161 -4.826,-4.825c0,-2.664 2.161,-4.825 4.826,-4.825c2.664,0 4.824,2.161 4.824,4.825z"/>
     <path id="svg_101" fill="#FFEF00" d="m381.67,47.621c1.863,-1.902 5.814,-5.593 7.896,-3.071c2.475,2.995 -4.825,5.703 -4.825,5.703s8.335,-1.462 8.92,1.608c0.585,3.071 -8.335,3.655 -8.335,3.655s8.188,3.656 5.703,5.849c-2.485,2.193 -8.043,-1.9 -8.043,-1.9s3.775,5.461 0.22,5.593c-2.961,0.11 -4.172,-4.005 -4.277,-8.663c-0.048,-2.116 0.878,-6.872 2.741,-8.774z"/>
     <path id="svg_102" fill="#FFEBF4" d="m442.417,117.112c-1.028,0.827 -4.801,3.979 -6.262,1.916c-1.736,-2.45 4.044,-4.12 4.044,-4.12s-6.507,0.65 -6.783,-1.75c-0.275,-2.401 6.634,-2.341 6.634,-2.341s-6.102,-3.285 -4.061,-4.833c2.042,-1.548 6.091,1.925 6.091,1.925s-2.594,-4.489 0.149,-4.323c0.805,0.049 2.972,2.757 3.013,6.591c0.022,2.128 -0.834,5.333 -2.825,6.935z"/>
     <path id="svg_103" fill="#B75795" d="m467.701,91.719c0,0 -4.854,2.129 -6.535,-2.403c-1.683,-4.533 2.628,-6.649 2.628,-6.649c0,0 3.438,1.563 4.036,2.881c0.583,1.284 0.432,3.807 -0.129,6.171z"/>
     <path id="svg_104" fill="#F464A6" d="m459.776,84.205c0.556,-1.021 -8.712,-6.464 -9.941,-2.713c-1.231,3.751 9.388,3.728 9.941,2.713z"/>
     <path id="svg_105" fill="#E84D9B" d="m459.556,88.073c0.133,-1.273 -11.584,-2.862 -11.24,1.467c0.345,4.33 11.112,-0.203 11.24,-1.467z"/>
     <path id="svg_106" fill="#F464A6" d="m460.507,91.582c-0.591,-0.979 -9.807,4.196 -7.23,7.099c2.576,2.904 7.818,-6.127 7.23,-7.099z"/>
     <path id="svg_107" fill="#E84D9B" d="m464.31,93.336c-0.989,-0.575 -6.597,8.386 -2.941,9.697c3.652,1.314 3.922,-9.124 2.941,-9.697z"/>
     <path id="svg_108" fill="#FFEBF4" d="m375.188,78.569c-0.709,1.063 10.747,-6.289 6.142,-9.725c-1.657,-1.236 -2.988,1.598 -3.875,4.46c-0.952,3.071 -1.974,4.826 -2.267,5.265z"/>
     <path id="svg_109" fill="#B75795" d="m443.417,51.268c0.863,-0.944 -11.575,4.588 -7.541,8.683c1.451,1.474 3.195,-1.127 4.505,-3.822c1.404,-2.892 2.682,-4.471 3.036,-4.861z"/>
     <path id="svg_110" fill="#FFFFFF" d="m394.708,36.54c-1.685,0 -1.685,2.611 0,2.611c1.685,0 1.685,-2.611 0,-2.611z"/>
     <path id="svg_111" fill="#FFFFFF" d="m400.63,33.908c-1.685,0 -1.685,2.611 0,2.611s1.684,-2.611 0,-2.611z"/>
     <path id="svg_112" fill="#FFFFFF" d="m404.358,28.424c-1.685,0 -1.685,2.611 0,2.611c1.686,0.001 1.686,-2.611 0,-2.611z"/>
     <path id="svg_113" fill="#FFFFFF" d="m454.366,57.815c-1.685,0 -1.685,2.612 0,2.612s1.685,-2.612 0,-2.612z"/>
     <path id="svg_114" fill="#FFFFFF" d="m453.05,63.298c-1.684,0 -1.684,2.612 0,2.612c1.685,0 1.685,-2.612 0,-2.612z"/>
     <path id="svg_115" fill="#FFFFFF" d="m450.95,68.773c-1.686,0 -1.686,2.612 0,2.612c1.683,0 1.683,-2.612 0,-2.612z"/>
     <path id="svg_116" fill="#FFFFFF" d="m376.95,80.773c-1.686,0 -1.686,2.612 0,2.612c1.683,0 1.683,-2.612 0,-2.612z"/>
     <path id="svg_117" fill="#FFFFFF" d="m377.2,86.023c-1.686,0 -1.686,2.612 0,2.612c1.683,0 1.683,-2.612 0,-2.612z"/>
     <path id="svg_118" fill="#FFFFFF" d="m380.95,83.273c-1.686,0 -1.686,2.612 0,2.612c1.683,0 1.683,-2.612 0,-2.612z"/>
    </g>
   </g>
   <g id="svg_119">
    <g id="svg_120">
     <path id="svg_121" fill="#434040" d="m155.106,208.717c-0.205,0 -0.398,-0.128 -0.471,-0.332c-0.093,-0.26 0.043,-0.546 0.303,-0.639c0.521,-0.186 12.742,-4.733 11.244,-19.285c-0.028,-0.275 0.172,-0.52 0.446,-0.549c0.271,-0.03 0.52,0.171 0.549,0.446c1.58,15.346 -11.768,20.281 -11.903,20.33c-0.056,0.02 -0.112,0.029 -0.168,0.029z"/>
     <path id="svg_122" fill="#434040" d="m167.013,189.078c-1.436,1.104 -5.09,-0.254 -4.896,-2.003c0.111,-1.002 1.967,0.223 1.967,0.223s-1.188,-3.895 -0.186,-4.563c1.001,-0.667 1.446,3.561 1.446,3.561s0.445,-4.006 1.558,-3.895c1.113,0.111 -0.111,4.006 -0.111,4.006s1.558,-2.003 2.337,-1.446c0.778,0.556 -0.668,3.004 -2.115,4.117z"/>
    </g>
    <g id="svg_123">
     <path id="svg_124" fill="#434040" d="m154.952,292.451c-0.257,0 -0.475,-0.196 -0.498,-0.457c-0.362,-4.168 -1.823,-9.424 -1.837,-9.477c-0.074,-0.266 0.081,-0.542 0.347,-0.616c0.265,-0.073 0.542,0.081 0.616,0.347c0.015,0.054 1.501,5.398 1.871,9.66c0.024,0.274 -0.18,0.518 -0.455,0.541c-0.015,0.001 -0.03,0.002 -0.044,0.002z"/>
     <path id="svg_125" fill="#434040" d="m159.669,290.088c-0.381,-0.634 -0.966,-0.969 -1.691,-0.969c-1.16,0 -2.407,0.866 -3.075,1.671c-0.409,0.493 -0.581,0.934 -0.511,1.309c0.062,0.33 0.338,0.724 1.298,0.724c1.218,0 3.429,-0.653 3.986,-1.639c0.204,-0.36 0.201,-0.749 -0.007,-1.096z"/>
    </g>
    <path id="svg_126" fill="#FFE444" d="m154.511,192.677c3.224,-1.905 2.523,-18.843 -4.154,-19.288c-6.676,-0.445 -43.029,-0.891 -47.628,6.973c-4.599,7.864 -5.933,32.938 5.343,35.312c11.275,2.374 27.003,-0.89 34.718,13.054c7.637,13.804 -4.155,31.229 -19.882,24.924c-10.969,-4.397 -8.605,-10.682 -14.836,-11.276c-6.232,-0.593 -15.179,7.696 -10.683,20.473c3.253,9.248 13.103,20.629 32.345,22.85c15.43,1.781 31.454,-5.045 39.169,-16.023c17.59,-25.029 2.252,-53.872 -9.57,-60.678c-14.688,-8.458 -26.104,-5.012 -27.523,-7.567c-0.742,-1.335 -0.741,-5.49 2.227,-5.787c3.547,-0.354 17.211,-1.039 20.474,-2.967z"/>
    <g id="svg_127">
     <path id="svg_128" fill="#FFE444" d="m109.354,176.608l9.63,-2.22c-0.29,1.83 -6.18,6.19 -7.5,5.97c-0.73,-0.11 -1.77,-1.79 -2.14,-3.74l0.01,-0.01z"/>
     <path id="svg_129" fill="#EF3F58" d="m109.343,176.618c0.37,1.95 1.41,3.63 2.14,3.74c1.32,0.22 7.21,-4.14 7.5,-5.97l0.02,-0.12c0,-0.08 -0.01,-0.15 -0.03,-0.21c-0.46,-1.4 -4.89,-5.12 -8.16,-2.52c-1.56,1.24 -1.8,3.27 -1.47,5.07c0,0.01 0,0.01 0,0.01zm-6.909,-9.76c11.42,-8.6 24.33,5.42 23,6.68c-14.25,13.5 -24.93,18.4 -24.93,18.4s-0.61,-1.06 -1.34,-2.78c-2.13,-5.07 -5.25,-15.87 3.27,-22.3z"/>
     <path id="svg_130" fill="#CE2E4D" d="m109.354,176.608l-0.01,0.01c0,0 0,0 0,-0.01c-0.001,0 -0.001,0 0.01,0z"/>
     <path id="svg_131" fill="#CE2E4D" d="m118.974,174.058c-0.46,-1.4 -4.89,-5.12 -8.16,-2.52c-1.56,1.24 -1.8,3.27 -1.47,5.07c0,0 0,0 0.01,0l9.63,-2.22c0.02,-0.04 0.02,-0.08 0.02,-0.12c-0.001,-0.08 -0.01,-0.15 -0.03,-0.21z"/>
     <path id="svg_132" fill="#CE2E4D" d="m125.434,173.538c0,0 2.3,3.3 -25.41,20.88c-8.16,5.18 -12.91,7.12 -13.58,5.57c-0.66,-1.56 12.43,-10.72 12.43,-10.72l0.29,-0.11c0.73,1.72 1.34,2.78 1.34,2.78s10.68,-4.9 24.93,-18.4z"/>
    </g>
    <path id="svg_133" fill="#434040" d="m129.322,184.996c0,0 0.069,0.176 0.215,0.5c0.138,0.319 0.379,0.761 0.702,1.236c0.165,0.234 0.352,0.48 0.575,0.697c0.214,0.228 0.471,0.419 0.74,0.583c0.271,0.166 0.578,0.254 0.89,0.335l0.494,0.044c0.172,-0.015 0.343,-0.031 0.516,-0.034l0.564,-0.117c0.185,-0.049 0.29,-0.115 0.442,-0.161c0.141,-0.063 0.283,-0.155 0.427,-0.226c0.127,-0.096 0.252,-0.193 0.372,-0.293c0.215,-0.227 0.422,-0.461 0.567,-0.733c0.15,-0.266 0.276,-0.541 0.359,-0.811c0.177,-0.538 0.266,-1.03 0.298,-1.373c0.038,-0.345 0.044,-0.531 0.044,-0.531l0.001,-0.013c0.008,-0.22 0.192,-0.392 0.412,-0.384c0.181,0.006 0.33,0.133 0.373,0.3c0,0 0.06,0.235 0.096,0.63c0.016,0.198 0.032,0.439 0.023,0.718c-0.004,0.279 -0.02,0.598 -0.093,0.943c-0.126,0.686 -0.422,1.525 -1.076,2.241c-0.17,0.167 -0.355,0.331 -0.547,0.487c-0.211,0.129 -0.409,0.278 -0.647,0.386c-0.239,0.094 -0.515,0.212 -0.736,0.271l-0.675,0.148c-0.249,0.022 -0.5,0.031 -0.748,0.042c-0.253,-0.019 -0.507,-0.052 -0.756,-0.085c-0.497,-0.118 -0.967,-0.312 -1.36,-0.583c-0.796,-0.537 -1.285,-1.256 -1.595,-1.872c-0.318,-0.621 -0.453,-1.175 -0.548,-1.556c-0.048,-0.192 -0.065,-0.345 -0.082,-0.454c-0.013,-0.107 -0.02,-0.164 -0.02,-0.164c-0.026,-0.218 0.13,-0.415 0.347,-0.441c0.184,-0.021 0.352,0.085 0.417,0.249l0.009,0.021z"/>
    <g id="svg_134">
     <path id="svg_135" fill="#434040" d="m123.502,295.029c-0.015,0 -0.029,-0.001 -0.044,-0.002c-0.275,-0.023 -0.478,-0.267 -0.455,-0.541c0.371,-4.27 2.43,-11.175 2.518,-11.467c0.079,-0.265 0.356,-0.418 0.622,-0.335c0.265,0.079 0.415,0.357 0.336,0.622c-0.021,0.07 -2.118,7.099 -2.479,11.266c-0.023,0.261 -0.241,0.457 -0.498,0.457z"/>
     <path id="svg_136" fill="#434040" d="m120.477,291.695c-0.725,0 -1.309,0.335 -1.691,0.969c-0.209,0.348 -0.211,0.736 -0.008,1.096c0.558,0.985 2.769,1.639 3.987,1.639l0.001,0c0.96,0 1.236,-0.393 1.298,-0.725c0.07,-0.374 -0.102,-0.814 -0.512,-1.308c-0.667,-0.805 -1.915,-1.671 -3.075,-1.671z"/>
    </g>
    <g id="svg_137">
     <path id="svg_138" fill="#434040" d="m120.386,232.343c-0.197,0 -0.383,-0.117 -0.462,-0.31c-4.966,-12.109 0.967,-18.238 1.222,-18.493c0.195,-0.195 0.51,-0.195 0.706,-0.001c0.196,0.194 0.196,0.511 0.002,0.707c-0.058,0.058 -5.704,5.947 -1.005,17.407c0.105,0.256 -0.017,0.548 -0.272,0.652c-0.063,0.026 -0.127,0.038 -0.191,0.038z"/>
     <path id="svg_139" fill="#434040" d="m122.167,231.695c-0.895,-0.139 -2.225,0.223 -2.522,1.149c-0.297,0.928 -0.588,3.669 -0.065,3.886c0.807,0.334 1.224,-2.17 1.224,-2.17s0.487,2.453 0.974,2.42c0.835,-0.056 0.334,-2.587 0.334,-2.587s1.484,1.697 1.892,1.475c0.408,-0.223 -1.085,-2.727 -1.085,-2.727s1.846,0.482 1.846,-0.223c-0.001,-0.704 -1.634,-1.075 -2.598,-1.223z"/>
    </g>
    <circle id="svg_140" fill="#434040" r="2.25" cy="185.748" cx="122.458"/>
    <circle id="svg_141" fill="#434040" r="2.25" cy="182.748" cx="142.333"/>
   </g>
   <g id="svg_142">
    <path id="svg_143" fill="#A3818F" d="m274.575,161.727c2.675,3.612 3.498,6.946 3.498,6.946l0.012,0.07c-1.504,0.181 -2.397,0.711 -2.397,0.711c-6.627,-13.423 -20.965,-13.969 -21.746,-13.993c11.97,-1.425 18.645,4.232 20.624,6.256c0.009,0.001 0.009,0.001 0.009,0.01z"/>
    <path id="svg_144" fill="#E16278" d="m283.483,169.449c5.12,2.67 6.287,13.988 4.454,17.653c-2.084,4.167 -7.75,5.167 -10,2.667c-4.97,-5.521 -3.704,-19.75 -2.094,-20.84c0,0 0.91,-0.5 2.42,-0.63c1.34,-0.11 3.15,0.07 5.22,1.15z"/>
    <path id="svg_145" fill="#C6546D" d="m275.103,169.352c0,0 4.293,-2.042 8.626,2.708s4.81,17.167 -1.751,18.896c-4.667,1.23 -4.708,-3.813 -4.708,-3.813s-5.25,-14.041 -2.167,-17.791z"/>
    <path id="svg_146" fill="#434040" d="m281.982,214.882c-0.24,0 -0.452,-0.174 -0.492,-0.419c-0.045,-0.273 0.14,-0.53 0.412,-0.574c0.045,-0.007 4.476,-0.757 7.148,-3.033c6.251,-5.325 5.522,-10.208 5.514,-10.257c-0.045,-0.271 0.138,-0.529 0.409,-0.576c0.265,-0.045 0.529,0.134 0.576,0.406c0.039,0.22 0.868,5.466 -5.851,11.189c-2.888,2.458 -7.441,3.226 -7.634,3.258c-0.027,0.004 -0.054,0.006 -0.082,0.006z"/>
    <path id="svg_147" fill="#434040" d="m292.635,196.594c-1.92,1.381 -0.829,5.175 2.467,4.597c3.297,-0.579 1.062,-7.134 -2.467,-4.597z"/>
    <g id="svg_148">
     <path id="svg_149" fill="#34BFAB" d="m295.06,224.171c9.157,16.019 7.303,49.039 -26.188,59.668c-33.489,10.639 -64.546,-20.969 -55.208,-69.681c9.338,-48.704 50.507,-47.926 60.067,-45.448c12.436,3.211 14.269,15.686 8.73,20.857c-5.616,5.232 -17,2.356 -27.534,6.865c-14.764,6.323 -11.94,15.553 -10.071,18.161c1.87,2.608 6.483,-2.391 17.66,-4.46c11.803,-2.18 25.29,1.356 32.544,14.038zm-17.548,16.623c-0.227,-6.717 -6.518,-11.947 -14.054,-11.692c-7.535,0.255 -13.458,5.899 -13.231,12.615c0.227,6.716 6.518,11.955 14.054,11.7c7.535,-0.255 13.458,-5.907 13.231,-12.623z"/>
    </g>
    <path id="svg_150" fill="#C9ADB6" d="m249.496,153.271c13.911,-2.262 21.316,3.371 25.07,8.447c-1.979,-2.025 -8.654,-7.682 -20.624,-6.256c-0.02,0.001 -0.029,0.001 -0.029,0.001c-0.857,0.099 -1.742,0.239 -2.657,0.42c-17.156,3.382 -21.582,22.803 -22.111,25.492c-0.133,-0.096 -0.276,-0.181 -0.418,-0.246c-0.386,-0.157 -0.871,-0.291 -1.443,-0.361c-0.442,-0.056 -0.943,-0.078 -1.463,-0.061l-0.005,-0.14c-0.001,0.001 -0.064,-23.441 23.68,-27.296z"/>
    <path id="svg_151" fill="#434040" d="m236.734,181.044c0,0 0.062,0.151 0.187,0.421c0.121,0.268 0.327,0.639 0.597,1.046c0.139,0.201 0.299,0.409 0.489,0.598c0.192,0.183 0.401,0.368 0.637,0.493c0.229,0.146 0.493,0.207 0.761,0.242c0.135,0.012 0.276,-0.012 0.415,-0.011c0.142,-0.03 0.282,-0.074 0.426,-0.097c0.052,-0.021 0.311,-0.12 0.418,-0.18c0.083,-0.086 0.184,-0.104 0.272,-0.22c0.195,-0.179 0.335,-0.422 0.441,-0.68c0.215,-0.518 0.296,-1.098 0.308,-1.594c0.013,-0.499 -0.002,-0.925 -0.032,-1.221c-0.03,-0.293 -0.046,-0.46 -0.046,-0.46l-0.001,-0.008c-0.015,-0.146 0.092,-0.276 0.238,-0.29c0.121,-0.012 0.232,0.059 0.274,0.167c0,0 0.268,0.689 0.356,1.798c0.025,0.551 0.033,1.225 -0.225,1.942c-0.132,0.352 -0.324,0.722 -0.628,1.024c-0.124,0.164 -0.356,0.294 -0.541,0.428c-0.2,0.103 -0.27,0.136 -0.542,0.244c-0.199,0.051 -0.4,0.092 -0.602,0.126c-0.211,0.002 -0.42,0.021 -0.627,-0.003c-0.414,-0.058 -0.821,-0.185 -1.145,-0.4c-0.343,-0.192 -0.597,-0.46 -0.812,-0.717c-0.214,-0.259 -0.379,-0.523 -0.517,-0.77c-0.524,-0.999 -0.612,-1.743 -0.612,-1.743l-0.001,-0.008c-0.017,-0.145 0.087,-0.277 0.233,-0.294c0.124,-0.01 0.235,0.059 0.279,0.167z"/>
    <path id="svg_152" fill="#434040" d="m261.791,174.629c0,0 0.062,0.151 0.188,0.421c0.12,0.268 0.327,0.639 0.597,1.046c0.14,0.201 0.3,0.409 0.489,0.598c0.193,0.183 0.401,0.368 0.638,0.493c0.229,0.145 0.493,0.207 0.761,0.242c0.136,0.012 0.276,-0.012 0.415,-0.011c0.142,-0.03 0.281,-0.074 0.426,-0.097c0.053,-0.02 0.312,-0.12 0.419,-0.179c0.083,-0.087 0.184,-0.104 0.272,-0.22c0.194,-0.179 0.335,-0.422 0.44,-0.68c0.215,-0.518 0.297,-1.098 0.309,-1.594c0.014,-0.498 -0.002,-0.925 -0.031,-1.22c-0.029,-0.293 -0.047,-0.46 -0.047,-0.46l0,-0.007c-0.015,-0.146 0.092,-0.276 0.237,-0.291c0.121,-0.012 0.232,0.06 0.274,0.168c0,0 0.268,0.688 0.354,1.797c0.025,0.552 0.033,1.225 -0.225,1.942c-0.132,0.353 -0.324,0.722 -0.628,1.024c-0.124,0.163 -0.355,0.293 -0.541,0.428c-0.2,0.103 -0.271,0.136 -0.542,0.244c-0.198,0.051 -0.4,0.092 -0.602,0.126c-0.21,0.001 -0.42,0.021 -0.627,-0.003c-0.414,-0.058 -0.82,-0.185 -1.145,-0.399c-0.343,-0.192 -0.597,-0.46 -0.813,-0.717c-0.214,-0.259 -0.379,-0.523 -0.517,-0.77c-0.524,-0.998 -0.612,-1.743 -0.611,-1.743l-0.001,-0.008c-0.018,-0.146 0.087,-0.277 0.232,-0.294c0.124,-0.013 0.236,0.057 0.279,0.164z"/>
    <path id="svg_153" fill="#F48EB8" d="m244.656,191.179c0.094,2.764 -2.071,5.081 -4.835,5.174c-2.764,0.094 -5.08,-2.071 -5.174,-4.835c-0.093,-2.764 2.071,-5.08 4.835,-5.174c2.764,-0.093 5.081,2.071 5.174,4.835z"/>
    <path id="svg_154" fill="#F48EB8" d="m275.539,182.563c0.094,2.764 -2.07,5.08 -4.835,5.174c-2.763,0.093 -5.08,-2.072 -5.174,-4.835c-0.094,-2.764 2.073,-5.081 4.835,-5.174c2.765,-0.094 5.081,2.071 5.174,4.835z"/>
    <g id="svg_155">
     <path id="svg_156" fill="#E88587" d="m259.959,184.536l0.062,0.057c-1.207,1.342 -2.969,2.452 -5.314,2.942c-2.434,0.513 -4.565,0.224 -6.24,-0.499c0.791,-0.847 5.902,-5.944 11.492,-2.5z"/>
     <path id="svg_157" fill="#434040" d="m260.212,176.962c2.333,1.212 2.268,4.896 -0.19,7.63l-0.062,-0.057c-5.59,-3.443 -10.701,1.653 -11.492,2.5c-3.268,-1.371 -4.85,-4.349 -3.71,-6.139c1.054,-1.667 4.684,-0.568 8.11,-1.615c3.821,-1.169 5.572,-3.249 7.344,-2.319z"/>
    </g>
    <path id="svg_158" fill="#434040" d="m229.701,235.603c-3.091,0 -6.65,-0.969 -8.23,-4.949c-3.226,-8.13 5.141,-15.036 5.226,-15.105c0.215,-0.173 0.528,-0.141 0.703,0.074c0.174,0.214 0.141,0.529 -0.073,0.703c-0.079,0.064 -7.879,6.516 -4.926,13.959c2.713,6.835 12.317,3.538 12.413,3.502c0.261,-0.09 0.546,0.045 0.638,0.305c0.092,0.261 -0.045,0.546 -0.305,0.638c-0.052,0.019 -2.543,0.873 -5.446,0.873z"/>
    <path id="svg_159" fill="#434040" d="m238.556,231.353c-1.617,-1.726 -5.239,-0.155 -4.239,3.04c0.998,3.195 7.209,0.133 4.239,-3.04z"/>
    <path id="svg_160" fill="#434040" d="m223.928,285.6c-1.575,0 -3.202,-0.422 -4.864,-1.264c-0.246,-0.125 -0.345,-0.426 -0.22,-0.672c0.125,-0.245 0.424,-0.344 0.672,-0.221c2.417,1.226 4.735,1.478 6.886,0.746c4.083,-1.385 6.263,-5.842 6.285,-5.887c0.119,-0.248 0.417,-0.354 0.667,-0.234c0.249,0.12 0.354,0.419 0.234,0.668c-0.095,0.198 -2.388,4.882 -6.865,6.4c-0.909,0.309 -1.843,0.464 -2.795,0.464z"/>
    <g id="svg_161">
     <path id="svg_162" fill="#434040" d="m277.5,291.847c-0.002,0 -0.003,0 -0.005,0c-0.276,-0.003 -0.498,-0.229 -0.495,-0.505c0.024,-2.567 -2.012,-10.033 -2.032,-10.108c-0.072,-0.266 0.084,-0.541 0.351,-0.614c0.268,-0.071 0.542,0.085 0.614,0.351c0.085,0.312 2.093,7.675 2.067,10.382c-0.003,0.273 -0.226,0.494 -0.5,0.494z"/>
     <path id="svg_163" fill="#434040" d="m217.632,281.695c-0.656,0.022 -1.225,0.267 -1.643,0.705c-0.3,0.314 -0.374,0.714 -0.203,1.096c0.384,0.856 2.056,1.476 3.238,1.436c0.563,-0.02 0.997,-0.177 1.289,-0.468c0.334,-0.332 0.414,-0.78 0.22,-1.229c-0.371,-0.86 -1.727,-1.579 -2.901,-1.54z"/>
     <path id="svg_164" fill="#434040" d="m282.688,291.014c-0.25,-0.907 -1.209,-1.4 -2.631,-1.353c-1.157,0.039 -2.597,0.459 -3.109,1.188c-0.194,0.274 -0.248,0.587 -0.155,0.878c0.327,1.028 2.106,1.081 2.855,1.056c1.082,-0.037 2.406,-0.306 2.881,-0.951c0.18,-0.245 0.237,-0.535 0.159,-0.818z"/>
    </g>
    <path id="svg_165" fill="#EACCCC" d="m228.403,205.539c0,0 0.022,0.029 0.064,0.086c0.039,0.037 0.077,0.066 0.183,0.141c0.2,0.131 0.553,0.284 1.015,0.455c0.935,0.33 2.331,0.69 4.019,1.09c0.843,0.203 1.76,0.427 2.745,0.58c0.493,0.077 0.997,0.166 1.522,0.189c0.525,0.022 1.065,0.005 1.61,0.014c1.088,0.008 2.185,0.285 3.321,0.369c1.134,0.101 2.288,0.129 3.44,0.191c1.149,0.059 2.325,0.115 3.413,-0.247c1.074,-0.313 2.183,-0.4 3.049,-0.886c0.424,-0.234 0.771,-0.542 0.898,-0.927c0.162,-0.376 -0.007,-0.673 -0.354,-0.946c-0.716,-0.526 -1.707,-0.575 -2.511,-0.754c-1.657,-0.362 -3.101,-0.52 -4.103,-0.652c-1.007,-0.126 -1.582,-0.198 -1.582,-0.198c-0.118,-0.015 -0.202,-0.122 -0.188,-0.241c0.013,-0.101 0.093,-0.176 0.189,-0.188c0,0 0.588,-0.068 1.62,-0.088c1.03,-0.007 2.505,0.015 4.277,0.342c0.882,0.206 1.805,0.57 2.731,1.217c0.226,0.173 0.455,0.4 0.593,0.72c0.141,0.323 0.147,0.704 0.041,1.012c-0.179,0.638 -0.67,1.114 -1.174,1.435c-1.037,0.607 -2.186,0.991 -3.372,1.001c-1.187,-0.056 -2.342,0.113 -3.523,0.189c-1.177,0.076 -2.354,0.016 -3.508,-0.032c-1.152,-0.068 -2.304,-0.006 -3.384,-0.255c-0.54,-0.121 -1.065,-0.275 -1.58,-0.403c-0.516,-0.124 -1.027,-0.191 -1.523,-0.279c-0.993,-0.167 -1.932,-0.326 -2.798,-0.472c-1.728,-0.338 -3.142,-0.778 -4.099,-1.213c-0.481,-0.214 -0.843,-0.434 -1.078,-0.635c-0.11,-0.093 -0.219,-0.215 -0.266,-0.289c-0.034,-0.062 -0.052,-0.094 -0.052,-0.094c-0.058,-0.104 -0.02,-0.234 0.083,-0.292c0.099,-0.056 0.219,-0.025 0.282,0.06z"/>
    <path id="svg_166" fill="#EACCCC" d="m214.698,209c0,0 -0.345,0.033 -0.989,0.169c-0.637,0.146 -1.589,0.375 -2.664,0.915c-0.526,0.279 -1.086,0.649 -1.518,1.186c-0.215,0.268 -0.392,0.577 -0.503,0.922c-0.057,0.202 -0.097,0.303 -0.061,0.442c0.024,0.143 0.1,0.307 0.199,0.467c0.911,1.293 2.631,2.39 4.446,3.432c1.851,1.036 3.947,2.025 6.245,2.858c1.144,0.43 2.34,0.815 3.582,1.143c1.244,0.318 2.533,0.566 3.831,0.847c2.604,0.522 5.277,1.186 8.056,1.504c2.773,0.343 5.611,0.471 8.45,0.479c2.836,-0.004 5.697,-0.235 8.393,-0.986c2.713,-0.628 5.376,-1.288 7.848,-2.262c2.467,-0.965 4.804,-2.097 6.724,-3.545c1.914,-1.463 3.267,-3.386 3.838,-5.279c0.278,-0.948 0.326,-1.914 0.083,-2.746c-0.229,-0.836 -0.763,-1.504 -1.415,-1.855c-0.655,-0.354 -1.402,-0.402 -2.064,-0.246c-0.666,0.149 -1.246,0.467 -1.727,0.809c-0.97,0.691 -1.595,1.446 -1.997,1.96c-0.399,0.522 -0.588,0.822 -0.588,0.822c-0.063,0.1 -0.195,0.13 -0.295,0.067c-0.096,-0.06 -0.127,-0.183 -0.076,-0.281l0.006,-0.009c-0.001,-0.001 0.169,-0.32 0.543,-0.893c0.383,-0.561 0.957,-1.407 1.982,-2.236c0.517,-0.403 1.155,-0.802 1.956,-1.024c0.787,-0.223 1.779,-0.241 2.683,0.221c0.897,0.451 1.62,1.338 1.933,2.381c0.325,1.042 0.304,2.215 -0.02,3.319c-0.638,2.259 -2.435,4.062 -4.406,5.557c-1.998,1.53 -4.365,2.684 -6.846,3.753c-2.499,1.029 -5.174,1.929 -7.984,2.381c-2.826,0.328 -5.67,0.693 -8.548,0.841c-2.876,0.161 -5.761,0.005 -8.577,-0.293c-2.812,-0.323 -5.598,-0.65 -8.203,-1.385c-1.306,-0.348 -2.561,-0.793 -3.784,-1.225c-1.226,-0.423 -2.422,-0.843 -3.581,-1.267c-2.307,-0.875 -4.466,-1.777 -6.375,-2.802c-0.958,-0.507 -1.844,-1.056 -2.654,-1.64c-0.804,-0.592 -1.551,-1.203 -2.064,-2.038c-0.123,-0.212 -0.233,-0.443 -0.276,-0.718c-0.013,-0.067 -0.015,-0.139 -0.018,-0.21c0.001,-0.076 0.011,-0.184 0.021,-0.219c0.029,-0.145 0.066,-0.229 0.099,-0.344c0.148,-0.427 0.378,-0.803 0.642,-1.117c0.534,-0.628 1.171,-1.018 1.75,-1.309c1.175,-0.569 2.176,-0.743 2.846,-0.856c0.674,-0.104 1.044,-0.119 1.044,-0.119l0.006,0c0.118,-0.005 0.218,0.087 0.223,0.206c0.002,0.116 -0.084,0.212 -0.196,0.223z"/>
    <path id="svg_167" fill="#EACCCC" d="m265.018,229.337c0,0 -0.09,0.427 -0.198,1.247c-0.102,0.817 -0.237,2.027 -0.199,3.552c0.031,0.758 0.101,1.607 0.37,2.454c0.254,0.838 0.772,1.71 1.683,1.992c0.905,0.298 2.022,0.024 3.097,-0.415c1.059,-0.465 2.135,-1.159 3.214,-1.913c2.155,-1.535 4.407,-3.344 6.76,-5.291c1.179,-0.972 2.388,-1.972 3.609,-3.016c1.221,-1.046 2.451,-2.14 3.764,-3.181c2.613,-2.098 5.575,-3.958 8.781,-5.492c1.608,-0.751 3.311,-1.397 5.126,-1.682c0.906,-0.14 1.839,-0.189 2.767,-0.085c0.922,0.109 1.852,0.399 2.662,0.808c1.638,0.76 3.187,1.816 4.382,3.204c1.178,1.388 1.998,3.148 2.079,5.017c0.081,1.87 -0.619,3.686 -1.668,5.134c-1.064,1.452 -2.472,2.603 -4.036,3.349c-0.775,0.376 -1.613,0.648 -2.403,0.85c-0.822,0.204 -1.635,0.378 -2.506,0.373c-0.431,-0.013 -0.895,-0.047 -1.354,-0.348c-0.225,-0.151 -0.426,-0.427 -0.465,-0.728c-0.048,-0.301 0.036,-0.559 0.133,-0.777c0.432,-0.859 1.169,-1.316 1.902,-1.67c0.754,-0.336 1.532,-0.526 2.379,-0.483c1.03,0.206 1.517,0.902 1.973,1.513c0.858,1.287 1.263,2.716 1.441,4.093c0.335,2.772 -0.314,5.35 -1.344,7.333c-1.044,1.998 -2.442,3.41 -3.663,4.413c-1.24,0.998 -2.335,1.597 -3.078,1.99c-0.75,0.387 -1.162,0.563 -1.162,0.563l-0.007,0.004c-0.109,0.046 -0.235,-0.005 -0.281,-0.113c-0.045,-0.104 0.001,-0.226 0.101,-0.275c0,0 0.395,-0.198 1.103,-0.619c0.704,-0.422 1.724,-1.082 2.863,-2.091c1.138,-1.002 2.389,-2.4 3.308,-4.281c0.929,-1.862 1.451,-4.254 1.127,-6.793c-0.161,-1.256 -0.491,-2.58 -1.162,-3.738c-0.319,-0.552 -0.829,-1.128 -1.293,-1.228c-0.635,-0.053 -1.372,0.089 -2.013,0.362c-0.626,0.292 -1.265,0.755 -1.528,1.323c-0.128,0.298 -0.098,0.469 0.093,0.599c0.208,0.142 0.575,0.205 0.938,0.202c0.736,-0.002 1.526,-0.166 2.283,-0.378c0.789,-0.222 1.524,-0.482 2.241,-0.848c2.854,-1.421 5.077,-4.418 5.188,-7.724c0.096,-1.644 -0.502,-3.352 -1.655,-4.622c-1.116,-1.31 -2.636,-2.223 -4.23,-2.908c-1.558,-0.732 -3.287,-0.816 -4.972,-0.536c-1.686,0.283 -3.314,0.913 -4.861,1.654c-3.103,1.514 -5.829,3.606 -8.551,5.49c-1.354,0.956 -2.696,1.893 -3.973,2.861c-1.275,0.969 -2.485,1.966 -3.664,2.938c-2.364,1.934 -4.557,3.823 -6.739,5.392c-1.097,0.781 -2.166,1.5 -3.329,2.027c-1.137,0.49 -2.412,0.806 -3.602,0.408c-0.584,-0.197 -1.071,-0.596 -1.399,-1.047c-0.337,-0.452 -0.526,-0.946 -0.671,-1.417c-0.282,-0.948 -0.334,-1.837 -0.353,-2.629c-0.022,-1.588 0.181,-2.811 0.318,-3.64c0.145,-0.827 0.257,-1.267 0.257,-1.267c0.026,-0.115 0.142,-0.187 0.257,-0.16c0.111,0.023 0.181,0.138 0.16,0.25z"/>
    <path id="svg_168" fill="#C9ADB6" d="m225.681,201.838c0,0 0.951,3.469 1.462,3.786c0.511,0.316 1.825,-0.311 1.896,-0.647c0.072,-0.336 -0.463,-3.82 -0.463,-3.82s-2.145,0.656 -2.895,0.681z"/>
    <g id="svg_169">
     <path id="svg_170" fill="#C6546D" d="m231.029,179.749c0.741,1.919 -0.44,9.489 1.884,19.262c0.265,1.112 -1.401,2.447 -3.297,3.135l-0.064,-0.257c-2.698,-14.061 -1.23,-21.579 -0.344,-22.925c0.567,0.112 1.044,0.29 1.42,0.487c0.135,0.081 0.273,0.184 0.401,0.298z"/>
     <path id="svg_171" fill="#E16278" d="m229.551,201.89l0.064,0.257c-1.221,0.448 -2.825,0.6 -4.797,0.222c-5.019,-0.969 -6.438,-11.938 -4.506,-18.106c1.349,-4.295 4.748,-5.504 7.438,-5.453c0.52,0.012 1.019,0.067 1.456,0.155c-0.26,0.914 -2.354,8.864 0.345,22.925z"/>
    </g>
   </g>
   <g id="svg_172">
    <g id="svg_173">
     <path id="svg_174" fill="#434040" d="m372.68,289.789c-0.209,0 -0.404,-0.132 -0.475,-0.342c-0.824,-2.469 -1.177,-9.797 -1.191,-10.107c-0.014,-0.275 0.199,-0.51 0.476,-0.522c0.267,-0.03 0.511,0.2 0.522,0.476c0.004,0.074 0.361,7.499 1.143,9.838c0.087,0.262 -0.055,0.545 -0.316,0.633c-0.054,0.016 -0.107,0.024 -0.159,0.024z"/>
     <path id="svg_175" fill="#434040" d="m371.45,288.261c-1.061,0 -2.447,0.332 -3.155,1.073c-0.329,0.345 -0.493,0.757 -0.473,1.192c0.013,0.302 0.194,1.005 1.575,1.005c1.17,0 2.925,-0.504 3.671,-1.255c0.263,-0.265 0.396,-0.55 0.393,-0.85c-0.003,-0.73 -0.755,-1.165 -2.011,-1.165z"/>
    </g>
    <g id="svg_176">
     <path id="svg_177" fill="#434040" d="m357.44,289.191c-0.27,0 -0.491,-0.214 -0.5,-0.484c-0.083,-2.602 1.68,-9.723 1.755,-10.025c0.066,-0.267 0.335,-0.43 0.607,-0.364c0.268,0.066 0.431,0.338 0.364,0.606c-0.018,0.072 -1.805,7.287 -1.726,9.752c0.009,0.275 -0.208,0.507 -0.484,0.516c-0.005,-0.001 -0.011,-0.001 -0.016,-0.001z"/>
     <path id="svg_178" fill="#434040" d="m354.891,287.109c-1.345,0 -2.241,0.501 -2.46,1.374c-0.07,0.281 -0.008,0.566 0.178,0.804c0.632,0.811 2.511,0.852 2.881,0.852c0.704,0 2.37,-0.106 2.659,-1.091c0.086,-0.291 0.024,-0.599 -0.176,-0.864c-0.524,-0.698 -1.979,-1.075 -3.082,-1.075z"/>
    </g>
    <g id="svg_179">
     <path id="svg_180" fill="#434040" d="m367.017,221.208c-3.971,0 -9.554,-1.703 -14.144,-9.577c-0.14,-0.239 -0.059,-0.545 0.18,-0.684c0.236,-0.138 0.544,-0.059 0.684,0.18c7.569,12.984 17.537,8.394 17.958,8.192c0.247,-0.119 0.548,-0.015 0.667,0.234c0.119,0.249 0.016,0.547 -0.232,0.667c-0.049,0.023 -2.124,0.988 -5.113,0.988z"/>
     <path id="svg_181" fill="#434040" d="m354.87,208.858c0.676,0.254 0.022,2.497 -1.103,3.134c-1.125,0.64 -4.028,-0.872 -3.736,-1.503c0.294,-0.631 1.979,0.576 1.979,0.576s-1.272,-2.116 -0.891,-2.426c0.383,-0.31 1.733,1.457 1.733,1.457s-0.459,-1.994 0.073,-2.205c0.532,-0.209 0.836,2.456 0.836,2.456s0.517,-1.711 1.109,-1.489z"/>
    </g>
    <g id="svg_182">
     <path id="svg_183" fill="#F48EB8" d="m406.53,182.608c0.04,1.5 0,3.1 -0.12,4.78c-1.061,0.32 -7.351,1.84 -12,-4.94c-4.9,-7.12 0.439,-14.69 0.439,-14.69l0.011,-0.06c1.8,0.42 3.39,0.9 4.729,1.44c-0.229,0.52 -2.54,6.21 0.01,9.75c3.001,4.17 6.511,3.78 6.931,3.72z"/>
     <path id="svg_184" fill="#277EA5" d="m406.53,182.608c-0.42,0.06 -3.931,0.45 -6.931,-3.72c-2.55,-3.54 -0.239,-9.23 -0.01,-9.75c1.17,0.48 2.15,1.01 2.9,1.59c2.691,2.07 3.901,6.29 4.041,11.88z"/>
     <path id="svg_185" fill="#FFE444" d="m406.41,187.388c-0.101,1.59 -0.26,3.25 -0.48,4.98c-5.39,4.4 -17.689,-0.85 -20.43,-10.96c-2.21,-8.17 2.42,-14.02 3.06,-14.76c2.29,0.27 4.41,0.62 6.301,1.05l-0.011,0.06c0,0 -5.34,7.57 -0.439,14.69c4.649,6.78 10.939,5.26 11.999,4.94z"/>
     <path id="svg_186" fill="#75D2DB" d="m405.93,192.368c-0.149,1.22 -0.33,2.47 -0.54,3.75l-0.149,-0.02c0,0 -17.44,-2.3 -23.67,10.46c-4.051,8.29 -2.681,15.45 0.33,21.01l-2.66,0.94c-2.78,-6.35 -8.86,-9.43 -9.79,-9.88c2.27,-6.88 3.55,-12.04 2.55,-13.63c-2.28,-3.62 -26.71,1.56 -36.28,-2c-9.569,-3.56 -10.01,-19.14 -3.779,-25.15c10.779,-10.39 38.8,-13.33 56.619,-11.2c-0.64,0.74 -5.27,6.59 -3.06,14.76c2.739,10.11 15.039,15.36 20.429,10.96z"/>
     <path id="svg_187" fill="#A8C742" d="m405.24,196.098l0.149,0.02c-0.26,1.66 -0.569,3.36 -0.909,5.1c-0.48,-0.09 -16.211,-2.76 -19.131,11.57c-2.439,12.01 10.24,20.25 10.24,20.25l0.28,0.09c-0.76,2.34 -1.521,4.65 -2.28,6.9c-1.28,-0.84 -7.84,-5.33 -11.689,-12.46c-3.011,-5.56 -4.381,-12.72 -0.33,-21.01c6.23,-12.76 23.67,-10.46 23.67,-10.46z"/>
     <path id="svg_188" fill="#FFE444" d="m404.48,201.218c-0.4,1.98 -0.841,4.01 -1.311,6.07l-0.24,-0.06c0,0 -9.42,-2.9 -11.199,7.56c-1.091,6.42 5.859,11.57 5.859,11.57l0.36,0.11c-0.681,2.24 -1.38,4.47 -2.08,6.66l-0.28,-0.09c0,0 -12.68,-8.24 -10.24,-20.25c2.921,-14.33 18.651,-11.66 19.131,-11.57z"/>
     <path id="svg_189" fill="#F48EB8" d="m402.93,207.228l0.24,0.06c-1.46,6.24 -3.27,12.77 -5.22,19.18l-0.36,-0.11c0,0 -6.95,-5.15 -5.859,-11.57c1.779,-10.46 11.199,-7.56 11.199,-7.56z"/>
     <path id="svg_190" fill="#75D2DB" d="m393.59,240.028c-2.229,6.61 -4.43,12.718 -6.3,17.768l-0.16,-0.06c-5.34,-3.11 -13.24,-2.641 -17.13,-1.11c-11.26,4.42 -13.98,17.18 -14.4,19.62c-0.18,-0.16 -0.35,-0.32 -0.52,-0.48c-2.71,-2.64 -1.22,-10.899 1.79,-20.92c0,0 17.35,0.44 22.03,-11.348c2.479,-6.25 1.989,-11.2 0.34,-14.99l2.66,-0.94c3.85,7.13 10.41,11.62 11.69,12.46z"/>
     <path id="svg_191" fill="#277EA5" d="m387.13,257.736l0.16,0.06c-0.55,1.49 -1.08,2.891 -1.56,4.181l-0.601,-0.23c-19.55,-5.62 -24.33,14.82 -24.88,17.51c-1.68,-0.75 -3.26,-1.76 -4.65,-3.01c0.42,-2.44 3.141,-15.2 14.4,-19.62c3.891,-1.531 11.791,-2.001 17.131,1.109z"/>
     <path id="svg_192" fill="#FFE444" d="m385.13,261.746l0.601,0.23c-1,2.64 -1.851,4.85 -2.471,6.5l-0.13,-0.051c-14.53,-2.87 -15.89,10.25 -16.02,12.391c-2.341,-0.051 -4.69,-0.58 -6.86,-1.561c0.55,-2.689 5.33,-23.129 24.88,-17.509z"/>
     <path id="svg_193" fill="#A8C742" d="m383.13,268.426l0.13,0.051c-0.22,0.569 -0.42,1.069 -0.58,1.5c-2.89,7.64 -9.22,10.989 -15.569,10.84c0.129,-2.141 1.489,-15.261 16.019,-12.391z"/>
     <path id="svg_194" fill="#F48EB8" d="m379.24,228.508c1.649,3.79 2.14,8.74 -0.34,14.99c-4.681,11.788 -22.03,11.348 -22.03,11.348c0.62,-2.04 1.3,-4.149 2.01,-6.298l0.21,0.07c0,0 13.061,0.74 15.58,-9.8c2.521,-10.53 -6.53,-16.32 -6.53,-16.32c0.46,-1.34 0.9,-2.64 1.311,-3.87c0.929,0.45 7.009,3.53 9.789,9.88z"/>
     <path id="svg_195" fill="#277EA5" d="m368.14,222.498c0,0 9.051,5.79 6.53,16.32c-2.52,10.54 -15.58,9.8 -15.58,9.8l-0.21,-0.07c0.75,-2.229 1.54,-4.509 2.351,-6.79l0.09,0.03c0,0 7.71,0.6 9.05,-4.89c1.49,-6.12 -4.01,-9.2 -4.01,-9.2l-0.061,-0.02c0.64,-1.79 1.26,-3.52 1.84,-5.18z"/>
     <path id="svg_196" fill="#FFE444" d="m366.36,227.698c0,0 5.5,3.08 4.01,9.2c-1.34,5.49 -9.05,4.89 -9.05,4.89l-0.09,-0.03c1.68,-4.78 3.449,-9.59 5.069,-14.08l0.061,0.02z"/>
    </g>
    <path id="svg_197" fill="#434040" d="m347.155,183.262c0,-1.48 -1.198,-2.678 -2.678,-2.678c-1.477,0 -2.678,1.198 -2.678,2.678c0,1.479 1.2,2.678 2.678,2.678c1.48,0 2.678,-1.199 2.678,-2.678z"/>
    <path id="svg_198" fill="#434040" d="m375.155,180.012c0,-1.48 -1.198,-2.678 -2.678,-2.678c-1.477,0 -2.678,1.198 -2.678,2.678c0,1.479 1.2,2.678 2.678,2.678c1.48,0 2.678,-1.199 2.678,-2.678z"/>
    <path id="svg_199" fill="#FFFFFF" d="m348.853,183.411c-1.627,3.119 2.673,6.157 10.832,5.415c8.16,-0.742 8.902,-5.2 7.863,-6.824c-1.447,-2.263 -3.895,0.296 -9.459,0.853c-4.809,0.48 -7.9,-2.004 -9.236,0.556z"/>
    <path id="svg_200" fill="#F48EB8" d="m347.185,192.869c0,-2.889 -2.341,-5.23 -5.23,-5.23c-2.889,0 -5.23,2.341 -5.23,5.23c0,2.889 2.342,5.23 5.23,5.23c2.889,0 5.23,-2.341 5.23,-5.23z"/>
    <path id="svg_201" fill="#F48EB8" d="m381.163,190.458c0,-2.889 -2.343,-5.23 -5.23,-5.23s-5.23,2.341 -5.23,5.23c0,2.889 2.343,5.23 5.23,5.23s5.23,-2.341 5.23,-5.23z"/>
    <path id="svg_202" fill="#434040" d="m348.931,184.119c0,0 1.128,0.42 2.908,0.749c0.887,0.175 1.934,0.305 3.058,0.394c0.563,0.046 1.145,0.068 1.736,0.073c0.588,0.009 1.202,-0.02 1.784,-0.044c0.61,-0.042 1.22,-0.087 1.791,-0.173c0.578,-0.082 1.154,-0.182 1.698,-0.315c0.547,-0.126 1.072,-0.263 1.562,-0.423c0.491,-0.152 0.948,-0.322 1.361,-0.498c0.828,-0.346 1.497,-0.688 1.944,-0.959c0.449,-0.269 0.676,-0.449 0.676,-0.449c0.085,-0.069 0.209,-0.056 0.278,0.028c0.066,0.081 0.055,0.201 -0.02,0.271c0,0 -0.944,0.855 -2.639,1.65c-0.422,0.199 -0.889,0.394 -1.392,0.571c-0.501,0.183 -1.039,0.358 -1.607,0.489c-0.565,0.146 -1.153,0.257 -1.763,0.351c-0.616,0.099 -1.224,0.151 -1.829,0.201c-1.256,0.065 -2.481,0.031 -3.641,-0.072c-1.156,-0.099 -2.222,-0.305 -3.124,-0.512c-1.806,-0.431 -2.938,-0.968 -2.938,-0.968c-0.099,-0.047 -0.141,-0.164 -0.094,-0.264c0.047,-0.093 0.155,-0.135 0.251,-0.1z"/>
    <g id="svg_203">
     <path id="svg_204" fill="#434040" d="m396.279,219.031c-0.966,0 -1.558,-0.093 -1.586,-0.098c-0.272,-0.046 -0.455,-0.304 -0.408,-0.576c0.046,-0.272 0.298,-0.455 0.576,-0.41c0.555,0.096 13.637,2.089 18.055,-15.467c0.067,-0.267 0.338,-0.432 0.607,-0.363c0.268,0.067 0.431,0.339 0.363,0.607c-3.726,14.804 -13.711,16.307 -17.607,16.307z"/>
     <g id="svg_205">
      <path id="svg_206" fill="#434040" d="m410.763,200.221c-0.694,0.518 0.804,2.881 2.309,3.243c1.508,0.361 4.347,-2.343 3.8,-2.972c-0.545,-0.628 -2.083,1.318 -2.083,1.318s0.761,-2.856 0.217,-3.085c-0.542,-0.229 -1.511,2.252 -1.511,2.252s-0.135,-2.447 -0.816,-2.512c-0.683,-0.064 -0.146,3.103 -0.146,3.103s-1.163,-1.798 -1.77,-1.347z"/>
     </g>
    </g>
    <path id="svg_207" fill="#434040" d="m348.853,183.411c0,0 0.042,0.754 0.334,1.046l-0.625,0.958c0.001,0 -0.251,-1.3 0.291,-2.004z"/>
    <path id="svg_208" fill="#434040" d="m367.344,181.693c0,0 0.065,0.752 -0.183,1.083l0.755,0.86c0,0 0.063,-1.323 -0.572,-1.943z"/>
   </g>
   <g id="svg_209">
    <g id="svg_210">
     <path id="svg_211" fill="#1C100A" d="m108.938,450.676c-0.269,0 -0.491,-0.214 -0.499,-0.484c-0.091,-2.839 1.836,-10.621 1.918,-10.951c0.067,-0.268 0.336,-0.431 0.606,-0.364c0.268,0.066 0.431,0.338 0.365,0.606c-0.02,0.079 -1.976,7.976 -1.89,10.678c0.009,0.275 -0.207,0.507 -0.483,0.516c-0.005,-0.001 -0.011,-0.001 -0.017,-0.001z"/>
     <path id="svg_212" fill="#1E120D" d="m106.15,448.491c-1.446,0 -2.41,0.535 -2.643,1.468c-0.074,0.293 -0.008,0.591 0.185,0.838c0.678,0.87 2.714,0.914 3.116,0.914c0.758,0 2.555,-0.113 2.861,-1.158c0.089,-0.304 0.023,-0.625 -0.185,-0.903c-0.563,-0.753 -2.138,-1.159 -3.334,-1.159z"/>
    </g>
    <g id="svg_213">
     <path id="svg_214" fill="#1C100A" d="m138.172,451.823c-0.035,0 -0.07,-0.004 -0.105,-0.011c-0.27,-0.059 -0.442,-0.324 -0.384,-0.594c0.552,-2.579 0.044,-10.499 0.039,-10.579c-0.018,-0.275 0.191,-0.514 0.466,-0.531c0.291,-0.024 0.514,0.191 0.532,0.467c0.021,0.331 0.521,8.14 -0.06,10.853c-0.05,0.235 -0.257,0.395 -0.488,0.395z"/>
     <path id="svg_215" fill="#1E120D" d="m140.037,450.082c-0.409,0 -1.791,0.051 -2.385,0.712c-0.2,0.222 -0.29,0.486 -0.26,0.766c0.142,1.321 2.707,1.748 3.927,1.748c0.903,0 1.529,-0.18 1.862,-0.535c0.186,-0.198 0.275,-0.445 0.257,-0.713c-0.091,-1.367 -1.774,-1.978 -3.401,-1.978z"/>
    </g>
    <g id="svg_216">
     <path id="svg_217" fill="#FFE444" d="m173.613,386.61c-0.84,0.239 -1.74,0.35 -2.66,0.35c-5.56,0 -10.07,-4.36 -10.07,-9.74c0,-2.989 1.39,-5.67 3.58,-7.46l0.1,-0.08c3.28,4.08 6.891,9.78 9.05,16.93z"/>
     <path id="svg_218" fill="#FFE444" d="m122.733,425.71c3.77,0 6.83,2.96 6.83,6.61c0,3.649 -3.06,6.609 -6.83,6.609c-3.77,0 -6.82,-2.96 -6.82,-6.609c0.001,-3.65 3.05,-6.61 6.82,-6.61z"/>
     <path id="svg_219" fill="#FFE444" d="m150.054,411.17c5.55,0 10.06,4.37 10.06,9.75c0,5.38 -4.51,9.75 -10.06,9.75c-5.56,0 -10.07,-4.37 -10.07,-9.75c-0.001,-5.38 4.51,-9.75 10.07,-9.75z"/>
     <path id="svg_220" fill="#FFE444" d="m164.593,395.271c0,5.619 -4.7,10.17 -10.51,10.17c-5.8,0 -10.5,-4.551 -10.5,-10.17c0,-5.631 4.7,-10.181 10.5,-10.181c5.811,0 10.51,4.55 10.51,10.181z"/>
     <path id="svg_221" fill="#FFE444" d="m122.604,391.45c-1.4,1.649 -3.52,2.71 -5.89,2.71c-4.19,0 -7.6,-3.3 -7.6,-7.37c0,-4.06 3.41,-7.36 7.6,-7.36c1.36,0 2.64,0.341 3.74,0.95c-0.52,1.22 -0.81,2.56 -0.81,3.96c0,2.76 1.12,5.27 2.96,7.11z"/>
     <path id="svg_222" fill="#FFE444" d="m133.583,410.99c0,4.34 -3.63,7.859 -8.12,7.859c-4.48,0 -8.12,-3.52 -8.12,-7.859c0,-4.351 3.64,-7.87 8.12,-7.87c4.491,0 8.12,3.52 8.12,7.87z"/>
     <path id="svg_223" fill="#FFE444" d="m106.773,419.64c0,5.65 -3.84,10.431 -9.13,12.03l-0.18,0.21c-6.24,-5.34 -10.9,-12.46 -13.32,-20.85l0.16,-0.05c2.37,-2.431 5.73,-3.94 9.45,-3.95c7.19,0 13.02,5.65 13.02,12.61z"/>
     <path id="svg_224" fill="#FFE444" d="m101.193,389.8c0,6.271 -5.24,11.351 -11.71,11.351c-2.72,0 -5.23,-0.9 -7.2,-2.41c0,-0.42 -0.01,-0.84 -0.01,-1.26c0,-7.58 2.15,-13.83 5.16,-18.851c0.67,-0.109 1.35,-0.17 2.05,-0.17c6.471,0 11.71,5.08 11.71,11.34z"/>
     <path id="svg_225" fill="#277EA5" d="m173.613,386.61c1.59,5.21 2.4,11.17 1.77,17.84c-2.53,26.6 -28.5,39.899 -51.94,38c-10.01,-0.811 -18.99,-4.58 -25.98,-10.57l0.18,-0.21c5.29,-1.6 9.13,-6.38 9.13,-12.03c0,-6.96 -5.83,-12.609 -13.02,-12.609c-3.72,0.01 -7.08,1.52 -9.45,3.95l-0.16,0.05c-1.11,-3.851 -1.75,-7.96 -1.86,-12.29c1.97,1.51 4.48,2.41 7.2,2.41c6.47,0 11.71,-5.08 11.71,-11.351c0,-6.26 -5.24,-11.34 -11.71,-11.34c-0.7,0 -1.38,0.061 -2.05,0.17c6.9,-11.54 18.28,-16.62 18.28,-16.62s-11.4,-25.33 6.33,-40.22c17.74,-14.88 47.51,-6.01 51.94,14.89c3.57,16.83 -6.65,25.65 -6.65,25.65s3.38,2.55 7.23,7.35l-0.1,0.08c-2.19,1.79 -3.58,4.471 -3.58,7.46c0,5.38 4.51,9.74 10.07,9.74c0.92,0 1.82,-0.11 2.66,-0.35zm-19.53,18.83c5.81,0 10.51,-4.551 10.51,-10.17c0,-5.631 -4.7,-10.181 -10.51,-10.181c-5.8,0 -10.5,4.55 -10.5,10.181c0,5.62 4.701,10.17 10.5,10.17zm6.03,15.48c0,-5.38 -4.51,-9.75 -10.06,-9.75c-5.56,0 -10.07,4.37 -10.07,9.75c0,5.38 4.51,9.75 10.07,9.75c5.551,0 10.06,-4.37 10.06,-9.75zm-19.25,-36.58c0,-5.68 -4.75,-10.29 -10.61,-10.29c-4.41,0 -8.19,2.61 -9.8,6.33c-1.1,-0.609 -2.38,-0.95 -3.74,-0.95c-4.19,0 -7.6,3.301 -7.6,7.36c0,4.07 3.41,7.37 7.6,7.37c2.37,0 4.49,-1.061 5.89,-2.71c1.92,1.96 4.64,3.18 7.65,3.18c5.86,0 10.61,-4.609 10.61,-10.29zm-2.159,-36.42c0,-4.106 -3.22,-7.424 -7.18,-7.424c-3.96,0 -7.18,3.317 -7.18,7.424c0,4.096 3.22,7.424 7.18,7.424c3.959,0 7.18,-3.328 7.18,-7.424zm-13.241,70.93c4.49,0 8.12,-3.52 8.12,-7.859c0,-4.351 -3.63,-7.87 -8.12,-7.87c-4.48,0 -8.12,3.52 -8.12,7.87c0,4.339 3.64,7.859 8.12,7.859zm4.1,13.47c0,-3.65 -3.06,-6.61 -6.83,-6.61c-3.77,0 -6.82,2.96 -6.82,6.61c0,3.649 3.05,6.609 6.82,6.609c3.77,0.001 6.83,-2.959 6.83,-6.609z"/>
    </g>
    <g id="svg_226">
     <g id="svg_227">
      <path id="svg_228" fill="#221612" d="m126.298,327.416c0,4.416 -3.58,7.997 -7.996,7.997c-4.417,0 -7.997,-3.581 -7.997,-7.997c0,-4.417 3.58,-7.997 7.997,-7.997c4.416,0 7.996,3.58 7.996,7.997z"/>
      <path id="svg_229" fill="#D00054" d="m118.302,336.413c-4.961,0 -8.997,-4.036 -8.997,-8.997c0,-4.961 4.036,-8.997 8.997,-8.997c4.96,0 8.996,4.036 8.996,8.997c0,4.961 -4.036,8.997 -8.996,8.997zm0,-15.994c-3.858,0 -6.997,3.139 -6.997,6.997c0,3.858 3.139,6.997 6.997,6.997c3.857,0 6.996,-3.139 6.996,-6.997c0,-3.858 -3.139,-6.997 -6.996,-6.997z"/>
     </g>
     <g id="svg_230">
      <path id="svg_231" fill="#221612" d="m154.405,327.416c0,4.416 -3.58,7.997 -7.997,7.997c-4.417,0 -7.997,-3.581 -7.997,-7.997c0,-4.417 3.58,-7.997 7.997,-7.997c4.417,0 7.997,3.58 7.997,7.997z"/>
      <path id="svg_232" fill="#D00054" d="m146.409,336.413c-4.961,0 -8.997,-4.036 -8.997,-8.997c0,-4.961 4.036,-8.997 8.997,-8.997c4.961,0 8.997,4.036 8.997,8.997c-0.001,4.961 -4.036,8.997 -8.997,8.997zm0,-15.994c-3.858,0 -6.997,3.139 -6.997,6.997c0,3.858 3.139,6.997 6.997,6.997c3.858,0 6.997,-3.139 6.997,-6.997c-0.001,-3.858 -3.139,-6.997 -6.997,-6.997z"/>
     </g>
     <path id="svg_233" fill="#D00054" d="m138.411,328.416c-0.204,0 -0.41,-0.063 -0.588,-0.191c-5.688,-4.146 -10.684,-0.203 -10.894,-0.033c-0.427,0.347 -1.058,0.282 -1.406,-0.145c-0.348,-0.428 -0.286,-1.055 0.141,-1.404c0.063,-0.052 6.379,-5.103 13.336,-0.035c0.446,0.325 0.544,0.951 0.219,1.398c-0.195,0.267 -0.499,0.41 -0.808,0.41z"/>
    </g>
    <path id="svg_234" fill="#1E120D" d="m129.196,329.646c0,0.016 0.053,0.127 0.181,0.394c0.126,0.252 0.325,0.605 0.613,0.946c0.151,0.164 0.313,0.333 0.502,0.479c0.191,0.144 0.397,0.278 0.634,0.377c0.112,0.059 0.236,0.102 0.368,0.134c0.125,0.043 0.258,0.077 0.399,0.099c0.251,0.068 0.616,0.07 0.839,0.077c0.174,-0.007 0.391,0 0.528,-0.019c0.114,-0.027 0.227,-0.043 0.343,-0.06c0.119,-0.047 0.245,-0.073 0.366,-0.108l0.326,-0.157c0.195,-0.131 0.393,-0.261 0.549,-0.438c0.157,-0.173 0.306,-0.357 0.417,-0.554c0.232,-0.388 0.381,-0.773 0.473,-1.045c0.083,-0.266 0.13,-0.417 0.13,-0.417l0.07,-0.223c0.083,-0.267 0.367,-0.415 0.634,-0.332c0.24,0.075 0.385,0.314 0.351,0.555c-0.002,0.015 0.039,0.227 0.041,0.59c-0.002,0.362 -0.035,0.889 -0.248,1.513c-0.204,0.616 -0.626,1.361 -1.366,1.906c-0.184,0.13 -0.387,0.239 -0.589,0.356c-0.21,0.089 -0.426,0.176 -0.648,0.25c-0.238,0.055 -0.486,0.099 -0.732,0.139c-0.225,0.028 -0.378,0.023 -0.571,0.037l-0.138,0.007l-0.034,0.001l-0.088,-0.001l-0.02,-0.002l-0.082,-0.008l-0.326,-0.033c-0.216,-0.015 -0.433,-0.054 -0.65,-0.11c-0.216,-0.045 -0.43,-0.101 -0.634,-0.194c-0.208,-0.077 -0.406,-0.17 -0.592,-0.286c-0.384,-0.203 -0.71,-0.487 -0.976,-0.775c-0.273,-0.285 -0.473,-0.598 -0.63,-0.89c-0.313,-0.588 -0.415,-1.119 -0.463,-1.483c-0.042,-0.355 -0.025,-0.612 -0.026,-0.596c-0.035,-0.289 0.17,-0.552 0.459,-0.588c0.291,-0.036 0.554,0.169 0.59,0.459z"/>
    <g id="svg_235">
     <path id="svg_236" fill="#434040" d="m128.186,311.864c0,0 -0.178,-0.27 -0.387,-0.697c-0.217,-0.424 -0.448,-1.01 -0.665,-1.601c-0.094,-0.3 -0.188,-0.601 -0.276,-0.882c-0.085,-0.282 -0.138,-0.556 -0.197,-0.785c-0.102,-0.464 -0.136,-0.785 -0.136,-0.785c-0.016,-0.148 0.091,-0.282 0.24,-0.298c0.106,-0.012 0.204,0.04 0.258,0.124c0,0 0.173,0.272 0.383,0.699c0.097,0.216 0.225,0.462 0.335,0.736c0.107,0.275 0.221,0.568 0.334,0.862c0.198,0.597 0.383,1.198 0.478,1.665c0.102,0.464 0.132,0.787 0.132,0.787c0.014,0.149 -0.096,0.281 -0.245,0.295c-0.105,0.011 -0.2,-0.039 -0.254,-0.12z"/>
     <path id="svg_237" fill="#434040" d="m131.972,311.184c0,0 -0.079,-0.475 -0.135,-1.188c-0.065,-0.713 -0.089,-1.663 -0.1,-2.613c0.011,-0.475 0.021,-0.949 0.031,-1.395c0.014,-0.445 0.053,-0.861 0.073,-1.218c0.058,-0.713 0.131,-1.188 0.131,-1.188c0.022,-0.146 0.159,-0.245 0.304,-0.223c0.118,0.017 0.206,0.111 0.223,0.223c0,0 0.073,0.475 0.131,1.188c0.02,0.357 0.059,0.772 0.073,1.218c0.01,0.445 0.02,0.92 0.031,1.395c-0.011,0.95 -0.035,1.9 -0.1,2.613c-0.056,0.713 -0.135,1.188 -0.135,1.188c-0.024,0.146 -0.162,0.244 -0.307,0.22c-0.116,-0.019 -0.202,-0.111 -0.22,-0.22z"/>
     <path id="svg_238" fill="#434040" d="m136.375,311.711c0,0 0.013,-0.361 0.092,-0.888c0.071,-0.528 0.226,-1.218 0.394,-1.903c0.1,-0.339 0.199,-0.678 0.292,-0.995c0.096,-0.316 0.212,-0.605 0.299,-0.856c0.189,-0.497 0.349,-0.82 0.349,-0.82c0.066,-0.134 0.228,-0.188 0.36,-0.122c0.099,0.049 0.155,0.151 0.149,0.255c0,0 -0.018,0.36 -0.096,0.887c-0.047,0.261 -0.087,0.569 -0.158,0.893c-0.074,0.322 -0.153,0.666 -0.231,1.011c-0.189,0.68 -0.39,1.356 -0.586,1.853c-0.189,0.498 -0.354,0.819 -0.354,0.819c-0.068,0.133 -0.23,0.185 -0.363,0.117c-0.097,-0.051 -0.151,-0.149 -0.147,-0.251z"/>
    </g>
    <path id="svg_239" fill="#1C100A" d="m112.556,375.174c-0.177,0 -0.356,-0.006 -0.54,-0.02c-2.04,-0.15 -3.636,-0.907 -4.743,-2.247c-2.052,-2.484 -1.662,-6.058 -1.645,-6.208c0.032,-0.274 0.276,-0.476 0.554,-0.438c0.274,0.031 0.471,0.279 0.439,0.554c-0.003,0.032 -0.355,3.31 1.426,5.46c0.927,1.119 2.287,1.753 4.042,1.882c6.261,0.479 7.757,-8.716 7.771,-8.809c0.043,-0.272 0.295,-0.456 0.571,-0.417c0.272,0.043 0.459,0.298 0.417,0.571c-0.015,0.099 -1.582,9.672 -8.292,9.672z"/>
    <path id="svg_240" fill="#1E120D" d="m119.093,364.895c0.674,0.693 2.04,1.239 2.888,0.638c0.849,-0.598 2.207,-3.013 1.898,-3.533c-0.473,-0.802 -1.785,1.328 -1.785,1.328s1.16,-2.403 0.725,-2.688c-0.747,-0.488 -1.946,1.992 -1.946,1.992s-0.175,-2.401 -0.665,-2.473c-0.49,-0.072 -0.826,3.02 -0.826,3.02s-0.674,-2.105 -1.126,-1.505c-0.453,0.602 0.111,2.474 0.837,3.221z"/>
    <path id="svg_241" fill="#1C100A" d="m148.564,375.3c-7.187,0 -8.091,-10.175 -8.1,-10.277c-0.022,-0.275 0.183,-0.516 0.458,-0.538c0.274,-0.021 0.517,0.183 0.539,0.458c0.007,0.093 0.837,9.357 7.103,9.357c1.762,0 3.165,-0.532 4.172,-1.583c1.938,-2.022 1.822,-5.306 1.82,-5.338c-0.012,-0.276 0.202,-0.51 0.478,-0.522c0.285,0.013 0.51,0.202 0.521,0.479c0.006,0.152 0.132,3.746 -2.097,6.072c-1.202,1.255 -2.849,1.892 -4.894,1.892z"/>
    <path id="svg_242" fill="#1E120D" d="m142.679,364.826c-0.664,0.702 -2.022,1.267 -2.879,0.679c-0.857,-0.587 -2.248,-2.982 -1.947,-3.507c0.462,-0.808 1.803,1.302 1.803,1.302s-0.844,-2.657 -0.354,-2.831c1.009,-0.355 1.565,2.118 1.565,2.118s0.14,-2.419 0.631,-2.48c0.892,-0.113 0.868,3.007 0.868,3.007s0.645,-2.113 1.105,-1.52c0.461,0.596 -0.077,2.476 -0.792,3.232z"/>
    <ellipse id="svg_243" fill="#FFE444" ry="7.363" rx="7.601" cy="343.565" cx="113.154"/>
    <path id="svg_244" fill="#FFE444" d="m159.992,344.457c0,4.066 -3.403,7.363 -7.601,7.363s-7.601,-3.297 -7.601,-7.363s3.403,-7.363 7.601,-7.363s7.601,3.297 7.601,7.363z"/>
   </g>
   <g id="svg_245">
    <g id="svg_246">
     <path id="svg_247" fill="#1E120D" d="m229.799,441.983c-0.269,0 -0.491,-0.214 -0.499,-0.484c-0.093,-2.934 1.899,-10.98 1.984,-11.322c0.067,-0.268 0.337,-0.429 0.606,-0.364c0.268,0.066 0.431,0.338 0.365,0.606c-0.021,0.082 -2.044,8.252 -1.956,11.049c0.009,0.275 -0.208,0.507 -0.484,0.516c-0.005,-0.001 -0.01,-0.001 -0.016,-0.001z"/>
     <path id="svg_248" fill="#1E120D" d="m224.683,441.386c-0.333,1.329 4.997,1.634 5.377,0.342c0.378,-1.293 -4.87,-2.369 -5.377,-0.342z"/>
    </g>
    <g id="svg_249">
     <path id="svg_250" fill="#1E120D" d="m248.535,442.571c-0.209,0 -0.404,-0.132 -0.474,-0.342c-0.931,-2.785 -1.329,-11.064 -1.346,-11.416c-0.013,-0.275 0.2,-0.51 0.476,-0.523c0.285,-0.024 0.51,0.2 0.523,0.476c0.004,0.085 0.408,8.491 1.295,11.146c0.087,0.262 -0.054,0.545 -0.316,0.633c-0.052,0.019 -0.106,0.026 -0.158,0.026z"/>
     <path id="svg_251" fill="#1E120D" d="m243.605,443.445c0.062,1.369 5.256,0.132 5.249,-1.215c-0.008,-1.346 -5.343,-0.871 -5.249,1.215z"/>
    </g>
    <g id="svg_252">
     <g id="svg_253">
      <path id="svg_254" fill="#943C99" d="m284.43,339.523c7.391,30.279 -8.763,54.806 -20.763,74.806c-11.497,19.162 -26.137,23.797 -33.333,17.167c-8.546,-7.873 13.336,-46.583 14.267,-52.143c0.93,-5.56 -16.98,-3.091 -26.86,-18.83c-9.88,-15.75 -0.13,-43.471 26.55,-46.63c23.469,-2.78 37.049,12.97 40.139,25.63zm-29.72,8.1c0,-4.22 -3.99,-7.64 -8.91,-7.64c-4.93,0 -8.92,3.42 -8.92,7.64c0,4.22 3.99,7.65 8.92,7.65c4.92,0 8.91,-3.43 8.91,-7.65z"/>
     </g>
     <path id="svg_255" fill="#FAC600" d="m254.178,311.019c-0.291,-0.729 3.516,-9.142 4.019,-9.644c0.501,-0.503 3.471,5.788 3.471,5.788s5.57,-6.189 6.977,-6.089c1.407,0.1 2.109,9.242 2.109,9.242s5.727,-4.421 6.631,-3.115c0.904,1.306 -2.713,10.146 -3.518,10.448c-0.803,0.302 -3.214,-1.809 -9.643,-4.119c-5.146,-1.848 -9.847,-2.009 -10.046,-2.511z"/>
     <g id="svg_256">
      <path id="svg_257" fill="#1E120D" d="m230.513,323.391c0,0 0.003,0.051 0.007,0.146c0.008,0.095 0.021,0.233 0.036,0.41c0.035,0.355 0.099,0.863 0.245,1.416c0.079,0.272 0.171,0.563 0.306,0.82c0.122,0.273 0.305,0.489 0.486,0.685c0.095,0.096 0.211,0.158 0.314,0.241c0.135,0.039 0.231,0.133 0.377,0.164c0.151,0.022 0.267,0.105 0.442,0.098l0.245,0.021l0.122,0.013l0.015,0.002l0.007,0.002c0.084,-0.002 -0.11,0.003 -0.088,0.002l0.005,0l0.041,-0.002l0.082,-0.005c0.195,-0.02 0.49,-0.01 0.602,-0.052c0.104,-0.058 0.206,-0.029 0.324,-0.11c0.241,-0.105 0.462,-0.241 0.635,-0.466c0.182,-0.207 0.333,-0.478 0.458,-0.754c0.111,-0.288 0.208,-0.58 0.278,-0.864c0.134,-0.571 0.192,-1.086 0.227,-1.444c0.028,-0.353 0.045,-0.555 0.045,-0.555l0.003,-0.039c0.024,-0.294 0.281,-0.512 0.574,-0.488c0.223,0.018 0.403,0.173 0.466,0.375c0,0 0.074,0.239 0.148,0.643c0.07,0.406 0.151,0.991 0.109,1.723c-0.025,0.366 -0.074,0.771 -0.19,1.2c-0.133,0.428 -0.294,0.899 -0.622,1.338c-0.157,0.224 -0.335,0.438 -0.567,0.623c-0.209,0.208 -0.469,0.353 -0.736,0.489c-0.251,0.151 -0.601,0.209 -0.907,0.293c-0.309,0.067 -0.461,0.049 -0.699,0.078l-0.082,0.007l-0.041,0.003l-0.104,0.003l-0.013,-0.001l-0.025,-0.002l-0.205,-0.021l-0.407,-0.047c-0.267,-0.012 -0.55,-0.138 -0.818,-0.211c-0.27,-0.084 -0.525,-0.254 -0.771,-0.393c-0.223,-0.181 -0.453,-0.363 -0.63,-0.571c-0.358,-0.42 -0.612,-0.881 -0.743,-1.318c-0.159,-0.435 -0.217,-0.848 -0.248,-1.22c-0.063,-0.745 0.022,-1.338 0.096,-1.747c0.034,-0.206 0.082,-0.359 0.11,-0.476c0.032,-0.108 0.049,-0.166 0.049,-0.166c0.082,-0.282 0.377,-0.443 0.659,-0.361c0.223,0.065 0.37,0.263 0.382,0.482l0.001,0.036z"/>
      <path id="svg_258" fill="#1E120D" d="m229.413,330.296c-0.093,0 -0.188,-0.026 -0.272,-0.081c-0.231,-0.15 -0.297,-0.46 -0.147,-0.691l1.505,-2.315c0.151,-0.231 0.46,-0.298 0.692,-0.147c0.231,0.15 0.297,0.46 0.147,0.691l-1.505,2.315c-0.097,0.148 -0.257,0.228 -0.42,0.228z"/>
      <path id="svg_259" fill="#1E120D" d="m233.351,331.685c-0.276,0 -0.5,-0.224 -0.5,-0.5l0,-2.837c0,-0.276 0.224,-0.5 0.5,-0.5c0.276,0 0.5,0.224 0.5,0.5l0,2.837c0,0.277 -0.224,0.5 -0.5,0.5z"/>
      <path id="svg_260" fill="#1E120D" d="m237.403,329.66c-0.143,0 -0.285,-0.061 -0.384,-0.179l-1.794,-2.144c-0.177,-0.212 -0.149,-0.527 0.063,-0.705c0.212,-0.177 0.528,-0.148 0.704,0.063l1.794,2.144c0.177,0.212 0.149,0.527 -0.063,0.705c-0.093,0.078 -0.207,0.116 -0.32,0.116z"/>
     </g>
     <g id="svg_261">
      <path id="svg_262" fill="#1E120D" d="m255.813,323.449c0,0 0.002,0.051 0.007,0.146c0.009,0.095 0.02,0.233 0.036,0.41c0.035,0.354 0.099,0.863 0.245,1.416c0.079,0.272 0.171,0.563 0.306,0.82c0.121,0.272 0.305,0.489 0.486,0.685c0.096,0.095 0.211,0.158 0.314,0.24c0.135,0.039 0.231,0.133 0.377,0.165c0.151,0.022 0.268,0.104 0.442,0.098l0.244,0.02l0.122,0.013l0.016,0.002l0.008,0.002c0.084,-0.003 -0.111,0.003 -0.089,0.002l0.005,0l0.041,-0.002l0.082,-0.005c0.195,-0.02 0.489,-0.01 0.603,-0.052c0.103,-0.059 0.205,-0.029 0.323,-0.11c0.241,-0.106 0.462,-0.242 0.635,-0.467c0.182,-0.206 0.333,-0.477 0.458,-0.753c0.11,-0.288 0.208,-0.58 0.277,-0.865c0.134,-0.571 0.191,-1.086 0.226,-1.444c0.028,-0.353 0.045,-0.555 0.045,-0.555l0.003,-0.039c0.024,-0.293 0.281,-0.512 0.574,-0.488c0.224,0.019 0.403,0.173 0.466,0.375c0,0 0.073,0.239 0.148,0.644c0.07,0.406 0.15,0.991 0.108,1.723c-0.025,0.366 -0.073,0.77 -0.189,1.2c-0.133,0.428 -0.294,0.899 -0.621,1.338c-0.157,0.224 -0.335,0.439 -0.567,0.624c-0.209,0.207 -0.468,0.352 -0.735,0.488c-0.251,0.151 -0.602,0.21 -0.908,0.294c-0.309,0.067 -0.46,0.049 -0.699,0.078l-0.081,0.007l-0.041,0.003l-0.104,0.003l-0.013,-0.001l-0.025,-0.002l-0.204,-0.021l-0.407,-0.047c-0.267,-0.012 -0.55,-0.138 -0.817,-0.211c-0.27,-0.084 -0.525,-0.254 -0.771,-0.393c-0.223,-0.181 -0.452,-0.363 -0.631,-0.571c-0.357,-0.419 -0.612,-0.881 -0.742,-1.318c-0.159,-0.435 -0.218,-0.848 -0.249,-1.22c-0.063,-0.745 0.021,-1.338 0.097,-1.747c0.033,-0.206 0.081,-0.359 0.11,-0.476c0.031,-0.108 0.048,-0.166 0.048,-0.166c0.082,-0.282 0.378,-0.443 0.659,-0.361c0.223,0.065 0.37,0.263 0.382,0.482l0,0.036z"/>
      <path id="svg_263" fill="#1E120D" d="m254.713,330.353c-0.094,0 -0.188,-0.026 -0.272,-0.081c-0.231,-0.15 -0.297,-0.46 -0.146,-0.691l1.505,-2.315c0.151,-0.232 0.462,-0.295 0.691,-0.146c0.231,0.15 0.297,0.46 0.146,0.691l-1.505,2.316c-0.096,0.146 -0.256,0.226 -0.419,0.226z"/>
      <path id="svg_264" fill="#1E120D" d="m258.65,331.743c-0.276,0 -0.5,-0.224 -0.5,-0.5l0,-2.837c0,-0.276 0.224,-0.5 0.5,-0.5s0.5,0.224 0.5,0.5l0,2.837c0,0.277 -0.223,0.5 -0.5,0.5z"/>
      <path id="svg_265" fill="#1E120D" d="m262.702,329.717c-0.142,0 -0.284,-0.06 -0.383,-0.179l-1.795,-2.142c-0.178,-0.212 -0.15,-0.527 0.062,-0.704c0.211,-0.179 0.526,-0.15 0.704,0.061l1.795,2.142c0.178,0.212 0.15,0.527 -0.062,0.704c-0.093,0.08 -0.208,0.118 -0.321,0.118z"/>
     </g>
     <path id="svg_266" fill="#1E120D" d="m241.597,324.876c0.004,0.015 0.083,0.111 0.27,0.34c0.181,0.217 0.455,0.516 0.806,0.814c0.179,0.147 0.378,0.287 0.589,0.427c0.218,0.128 0.453,0.241 0.698,0.345c0.251,0.094 0.518,0.154 0.79,0.217c0.279,0.043 0.567,0.061 0.864,0.059c0.015,0.002 0.123,0.003 0.061,0.006l0.135,-0.01l0.269,-0.02c0.203,-0.006 0.304,-0.041 0.431,-0.063c0.24,-0.038 0.54,-0.112 0.774,-0.214c0.497,-0.19 0.918,-0.476 1.255,-0.777c0.67,-0.612 0.985,-1.235 0.973,-1.185c0.076,-0.281 0.365,-0.448 0.646,-0.372c0.281,0.075 0.448,0.364 0.373,0.645c-0.008,0.02 -0.024,0.234 -0.123,0.583c-0.102,0.348 -0.29,0.837 -0.661,1.358c-0.188,0.257 -0.409,0.532 -0.693,0.776c-0.28,0.245 -0.6,0.493 -0.971,0.671c-0.373,0.192 -0.745,0.343 -1.2,0.442c-0.222,0.047 -0.47,0.099 -0.628,0.106l-0.269,0.027l-0.134,0.014c-0.153,0.013 -0.134,0.004 -0.21,0.006c-0.427,0.011 -0.857,-0.043 -1.279,-0.123c-0.422,-0.093 -0.822,-0.244 -1.192,-0.426c-0.367,-0.188 -0.693,-0.412 -0.974,-0.654c-0.278,-0.244 -0.514,-0.498 -0.703,-0.75c-0.384,-0.499 -0.596,-0.97 -0.719,-1.306c-0.118,-0.325 -0.162,-0.569 -0.159,-0.555c-0.105,-0.271 0.029,-0.577 0.3,-0.683c0.27,-0.103 0.575,0.031 0.681,0.302z"/>
     <path id="svg_267" fill="#F991A7" d="m232.271,336.924c0,-2.878 -2.332,-5.211 -5.209,-5.211c-2.878,0 -5.211,2.333 -5.211,5.211c0,2.877 2.333,5.21 5.211,5.21c2.877,0 5.209,-2.333 5.209,-5.21z"/>
     <path id="svg_268" fill="#F991A7" d="m270.499,337.13c0,-2.878 -2.332,-5.211 -5.211,-5.211c-2.877,0 -5.21,2.333 -5.21,5.211c0,2.877 2.333,5.21 5.21,5.21c2.879,0 5.211,-2.333 5.211,-5.21z"/>
    </g>
   </g>
   <g id="svg_269">
    <g id="svg_270">
     <path id="svg_271" fill="#1E120D" d="m355.227,436.345c-0.239,0 -0.451,-0.173 -0.492,-0.417c-0.486,-2.876 0.395,-11.061 0.433,-11.408c0.03,-0.275 0.293,-0.472 0.551,-0.443c0.274,0.03 0.474,0.276 0.443,0.551c-0.009,0.084 -0.904,8.395 -0.44,11.135c0.046,0.272 -0.138,0.53 -0.41,0.576c-0.03,0.004 -0.057,0.006 -0.085,0.006z"/>
     <path id="svg_272" fill="#1E120D" d="m350.18,436.435c-0.15,1.353 5.136,0.937 5.336,-0.385c0.199,-1.322 -5.11,-1.676 -5.336,0.385z"/>
    </g>
    <g id="svg_273">
     <path id="svg_274" fill="#1E120D" d="m374.343,436.71c-0.038,0 -0.078,-0.005 -0.117,-0.014c-0.269,-0.065 -0.434,-0.335 -0.369,-0.603c0.652,-2.702 0.335,-11.054 0.331,-11.138c-0.011,-0.276 0.204,-0.509 0.48,-0.52c0.318,-0.003 0.509,0.205 0.52,0.48c0.014,0.349 0.325,8.575 -0.358,11.411c-0.057,0.231 -0.262,0.384 -0.487,0.384z"/>
     <path id="svg_275" fill="#1E120D" d="m379.338,437.149c0.056,1.361 -5.19,0.579 -5.297,-0.755c-0.107,-1.33 5.212,-1.317 5.297,0.755z"/>
    </g>
    <g id="svg_276">
     <path id="svg_277" fill="#84D3AF" d="m410.79,356.786c0.31,9.27 -0.04,17.42 -0.96,24.56l-0.16,-0.02c-43.34,22 -91.67,-1 -91.67,-1l-0.19,0.02c-0.159,-1.58 -0.27,-3.21 -0.35,-4.89c-2.25,-47.96 21.73,-65.13 40.67,-67c35.5,-3.5 51.86,24.12 52.66,48.33zm-36.66,17c0.66,-6 0.78,-14.39 -3.17,-18.5c-4.17,-4.33 -12.33,-3.5 -16,1.5c-3.62,4.94 -7.5,25.84 4.5,28.34c11.33,2.36 14,-5.34 14.67,-11.34z"/>
     <path id="svg_278" fill="#0077A2" d="m409.67,381.326l0.16,0.02c-4.08,31.521 -19.46,43.32 -39.83,44.15c-23.55,0.96 -48.49,-5.93 -52.19,-45.15l0.19,-0.02c0,0 48.33,23 91.67,1z"/>
    </g>
    <path id="svg_279" fill="#371E00" d="m366.121,334.72c0,0 -1.251,-5.007 -7.055,-4.438c-5.446,0.534 -7.396,7.851 -11.834,8.306c-4.438,0.456 -6.752,-2.133 -7.055,-1.706c-0.303,0.427 6.827,9.785 17.409,7.055c6.977,-1.8 8.535,-7.397 8.535,-9.217z"/>
    <path id="svg_280" fill="#371E00" d="m364.883,334.595c0,0 1.252,-5.007 7.055,-4.438c5.446,0.534 7.397,7.851 11.834,8.306c4.438,0.456 6.568,-2.133 7.055,-1.706c0.486,0.427 -6.258,10.24 -17.409,7.055c-6.93,-1.98 -8.535,-7.397 -8.535,-9.217z"/>
    <circle id="svg_281" fill="#14120F" r="2.25" cy="329.79" cx="349.545"/>
    <circle id="svg_282" fill="#14120F" r="2.25" cy="330.163" cx="381.417"/>
    <g id="svg_283">
     <path id="svg_284" fill="#1E120D" d="m335.608,372.947c-0.196,0 -0.384,-0.117 -0.463,-0.311c-4.966,-12.11 0.968,-18.238 1.223,-18.493c0.196,-0.196 0.512,-0.194 0.706,0c0.195,0.194 0.196,0.511 0.002,0.706c-0.058,0.059 -5.704,5.947 -1.005,17.408c0.104,0.255 -0.018,0.547 -0.273,0.652c-0.062,0.026 -0.126,0.038 -0.19,0.038z"/>
     <path id="svg_285" fill="#1E120D" d="m337.39,372.297c-0.895,-0.138 -2.225,0.225 -2.521,1.15c-0.298,0.928 -0.589,3.669 -0.066,3.886c0.807,0.334 1.225,-2.17 1.225,-2.17s0.486,2.453 0.975,2.42c0.834,-0.056 0.333,-2.587 0.333,-2.587s1.483,1.697 1.892,1.475c0.408,-0.223 -1.085,-2.727 -1.085,-2.727s1.846,0.482 1.846,-0.223c-0.003,-0.705 -1.636,-1.074 -2.599,-1.224z"/>
    </g>
    <g id="svg_286">
     <path id="svg_287" fill="#1E120D" d="m391.206,373.614c-0.064,0 -0.128,-0.012 -0.189,-0.037c-0.256,-0.105 -0.378,-0.397 -0.273,-0.652c4.716,-11.501 -0.946,-17.35 -1.004,-17.407c-0.195,-0.195 -0.195,-0.512 0,-0.707c0.195,-0.195 0.512,-0.195 0.707,0c0.255,0.255 6.189,6.383 1.223,18.493c-0.08,0.193 -0.268,0.31 -0.464,0.31z"/>
     <path id="svg_288" fill="#1E120D" d="m389.637,372.464c0.895,-0.138 2.225,0.225 2.522,1.15c0.298,0.928 0.589,3.669 0.066,3.886c-0.807,0.334 -1.225,-2.17 -1.225,-2.17s-0.486,2.453 -0.975,2.42c-0.834,-0.056 -0.333,-2.587 -0.333,-2.587s-1.483,1.697 -1.892,1.475c-0.408,-0.223 1.085,-2.727 1.085,-2.727s-1.846,0.482 -1.846,-0.223c0.001,-0.705 1.634,-1.074 2.598,-1.224z"/>
    </g>
   </g>
  </g>
 </g>
</svg>